<?xml version="1.0" encoding="utf-8"?>
<svg xmlns="http://www.w3.org/2000/svg" xmlns:xlink="http://www.w3.org/1999/xlink" width="600" height="400" viewBox="0 0 2400 1600">
<defs>
  <clipPath id="clip970">
    <rect x="0" y="0" width="2400" height="1600"/>
  </clipPath>
</defs>
<path clip-path="url(#clip970)" d="M0 1600 L2400 1600 L2400 0 L0 0  Z" fill="#ffffff" fill-rule="evenodd" fill-opacity="1"/>
<defs>
  <clipPath id="clip971">
    <rect x="480" y="0" width="1681" height="1600"/>
  </clipPath>
</defs>
<path clip-path="url(#clip970)" d="M167.54 1440.46 L2352.76 1440.46 L2352.76 47.2441 L167.54 47.2441  Z" fill="#ffffff" fill-rule="evenodd" fill-opacity="1"/>
<defs>
  <clipPath id="clip972">
    <rect x="167" y="47" width="2186" height="1394"/>
  </clipPath>
</defs>
<polyline clip-path="url(#clip972)" style="stroke:#000000; stroke-linecap:round; stroke-linejoin:round; stroke-width:2; stroke-opacity:0.1; fill:none" points="435.538,1440.46 435.538,47.2441 "/>
<polyline clip-path="url(#clip972)" style="stroke:#000000; stroke-linecap:round; stroke-linejoin:round; stroke-width:2; stroke-opacity:0.1; fill:none" points="847.843,1440.46 847.843,47.2441 "/>
<polyline clip-path="url(#clip972)" style="stroke:#000000; stroke-linecap:round; stroke-linejoin:round; stroke-width:2; stroke-opacity:0.1; fill:none" points="1260.15,1440.46 1260.15,47.2441 "/>
<polyline clip-path="url(#clip972)" style="stroke:#000000; stroke-linecap:round; stroke-linejoin:round; stroke-width:2; stroke-opacity:0.1; fill:none" points="1672.45,1440.46 1672.45,47.2441 "/>
<polyline clip-path="url(#clip972)" style="stroke:#000000; stroke-linecap:round; stroke-linejoin:round; stroke-width:2; stroke-opacity:0.1; fill:none" points="2084.76,1440.46 2084.76,47.2441 "/>
<polyline clip-path="url(#clip970)" style="stroke:#000000; stroke-linecap:round; stroke-linejoin:round; stroke-width:4; stroke-opacity:1; fill:none" points="167.54,1440.46 2352.76,1440.46 "/>
<polyline clip-path="url(#clip970)" style="stroke:#000000; stroke-linecap:round; stroke-linejoin:round; stroke-width:4; stroke-opacity:1; fill:none" points="435.538,1440.46 435.538,1421.56 "/>
<polyline clip-path="url(#clip970)" style="stroke:#000000; stroke-linecap:round; stroke-linejoin:round; stroke-width:4; stroke-opacity:1; fill:none" points="847.843,1440.46 847.843,1421.56 "/>
<polyline clip-path="url(#clip970)" style="stroke:#000000; stroke-linecap:round; stroke-linejoin:round; stroke-width:4; stroke-opacity:1; fill:none" points="1260.15,1440.46 1260.15,1421.56 "/>
<polyline clip-path="url(#clip970)" style="stroke:#000000; stroke-linecap:round; stroke-linejoin:round; stroke-width:4; stroke-opacity:1; fill:none" points="1672.45,1440.46 1672.45,1421.56 "/>
<polyline clip-path="url(#clip970)" style="stroke:#000000; stroke-linecap:round; stroke-linejoin:round; stroke-width:4; stroke-opacity:1; fill:none" points="2084.76,1440.46 2084.76,1421.56 "/>
<path clip-path="url(#clip970)" d="M896.76 1489.42 L934 1489.42 L934 1496.8 L905.528 1496.8 L905.528 1515.9 L931.222 1515.9 L931.222 1523.27 L905.528 1523.27 L905.528 1554.22 L896.76 1554.22 L896.76 1489.42 Z" fill="#000000" fill-rule="evenodd" fill-opacity="1" /><path clip-path="url(#clip970)" d="M969.242 1513.07 Q967.897 1512.29 966.291 1511.95 Q964.729 1511.56 962.819 1511.56 Q956.048 1511.56 952.402 1515.98 Q948.8 1520.37 948.8 1528.61 L948.8 1554.22 L940.77 1554.22 L940.77 1505.61 L948.8 1505.61 L948.8 1513.16 Q951.317 1508.73 955.354 1506.61 Q959.39 1504.44 965.163 1504.44 Q965.987 1504.44 966.986 1504.57 Q967.984 1504.65 969.199 1504.87 L969.242 1513.07 Z" fill="#000000" fill-rule="evenodd" fill-opacity="1" /><path clip-path="url(#clip970)" d="M1017.25 1527.92 L1017.25 1531.82 L980.527 1531.82 Q981.048 1540.07 985.475 1544.41 Q989.945 1548.71 997.888 1548.71 Q1002.49 1548.71 1006.79 1547.58 Q1011.13 1546.45 1015.38 1544.19 L1015.38 1551.75 Q1011.08 1553.57 1006.57 1554.52 Q1002.05 1555.48 997.411 1555.48 Q985.779 1555.48 978.965 1548.71 Q972.194 1541.94 972.194 1530.39 Q972.194 1518.46 978.617 1511.47 Q985.084 1504.44 996.022 1504.44 Q1005.83 1504.44 1011.52 1510.77 Q1017.25 1517.07 1017.25 1527.92 M1009.26 1525.57 Q1009.17 1519.02 1005.57 1515.11 Q1002.01 1511.21 996.109 1511.21 Q989.425 1511.21 985.388 1514.98 Q981.395 1518.76 980.788 1525.62 L1009.26 1525.57 Z" fill="#000000" fill-rule="evenodd" fill-opacity="1" /><path clip-path="url(#clip970)" d="M1065.34 1507.48 L1065.34 1514.94 Q1061.95 1513.07 1058.52 1512.16 Q1055.14 1511.21 1051.66 1511.21 Q1043.89 1511.21 1039.6 1516.16 Q1035.3 1521.06 1035.3 1529.96 Q1035.3 1538.86 1039.6 1543.8 Q1043.89 1548.71 1051.66 1548.71 Q1055.14 1548.71 1058.52 1547.8 Q1061.95 1546.84 1065.34 1544.98 L1065.34 1552.35 Q1061.99 1553.92 1058.39 1554.7 Q1054.83 1555.48 1050.8 1555.48 Q1039.82 1555.48 1033.35 1548.58 Q1026.88 1541.68 1026.88 1529.96 Q1026.88 1518.07 1033.39 1511.25 Q1039.95 1504.44 1051.32 1504.44 Q1055.01 1504.44 1058.52 1505.22 Q1062.04 1505.96 1065.34 1507.48 Z" fill="#000000" fill-rule="evenodd" fill-opacity="1" /><path clip-path="url(#clip970)" d="M1078.4 1535.04 L1078.4 1505.61 L1086.39 1505.61 L1086.39 1534.73 Q1086.39 1541.63 1089.08 1545.11 Q1091.77 1548.53 1097.15 1548.53 Q1103.62 1548.53 1107.35 1544.41 Q1111.13 1540.29 1111.13 1533.17 L1111.13 1505.61 L1119.11 1505.61 L1119.11 1554.22 L1111.13 1554.22 L1111.13 1546.75 Q1108.22 1551.18 1104.35 1553.35 Q1100.54 1555.48 1095.46 1555.48 Q1087.08 1555.48 1082.74 1550.27 Q1078.4 1545.06 1078.4 1535.04 M1098.5 1504.44 L1098.5 1504.44 Z" fill="#000000" fill-rule="evenodd" fill-opacity="1" /><path clip-path="url(#clip970)" d="M1177.14 1527.92 L1177.14 1531.82 L1140.42 1531.82 Q1140.94 1540.07 1145.37 1544.41 Q1149.84 1548.71 1157.78 1548.71 Q1162.38 1548.71 1166.68 1547.58 Q1171.02 1546.45 1175.27 1544.19 L1175.27 1551.75 Q1170.98 1553.57 1166.46 1554.52 Q1161.95 1555.48 1157.31 1555.48 Q1145.67 1555.48 1138.86 1548.71 Q1132.09 1541.94 1132.09 1530.39 Q1132.09 1518.46 1138.51 1511.47 Q1144.98 1504.44 1155.92 1504.44 Q1165.73 1504.44 1171.41 1510.77 Q1177.14 1517.07 1177.14 1527.92 M1169.15 1525.57 Q1169.07 1519.02 1165.47 1515.11 Q1161.91 1511.21 1156 1511.21 Q1149.32 1511.21 1145.28 1514.98 Q1141.29 1518.76 1140.68 1525.62 L1169.15 1525.57 Z" fill="#000000" fill-rule="evenodd" fill-opacity="1" /><path clip-path="url(#clip970)" d="M1230.66 1524.88 L1230.66 1554.22 L1222.67 1554.22 L1222.67 1525.14 Q1222.67 1518.24 1219.98 1514.81 Q1217.29 1511.38 1211.91 1511.38 Q1205.44 1511.38 1201.71 1515.5 Q1197.97 1519.63 1197.97 1526.75 L1197.97 1554.22 L1189.94 1554.22 L1189.94 1505.61 L1197.97 1505.61 L1197.97 1513.16 Q1200.84 1508.78 1204.7 1506.61 Q1208.61 1504.44 1213.69 1504.44 Q1222.06 1504.44 1226.36 1509.65 Q1230.66 1514.81 1230.66 1524.88 Z" fill="#000000" fill-rule="evenodd" fill-opacity="1" /><path clip-path="url(#clip970)" d="M1281.57 1507.48 L1281.57 1514.94 Q1278.18 1513.07 1274.75 1512.16 Q1271.37 1511.21 1267.9 1511.21 Q1260.13 1511.21 1255.83 1516.16 Q1251.53 1521.06 1251.53 1529.96 Q1251.53 1538.86 1255.83 1543.8 Q1260.13 1548.71 1267.9 1548.71 Q1271.37 1548.71 1274.75 1547.8 Q1278.18 1546.84 1281.57 1544.98 L1281.57 1552.35 Q1278.23 1553.92 1274.62 1554.7 Q1271.06 1555.48 1267.03 1555.48 Q1256.05 1555.48 1249.58 1548.58 Q1243.11 1541.68 1243.11 1529.96 Q1243.11 1518.07 1249.62 1511.25 Q1256.18 1504.44 1267.55 1504.44 Q1271.24 1504.44 1274.75 1505.22 Q1278.27 1505.96 1281.57 1507.48 Z" fill="#000000" fill-rule="evenodd" fill-opacity="1" /><path clip-path="url(#clip970)" d="M1295.46 1505.61 L1303.44 1505.61 L1303.44 1554.22 L1295.46 1554.22 L1295.46 1505.61 M1295.46 1486.69 L1303.44 1486.69 L1303.44 1496.8 L1295.46 1496.8 L1295.46 1486.69 Z" fill="#000000" fill-rule="evenodd" fill-opacity="1" /><path clip-path="url(#clip970)" d="M1342.24 1529.78 Q1332.57 1529.78 1328.83 1532 Q1325.1 1534.21 1325.1 1539.55 Q1325.1 1543.8 1327.88 1546.32 Q1330.7 1548.79 1335.52 1548.79 Q1342.16 1548.79 1346.15 1544.11 Q1350.19 1539.38 1350.19 1531.56 L1350.19 1529.78 L1342.24 1529.78 M1358.17 1526.49 L1358.17 1554.22 L1350.19 1554.22 L1350.19 1546.84 Q1347.45 1551.27 1343.37 1553.4 Q1339.29 1555.48 1333.39 1555.48 Q1325.92 1555.48 1321.5 1551.31 Q1317.11 1547.1 1317.11 1540.07 Q1317.11 1531.87 1322.58 1527.7 Q1328.09 1523.53 1338.99 1523.53 L1350.19 1523.53 L1350.19 1522.75 Q1350.19 1517.24 1346.54 1514.25 Q1342.94 1511.21 1336.38 1511.21 Q1332.22 1511.21 1328.27 1512.21 Q1324.32 1513.2 1320.67 1515.2 L1320.67 1507.82 Q1325.06 1506.13 1329.18 1505.31 Q1333.3 1504.44 1337.21 1504.44 Q1347.76 1504.44 1352.96 1509.91 Q1358.17 1515.37 1358.17 1526.49 Z" fill="#000000" fill-rule="evenodd" fill-opacity="1" /><path clip-path="url(#clip970)" d="M1422.06 1486.77 Q1416.25 1496.75 1413.42 1506.52 Q1410.6 1516.29 1410.6 1526.31 Q1410.6 1536.34 1413.42 1546.19 Q1416.29 1556 1422.06 1565.94 L1415.12 1565.94 Q1408.61 1555.74 1405.35 1545.89 Q1402.14 1536.03 1402.14 1526.31 Q1402.14 1516.63 1405.35 1506.82 Q1408.56 1497.02 1415.12 1486.77 L1422.06 1486.77 Z" fill="#000000" fill-rule="evenodd" fill-opacity="1" /><path clip-path="url(#clip970)" d="M1459.65 1529.78 Q1449.97 1529.78 1446.24 1532 Q1442.5 1534.21 1442.5 1539.55 Q1442.5 1543.8 1445.28 1546.32 Q1448.1 1548.79 1452.92 1548.79 Q1459.56 1548.79 1463.55 1544.11 Q1467.59 1539.38 1467.59 1531.56 L1467.59 1529.78 L1459.65 1529.78 M1475.58 1526.49 L1475.58 1554.22 L1467.59 1554.22 L1467.59 1546.84 Q1464.86 1551.27 1460.78 1553.4 Q1456.7 1555.48 1450.79 1555.48 Q1443.33 1555.48 1438.9 1551.31 Q1434.52 1547.1 1434.52 1540.07 Q1434.52 1531.87 1439.99 1527.7 Q1445.5 1523.53 1456.39 1523.53 L1467.59 1523.53 L1467.59 1522.75 Q1467.59 1517.24 1463.94 1514.25 Q1460.34 1511.21 1453.79 1511.21 Q1449.62 1511.21 1445.67 1512.21 Q1441.72 1513.2 1438.08 1515.2 L1438.08 1507.82 Q1442.46 1506.13 1446.58 1505.31 Q1450.71 1504.44 1454.61 1504.44 Q1465.16 1504.44 1470.37 1509.91 Q1475.58 1515.37 1475.58 1526.49 Z" fill="#000000" fill-rule="evenodd" fill-opacity="1" /><path clip-path="url(#clip970)" d="M1493.15 1543.2 L1502.31 1543.2 L1502.31 1554.22 L1493.15 1554.22 L1493.15 1543.2 Z" fill="#000000" fill-rule="evenodd" fill-opacity="1" /><path clip-path="url(#clip970)" d="M1519.46 1535.04 L1519.46 1505.61 L1527.44 1505.61 L1527.44 1534.73 Q1527.44 1541.63 1530.13 1545.11 Q1532.82 1548.53 1538.21 1548.53 Q1544.67 1548.53 1548.41 1544.41 Q1552.18 1540.29 1552.18 1533.17 L1552.18 1505.61 L1560.17 1505.61 L1560.17 1554.22 L1552.18 1554.22 L1552.18 1546.75 Q1549.27 1551.18 1545.41 1553.35 Q1541.59 1555.48 1536.51 1555.48 Q1528.14 1555.48 1523.8 1550.27 Q1519.46 1545.06 1519.46 1535.04 M1539.55 1504.44 L1539.55 1504.44 Z" fill="#000000" fill-rule="evenodd" fill-opacity="1" /><path clip-path="url(#clip970)" d="M1577.75 1543.2 L1586.9 1543.2 L1586.9 1554.22 L1577.75 1554.22 L1577.75 1543.2 Z" fill="#000000" fill-rule="evenodd" fill-opacity="1" /><path clip-path="url(#clip970)" d="M1603.61 1486.77 L1610.56 1486.77 Q1617.07 1497.02 1620.28 1506.82 Q1623.54 1516.63 1623.54 1526.31 Q1623.54 1536.03 1620.28 1545.89 Q1617.07 1555.74 1610.56 1565.94 L1603.61 1565.94 Q1609.39 1556 1612.21 1546.19 Q1615.07 1536.34 1615.07 1526.31 Q1615.07 1516.29 1612.21 1506.52 Q1609.39 1496.75 1603.61 1486.77 Z" fill="#000000" fill-rule="evenodd" fill-opacity="1" /><polyline clip-path="url(#clip972)" style="stroke:#000000; stroke-linecap:round; stroke-linejoin:round; stroke-width:2; stroke-opacity:0.1; fill:none" points="167.54,1432.1 2352.76,1432.1 "/>
<polyline clip-path="url(#clip972)" style="stroke:#000000; stroke-linecap:round; stroke-linejoin:round; stroke-width:2; stroke-opacity:0.1; fill:none" points="167.54,1207.27 2352.76,1207.27 "/>
<polyline clip-path="url(#clip972)" style="stroke:#000000; stroke-linecap:round; stroke-linejoin:round; stroke-width:2; stroke-opacity:0.1; fill:none" points="167.54,982.449 2352.76,982.449 "/>
<polyline clip-path="url(#clip972)" style="stroke:#000000; stroke-linecap:round; stroke-linejoin:round; stroke-width:2; stroke-opacity:0.1; fill:none" points="167.54,757.625 2352.76,757.625 "/>
<polyline clip-path="url(#clip972)" style="stroke:#000000; stroke-linecap:round; stroke-linejoin:round; stroke-width:2; stroke-opacity:0.1; fill:none" points="167.54,532.801 2352.76,532.801 "/>
<polyline clip-path="url(#clip972)" style="stroke:#000000; stroke-linecap:round; stroke-linejoin:round; stroke-width:2; stroke-opacity:0.1; fill:none" points="167.54,307.977 2352.76,307.977 "/>
<polyline clip-path="url(#clip972)" style="stroke:#000000; stroke-linecap:round; stroke-linejoin:round; stroke-width:2; stroke-opacity:0.1; fill:none" points="167.54,83.1535 2352.76,83.1535 "/>
<polyline clip-path="url(#clip970)" style="stroke:#000000; stroke-linecap:round; stroke-linejoin:round; stroke-width:4; stroke-opacity:1; fill:none" points="167.54,1440.46 167.54,47.2441 "/>
<polyline clip-path="url(#clip970)" style="stroke:#000000; stroke-linecap:round; stroke-linejoin:round; stroke-width:4; stroke-opacity:1; fill:none" points="167.54,1432.1 186.438,1432.1 "/>
<polyline clip-path="url(#clip970)" style="stroke:#000000; stroke-linecap:round; stroke-linejoin:round; stroke-width:4; stroke-opacity:1; fill:none" points="167.54,1207.27 186.438,1207.27 "/>
<polyline clip-path="url(#clip970)" style="stroke:#000000; stroke-linecap:round; stroke-linejoin:round; stroke-width:4; stroke-opacity:1; fill:none" points="167.54,982.449 186.438,982.449 "/>
<polyline clip-path="url(#clip970)" style="stroke:#000000; stroke-linecap:round; stroke-linejoin:round; stroke-width:4; stroke-opacity:1; fill:none" points="167.54,757.625 186.438,757.625 "/>
<polyline clip-path="url(#clip970)" style="stroke:#000000; stroke-linecap:round; stroke-linejoin:round; stroke-width:4; stroke-opacity:1; fill:none" points="167.54,532.801 186.438,532.801 "/>
<polyline clip-path="url(#clip970)" style="stroke:#000000; stroke-linecap:round; stroke-linejoin:round; stroke-width:4; stroke-opacity:1; fill:none" points="167.54,307.977 186.438,307.977 "/>
<polyline clip-path="url(#clip970)" style="stroke:#000000; stroke-linecap:round; stroke-linejoin:round; stroke-width:4; stroke-opacity:1; fill:none" points="167.54,83.1535 186.438,83.1535 "/>
<path clip-path="url(#clip970)" d="M19.9373 1060.86 L52.1854 1072.76 L52.1854 1048.93 L19.9373 1060.86 M11.3002 1065.81 L11.3002 1055.87 L76.1002 1031.18 L76.1002 1040.29 L59.477 1046.19 L59.477 1075.4 L76.1002 1081.31 L76.1002 1090.55 L11.3002 1065.81 Z" fill="#000000" fill-rule="evenodd" fill-opacity="1" /><path clip-path="url(#clip970)" d="M51.8381 987.167 Q43.0274 987.167 38.0361 990.812 Q33.0014 994.415 33.0014 1000.75 Q33.0014 1007.09 38.0361 1010.73 Q43.0274 1014.34 51.8381 1014.34 Q60.6489 1014.34 65.6835 1010.73 Q70.6748 1007.09 70.6748 1000.75 Q70.6748 994.415 65.6835 990.812 Q60.6489 987.167 51.8381 987.167 M34.8677 1014.34 Q30.5275 1011.82 28.4442 1008 Q26.3174 1004.14 26.3174 998.799 Q26.3174 989.944 33.3487 984.432 Q40.3799 978.877 51.8381 978.877 Q63.2964 978.877 70.3276 984.432 Q77.3588 989.944 77.3588 998.799 Q77.3588 1004.14 75.2755 1008 Q73.1488 1011.82 68.8085 1014.34 L76.1002 1014.34 L76.1002 1022.37 L8.5658 1022.37 L8.5658 1014.34 L34.8677 1014.34 Z" fill="#000000" fill-rule="evenodd" fill-opacity="1" /><path clip-path="url(#clip970)" d="M28.9216 934.65 L36.4736 934.65 Q34.7375 938.035 33.8695 941.681 Q33.0014 945.327 33.0014 949.233 Q33.0014 955.179 34.8243 958.174 Q36.6472 961.125 40.2931 961.125 Q43.0708 961.125 44.6767 958.998 Q46.2392 956.872 47.6715 950.448 L48.2791 947.714 Q50.102 939.207 53.444 935.648 Q56.7426 932.045 62.6888 932.045 Q69.4596 932.045 73.4092 937.427 Q77.3588 942.766 77.3588 952.141 Q77.3588 956.047 76.5776 960.3 Q75.8397 964.511 74.3207 969.198 L66.0742 969.198 Q68.3745 964.771 69.5464 960.474 Q70.6748 956.177 70.6748 951.967 Q70.6748 946.325 68.7651 943.287 Q66.812 940.248 63.2964 940.248 Q60.0412 940.248 58.3051 942.462 Q56.569 944.632 54.9631 952.054 L54.3121 954.832 Q52.7496 962.254 49.5378 965.552 Q46.2826 968.851 40.6403 968.851 Q33.7827 968.851 30.0501 963.99 Q26.3174 959.129 26.3174 950.188 Q26.3174 945.761 26.9685 941.854 Q27.6195 937.948 28.9216 934.65 Z" fill="#000000" fill-rule="evenodd" fill-opacity="1" /><path clip-path="url(#clip970)" d="M33.0882 900.492 Q33.0882 906.915 38.1229 910.648 Q43.1142 914.381 51.8381 914.381 Q60.562 914.381 65.5967 910.691 Q70.588 906.959 70.588 900.492 Q70.588 894.112 65.5533 890.379 Q60.5186 886.646 51.8381 886.646 Q43.201 886.646 38.1663 890.379 Q33.0882 894.112 33.0882 900.492 M26.3174 900.492 Q26.3174 890.075 33.0882 884.129 Q39.859 878.183 51.8381 878.183 Q63.7738 878.183 70.588 884.129 Q77.3588 890.075 77.3588 900.492 Q77.3588 910.952 70.588 916.898 Q63.7738 922.801 51.8381 922.801 Q39.859 922.801 33.0882 916.898 Q26.3174 910.952 26.3174 900.492 Z" fill="#000000" fill-rule="evenodd" fill-opacity="1" /><path clip-path="url(#clip970)" d="M34.9545 836.777 Q34.1733 838.122 33.8261 839.728 Q33.4355 841.291 33.4355 843.2 Q33.4355 849.971 37.8625 853.617 Q42.2462 857.219 50.4927 857.219 L76.1002 857.219 L76.1002 865.249 L27.4893 865.249 L27.4893 857.219 L35.0413 857.219 Q30.6143 854.702 28.4876 850.666 Q26.3174 846.629 26.3174 840.857 Q26.3174 840.032 26.4476 839.034 Q26.5345 838.035 26.7515 836.82 L34.9545 836.777 Z" fill="#000000" fill-rule="evenodd" fill-opacity="1" /><path clip-path="url(#clip970)" d="M29.3556 795.371 L36.8209 795.371 Q34.9545 798.756 34.0431 802.185 Q33.0882 805.57 33.0882 809.043 Q33.0882 816.812 38.0361 821.108 Q42.9406 825.405 51.8381 825.405 Q60.7357 825.405 65.6835 821.108 Q70.588 816.812 70.588 809.043 Q70.588 805.57 69.6766 802.185 Q68.7217 798.756 66.8554 795.371 L74.2338 795.371 Q75.7963 798.713 76.5776 802.315 Q77.3588 805.874 77.3588 809.911 Q77.3588 820.891 70.4578 827.358 Q63.5568 833.825 51.8381 833.825 Q39.9458 833.825 33.1316 827.315 Q26.3174 820.761 26.3174 809.39 Q26.3174 805.701 27.0987 802.185 Q27.8365 798.669 29.3556 795.371 Z" fill="#000000" fill-rule="evenodd" fill-opacity="1" /><path clip-path="url(#clip970)" d="M27.4893 781.482 L27.4893 773.496 L76.1002 773.496 L76.1002 781.482 L27.4893 781.482 M8.5658 781.482 L8.5658 773.496 L18.6786 773.496 L18.6786 781.482 L8.5658 781.482 Z" fill="#000000" fill-rule="evenodd" fill-opacity="1" /><path clip-path="url(#clip970)" d="M33.0882 737.949 Q33.0882 744.373 38.1229 748.105 Q43.1142 751.838 51.8381 751.838 Q60.562 751.838 65.5967 748.149 Q70.588 744.416 70.588 737.949 Q70.588 731.569 65.5533 727.836 Q60.5186 724.104 51.8381 724.104 Q43.201 724.104 38.1663 727.836 Q33.0882 731.569 33.0882 737.949 M26.3174 737.949 Q26.3174 727.533 33.0882 721.586 Q39.859 715.64 51.8381 715.64 Q63.7738 715.64 70.588 721.586 Q77.3588 727.533 77.3588 737.949 Q77.3588 748.409 70.588 754.355 Q63.7738 760.258 51.8381 760.258 Q39.859 760.258 33.0882 754.355 Q26.3174 748.409 26.3174 737.949 M5.00679 731.916 L5.00679 723.279 L21.3261 737.428 L21.3261 744.069 L5.00679 731.916 Z" fill="#000000" fill-rule="evenodd" fill-opacity="1" /><path clip-path="url(#clip970)" d="M46.76 661.995 L76.1002 661.995 L76.1002 669.981 L47.0205 669.981 Q40.1194 669.981 36.6906 672.672 Q33.2618 675.363 33.2618 680.745 Q33.2618 687.212 37.3851 690.944 Q41.5083 694.677 48.6263 694.677 L76.1002 694.677 L76.1002 702.706 L27.4893 702.706 L27.4893 694.677 L35.0413 694.677 Q30.6577 691.812 28.4876 687.949 Q26.3174 684.043 26.3174 678.965 Q26.3174 670.588 31.5257 666.292 Q36.6906 661.995 46.76 661.995 Z" fill="#000000" fill-rule="evenodd" fill-opacity="1" /><path clip-path="url(#clip970)" d="M8.6526 598.627 Q18.6352 604.443 28.4008 607.264 Q38.1663 610.085 48.1923 610.085 Q58.2183 610.085 68.0707 607.264 Q77.8797 604.4 87.8188 598.627 L87.8188 605.571 Q77.6192 612.082 67.7669 615.337 Q57.9145 618.549 48.1923 618.549 Q38.5136 618.549 28.7046 615.337 Q18.8956 612.125 8.6526 605.571 L8.6526 598.627 Z" fill="#000000" fill-rule="evenodd" fill-opacity="1" /><path clip-path="url(#clip970)" d="M51.6645 561.04 Q51.6645 570.719 53.8781 574.452 Q56.0916 578.184 61.4301 578.184 Q65.6835 578.184 68.2009 575.407 Q70.6748 572.586 70.6748 567.768 Q70.6748 561.127 65.9874 557.134 Q61.2565 553.098 53.444 553.098 L51.6645 553.098 L51.6645 561.04 M48.3659 545.112 L76.1002 545.112 L76.1002 553.098 L68.7217 553.098 Q73.1488 555.832 75.2755 559.912 Q77.3588 563.992 77.3588 569.895 Q77.3588 577.36 73.1922 581.787 Q68.9821 586.171 61.9509 586.171 Q53.7478 586.171 49.5812 580.702 Q45.4146 575.19 45.4146 564.296 L45.4146 553.098 L44.6333 553.098 Q39.1212 553.098 36.1264 556.744 Q33.0882 560.346 33.0882 566.9 Q33.0882 571.066 34.0865 575.016 Q35.0848 578.966 37.0813 582.612 L29.7028 582.612 Q28.0101 578.228 27.1855 574.105 Q26.3174 569.981 26.3174 566.075 Q26.3174 555.528 31.7862 550.32 Q37.2549 545.112 48.3659 545.112 Z" fill="#000000" fill-rule="evenodd" fill-opacity="1" /><path clip-path="url(#clip970)" d="M65.0759 527.534 L65.0759 518.376 L76.1002 518.376 L76.1002 527.534 L65.0759 527.534 Z" fill="#000000" fill-rule="evenodd" fill-opacity="1" /><path clip-path="url(#clip970)" d="M56.9162 501.232 L27.4893 501.232 L27.4893 493.246 L56.6124 493.246 Q63.5134 493.246 66.9856 490.555 Q70.4144 487.864 70.4144 482.482 Q70.4144 476.015 66.2912 472.282 Q62.1679 468.506 55.0499 468.506 L27.4893 468.506 L27.4893 460.52 L76.1002 460.52 L76.1002 468.506 L68.6349 468.506 Q73.062 471.414 75.2321 475.277 Q77.3588 479.096 77.3588 484.175 Q77.3588 492.551 72.1505 496.891 Q66.9422 501.232 56.9162 501.232 M26.3174 481.136 L26.3174 481.136 Z" fill="#000000" fill-rule="evenodd" fill-opacity="1" /><path clip-path="url(#clip970)" d="M65.0759 442.942 L65.0759 433.784 L76.1002 433.784 L76.1002 442.942 L65.0759 442.942 Z" fill="#000000" fill-rule="evenodd" fill-opacity="1" /><path clip-path="url(#clip970)" d="M8.6526 417.074 L8.6526 410.13 Q18.8956 403.619 28.7046 400.408 Q38.5136 397.152 48.1923 397.152 Q57.9145 397.152 67.7669 400.408 Q77.6192 403.619 87.8188 410.13 L87.8188 417.074 Q77.8797 411.302 68.0707 408.481 Q58.2183 405.616 48.1923 405.616 Q38.1663 405.616 28.4008 408.481 Q18.6352 411.302 8.6526 417.074 Z" fill="#000000" fill-rule="evenodd" fill-opacity="1" /><polyline clip-path="url(#clip972)" style="stroke:#009af9; stroke-linecap:round; stroke-linejoin:round; stroke-width:8; stroke-opacity:1; fill:none" points="229.386,982.446 250.209,982.444 271.033,982.44 291.856,982.435 312.68,982.426 333.503,982.412 354.327,982.392 375.15,982.36 395.974,982.312 416.797,982.241 437.621,982.136 458.444,981.983 479.268,981.762 500.091,981.447 520.915,981.002 541.738,980.381 562.562,979.523 583.385,978.351 604.208,976.769 625.032,974.656 645.855,971.865 666.679,968.221 687.502,963.516 708.326,957.51 729.149,949.934 749.973,940.487 770.796,928.844 791.62,914.666 812.443,897.608 833.267,877.335 854.09,853.54 874.914,825.963 895.737,794.415 916.561,758.801 937.384,719.141 958.208,675.596 979.031,628.479 999.855,578.273 1020.68,525.63 1041.5,471.372 1062.32,416.473 1083.15,362.04 1103.97,309.275 1124.8,259.438 1145.62,213.794 1166.44,173.563 1187.27,139.868 1208.09,113.678 1228.91,95.7679 1249.74,86.6747 1270.56,86.6747 1291.38,95.7679 1312.21,113.678 1333.03,139.868 1353.85,173.563 1374.68,213.794 1395.5,259.438 1416.32,309.275 1437.15,362.04 1457.97,416.473 1478.79,471.372 1499.62,525.63 1520.44,578.273 1541.26,628.479 1562.09,675.596 1582.91,719.141 1603.74,758.801 1624.56,794.415 1645.38,825.963 1666.21,853.54 1687.03,877.335 1707.85,897.608 1728.68,914.666 1749.5,928.844 1770.32,940.487 1791.15,949.934 1811.97,957.51 1832.79,963.516 1853.62,968.221 1874.44,971.865 1895.26,974.656 1916.09,976.769 1936.91,978.351 1957.73,979.523 1978.56,980.381 1999.38,981.002 2020.2,981.447 2041.03,981.762 2061.85,981.983 2082.68,982.136 2103.5,982.241 2124.32,982.312 2145.15,982.36 2165.97,982.392 2186.79,982.412 2207.62,982.426 2228.44,982.435 2249.26,982.44 2270.09,982.444 2290.91,982.446 "/>
<polyline clip-path="url(#clip972)" style="stroke:#e26f46; stroke-linecap:round; stroke-linejoin:round; stroke-width:8; stroke-opacity:1; fill:none" points="229.386,965.369 250.209,962.055 271.033,958.209 291.856,953.767 312.68,948.666 333.503,942.837 354.327,936.213 375.15,928.725 395.974,920.307 416.797,910.895 437.621,900.431 458.444,888.861 479.268,876.142 500.091,862.242 520.915,847.138 541.738,830.827 562.562,813.317 583.385,794.639 604.208,774.842 625.032,753.996 645.855,732.195 666.679,709.554 687.502,686.21 708.326,662.325 729.149,638.079 749.973,613.672 770.796,589.323 791.62,565.262 812.443,541.731 833.267,518.98 854.09,497.259 874.914,476.819 895.737,457.901 916.561,440.738 937.384,425.544 958.208,412.514 979.031,401.819 999.855,393.599 1020.68,387.965 1041.5,384.992 1062.32,384.721 1083.15,387.155 1103.97,392.262 1124.8,399.973 1145.62,410.184 1166.44,422.759 1187.27,437.535 1208.09,454.321 1228.91,472.906 1249.74,493.061 1270.56,514.545 1291.38,537.11 1312.21,560.505 1333.03,584.48 1353.85,608.79 1374.68,633.203 1395.5,657.498 1416.32,681.471 1437.15,704.936 1457.97,727.73 1478.79,749.709 1499.62,770.754 1520.44,790.767 1541.26,809.674 1562.09,827.42 1582.91,843.973 1603.74,859.318 1624.56,873.458 1645.38,886.41 1666.21,898.207 1687.03,908.888 1707.85,918.506 1728.68,927.118 1749.5,934.787 1770.32,941.578 1791.15,947.561 1811.97,952.802 1832.79,957.37 1853.62,961.33 1874.44,964.746 1895.26,967.676 1916.09,970.177 1936.91,972.3 1957.73,974.094 1978.56,975.603 1999.38,976.864 2020.2,977.913 2041.03,978.782 2061.85,979.498 2082.68,980.085 2103.5,980.564 2124.32,980.952 2145.15,981.266 2165.97,981.519 2186.79,981.72 2207.62,981.881 2228.44,982.008 2249.26,982.108 2270.09,982.187 2290.91,982.249 "/>
<polyline clip-path="url(#clip972)" style="stroke:#3da44d; stroke-linecap:round; stroke-linejoin:round; stroke-width:8; stroke-opacity:1; fill:none" points="229.386,982.249 250.209,982.187 271.033,982.108 291.856,982.008 312.68,981.881 333.503,981.72 354.327,981.519 375.15,981.266 395.974,980.952 416.797,980.564 437.621,980.085 458.444,979.498 479.268,978.782 500.091,977.913 520.915,976.864 541.738,975.603 562.562,974.094 583.385,972.3 604.208,970.177 625.032,967.676 645.855,964.746 666.679,961.33 687.502,957.37 708.326,952.802 729.149,947.561 749.973,941.578 770.796,934.787 791.62,927.118 812.443,918.506 833.267,908.888 854.09,898.207 874.914,886.41 895.737,873.458 916.561,859.318 937.384,843.973 958.208,827.42 979.031,809.674 999.855,790.767 1020.68,770.754 1041.5,749.709 1062.32,727.73 1083.15,704.936 1103.97,681.471 1124.8,657.498 1145.62,633.203 1166.44,608.79 1187.27,584.48 1208.09,560.505 1228.91,537.11 1249.74,514.545 1270.56,493.061 1291.38,472.906 1312.21,454.321 1333.03,437.535 1353.85,422.759 1374.68,410.184 1395.5,399.973 1416.32,392.262 1437.15,387.155 1457.97,384.721 1478.79,384.992 1499.62,387.965 1520.44,393.599 1541.26,401.819 1562.09,412.514 1582.91,425.544 1603.74,440.738 1624.56,457.901 1645.38,476.819 1666.21,497.259 1687.03,518.98 1707.85,541.731 1728.68,565.262 1749.5,589.323 1770.32,613.672 1791.15,638.079 1811.97,662.325 1832.79,686.21 1853.62,709.554 1874.44,732.195 1895.26,753.996 1916.09,774.842 1936.91,794.639 1957.73,813.317 1978.56,830.827 1999.38,847.138 2020.2,862.242 2041.03,876.142 2061.85,888.861 2082.68,900.431 2103.5,910.895 2124.32,920.307 2145.15,928.725 2165.97,936.213 2186.79,942.837 2207.62,948.666 2228.44,953.767 2249.26,958.209 2270.09,962.055 2290.91,965.369 "/>
<polyline clip-path="url(#clip972)" style="stroke:#c271d2; stroke-linecap:round; stroke-linejoin:round; stroke-width:8; stroke-opacity:1; fill:none" points="229.386,965.569 250.209,962.317 271.033,958.549 291.856,954.208 312.68,949.234 333.503,943.566 354.327,937.144 375.15,929.908 395.974,921.804 416.797,912.781 437.621,902.795 458.444,891.812 479.268,879.809 500.091,866.778 520.915,852.724 541.738,837.673 562.562,821.672 583.385,804.788 604.208,787.115 625.032,768.77 645.855,749.899 666.679,730.672 687.502,711.289 708.326,691.972 729.149,672.967 749.973,654.543 770.796,636.985 791.62,620.593 812.443,605.674 833.267,592.541 854.09,581.502 874.914,572.857 895.737,566.892 916.561,563.869 937.384,564.02 958.208,567.544 979.031,574.594 999.855,585.281 1020.68,599.66 1041.5,617.732 1062.32,639.44 1083.15,664.668 1103.97,693.241 1124.8,724.924 1145.62,759.429 1166.44,796.418 1187.27,835.504 1208.09,876.265 1228.91,918.244 1249.74,960.965 1270.56,1003.93 1291.38,1046.65 1312.21,1088.63 1333.03,1129.39 1353.85,1168.48 1374.68,1205.47 1395.5,1239.97 1416.32,1271.66 1437.15,1300.23 1457.97,1325.46 1478.79,1347.17 1499.62,1365.24 1520.44,1379.62 1541.26,1390.3 1562.09,1397.35 1582.91,1400.88 1603.74,1401.03 1624.56,1398.01 1645.38,1392.04 1666.21,1383.4 1687.03,1372.36 1707.85,1359.22 1728.68,1344.31 1749.5,1327.91 1770.32,1310.36 1791.15,1291.93 1811.97,1272.93 1832.79,1253.61 1853.62,1234.23 1874.44,1215 1895.26,1196.13 1916.09,1177.78 1936.91,1160.11 1957.73,1143.23 1978.56,1127.23 1999.38,1112.17 2020.2,1098.12 2041.03,1085.09 2061.85,1073.09 2082.68,1062.1 2103.5,1052.12 2124.32,1043.09 2145.15,1034.99 2165.97,1027.75 2186.79,1021.33 2207.62,1015.66 2228.44,1010.69 2249.26,1006.35 2270.09,1002.58 2290.91,999.329 "/>
<path clip-path="url(#clip970)" d="M1725.86 417.685 L2279.92 417.685 L2279.92 93.6846 L1725.86 93.6846  Z" fill="#ffffff" fill-rule="evenodd" fill-opacity="1"/>
<polyline clip-path="url(#clip970)" style="stroke:#000000; stroke-linecap:round; stroke-linejoin:round; stroke-width:4; stroke-opacity:1; fill:none" points="1725.86,417.685 2279.92,417.685 2279.92,93.6846 1725.86,93.6846 1725.86,417.685 "/>
<polyline clip-path="url(#clip970)" style="stroke:#009af9; stroke-linecap:round; stroke-linejoin:round; stroke-width:10; stroke-opacity:1; fill:none" points="1750.14,158.485 1895.82,158.485 "/>
<path clip-path="url(#clip970)" d="M1947.91 138.302 L1947.91 144.003 Q1944.58 142.411 1941.63 141.63 Q1938.68 140.849 1935.93 140.849 Q1931.16 140.849 1928.55 142.701 Q1925.98 144.552 1925.98 147.967 Q1925.98 150.831 1927.69 152.307 Q1929.42 153.754 1934.22 154.651 L1937.75 155.374 Q1944.29 156.618 1947.39 159.772 Q1950.52 162.897 1950.52 168.163 Q1950.52 174.442 1946.29 177.683 Q1942.1 180.924 1933.96 180.924 Q1930.9 180.924 1927.43 180.229 Q1923.98 179.535 1920.28 178.175 L1920.28 172.156 Q1923.84 174.153 1927.25 175.166 Q1930.67 176.178 1933.96 176.178 Q1938.97 176.178 1941.69 174.211 Q1944.41 172.243 1944.41 168.597 Q1944.41 165.415 1942.44 163.621 Q1940.5 161.827 1936.05 160.93 L1932.49 160.235 Q1925.95 158.933 1923.03 156.155 Q1920.1 153.378 1920.1 148.43 Q1920.1 142.701 1924.13 139.402 Q1928.18 136.103 1935.27 136.103 Q1938.3 136.103 1941.46 136.653 Q1944.61 137.203 1947.91 138.302 Z" fill="#000000" fill-rule="evenodd" fill-opacity="1" /><path clip-path="url(#clip970)" d="M1959.4 147.677 L1964.72 147.677 L1964.72 180.085 L1959.4 180.085 L1959.4 147.677 M1959.4 135.062 L1964.72 135.062 L1964.72 141.804 L1959.4 141.804 L1959.4 135.062 Z" fill="#000000" fill-rule="evenodd" fill-opacity="1" /><path clip-path="url(#clip970)" d="M2002.8 160.525 L2002.8 180.085 L1997.48 180.085 L1997.48 160.698 Q1997.48 156.097 1995.68 153.812 Q1993.89 151.526 1990.3 151.526 Q1985.99 151.526 1983.5 154.275 Q1981.01 157.023 1981.01 161.769 L1981.01 180.085 L1975.66 180.085 L1975.66 147.677 L1981.01 147.677 L1981.01 152.712 Q1982.92 149.79 1985.5 148.343 Q1988.1 146.896 1991.49 146.896 Q1997.07 146.896 1999.94 150.368 Q2002.8 153.812 2002.8 160.525 Z" fill="#000000" fill-rule="evenodd" fill-opacity="1" /><path clip-path="url(#clip970)" d="M2055.58 148.922 L2055.58 153.898 Q2053.32 152.654 2051.04 152.047 Q2048.78 151.41 2046.46 151.41 Q2041.28 151.41 2038.42 154.709 Q2035.56 157.978 2035.56 163.91 Q2035.56 169.842 2038.42 173.14 Q2041.28 176.41 2046.46 176.41 Q2048.78 176.41 2051.04 175.802 Q2053.32 175.166 2055.58 173.921 L2055.58 178.84 Q2053.35 179.882 2050.95 180.403 Q2048.58 180.924 2045.89 180.924 Q2038.56 180.924 2034.25 176.323 Q2029.94 171.722 2029.94 163.91 Q2029.94 155.982 2034.28 151.439 Q2038.65 146.896 2046.23 146.896 Q2048.69 146.896 2051.04 147.417 Q2053.38 147.909 2055.58 148.922 Z" fill="#000000" fill-rule="evenodd" fill-opacity="1" /><path clip-path="url(#clip970)" d="M2079.57 163.794 Q2073.11 163.794 2070.62 165.27 Q2068.14 166.746 2068.14 170.305 Q2068.14 173.14 2069.99 174.818 Q2071.87 176.468 2075.08 176.468 Q2079.51 176.468 2082.17 173.343 Q2084.86 170.189 2084.86 164.981 L2084.86 163.794 L2079.57 163.794 M2090.18 161.595 L2090.18 180.085 L2084.86 180.085 L2084.86 175.166 Q2083.04 178.117 2080.32 179.535 Q2077.6 180.924 2073.66 180.924 Q2068.69 180.924 2065.73 178.146 Q2062.81 175.339 2062.81 170.652 Q2062.81 165.183 2066.46 162.405 Q2070.13 159.628 2077.4 159.628 L2084.86 159.628 L2084.86 159.107 Q2084.86 155.432 2082.43 153.435 Q2080.03 151.41 2075.66 151.41 Q2072.88 151.41 2070.25 152.076 Q2067.62 152.741 2065.18 154.072 L2065.18 149.153 Q2068.11 148.025 2070.86 147.475 Q2073.6 146.896 2076.21 146.896 Q2083.24 146.896 2086.71 150.542 Q2090.18 154.188 2090.18 161.595 Z" fill="#000000" fill-rule="evenodd" fill-opacity="1" /><path clip-path="url(#clip970)" d="M2126.38 153.898 Q2128.38 150.31 2131.16 148.603 Q2133.93 146.896 2137.7 146.896 Q2142.76 146.896 2145.51 150.455 Q2148.26 153.985 2148.26 160.525 L2148.26 180.085 L2142.9 180.085 L2142.9 160.698 Q2142.9 156.04 2141.26 153.783 Q2139.61 151.526 2136.22 151.526 Q2132.08 151.526 2129.68 154.275 Q2127.28 157.023 2127.28 161.769 L2127.28 180.085 L2121.93 180.085 L2121.93 160.698 Q2121.93 156.011 2120.28 153.783 Q2118.63 151.526 2115.18 151.526 Q2111.1 151.526 2108.7 154.304 Q2106.3 157.052 2106.3 161.769 L2106.3 180.085 L2100.95 180.085 L2100.95 147.677 L2106.3 147.677 L2106.3 152.712 Q2108.12 149.732 2110.67 148.314 Q2113.22 146.896 2116.72 146.896 Q2120.25 146.896 2122.71 148.69 Q2125.2 150.484 2126.38 153.898 Z" fill="#000000" fill-rule="evenodd" fill-opacity="1" /><path clip-path="url(#clip970)" d="M2164.03 175.224 L2164.03 192.411 L2158.67 192.411 L2158.67 147.677 L2164.03 147.677 L2164.03 152.596 Q2165.71 149.703 2168.25 148.314 Q2170.83 146.896 2174.39 146.896 Q2180.29 146.896 2183.96 151.584 Q2187.67 156.271 2187.67 163.91 Q2187.67 171.549 2183.96 176.236 Q2180.29 180.924 2174.39 180.924 Q2170.83 180.924 2168.25 179.535 Q2165.71 178.117 2164.03 175.224 M2182.14 163.91 Q2182.14 158.036 2179.71 154.709 Q2177.31 151.352 2173.08 151.352 Q2168.86 151.352 2166.43 154.709 Q2164.03 158.036 2164.03 163.91 Q2164.03 169.784 2166.43 173.14 Q2168.86 176.468 2173.08 176.468 Q2177.31 176.468 2179.71 173.14 Q2182.14 169.784 2182.14 163.91 Z" fill="#000000" fill-rule="evenodd" fill-opacity="1" /><path clip-path="url(#clip970)" d="M2209.05 151.41 Q2204.77 151.41 2202.28 154.766 Q2199.79 158.094 2199.79 163.91 Q2199.79 169.726 2202.25 173.082 Q2204.74 176.41 2209.05 176.41 Q2213.3 176.41 2215.79 173.053 Q2218.28 169.697 2218.28 163.91 Q2218.28 158.152 2215.79 154.795 Q2213.3 151.41 2209.05 151.41 M2209.05 146.896 Q2215.99 146.896 2219.96 151.41 Q2223.92 155.924 2223.92 163.91 Q2223.92 171.867 2219.96 176.41 Q2215.99 180.924 2209.05 180.924 Q2202.08 180.924 2198.11 176.41 Q2194.18 171.867 2194.18 163.91 Q2194.18 155.924 2198.11 151.41 Q2202.08 146.896 2209.05 146.896 Z" fill="#000000" fill-rule="evenodd" fill-opacity="1" /><polyline clip-path="url(#clip970)" style="stroke:#e26f46; stroke-linecap:round; stroke-linejoin:round; stroke-width:10; stroke-opacity:1; fill:none" points="1750.14,223.285 1895.82,223.285 "/>
<path clip-path="url(#clip970)" d="M1954.94 205.012 L1954.94 211.175 Q1951.99 208.426 1948.63 207.067 Q1945.31 205.707 1941.55 205.707 Q1934.14 205.707 1930.2 210.249 Q1926.27 214.763 1926.27 223.328 Q1926.27 231.864 1930.2 236.407 Q1934.14 240.921 1941.55 240.921 Q1945.31 240.921 1948.63 239.561 Q1951.99 238.201 1954.94 235.452 L1954.94 241.557 Q1951.88 243.64 1948.43 244.682 Q1945.02 245.724 1941.2 245.724 Q1931.39 245.724 1925.75 239.734 Q1920.1 233.716 1920.1 223.328 Q1920.1 212.911 1925.75 206.922 Q1931.39 200.903 1941.2 200.903 Q1945.08 200.903 1948.49 201.945 Q1951.93 202.958 1954.94 205.012 Z" fill="#000000" fill-rule="evenodd" fill-opacity="1" /><path clip-path="url(#clip970)" d="M1963.74 212.477 L1969.06 212.477 L1969.06 244.885 L1963.74 244.885 L1963.74 212.477 M1963.74 199.862 L1969.06 199.862 L1969.06 206.604 L1963.74 206.604 L1963.74 199.862 Z" fill="#000000" fill-rule="evenodd" fill-opacity="1" /><path clip-path="url(#clip970)" d="M1998.98 217.454 Q1998.08 216.933 1997.01 216.702 Q1995.97 216.441 1994.7 216.441 Q1990.19 216.441 1987.75 219.393 Q1985.35 222.315 1985.35 227.813 L1985.35 244.885 L1980 244.885 L1980 212.477 L1985.35 212.477 L1985.35 217.512 Q1987.03 214.561 1989.72 213.143 Q1992.41 211.696 1996.26 211.696 Q1996.81 211.696 1997.48 211.783 Q1998.14 211.841 1998.95 211.985 L1998.98 217.454 Z" fill="#000000" fill-rule="evenodd" fill-opacity="1" /><path clip-path="url(#clip970)" d="M1999.88 237.535 L2005.98 237.535 L2005.98 244.885 L1999.88 244.885 L1999.88 237.535 Z" fill="#000000" fill-rule="evenodd" fill-opacity="1" /><path clip-path="url(#clip970)" d="M2036.8 212.477 L2042.12 212.477 L2042.12 244.885 L2036.8 244.885 L2036.8 212.477 M2036.8 199.862 L2042.12 199.862 L2042.12 206.604 L2036.8 206.604 L2036.8 199.862 Z" fill="#000000" fill-rule="evenodd" fill-opacity="1" /><path clip-path="url(#clip970)" d="M2050.95 212.477 L2076.24 212.477 L2076.24 217.338 L2056.21 240.631 L2076.24 240.631 L2076.24 244.885 L2050.23 244.885 L2050.23 240.024 L2070.25 216.731 L2050.95 216.731 L2050.95 212.477 Z" fill="#000000" fill-rule="evenodd" fill-opacity="1" /><path clip-path="url(#clip970)" d="M2087.55 228.71 Q2087.55 234.584 2089.95 237.94 Q2092.38 241.268 2096.61 241.268 Q2100.83 241.268 2103.26 237.94 Q2105.69 234.584 2105.69 228.71 Q2105.69 222.836 2103.26 219.509 Q2100.83 216.152 2096.61 216.152 Q2092.38 216.152 2089.95 219.509 Q2087.55 222.836 2087.55 228.71 M2105.69 240.024 Q2104.02 242.917 2101.44 244.335 Q2098.89 245.724 2095.31 245.724 Q2089.43 245.724 2085.73 241.036 Q2082.05 236.349 2082.05 228.71 Q2082.05 221.071 2085.73 216.384 Q2089.43 211.696 2095.31 211.696 Q2098.89 211.696 2101.44 213.114 Q2104.02 214.503 2105.69 217.396 L2105.69 212.477 L2111.02 212.477 L2111.02 257.211 L2105.69 257.211 L2105.69 240.024 Z" fill="#000000" fill-rule="evenodd" fill-opacity="1" /><path clip-path="url(#clip970)" d="M2122.74 237.535 L2128.84 237.535 L2128.84 244.885 L2122.74 244.885 L2122.74 237.535 Z" fill="#000000" fill-rule="evenodd" fill-opacity="1" /><polyline clip-path="url(#clip970)" style="stroke:#3da44d; stroke-linecap:round; stroke-linejoin:round; stroke-width:10; stroke-opacity:1; fill:none" points="1750.14,288.085 1895.82,288.085 "/>
<path clip-path="url(#clip970)" d="M1954.94 269.812 L1954.94 275.975 Q1951.99 273.226 1948.63 271.867 Q1945.31 270.507 1941.55 270.507 Q1934.14 270.507 1930.2 275.049 Q1926.27 279.563 1926.27 288.128 Q1926.27 296.664 1930.2 301.207 Q1934.14 305.721 1941.55 305.721 Q1945.31 305.721 1948.63 304.361 Q1951.99 303.001 1954.94 300.252 L1954.94 306.357 Q1951.88 308.44 1948.43 309.482 Q1945.02 310.524 1941.2 310.524 Q1931.39 310.524 1925.75 304.534 Q1920.1 298.516 1920.1 288.128 Q1920.1 277.711 1925.75 271.722 Q1931.39 265.703 1941.2 265.703 Q1945.08 265.703 1948.49 266.745 Q1951.93 267.758 1954.94 269.812 Z" fill="#000000" fill-rule="evenodd" fill-opacity="1" /><path clip-path="url(#clip970)" d="M1963.74 277.277 L1969.06 277.277 L1969.06 309.685 L1963.74 309.685 L1963.74 277.277 M1963.74 264.662 L1969.06 264.662 L1969.06 271.404 L1963.74 271.404 L1963.74 264.662 Z" fill="#000000" fill-rule="evenodd" fill-opacity="1" /><path clip-path="url(#clip970)" d="M1998.98 282.254 Q1998.08 281.733 1997.01 281.502 Q1995.97 281.241 1994.7 281.241 Q1990.19 281.241 1987.75 284.193 Q1985.35 287.115 1985.35 292.613 L1985.35 309.685 L1980 309.685 L1980 277.277 L1985.35 277.277 L1985.35 282.312 Q1987.03 279.361 1989.72 277.943 Q1992.41 276.496 1996.26 276.496 Q1996.81 276.496 1997.48 276.583 Q1998.14 276.641 1998.95 276.785 L1998.98 282.254 Z" fill="#000000" fill-rule="evenodd" fill-opacity="1" /><path clip-path="url(#clip970)" d="M1999.88 302.335 L2005.98 302.335 L2005.98 309.685 L1999.88 309.685 L1999.88 302.335 Z" fill="#000000" fill-rule="evenodd" fill-opacity="1" /><path clip-path="url(#clip970)" d="M2058.12 282.196 L2058.12 264.662 L2063.45 264.662 L2063.45 309.685 L2058.12 309.685 L2058.12 304.824 Q2056.45 307.717 2053.87 309.135 Q2051.32 310.524 2047.74 310.524 Q2041.86 310.524 2038.16 305.836 Q2034.48 301.149 2034.48 293.51 Q2034.48 285.871 2038.16 281.184 Q2041.86 276.496 2047.74 276.496 Q2051.32 276.496 2053.87 277.914 Q2056.45 279.303 2058.12 282.196 M2039.98 293.51 Q2039.98 299.384 2042.38 302.74 Q2044.81 306.068 2049.04 306.068 Q2053.26 306.068 2055.69 302.74 Q2058.12 299.384 2058.12 293.51 Q2058.12 287.636 2055.69 284.309 Q2053.26 280.952 2049.04 280.952 Q2044.81 280.952 2042.38 284.309 Q2039.98 287.636 2039.98 293.51 Z" fill="#000000" fill-rule="evenodd" fill-opacity="1" /><path clip-path="url(#clip970)" d="M2102.13 292.15 L2102.13 294.754 L2077.66 294.754 Q2078 300.252 2080.95 303.145 Q2083.93 306.01 2089.23 306.01 Q2092.3 306.01 2095.16 305.258 Q2098.06 304.505 2100.89 303.001 L2100.89 308.035 Q2098.03 309.251 2095.02 309.887 Q2092.01 310.524 2088.91 310.524 Q2081.16 310.524 2076.61 306.01 Q2072.1 301.496 2072.1 293.799 Q2072.1 285.842 2076.38 281.184 Q2080.69 276.496 2087.99 276.496 Q2094.52 276.496 2098.32 280.721 Q2102.13 284.916 2102.13 292.15 M2096.81 290.587 Q2096.75 286.218 2094.35 283.614 Q2091.98 281.01 2088.04 281.01 Q2083.59 281.01 2080.9 283.527 Q2078.23 286.045 2077.83 290.616 L2096.81 290.587 Z" fill="#000000" fill-rule="evenodd" fill-opacity="1" /><path clip-path="url(#clip970)" d="M2129.65 282.254 Q2128.76 281.733 2127.68 281.502 Q2126.64 281.241 2125.37 281.241 Q2120.86 281.241 2118.43 284.193 Q2116.02 287.115 2116.02 292.613 L2116.02 309.685 L2110.67 309.685 L2110.67 277.277 L2116.02 277.277 L2116.02 282.312 Q2117.7 279.361 2120.39 277.943 Q2123.08 276.496 2126.93 276.496 Q2127.48 276.496 2128.15 276.583 Q2128.81 276.641 2129.62 276.785 L2129.65 282.254 Z" fill="#000000" fill-rule="evenodd" fill-opacity="1" /><path clip-path="url(#clip970)" d="M2130.55 302.335 L2136.65 302.335 L2136.65 309.685 L2130.55 309.685 L2130.55 302.335 Z" fill="#000000" fill-rule="evenodd" fill-opacity="1" /><polyline clip-path="url(#clip970)" style="stroke:#c271d2; stroke-linecap:round; stroke-linejoin:round; stroke-width:10; stroke-opacity:1; fill:none" points="1750.14,352.885 1895.82,352.885 "/>
<path clip-path="url(#clip970)" d="M1947.91 332.702 L1947.91 338.403 Q1944.58 336.811 1941.63 336.03 Q1938.68 335.249 1935.93 335.249 Q1931.16 335.249 1928.55 337.101 Q1925.98 338.952 1925.98 342.367 Q1925.98 345.231 1927.69 346.707 Q1929.42 348.154 1934.22 349.051 L1937.75 349.774 Q1944.29 351.018 1947.39 354.172 Q1950.52 357.297 1950.52 362.563 Q1950.52 368.842 1946.29 372.083 Q1942.1 375.324 1933.96 375.324 Q1930.9 375.324 1927.43 374.629 Q1923.98 373.935 1920.28 372.575 L1920.28 366.556 Q1923.84 368.553 1927.25 369.566 Q1930.67 370.578 1933.96 370.578 Q1938.97 370.578 1941.69 368.611 Q1944.41 366.643 1944.41 362.997 Q1944.41 359.815 1942.44 358.021 Q1940.5 356.227 1936.05 355.33 L1932.49 354.635 Q1925.95 353.333 1923.03 350.555 Q1920.1 347.778 1920.1 342.83 Q1920.1 337.101 1924.13 333.802 Q1928.18 330.503 1935.27 330.503 Q1938.3 330.503 1941.46 331.053 Q1944.61 331.603 1947.91 332.702 Z" fill="#000000" fill-rule="evenodd" fill-opacity="1" /><path clip-path="url(#clip970)" d="M1987.12 356.95 L1987.12 359.554 L1962.64 359.554 Q1962.99 365.052 1965.94 367.945 Q1968.92 370.81 1974.21 370.81 Q1977.28 370.81 1980.14 370.058 Q1983.04 369.305 1985.87 367.801 L1985.87 372.835 Q1983.01 374.051 1980 374.687 Q1976.99 375.324 1973.89 375.324 Q1966.14 375.324 1961.6 370.81 Q1957.08 366.296 1957.08 358.599 Q1957.08 350.642 1961.37 345.984 Q1965.68 341.296 1972.97 341.296 Q1979.51 341.296 1983.3 345.521 Q1987.12 349.716 1987.12 356.95 M1981.79 355.387 Q1981.74 351.018 1979.33 348.414 Q1976.96 345.81 1973.03 345.81 Q1968.57 345.81 1965.88 348.327 Q1963.22 350.845 1962.81 355.416 L1981.79 355.387 Z" fill="#000000" fill-rule="evenodd" fill-opacity="1" /><path clip-path="url(#clip970)" d="M2022.8 354.925 L2022.8 374.485 L2017.47 374.485 L2017.47 355.098 Q2017.47 350.497 2015.68 348.212 Q2013.88 345.926 2010.3 345.926 Q2005.98 345.926 2003.5 348.675 Q2001.01 351.423 2001.01 356.169 L2001.01 374.485 L1995.65 374.485 L1995.65 342.077 L2001.01 342.077 L2001.01 347.112 Q2002.92 344.19 2005.49 342.743 Q2008.1 341.296 2011.48 341.296 Q2017.07 341.296 2019.93 344.768 Q2022.8 348.212 2022.8 354.925 M2009.37 334.844 L2007.72 333.252 Q2007.08 332.674 2006.59 332.413 Q2006.13 332.124 2005.75 332.124 Q2004.65 332.124 2004.13 333.194 Q2003.61 334.236 2003.55 336.609 L1999.94 336.609 Q1999.99 332.702 2001.47 330.59 Q2002.95 328.449 2005.58 328.449 Q2006.68 328.449 2007.6 328.854 Q2008.53 329.259 2009.6 330.214 L2011.25 331.805 Q2011.89 332.384 2012.35 332.674 Q2012.84 332.934 2013.22 332.934 Q2014.32 332.934 2014.84 331.892 Q2015.36 330.822 2015.42 328.449 L2019.03 328.449 Q2018.98 332.355 2017.5 334.496 Q2016.02 336.609 2013.39 336.609 Q2012.29 336.609 2011.37 336.204 Q2010.44 335.798 2009.37 334.844 Z" fill="#000000" fill-rule="evenodd" fill-opacity="1" /><path clip-path="url(#clip970)" d="M2048.14 358.194 Q2041.69 358.194 2039.2 359.67 Q2036.71 361.146 2036.71 364.705 Q2036.71 367.54 2038.56 369.218 Q2040.45 370.868 2043.66 370.868 Q2048.08 370.868 2050.75 367.743 Q2053.44 364.589 2053.44 359.381 L2053.44 358.194 L2048.14 358.194 M2058.76 355.995 L2058.76 374.485 L2053.44 374.485 L2053.44 369.566 Q2051.61 372.517 2048.89 373.935 Q2046.17 375.324 2042.24 375.324 Q2037.26 375.324 2034.31 372.546 Q2031.39 369.739 2031.39 365.052 Q2031.39 359.583 2035.03 356.805 Q2038.71 354.028 2045.97 354.028 L2053.44 354.028 L2053.44 353.507 Q2053.44 349.832 2051.01 347.835 Q2048.61 345.81 2044.24 345.81 Q2041.46 345.81 2038.83 346.476 Q2036.19 347.141 2033.76 348.472 L2033.76 343.553 Q2036.68 342.425 2039.43 341.875 Q2042.18 341.296 2044.79 341.296 Q2051.82 341.296 2055.29 344.942 Q2058.76 348.588 2058.76 355.995 Z" fill="#000000" fill-rule="evenodd" fill-opacity="1" /><path clip-path="url(#clip970)" d="M2069.73 329.462 L2075.05 329.462 L2075.05 374.485 L2069.73 374.485 L2069.73 329.462 Z" fill="#000000" fill-rule="evenodd" fill-opacity="1" /><path clip-path="url(#clip970)" d="M2111.1 336.088 L2111.1 369.681 L2118.16 369.681 Q2127.11 369.681 2131.24 365.631 Q2135.41 361.58 2135.41 352.841 Q2135.41 344.161 2131.24 340.139 Q2127.11 336.088 2118.16 336.088 L2111.1 336.088 M2105.26 331.285 L2117.27 331.285 Q2129.83 331.285 2135.7 336.522 Q2141.57 341.73 2141.57 352.841 Q2141.57 364.01 2135.67 369.247 Q2129.77 374.485 2117.27 374.485 L2105.26 374.485 L2105.26 331.285 Z" fill="#000000" fill-rule="evenodd" fill-opacity="1" /><path clip-path="url(#clip970)" d="M2164.29 337.043 L2156.36 358.541 L2172.24 358.541 L2164.29 337.043 M2160.99 331.285 L2167.61 331.285 L2184.08 374.485 L2178 374.485 L2174.07 363.403 L2154.59 363.403 L2150.66 374.485 L2144.5 374.485 L2160.99 331.285 Z" fill="#000000" fill-rule="evenodd" fill-opacity="1" /><path clip-path="url(#clip970)" d="M2197.74 374.485 L2181.24 331.285 L2187.35 331.285 L2201.03 367.656 L2214.75 331.285 L2220.83 331.285 L2204.36 374.485 L2197.74 374.485 Z" fill="#000000" fill-rule="evenodd" fill-opacity="1" /><path clip-path="url(#clip970)" d="M2253.03 332.702 L2253.03 338.403 Q2249.7 336.811 2246.75 336.03 Q2243.8 335.249 2241.05 335.249 Q2236.28 335.249 2233.67 337.101 Q2231.1 338.952 2231.1 342.367 Q2231.1 345.231 2232.81 346.707 Q2234.54 348.154 2239.34 349.051 L2242.87 349.774 Q2249.41 351.018 2252.51 354.172 Q2255.64 357.297 2255.64 362.563 Q2255.64 368.842 2251.41 372.083 Q2247.22 375.324 2239.08 375.324 Q2236.02 375.324 2232.55 374.629 Q2229.1 373.935 2225.4 372.575 L2225.4 366.556 Q2228.96 368.553 2232.37 369.566 Q2235.79 370.578 2239.08 370.578 Q2244.09 370.578 2246.81 368.611 Q2249.53 366.643 2249.53 362.997 Q2249.53 359.815 2247.56 358.021 Q2245.62 356.227 2241.17 355.33 L2237.61 354.635 Q2231.07 353.333 2228.15 350.555 Q2225.22 347.778 2225.22 342.83 Q2225.22 337.101 2229.25 333.802 Q2233.3 330.503 2240.39 330.503 Q2243.42 330.503 2246.58 331.053 Q2249.73 331.603 2253.03 332.702 Z" fill="#000000" fill-rule="evenodd" fill-opacity="1" /></svg>
