<?xml version="1.0" encoding="utf-8"?>
<svg xmlns="http://www.w3.org/2000/svg" xmlns:xlink="http://www.w3.org/1999/xlink" width="600" height="400" viewBox="0 0 2400 1600">
<defs>
  <clipPath id="clip970">
    <rect x="0" y="0" width="2400" height="1600"/>
  </clipPath>
</defs>
<path clip-path="url(#clip970)" d="M0 1600 L2400 1600 L2400 0 L0 0  Z" fill="#ffffff" fill-rule="evenodd" fill-opacity="1"/>
<defs>
  <clipPath id="clip971">
    <rect x="480" y="0" width="1681" height="1600"/>
  </clipPath>
</defs>
<path clip-path="url(#clip970)" d="M167.54 1440.46 L2352.76 1440.46 L2352.76 47.2441 L167.54 47.2441  Z" fill="#ffffff" fill-rule="evenodd" fill-opacity="1"/>
<defs>
  <clipPath id="clip972">
    <rect x="167" y="47" width="2186" height="1394"/>
  </clipPath>
</defs>
<polyline clip-path="url(#clip972)" style="stroke:#000000; stroke-linecap:round; stroke-linejoin:round; stroke-width:2; stroke-opacity:0.1; fill:none" points="435.538,1440.46 435.538,47.2441 "/>
<polyline clip-path="url(#clip972)" style="stroke:#000000; stroke-linecap:round; stroke-linejoin:round; stroke-width:2; stroke-opacity:0.1; fill:none" points="847.843,1440.46 847.843,47.2441 "/>
<polyline clip-path="url(#clip972)" style="stroke:#000000; stroke-linecap:round; stroke-linejoin:round; stroke-width:2; stroke-opacity:0.1; fill:none" points="1260.15,1440.46 1260.15,47.2441 "/>
<polyline clip-path="url(#clip972)" style="stroke:#000000; stroke-linecap:round; stroke-linejoin:round; stroke-width:2; stroke-opacity:0.1; fill:none" points="1672.45,1440.46 1672.45,47.2441 "/>
<polyline clip-path="url(#clip972)" style="stroke:#000000; stroke-linecap:round; stroke-linejoin:round; stroke-width:2; stroke-opacity:0.1; fill:none" points="2084.76,1440.46 2084.76,47.2441 "/>
<polyline clip-path="url(#clip970)" style="stroke:#000000; stroke-linecap:round; stroke-linejoin:round; stroke-width:4; stroke-opacity:1; fill:none" points="167.54,1440.46 2352.76,1440.46 "/>
<polyline clip-path="url(#clip970)" style="stroke:#000000; stroke-linecap:round; stroke-linejoin:round; stroke-width:4; stroke-opacity:1; fill:none" points="435.538,1440.46 435.538,1421.56 "/>
<polyline clip-path="url(#clip970)" style="stroke:#000000; stroke-linecap:round; stroke-linejoin:round; stroke-width:4; stroke-opacity:1; fill:none" points="847.843,1440.46 847.843,1421.56 "/>
<polyline clip-path="url(#clip970)" style="stroke:#000000; stroke-linecap:round; stroke-linejoin:round; stroke-width:4; stroke-opacity:1; fill:none" points="1260.15,1440.46 1260.15,1421.56 "/>
<polyline clip-path="url(#clip970)" style="stroke:#000000; stroke-linecap:round; stroke-linejoin:round; stroke-width:4; stroke-opacity:1; fill:none" points="1672.45,1440.46 1672.45,1421.56 "/>
<polyline clip-path="url(#clip970)" style="stroke:#000000; stroke-linecap:round; stroke-linejoin:round; stroke-width:4; stroke-opacity:1; fill:none" points="2084.76,1440.46 2084.76,1421.56 "/>
<path clip-path="url(#clip970)" d="M896.76 1489.42 L934 1489.42 L934 1496.8 L905.528 1496.8 L905.528 1515.9 L931.222 1515.9 L931.222 1523.27 L905.528 1523.27 L905.528 1554.22 L896.76 1554.22 L896.76 1489.42 Z" fill="#000000" fill-rule="evenodd" fill-opacity="1" /><path clip-path="url(#clip970)" d="M969.242 1513.07 Q967.897 1512.29 966.291 1511.95 Q964.729 1511.56 962.819 1511.56 Q956.048 1511.56 952.402 1515.98 Q948.8 1520.37 948.8 1528.61 L948.8 1554.22 L940.77 1554.22 L940.77 1505.61 L948.8 1505.61 L948.8 1513.16 Q951.317 1508.73 955.354 1506.61 Q959.39 1504.44 965.163 1504.44 Q965.987 1504.44 966.986 1504.57 Q967.984 1504.65 969.199 1504.87 L969.242 1513.07 Z" fill="#000000" fill-rule="evenodd" fill-opacity="1" /><path clip-path="url(#clip970)" d="M1017.25 1527.92 L1017.25 1531.82 L980.527 1531.82 Q981.048 1540.07 985.475 1544.41 Q989.945 1548.71 997.888 1548.71 Q1002.49 1548.71 1006.79 1547.58 Q1011.13 1546.45 1015.38 1544.19 L1015.38 1551.75 Q1011.08 1553.57 1006.57 1554.52 Q1002.05 1555.48 997.411 1555.48 Q985.779 1555.48 978.965 1548.71 Q972.194 1541.94 972.194 1530.39 Q972.194 1518.46 978.617 1511.47 Q985.084 1504.44 996.022 1504.44 Q1005.83 1504.44 1011.52 1510.77 Q1017.25 1517.07 1017.25 1527.92 M1009.26 1525.57 Q1009.17 1519.02 1005.57 1515.11 Q1002.01 1511.21 996.109 1511.21 Q989.425 1511.21 985.388 1514.98 Q981.395 1518.76 980.788 1525.62 L1009.26 1525.57 Z" fill="#000000" fill-rule="evenodd" fill-opacity="1" /><path clip-path="url(#clip970)" d="M1065.34 1507.48 L1065.34 1514.94 Q1061.95 1513.07 1058.52 1512.16 Q1055.14 1511.21 1051.66 1511.21 Q1043.89 1511.21 1039.6 1516.16 Q1035.3 1521.06 1035.3 1529.96 Q1035.3 1538.86 1039.6 1543.8 Q1043.89 1548.71 1051.66 1548.71 Q1055.14 1548.71 1058.52 1547.8 Q1061.95 1546.84 1065.34 1544.98 L1065.34 1552.35 Q1061.99 1553.92 1058.39 1554.7 Q1054.83 1555.48 1050.8 1555.48 Q1039.82 1555.48 1033.35 1548.58 Q1026.88 1541.68 1026.88 1529.96 Q1026.88 1518.07 1033.39 1511.25 Q1039.95 1504.44 1051.32 1504.44 Q1055.01 1504.44 1058.52 1505.22 Q1062.04 1505.96 1065.34 1507.48 Z" fill="#000000" fill-rule="evenodd" fill-opacity="1" /><path clip-path="url(#clip970)" d="M1078.4 1535.04 L1078.4 1505.61 L1086.39 1505.61 L1086.39 1534.73 Q1086.39 1541.63 1089.08 1545.11 Q1091.77 1548.53 1097.15 1548.53 Q1103.62 1548.53 1107.35 1544.41 Q1111.13 1540.29 1111.13 1533.17 L1111.13 1505.61 L1119.11 1505.61 L1119.11 1554.22 L1111.13 1554.22 L1111.13 1546.75 Q1108.22 1551.18 1104.35 1553.35 Q1100.54 1555.48 1095.46 1555.48 Q1087.08 1555.48 1082.74 1550.27 Q1078.4 1545.06 1078.4 1535.04 M1098.5 1504.44 L1098.5 1504.44 Z" fill="#000000" fill-rule="evenodd" fill-opacity="1" /><path clip-path="url(#clip970)" d="M1177.14 1527.92 L1177.14 1531.82 L1140.42 1531.82 Q1140.94 1540.07 1145.37 1544.41 Q1149.84 1548.71 1157.78 1548.71 Q1162.38 1548.71 1166.68 1547.58 Q1171.02 1546.45 1175.27 1544.19 L1175.27 1551.75 Q1170.98 1553.57 1166.46 1554.52 Q1161.95 1555.48 1157.31 1555.48 Q1145.67 1555.48 1138.86 1548.71 Q1132.09 1541.94 1132.09 1530.39 Q1132.09 1518.46 1138.51 1511.47 Q1144.98 1504.44 1155.92 1504.44 Q1165.73 1504.44 1171.41 1510.77 Q1177.14 1517.07 1177.14 1527.92 M1169.15 1525.57 Q1169.07 1519.02 1165.47 1515.11 Q1161.91 1511.21 1156 1511.21 Q1149.32 1511.21 1145.28 1514.98 Q1141.29 1518.76 1140.68 1525.62 L1169.15 1525.57 Z" fill="#000000" fill-rule="evenodd" fill-opacity="1" /><path clip-path="url(#clip970)" d="M1230.66 1524.88 L1230.66 1554.22 L1222.67 1554.22 L1222.67 1525.14 Q1222.67 1518.24 1219.98 1514.81 Q1217.29 1511.38 1211.91 1511.38 Q1205.44 1511.38 1201.71 1515.5 Q1197.97 1519.63 1197.97 1526.75 L1197.97 1554.22 L1189.94 1554.22 L1189.94 1505.61 L1197.97 1505.61 L1197.97 1513.16 Q1200.84 1508.78 1204.7 1506.61 Q1208.61 1504.44 1213.69 1504.44 Q1222.06 1504.44 1226.36 1509.65 Q1230.66 1514.81 1230.66 1524.88 Z" fill="#000000" fill-rule="evenodd" fill-opacity="1" /><path clip-path="url(#clip970)" d="M1281.57 1507.48 L1281.57 1514.94 Q1278.18 1513.07 1274.75 1512.16 Q1271.37 1511.21 1267.9 1511.21 Q1260.13 1511.21 1255.83 1516.16 Q1251.53 1521.06 1251.53 1529.96 Q1251.53 1538.86 1255.83 1543.8 Q1260.13 1548.71 1267.9 1548.71 Q1271.37 1548.71 1274.75 1547.8 Q1278.18 1546.84 1281.57 1544.98 L1281.57 1552.35 Q1278.23 1553.92 1274.62 1554.7 Q1271.06 1555.48 1267.03 1555.48 Q1256.05 1555.48 1249.58 1548.58 Q1243.11 1541.68 1243.11 1529.96 Q1243.11 1518.07 1249.62 1511.25 Q1256.18 1504.44 1267.55 1504.44 Q1271.24 1504.44 1274.75 1505.22 Q1278.27 1505.96 1281.57 1507.48 Z" fill="#000000" fill-rule="evenodd" fill-opacity="1" /><path clip-path="url(#clip970)" d="M1295.46 1505.61 L1303.44 1505.61 L1303.44 1554.22 L1295.46 1554.22 L1295.46 1505.61 M1295.46 1486.69 L1303.44 1486.69 L1303.44 1496.8 L1295.46 1496.8 L1295.46 1486.69 Z" fill="#000000" fill-rule="evenodd" fill-opacity="1" /><path clip-path="url(#clip970)" d="M1342.24 1529.78 Q1332.57 1529.78 1328.83 1532 Q1325.1 1534.21 1325.1 1539.55 Q1325.1 1543.8 1327.88 1546.32 Q1330.7 1548.79 1335.52 1548.79 Q1342.16 1548.79 1346.15 1544.11 Q1350.19 1539.38 1350.19 1531.56 L1350.19 1529.78 L1342.24 1529.78 M1358.17 1526.49 L1358.17 1554.22 L1350.19 1554.22 L1350.19 1546.84 Q1347.45 1551.27 1343.37 1553.4 Q1339.29 1555.48 1333.39 1555.48 Q1325.92 1555.48 1321.5 1551.31 Q1317.11 1547.1 1317.11 1540.07 Q1317.11 1531.87 1322.58 1527.7 Q1328.09 1523.53 1338.99 1523.53 L1350.19 1523.53 L1350.19 1522.75 Q1350.19 1517.24 1346.54 1514.25 Q1342.94 1511.21 1336.38 1511.21 Q1332.22 1511.21 1328.27 1512.21 Q1324.32 1513.2 1320.67 1515.2 L1320.67 1507.82 Q1325.06 1506.13 1329.18 1505.31 Q1333.3 1504.44 1337.21 1504.44 Q1347.76 1504.44 1352.96 1509.91 Q1358.17 1515.37 1358.17 1526.49 Z" fill="#000000" fill-rule="evenodd" fill-opacity="1" /><path clip-path="url(#clip970)" d="M1422.06 1486.77 Q1416.25 1496.75 1413.42 1506.52 Q1410.6 1516.29 1410.6 1526.31 Q1410.6 1536.34 1413.42 1546.19 Q1416.29 1556 1422.06 1565.94 L1415.12 1565.94 Q1408.61 1555.74 1405.35 1545.89 Q1402.14 1536.03 1402.14 1526.31 Q1402.14 1516.63 1405.35 1506.82 Q1408.56 1497.02 1415.12 1486.77 L1422.06 1486.77 Z" fill="#000000" fill-rule="evenodd" fill-opacity="1" /><path clip-path="url(#clip970)" d="M1459.65 1529.78 Q1449.97 1529.78 1446.24 1532 Q1442.5 1534.21 1442.5 1539.55 Q1442.5 1543.8 1445.28 1546.32 Q1448.1 1548.79 1452.92 1548.79 Q1459.56 1548.79 1463.55 1544.11 Q1467.59 1539.38 1467.59 1531.56 L1467.59 1529.78 L1459.65 1529.78 M1475.58 1526.49 L1475.58 1554.22 L1467.59 1554.22 L1467.59 1546.84 Q1464.86 1551.27 1460.78 1553.4 Q1456.7 1555.48 1450.79 1555.48 Q1443.33 1555.48 1438.9 1551.31 Q1434.52 1547.1 1434.52 1540.07 Q1434.52 1531.87 1439.99 1527.7 Q1445.5 1523.53 1456.39 1523.53 L1467.59 1523.53 L1467.59 1522.75 Q1467.59 1517.24 1463.94 1514.25 Q1460.34 1511.21 1453.79 1511.21 Q1449.62 1511.21 1445.67 1512.21 Q1441.72 1513.2 1438.08 1515.2 L1438.08 1507.82 Q1442.46 1506.13 1446.58 1505.31 Q1450.71 1504.44 1454.61 1504.44 Q1465.16 1504.44 1470.37 1509.91 Q1475.58 1515.37 1475.58 1526.49 Z" fill="#000000" fill-rule="evenodd" fill-opacity="1" /><path clip-path="url(#clip970)" d="M1493.15 1543.2 L1502.31 1543.2 L1502.31 1554.22 L1493.15 1554.22 L1493.15 1543.2 Z" fill="#000000" fill-rule="evenodd" fill-opacity="1" /><path clip-path="url(#clip970)" d="M1519.46 1535.04 L1519.46 1505.61 L1527.44 1505.61 L1527.44 1534.73 Q1527.44 1541.63 1530.13 1545.11 Q1532.82 1548.53 1538.21 1548.53 Q1544.67 1548.53 1548.41 1544.41 Q1552.18 1540.29 1552.18 1533.17 L1552.18 1505.61 L1560.17 1505.61 L1560.17 1554.22 L1552.18 1554.22 L1552.18 1546.75 Q1549.27 1551.18 1545.41 1553.35 Q1541.59 1555.48 1536.51 1555.48 Q1528.14 1555.48 1523.8 1550.27 Q1519.46 1545.06 1519.46 1535.04 M1539.55 1504.44 L1539.55 1504.44 Z" fill="#000000" fill-rule="evenodd" fill-opacity="1" /><path clip-path="url(#clip970)" d="M1577.75 1543.2 L1586.9 1543.2 L1586.9 1554.22 L1577.75 1554.22 L1577.75 1543.2 Z" fill="#000000" fill-rule="evenodd" fill-opacity="1" /><path clip-path="url(#clip970)" d="M1603.61 1486.77 L1610.56 1486.77 Q1617.07 1497.02 1620.28 1506.82 Q1623.54 1516.63 1623.54 1526.31 Q1623.54 1536.03 1620.28 1545.89 Q1617.07 1555.74 1610.56 1565.94 L1603.61 1565.94 Q1609.39 1556 1612.21 1546.19 Q1615.07 1536.34 1615.07 1526.31 Q1615.07 1516.29 1612.21 1506.52 Q1609.39 1496.75 1603.61 1486.77 Z" fill="#000000" fill-rule="evenodd" fill-opacity="1" /><polyline clip-path="url(#clip972)" style="stroke:#000000; stroke-linecap:round; stroke-linejoin:round; stroke-width:2; stroke-opacity:0.1; fill:none" points="167.54,1431.73 2352.76,1431.73 "/>
<polyline clip-path="url(#clip972)" style="stroke:#000000; stroke-linecap:round; stroke-linejoin:round; stroke-width:2; stroke-opacity:0.1; fill:none" points="167.54,1207.15 2352.76,1207.15 "/>
<polyline clip-path="url(#clip972)" style="stroke:#000000; stroke-linecap:round; stroke-linejoin:round; stroke-width:2; stroke-opacity:0.1; fill:none" points="167.54,982.575 2352.76,982.575 "/>
<polyline clip-path="url(#clip972)" style="stroke:#000000; stroke-linecap:round; stroke-linejoin:round; stroke-width:2; stroke-opacity:0.1; fill:none" points="167.54,757.995 2352.76,757.995 "/>
<polyline clip-path="url(#clip972)" style="stroke:#000000; stroke-linecap:round; stroke-linejoin:round; stroke-width:2; stroke-opacity:0.1; fill:none" points="167.54,533.414 2352.76,533.414 "/>
<polyline clip-path="url(#clip972)" style="stroke:#000000; stroke-linecap:round; stroke-linejoin:round; stroke-width:2; stroke-opacity:0.1; fill:none" points="167.54,308.834 2352.76,308.834 "/>
<polyline clip-path="url(#clip972)" style="stroke:#000000; stroke-linecap:round; stroke-linejoin:round; stroke-width:2; stroke-opacity:0.1; fill:none" points="167.54,84.2543 2352.76,84.2543 "/>
<polyline clip-path="url(#clip970)" style="stroke:#000000; stroke-linecap:round; stroke-linejoin:round; stroke-width:4; stroke-opacity:1; fill:none" points="167.54,1440.46 167.54,47.2441 "/>
<polyline clip-path="url(#clip970)" style="stroke:#000000; stroke-linecap:round; stroke-linejoin:round; stroke-width:4; stroke-opacity:1; fill:none" points="167.54,1431.73 186.438,1431.73 "/>
<polyline clip-path="url(#clip970)" style="stroke:#000000; stroke-linecap:round; stroke-linejoin:round; stroke-width:4; stroke-opacity:1; fill:none" points="167.54,1207.15 186.438,1207.15 "/>
<polyline clip-path="url(#clip970)" style="stroke:#000000; stroke-linecap:round; stroke-linejoin:round; stroke-width:4; stroke-opacity:1; fill:none" points="167.54,982.575 186.438,982.575 "/>
<polyline clip-path="url(#clip970)" style="stroke:#000000; stroke-linecap:round; stroke-linejoin:round; stroke-width:4; stroke-opacity:1; fill:none" points="167.54,757.995 186.438,757.995 "/>
<polyline clip-path="url(#clip970)" style="stroke:#000000; stroke-linecap:round; stroke-linejoin:round; stroke-width:4; stroke-opacity:1; fill:none" points="167.54,533.414 186.438,533.414 "/>
<polyline clip-path="url(#clip970)" style="stroke:#000000; stroke-linecap:round; stroke-linejoin:round; stroke-width:4; stroke-opacity:1; fill:none" points="167.54,308.834 186.438,308.834 "/>
<polyline clip-path="url(#clip970)" style="stroke:#000000; stroke-linecap:round; stroke-linejoin:round; stroke-width:4; stroke-opacity:1; fill:none" points="167.54,84.2543 186.438,84.2543 "/>
<path clip-path="url(#clip970)" d="M19.9373 1060.86 L52.1854 1072.76 L52.1854 1048.93 L19.9373 1060.86 M11.3002 1065.81 L11.3002 1055.87 L76.1002 1031.18 L76.1002 1040.29 L59.477 1046.19 L59.477 1075.4 L76.1002 1081.31 L76.1002 1090.55 L11.3002 1065.81 Z" fill="#000000" fill-rule="evenodd" fill-opacity="1" /><path clip-path="url(#clip970)" d="M51.8381 987.167 Q43.0274 987.167 38.0361 990.812 Q33.0014 994.415 33.0014 1000.75 Q33.0014 1007.09 38.0361 1010.73 Q43.0274 1014.34 51.8381 1014.34 Q60.6489 1014.34 65.6835 1010.73 Q70.6748 1007.09 70.6748 1000.75 Q70.6748 994.415 65.6835 990.812 Q60.6489 987.167 51.8381 987.167 M34.8677 1014.34 Q30.5275 1011.82 28.4442 1008 Q26.3174 1004.14 26.3174 998.799 Q26.3174 989.944 33.3487 984.432 Q40.3799 978.877 51.8381 978.877 Q63.2964 978.877 70.3276 984.432 Q77.3588 989.944 77.3588 998.799 Q77.3588 1004.14 75.2755 1008 Q73.1488 1011.82 68.8085 1014.34 L76.1002 1014.34 L76.1002 1022.37 L8.5658 1022.37 L8.5658 1014.34 L34.8677 1014.34 Z" fill="#000000" fill-rule="evenodd" fill-opacity="1" /><path clip-path="url(#clip970)" d="M28.9216 934.65 L36.4736 934.65 Q34.7375 938.035 33.8695 941.681 Q33.0014 945.327 33.0014 949.233 Q33.0014 955.179 34.8243 958.174 Q36.6472 961.125 40.2931 961.125 Q43.0708 961.125 44.6767 958.998 Q46.2392 956.872 47.6715 950.448 L48.2791 947.714 Q50.102 939.207 53.444 935.648 Q56.7426 932.045 62.6888 932.045 Q69.4596 932.045 73.4092 937.427 Q77.3588 942.766 77.3588 952.141 Q77.3588 956.047 76.5776 960.3 Q75.8397 964.511 74.3207 969.198 L66.0742 969.198 Q68.3745 964.771 69.5464 960.474 Q70.6748 956.177 70.6748 951.967 Q70.6748 946.325 68.7651 943.287 Q66.812 940.248 63.2964 940.248 Q60.0412 940.248 58.3051 942.462 Q56.569 944.632 54.9631 952.054 L54.3121 954.832 Q52.7496 962.254 49.5378 965.552 Q46.2826 968.851 40.6403 968.851 Q33.7827 968.851 30.0501 963.99 Q26.3174 959.129 26.3174 950.188 Q26.3174 945.761 26.9685 941.854 Q27.6195 937.948 28.9216 934.65 Z" fill="#000000" fill-rule="evenodd" fill-opacity="1" /><path clip-path="url(#clip970)" d="M33.0882 900.492 Q33.0882 906.915 38.1229 910.648 Q43.1142 914.381 51.8381 914.381 Q60.562 914.381 65.5967 910.691 Q70.588 906.959 70.588 900.492 Q70.588 894.112 65.5533 890.379 Q60.5186 886.646 51.8381 886.646 Q43.201 886.646 38.1663 890.379 Q33.0882 894.112 33.0882 900.492 M26.3174 900.492 Q26.3174 890.075 33.0882 884.129 Q39.859 878.183 51.8381 878.183 Q63.7738 878.183 70.588 884.129 Q77.3588 890.075 77.3588 900.492 Q77.3588 910.952 70.588 916.898 Q63.7738 922.801 51.8381 922.801 Q39.859 922.801 33.0882 916.898 Q26.3174 910.952 26.3174 900.492 Z" fill="#000000" fill-rule="evenodd" fill-opacity="1" /><path clip-path="url(#clip970)" d="M34.9545 836.777 Q34.1733 838.122 33.8261 839.728 Q33.4355 841.291 33.4355 843.2 Q33.4355 849.971 37.8625 853.617 Q42.2462 857.219 50.4927 857.219 L76.1002 857.219 L76.1002 865.249 L27.4893 865.249 L27.4893 857.219 L35.0413 857.219 Q30.6143 854.702 28.4876 850.666 Q26.3174 846.629 26.3174 840.857 Q26.3174 840.032 26.4476 839.034 Q26.5345 838.035 26.7515 836.82 L34.9545 836.777 Z" fill="#000000" fill-rule="evenodd" fill-opacity="1" /><path clip-path="url(#clip970)" d="M29.3556 795.371 L36.8209 795.371 Q34.9545 798.756 34.0431 802.185 Q33.0882 805.57 33.0882 809.043 Q33.0882 816.812 38.0361 821.108 Q42.9406 825.405 51.8381 825.405 Q60.7357 825.405 65.6835 821.108 Q70.588 816.812 70.588 809.043 Q70.588 805.57 69.6766 802.185 Q68.7217 798.756 66.8554 795.371 L74.2338 795.371 Q75.7963 798.713 76.5776 802.315 Q77.3588 805.874 77.3588 809.911 Q77.3588 820.891 70.4578 827.358 Q63.5568 833.825 51.8381 833.825 Q39.9458 833.825 33.1316 827.315 Q26.3174 820.761 26.3174 809.39 Q26.3174 805.701 27.0987 802.185 Q27.8365 798.669 29.3556 795.371 Z" fill="#000000" fill-rule="evenodd" fill-opacity="1" /><path clip-path="url(#clip970)" d="M27.4893 781.482 L27.4893 773.496 L76.1002 773.496 L76.1002 781.482 L27.4893 781.482 M8.5658 781.482 L8.5658 773.496 L18.6786 773.496 L18.6786 781.482 L8.5658 781.482 Z" fill="#000000" fill-rule="evenodd" fill-opacity="1" /><path clip-path="url(#clip970)" d="M33.0882 737.949 Q33.0882 744.373 38.1229 748.105 Q43.1142 751.838 51.8381 751.838 Q60.562 751.838 65.5967 748.149 Q70.588 744.416 70.588 737.949 Q70.588 731.569 65.5533 727.836 Q60.5186 724.104 51.8381 724.104 Q43.201 724.104 38.1663 727.836 Q33.0882 731.569 33.0882 737.949 M26.3174 737.949 Q26.3174 727.533 33.0882 721.586 Q39.859 715.64 51.8381 715.64 Q63.7738 715.64 70.588 721.586 Q77.3588 727.533 77.3588 737.949 Q77.3588 748.409 70.588 754.355 Q63.7738 760.258 51.8381 760.258 Q39.859 760.258 33.0882 754.355 Q26.3174 748.409 26.3174 737.949 M5.00679 731.916 L5.00679 723.279 L21.3261 737.428 L21.3261 744.069 L5.00679 731.916 Z" fill="#000000" fill-rule="evenodd" fill-opacity="1" /><path clip-path="url(#clip970)" d="M46.76 661.995 L76.1002 661.995 L76.1002 669.981 L47.0205 669.981 Q40.1194 669.981 36.6906 672.672 Q33.2618 675.363 33.2618 680.745 Q33.2618 687.212 37.3851 690.944 Q41.5083 694.677 48.6263 694.677 L76.1002 694.677 L76.1002 702.706 L27.4893 702.706 L27.4893 694.677 L35.0413 694.677 Q30.6577 691.812 28.4876 687.949 Q26.3174 684.043 26.3174 678.965 Q26.3174 670.588 31.5257 666.292 Q36.6906 661.995 46.76 661.995 Z" fill="#000000" fill-rule="evenodd" fill-opacity="1" /><path clip-path="url(#clip970)" d="M8.6526 598.627 Q18.6352 604.443 28.4008 607.264 Q38.1663 610.085 48.1923 610.085 Q58.2183 610.085 68.0707 607.264 Q77.8797 604.4 87.8188 598.627 L87.8188 605.571 Q77.6192 612.082 67.7669 615.337 Q57.9145 618.549 48.1923 618.549 Q38.5136 618.549 28.7046 615.337 Q18.8956 612.125 8.6526 605.571 L8.6526 598.627 Z" fill="#000000" fill-rule="evenodd" fill-opacity="1" /><path clip-path="url(#clip970)" d="M51.6645 561.04 Q51.6645 570.719 53.8781 574.452 Q56.0916 578.184 61.4301 578.184 Q65.6835 578.184 68.2009 575.407 Q70.6748 572.586 70.6748 567.768 Q70.6748 561.127 65.9874 557.134 Q61.2565 553.098 53.444 553.098 L51.6645 553.098 L51.6645 561.04 M48.3659 545.112 L76.1002 545.112 L76.1002 553.098 L68.7217 553.098 Q73.1488 555.832 75.2755 559.912 Q77.3588 563.992 77.3588 569.895 Q77.3588 577.36 73.1922 581.787 Q68.9821 586.171 61.9509 586.171 Q53.7478 586.171 49.5812 580.702 Q45.4146 575.19 45.4146 564.296 L45.4146 553.098 L44.6333 553.098 Q39.1212 553.098 36.1264 556.744 Q33.0882 560.346 33.0882 566.9 Q33.0882 571.066 34.0865 575.016 Q35.0848 578.966 37.0813 582.612 L29.7028 582.612 Q28.0101 578.228 27.1855 574.105 Q26.3174 569.981 26.3174 566.075 Q26.3174 555.528 31.7862 550.32 Q37.2549 545.112 48.3659 545.112 Z" fill="#000000" fill-rule="evenodd" fill-opacity="1" /><path clip-path="url(#clip970)" d="M65.0759 527.534 L65.0759 518.376 L76.1002 518.376 L76.1002 527.534 L65.0759 527.534 Z" fill="#000000" fill-rule="evenodd" fill-opacity="1" /><path clip-path="url(#clip970)" d="M56.9162 501.232 L27.4893 501.232 L27.4893 493.246 L56.6124 493.246 Q63.5134 493.246 66.9856 490.555 Q70.4144 487.864 70.4144 482.482 Q70.4144 476.015 66.2912 472.282 Q62.1679 468.506 55.0499 468.506 L27.4893 468.506 L27.4893 460.52 L76.1002 460.52 L76.1002 468.506 L68.6349 468.506 Q73.062 471.414 75.2321 475.277 Q77.3588 479.096 77.3588 484.175 Q77.3588 492.551 72.1505 496.891 Q66.9422 501.232 56.9162 501.232 M26.3174 481.136 L26.3174 481.136 Z" fill="#000000" fill-rule="evenodd" fill-opacity="1" /><path clip-path="url(#clip970)" d="M65.0759 442.942 L65.0759 433.784 L76.1002 433.784 L76.1002 442.942 L65.0759 442.942 Z" fill="#000000" fill-rule="evenodd" fill-opacity="1" /><path clip-path="url(#clip970)" d="M8.6526 417.074 L8.6526 410.13 Q18.8956 403.619 28.7046 400.408 Q38.5136 397.152 48.1923 397.152 Q57.9145 397.152 67.7669 400.408 Q77.6192 403.619 87.8188 410.13 L87.8188 417.074 Q77.8797 411.302 68.0707 408.481 Q58.2183 405.616 48.1923 405.616 Q38.1663 405.616 28.4008 408.481 Q18.6352 411.302 8.6526 417.074 Z" fill="#000000" fill-rule="evenodd" fill-opacity="1" /><polyline clip-path="url(#clip972)" style="stroke:#000000; stroke-linecap:round; stroke-linejoin:round; stroke-width:8; stroke-opacity:1; fill:none" points="229.386,982.571 233.517,982.571 237.649,982.571 241.78,982.57 245.911,982.57 250.042,982.569 254.174,982.569 258.305,982.568 262.436,982.567 266.568,982.567 270.699,982.566 274.83,982.565 278.962,982.564 283.093,982.563 287.224,982.562 291.356,982.56 295.487,982.559 299.618,982.557 303.749,982.556 307.881,982.554 312.012,982.552 316.143,982.55 320.275,982.547 324.406,982.545 328.537,982.542 332.669,982.539 336.8,982.535 340.931,982.531 345.063,982.527 349.194,982.523 353.325,982.518 357.457,982.513 361.588,982.507 365.719,982.501 369.85,982.495 373.982,982.488 378.113,982.48 382.244,982.471 386.376,982.462 390.507,982.452 394.638,982.441 398.77,982.43 402.901,982.417 407.032,982.403 411.164,982.389 415.295,982.373 419.426,982.355 423.558,982.337 427.689,982.317 431.82,982.295 435.951,982.272 440.083,982.246 444.214,982.219 448.345,982.19 452.477,982.159 456.608,982.125 460.739,982.088 464.871,982.049 469.002,982.007 473.133,981.962 477.265,981.913 481.396,981.861 485.527,981.805 489.658,981.745 493.79,981.68 497.921,981.611 502.052,981.538 506.184,981.458 510.315,981.374 514.446,981.283 518.578,981.186 522.709,981.083 526.84,980.972 530.972,980.854 535.103,980.728 539.234,980.594 543.366,980.451 547.497,980.298 551.628,980.135 555.759,979.962 559.891,979.777 564.022,979.58 568.153,979.372 572.285,979.149 576.416,978.913 580.547,978.662 584.679,978.396 588.81,978.113 592.941,977.813 597.073,977.495 601.204,977.158 605.335,976.801 609.467,976.423 613.598,976.023 617.729,975.599 621.86,975.151 625.992,974.677 630.123,974.177 634.254,973.648 638.386,973.09 642.517,972.501 646.648,971.88 650.78,971.225 654.911,970.535 659.042,969.808 663.174,969.042 667.305,968.237 671.436,967.389 675.567,966.498 679.699,965.561 683.83,964.577 687.961,963.544 692.093,962.46 696.224,961.322 700.355,960.129 704.487,958.878 708.618,957.568 712.749,956.196 716.881,954.76 721.012,953.258 725.143,951.686 729.275,950.044 733.406,948.328 737.537,946.536 741.668,944.666 745.8,942.714 749.931,940.679 754.062,938.557 758.194,936.347 762.325,934.045 766.456,931.649 770.588,929.156 774.719,926.563 778.85,923.869 782.982,921.069 787.113,918.162 791.244,915.144 795.376,912.014 799.507,908.768 803.638,905.403 807.769,901.917 811.901,898.308 816.032,894.573 820.163,890.709 824.295,886.714 828.426,882.585 832.557,878.32 836.689,873.917 840.82,869.374 844.951,864.688 849.083,859.857 853.214,854.88 857.345,849.754 861.477,844.478 865.608,839.049 869.739,833.468 873.87,827.731 878.002,821.839 882.133,815.789 886.264,809.581 890.396,803.213 894.527,796.687 898.658,790 902.79,783.152 906.921,776.144 911.052,768.976 915.184,761.647 919.315,754.159 923.446,746.512 927.577,738.706 931.709,730.744 935.84,722.626 939.971,714.354 944.103,705.93 948.234,697.356 952.365,688.635 956.497,679.768 960.628,670.759 964.759,661.611 968.891,652.328 973.022,642.912 977.153,633.368 981.285,623.7 985.416,613.913 989.547,604.01 993.678,593.998 997.81,583.881 1001.94,573.665 1006.07,563.355 1010.2,552.959 1014.34,542.481 1018.47,531.928 1022.6,521.308 1026.73,510.627 1030.86,499.893 1034.99,489.113 1039.12,478.294 1043.25,467.446 1047.39,456.575 1051.52,445.69 1055.65,434.801 1059.78,423.914 1063.91,413.041 1068.04,402.188 1072.17,391.367 1076.3,380.585 1080.44,369.853 1084.57,359.18 1088.7,348.576 1092.83,338.05 1096.96,327.613 1101.09,317.274 1105.22,307.043 1109.36,296.93 1113.49,286.945 1117.62,277.098 1121.75,267.399 1125.88,257.858 1130.01,248.484 1134.14,239.287 1138.27,230.278 1142.41,221.465 1146.54,212.858 1150.67,204.467 1154.8,196.299 1158.93,188.365 1163.06,180.673 1167.19,173.232 1171.32,166.049 1175.46,159.134 1179.59,152.493 1183.72,146.135 1187.85,140.067 1191.98,134.295 1196.11,128.827 1200.24,123.668 1204.38,118.825 1208.51,114.304 1212.64,110.109 1216.77,106.247 1220.9,102.72 1225.03,99.5343 1229.16,96.6926 1233.29,94.1987 1237.43,92.0555 1241.56,90.2655 1245.69,88.8309 1249.82,87.7535 1253.95,87.0345 1258.08,86.6747 1262.21,86.6747 1266.34,87.0345 1270.48,87.7535 1274.61,88.8309 1278.74,90.2655 1282.87,92.0555 1287,94.1987 1291.13,96.6926 1295.26,99.5343 1299.4,102.72 1303.53,106.247 1307.66,110.109 1311.79,114.304 1315.92,118.825 1320.05,123.668 1324.18,128.827 1328.31,134.295 1332.45,140.067 1336.58,146.135 1340.71,152.493 1344.84,159.134 1348.97,166.049 1353.1,173.232 1357.23,180.673 1361.37,188.365 1365.5,196.299 1369.63,204.467 1373.76,212.858 1377.89,221.465 1382.02,230.278 1386.15,239.287 1390.28,248.484 1394.42,257.858 1398.55,267.399 1402.68,277.098 1406.81,286.945 1410.94,296.93 1415.07,307.043 1419.2,317.274 1423.33,327.613 1427.47,338.05 1431.6,348.576 1435.73,359.18 1439.86,369.853 1443.99,380.585 1448.12,391.367 1452.25,402.188 1456.39,413.041 1460.52,423.914 1464.65,434.801 1468.78,445.69 1472.91,456.575 1477.04,467.446 1481.17,478.294 1485.3,489.113 1489.44,499.893 1493.57,510.627 1497.7,521.308 1501.83,531.928 1505.96,542.481 1510.09,552.959 1514.22,563.355 1518.35,573.665 1522.49,583.881 1526.62,593.998 1530.75,604.01 1534.88,613.913 1539.01,623.7 1543.14,633.368 1547.27,642.912 1551.41,652.328 1555.54,661.611 1559.67,670.759 1563.8,679.768 1567.93,688.635 1572.06,697.356 1576.19,705.93 1580.32,714.354 1584.46,722.626 1588.59,730.744 1592.72,738.706 1596.85,746.512 1600.98,754.159 1605.11,761.647 1609.24,768.976 1613.38,776.144 1617.51,783.152 1621.64,790 1625.77,796.687 1629.9,803.213 1634.03,809.581 1638.16,815.789 1642.29,821.839 1646.43,827.731 1650.56,833.468 1654.69,839.049 1658.82,844.478 1662.95,849.754 1667.08,854.88 1671.21,859.857 1675.34,864.688 1679.48,869.374 1683.61,873.917 1687.74,878.32 1691.87,882.585 1696,886.714 1700.13,890.709 1704.26,894.573 1708.4,898.308 1712.53,901.917 1716.66,905.403 1720.79,908.768 1724.92,912.014 1729.05,915.144 1733.18,918.162 1737.31,921.069 1741.45,923.869 1745.58,926.563 1749.71,929.156 1753.84,931.649 1757.97,934.045 1762.1,936.347 1766.23,938.557 1770.36,940.679 1774.5,942.714 1778.63,944.666 1782.76,946.536 1786.89,948.328 1791.02,950.044 1795.15,951.686 1799.28,953.258 1803.42,954.76 1807.55,956.196 1811.68,957.568 1815.81,958.878 1819.94,960.129 1824.07,961.322 1828.2,962.46 1832.33,963.544 1836.47,964.577 1840.6,965.561 1844.73,966.498 1848.86,967.389 1852.99,968.237 1857.12,969.042 1861.25,969.808 1865.39,970.535 1869.52,971.225 1873.65,971.88 1877.78,972.501 1881.91,973.09 1886.04,973.648 1890.17,974.177 1894.3,974.677 1898.44,975.151 1902.57,975.599 1906.7,976.023 1910.83,976.423 1914.96,976.801 1919.09,977.158 1923.22,977.495 1927.35,977.813 1931.49,978.113 1935.62,978.396 1939.75,978.662 1943.88,978.913 1948.01,979.149 1952.14,979.372 1956.27,979.58 1960.41,979.777 1964.54,979.962 1968.67,980.135 1972.8,980.298 1976.93,980.451 1981.06,980.594 1985.19,980.728 1989.32,980.854 1993.46,980.972 1997.59,981.083 2001.72,981.186 2005.85,981.283 2009.98,981.374 2014.11,981.458 2018.24,981.538 2022.37,981.611 2026.51,981.68 2030.64,981.745 2034.77,981.805 2038.9,981.861 2043.03,981.913 2047.16,981.962 2051.29,982.007 2055.43,982.049 2059.56,982.088 2063.69,982.125 2067.82,982.159 2071.95,982.19 2076.08,982.219 2080.21,982.246 2084.34,982.272 2088.48,982.295 2092.61,982.317 2096.74,982.337 2100.87,982.355 2105,982.373 2109.13,982.389 2113.26,982.403 2117.4,982.417 2121.53,982.43 2125.66,982.441 2129.79,982.452 2133.92,982.462 2138.05,982.471 2142.18,982.48 2146.31,982.488 2150.45,982.495 2154.58,982.501 2158.71,982.507 2162.84,982.513 2166.97,982.518 2171.1,982.523 2175.23,982.527 2179.36,982.531 2183.5,982.535 2187.63,982.539 2191.76,982.542 2195.89,982.545 2200.02,982.547 2204.15,982.55 2208.28,982.552 2212.42,982.554 2216.55,982.556 2220.68,982.557 2224.81,982.559 2228.94,982.56 2233.07,982.562 2237.2,982.563 2241.33,982.564 2245.47,982.565 2249.6,982.566 2253.73,982.567 2257.86,982.567 2261.99,982.568 2266.12,982.569 2270.25,982.569 2274.38,982.57 2278.52,982.57 2282.65,982.571 2286.78,982.571 2290.91,982.571 "/>
<polyline clip-path="url(#clip972)" style="stroke:#ff0000; stroke-linecap:round; stroke-linejoin:round; stroke-width:8; stroke-opacity:1; fill:none" points="229.386,965.513 233.517,964.895 237.649,964.259 241.78,963.603 245.911,962.927 250.042,962.231 254.174,961.514 258.305,960.775 262.436,960.015 266.568,959.232 270.699,958.427 274.83,957.598 278.962,956.745 283.093,955.868 287.224,954.966 291.356,954.038 295.487,953.085 299.618,952.105 303.749,951.099 307.881,950.065 312.012,949.002 316.143,947.912 320.275,946.792 324.406,945.643 328.537,944.464 332.669,943.254 336.8,942.013 340.931,940.74 345.063,939.435 349.194,938.097 353.325,936.726 357.457,935.321 361.588,933.882 365.719,932.408 369.85,930.898 373.982,929.353 378.113,927.771 382.244,926.152 386.376,924.495 390.507,922.801 394.638,921.068 398.77,919.297 402.901,917.486 407.032,915.635 411.164,913.743 415.295,911.811 419.426,909.838 423.558,907.823 427.689,905.765 431.82,903.666 435.951,901.523 440.083,899.337 444.214,897.107 448.345,894.834 452.477,892.516 456.608,890.153 460.739,887.745 464.871,885.291 469.002,882.792 473.133,880.247 477.265,877.656 481.396,875.019 485.527,872.335 489.658,869.604 493.79,866.826 497.921,864 502.052,861.128 506.184,858.208 510.315,855.241 514.446,852.226 518.578,849.164 522.709,846.054 526.84,842.897 530.972,839.692 535.103,836.439 539.234,833.139 543.366,829.792 547.497,826.398 551.628,822.957 555.759,819.469 559.891,815.935 564.022,812.355 568.153,808.729 572.285,805.057 576.416,801.34 580.547,797.578 584.679,793.772 588.81,789.921 592.941,786.028 597.073,782.091 601.204,778.113 605.335,774.092 609.467,770.03 613.598,765.928 617.729,761.786 621.86,757.605 625.992,753.386 630.123,749.129 634.254,744.836 638.386,740.507 642.517,736.143 646.648,731.745 650.78,727.315 654.911,722.852 659.042,718.359 663.174,713.835 667.305,709.284 671.436,704.704 675.567,700.099 679.699,695.468 683.83,690.813 687.961,686.136 692.093,681.438 696.224,676.719 700.355,671.983 704.487,667.229 708.618,662.46 712.749,657.676 716.881,652.88 721.012,648.073 725.143,643.256 729.275,638.431 733.406,633.6 737.537,628.764 741.668,623.926 745.8,619.086 749.931,614.246 754.062,609.409 758.194,604.576 762.325,599.748 766.456,594.928 770.588,590.117 774.719,585.318 778.85,580.531 782.982,575.76 787.113,571.005 791.244,566.269 795.376,561.554 799.507,556.861 803.638,552.193 807.769,547.551 811.901,542.938 816.032,538.355 820.163,533.805 824.295,529.288 828.426,524.808 832.557,520.367 836.689,515.965 840.82,511.606 844.951,507.29 849.083,503.021 853.214,498.8 857.345,494.629 861.477,490.509 865.608,486.444 869.739,482.434 873.87,478.481 878.002,474.588 882.133,470.757 886.264,466.988 890.396,463.285 894.527,459.648 898.658,456.08 902.79,452.581 906.921,449.155 911.052,445.803 915.184,442.526 919.315,439.326 923.446,436.204 927.577,433.163 931.709,430.203 935.84,427.327 939.971,424.535 944.103,421.829 948.234,419.211 952.365,416.681 956.497,414.242 960.628,411.893 964.759,409.638 968.891,407.476 973.022,405.409 977.153,403.438 981.285,401.564 985.416,399.788 989.547,398.111 993.678,396.533 997.81,395.057 1001.94,393.681 1006.07,392.408 1010.2,391.238 1014.34,390.171 1018.47,389.208 1022.6,388.349 1026.73,387.596 1030.86,386.947 1034.99,386.405 1039.12,385.968 1043.25,385.638 1047.39,385.414 1051.52,385.297 1055.65,385.287 1059.78,385.383 1063.91,385.585 1068.04,385.894 1072.17,386.309 1076.3,386.83 1080.44,387.457 1084.57,388.19 1088.7,389.027 1092.83,389.97 1096.96,391.016 1101.09,392.166 1105.22,393.418 1109.36,394.773 1113.49,396.23 1117.62,397.787 1121.75,399.445 1125.88,401.201 1130.01,403.055 1134.14,405.007 1138.27,407.055 1142.41,409.198 1146.54,411.435 1150.67,413.765 1154.8,416.186 1158.93,418.698 1163.06,421.298 1167.19,423.987 1171.32,426.762 1175.46,429.621 1179.59,432.565 1183.72,435.59 1187.85,438.695 1191.98,441.88 1196.11,445.142 1200.24,448.479 1204.38,451.89 1208.51,455.374 1212.64,458.929 1216.77,462.552 1220.9,466.242 1225.03,469.998 1229.16,473.817 1233.29,477.698 1237.43,481.638 1241.56,485.637 1245.69,489.692 1249.82,493.8 1253.95,497.962 1258.08,502.173 1262.21,506.433 1266.34,510.739 1270.48,515.09 1274.61,519.483 1278.74,523.917 1282.87,528.389 1287,532.899 1291.13,537.442 1295.26,542.019 1299.4,546.626 1303.53,551.263 1307.66,555.926 1311.79,560.614 1315.92,565.324 1320.05,570.056 1324.18,574.807 1328.31,579.576 1332.45,584.359 1336.58,589.156 1340.71,593.965 1344.84,598.783 1348.97,603.61 1353.1,608.442 1357.23,613.279 1361.37,618.118 1365.5,622.958 1369.63,627.797 1373.76,632.633 1377.89,637.465 1382.02,642.292 1386.15,647.11 1390.28,651.919 1394.42,656.718 1398.55,661.504 1402.68,666.276 1406.81,671.033 1410.94,675.774 1415.07,680.496 1419.2,685.198 1423.33,689.879 1427.47,694.539 1431.6,699.174 1435.73,703.785 1439.86,708.37 1443.99,712.927 1448.12,717.456 1452.25,721.956 1456.39,726.425 1460.52,730.862 1464.65,735.266 1468.78,739.637 1472.91,743.973 1477.04,748.274 1481.17,752.538 1485.3,756.764 1489.44,760.953 1493.57,765.103 1497.7,769.213 1501.83,773.283 1505.96,777.312 1510.09,781.299 1514.22,785.244 1518.35,789.146 1522.49,793.005 1526.62,796.82 1530.75,800.591 1534.88,804.317 1539.01,807.998 1543.14,811.633 1547.27,815.223 1551.41,818.766 1555.54,822.263 1559.67,825.714 1563.8,829.117 1567.93,832.474 1572.06,835.783 1576.19,839.045 1580.32,842.259 1584.46,845.426 1588.59,848.546 1592.72,851.618 1596.85,854.642 1600.98,857.619 1605.11,860.548 1609.24,863.43 1613.38,866.264 1617.51,869.052 1621.64,871.792 1625.77,874.486 1629.9,877.132 1634.03,879.733 1638.16,882.287 1642.29,884.795 1646.43,887.258 1650.56,889.675 1654.69,892.047 1658.82,894.374 1662.95,896.656 1667.08,898.895 1671.21,901.089 1675.34,903.241 1679.48,905.349 1683.61,907.415 1687.74,909.438 1691.87,911.42 1696,913.36 1700.13,915.26 1704.26,917.119 1708.4,918.938 1712.53,920.717 1716.66,922.458 1720.79,924.16 1724.92,925.824 1729.05,927.45 1733.18,929.039 1737.31,930.592 1741.45,932.109 1745.58,933.59 1749.71,935.036 1753.84,936.448 1757.97,937.826 1762.1,939.17 1766.23,940.482 1770.36,941.761 1774.5,943.008 1778.63,944.224 1782.76,945.41 1786.89,946.565 1791.02,947.69 1795.15,948.787 1799.28,949.854 1803.42,950.894 1807.55,951.906 1811.68,952.891 1815.81,953.85 1819.94,954.782 1824.07,955.689 1828.2,956.571 1832.33,957.429 1836.47,958.263 1840.6,959.073 1844.73,959.86 1848.86,960.625 1852.99,961.368 1857.12,962.089 1861.25,962.79 1865.39,963.47 1869.52,964.129 1873.65,964.77 1877.78,965.391 1881.91,965.993 1886.04,966.577 1890.17,967.143 1894.3,967.692 1898.44,968.224 1902.57,968.739 1906.7,969.239 1910.83,969.722 1914.96,970.19 1919.09,970.644 1923.22,971.082 1927.35,971.507 1931.49,971.918 1935.62,972.315 1939.75,972.699 1943.88,973.071 1948.01,973.43 1952.14,973.777 1956.27,974.113 1960.41,974.437 1964.54,974.751 1968.67,975.053 1972.8,975.345 1976.93,975.627 1981.06,975.899 1985.19,976.162 1989.32,976.415 1993.46,976.66 1997.59,976.896 2001.72,977.123 2005.85,977.342 2009.98,977.553 2014.11,977.757 2018.24,977.953 2022.37,978.142 2026.51,978.324 2030.64,978.499 2034.77,978.668 2038.9,978.83 2043.03,978.987 2047.16,979.137 2051.29,979.282 2055.43,979.421 2059.56,979.555 2063.69,979.683 2067.82,979.807 2071.95,979.926 2076.08,980.04 2080.21,980.15 2084.34,980.255 2088.48,980.356 2092.61,980.454 2096.74,980.547 2100.87,980.636 2105,980.722 2109.13,980.805 2113.26,980.884 2117.4,980.959 2121.53,981.032 2125.66,981.102 2129.79,981.168 2133.92,981.232 2138.05,981.294 2142.18,981.352 2146.31,981.409 2150.45,981.463 2154.58,981.514 2158.71,981.563 2162.84,981.611 2166.97,981.656 2171.1,981.699 2175.23,981.74 2179.36,981.78 2183.5,981.818 2187.63,981.854 2191.76,981.888 2195.89,981.921 2200.02,981.953 2204.15,981.983 2208.28,982.012 2212.42,982.039 2216.55,982.065 2220.68,982.09 2224.81,982.114 2228.94,982.137 2233.07,982.159 2237.2,982.179 2241.33,982.199 2245.47,982.218 2249.6,982.236 2253.73,982.253 2257.86,982.269 2261.99,982.285 2266.12,982.299 2270.25,982.313 2274.38,982.327 2278.52,982.34 2282.65,982.352 2286.78,982.363 2290.91,982.374 "/>
<polyline clip-path="url(#clip972)" style="stroke:#0000ff; stroke-linecap:round; stroke-linejoin:round; stroke-width:8; stroke-opacity:1; fill:none" points="229.386,982.374 233.517,982.363 237.649,982.352 241.78,982.34 245.911,982.327 250.042,982.313 254.174,982.299 258.305,982.285 262.436,982.269 266.568,982.253 270.699,982.236 274.83,982.218 278.962,982.199 283.093,982.179 287.224,982.159 291.356,982.137 295.487,982.114 299.618,982.09 303.749,982.065 307.881,982.039 312.012,982.012 316.143,981.983 320.275,981.953 324.406,981.921 328.537,981.888 332.669,981.854 336.8,981.818 340.931,981.78 345.063,981.74 349.194,981.699 353.325,981.656 357.457,981.611 361.588,981.563 365.719,981.514 369.85,981.463 373.982,981.409 378.113,981.352 382.244,981.294 386.376,981.232 390.507,981.168 394.638,981.102 398.77,981.032 402.901,980.959 407.032,980.884 411.164,980.805 415.295,980.722 419.426,980.636 423.558,980.547 427.689,980.454 431.82,980.356 435.951,980.255 440.083,980.15 444.214,980.04 448.345,979.926 452.477,979.807 456.608,979.683 460.739,979.555 464.871,979.421 469.002,979.282 473.133,979.137 477.265,978.987 481.396,978.83 485.527,978.668 489.658,978.499 493.79,978.324 497.921,978.142 502.052,977.953 506.184,977.757 510.315,977.553 514.446,977.342 518.578,977.123 522.709,976.896 526.84,976.66 530.972,976.415 535.103,976.162 539.234,975.899 543.366,975.627 547.497,975.345 551.628,975.053 555.759,974.751 559.891,974.437 564.022,974.113 568.153,973.777 572.285,973.43 576.416,973.071 580.547,972.699 584.679,972.315 588.81,971.918 592.941,971.507 597.073,971.082 601.204,970.644 605.335,970.19 609.467,969.722 613.598,969.239 617.729,968.739 621.86,968.224 625.992,967.692 630.123,967.143 634.254,966.577 638.386,965.993 642.517,965.391 646.648,964.77 650.78,964.129 654.911,963.47 659.042,962.79 663.174,962.089 667.305,961.368 671.436,960.625 675.567,959.86 679.699,959.073 683.83,958.263 687.961,957.429 692.093,956.571 696.224,955.689 700.355,954.782 704.487,953.85 708.618,952.891 712.749,951.906 716.881,950.894 721.012,949.854 725.143,948.787 729.275,947.69 733.406,946.565 737.537,945.41 741.668,944.224 745.8,943.008 749.931,941.761 754.062,940.482 758.194,939.17 762.325,937.826 766.456,936.448 770.588,935.036 774.719,933.59 778.85,932.109 782.982,930.592 787.113,929.039 791.244,927.45 795.376,925.824 799.507,924.16 803.638,922.458 807.769,920.717 811.901,918.938 816.032,917.119 820.163,915.26 824.295,913.36 828.426,911.42 832.557,909.438 836.689,907.415 840.82,905.349 844.951,903.241 849.083,901.089 853.214,898.895 857.345,896.656 861.477,894.374 865.608,892.047 869.739,889.675 873.87,887.258 878.002,884.795 882.133,882.287 886.264,879.733 890.396,877.132 894.527,874.486 898.658,871.792 902.79,869.052 906.921,866.264 911.052,863.43 915.184,860.548 919.315,857.619 923.446,854.642 927.577,851.618 931.709,848.546 935.84,845.426 939.971,842.259 944.103,839.045 948.234,835.783 952.365,832.474 956.497,829.117 960.628,825.714 964.759,822.263 968.891,818.766 973.022,815.223 977.153,811.633 981.285,807.998 985.416,804.317 989.547,800.591 993.678,796.82 997.81,793.005 1001.94,789.146 1006.07,785.244 1010.2,781.299 1014.34,777.312 1018.47,773.283 1022.6,769.213 1026.73,765.103 1030.86,760.953 1034.99,756.764 1039.12,752.538 1043.25,748.274 1047.39,743.973 1051.52,739.637 1055.65,735.266 1059.78,730.862 1063.91,726.425 1068.04,721.956 1072.17,717.456 1076.3,712.927 1080.44,708.37 1084.57,703.785 1088.7,699.174 1092.83,694.539 1096.96,689.879 1101.09,685.198 1105.22,680.496 1109.36,675.774 1113.49,671.033 1117.62,666.276 1121.75,661.504 1125.88,656.718 1130.01,651.919 1134.14,647.11 1138.27,642.292 1142.41,637.465 1146.54,632.633 1150.67,627.797 1154.8,622.958 1158.93,618.118 1163.06,613.279 1167.19,608.442 1171.32,603.61 1175.46,598.783 1179.59,593.965 1183.72,589.156 1187.85,584.359 1191.98,579.576 1196.11,574.807 1200.24,570.056 1204.38,565.324 1208.51,560.614 1212.64,555.926 1216.77,551.263 1220.9,546.626 1225.03,542.019 1229.16,537.442 1233.29,532.899 1237.43,528.389 1241.56,523.917 1245.69,519.483 1249.82,515.09 1253.95,510.739 1258.08,506.433 1262.21,502.173 1266.34,497.962 1270.48,493.8 1274.61,489.692 1278.74,485.637 1282.87,481.638 1287,477.698 1291.13,473.817 1295.26,469.998 1299.4,466.242 1303.53,462.552 1307.66,458.929 1311.79,455.374 1315.92,451.89 1320.05,448.479 1324.18,445.142 1328.31,441.88 1332.45,438.695 1336.58,435.59 1340.71,432.565 1344.84,429.621 1348.97,426.762 1353.1,423.987 1357.23,421.298 1361.37,418.698 1365.5,416.186 1369.63,413.765 1373.76,411.435 1377.89,409.198 1382.02,407.055 1386.15,405.007 1390.28,403.055 1394.42,401.201 1398.55,399.445 1402.68,397.787 1406.81,396.23 1410.94,394.773 1415.07,393.418 1419.2,392.166 1423.33,391.016 1427.47,389.97 1431.6,389.027 1435.73,388.19 1439.86,387.457 1443.99,386.83 1448.12,386.309 1452.25,385.894 1456.39,385.585 1460.52,385.383 1464.65,385.287 1468.78,385.297 1472.91,385.414 1477.04,385.638 1481.17,385.968 1485.3,386.405 1489.44,386.947 1493.57,387.596 1497.7,388.349 1501.83,389.208 1505.96,390.171 1510.09,391.238 1514.22,392.408 1518.35,393.681 1522.49,395.057 1526.62,396.533 1530.75,398.111 1534.88,399.788 1539.01,401.564 1543.14,403.438 1547.27,405.409 1551.41,407.476 1555.54,409.638 1559.67,411.893 1563.8,414.242 1567.93,416.681 1572.06,419.211 1576.19,421.829 1580.32,424.535 1584.46,427.327 1588.59,430.203 1592.72,433.163 1596.85,436.204 1600.98,439.326 1605.11,442.526 1609.24,445.803 1613.38,449.155 1617.51,452.581 1621.64,456.08 1625.77,459.648 1629.9,463.285 1634.03,466.988 1638.16,470.757 1642.29,474.588 1646.43,478.481 1650.56,482.434 1654.69,486.444 1658.82,490.509 1662.95,494.629 1667.08,498.8 1671.21,503.021 1675.34,507.29 1679.48,511.606 1683.61,515.965 1687.74,520.367 1691.87,524.808 1696,529.288 1700.13,533.805 1704.26,538.355 1708.4,542.938 1712.53,547.551 1716.66,552.193 1720.79,556.861 1724.92,561.554 1729.05,566.269 1733.18,571.005 1737.31,575.76 1741.45,580.531 1745.58,585.318 1749.71,590.117 1753.84,594.928 1757.97,599.748 1762.1,604.576 1766.23,609.409 1770.36,614.246 1774.5,619.086 1778.63,623.926 1782.76,628.764 1786.89,633.6 1791.02,638.431 1795.15,643.256 1799.28,648.073 1803.42,652.88 1807.55,657.676 1811.68,662.46 1815.81,667.229 1819.94,671.983 1824.07,676.719 1828.2,681.438 1832.33,686.136 1836.47,690.813 1840.6,695.468 1844.73,700.099 1848.86,704.704 1852.99,709.284 1857.12,713.835 1861.25,718.359 1865.39,722.852 1869.52,727.315 1873.65,731.745 1877.78,736.143 1881.91,740.507 1886.04,744.836 1890.17,749.129 1894.3,753.386 1898.44,757.605 1902.57,761.786 1906.7,765.928 1910.83,770.03 1914.96,774.092 1919.09,778.113 1923.22,782.091 1927.35,786.028 1931.49,789.921 1935.62,793.772 1939.75,797.578 1943.88,801.34 1948.01,805.057 1952.14,808.729 1956.27,812.355 1960.41,815.935 1964.54,819.469 1968.67,822.957 1972.8,826.398 1976.93,829.792 1981.06,833.139 1985.19,836.439 1989.32,839.692 1993.46,842.897 1997.59,846.054 2001.72,849.164 2005.85,852.226 2009.98,855.241 2014.11,858.208 2018.24,861.128 2022.37,864 2026.51,866.826 2030.64,869.604 2034.77,872.335 2038.9,875.019 2043.03,877.656 2047.16,880.247 2051.29,882.792 2055.43,885.291 2059.56,887.745 2063.69,890.153 2067.82,892.516 2071.95,894.834 2076.08,897.107 2080.21,899.337 2084.34,901.523 2088.48,903.666 2092.61,905.765 2096.74,907.823 2100.87,909.838 2105,911.811 2109.13,913.743 2113.26,915.635 2117.4,917.486 2121.53,919.297 2125.66,921.068 2129.79,922.801 2133.92,924.495 2138.05,926.152 2142.18,927.771 2146.31,929.353 2150.45,930.898 2154.58,932.408 2158.71,933.882 2162.84,935.321 2166.97,936.726 2171.1,938.097 2175.23,939.435 2179.36,940.74 2183.5,942.013 2187.63,943.254 2191.76,944.464 2195.89,945.643 2200.02,946.792 2204.15,947.912 2208.28,949.002 2212.42,950.065 2216.55,951.099 2220.68,952.105 2224.81,953.085 2228.94,954.038 2233.07,954.966 2237.2,955.868 2241.33,956.745 2245.47,957.598 2249.6,958.427 2253.73,959.232 2257.86,960.015 2261.99,960.775 2266.12,961.514 2270.25,962.231 2274.38,962.927 2278.52,963.603 2282.65,964.259 2286.78,964.895 2290.91,965.513 "/>
<polyline clip-path="url(#clip972)" style="stroke:#008000; stroke-linecap:round; stroke-linejoin:round; stroke-width:8; stroke-opacity:1; fill:none" points="229.386,965.713 233.517,965.107 237.649,964.482 241.78,963.838 245.911,963.175 250.042,962.492 254.174,961.789 258.305,961.065 262.436,960.321 266.568,959.554 270.699,958.765 274.83,957.954 278.962,957.12 283.093,956.263 287.224,955.382 291.356,954.476 295.487,953.545 299.618,952.59 303.749,951.608 307.881,950.6 312.012,949.565 316.143,948.504 320.275,947.414 324.406,946.296 328.537,945.15 332.669,943.975 336.8,942.77 340.931,941.535 345.063,940.269 349.194,938.973 353.325,937.645 357.457,936.285 361.588,934.893 365.719,933.468 369.85,932.01 373.982,930.519 378.113,928.993 382.244,927.433 386.376,925.838 390.507,924.207 394.638,922.541 398.77,920.839 402.901,919.101 407.032,917.326 411.164,915.513 415.295,913.664 419.426,911.776 423.558,909.851 427.689,907.887 431.82,905.884 435.951,903.843 440.083,901.762 444.214,899.642 448.345,897.482 452.477,895.283 456.608,893.044 460.739,890.764 464.871,888.445 469.002,886.085 473.133,883.685 477.265,881.244 481.396,878.763 485.527,876.241 489.658,873.679 493.79,871.076 497.921,868.433 502.052,865.75 506.184,863.026 510.315,860.262 514.446,857.459 518.578,854.616 522.709,851.733 526.84,848.811 530.972,845.851 535.103,842.852 539.234,839.815 543.366,836.74 547.497,833.628 551.628,830.479 555.759,827.294 559.891,824.073 564.022,820.816 568.153,817.526 572.285,814.201 576.416,810.843 580.547,807.453 584.679,804.031 588.81,800.578 592.941,797.096 597.073,793.584 601.204,790.044 605.335,786.476 609.467,782.883 613.598,779.264 617.729,775.621 621.86,771.956 625.992,768.269 630.123,764.561 634.254,760.834 638.386,757.089 642.517,753.327 646.648,749.55 650.78,745.76 654.911,741.957 659.042,738.143 663.174,734.321 667.305,730.49 671.436,726.654 675.567,722.813 679.699,718.969 683.83,715.125 687.961,711.282 692.093,707.441 696.224,703.605 700.355,699.775 704.487,695.954 708.618,692.143 712.749,688.345 716.881,684.56 721.012,680.793 725.143,677.044 729.275,673.315 733.406,669.61 737.537,665.929 741.668,662.276 745.8,658.652 749.931,655.06 754.062,651.502 758.194,647.98 762.325,644.497 766.456,641.055 770.588,637.656 774.719,634.302 778.85,630.997 782.982,627.742 787.113,624.54 791.244,621.394 795.376,618.305 799.507,615.276 803.638,612.31 807.769,609.409 811.901,606.575 816.032,603.811 820.163,601.12 824.295,598.503 828.426,595.963 832.557,593.503 836.689,591.125 840.82,588.831 844.951,586.624 849.083,584.506 853.214,582.48 857.345,580.547 861.477,578.71 865.608,576.972 869.739,575.334 873.87,573.798 878.002,572.368 882.133,571.044 886.264,569.83 890.396,568.727 894.527,567.737 898.658,566.862 902.79,566.104 906.921,565.466 911.052,564.948 915.184,564.553 919.315,564.282 923.446,564.137 927.577,564.12 931.709,564.232 935.84,564.475 939.971,564.85 944.103,565.359 948.234,566.002 952.365,566.782 956.497,567.699 960.628,568.754 964.759,569.949 968.891,571.284 973.022,572.761 977.153,574.379 981.285,576.141 985.416,578.046 989.547,580.094 993.678,582.288 997.81,584.626 1001.94,587.11 1006.07,589.739 1010.2,592.513 1014.34,595.433 1018.47,598.499 1022.6,601.711 1026.73,605.067 1030.86,608.569 1034.99,612.215 1039.12,616.005 1043.25,619.939 1047.39,624.016 1051.52,628.235 1055.65,632.595 1059.78,637.095 1063.91,641.735 1068.04,646.513 1072.17,651.427 1076.3,656.478 1080.44,661.662 1084.57,666.979 1088.7,672.428 1092.83,678.006 1096.96,683.711 1101.09,689.542 1105.22,695.497 1109.36,701.574 1113.49,707.771 1117.62,714.086 1121.75,720.515 1125.88,727.058 1130.01,733.711 1134.14,740.472 1138.27,747.338 1142.41,754.307 1146.54,761.376 1150.67,768.542 1154.8,775.803 1158.93,783.154 1163.06,790.594 1167.19,798.119 1171.32,805.727 1175.46,813.413 1179.59,821.174 1183.72,829.008 1187.85,836.911 1191.98,844.879 1196.11,852.909 1200.24,860.997 1204.38,869.141 1208.51,877.335 1212.64,885.578 1216.77,893.864 1220.9,902.19 1225.03,910.553 1229.16,918.949 1233.29,927.374 1237.43,935.824 1241.56,944.295 1245.69,952.783 1249.82,961.285 1253.95,969.797 1258.08,978.315 1262.21,986.834 1266.34,995.352 1270.48,1003.86 1274.61,1012.37 1278.74,1020.85 1282.87,1029.33 1287,1037.78 1291.13,1046.2 1295.26,1054.6 1299.4,1062.96 1303.53,1071.29 1307.66,1079.57 1311.79,1087.81 1315.92,1096.01 1320.05,1104.15 1324.18,1112.24 1328.31,1120.27 1332.45,1128.24 1336.58,1136.14 1340.71,1143.98 1344.84,1151.74 1348.97,1159.42 1353.1,1167.03 1357.23,1174.55 1361.37,1181.99 1365.5,1189.35 1369.63,1196.61 1373.76,1203.77 1377.89,1210.84 1382.02,1217.81 1386.15,1224.68 1390.28,1231.44 1394.42,1238.09 1398.55,1244.63 1402.68,1251.06 1406.81,1257.38 1410.94,1263.57 1415.07,1269.65 1419.2,1275.61 1423.33,1281.44 1427.47,1287.14 1431.6,1292.72 1435.73,1298.17 1439.86,1303.49 1443.99,1308.67 1448.12,1313.72 1452.25,1318.64 1456.39,1323.41 1460.52,1328.05 1464.65,1332.55 1468.78,1336.91 1472.91,1341.13 1477.04,1345.21 1481.17,1349.14 1485.3,1352.93 1489.44,1356.58 1493.57,1360.08 1497.7,1363.44 1501.83,1366.65 1505.96,1369.72 1510.09,1372.64 1514.22,1375.41 1518.35,1378.04 1522.49,1380.52 1526.62,1382.86 1530.75,1385.05 1534.88,1387.1 1539.01,1389.01 1543.14,1390.77 1547.27,1392.39 1551.41,1393.86 1555.54,1395.2 1559.67,1396.39 1563.8,1397.45 1567.93,1398.37 1572.06,1399.15 1576.19,1399.79 1580.32,1400.3 1584.46,1400.67 1588.59,1400.92 1592.72,1401.03 1596.85,1401.01 1600.98,1400.87 1605.11,1400.6 1609.24,1400.2 1613.38,1399.68 1617.51,1399.04 1621.64,1398.29 1625.77,1397.41 1629.9,1396.42 1634.03,1395.32 1638.16,1394.1 1642.29,1392.78 1646.43,1391.35 1650.56,1389.82 1654.69,1388.18 1658.82,1386.44 1662.95,1384.6 1667.08,1382.67 1671.21,1380.64 1675.34,1378.52 1679.48,1376.32 1683.61,1374.02 1687.74,1371.65 1691.87,1369.19 1696,1366.65 1700.13,1364.03 1704.26,1361.34 1708.4,1358.57 1712.53,1355.74 1716.66,1352.84 1720.79,1349.87 1724.92,1346.84 1729.05,1343.76 1733.18,1340.61 1737.31,1337.41 1741.45,1334.15 1745.58,1330.85 1749.71,1327.49 1753.84,1324.09 1757.97,1320.65 1762.1,1317.17 1766.23,1313.65 1770.36,1310.09 1774.5,1306.5 1778.63,1302.87 1782.76,1299.22 1786.89,1295.54 1791.02,1291.83 1795.15,1288.11 1799.28,1284.36 1803.42,1280.59 1807.55,1276.8 1811.68,1273.01 1815.81,1269.2 1819.94,1265.37 1824.07,1261.54 1828.2,1257.71 1832.33,1253.87 1836.47,1250.02 1840.6,1246.18 1844.73,1242.34 1848.86,1238.5 1852.99,1234.66 1857.12,1230.83 1861.25,1227.01 1865.39,1223.19 1869.52,1219.39 1873.65,1215.6 1877.78,1211.82 1881.91,1208.06 1886.04,1204.32 1890.17,1200.59 1894.3,1196.88 1898.44,1193.19 1902.57,1189.53 1906.7,1185.89 1910.83,1182.27 1914.96,1178.67 1919.09,1175.11 1923.22,1171.57 1927.35,1168.05 1931.49,1164.57 1935.62,1161.12 1939.75,1157.7 1943.88,1154.31 1948.01,1150.95 1952.14,1147.62 1956.27,1144.33 1960.41,1141.08 1964.54,1137.86 1968.67,1134.67 1972.8,1131.52 1976.93,1128.41 1981.06,1125.33 1985.19,1122.3 1989.32,1119.3 1993.46,1116.34 1997.59,1113.42 2001.72,1110.53 2005.85,1107.69 2009.98,1104.89 2014.11,1102.12 2018.24,1099.4 2022.37,1096.72 2026.51,1094.07 2030.64,1091.47 2034.77,1088.91 2038.9,1086.39 2043.03,1083.91 2047.16,1081.46 2051.29,1079.06 2055.43,1076.7 2059.56,1074.38 2063.69,1072.11 2067.82,1069.87 2071.95,1067.67 2076.08,1065.51 2080.21,1063.39 2084.34,1061.31 2088.48,1059.27 2092.61,1057.26 2096.74,1055.3 2100.87,1053.37 2105,1051.49 2109.13,1049.64 2113.26,1047.82 2117.4,1046.05 2121.53,1044.31 2125.66,1042.61 2129.79,1040.94 2133.92,1039.31 2138.05,1037.72 2142.18,1036.16 2146.31,1034.63 2150.45,1033.14 2154.58,1031.68 2158.71,1030.26 2162.84,1028.86 2166.97,1027.5 2171.1,1026.18 2175.23,1024.88 2179.36,1023.61 2183.5,1022.38 2187.63,1021.17 2191.76,1020 2195.89,1018.85 2200.02,1017.74 2204.15,1016.65 2208.28,1015.58 2212.42,1014.55 2216.55,1013.54 2220.68,1012.56 2224.81,1011.6 2228.94,1010.67 2233.07,1009.77 2237.2,1008.89 2241.33,1008.03 2245.47,1007.19 2249.6,1006.38 2253.73,1005.6 2257.86,1004.83 2261.99,1004.08 2266.12,1003.36 2270.25,1002.66 2274.38,1001.97 2278.52,1001.31 2282.65,1000.67 2286.78,1000.04 2290.91,999.436 "/>
<path clip-path="url(#clip970)" d="M1725.86 417.685 L2279.92 417.685 L2279.92 93.6846 L1725.86 93.6846  Z" fill="#ffffff" fill-rule="evenodd" fill-opacity="1"/>
<polyline clip-path="url(#clip970)" style="stroke:#000000; stroke-linecap:round; stroke-linejoin:round; stroke-width:4; stroke-opacity:1; fill:none" points="1725.86,417.685 2279.92,417.685 2279.92,93.6846 1725.86,93.6846 1725.86,417.685 "/>
<polyline clip-path="url(#clip970)" style="stroke:#000000; stroke-linecap:round; stroke-linejoin:round; stroke-width:10; stroke-opacity:1; fill:none" points="1750.14,158.485 1895.82,158.485 "/>
<path clip-path="url(#clip970)" d="M1947.91 138.302 L1947.91 144.003 Q1944.58 142.411 1941.63 141.63 Q1938.68 140.849 1935.93 140.849 Q1931.16 140.849 1928.55 142.701 Q1925.98 144.552 1925.98 147.967 Q1925.98 150.831 1927.69 152.307 Q1929.42 153.754 1934.22 154.651 L1937.75 155.374 Q1944.29 156.618 1947.39 159.772 Q1950.52 162.897 1950.52 168.163 Q1950.52 174.442 1946.29 177.683 Q1942.1 180.924 1933.96 180.924 Q1930.9 180.924 1927.43 180.229 Q1923.98 179.535 1920.28 178.175 L1920.28 172.156 Q1923.84 174.153 1927.25 175.166 Q1930.67 176.178 1933.96 176.178 Q1938.97 176.178 1941.69 174.211 Q1944.41 172.243 1944.41 168.597 Q1944.41 165.415 1942.44 163.621 Q1940.5 161.827 1936.05 160.93 L1932.49 160.235 Q1925.95 158.933 1923.03 156.155 Q1920.1 153.378 1920.1 148.43 Q1920.1 142.701 1924.13 139.402 Q1928.18 136.103 1935.27 136.103 Q1938.3 136.103 1941.46 136.653 Q1944.61 137.203 1947.91 138.302 Z" fill="#000000" fill-rule="evenodd" fill-opacity="1" /><path clip-path="url(#clip970)" d="M1959.4 147.677 L1964.72 147.677 L1964.72 180.085 L1959.4 180.085 L1959.4 147.677 M1959.4 135.062 L1964.72 135.062 L1964.72 141.804 L1959.4 141.804 L1959.4 135.062 Z" fill="#000000" fill-rule="evenodd" fill-opacity="1" /><path clip-path="url(#clip970)" d="M2002.8 160.525 L2002.8 180.085 L1997.48 180.085 L1997.48 160.698 Q1997.48 156.097 1995.68 153.812 Q1993.89 151.526 1990.3 151.526 Q1985.99 151.526 1983.5 154.275 Q1981.01 157.023 1981.01 161.769 L1981.01 180.085 L1975.66 180.085 L1975.66 147.677 L1981.01 147.677 L1981.01 152.712 Q1982.92 149.79 1985.5 148.343 Q1988.1 146.896 1991.49 146.896 Q1997.07 146.896 1999.94 150.368 Q2002.8 153.812 2002.8 160.525 Z" fill="#000000" fill-rule="evenodd" fill-opacity="1" /><path clip-path="url(#clip970)" d="M2055.58 148.922 L2055.58 153.898 Q2053.32 152.654 2051.04 152.047 Q2048.78 151.41 2046.46 151.41 Q2041.28 151.41 2038.42 154.709 Q2035.56 157.978 2035.56 163.91 Q2035.56 169.842 2038.42 173.14 Q2041.28 176.41 2046.46 176.41 Q2048.78 176.41 2051.04 175.802 Q2053.32 175.166 2055.58 173.921 L2055.58 178.84 Q2053.35 179.882 2050.95 180.403 Q2048.58 180.924 2045.89 180.924 Q2038.56 180.924 2034.25 176.323 Q2029.94 171.722 2029.94 163.91 Q2029.94 155.982 2034.28 151.439 Q2038.65 146.896 2046.23 146.896 Q2048.69 146.896 2051.04 147.417 Q2053.38 147.909 2055.58 148.922 Z" fill="#000000" fill-rule="evenodd" fill-opacity="1" /><path clip-path="url(#clip970)" d="M2079.57 163.794 Q2073.11 163.794 2070.62 165.27 Q2068.14 166.746 2068.14 170.305 Q2068.14 173.14 2069.99 174.818 Q2071.87 176.468 2075.08 176.468 Q2079.51 176.468 2082.17 173.343 Q2084.86 170.189 2084.86 164.981 L2084.86 163.794 L2079.57 163.794 M2090.18 161.595 L2090.18 180.085 L2084.86 180.085 L2084.86 175.166 Q2083.04 178.117 2080.32 179.535 Q2077.6 180.924 2073.66 180.924 Q2068.69 180.924 2065.73 178.146 Q2062.81 175.339 2062.81 170.652 Q2062.81 165.183 2066.46 162.405 Q2070.13 159.628 2077.4 159.628 L2084.86 159.628 L2084.86 159.107 Q2084.86 155.432 2082.43 153.435 Q2080.03 151.41 2075.66 151.41 Q2072.88 151.41 2070.25 152.076 Q2067.62 152.741 2065.18 154.072 L2065.18 149.153 Q2068.11 148.025 2070.86 147.475 Q2073.6 146.896 2076.21 146.896 Q2083.24 146.896 2086.71 150.542 Q2090.18 154.188 2090.18 161.595 Z" fill="#000000" fill-rule="evenodd" fill-opacity="1" /><path clip-path="url(#clip970)" d="M2126.38 153.898 Q2128.38 150.31 2131.16 148.603 Q2133.93 146.896 2137.7 146.896 Q2142.76 146.896 2145.51 150.455 Q2148.26 153.985 2148.26 160.525 L2148.26 180.085 L2142.9 180.085 L2142.9 160.698 Q2142.9 156.04 2141.26 153.783 Q2139.61 151.526 2136.22 151.526 Q2132.08 151.526 2129.68 154.275 Q2127.28 157.023 2127.28 161.769 L2127.28 180.085 L2121.93 180.085 L2121.93 160.698 Q2121.93 156.011 2120.28 153.783 Q2118.63 151.526 2115.18 151.526 Q2111.1 151.526 2108.7 154.304 Q2106.3 157.052 2106.3 161.769 L2106.3 180.085 L2100.95 180.085 L2100.95 147.677 L2106.3 147.677 L2106.3 152.712 Q2108.12 149.732 2110.67 148.314 Q2113.22 146.896 2116.72 146.896 Q2120.25 146.896 2122.71 148.69 Q2125.2 150.484 2126.38 153.898 Z" fill="#000000" fill-rule="evenodd" fill-opacity="1" /><path clip-path="url(#clip970)" d="M2164.03 175.224 L2164.03 192.411 L2158.67 192.411 L2158.67 147.677 L2164.03 147.677 L2164.03 152.596 Q2165.71 149.703 2168.25 148.314 Q2170.83 146.896 2174.39 146.896 Q2180.29 146.896 2183.96 151.584 Q2187.67 156.271 2187.67 163.91 Q2187.67 171.549 2183.96 176.236 Q2180.29 180.924 2174.39 180.924 Q2170.83 180.924 2168.25 179.535 Q2165.71 178.117 2164.03 175.224 M2182.14 163.91 Q2182.14 158.036 2179.71 154.709 Q2177.31 151.352 2173.08 151.352 Q2168.86 151.352 2166.43 154.709 Q2164.03 158.036 2164.03 163.91 Q2164.03 169.784 2166.43 173.14 Q2168.86 176.468 2173.08 176.468 Q2177.31 176.468 2179.71 173.14 Q2182.14 169.784 2182.14 163.91 Z" fill="#000000" fill-rule="evenodd" fill-opacity="1" /><path clip-path="url(#clip970)" d="M2209.05 151.41 Q2204.77 151.41 2202.28 154.766 Q2199.79 158.094 2199.79 163.91 Q2199.79 169.726 2202.25 173.082 Q2204.74 176.41 2209.05 176.41 Q2213.3 176.41 2215.79 173.053 Q2218.28 169.697 2218.28 163.91 Q2218.28 158.152 2215.79 154.795 Q2213.3 151.41 2209.05 151.41 M2209.05 146.896 Q2215.99 146.896 2219.96 151.41 Q2223.92 155.924 2223.92 163.91 Q2223.92 171.867 2219.96 176.41 Q2215.99 180.924 2209.05 180.924 Q2202.08 180.924 2198.11 176.41 Q2194.18 171.867 2194.18 163.91 Q2194.18 155.924 2198.11 151.41 Q2202.08 146.896 2209.05 146.896 Z" fill="#000000" fill-rule="evenodd" fill-opacity="1" /><polyline clip-path="url(#clip970)" style="stroke:#ff0000; stroke-linecap:round; stroke-linejoin:round; stroke-width:10; stroke-opacity:1; fill:none" points="1750.14,223.285 1895.82,223.285 "/>
<path clip-path="url(#clip970)" d="M1954.94 205.012 L1954.94 211.175 Q1951.99 208.426 1948.63 207.067 Q1945.31 205.707 1941.55 205.707 Q1934.14 205.707 1930.2 210.249 Q1926.27 214.763 1926.27 223.328 Q1926.27 231.864 1930.2 236.407 Q1934.14 240.921 1941.55 240.921 Q1945.31 240.921 1948.63 239.561 Q1951.99 238.201 1954.94 235.452 L1954.94 241.557 Q1951.88 243.64 1948.43 244.682 Q1945.02 245.724 1941.2 245.724 Q1931.39 245.724 1925.75 239.734 Q1920.1 233.716 1920.1 223.328 Q1920.1 212.911 1925.75 206.922 Q1931.39 200.903 1941.2 200.903 Q1945.08 200.903 1948.49 201.945 Q1951.93 202.958 1954.94 205.012 Z" fill="#000000" fill-rule="evenodd" fill-opacity="1" /><path clip-path="url(#clip970)" d="M1963.74 212.477 L1969.06 212.477 L1969.06 244.885 L1963.74 244.885 L1963.74 212.477 M1963.74 199.862 L1969.06 199.862 L1969.06 206.604 L1963.74 206.604 L1963.74 199.862 Z" fill="#000000" fill-rule="evenodd" fill-opacity="1" /><path clip-path="url(#clip970)" d="M1998.98 217.454 Q1998.08 216.933 1997.01 216.702 Q1995.97 216.441 1994.7 216.441 Q1990.19 216.441 1987.75 219.393 Q1985.35 222.315 1985.35 227.813 L1985.35 244.885 L1980 244.885 L1980 212.477 L1985.35 212.477 L1985.35 217.512 Q1987.03 214.561 1989.72 213.143 Q1992.41 211.696 1996.26 211.696 Q1996.81 211.696 1997.48 211.783 Q1998.14 211.841 1998.95 211.985 L1998.98 217.454 Z" fill="#000000" fill-rule="evenodd" fill-opacity="1" /><path clip-path="url(#clip970)" d="M1999.88 237.535 L2005.98 237.535 L2005.98 244.885 L1999.88 244.885 L1999.88 237.535 Z" fill="#000000" fill-rule="evenodd" fill-opacity="1" /><path clip-path="url(#clip970)" d="M2036.8 212.477 L2042.12 212.477 L2042.12 244.885 L2036.8 244.885 L2036.8 212.477 M2036.8 199.862 L2042.12 199.862 L2042.12 206.604 L2036.8 206.604 L2036.8 199.862 Z" fill="#000000" fill-rule="evenodd" fill-opacity="1" /><path clip-path="url(#clip970)" d="M2050.95 212.477 L2076.24 212.477 L2076.24 217.338 L2056.21 240.631 L2076.24 240.631 L2076.24 244.885 L2050.23 244.885 L2050.23 240.024 L2070.25 216.731 L2050.95 216.731 L2050.95 212.477 Z" fill="#000000" fill-rule="evenodd" fill-opacity="1" /><path clip-path="url(#clip970)" d="M2087.55 228.71 Q2087.55 234.584 2089.95 237.94 Q2092.38 241.268 2096.61 241.268 Q2100.83 241.268 2103.26 237.94 Q2105.69 234.584 2105.69 228.71 Q2105.69 222.836 2103.26 219.509 Q2100.83 216.152 2096.61 216.152 Q2092.38 216.152 2089.95 219.509 Q2087.55 222.836 2087.55 228.71 M2105.69 240.024 Q2104.02 242.917 2101.44 244.335 Q2098.89 245.724 2095.31 245.724 Q2089.43 245.724 2085.73 241.036 Q2082.05 236.349 2082.05 228.71 Q2082.05 221.071 2085.73 216.384 Q2089.43 211.696 2095.31 211.696 Q2098.89 211.696 2101.44 213.114 Q2104.02 214.503 2105.69 217.396 L2105.69 212.477 L2111.02 212.477 L2111.02 257.211 L2105.69 257.211 L2105.69 240.024 Z" fill="#000000" fill-rule="evenodd" fill-opacity="1" /><path clip-path="url(#clip970)" d="M2122.74 237.535 L2128.84 237.535 L2128.84 244.885 L2122.74 244.885 L2122.74 237.535 Z" fill="#000000" fill-rule="evenodd" fill-opacity="1" /><polyline clip-path="url(#clip970)" style="stroke:#0000ff; stroke-linecap:round; stroke-linejoin:round; stroke-width:10; stroke-opacity:1; fill:none" points="1750.14,288.085 1895.82,288.085 "/>
<path clip-path="url(#clip970)" d="M1954.94 269.812 L1954.94 275.975 Q1951.99 273.226 1948.63 271.867 Q1945.31 270.507 1941.55 270.507 Q1934.14 270.507 1930.2 275.049 Q1926.27 279.563 1926.27 288.128 Q1926.27 296.664 1930.2 301.207 Q1934.14 305.721 1941.55 305.721 Q1945.31 305.721 1948.63 304.361 Q1951.99 303.001 1954.94 300.252 L1954.94 306.357 Q1951.88 308.44 1948.43 309.482 Q1945.02 310.524 1941.2 310.524 Q1931.39 310.524 1925.75 304.534 Q1920.1 298.516 1920.1 288.128 Q1920.1 277.711 1925.75 271.722 Q1931.39 265.703 1941.2 265.703 Q1945.08 265.703 1948.49 266.745 Q1951.93 267.758 1954.94 269.812 Z" fill="#000000" fill-rule="evenodd" fill-opacity="1" /><path clip-path="url(#clip970)" d="M1963.74 277.277 L1969.06 277.277 L1969.06 309.685 L1963.74 309.685 L1963.74 277.277 M1963.74 264.662 L1969.06 264.662 L1969.06 271.404 L1963.74 271.404 L1963.74 264.662 Z" fill="#000000" fill-rule="evenodd" fill-opacity="1" /><path clip-path="url(#clip970)" d="M1998.98 282.254 Q1998.08 281.733 1997.01 281.502 Q1995.97 281.241 1994.7 281.241 Q1990.19 281.241 1987.75 284.193 Q1985.35 287.115 1985.35 292.613 L1985.35 309.685 L1980 309.685 L1980 277.277 L1985.35 277.277 L1985.35 282.312 Q1987.03 279.361 1989.72 277.943 Q1992.41 276.496 1996.26 276.496 Q1996.81 276.496 1997.48 276.583 Q1998.14 276.641 1998.95 276.785 L1998.98 282.254 Z" fill="#000000" fill-rule="evenodd" fill-opacity="1" /><path clip-path="url(#clip970)" d="M1999.88 302.335 L2005.98 302.335 L2005.98 309.685 L1999.88 309.685 L1999.88 302.335 Z" fill="#000000" fill-rule="evenodd" fill-opacity="1" /><path clip-path="url(#clip970)" d="M2058.12 282.196 L2058.12 264.662 L2063.45 264.662 L2063.45 309.685 L2058.12 309.685 L2058.12 304.824 Q2056.45 307.717 2053.87 309.135 Q2051.32 310.524 2047.74 310.524 Q2041.86 310.524 2038.16 305.836 Q2034.48 301.149 2034.48 293.51 Q2034.48 285.871 2038.16 281.184 Q2041.86 276.496 2047.74 276.496 Q2051.32 276.496 2053.87 277.914 Q2056.45 279.303 2058.12 282.196 M2039.98 293.51 Q2039.98 299.384 2042.38 302.74 Q2044.81 306.068 2049.04 306.068 Q2053.26 306.068 2055.69 302.74 Q2058.12 299.384 2058.12 293.51 Q2058.12 287.636 2055.69 284.309 Q2053.26 280.952 2049.04 280.952 Q2044.81 280.952 2042.38 284.309 Q2039.98 287.636 2039.98 293.51 Z" fill="#000000" fill-rule="evenodd" fill-opacity="1" /><path clip-path="url(#clip970)" d="M2102.13 292.15 L2102.13 294.754 L2077.66 294.754 Q2078 300.252 2080.95 303.145 Q2083.93 306.01 2089.23 306.01 Q2092.3 306.01 2095.16 305.258 Q2098.06 304.505 2100.89 303.001 L2100.89 308.035 Q2098.03 309.251 2095.02 309.887 Q2092.01 310.524 2088.91 310.524 Q2081.16 310.524 2076.61 306.01 Q2072.1 301.496 2072.1 293.799 Q2072.1 285.842 2076.38 281.184 Q2080.69 276.496 2087.99 276.496 Q2094.52 276.496 2098.32 280.721 Q2102.13 284.916 2102.13 292.15 M2096.81 290.587 Q2096.75 286.218 2094.35 283.614 Q2091.98 281.01 2088.04 281.01 Q2083.59 281.01 2080.9 283.527 Q2078.23 286.045 2077.83 290.616 L2096.81 290.587 Z" fill="#000000" fill-rule="evenodd" fill-opacity="1" /><path clip-path="url(#clip970)" d="M2129.65 282.254 Q2128.76 281.733 2127.68 281.502 Q2126.64 281.241 2125.37 281.241 Q2120.86 281.241 2118.43 284.193 Q2116.02 287.115 2116.02 292.613 L2116.02 309.685 L2110.67 309.685 L2110.67 277.277 L2116.02 277.277 L2116.02 282.312 Q2117.7 279.361 2120.39 277.943 Q2123.08 276.496 2126.93 276.496 Q2127.48 276.496 2128.15 276.583 Q2128.81 276.641 2129.62 276.785 L2129.65 282.254 Z" fill="#000000" fill-rule="evenodd" fill-opacity="1" /><path clip-path="url(#clip970)" d="M2130.55 302.335 L2136.65 302.335 L2136.65 309.685 L2130.55 309.685 L2130.55 302.335 Z" fill="#000000" fill-rule="evenodd" fill-opacity="1" /><polyline clip-path="url(#clip970)" style="stroke:#008000; stroke-linecap:round; stroke-linejoin:round; stroke-width:10; stroke-opacity:1; fill:none" points="1750.14,352.885 1895.82,352.885 "/>
<path clip-path="url(#clip970)" d="M1947.91 332.702 L1947.91 338.403 Q1944.58 336.811 1941.63 336.03 Q1938.68 335.249 1935.93 335.249 Q1931.16 335.249 1928.55 337.101 Q1925.98 338.952 1925.98 342.367 Q1925.98 345.231 1927.69 346.707 Q1929.42 348.154 1934.22 349.051 L1937.75 349.774 Q1944.29 351.018 1947.39 354.172 Q1950.52 357.297 1950.52 362.563 Q1950.52 368.842 1946.29 372.083 Q1942.1 375.324 1933.96 375.324 Q1930.9 375.324 1927.43 374.629 Q1923.98 373.935 1920.28 372.575 L1920.28 366.556 Q1923.84 368.553 1927.25 369.566 Q1930.67 370.578 1933.96 370.578 Q1938.97 370.578 1941.69 368.611 Q1944.41 366.643 1944.41 362.997 Q1944.41 359.815 1942.44 358.021 Q1940.5 356.227 1936.05 355.33 L1932.49 354.635 Q1925.95 353.333 1923.03 350.555 Q1920.1 347.778 1920.1 342.83 Q1920.1 337.101 1924.13 333.802 Q1928.18 330.503 1935.27 330.503 Q1938.3 330.503 1941.46 331.053 Q1944.61 331.603 1947.91 332.702 Z" fill="#000000" fill-rule="evenodd" fill-opacity="1" /><path clip-path="url(#clip970)" d="M1987.12 356.95 L1987.12 359.554 L1962.64 359.554 Q1962.99 365.052 1965.94 367.945 Q1968.92 370.81 1974.21 370.81 Q1977.28 370.81 1980.14 370.058 Q1983.04 369.305 1985.87 367.801 L1985.87 372.835 Q1983.01 374.051 1980 374.687 Q1976.99 375.324 1973.89 375.324 Q1966.14 375.324 1961.6 370.81 Q1957.08 366.296 1957.08 358.599 Q1957.08 350.642 1961.37 345.984 Q1965.68 341.296 1972.97 341.296 Q1979.51 341.296 1983.3 345.521 Q1987.12 349.716 1987.12 356.95 M1981.79 355.387 Q1981.74 351.018 1979.33 348.414 Q1976.96 345.81 1973.03 345.81 Q1968.57 345.81 1965.88 348.327 Q1963.22 350.845 1962.81 355.416 L1981.79 355.387 Z" fill="#000000" fill-rule="evenodd" fill-opacity="1" /><path clip-path="url(#clip970)" d="M2022.8 354.925 L2022.8 374.485 L2017.47 374.485 L2017.47 355.098 Q2017.47 350.497 2015.68 348.212 Q2013.88 345.926 2010.3 345.926 Q2005.98 345.926 2003.5 348.675 Q2001.01 351.423 2001.01 356.169 L2001.01 374.485 L1995.65 374.485 L1995.65 342.077 L2001.01 342.077 L2001.01 347.112 Q2002.92 344.19 2005.49 342.743 Q2008.1 341.296 2011.48 341.296 Q2017.07 341.296 2019.93 344.768 Q2022.8 348.212 2022.8 354.925 M2009.37 334.844 L2007.72 333.252 Q2007.08 332.674 2006.59 332.413 Q2006.13 332.124 2005.75 332.124 Q2004.65 332.124 2004.13 333.194 Q2003.61 334.236 2003.55 336.609 L1999.94 336.609 Q1999.99 332.702 2001.47 330.59 Q2002.95 328.449 2005.58 328.449 Q2006.68 328.449 2007.6 328.854 Q2008.53 329.259 2009.6 330.214 L2011.25 331.805 Q2011.89 332.384 2012.35 332.674 Q2012.84 332.934 2013.22 332.934 Q2014.32 332.934 2014.84 331.892 Q2015.36 330.822 2015.42 328.449 L2019.03 328.449 Q2018.98 332.355 2017.5 334.496 Q2016.02 336.609 2013.39 336.609 Q2012.29 336.609 2011.37 336.204 Q2010.44 335.798 2009.37 334.844 Z" fill="#000000" fill-rule="evenodd" fill-opacity="1" /><path clip-path="url(#clip970)" d="M2048.14 358.194 Q2041.69 358.194 2039.2 359.67 Q2036.71 361.146 2036.71 364.705 Q2036.71 367.54 2038.56 369.218 Q2040.45 370.868 2043.66 370.868 Q2048.08 370.868 2050.75 367.743 Q2053.44 364.589 2053.44 359.381 L2053.44 358.194 L2048.14 358.194 M2058.76 355.995 L2058.76 374.485 L2053.44 374.485 L2053.44 369.566 Q2051.61 372.517 2048.89 373.935 Q2046.17 375.324 2042.24 375.324 Q2037.26 375.324 2034.31 372.546 Q2031.39 369.739 2031.39 365.052 Q2031.39 359.583 2035.03 356.805 Q2038.71 354.028 2045.97 354.028 L2053.44 354.028 L2053.44 353.507 Q2053.44 349.832 2051.01 347.835 Q2048.61 345.81 2044.24 345.81 Q2041.46 345.81 2038.83 346.476 Q2036.19 347.141 2033.76 348.472 L2033.76 343.553 Q2036.68 342.425 2039.43 341.875 Q2042.18 341.296 2044.79 341.296 Q2051.82 341.296 2055.29 344.942 Q2058.76 348.588 2058.76 355.995 Z" fill="#000000" fill-rule="evenodd" fill-opacity="1" /><path clip-path="url(#clip970)" d="M2069.73 329.462 L2075.05 329.462 L2075.05 374.485 L2069.73 374.485 L2069.73 329.462 Z" fill="#000000" fill-rule="evenodd" fill-opacity="1" /><path clip-path="url(#clip970)" d="M2111.1 336.088 L2111.1 369.681 L2118.16 369.681 Q2127.11 369.681 2131.24 365.631 Q2135.41 361.58 2135.41 352.841 Q2135.41 344.161 2131.24 340.139 Q2127.11 336.088 2118.16 336.088 L2111.1 336.088 M2105.26 331.285 L2117.27 331.285 Q2129.83 331.285 2135.7 336.522 Q2141.57 341.73 2141.57 352.841 Q2141.57 364.01 2135.67 369.247 Q2129.77 374.485 2117.27 374.485 L2105.26 374.485 L2105.26 331.285 Z" fill="#000000" fill-rule="evenodd" fill-opacity="1" /><path clip-path="url(#clip970)" d="M2164.29 337.043 L2156.36 358.541 L2172.24 358.541 L2164.29 337.043 M2160.99 331.285 L2167.61 331.285 L2184.08 374.485 L2178 374.485 L2174.07 363.403 L2154.59 363.403 L2150.66 374.485 L2144.5 374.485 L2160.99 331.285 Z" fill="#000000" fill-rule="evenodd" fill-opacity="1" /><path clip-path="url(#clip970)" d="M2197.74 374.485 L2181.24 331.285 L2187.35 331.285 L2201.03 367.656 L2214.75 331.285 L2220.83 331.285 L2204.36 374.485 L2197.74 374.485 Z" fill="#000000" fill-rule="evenodd" fill-opacity="1" /><path clip-path="url(#clip970)" d="M2253.03 332.702 L2253.03 338.403 Q2249.7 336.811 2246.75 336.03 Q2243.8 335.249 2241.05 335.249 Q2236.28 335.249 2233.67 337.101 Q2231.1 338.952 2231.1 342.367 Q2231.1 345.231 2232.81 346.707 Q2234.54 348.154 2239.34 349.051 L2242.87 349.774 Q2249.41 351.018 2252.51 354.172 Q2255.64 357.297 2255.64 362.563 Q2255.64 368.842 2251.41 372.083 Q2247.22 375.324 2239.08 375.324 Q2236.02 375.324 2232.55 374.629 Q2229.1 373.935 2225.4 372.575 L2225.4 366.556 Q2228.96 368.553 2232.37 369.566 Q2235.79 370.578 2239.08 370.578 Q2244.09 370.578 2246.81 368.611 Q2249.53 366.643 2249.53 362.997 Q2249.53 359.815 2247.56 358.021 Q2245.62 356.227 2241.17 355.33 L2237.61 354.635 Q2231.07 353.333 2228.15 350.555 Q2225.22 347.778 2225.22 342.83 Q2225.22 337.101 2229.25 333.802 Q2233.3 330.503 2240.39 330.503 Q2243.42 330.503 2246.58 331.053 Q2249.73 331.603 2253.03 332.702 Z" fill="#000000" fill-rule="evenodd" fill-opacity="1" /></svg>
