<?xml version="1.0" encoding="utf-8" standalone="no"?>
<!DOCTYPE svg PUBLIC "-//W3C//DTD SVG 1.1//EN"
  "http://www.w3.org/Graphics/SVG/1.1/DTD/svg11.dtd">
<svg xmlns:xlink="http://www.w3.org/1999/xlink" width="460.8pt" height="345.6pt" viewBox="0 0 460.8 345.6" xmlns="http://www.w3.org/2000/svg" version="1.1">
 <metadata>
  <rdf:RDF xmlns:dc="http://purl.org/dc/elements/1.1/" xmlns:cc="http://creativecommons.org/ns#" xmlns:rdf="http://www.w3.org/1999/02/22-rdf-syntax-ns#">
   <cc:Work>
    <dc:type rdf:resource="http://purl.org/dc/dcmitype/StillImage"/>
    <dc:date>2023-03-20T19:23:26.325965</dc:date>
    <dc:format>image/svg+xml</dc:format>
    <dc:creator>
     <cc:Agent>
      <dc:title>Matplotlib v3.5.1, https://matplotlib.org/</dc:title>
     </cc:Agent>
    </dc:creator>
   </cc:Work>
  </rdf:RDF>
 </metadata>
 <defs>
  <style type="text/css">*{stroke-linejoin: round; stroke-linecap: butt}</style>
 </defs>
 <g id="figure_1">
  <g id="patch_1">
   <path d="M 0 345.6 
L 460.8 345.6 
L 460.8 0 
L 0 0 
z
" style="fill: #ffffff"/>
  </g>
  <g id="axes_1">
   <g id="patch_2">
    <path d="M 57.6 307.584 
L 414.72 307.584 
L 414.72 41.472 
L 57.6 41.472 
z
" style="fill: #ffffff"/>
   </g>
   <g id="matplotlib.axis_1">
    <g id="xtick_1">
     <g id="line2d_1">
      <path d="M 57.6 307.584 
L 57.6 41.472 
" clip-path="url(#p042ce2ce62)" style="fill: none; stroke: #b0b0b0; stroke-width: 0.8; stroke-linecap: square"/>
     </g>
     <g id="line2d_2">
      <defs>
       <path id="m5cdf545752" d="M 0 0 
L 0 3.5 
" style="stroke: #000000; stroke-width: 0.8"/>
      </defs>
      <g>
       <use xlink:href="#m5cdf545752" x="57.6" y="307.584" style="stroke: #000000; stroke-width: 0.8"/>
      </g>
     </g>
     <g id="text_1">
      <!-- 0 -->
      <g transform="translate(54.41875 322.182437)scale(0.1 -0.1)">
       <defs>
        <path id="DejaVuSans-30" d="M 2034 4250 
Q 1547 4250 1301 3770 
Q 1056 3291 1056 2328 
Q 1056 1369 1301 889 
Q 1547 409 2034 409 
Q 2525 409 2770 889 
Q 3016 1369 3016 2328 
Q 3016 3291 2770 3770 
Q 2525 4250 2034 4250 
z
M 2034 4750 
Q 2819 4750 3233 4129 
Q 3647 3509 3647 2328 
Q 3647 1150 3233 529 
Q 2819 -91 2034 -91 
Q 1250 -91 836 529 
Q 422 1150 422 2328 
Q 422 3509 836 4129 
Q 1250 4750 2034 4750 
z
" transform="scale(0.015625)"/>
       </defs>
       <use xlink:href="#DejaVuSans-30"/>
      </g>
     </g>
    </g>
    <g id="xtick_2">
     <g id="line2d_3">
      <path d="M 129.024 307.584 
L 129.024 41.472 
" clip-path="url(#p042ce2ce62)" style="fill: none; stroke: #b0b0b0; stroke-width: 0.8; stroke-linecap: square"/>
     </g>
     <g id="line2d_4">
      <g>
       <use xlink:href="#m5cdf545752" x="129.024" y="307.584" style="stroke: #000000; stroke-width: 0.8"/>
      </g>
     </g>
     <g id="text_2">
      <!-- 1 -->
      <g transform="translate(125.84275 322.182437)scale(0.1 -0.1)">
       <defs>
        <path id="DejaVuSans-31" d="M 794 531 
L 1825 531 
L 1825 4091 
L 703 3866 
L 703 4441 
L 1819 4666 
L 2450 4666 
L 2450 531 
L 3481 531 
L 3481 0 
L 794 0 
L 794 531 
z
" transform="scale(0.015625)"/>
       </defs>
       <use xlink:href="#DejaVuSans-31"/>
      </g>
     </g>
    </g>
    <g id="xtick_3">
     <g id="line2d_5">
      <path d="M 200.448 307.584 
L 200.448 41.472 
" clip-path="url(#p042ce2ce62)" style="fill: none; stroke: #b0b0b0; stroke-width: 0.8; stroke-linecap: square"/>
     </g>
     <g id="line2d_6">
      <g>
       <use xlink:href="#m5cdf545752" x="200.448" y="307.584" style="stroke: #000000; stroke-width: 0.8"/>
      </g>
     </g>
     <g id="text_3">
      <!-- 2 -->
      <g transform="translate(197.26675 322.182437)scale(0.1 -0.1)">
       <defs>
        <path id="DejaVuSans-32" d="M 1228 531 
L 3431 531 
L 3431 0 
L 469 0 
L 469 531 
Q 828 903 1448 1529 
Q 2069 2156 2228 2338 
Q 2531 2678 2651 2914 
Q 2772 3150 2772 3378 
Q 2772 3750 2511 3984 
Q 2250 4219 1831 4219 
Q 1534 4219 1204 4116 
Q 875 4013 500 3803 
L 500 4441 
Q 881 4594 1212 4672 
Q 1544 4750 1819 4750 
Q 2544 4750 2975 4387 
Q 3406 4025 3406 3419 
Q 3406 3131 3298 2873 
Q 3191 2616 2906 2266 
Q 2828 2175 2409 1742 
Q 1991 1309 1228 531 
z
" transform="scale(0.015625)"/>
       </defs>
       <use xlink:href="#DejaVuSans-32"/>
      </g>
     </g>
    </g>
    <g id="xtick_4">
     <g id="line2d_7">
      <path d="M 271.872 307.584 
L 271.872 41.472 
" clip-path="url(#p042ce2ce62)" style="fill: none; stroke: #b0b0b0; stroke-width: 0.8; stroke-linecap: square"/>
     </g>
     <g id="line2d_8">
      <g>
       <use xlink:href="#m5cdf545752" x="271.872" y="307.584" style="stroke: #000000; stroke-width: 0.8"/>
      </g>
     </g>
     <g id="text_4">
      <!-- 3 -->
      <g transform="translate(268.69075 322.182437)scale(0.1 -0.1)">
       <defs>
        <path id="DejaVuSans-33" d="M 2597 2516 
Q 3050 2419 3304 2112 
Q 3559 1806 3559 1356 
Q 3559 666 3084 287 
Q 2609 -91 1734 -91 
Q 1441 -91 1130 -33 
Q 819 25 488 141 
L 488 750 
Q 750 597 1062 519 
Q 1375 441 1716 441 
Q 2309 441 2620 675 
Q 2931 909 2931 1356 
Q 2931 1769 2642 2001 
Q 2353 2234 1838 2234 
L 1294 2234 
L 1294 2753 
L 1863 2753 
Q 2328 2753 2575 2939 
Q 2822 3125 2822 3475 
Q 2822 3834 2567 4026 
Q 2313 4219 1838 4219 
Q 1578 4219 1281 4162 
Q 984 4106 628 3988 
L 628 4550 
Q 988 4650 1302 4700 
Q 1616 4750 1894 4750 
Q 2613 4750 3031 4423 
Q 3450 4097 3450 3541 
Q 3450 3153 3228 2886 
Q 3006 2619 2597 2516 
z
" transform="scale(0.015625)"/>
       </defs>
       <use xlink:href="#DejaVuSans-33"/>
      </g>
     </g>
    </g>
    <g id="xtick_5">
     <g id="line2d_9">
      <path d="M 343.296 307.584 
L 343.296 41.472 
" clip-path="url(#p042ce2ce62)" style="fill: none; stroke: #b0b0b0; stroke-width: 0.8; stroke-linecap: square"/>
     </g>
     <g id="line2d_10">
      <g>
       <use xlink:href="#m5cdf545752" x="343.296" y="307.584" style="stroke: #000000; stroke-width: 0.8"/>
      </g>
     </g>
     <g id="text_5">
      <!-- 4 -->
      <g transform="translate(340.11475 322.182437)scale(0.1 -0.1)">
       <defs>
        <path id="DejaVuSans-34" d="M 2419 4116 
L 825 1625 
L 2419 1625 
L 2419 4116 
z
M 2253 4666 
L 3047 4666 
L 3047 1625 
L 3713 1625 
L 3713 1100 
L 3047 1100 
L 3047 0 
L 2419 0 
L 2419 1100 
L 313 1100 
L 313 1709 
L 2253 4666 
z
" transform="scale(0.015625)"/>
       </defs>
       <use xlink:href="#DejaVuSans-34"/>
      </g>
     </g>
    </g>
    <g id="xtick_6">
     <g id="line2d_11">
      <path d="M 414.72 307.584 
L 414.72 41.472 
" clip-path="url(#p042ce2ce62)" style="fill: none; stroke: #b0b0b0; stroke-width: 0.8; stroke-linecap: square"/>
     </g>
     <g id="line2d_12">
      <g>
       <use xlink:href="#m5cdf545752" x="414.72" y="307.584" style="stroke: #000000; stroke-width: 0.8"/>
      </g>
     </g>
     <g id="text_6">
      <!-- 5 -->
      <g transform="translate(411.53875 322.182437)scale(0.1 -0.1)">
       <defs>
        <path id="DejaVuSans-35" d="M 691 4666 
L 3169 4666 
L 3169 4134 
L 1269 4134 
L 1269 2991 
Q 1406 3038 1543 3061 
Q 1681 3084 1819 3084 
Q 2600 3084 3056 2656 
Q 3513 2228 3513 1497 
Q 3513 744 3044 326 
Q 2575 -91 1722 -91 
Q 1428 -91 1123 -41 
Q 819 9 494 109 
L 494 744 
Q 775 591 1075 516 
Q 1375 441 1709 441 
Q 2250 441 2565 725 
Q 2881 1009 2881 1497 
Q 2881 1984 2565 2268 
Q 2250 2553 1709 2553 
Q 1456 2553 1204 2497 
Q 953 2441 691 2322 
L 691 4666 
z
" transform="scale(0.015625)"/>
       </defs>
       <use xlink:href="#DejaVuSans-35"/>
      </g>
     </g>
    </g>
    <g id="text_7">
     <!-- $\Delta \tau$ [ms] -->
     <g transform="translate(216.76 335.860562)scale(0.1 -0.1)">
      <defs>
       <path id="DejaVuSans-394" d="M 2188 4044 
L 906 525 
L 3472 525 
L 2188 4044 
z
M 50 0 
L 1831 4666 
L 2547 4666 
L 4325 0 
L 50 0 
z
" transform="scale(0.015625)"/>
       <path id="DejaVuSans-Oblique-3c4" d="M 2103 638 
Q 2188 488 2525 488 
L 2800 488 
L 2706 0 
L 2363 0 
Q 1800 0 1600 300 
Q 1403 606 1534 1269 
L 1856 2925 
L 541 2925 
L 653 3500 
L 3881 3500 
L 3769 2925 
L 2444 2925 
L 2113 1234 
Q 2025 781 2103 638 
z
" transform="scale(0.015625)"/>
       <path id="DejaVuSans-20" transform="scale(0.015625)"/>
       <path id="DejaVuSans-5b" d="M 550 4863 
L 1875 4863 
L 1875 4416 
L 1125 4416 
L 1125 -397 
L 1875 -397 
L 1875 -844 
L 550 -844 
L 550 4863 
z
" transform="scale(0.015625)"/>
       <path id="DejaVuSans-6d" d="M 3328 2828 
Q 3544 3216 3844 3400 
Q 4144 3584 4550 3584 
Q 5097 3584 5394 3201 
Q 5691 2819 5691 2113 
L 5691 0 
L 5113 0 
L 5113 2094 
Q 5113 2597 4934 2840 
Q 4756 3084 4391 3084 
Q 3944 3084 3684 2787 
Q 3425 2491 3425 1978 
L 3425 0 
L 2847 0 
L 2847 2094 
Q 2847 2600 2669 2842 
Q 2491 3084 2119 3084 
Q 1678 3084 1418 2786 
Q 1159 2488 1159 1978 
L 1159 0 
L 581 0 
L 581 3500 
L 1159 3500 
L 1159 2956 
Q 1356 3278 1631 3431 
Q 1906 3584 2284 3584 
Q 2666 3584 2933 3390 
Q 3200 3197 3328 2828 
z
" transform="scale(0.015625)"/>
       <path id="DejaVuSans-73" d="M 2834 3397 
L 2834 2853 
Q 2591 2978 2328 3040 
Q 2066 3103 1784 3103 
Q 1356 3103 1142 2972 
Q 928 2841 928 2578 
Q 928 2378 1081 2264 
Q 1234 2150 1697 2047 
L 1894 2003 
Q 2506 1872 2764 1633 
Q 3022 1394 3022 966 
Q 3022 478 2636 193 
Q 2250 -91 1575 -91 
Q 1294 -91 989 -36 
Q 684 19 347 128 
L 347 722 
Q 666 556 975 473 
Q 1284 391 1588 391 
Q 1994 391 2212 530 
Q 2431 669 2431 922 
Q 2431 1156 2273 1281 
Q 2116 1406 1581 1522 
L 1381 1569 
Q 847 1681 609 1914 
Q 372 2147 372 2553 
Q 372 3047 722 3315 
Q 1072 3584 1716 3584 
Q 2034 3584 2315 3537 
Q 2597 3491 2834 3397 
z
" transform="scale(0.015625)"/>
       <path id="DejaVuSans-5d" d="M 1947 4863 
L 1947 -844 
L 622 -844 
L 622 -397 
L 1369 -397 
L 1369 4416 
L 622 4416 
L 622 4863 
L 1947 4863 
z
" transform="scale(0.015625)"/>
      </defs>
      <use xlink:href="#DejaVuSans-394" transform="translate(0 0.015625)"/>
      <use xlink:href="#DejaVuSans-Oblique-3c4" transform="translate(68.408203 0.015625)"/>
      <use xlink:href="#DejaVuSans-20" transform="translate(128.613281 0.015625)"/>
      <use xlink:href="#DejaVuSans-5b" transform="translate(160.400391 0.015625)"/>
      <use xlink:href="#DejaVuSans-6d" transform="translate(199.414062 0.015625)"/>
      <use xlink:href="#DejaVuSans-73" transform="translate(296.826172 0.015625)"/>
      <use xlink:href="#DejaVuSans-5d" transform="translate(348.925781 0.015625)"/>
     </g>
    </g>
   </g>
   <g id="matplotlib.axis_2">
    <g id="ytick_1">
     <g id="line2d_13">
      <path d="M 57.6 289.972165 
L 414.72 289.972165 
" clip-path="url(#p042ce2ce62)" style="fill: none; stroke: #b0b0b0; stroke-width: 0.8; stroke-linecap: square"/>
     </g>
     <g id="line2d_14">
      <defs>
       <path id="mdf284d1ed4" d="M 0 0 
L -3.5 0 
" style="stroke: #000000; stroke-width: 0.8"/>
      </defs>
      <g>
       <use xlink:href="#mdf284d1ed4" x="57.6" y="289.972165" style="stroke: #000000; stroke-width: 0.8"/>
      </g>
     </g>
     <g id="text_8">
      <!-- 0.3 -->
      <g transform="translate(34.696875 293.771384)scale(0.1 -0.1)">
       <defs>
        <path id="DejaVuSans-2e" d="M 684 794 
L 1344 794 
L 1344 0 
L 684 0 
L 684 794 
z
" transform="scale(0.015625)"/>
       </defs>
       <use xlink:href="#DejaVuSans-30"/>
       <use xlink:href="#DejaVuSans-2e" x="63.623047"/>
       <use xlink:href="#DejaVuSans-33" x="95.410156"/>
      </g>
     </g>
    </g>
    <g id="ytick_2">
     <g id="line2d_15">
      <path d="M 57.6 256.200141 
L 414.72 256.200141 
" clip-path="url(#p042ce2ce62)" style="fill: none; stroke: #b0b0b0; stroke-width: 0.8; stroke-linecap: square"/>
     </g>
     <g id="line2d_16">
      <g>
       <use xlink:href="#mdf284d1ed4" x="57.6" y="256.200141" style="stroke: #000000; stroke-width: 0.8"/>
      </g>
     </g>
     <g id="text_9">
      <!-- 0.4 -->
      <g transform="translate(34.696875 259.99936)scale(0.1 -0.1)">
       <use xlink:href="#DejaVuSans-30"/>
       <use xlink:href="#DejaVuSans-2e" x="63.623047"/>
       <use xlink:href="#DejaVuSans-34" x="95.410156"/>
      </g>
     </g>
    </g>
    <g id="ytick_3">
     <g id="line2d_17">
      <path d="M 57.6 222.428118 
L 414.72 222.428118 
" clip-path="url(#p042ce2ce62)" style="fill: none; stroke: #b0b0b0; stroke-width: 0.8; stroke-linecap: square"/>
     </g>
     <g id="line2d_18">
      <g>
       <use xlink:href="#mdf284d1ed4" x="57.6" y="222.428118" style="stroke: #000000; stroke-width: 0.8"/>
      </g>
     </g>
     <g id="text_10">
      <!-- 0.5 -->
      <g transform="translate(34.696875 226.227337)scale(0.1 -0.1)">
       <use xlink:href="#DejaVuSans-30"/>
       <use xlink:href="#DejaVuSans-2e" x="63.623047"/>
       <use xlink:href="#DejaVuSans-35" x="95.410156"/>
      </g>
     </g>
    </g>
    <g id="ytick_4">
     <g id="line2d_19">
      <path d="M 57.6 188.656094 
L 414.72 188.656094 
" clip-path="url(#p042ce2ce62)" style="fill: none; stroke: #b0b0b0; stroke-width: 0.8; stroke-linecap: square"/>
     </g>
     <g id="line2d_20">
      <g>
       <use xlink:href="#mdf284d1ed4" x="57.6" y="188.656094" style="stroke: #000000; stroke-width: 0.8"/>
      </g>
     </g>
     <g id="text_11">
      <!-- 0.6 -->
      <g transform="translate(34.696875 192.455313)scale(0.1 -0.1)">
       <defs>
        <path id="DejaVuSans-36" d="M 2113 2584 
Q 1688 2584 1439 2293 
Q 1191 2003 1191 1497 
Q 1191 994 1439 701 
Q 1688 409 2113 409 
Q 2538 409 2786 701 
Q 3034 994 3034 1497 
Q 3034 2003 2786 2293 
Q 2538 2584 2113 2584 
z
M 3366 4563 
L 3366 3988 
Q 3128 4100 2886 4159 
Q 2644 4219 2406 4219 
Q 1781 4219 1451 3797 
Q 1122 3375 1075 2522 
Q 1259 2794 1537 2939 
Q 1816 3084 2150 3084 
Q 2853 3084 3261 2657 
Q 3669 2231 3669 1497 
Q 3669 778 3244 343 
Q 2819 -91 2113 -91 
Q 1303 -91 875 529 
Q 447 1150 447 2328 
Q 447 3434 972 4092 
Q 1497 4750 2381 4750 
Q 2619 4750 2861 4703 
Q 3103 4656 3366 4563 
z
" transform="scale(0.015625)"/>
       </defs>
       <use xlink:href="#DejaVuSans-30"/>
       <use xlink:href="#DejaVuSans-2e" x="63.623047"/>
       <use xlink:href="#DejaVuSans-36" x="95.410156"/>
      </g>
     </g>
    </g>
    <g id="ytick_5">
     <g id="line2d_21">
      <path d="M 57.6 154.884071 
L 414.72 154.884071 
" clip-path="url(#p042ce2ce62)" style="fill: none; stroke: #b0b0b0; stroke-width: 0.8; stroke-linecap: square"/>
     </g>
     <g id="line2d_22">
      <g>
       <use xlink:href="#mdf284d1ed4" x="57.6" y="154.884071" style="stroke: #000000; stroke-width: 0.8"/>
      </g>
     </g>
     <g id="text_12">
      <!-- 0.7 -->
      <g transform="translate(34.696875 158.683289)scale(0.1 -0.1)">
       <defs>
        <path id="DejaVuSans-37" d="M 525 4666 
L 3525 4666 
L 3525 4397 
L 1831 0 
L 1172 0 
L 2766 4134 
L 525 4134 
L 525 4666 
z
" transform="scale(0.015625)"/>
       </defs>
       <use xlink:href="#DejaVuSans-30"/>
       <use xlink:href="#DejaVuSans-2e" x="63.623047"/>
       <use xlink:href="#DejaVuSans-37" x="95.410156"/>
      </g>
     </g>
    </g>
    <g id="ytick_6">
     <g id="line2d_23">
      <path d="M 57.6 121.112047 
L 414.72 121.112047 
" clip-path="url(#p042ce2ce62)" style="fill: none; stroke: #b0b0b0; stroke-width: 0.8; stroke-linecap: square"/>
     </g>
     <g id="line2d_24">
      <g>
       <use xlink:href="#mdf284d1ed4" x="57.6" y="121.112047" style="stroke: #000000; stroke-width: 0.8"/>
      </g>
     </g>
     <g id="text_13">
      <!-- 0.8 -->
      <g transform="translate(34.696875 124.911266)scale(0.1 -0.1)">
       <defs>
        <path id="DejaVuSans-38" d="M 2034 2216 
Q 1584 2216 1326 1975 
Q 1069 1734 1069 1313 
Q 1069 891 1326 650 
Q 1584 409 2034 409 
Q 2484 409 2743 651 
Q 3003 894 3003 1313 
Q 3003 1734 2745 1975 
Q 2488 2216 2034 2216 
z
M 1403 2484 
Q 997 2584 770 2862 
Q 544 3141 544 3541 
Q 544 4100 942 4425 
Q 1341 4750 2034 4750 
Q 2731 4750 3128 4425 
Q 3525 4100 3525 3541 
Q 3525 3141 3298 2862 
Q 3072 2584 2669 2484 
Q 3125 2378 3379 2068 
Q 3634 1759 3634 1313 
Q 3634 634 3220 271 
Q 2806 -91 2034 -91 
Q 1263 -91 848 271 
Q 434 634 434 1313 
Q 434 1759 690 2068 
Q 947 2378 1403 2484 
z
M 1172 3481 
Q 1172 3119 1398 2916 
Q 1625 2713 2034 2713 
Q 2441 2713 2670 2916 
Q 2900 3119 2900 3481 
Q 2900 3844 2670 4047 
Q 2441 4250 2034 4250 
Q 1625 4250 1398 4047 
Q 1172 3844 1172 3481 
z
" transform="scale(0.015625)"/>
       </defs>
       <use xlink:href="#DejaVuSans-30"/>
       <use xlink:href="#DejaVuSans-2e" x="63.623047"/>
       <use xlink:href="#DejaVuSans-38" x="95.410156"/>
      </g>
     </g>
    </g>
    <g id="ytick_7">
     <g id="line2d_25">
      <path d="M 57.6 87.340024 
L 414.72 87.340024 
" clip-path="url(#p042ce2ce62)" style="fill: none; stroke: #b0b0b0; stroke-width: 0.8; stroke-linecap: square"/>
     </g>
     <g id="line2d_26">
      <g>
       <use xlink:href="#mdf284d1ed4" x="57.6" y="87.340024" style="stroke: #000000; stroke-width: 0.8"/>
      </g>
     </g>
     <g id="text_14">
      <!-- 0.9 -->
      <g transform="translate(34.696875 91.139242)scale(0.1 -0.1)">
       <defs>
        <path id="DejaVuSans-39" d="M 703 97 
L 703 672 
Q 941 559 1184 500 
Q 1428 441 1663 441 
Q 2288 441 2617 861 
Q 2947 1281 2994 2138 
Q 2813 1869 2534 1725 
Q 2256 1581 1919 1581 
Q 1219 1581 811 2004 
Q 403 2428 403 3163 
Q 403 3881 828 4315 
Q 1253 4750 1959 4750 
Q 2769 4750 3195 4129 
Q 3622 3509 3622 2328 
Q 3622 1225 3098 567 
Q 2575 -91 1691 -91 
Q 1453 -91 1209 -44 
Q 966 3 703 97 
z
M 1959 2075 
Q 2384 2075 2632 2365 
Q 2881 2656 2881 3163 
Q 2881 3666 2632 3958 
Q 2384 4250 1959 4250 
Q 1534 4250 1286 3958 
Q 1038 3666 1038 3163 
Q 1038 2656 1286 2365 
Q 1534 2075 1959 2075 
z
" transform="scale(0.015625)"/>
       </defs>
       <use xlink:href="#DejaVuSans-30"/>
       <use xlink:href="#DejaVuSans-2e" x="63.623047"/>
       <use xlink:href="#DejaVuSans-39" x="95.410156"/>
      </g>
     </g>
    </g>
    <g id="ytick_8">
     <g id="line2d_27">
      <path d="M 57.6 53.568 
L 414.72 53.568 
" clip-path="url(#p042ce2ce62)" style="fill: none; stroke: #b0b0b0; stroke-width: 0.8; stroke-linecap: square"/>
     </g>
     <g id="line2d_28">
      <g>
       <use xlink:href="#mdf284d1ed4" x="57.6" y="53.568" style="stroke: #000000; stroke-width: 0.8"/>
      </g>
     </g>
     <g id="text_15">
      <!-- 1.0 -->
      <g transform="translate(34.696875 57.367219)scale(0.1 -0.1)">
       <use xlink:href="#DejaVuSans-31"/>
       <use xlink:href="#DejaVuSans-2e" x="63.623047"/>
       <use xlink:href="#DejaVuSans-30" x="95.410156"/>
      </g>
     </g>
    </g>
    <g id="text_16">
     <!-- Correlación -->
     <g transform="translate(28.617187 202.885812)rotate(-90)scale(0.1 -0.1)">
      <defs>
       <path id="DejaVuSans-43" d="M 4122 4306 
L 4122 3641 
Q 3803 3938 3442 4084 
Q 3081 4231 2675 4231 
Q 1875 4231 1450 3742 
Q 1025 3253 1025 2328 
Q 1025 1406 1450 917 
Q 1875 428 2675 428 
Q 3081 428 3442 575 
Q 3803 722 4122 1019 
L 4122 359 
Q 3791 134 3420 21 
Q 3050 -91 2638 -91 
Q 1578 -91 968 557 
Q 359 1206 359 2328 
Q 359 3453 968 4101 
Q 1578 4750 2638 4750 
Q 3056 4750 3426 4639 
Q 3797 4528 4122 4306 
z
" transform="scale(0.015625)"/>
       <path id="DejaVuSans-6f" d="M 1959 3097 
Q 1497 3097 1228 2736 
Q 959 2375 959 1747 
Q 959 1119 1226 758 
Q 1494 397 1959 397 
Q 2419 397 2687 759 
Q 2956 1122 2956 1747 
Q 2956 2369 2687 2733 
Q 2419 3097 1959 3097 
z
M 1959 3584 
Q 2709 3584 3137 3096 
Q 3566 2609 3566 1747 
Q 3566 888 3137 398 
Q 2709 -91 1959 -91 
Q 1206 -91 779 398 
Q 353 888 353 1747 
Q 353 2609 779 3096 
Q 1206 3584 1959 3584 
z
" transform="scale(0.015625)"/>
       <path id="DejaVuSans-72" d="M 2631 2963 
Q 2534 3019 2420 3045 
Q 2306 3072 2169 3072 
Q 1681 3072 1420 2755 
Q 1159 2438 1159 1844 
L 1159 0 
L 581 0 
L 581 3500 
L 1159 3500 
L 1159 2956 
Q 1341 3275 1631 3429 
Q 1922 3584 2338 3584 
Q 2397 3584 2469 3576 
Q 2541 3569 2628 3553 
L 2631 2963 
z
" transform="scale(0.015625)"/>
       <path id="DejaVuSans-65" d="M 3597 1894 
L 3597 1613 
L 953 1613 
Q 991 1019 1311 708 
Q 1631 397 2203 397 
Q 2534 397 2845 478 
Q 3156 559 3463 722 
L 3463 178 
Q 3153 47 2828 -22 
Q 2503 -91 2169 -91 
Q 1331 -91 842 396 
Q 353 884 353 1716 
Q 353 2575 817 3079 
Q 1281 3584 2069 3584 
Q 2775 3584 3186 3129 
Q 3597 2675 3597 1894 
z
M 3022 2063 
Q 3016 2534 2758 2815 
Q 2500 3097 2075 3097 
Q 1594 3097 1305 2825 
Q 1016 2553 972 2059 
L 3022 2063 
z
" transform="scale(0.015625)"/>
       <path id="DejaVuSans-6c" d="M 603 4863 
L 1178 4863 
L 1178 0 
L 603 0 
L 603 4863 
z
" transform="scale(0.015625)"/>
       <path id="DejaVuSans-61" d="M 2194 1759 
Q 1497 1759 1228 1600 
Q 959 1441 959 1056 
Q 959 750 1161 570 
Q 1363 391 1709 391 
Q 2188 391 2477 730 
Q 2766 1069 2766 1631 
L 2766 1759 
L 2194 1759 
z
M 3341 1997 
L 3341 0 
L 2766 0 
L 2766 531 
Q 2569 213 2275 61 
Q 1981 -91 1556 -91 
Q 1019 -91 701 211 
Q 384 513 384 1019 
Q 384 1609 779 1909 
Q 1175 2209 1959 2209 
L 2766 2209 
L 2766 2266 
Q 2766 2663 2505 2880 
Q 2244 3097 1772 3097 
Q 1472 3097 1187 3025 
Q 903 2953 641 2809 
L 641 3341 
Q 956 3463 1253 3523 
Q 1550 3584 1831 3584 
Q 2591 3584 2966 3190 
Q 3341 2797 3341 1997 
z
" transform="scale(0.015625)"/>
       <path id="DejaVuSans-63" d="M 3122 3366 
L 3122 2828 
Q 2878 2963 2633 3030 
Q 2388 3097 2138 3097 
Q 1578 3097 1268 2742 
Q 959 2388 959 1747 
Q 959 1106 1268 751 
Q 1578 397 2138 397 
Q 2388 397 2633 464 
Q 2878 531 3122 666 
L 3122 134 
Q 2881 22 2623 -34 
Q 2366 -91 2075 -91 
Q 1284 -91 818 406 
Q 353 903 353 1747 
Q 353 2603 823 3093 
Q 1294 3584 2113 3584 
Q 2378 3584 2631 3529 
Q 2884 3475 3122 3366 
z
" transform="scale(0.015625)"/>
       <path id="DejaVuSans-69" d="M 603 3500 
L 1178 3500 
L 1178 0 
L 603 0 
L 603 3500 
z
M 603 4863 
L 1178 4863 
L 1178 4134 
L 603 4134 
L 603 4863 
z
" transform="scale(0.015625)"/>
       <path id="DejaVuSans-f3" d="M 1959 3097 
Q 1497 3097 1228 2736 
Q 959 2375 959 1747 
Q 959 1119 1226 758 
Q 1494 397 1959 397 
Q 2419 397 2687 759 
Q 2956 1122 2956 1747 
Q 2956 2369 2687 2733 
Q 2419 3097 1959 3097 
z
M 1959 3584 
Q 2709 3584 3137 3096 
Q 3566 2609 3566 1747 
Q 3566 888 3137 398 
Q 2709 -91 1959 -91 
Q 1206 -91 779 398 
Q 353 888 353 1747 
Q 353 2609 779 3096 
Q 1206 3584 1959 3584 
z
M 2394 5119 
L 3016 5119 
L 1998 3944 
L 1519 3944 
L 2394 5119 
z
" transform="scale(0.015625)"/>
       <path id="DejaVuSans-6e" d="M 3513 2113 
L 3513 0 
L 2938 0 
L 2938 2094 
Q 2938 2591 2744 2837 
Q 2550 3084 2163 3084 
Q 1697 3084 1428 2787 
Q 1159 2491 1159 1978 
L 1159 0 
L 581 0 
L 581 3500 
L 1159 3500 
L 1159 2956 
Q 1366 3272 1645 3428 
Q 1925 3584 2291 3584 
Q 2894 3584 3203 3211 
Q 3513 2838 3513 2113 
z
" transform="scale(0.015625)"/>
      </defs>
      <use xlink:href="#DejaVuSans-43"/>
      <use xlink:href="#DejaVuSans-6f" x="69.824219"/>
      <use xlink:href="#DejaVuSans-72" x="131.005859"/>
      <use xlink:href="#DejaVuSans-72" x="170.369141"/>
      <use xlink:href="#DejaVuSans-65" x="209.232422"/>
      <use xlink:href="#DejaVuSans-6c" x="270.755859"/>
      <use xlink:href="#DejaVuSans-61" x="298.539062"/>
      <use xlink:href="#DejaVuSans-63" x="359.818359"/>
      <use xlink:href="#DejaVuSans-69" x="414.798828"/>
      <use xlink:href="#DejaVuSans-f3" x="442.582031"/>
      <use xlink:href="#DejaVuSans-6e" x="503.763672"/>
     </g>
    </g>
   </g>
   <g id="line2d_29">
    <path d="M 57.314304 53.841943 
L 57.6 53.568 
L 58.171392 54.244579 
L 58.742784 55.461693 
L 59.314176 57.214601 
L 60.171264 60.786327 
L 61.028352 65.387081 
L 62.171136 72.873945 
L 63.599616 83.875822 
L 66.17088 105.946816 
L 68.742144 127.571429 
L 70.45632 140.420698 
L 72.170496 151.578261 
L 73.598976 159.526862 
L 75.027456 166.333744 
L 76.455936 172.144523 
L 77.884416 177.131007 
L 79.598592 182.286954 
L 81.598464 187.499599 
L 83.884032 192.766185 
L 86.455296 198.089761 
L 88.740864 202.330949 
L 90.740736 205.630226 
L 92.740608 208.516445 
L 94.74048 210.986871 
L 96.454656 212.75889 
L 98.168832 214.208421 
L 99.883008 215.352769 
L 101.597184 216.229398 
L 103.882752 217.107357 
L 111.596544 219.799381 
L 113.596416 220.903328 
L 115.596288 222.261427 
L 118.453248 224.504525 
L 127.881216 232.147245 
L 131.023872 234.366893 
L 133.595136 235.911901 
L 135.880704 237.013975 
L 138.166272 237.869409 
L 140.45184 238.496492 
L 143.023104 238.928981 
L 145.308672 239.088874 
L 147.59424 239.024303 
L 149.879808 238.738493 
L 156.736512 237.680149 
L 158.736384 237.697688 
L 160.736256 237.944886 
L 162.736128 238.408406 
L 165.307392 239.258502 
L 168.450048 240.553326 
L 173.30688 242.849424 
L 177.306624 244.66572 
L 179.592192 245.419735 
L 181.592064 245.852369 
L 183.591936 246.057818 
L 185.877504 246.080648 
L 199.876608 245.78721 
L 202.447872 246.096559 
L 205.019136 246.658235 
L 210.161664 247.91736 
L 211.87584 248.051384 
L 213.30432 247.955763 
L 214.7328 247.64363 
L 216.16128 247.116569 
L 217.875456 246.261423 
L 222.732288 243.64391 
L 224.160768 243.188 
L 225.589248 242.990831 
L 226.732032 243.030718 
L 228.160512 243.317943 
L 229.588992 243.835662 
L 231.303168 244.699783 
L 233.588736 246.122857 
L 237.017088 248.560215 
L 240.44544 251.258286 
L 244.73088 254.946042 
L 248.159232 257.816983 
L 250.159104 259.230456 
L 251.87328 260.187089 
L 253.30176 260.760207 
L 254.73024 261.108111 
L 256.15872 261.221991 
L 257.5872 261.109595 
L 259.01568 260.775571 
L 260.44416 260.218599 
L 261.87264 259.443205 
L 263.586816 258.25078 
L 265.586688 256.554213 
L 268.157952 254.037291 
L 273.014784 249.189106 
L 274.72896 247.811494 
L 276.15744 246.947293 
L 277.300224 246.477817 
L 278.443008 246.225584 
L 279.585792 246.205981 
L 280.728576 246.423815 
L 281.87136 246.865161 
L 283.29984 247.69752 
L 284.72832 248.791126 
L 286.728192 250.609882 
L 292.442112 256.00927 
L 294.72768 257.818039 
L 297.013248 259.36623 
L 299.584512 260.820853 
L 302.155776 262.011341 
L 305.298432 263.190836 
L 309.298176 264.422879 
L 314.7264 265.866741 
L 323.29728 268.038219 
L 326.15424 269.102113 
L 329.296896 270.519144 
L 332.725248 272.305514 
L 339.01056 275.652944 
L 346.724352 279.488629 
L 349.00992 280.975202 
L 351.581184 282.917375 
L 357.866496 287.839175 
L 359.580672 288.861904 
L 361.009152 289.495131 
L 362.437632 289.890777 
L 363.580416 290.016121 
L 365.008896 289.921703 
L 366.437376 289.582558 
L 368.151552 288.903682 
L 370.151424 287.814213 
L 373.29408 285.774637 
L 376.15104 284.053202 
L 377.865216 283.240921 
L 379.579392 282.664184 
L 381.293568 282.357039 
L 382.722048 282.306783 
L 384.436224 282.472947 
L 386.436096 282.91436 
L 388.435968 283.570317 
L 390.721536 284.542851 
L 395.006976 286.694146 
L 398.149632 288.169576 
L 401.006592 289.273418 
L 407.863296 291.79164 
L 410.43456 293.055555 
L 414.148608 295.152698 
L 414.434304 295.320511 
L 414.434304 295.320511 
" clip-path="url(#p042ce2ce62)" style="fill: none; stroke: #1f77b4; stroke-width: 1.5; stroke-linecap: square"/>
   </g>
   <g id="LineCollection_1">
    <path d="M 57.6 222.428118 
L 115.881984 222.428118 
" clip-path="url(#p042ce2ce62)" style="fill: none; stroke-dasharray: 9.6,2.4,1.5,2.4; stroke-dashoffset: 0; stroke: #1f77b4; stroke-width: 1.5"/>
   </g>
   <g id="line2d_30">
    <path d="M 57.314304 53.834281 
L 57.6 53.568 
L 57.885696 53.834281 
L 58.171392 54.363127 
L 58.742784 56.223603 
L 59.314176 59.094688 
L 60.171264 65.061294 
L 61.314048 75.409327 
L 63.028224 93.682859 
L 65.599488 120.950054 
L 67.027968 133.982476 
L 68.456448 144.98008 
L 69.599232 152.31321 
L 70.742016 158.448431 
L 71.8848 163.539594 
L 73.027584 167.771039 
L 74.456064 172.106973 
L 75.884544 175.635256 
L 77.313024 178.571679 
L 79.0272 181.561499 
L 81.027072 184.601697 
L 83.026944 187.30364 
L 84.74112 189.282893 
L 86.1696 190.617967 
L 87.59808 191.652855 
L 89.02656 192.401107 
L 90.45504 192.90578 
L 91.88352 193.196957 
L 93.312 193.288756 
L 95.026176 193.152492 
L 96.740352 192.785825 
L 100.4544 191.651643 
L 102.739968 191.086742 
L 104.454144 190.875044 
L 106.16832 190.902652 
L 107.5968 191.151192 
L 109.02528 191.653544 
L 110.168064 192.274652 
L 111.310848 193.121747 
L 112.453632 194.211341 
L 113.882112 195.916997 
L 115.596288 198.396375 
L 118.167552 202.627625 
L 121.8816 208.691947 
L 123.881472 211.537962 
L 125.595648 213.580823 
L 127.024128 214.948232 
L 128.166912 215.789142 
L 129.309696 216.394031 
L 130.45248 216.779698 
L 131.88096 216.99617 
L 133.595136 216.999035 
L 137.59488 216.906433 
L 143.880192 217.186663 
L 145.308672 216.880309 
L 146.737152 216.310786 
L 148.165632 215.479651 
L 152.451072 212.701971 
L 153.593856 212.354443 
L 154.450944 212.292612 
L 155.308032 212.408822 
L 156.450816 212.833583 
L 157.5936 213.539858 
L 159.02208 214.723925 
L 161.593344 217.231344 
L 169.307136 225.055535 
L 171.307008 227.011049 
L 173.021184 228.370776 
L 174.449664 229.23727 
L 175.878144 229.840424 
L 177.306624 230.168587 
L 178.735104 230.226758 
L 180.163584 230.056642 
L 182.163456 229.575593 
L 187.305984 228.210021 
L 189.02016 228.000805 
L 190.734336 228.018499 
L 192.162816 228.246361 
L 193.591296 228.699309 
L 195.019776 229.365213 
L 196.733952 230.403885 
L 198.733824 231.880395 
L 203.019264 235.195802 
L 204.447744 235.935454 
L 205.876224 236.367472 
L 207.5904 236.595342 
L 210.161664 236.895191 
L 211.590144 237.296001 
L 213.018624 237.939828 
L 215.018496 239.115435 
L 218.732544 241.356913 
L 220.44672 242.148372 
L 222.160896 242.692195 
L 223.875072 242.9697 
L 225.589248 243.01064 
L 228.160512 242.797734 
L 231.303168 242.581967 
L 233.588736 242.686371 
L 238.731264 243.072037 
L 241.016832 242.927339 
L 244.159488 242.692701 
L 245.873664 242.824462 
L 247.58784 243.222032 
L 249.587712 243.935296 
L 252.730368 245.32204 
L 256.444416 247.195933 
L 264.443904 251.451768 
L 266.729472 252.30768 
L 268.729344 252.84065 
L 270.44352 253.080182 
L 271.872 253.062292 
L 273.30048 252.790931 
L 274.72896 252.251342 
L 276.443136 251.327736 
L 280.728576 248.828823 
L 282.157056 248.307693 
L 283.29984 248.091506 
L 284.442624 248.078208 
L 285.585408 248.277496 
L 286.728192 248.67783 
L 288.156672 249.427111 
L 289.870848 250.608631 
L 295.299072 254.591268 
L 298.156032 256.195577 
L 306.726912 260.700986 
L 308.441088 261.326651 
L 309.869568 261.634238 
L 311.298048 261.691333 
L 312.726528 261.500823 
L 314.7264 260.946197 
L 317.297664 260.258586 
L 318.726144 260.094511 
L 320.44032 260.138881 
L 322.440192 260.436924 
L 325.297152 261.114243 
L 327.868416 261.924607 
L 331.582464 263.409892 
L 334.439424 264.432932 
L 337.296384 265.191502 
L 340.43904 265.765701 
L 346.15296 266.725762 
L 349.00992 267.477912 
L 351.581184 268.342281 
L 353.866752 269.31195 
L 355.866624 270.393479 
L 357.866496 271.716228 
L 359.866368 273.288724 
L 362.151936 275.397868 
L 365.294592 278.323124 
L 366.723072 279.37364 
L 367.865856 279.978759 
L 369.00864 280.331724 
L 370.151424 280.427922 
L 371.294208 280.29032 
L 372.722688 279.869071 
L 377.865216 277.996176 
L 379.293696 277.863876 
L 380.722176 277.998757 
L 382.436352 278.452933 
L 385.293312 279.528192 
L 392.150016 282.118474 
L 394.149888 282.668428 
L 396.721152 283.101577 
L 399.578112 283.577218 
L 401.86368 284.214285 
L 406.14912 285.534024 
L 407.5776 285.737917 
L 409.00608 285.704081 
L 410.43456 285.407628 
L 412.148736 284.775208 
L 414.434304 283.853672 
L 414.434304 283.853672 
" clip-path="url(#p042ce2ce62)" style="fill: none; stroke: #ff7f0e; stroke-width: 1.5; stroke-linecap: square"/>
   </g>
   <g id="line2d_31">
    <path d="M 57.314304 54.021725 
L 57.6 53.568 
L 57.885696 54.021725 
L 58.171392 54.931061 
L 58.742784 58.076269 
L 59.314176 62.75307 
L 60.171264 71.836802 
L 64.171008 118.362553 
L 65.599488 130.985663 
L 66.742272 139.232451 
L 67.885056 145.989956 
L 69.02784 151.489342 
L 70.170624 156.011898 
L 71.599104 160.746031 
L 73.31328 165.655703 
L 75.598848 171.520522 
L 80.45568 183.257812 
L 81.88416 186.070268 
L 83.026944 187.835726 
L 84.169728 189.223581 
L 85.598208 190.626624 
L 87.312384 192.011282 
L 88.740864 192.900543 
L 93.312 195.243725 
L 94.74048 195.780861 
L 95.883264 195.999421 
L 97.311744 196.032815 
L 99.02592 195.82519 
L 101.597184 195.260258 
L 103.597056 194.889331 
L 104.73984 194.863626 
L 105.882624 195.04067 
L 107.882496 195.6629 
L 113.025024 197.386358 
L 114.167808 198.141876 
L 115.596288 199.415662 
L 119.310336 203.060453 
L 120.45312 203.71898 
L 121.310208 203.968254 
L 122.167296 204.006057 
L 123.31008 203.780965 
L 125.024256 203.113016 
L 127.024128 202.376538 
L 129.024 201.879718 
L 130.738176 201.66889 
L 131.88096 201.738914 
L 133.023744 202.01296 
L 135.023616 202.794785 
L 138.737664 204.484243 
L 141.88032 206.233001 
L 143.594496 207.412609 
L 145.308672 208.852564 
L 148.737024 211.805513 
L 150.4512 212.940018 
L 151.87968 213.644708 
L 153.30816 214.134001 
L 154.73664 214.404935 
L 159.02208 214.983742 
L 160.164864 215.508114 
L 161.87904 216.614896 
L 164.164608 218.090241 
L 165.307392 218.605335 
L 166.450176 218.887637 
L 167.59296 218.915472 
L 169.02144 218.678244 
L 171.592704 218.168181 
L 173.30688 218.110338 
L 176.16384 218.045985 
L 177.878016 217.747266 
L 183.020544 216.576609 
L 184.449024 216.566069 
L 185.591808 216.761219 
L 187.020288 217.242563 
L 189.02016 218.214384 
L 191.020032 219.46019 
L 193.019904 221.00054 
L 194.448384 222.382746 
L 195.591168 223.767572 
L 197.305344 226.266578 
L 199.876608 230.065776 
L 201.305088 231.771684 
L 202.733568 233.139659 
L 204.447744 234.479883 
L 205.876224 235.323603 
L 207.019008 235.689849 
L 207.876096 235.745558 
L 209.01888 235.574957 
L 210.733056 235.024207 
L 215.304192 233.122876 
L 217.304064 232.150699 
L 219.589632 230.754344 
L 221.8752 229.375762 
L 223.017984 228.91138 
L 224.160768 228.701047 
L 225.017856 228.755511 
L 225.874944 229.007554 
L 226.732032 229.462808 
L 227.874816 230.347966 
L 229.303296 231.815451 
L 231.588864 234.627574 
L 233.017344 236.230203 
L 233.874432 236.94619 
L 234.73152 237.414291 
L 235.588608 237.615123 
L 236.445696 237.575358 
L 237.58848 237.24786 
L 239.588352 236.320312 
L 242.159616 235.103709 
L 243.3024 234.78411 
L 244.445184 234.71671 
L 245.587968 234.888723 
L 247.302144 235.42279 
L 251.016192 236.687259 
L 253.587456 237.26854 
L 255.015936 237.364153 
L 256.444416 237.232511 
L 258.158592 236.814637 
L 263.30112 235.277628 
L 264.443904 235.338802 
L 265.586688 235.688565 
L 266.729472 236.348742 
L 268.157952 237.505629 
L 271.586304 240.409579 
L 273.871872 242.04389 
L 275.586048 243.011102 
L 277.58592 243.834892 
L 280.157184 244.63673 
L 283.29984 245.41399 
L 284.72832 245.562103 
L 286.1568 245.473328 
L 288.156672 245.038326 
L 289.585152 244.807881 
L 290.727936 244.821968 
L 292.156416 245.061203 
L 294.72768 245.771741 
L 297.013248 246.612637 
L 299.01312 247.577687 
L 305.012736 250.75933 
L 307.298304 251.453235 
L 308.726784 252.006492 
L 309.869568 252.727338 
L 311.012352 253.728845 
L 314.7264 257.27397 
L 315.869184 257.917593 
L 317.297664 258.407347 
L 320.154624 258.999147 
L 322.154496 259.289871 
L 323.868672 259.292194 
L 326.725632 259.242501 
L 328.154112 259.433248 
L 329.582592 259.829958 
L 331.296768 260.565491 
L 335.582208 262.672345 
L 337.010688 263.056119 
L 338.439168 263.251431 
L 339.867648 263.21558 
L 341.010432 262.936296 
L 342.153216 262.417923 
L 343.581696 261.504724 
L 345.581568 259.92298 
L 348.724224 257.382786 
L 349.867008 256.815331 
L 350.724096 256.629214 
L 351.581184 256.655587 
L 352.723968 256.962299 
L 354.438144 257.745413 
L 359.866368 260.449337 
L 361.009152 260.701258 
L 364.7232 261.244314 
L 365.865984 261.803703 
L 367.008768 262.616459 
L 369.865728 265.101211 
L 371.8656 266.658983 
L 373.579776 267.752701 
L 375.293952 268.565067 
L 378.722304 269.813708 
L 381.007872 270.395634 
L 382.722048 270.903579 
L 383.864832 271.446568 
L 385.293312 272.405998 
L 387.007488 273.87922 
L 390.721536 277.164459 
L 392.721408 278.607828 
L 395.292672 280.138593 
L 397.292544 281.09293 
L 398.435328 281.420073 
L 399.578112 281.521834 
L 400.720896 281.37347 
L 401.86368 280.979245 
L 403.29216 280.20741 
L 405.292032 279.1164 
L 406.14912 278.866709 
L 407.006208 278.802928 
L 407.863296 278.933669 
L 409.00608 279.352794 
L 411.577344 280.713726 
L 414.434304 282.184552 
L 414.434304 282.184552 
" clip-path="url(#p042ce2ce62)" style="fill: none; stroke: #2ca02c; stroke-width: 1.5; stroke-linecap: square"/>
   </g>
   <g id="patch_3">
    <path d="M 57.6 307.584 
L 57.6 41.472 
" style="fill: none; stroke: #000000; stroke-width: 0.8; stroke-linejoin: miter; stroke-linecap: square"/>
   </g>
   <g id="patch_4">
    <path d="M 414.72 307.584 
L 414.72 41.472 
" style="fill: none; stroke: #000000; stroke-width: 0.8; stroke-linejoin: miter; stroke-linecap: square"/>
   </g>
   <g id="patch_5">
    <path d="M 57.6 307.584 
L 414.72 307.584 
" style="fill: none; stroke: #000000; stroke-width: 0.8; stroke-linejoin: miter; stroke-linecap: square"/>
   </g>
   <g id="patch_6">
    <path d="M 57.6 41.472 
L 414.72 41.472 
" style="fill: none; stroke: #000000; stroke-width: 0.8; stroke-linejoin: miter; stroke-linecap: square"/>
   </g>
   <g id="legend_1">
    <g id="patch_7">
     <path d="M 177.72 93.572 
L 407.72 93.572 
Q 409.72 93.572 409.72 91.572 
L 409.72 48.472 
Q 409.72 46.472 407.72 46.472 
L 177.72 46.472 
Q 175.72 46.472 175.72 48.472 
L 175.72 91.572 
Q 175.72 93.572 177.72 93.572 
z
" style="fill: #ffffff; opacity: 0.8; stroke: #cccccc; stroke-linejoin: miter"/>
    </g>
    <g id="line2d_32">
     <path d="M 179.72 54.572 
L 189.72 54.572 
L 199.72 54.572 
" style="fill: none; stroke: #1f77b4; stroke-width: 1.5; stroke-linecap: square"/>
    </g>
    <g id="text_17">
     <!-- Frecuencia = 0.86 Hz y $\tau_c$ = 0.816 ms -->
     <g transform="translate(207.72 58.072)scale(0.1 -0.1)">
      <defs>
       <path id="DejaVuSans-46" d="M 628 4666 
L 3309 4666 
L 3309 4134 
L 1259 4134 
L 1259 2759 
L 3109 2759 
L 3109 2228 
L 1259 2228 
L 1259 0 
L 628 0 
L 628 4666 
z
" transform="scale(0.015625)"/>
       <path id="DejaVuSans-75" d="M 544 1381 
L 544 3500 
L 1119 3500 
L 1119 1403 
Q 1119 906 1312 657 
Q 1506 409 1894 409 
Q 2359 409 2629 706 
Q 2900 1003 2900 1516 
L 2900 3500 
L 3475 3500 
L 3475 0 
L 2900 0 
L 2900 538 
Q 2691 219 2414 64 
Q 2138 -91 1772 -91 
Q 1169 -91 856 284 
Q 544 659 544 1381 
z
M 1991 3584 
L 1991 3584 
z
" transform="scale(0.015625)"/>
       <path id="DejaVuSans-3d" d="M 678 2906 
L 4684 2906 
L 4684 2381 
L 678 2381 
L 678 2906 
z
M 678 1631 
L 4684 1631 
L 4684 1100 
L 678 1100 
L 678 1631 
z
" transform="scale(0.015625)"/>
       <path id="DejaVuSans-48" d="M 628 4666 
L 1259 4666 
L 1259 2753 
L 3553 2753 
L 3553 4666 
L 4184 4666 
L 4184 0 
L 3553 0 
L 3553 2222 
L 1259 2222 
L 1259 0 
L 628 0 
L 628 4666 
z
" transform="scale(0.015625)"/>
       <path id="DejaVuSans-7a" d="M 353 3500 
L 3084 3500 
L 3084 2975 
L 922 459 
L 3084 459 
L 3084 0 
L 275 0 
L 275 525 
L 2438 3041 
L 353 3041 
L 353 3500 
z
" transform="scale(0.015625)"/>
       <path id="DejaVuSans-79" d="M 2059 -325 
Q 1816 -950 1584 -1140 
Q 1353 -1331 966 -1331 
L 506 -1331 
L 506 -850 
L 844 -850 
Q 1081 -850 1212 -737 
Q 1344 -625 1503 -206 
L 1606 56 
L 191 3500 
L 800 3500 
L 1894 763 
L 2988 3500 
L 3597 3500 
L 2059 -325 
z
" transform="scale(0.015625)"/>
       <path id="DejaVuSans-Oblique-63" d="M 3431 3366 
L 3316 2797 
Q 3109 2947 2876 3022 
Q 2644 3097 2394 3097 
Q 2119 3097 1870 3000 
Q 1622 2903 1453 2725 
Q 1184 2453 1037 2087 
Q 891 1722 891 1331 
Q 891 859 1127 628 
Q 1363 397 1844 397 
Q 2081 397 2348 469 
Q 2616 541 2906 684 
L 2797 116 
Q 2547 13 2283 -39 
Q 2019 -91 1741 -91 
Q 1044 -91 669 257 
Q 294 606 294 1253 
Q 294 1797 489 2255 
Q 684 2713 1069 3078 
Q 1331 3328 1684 3456 
Q 2038 3584 2456 3584 
Q 2700 3584 2940 3529 
Q 3181 3475 3431 3366 
z
" transform="scale(0.015625)"/>
      </defs>
      <use xlink:href="#DejaVuSans-46" transform="translate(0 0.015625)"/>
      <use xlink:href="#DejaVuSans-72" transform="translate(57.519531 0.015625)"/>
      <use xlink:href="#DejaVuSans-65" transform="translate(98.632812 0.015625)"/>
      <use xlink:href="#DejaVuSans-63" transform="translate(160.15625 0.015625)"/>
      <use xlink:href="#DejaVuSans-75" transform="translate(215.136719 0.015625)"/>
      <use xlink:href="#DejaVuSans-65" transform="translate(278.515625 0.015625)"/>
      <use xlink:href="#DejaVuSans-6e" transform="translate(340.039062 0.015625)"/>
      <use xlink:href="#DejaVuSans-63" transform="translate(403.417969 0.015625)"/>
      <use xlink:href="#DejaVuSans-69" transform="translate(458.398438 0.015625)"/>
      <use xlink:href="#DejaVuSans-61" transform="translate(486.181641 0.015625)"/>
      <use xlink:href="#DejaVuSans-20" transform="translate(547.460938 0.015625)"/>
      <use xlink:href="#DejaVuSans-3d" transform="translate(579.248047 0.015625)"/>
      <use xlink:href="#DejaVuSans-20" transform="translate(663.037109 0.015625)"/>
      <use xlink:href="#DejaVuSans-30" transform="translate(694.824219 0.015625)"/>
      <use xlink:href="#DejaVuSans-2e" transform="translate(758.447266 0.015625)"/>
      <use xlink:href="#DejaVuSans-38" transform="translate(787.609375 0.015625)"/>
      <use xlink:href="#DejaVuSans-36" transform="translate(851.232422 0.015625)"/>
      <use xlink:href="#DejaVuSans-20" transform="translate(914.855469 0.015625)"/>
      <use xlink:href="#DejaVuSans-48" transform="translate(946.642578 0.015625)"/>
      <use xlink:href="#DejaVuSans-7a" transform="translate(1021.837891 0.015625)"/>
      <use xlink:href="#DejaVuSans-20" transform="translate(1074.328125 0.015625)"/>
      <use xlink:href="#DejaVuSans-79" transform="translate(1106.115234 0.015625)"/>
      <use xlink:href="#DejaVuSans-20" transform="translate(1165.294922 0.015625)"/>
      <use xlink:href="#DejaVuSans-Oblique-3c4" transform="translate(1197.082031 0.015625)"/>
      <use xlink:href="#DejaVuSans-Oblique-63" transform="translate(1257.287109 -16.390625)scale(0.7)"/>
      <use xlink:href="#DejaVuSans-20" transform="translate(1298.507812 0.015625)"/>
      <use xlink:href="#DejaVuSans-3d" transform="translate(1330.294922 0.015625)"/>
      <use xlink:href="#DejaVuSans-20" transform="translate(1414.083984 0.015625)"/>
      <use xlink:href="#DejaVuSans-30" transform="translate(1445.871094 0.015625)"/>
      <use xlink:href="#DejaVuSans-2e" transform="translate(1509.494141 0.015625)"/>
      <use xlink:href="#DejaVuSans-38" transform="translate(1538.65625 0.015625)"/>
      <use xlink:href="#DejaVuSans-31" transform="translate(1602.279297 0.015625)"/>
      <use xlink:href="#DejaVuSans-36" transform="translate(1665.902344 0.015625)"/>
      <use xlink:href="#DejaVuSans-20" transform="translate(1729.525391 0.015625)"/>
      <use xlink:href="#DejaVuSans-6d" transform="translate(1761.3125 0.015625)"/>
      <use xlink:href="#DejaVuSans-73" transform="translate(1858.724609 0.015625)"/>
     </g>
    </g>
    <g id="line2d_33">
     <path d="M 179.72 69.272 
L 189.72 69.272 
L 199.72 69.272 
" style="fill: none; stroke: #ff7f0e; stroke-width: 1.5; stroke-linecap: square"/>
    </g>
    <g id="text_18">
     <!-- Frecuencia = 5.07 Hz y $\tau_c$ = 1.528 ms -->
     <g transform="translate(207.72 72.772)scale(0.1 -0.1)">
      <use xlink:href="#DejaVuSans-46" transform="translate(0 0.015625)"/>
      <use xlink:href="#DejaVuSans-72" transform="translate(57.519531 0.015625)"/>
      <use xlink:href="#DejaVuSans-65" transform="translate(98.632812 0.015625)"/>
      <use xlink:href="#DejaVuSans-63" transform="translate(160.15625 0.015625)"/>
      <use xlink:href="#DejaVuSans-75" transform="translate(215.136719 0.015625)"/>
      <use xlink:href="#DejaVuSans-65" transform="translate(278.515625 0.015625)"/>
      <use xlink:href="#DejaVuSans-6e" transform="translate(340.039062 0.015625)"/>
      <use xlink:href="#DejaVuSans-63" transform="translate(403.417969 0.015625)"/>
      <use xlink:href="#DejaVuSans-69" transform="translate(458.398438 0.015625)"/>
      <use xlink:href="#DejaVuSans-61" transform="translate(486.181641 0.015625)"/>
      <use xlink:href="#DejaVuSans-20" transform="translate(547.460938 0.015625)"/>
      <use xlink:href="#DejaVuSans-3d" transform="translate(579.248047 0.015625)"/>
      <use xlink:href="#DejaVuSans-20" transform="translate(663.037109 0.015625)"/>
      <use xlink:href="#DejaVuSans-35" transform="translate(694.824219 0.015625)"/>
      <use xlink:href="#DejaVuSans-2e" transform="translate(758.447266 0.015625)"/>
      <use xlink:href="#DejaVuSans-30" transform="translate(790.234375 0.015625)"/>
      <use xlink:href="#DejaVuSans-37" transform="translate(853.857422 0.015625)"/>
      <use xlink:href="#DejaVuSans-20" transform="translate(917.480469 0.015625)"/>
      <use xlink:href="#DejaVuSans-48" transform="translate(949.267578 0.015625)"/>
      <use xlink:href="#DejaVuSans-7a" transform="translate(1024.462891 0.015625)"/>
      <use xlink:href="#DejaVuSans-20" transform="translate(1076.953125 0.015625)"/>
      <use xlink:href="#DejaVuSans-79" transform="translate(1108.740234 0.015625)"/>
      <use xlink:href="#DejaVuSans-20" transform="translate(1167.919922 0.015625)"/>
      <use xlink:href="#DejaVuSans-Oblique-3c4" transform="translate(1199.707031 0.015625)"/>
      <use xlink:href="#DejaVuSans-Oblique-63" transform="translate(1259.912109 -16.390625)scale(0.7)"/>
      <use xlink:href="#DejaVuSans-20" transform="translate(1301.132812 0.015625)"/>
      <use xlink:href="#DejaVuSans-3d" transform="translate(1332.919922 0.015625)"/>
      <use xlink:href="#DejaVuSans-20" transform="translate(1416.708984 0.015625)"/>
      <use xlink:href="#DejaVuSans-31" transform="translate(1448.496094 0.015625)"/>
      <use xlink:href="#DejaVuSans-2e" transform="translate(1512.119141 0.015625)"/>
      <use xlink:href="#DejaVuSans-35" transform="translate(1543.90625 0.015625)"/>
      <use xlink:href="#DejaVuSans-32" transform="translate(1607.529297 0.015625)"/>
      <use xlink:href="#DejaVuSans-38" transform="translate(1671.152344 0.015625)"/>
      <use xlink:href="#DejaVuSans-20" transform="translate(1734.775391 0.015625)"/>
      <use xlink:href="#DejaVuSans-6d" transform="translate(1766.5625 0.015625)"/>
      <use xlink:href="#DejaVuSans-73" transform="translate(1863.974609 0.015625)"/>
     </g>
    </g>
    <g id="line2d_34">
     <path d="M 179.72 83.972 
L 189.72 83.972 
L 199.72 83.972 
" style="fill: none; stroke: #2ca02c; stroke-width: 1.5; stroke-linecap: square"/>
    </g>
    <g id="text_19">
     <!-- Frecuencia = 12.09 Hz y $\tau_c$ = 1.916 ms -->
     <g transform="translate(207.72 87.472)scale(0.1 -0.1)">
      <use xlink:href="#DejaVuSans-46" transform="translate(0 0.015625)"/>
      <use xlink:href="#DejaVuSans-72" transform="translate(57.519531 0.015625)"/>
      <use xlink:href="#DejaVuSans-65" transform="translate(98.632812 0.015625)"/>
      <use xlink:href="#DejaVuSans-63" transform="translate(160.15625 0.015625)"/>
      <use xlink:href="#DejaVuSans-75" transform="translate(215.136719 0.015625)"/>
      <use xlink:href="#DejaVuSans-65" transform="translate(278.515625 0.015625)"/>
      <use xlink:href="#DejaVuSans-6e" transform="translate(340.039062 0.015625)"/>
      <use xlink:href="#DejaVuSans-63" transform="translate(403.417969 0.015625)"/>
      <use xlink:href="#DejaVuSans-69" transform="translate(458.398438 0.015625)"/>
      <use xlink:href="#DejaVuSans-61" transform="translate(486.181641 0.015625)"/>
      <use xlink:href="#DejaVuSans-20" transform="translate(547.460938 0.015625)"/>
      <use xlink:href="#DejaVuSans-3d" transform="translate(579.248047 0.015625)"/>
      <use xlink:href="#DejaVuSans-20" transform="translate(663.037109 0.015625)"/>
      <use xlink:href="#DejaVuSans-31" transform="translate(694.824219 0.015625)"/>
      <use xlink:href="#DejaVuSans-32" transform="translate(758.447266 0.015625)"/>
      <use xlink:href="#DejaVuSans-2e" transform="translate(822.070312 0.015625)"/>
      <use xlink:href="#DejaVuSans-30" transform="translate(853.857422 0.015625)"/>
      <use xlink:href="#DejaVuSans-39" transform="translate(917.480469 0.015625)"/>
      <use xlink:href="#DejaVuSans-20" transform="translate(981.103516 0.015625)"/>
      <use xlink:href="#DejaVuSans-48" transform="translate(1012.890625 0.015625)"/>
      <use xlink:href="#DejaVuSans-7a" transform="translate(1088.085938 0.015625)"/>
      <use xlink:href="#DejaVuSans-20" transform="translate(1140.576172 0.015625)"/>
      <use xlink:href="#DejaVuSans-79" transform="translate(1172.363281 0.015625)"/>
      <use xlink:href="#DejaVuSans-20" transform="translate(1231.542969 0.015625)"/>
      <use xlink:href="#DejaVuSans-Oblique-3c4" transform="translate(1263.330078 0.015625)"/>
      <use xlink:href="#DejaVuSans-Oblique-63" transform="translate(1323.535156 -16.390625)scale(0.7)"/>
      <use xlink:href="#DejaVuSans-20" transform="translate(1364.755859 0.015625)"/>
      <use xlink:href="#DejaVuSans-3d" transform="translate(1396.542969 0.015625)"/>
      <use xlink:href="#DejaVuSans-20" transform="translate(1480.332031 0.015625)"/>
      <use xlink:href="#DejaVuSans-31" transform="translate(1512.119141 0.015625)"/>
      <use xlink:href="#DejaVuSans-2e" transform="translate(1575.742188 0.015625)"/>
      <use xlink:href="#DejaVuSans-39" transform="translate(1607.529297 0.015625)"/>
      <use xlink:href="#DejaVuSans-31" transform="translate(1671.152344 0.015625)"/>
      <use xlink:href="#DejaVuSans-36" transform="translate(1734.775391 0.015625)"/>
      <use xlink:href="#DejaVuSans-20" transform="translate(1798.398438 0.015625)"/>
      <use xlink:href="#DejaVuSans-6d" transform="translate(1830.185547 0.015625)"/>
      <use xlink:href="#DejaVuSans-73" transform="translate(1927.597656 0.015625)"/>
     </g>
    </g>
   </g>
  </g>
 </g>
 <defs>
  <clipPath id="p042ce2ce62">
   <rect x="57.6" y="41.472" width="357.12" height="266.112"/>
  </clipPath>
 </defs>
</svg>
