<?xml version="1.0" encoding="utf-8" standalone="no"?>
<!DOCTYPE svg PUBLIC "-//W3C//DTD SVG 1.1//EN"
  "http://www.w3.org/Graphics/SVG/1.1/DTD/svg11.dtd">
<svg xmlns:xlink="http://www.w3.org/1999/xlink" width="921.6pt" height="691.2pt" viewBox="0 0 921.6 691.2" xmlns="http://www.w3.org/2000/svg" version="1.1">
 <metadata>
  <rdf:RDF xmlns:dc="http://purl.org/dc/elements/1.1/" xmlns:cc="http://creativecommons.org/ns#" xmlns:rdf="http://www.w3.org/1999/02/22-rdf-syntax-ns#">
   <cc:Work>
    <dc:type rdf:resource="http://purl.org/dc/dcmitype/StillImage"/>
    <dc:date>2023-03-18T15:52:34.597969</dc:date>
    <dc:format>image/svg+xml</dc:format>
    <dc:creator>
     <cc:Agent>
      <dc:title>Matplotlib v3.5.1, https://matplotlib.org/</dc:title>
     </cc:Agent>
    </dc:creator>
   </cc:Work>
  </rdf:RDF>
 </metadata>
 <defs>
  <style type="text/css">*{stroke-linejoin: round; stroke-linecap: butt}</style>
 </defs>
 <g id="figure_1">
  <g id="patch_1">
   <path d="M 0 691.2 
L 921.6 691.2 
L 921.6 0 
L 0 0 
z
" style="fill: #ffffff"/>
  </g>
  <g id="axes_1">
   <g id="patch_2">
    <path d="M 115.2 615.168 
L 829.44 615.168 
L 829.44 82.944 
L 115.2 82.944 
z
" style="fill: #ffffff"/>
   </g>
   <g id="matplotlib.axis_1">
    <g id="xtick_1">
     <g id="line2d_1">
      <path d="M 124.280973 615.168 
L 124.280973 82.944 
" clip-path="url(#p715cd69580)" style="fill: none; stroke: #b0b0b0; stroke-width: 0.8; stroke-linecap: square"/>
     </g>
     <g id="line2d_2">
      <defs>
       <path id="m071806c0d7" d="M 0 0 
L 0 3.5 
" style="stroke: #000000; stroke-width: 0.8"/>
      </defs>
      <g>
       <use xlink:href="#m071806c0d7" x="124.280973" y="615.168" style="stroke: #000000; stroke-width: 0.8"/>
      </g>
     </g>
     <g id="text_1">
      <!-- −1500 -->
      <g transform="translate(81.993864 641.164094)scale(0.25 -0.25)">
       <defs>
        <path id="DejaVuSans-2212" d="M 678 2272 
L 4684 2272 
L 4684 1741 
L 678 1741 
L 678 2272 
z
" transform="scale(0.015625)"/>
        <path id="DejaVuSans-31" d="M 794 531 
L 1825 531 
L 1825 4091 
L 703 3866 
L 703 4441 
L 1819 4666 
L 2450 4666 
L 2450 531 
L 3481 531 
L 3481 0 
L 794 0 
L 794 531 
z
" transform="scale(0.015625)"/>
        <path id="DejaVuSans-35" d="M 691 4666 
L 3169 4666 
L 3169 4134 
L 1269 4134 
L 1269 2991 
Q 1406 3038 1543 3061 
Q 1681 3084 1819 3084 
Q 2600 3084 3056 2656 
Q 3513 2228 3513 1497 
Q 3513 744 3044 326 
Q 2575 -91 1722 -91 
Q 1428 -91 1123 -41 
Q 819 9 494 109 
L 494 744 
Q 775 591 1075 516 
Q 1375 441 1709 441 
Q 2250 441 2565 725 
Q 2881 1009 2881 1497 
Q 2881 1984 2565 2268 
Q 2250 2553 1709 2553 
Q 1456 2553 1204 2497 
Q 953 2441 691 2322 
L 691 4666 
z
" transform="scale(0.015625)"/>
        <path id="DejaVuSans-30" d="M 2034 4250 
Q 1547 4250 1301 3770 
Q 1056 3291 1056 2328 
Q 1056 1369 1301 889 
Q 1547 409 2034 409 
Q 2525 409 2770 889 
Q 3016 1369 3016 2328 
Q 3016 3291 2770 3770 
Q 2525 4250 2034 4250 
z
M 2034 4750 
Q 2819 4750 3233 4129 
Q 3647 3509 3647 2328 
Q 3647 1150 3233 529 
Q 2819 -91 2034 -91 
Q 1250 -91 836 529 
Q 422 1150 422 2328 
Q 422 3509 836 4129 
Q 1250 4750 2034 4750 
z
" transform="scale(0.015625)"/>
       </defs>
       <use xlink:href="#DejaVuSans-2212"/>
       <use xlink:href="#DejaVuSans-31" x="83.789062"/>
       <use xlink:href="#DejaVuSans-35" x="147.412109"/>
       <use xlink:href="#DejaVuSans-30" x="211.035156"/>
       <use xlink:href="#DejaVuSans-30" x="274.658203"/>
      </g>
     </g>
    </g>
    <g id="xtick_2">
     <g id="line2d_3">
      <path d="M 254.194757 615.168 
L 254.194757 82.944 
" clip-path="url(#p715cd69580)" style="fill: none; stroke: #b0b0b0; stroke-width: 0.8; stroke-linecap: square"/>
     </g>
     <g id="line2d_4">
      <g>
       <use xlink:href="#m071806c0d7" x="254.194757" y="615.168" style="stroke: #000000; stroke-width: 0.8"/>
      </g>
     </g>
     <g id="text_2">
      <!-- −1000 -->
      <g transform="translate(211.907648 641.164094)scale(0.25 -0.25)">
       <use xlink:href="#DejaVuSans-2212"/>
       <use xlink:href="#DejaVuSans-31" x="83.789062"/>
       <use xlink:href="#DejaVuSans-30" x="147.412109"/>
       <use xlink:href="#DejaVuSans-30" x="211.035156"/>
       <use xlink:href="#DejaVuSans-30" x="274.658203"/>
      </g>
     </g>
    </g>
    <g id="xtick_3">
     <g id="line2d_5">
      <path d="M 384.108541 615.168 
L 384.108541 82.944 
" clip-path="url(#p715cd69580)" style="fill: none; stroke: #b0b0b0; stroke-width: 0.8; stroke-linecap: square"/>
     </g>
     <g id="line2d_6">
      <g>
       <use xlink:href="#m071806c0d7" x="384.108541" y="615.168" style="stroke: #000000; stroke-width: 0.8"/>
      </g>
     </g>
     <g id="text_3">
      <!-- −500 -->
      <g transform="translate(349.774556 641.164094)scale(0.25 -0.25)">
       <use xlink:href="#DejaVuSans-2212"/>
       <use xlink:href="#DejaVuSans-35" x="83.789062"/>
       <use xlink:href="#DejaVuSans-30" x="147.412109"/>
       <use xlink:href="#DejaVuSans-30" x="211.035156"/>
      </g>
     </g>
    </g>
    <g id="xtick_4">
     <g id="line2d_7">
      <path d="M 514.022325 615.168 
L 514.022325 82.944 
" clip-path="url(#p715cd69580)" style="fill: none; stroke: #b0b0b0; stroke-width: 0.8; stroke-linecap: square"/>
     </g>
     <g id="line2d_8">
      <g>
       <use xlink:href="#m071806c0d7" x="514.022325" y="615.168" style="stroke: #000000; stroke-width: 0.8"/>
      </g>
     </g>
     <g id="text_4">
      <!-- 0 -->
      <g transform="translate(506.0692 641.164094)scale(0.25 -0.25)">
       <use xlink:href="#DejaVuSans-30"/>
      </g>
     </g>
    </g>
    <g id="xtick_5">
     <g id="line2d_9">
      <path d="M 643.936108 615.168 
L 643.936108 82.944 
" clip-path="url(#p715cd69580)" style="fill: none; stroke: #b0b0b0; stroke-width: 0.8; stroke-linecap: square"/>
     </g>
     <g id="line2d_10">
      <g>
       <use xlink:href="#m071806c0d7" x="643.936108" y="615.168" style="stroke: #000000; stroke-width: 0.8"/>
      </g>
     </g>
     <g id="text_5">
      <!-- 500 -->
      <g transform="translate(620.076733 641.164094)scale(0.25 -0.25)">
       <use xlink:href="#DejaVuSans-35"/>
       <use xlink:href="#DejaVuSans-30" x="63.623047"/>
       <use xlink:href="#DejaVuSans-30" x="127.246094"/>
      </g>
     </g>
    </g>
    <g id="xtick_6">
     <g id="line2d_11">
      <path d="M 773.849892 615.168 
L 773.849892 82.944 
" clip-path="url(#p715cd69580)" style="fill: none; stroke: #b0b0b0; stroke-width: 0.8; stroke-linecap: square"/>
     </g>
     <g id="line2d_12">
      <g>
       <use xlink:href="#m071806c0d7" x="773.849892" y="615.168" style="stroke: #000000; stroke-width: 0.8"/>
      </g>
     </g>
     <g id="text_6">
      <!-- 1000 -->
      <g transform="translate(742.037392 641.164094)scale(0.25 -0.25)">
       <use xlink:href="#DejaVuSans-31"/>
       <use xlink:href="#DejaVuSans-30" x="63.623047"/>
       <use xlink:href="#DejaVuSans-30" x="127.246094"/>
       <use xlink:href="#DejaVuSans-30" x="190.869141"/>
      </g>
     </g>
    </g>
    <g id="text_7">
     <!-- Tiempo [ns] -->
     <g transform="translate(383.12625 673.158625)scale(0.3 -0.3)">
      <defs>
       <path id="DejaVuSans-54" d="M -19 4666 
L 3928 4666 
L 3928 4134 
L 2272 4134 
L 2272 0 
L 1638 0 
L 1638 4134 
L -19 4134 
L -19 4666 
z
" transform="scale(0.015625)"/>
       <path id="DejaVuSans-69" d="M 603 3500 
L 1178 3500 
L 1178 0 
L 603 0 
L 603 3500 
z
M 603 4863 
L 1178 4863 
L 1178 4134 
L 603 4134 
L 603 4863 
z
" transform="scale(0.015625)"/>
       <path id="DejaVuSans-65" d="M 3597 1894 
L 3597 1613 
L 953 1613 
Q 991 1019 1311 708 
Q 1631 397 2203 397 
Q 2534 397 2845 478 
Q 3156 559 3463 722 
L 3463 178 
Q 3153 47 2828 -22 
Q 2503 -91 2169 -91 
Q 1331 -91 842 396 
Q 353 884 353 1716 
Q 353 2575 817 3079 
Q 1281 3584 2069 3584 
Q 2775 3584 3186 3129 
Q 3597 2675 3597 1894 
z
M 3022 2063 
Q 3016 2534 2758 2815 
Q 2500 3097 2075 3097 
Q 1594 3097 1305 2825 
Q 1016 2553 972 2059 
L 3022 2063 
z
" transform="scale(0.015625)"/>
       <path id="DejaVuSans-6d" d="M 3328 2828 
Q 3544 3216 3844 3400 
Q 4144 3584 4550 3584 
Q 5097 3584 5394 3201 
Q 5691 2819 5691 2113 
L 5691 0 
L 5113 0 
L 5113 2094 
Q 5113 2597 4934 2840 
Q 4756 3084 4391 3084 
Q 3944 3084 3684 2787 
Q 3425 2491 3425 1978 
L 3425 0 
L 2847 0 
L 2847 2094 
Q 2847 2600 2669 2842 
Q 2491 3084 2119 3084 
Q 1678 3084 1418 2786 
Q 1159 2488 1159 1978 
L 1159 0 
L 581 0 
L 581 3500 
L 1159 3500 
L 1159 2956 
Q 1356 3278 1631 3431 
Q 1906 3584 2284 3584 
Q 2666 3584 2933 3390 
Q 3200 3197 3328 2828 
z
" transform="scale(0.015625)"/>
       <path id="DejaVuSans-70" d="M 1159 525 
L 1159 -1331 
L 581 -1331 
L 581 3500 
L 1159 3500 
L 1159 2969 
Q 1341 3281 1617 3432 
Q 1894 3584 2278 3584 
Q 2916 3584 3314 3078 
Q 3713 2572 3713 1747 
Q 3713 922 3314 415 
Q 2916 -91 2278 -91 
Q 1894 -91 1617 61 
Q 1341 213 1159 525 
z
M 3116 1747 
Q 3116 2381 2855 2742 
Q 2594 3103 2138 3103 
Q 1681 3103 1420 2742 
Q 1159 2381 1159 1747 
Q 1159 1113 1420 752 
Q 1681 391 2138 391 
Q 2594 391 2855 752 
Q 3116 1113 3116 1747 
z
" transform="scale(0.015625)"/>
       <path id="DejaVuSans-6f" d="M 1959 3097 
Q 1497 3097 1228 2736 
Q 959 2375 959 1747 
Q 959 1119 1226 758 
Q 1494 397 1959 397 
Q 2419 397 2687 759 
Q 2956 1122 2956 1747 
Q 2956 2369 2687 2733 
Q 2419 3097 1959 3097 
z
M 1959 3584 
Q 2709 3584 3137 3096 
Q 3566 2609 3566 1747 
Q 3566 888 3137 398 
Q 2709 -91 1959 -91 
Q 1206 -91 779 398 
Q 353 888 353 1747 
Q 353 2609 779 3096 
Q 1206 3584 1959 3584 
z
" transform="scale(0.015625)"/>
       <path id="DejaVuSans-20" transform="scale(0.015625)"/>
       <path id="DejaVuSans-5b" d="M 550 4863 
L 1875 4863 
L 1875 4416 
L 1125 4416 
L 1125 -397 
L 1875 -397 
L 1875 -844 
L 550 -844 
L 550 4863 
z
" transform="scale(0.015625)"/>
       <path id="DejaVuSans-6e" d="M 3513 2113 
L 3513 0 
L 2938 0 
L 2938 2094 
Q 2938 2591 2744 2837 
Q 2550 3084 2163 3084 
Q 1697 3084 1428 2787 
Q 1159 2491 1159 1978 
L 1159 0 
L 581 0 
L 581 3500 
L 1159 3500 
L 1159 2956 
Q 1366 3272 1645 3428 
Q 1925 3584 2291 3584 
Q 2894 3584 3203 3211 
Q 3513 2838 3513 2113 
z
" transform="scale(0.015625)"/>
       <path id="DejaVuSans-73" d="M 2834 3397 
L 2834 2853 
Q 2591 2978 2328 3040 
Q 2066 3103 1784 3103 
Q 1356 3103 1142 2972 
Q 928 2841 928 2578 
Q 928 2378 1081 2264 
Q 1234 2150 1697 2047 
L 1894 2003 
Q 2506 1872 2764 1633 
Q 3022 1394 3022 966 
Q 3022 478 2636 193 
Q 2250 -91 1575 -91 
Q 1294 -91 989 -36 
Q 684 19 347 128 
L 347 722 
Q 666 556 975 473 
Q 1284 391 1588 391 
Q 1994 391 2212 530 
Q 2431 669 2431 922 
Q 2431 1156 2273 1281 
Q 2116 1406 1581 1522 
L 1381 1569 
Q 847 1681 609 1914 
Q 372 2147 372 2553 
Q 372 3047 722 3315 
Q 1072 3584 1716 3584 
Q 2034 3584 2315 3537 
Q 2597 3491 2834 3397 
z
" transform="scale(0.015625)"/>
       <path id="DejaVuSans-5d" d="M 1947 4863 
L 1947 -844 
L 622 -844 
L 622 -397 
L 1369 -397 
L 1369 4416 
L 622 4416 
L 622 4863 
L 1947 4863 
z
" transform="scale(0.015625)"/>
      </defs>
      <use xlink:href="#DejaVuSans-54"/>
      <use xlink:href="#DejaVuSans-69" x="57.958984"/>
      <use xlink:href="#DejaVuSans-65" x="85.742188"/>
      <use xlink:href="#DejaVuSans-6d" x="147.265625"/>
      <use xlink:href="#DejaVuSans-70" x="244.677734"/>
      <use xlink:href="#DejaVuSans-6f" x="308.154297"/>
      <use xlink:href="#DejaVuSans-20" x="369.335938"/>
      <use xlink:href="#DejaVuSans-5b" x="401.123047"/>
      <use xlink:href="#DejaVuSans-6e" x="440.136719"/>
      <use xlink:href="#DejaVuSans-73" x="503.515625"/>
      <use xlink:href="#DejaVuSans-5d" x="555.615234"/>
     </g>
    </g>
   </g>
   <g id="matplotlib.axis_2">
    <g id="ytick_1">
     <g id="line2d_13">
      <path d="M 115.2 598.71744 
L 829.44 598.71744 
" clip-path="url(#p715cd69580)" style="fill: none; stroke: #b0b0b0; stroke-width: 0.8; stroke-linecap: square"/>
     </g>
     <g id="line2d_14">
      <defs>
       <path id="mc39dc856c3" d="M 0 0 
L -3.5 0 
" style="stroke: #000000; stroke-width: 0.8"/>
      </defs>
      <g>
       <use xlink:href="#mc39dc856c3" x="115.2" y="598.71744" style="stroke: #000000; stroke-width: 0.8"/>
      </g>
     </g>
     <g id="text_8">
      <!-- −100 -->
      <g transform="translate(39.532031 608.215487)scale(0.25 -0.25)">
       <use xlink:href="#DejaVuSans-2212"/>
       <use xlink:href="#DejaVuSans-31" x="83.789062"/>
       <use xlink:href="#DejaVuSans-30" x="147.412109"/>
       <use xlink:href="#DejaVuSans-30" x="211.035156"/>
      </g>
     </g>
    </g>
    <g id="ytick_2">
     <g id="line2d_15">
      <path d="M 115.2 501.94944 
L 829.44 501.94944 
" clip-path="url(#p715cd69580)" style="fill: none; stroke: #b0b0b0; stroke-width: 0.8; stroke-linecap: square"/>
     </g>
     <g id="line2d_16">
      <g>
       <use xlink:href="#mc39dc856c3" x="115.2" y="501.94944" style="stroke: #000000; stroke-width: 0.8"/>
      </g>
     </g>
     <g id="text_9">
      <!-- −80 -->
      <g transform="translate(55.438281 511.447487)scale(0.25 -0.25)">
       <defs>
        <path id="DejaVuSans-38" d="M 2034 2216 
Q 1584 2216 1326 1975 
Q 1069 1734 1069 1313 
Q 1069 891 1326 650 
Q 1584 409 2034 409 
Q 2484 409 2743 651 
Q 3003 894 3003 1313 
Q 3003 1734 2745 1975 
Q 2488 2216 2034 2216 
z
M 1403 2484 
Q 997 2584 770 2862 
Q 544 3141 544 3541 
Q 544 4100 942 4425 
Q 1341 4750 2034 4750 
Q 2731 4750 3128 4425 
Q 3525 4100 3525 3541 
Q 3525 3141 3298 2862 
Q 3072 2584 2669 2484 
Q 3125 2378 3379 2068 
Q 3634 1759 3634 1313 
Q 3634 634 3220 271 
Q 2806 -91 2034 -91 
Q 1263 -91 848 271 
Q 434 634 434 1313 
Q 434 1759 690 2068 
Q 947 2378 1403 2484 
z
M 1172 3481 
Q 1172 3119 1398 2916 
Q 1625 2713 2034 2713 
Q 2441 2713 2670 2916 
Q 2900 3119 2900 3481 
Q 2900 3844 2670 4047 
Q 2441 4250 2034 4250 
Q 1625 4250 1398 4047 
Q 1172 3844 1172 3481 
z
" transform="scale(0.015625)"/>
       </defs>
       <use xlink:href="#DejaVuSans-2212"/>
       <use xlink:href="#DejaVuSans-38" x="83.789062"/>
       <use xlink:href="#DejaVuSans-30" x="147.412109"/>
      </g>
     </g>
    </g>
    <g id="ytick_3">
     <g id="line2d_17">
      <path d="M 115.2 405.18144 
L 829.44 405.18144 
" clip-path="url(#p715cd69580)" style="fill: none; stroke: #b0b0b0; stroke-width: 0.8; stroke-linecap: square"/>
     </g>
     <g id="line2d_18">
      <g>
       <use xlink:href="#mc39dc856c3" x="115.2" y="405.18144" style="stroke: #000000; stroke-width: 0.8"/>
      </g>
     </g>
     <g id="text_10">
      <!-- −60 -->
      <g transform="translate(55.438281 414.679487)scale(0.25 -0.25)">
       <defs>
        <path id="DejaVuSans-36" d="M 2113 2584 
Q 1688 2584 1439 2293 
Q 1191 2003 1191 1497 
Q 1191 994 1439 701 
Q 1688 409 2113 409 
Q 2538 409 2786 701 
Q 3034 994 3034 1497 
Q 3034 2003 2786 2293 
Q 2538 2584 2113 2584 
z
M 3366 4563 
L 3366 3988 
Q 3128 4100 2886 4159 
Q 2644 4219 2406 4219 
Q 1781 4219 1451 3797 
Q 1122 3375 1075 2522 
Q 1259 2794 1537 2939 
Q 1816 3084 2150 3084 
Q 2853 3084 3261 2657 
Q 3669 2231 3669 1497 
Q 3669 778 3244 343 
Q 2819 -91 2113 -91 
Q 1303 -91 875 529 
Q 447 1150 447 2328 
Q 447 3434 972 4092 
Q 1497 4750 2381 4750 
Q 2619 4750 2861 4703 
Q 3103 4656 3366 4563 
z
" transform="scale(0.015625)"/>
       </defs>
       <use xlink:href="#DejaVuSans-2212"/>
       <use xlink:href="#DejaVuSans-36" x="83.789062"/>
       <use xlink:href="#DejaVuSans-30" x="147.412109"/>
      </g>
     </g>
    </g>
    <g id="ytick_4">
     <g id="line2d_19">
      <path d="M 115.2 308.41344 
L 829.44 308.41344 
" clip-path="url(#p715cd69580)" style="fill: none; stroke: #b0b0b0; stroke-width: 0.8; stroke-linecap: square"/>
     </g>
     <g id="line2d_20">
      <g>
       <use xlink:href="#mc39dc856c3" x="115.2" y="308.41344" style="stroke: #000000; stroke-width: 0.8"/>
      </g>
     </g>
     <g id="text_11">
      <!-- −40 -->
      <g transform="translate(55.438281 317.911487)scale(0.25 -0.25)">
       <defs>
        <path id="DejaVuSans-34" d="M 2419 4116 
L 825 1625 
L 2419 1625 
L 2419 4116 
z
M 2253 4666 
L 3047 4666 
L 3047 1625 
L 3713 1625 
L 3713 1100 
L 3047 1100 
L 3047 0 
L 2419 0 
L 2419 1100 
L 313 1100 
L 313 1709 
L 2253 4666 
z
" transform="scale(0.015625)"/>
       </defs>
       <use xlink:href="#DejaVuSans-2212"/>
       <use xlink:href="#DejaVuSans-34" x="83.789062"/>
       <use xlink:href="#DejaVuSans-30" x="147.412109"/>
      </g>
     </g>
    </g>
    <g id="ytick_5">
     <g id="line2d_21">
      <path d="M 115.2 211.64544 
L 829.44 211.64544 
" clip-path="url(#p715cd69580)" style="fill: none; stroke: #b0b0b0; stroke-width: 0.8; stroke-linecap: square"/>
     </g>
     <g id="line2d_22">
      <g>
       <use xlink:href="#mc39dc856c3" x="115.2" y="211.64544" style="stroke: #000000; stroke-width: 0.8"/>
      </g>
     </g>
     <g id="text_12">
      <!-- −20 -->
      <g transform="translate(55.438281 221.143487)scale(0.25 -0.25)">
       <defs>
        <path id="DejaVuSans-32" d="M 1228 531 
L 3431 531 
L 3431 0 
L 469 0 
L 469 531 
Q 828 903 1448 1529 
Q 2069 2156 2228 2338 
Q 2531 2678 2651 2914 
Q 2772 3150 2772 3378 
Q 2772 3750 2511 3984 
Q 2250 4219 1831 4219 
Q 1534 4219 1204 4116 
Q 875 4013 500 3803 
L 500 4441 
Q 881 4594 1212 4672 
Q 1544 4750 1819 4750 
Q 2544 4750 2975 4387 
Q 3406 4025 3406 3419 
Q 3406 3131 3298 2873 
Q 3191 2616 2906 2266 
Q 2828 2175 2409 1742 
Q 1991 1309 1228 531 
z
" transform="scale(0.015625)"/>
       </defs>
       <use xlink:href="#DejaVuSans-2212"/>
       <use xlink:href="#DejaVuSans-32" x="83.789062"/>
       <use xlink:href="#DejaVuSans-30" x="147.412109"/>
      </g>
     </g>
    </g>
    <g id="ytick_6">
     <g id="line2d_23">
      <path d="M 115.2 114.87744 
L 829.44 114.87744 
" clip-path="url(#p715cd69580)" style="fill: none; stroke: #b0b0b0; stroke-width: 0.8; stroke-linecap: square"/>
     </g>
     <g id="line2d_24">
      <g>
       <use xlink:href="#mc39dc856c3" x="115.2" y="114.87744" style="stroke: #000000; stroke-width: 0.8"/>
      </g>
     </g>
     <g id="text_13">
      <!-- 0 -->
      <g transform="translate(92.29375 124.375487)scale(0.25 -0.25)">
       <use xlink:href="#DejaVuSans-30"/>
      </g>
     </g>
    </g>
    <g id="text_14">
     <!-- Voltaje [mV] -->
     <g transform="translate(29.292969 441.313031)rotate(-90)scale(0.3 -0.3)">
      <defs>
       <path id="DejaVuSans-56" d="M 1831 0 
L 50 4666 
L 709 4666 
L 2188 738 
L 3669 4666 
L 4325 4666 
L 2547 0 
L 1831 0 
z
" transform="scale(0.015625)"/>
       <path id="DejaVuSans-6c" d="M 603 4863 
L 1178 4863 
L 1178 0 
L 603 0 
L 603 4863 
z
" transform="scale(0.015625)"/>
       <path id="DejaVuSans-74" d="M 1172 4494 
L 1172 3500 
L 2356 3500 
L 2356 3053 
L 1172 3053 
L 1172 1153 
Q 1172 725 1289 603 
Q 1406 481 1766 481 
L 2356 481 
L 2356 0 
L 1766 0 
Q 1100 0 847 248 
Q 594 497 594 1153 
L 594 3053 
L 172 3053 
L 172 3500 
L 594 3500 
L 594 4494 
L 1172 4494 
z
" transform="scale(0.015625)"/>
       <path id="DejaVuSans-61" d="M 2194 1759 
Q 1497 1759 1228 1600 
Q 959 1441 959 1056 
Q 959 750 1161 570 
Q 1363 391 1709 391 
Q 2188 391 2477 730 
Q 2766 1069 2766 1631 
L 2766 1759 
L 2194 1759 
z
M 3341 1997 
L 3341 0 
L 2766 0 
L 2766 531 
Q 2569 213 2275 61 
Q 1981 -91 1556 -91 
Q 1019 -91 701 211 
Q 384 513 384 1019 
Q 384 1609 779 1909 
Q 1175 2209 1959 2209 
L 2766 2209 
L 2766 2266 
Q 2766 2663 2505 2880 
Q 2244 3097 1772 3097 
Q 1472 3097 1187 3025 
Q 903 2953 641 2809 
L 641 3341 
Q 956 3463 1253 3523 
Q 1550 3584 1831 3584 
Q 2591 3584 2966 3190 
Q 3341 2797 3341 1997 
z
" transform="scale(0.015625)"/>
       <path id="DejaVuSans-6a" d="M 603 3500 
L 1178 3500 
L 1178 -63 
Q 1178 -731 923 -1031 
Q 669 -1331 103 -1331 
L -116 -1331 
L -116 -844 
L 38 -844 
Q 366 -844 484 -692 
Q 603 -541 603 -63 
L 603 3500 
z
M 603 4863 
L 1178 4863 
L 1178 4134 
L 603 4134 
L 603 4863 
z
" transform="scale(0.015625)"/>
      </defs>
      <use xlink:href="#DejaVuSans-56"/>
      <use xlink:href="#DejaVuSans-6f" x="60.658203"/>
      <use xlink:href="#DejaVuSans-6c" x="121.839844"/>
      <use xlink:href="#DejaVuSans-74" x="149.623047"/>
      <use xlink:href="#DejaVuSans-61" x="188.832031"/>
      <use xlink:href="#DejaVuSans-6a" x="250.111328"/>
      <use xlink:href="#DejaVuSans-65" x="277.894531"/>
      <use xlink:href="#DejaVuSans-20" x="339.417969"/>
      <use xlink:href="#DejaVuSans-5b" x="371.205078"/>
      <use xlink:href="#DejaVuSans-6d" x="410.21875"/>
      <use xlink:href="#DejaVuSans-56" x="507.630859"/>
      <use xlink:href="#DejaVuSans-5d" x="576.039062"/>
     </g>
    </g>
   </g>
   <g id="line2d_25">
    <path d="M 147.665455 130.36032 
L 148.18511 122.61888 
L 148.444937 126.4896 
L 148.704765 118.74816 
L 148.964592 126.4896 
L 150.003903 126.4896 
L 150.26373 130.36032 
L 150.783385 130.36032 
L 151.043213 126.4896 
L 151.30304 126.4896 
L 151.562868 130.36032 
L 152.862006 130.36032 
L 153.121833 134.23104 
L 153.381661 134.23104 
L 153.641489 126.4896 
L 153.901316 126.4896 
L 154.161144 130.36032 
L 154.420971 126.4896 
L 154.680799 126.4896 
L 155.200454 134.23104 
L 155.460282 134.23104 
L 155.720109 130.36032 
L 155.979937 130.36032 
L 156.499592 122.61888 
L 156.759419 126.4896 
L 157.019247 126.4896 
L 157.538902 134.23104 
L 157.79873 130.36032 
L 158.058557 130.36032 
L 158.318385 126.4896 
L 158.578212 118.74816 
L 158.83804 122.61888 
L 160.137178 122.61888 
L 160.397005 134.23104 
L 160.656833 126.4896 
L 160.91666 122.61888 
L 161.176488 122.61888 
L 161.696143 130.36032 
L 161.955971 130.36032 
L 162.215798 122.61888 
L 162.475626 126.4896 
L 162.995281 126.4896 
L 163.255109 122.61888 
L 163.514936 122.61888 
L 163.774764 126.4896 
L 164.034591 122.61888 
L 164.294419 126.4896 
L 164.554246 122.61888 
L 165.333729 122.61888 
L 165.593557 126.4896 
L 165.853384 126.4896 
L 166.113212 130.36032 
L 166.373039 126.4896 
L 166.632867 126.4896 
L 166.892695 122.61888 
L 167.932005 122.61888 
L 168.191832 118.74816 
L 168.45166 118.74816 
L 168.711488 126.4896 
L 169.49097 126.4896 
L 169.750798 122.61888 
L 170.53028 122.61888 
L 170.790108 114.87744 
L 171.569591 126.4896 
L 172.089246 126.4896 
L 172.349073 130.36032 
L 172.868729 114.87744 
L 173.128556 118.74816 
L 173.388384 118.74816 
L 173.648211 114.87744 
L 174.167866 130.36032 
L 175.207177 114.87744 
L 175.467004 118.74816 
L 175.726832 114.87744 
L 176.246487 122.61888 
L 176.506315 122.61888 
L 176.766142 126.4896 
L 177.02597 126.4896 
L 177.285797 134.23104 
L 177.545625 130.36032 
L 177.805452 122.61888 
L 178.325107 114.87744 
L 178.844763 122.61888 
L 179.10459 130.36032 
L 179.364418 126.4896 
L 179.624245 130.36032 
L 179.884073 126.4896 
L 180.1439 126.4896 
L 180.403728 122.61888 
L 180.663556 122.61888 
L 180.923383 114.87744 
L 181.443038 122.61888 
L 181.702866 134.23104 
L 181.962693 126.4896 
L 182.742176 126.4896 
L 183.002004 122.61888 
L 183.261831 114.87744 
L 183.781486 114.87744 
L 184.041314 118.74816 
L 184.301142 118.74816 
L 184.560969 126.4896 
L 184.820797 122.61888 
L 185.080624 130.36032 
L 185.340452 126.4896 
L 185.600279 118.74816 
L 185.860107 118.74816 
L 186.119935 122.61888 
L 186.379762 114.87744 
L 186.63959 122.61888 
L 186.899417 122.61888 
L 187.159245 118.74816 
L 187.419072 126.4896 
L 187.6789 126.4896 
L 188.198555 118.74816 
L 188.71821 118.74816 
L 189.237865 126.4896 
L 189.75752 126.4896 
L 190.277176 118.74816 
L 190.796831 118.74816 
L 191.056658 122.61888 
L 191.316486 122.61888 
L 191.836141 130.36032 
L 192.355796 122.61888 
L 192.615624 126.4896 
L 192.875451 122.61888 
L 193.135279 114.87744 
L 193.395106 114.87744 
L 193.654934 118.74816 
L 193.914762 118.74816 
L 194.174589 126.4896 
L 194.434417 126.4896 
L 194.694244 130.36032 
L 194.954072 122.61888 
L 195.213899 118.74816 
L 195.733555 118.74816 
L 195.993382 122.61888 
L 196.25321 114.87744 
L 197.032692 126.4896 
L 197.552347 126.4896 
L 197.812175 118.74816 
L 198.072003 118.74816 
L 198.33183 111.00672 
L 198.591658 114.87744 
L 198.851485 111.00672 
L 199.111313 122.61888 
L 199.37114 122.61888 
L 199.630968 126.4896 
L 199.890796 126.4896 
L 200.150623 118.74816 
L 200.670278 118.74816 
L 200.930106 114.87744 
L 201.449761 114.87744 
L 201.709589 122.61888 
L 202.229244 130.36032 
L 202.489071 126.4896 
L 202.748899 118.74816 
L 203.268554 126.4896 
L 203.528382 118.74816 
L 203.788209 118.74816 
L 204.048037 114.87744 
L 204.567692 130.36032 
L 205.087347 122.61888 
L 205.347175 122.61888 
L 205.607002 118.74816 
L 205.86683 122.61888 
L 206.126657 118.74816 
L 206.386485 118.74816 
L 206.646312 122.61888 
L 207.165967 122.61888 
L 207.425795 126.4896 
L 207.685623 126.4896 
L 207.94545 118.74816 
L 208.205278 122.61888 
L 208.465105 118.74816 
L 208.724933 118.74816 
L 208.98476 114.87744 
L 209.244588 118.74816 
L 209.504416 114.87744 
L 209.764243 122.61888 
L 210.024071 118.74816 
L 210.543726 126.4896 
L 210.803553 126.4896 
L 211.063381 118.74816 
L 211.583036 118.74816 
L 211.842864 130.36032 
L 212.102691 118.74816 
L 212.622346 126.4896 
L 212.882174 122.61888 
L 213.142002 126.4896 
L 213.401829 118.74816 
L 213.661657 122.61888 
L 213.921484 114.87744 
L 214.441139 114.87744 
L 214.700967 122.61888 
L 214.960794 122.61888 
L 215.220622 126.4896 
L 215.48045 126.4896 
L 216.000105 118.74816 
L 216.259932 118.74816 
L 216.51976 114.87744 
L 216.779587 114.87744 
L 217.039415 111.00672 
L 217.299243 118.74816 
L 217.55907 118.74816 
L 217.818898 122.61888 
L 218.078725 122.61888 
L 218.338553 118.74816 
L 218.59838 126.4896 
L 218.858208 118.74816 
L 219.118036 118.74816 
L 219.377863 114.87744 
L 219.637691 118.74816 
L 219.897518 118.74816 
L 220.157346 126.4896 
L 220.677001 126.4896 
L 220.936829 122.61888 
L 221.716311 122.61888 
L 221.976139 114.87744 
L 222.235966 111.00672 
L 222.495794 114.87744 
L 222.755622 114.87744 
L 223.015449 126.4896 
L 223.794932 126.4896 
L 224.314587 111.00672 
L 224.574414 107.136 
L 224.834242 107.136 
L 225.09407 111.00672 
L 225.353897 118.74816 
L 225.613725 122.61888 
L 225.873552 118.74816 
L 226.13338 122.61888 
L 226.393207 122.61888 
L 226.653035 114.87744 
L 226.912863 111.00672 
L 227.692345 111.00672 
L 228.212 126.4896 
L 228.471828 126.4896 
L 228.731656 130.36032 
L 228.991483 126.4896 
L 229.251311 114.87744 
L 229.511138 118.74816 
L 230.030793 111.00672 
L 230.290621 118.74816 
L 230.550449 122.61888 
L 230.810276 122.61888 
L 231.070104 126.4896 
L 231.329931 122.61888 
L 231.589759 126.4896 
L 231.849586 118.74816 
L 232.369242 111.00672 
L 232.888897 111.00672 
L 233.148724 122.61888 
L 233.408552 122.61888 
L 233.668379 118.74816 
L 233.928207 122.61888 
L 234.188034 118.74816 
L 234.447862 118.74816 
L 234.70769 111.00672 
L 234.967517 111.00672 
L 235.227345 114.87744 
L 235.487172 114.87744 
L 236.266655 126.4896 
L 236.526483 126.4896 
L 236.78631 114.87744 
L 237.046138 114.87744 
L 237.305965 111.00672 
L 237.565793 114.87744 
L 237.82562 107.136 
L 238.345276 114.87744 
L 238.864931 130.36032 
L 239.384586 122.61888 
L 239.644413 114.87744 
L 239.904241 118.74816 
L 240.423896 149.71392 
L 240.683724 153.58464 
L 240.943551 161.32608 
L 241.203379 161.32608 
L 241.463206 157.45536 
L 241.723034 161.32608 
L 241.982862 149.71392 
L 242.242689 145.8432 
L 242.502517 145.8432 
L 242.762344 153.58464 
L 243.022172 153.58464 
L 243.281999 165.1968 
L 243.541827 161.32608 
L 243.801654 161.32608 
L 244.061482 157.45536 
L 244.32131 157.45536 
L 244.581137 153.58464 
L 244.840965 145.8432 
L 245.100792 145.8432 
L 245.36062 149.71392 
L 245.620447 157.45536 
L 245.880275 161.32608 
L 246.140103 169.06752 
L 246.39993 161.32608 
L 246.659758 165.1968 
L 247.43924 153.58464 
L 247.699068 153.58464 
L 247.958896 149.71392 
L 248.218723 153.58464 
L 248.478551 153.58464 
L 248.738378 161.32608 
L 248.998206 165.1968 
L 249.517861 165.1968 
L 249.777689 153.58464 
L 250.557171 141.97248 
L 250.816999 149.71392 
L 251.076826 149.71392 
L 251.336654 157.45536 
L 251.596482 157.45536 
L 251.856309 161.32608 
L 252.895619 145.8432 
L 253.155447 149.71392 
L 253.415274 149.71392 
L 253.675102 153.58464 
L 253.93493 161.32608 
L 254.194757 157.45536 
L 254.454585 165.1968 
L 254.714412 161.32608 
L 255.234067 161.32608 
L 255.753723 145.8432 
L 256.01355 153.58464 
L 256.273378 153.58464 
L 256.533205 149.71392 
L 256.793033 157.45536 
L 257.832343 157.45536 
L 258.092171 149.71392 
L 258.351998 149.71392 
L 258.611826 145.8432 
L 258.871653 153.58464 
L 259.131481 153.58464 
L 259.391309 149.71392 
L 259.910964 165.1968 
L 260.430619 157.45536 
L 260.690446 149.71392 
L 261.469929 149.71392 
L 261.729757 157.45536 
L 262.249412 157.45536 
L 262.509239 153.58464 
L 262.769067 153.58464 
L 263.028894 149.71392 
L 263.288722 149.71392 
L 263.808377 141.97248 
L 264.068205 141.97248 
L 264.58786 157.45536 
L 264.847687 157.45536 
L 265.62717 145.8432 
L 266.406653 145.8432 
L 266.66648 153.58464 
L 266.926308 157.45536 
L 267.186136 157.45536 
L 267.445963 165.1968 
L 267.705791 161.32608 
L 267.965618 161.32608 
L 268.225446 157.45536 
L 268.485273 157.45536 
L 268.745101 153.58464 
L 269.004929 157.45536 
L 269.264756 153.58464 
L 269.524584 161.32608 
L 270.044239 169.06752 
L 270.304066 165.1968 
L 270.563894 165.1968 
L 270.823721 161.32608 
L 271.083549 161.32608 
L 271.343377 153.58464 
L 271.603204 161.32608 
L 271.863032 157.45536 
L 272.122859 161.32608 
L 272.382687 161.32608 
L 272.642514 169.06752 
L 272.902342 161.32608 
L 273.16217 165.1968 
L 273.421997 165.1968 
L 273.681825 161.32608 
L 273.941652 153.58464 
L 274.20148 157.45536 
L 274.461307 157.45536 
L 274.721135 161.32608 
L 275.24079 161.32608 
L 275.500618 153.58464 
L 275.760445 157.45536 
L 276.799756 157.45536 
L 277.059583 161.32608 
L 277.579238 161.32608 
L 277.839066 165.1968 
L 278.098893 161.32608 
L 278.358721 165.1968 
L 278.618549 157.45536 
L 278.878376 165.1968 
L 279.138204 161.32608 
L 279.398031 153.58464 
L 279.657859 157.45536 
L 279.917686 157.45536 
L 280.437341 165.1968 
L 280.697169 161.32608 
L 280.956997 165.1968 
L 281.216824 165.1968 
L 281.476652 161.32608 
L 281.736479 165.1968 
L 281.996307 157.45536 
L 282.256134 157.45536 
L 282.77579 149.71392 
L 283.555272 161.32608 
L 284.334755 161.32608 
L 284.594583 157.45536 
L 284.85441 145.8432 
L 285.114238 145.8432 
L 285.374065 153.58464 
L 285.633893 153.58464 
L 285.89372 161.32608 
L 286.153548 161.32608 
L 286.673203 192.29184 
L 286.933031 200.03328 
L 287.192858 200.03328 
L 287.452686 196.16256 
L 287.712513 196.16256 
L 287.972341 192.29184 
L 288.232169 196.16256 
L 288.491996 196.16256 
L 288.751824 200.03328 
L 289.011651 211.64544 
L 289.271479 211.64544 
L 289.531306 203.904 
L 290.310789 203.904 
L 290.570617 200.03328 
L 290.830444 192.29184 
L 291.350099 200.03328 
L 291.609927 207.77472 
L 291.869754 207.77472 
L 292.909065 192.29184 
L 293.168892 192.29184 
L 293.42872 196.16256 
L 293.948375 196.16256 
L 294.208203 200.03328 
L 294.46803 200.03328 
L 294.727858 203.904 
L 294.987685 200.03328 
L 295.247513 200.03328 
L 295.50734 192.29184 
L 295.767168 196.16256 
L 296.026996 192.29184 
L 296.286823 192.29184 
L 296.546651 196.16256 
L 296.806478 196.16256 
L 297.066306 200.03328 
L 297.585961 200.03328 
L 297.845788 192.29184 
L 298.105616 196.16256 
L 298.365444 188.42112 
L 298.625271 192.29184 
L 298.885099 192.29184 
L 299.404754 200.03328 
L 299.664581 200.03328 
L 299.924409 192.29184 
L 300.184237 196.16256 
L 300.444064 192.29184 
L 300.703892 196.16256 
L 300.963719 192.29184 
L 301.483374 192.29184 
L 301.743202 207.77472 
L 302.00303 234.86976 
L 302.522685 250.35264 
L 302.782512 246.48192 
L 303.302167 246.48192 
L 303.561995 242.6112 
L 304.08165 227.12832 
L 304.341478 234.86976 
L 304.601305 246.48192 
L 305.380788 258.09408 
L 305.640616 250.35264 
L 305.900443 250.35264 
L 306.160271 246.48192 
L 306.420098 238.74048 
L 306.679926 238.74048 
L 306.939753 242.6112 
L 307.199581 242.6112 
L 307.459408 254.22336 
L 307.719236 250.35264 
L 307.979064 254.22336 
L 308.238891 250.35264 
L 308.498719 242.6112 
L 308.758546 238.74048 
L 309.018374 238.74048 
L 309.538029 230.99904 
L 309.797857 234.86976 
L 310.317512 250.35264 
L 310.577339 246.48192 
L 310.837167 238.74048 
L 311.096994 238.74048 
L 311.356822 234.86976 
L 311.61665 234.86976 
L 311.876477 230.99904 
L 312.136305 230.99904 
L 313.175615 246.48192 
L 313.435443 246.48192 
L 313.69527 242.6112 
L 313.955098 234.86976 
L 314.214925 230.99904 
L 314.474753 230.99904 
L 314.73458 234.86976 
L 315.254236 234.86976 
L 315.514063 242.6112 
L 315.773891 242.6112 
L 316.033718 246.48192 
L 316.813201 223.2576 
L 317.073028 223.2576 
L 317.592684 230.99904 
L 317.852511 238.74048 
L 318.112339 242.6112 
L 318.631994 242.6112 
L 318.891821 230.99904 
L 319.151649 227.12832 
L 319.411477 219.38688 
L 319.671304 223.2576 
L 319.931132 230.99904 
L 320.190959 227.12832 
L 320.450787 234.86976 
L 320.970442 234.86976 
L 321.23027 230.99904 
L 321.490097 230.99904 
L 321.749925 227.12832 
L 322.009752 219.38688 
L 322.26958 219.38688 
L 322.789235 227.12832 
L 323.049063 234.86976 
L 323.30889 238.74048 
L 323.568718 234.86976 
L 323.828545 234.86976 
L 324.088373 223.2576 
L 324.3482 219.38688 
L 324.608028 223.2576 
L 324.867856 223.2576 
L 325.127683 219.38688 
L 325.907166 230.99904 
L 326.166993 227.12832 
L 326.686648 227.12832 
L 326.946476 219.38688 
L 327.206304 215.51616 
L 327.466131 215.51616 
L 327.725959 223.2576 
L 327.985786 219.38688 
L 328.245614 223.2576 
L 328.505441 219.38688 
L 328.765269 223.2576 
L 329.025097 219.38688 
L 329.284924 219.38688 
L 329.544752 215.51616 
L 329.804579 219.38688 
L 330.064407 215.51616 
L 330.324234 223.2576 
L 330.584062 219.38688 
L 330.84389 223.2576 
L 331.103717 219.38688 
L 331.623372 219.38688 
L 331.8832 223.2576 
L 332.143027 215.51616 
L 332.402855 223.2576 
L 332.662683 219.38688 
L 332.92251 219.38688 
L 333.182338 227.12832 
L 333.442165 227.12832 
L 333.96182 219.38688 
L 334.221648 219.38688 
L 334.481475 215.51616 
L 335.260958 215.51616 
L 335.520786 219.38688 
L 335.780613 215.51616 
L 336.040441 215.51616 
L 336.300268 211.64544 
L 336.560096 211.64544 
L 336.819924 203.904 
L 337.339579 211.64544 
L 338.119061 211.64544 
L 338.378889 215.51616 
L 338.898544 215.51616 
L 339.158372 211.64544 
L 339.418199 215.51616 
L 339.678027 207.77472 
L 339.937854 215.51616 
L 340.197682 211.64544 
L 340.45751 219.38688 
L 340.717337 211.64544 
L 340.977165 207.77472 
L 341.236992 215.51616 
L 341.49682 215.51616 
L 341.756647 219.38688 
L 342.016475 215.51616 
L 342.276303 207.77472 
L 342.53613 207.77472 
L 342.795958 203.904 
L 343.055785 203.904 
L 343.315613 207.77472 
L 343.835268 207.77472 
L 344.095095 211.64544 
L 344.354923 211.64544 
L 344.614751 203.904 
L 345.134406 211.64544 
L 345.394233 203.904 
L 345.654061 203.904 
L 345.913888 200.03328 
L 346.173716 207.77472 
L 346.433544 200.03328 
L 346.693371 207.77472 
L 347.992509 207.77472 
L 348.252337 200.03328 
L 348.512164 196.16256 
L 348.771992 207.77472 
L 349.291647 200.03328 
L 349.551474 203.904 
L 349.811302 200.03328 
L 350.07113 203.904 
L 350.330957 211.64544 
L 351.11044 200.03328 
L 351.630095 200.03328 
L 351.889923 207.77472 
L 352.14975 207.77472 
L 352.409578 215.51616 
L 352.669405 203.904 
L 352.929233 200.03328 
L 353.18906 200.03328 
L 353.708715 192.29184 
L 353.968543 192.29184 
L 354.228371 196.16256 
L 354.488198 196.16256 
L 355.007853 203.904 
L 355.267681 203.904 
L 355.527508 196.16256 
L 356.047164 196.16256 
L 356.306991 200.03328 
L 356.566819 196.16256 
L 356.826646 203.904 
L 357.086474 200.03328 
L 357.346301 203.904 
L 357.606129 203.904 
L 357.865957 200.03328 
L 358.125784 200.03328 
L 358.645439 192.29184 
L 358.905267 200.03328 
L 359.165094 200.03328 
L 359.424922 196.16256 
L 359.68475 200.03328 
L 359.944577 196.16256 
L 360.204405 200.03328 
L 360.72406 192.29184 
L 360.983887 192.29184 
L 361.243715 188.42112 
L 361.503543 188.42112 
L 361.76337 196.16256 
L 362.023198 188.42112 
L 362.283025 192.29184 
L 362.80268 192.29184 
L 363.062508 196.16256 
L 363.322335 188.42112 
L 364.101818 188.42112 
L 364.361646 184.5504 
L 364.621473 192.29184 
L 364.881301 196.16256 
L 365.141128 196.16256 
L 365.400956 192.29184 
L 365.660784 196.16256 
L 365.920611 196.16256 
L 366.440266 188.42112 
L 366.700094 188.42112 
L 367.219749 196.16256 
L 367.739404 196.16256 
L 367.999232 188.42112 
L 368.259059 188.42112 
L 368.518887 184.5504 
L 368.778714 188.42112 
L 369.29837 188.42112 
L 369.558197 184.5504 
L 369.818025 184.5504 
L 370.077852 188.42112 
L 370.33768 184.5504 
L 370.597507 184.5504 
L 370.857335 188.42112 
L 371.37699 188.42112 
L 371.636818 184.5504 
L 371.896645 188.42112 
L 372.4163 180.67968 
L 372.676128 180.67968 
L 373.455611 192.29184 
L 373.715438 188.42112 
L 373.975266 192.29184 
L 374.235093 192.29184 
L 374.494921 188.42112 
L 374.754748 188.42112 
L 375.014576 180.67968 
L 375.274404 180.67968 
L 375.534231 176.80896 
L 375.794059 180.67968 
L 376.053886 188.42112 
L 376.313714 192.29184 
L 376.833369 192.29184 
L 377.353024 176.80896 
L 377.872679 176.80896 
L 378.132507 184.5504 
L 378.392334 180.67968 
L 378.91199 188.42112 
L 379.431645 188.42112 
L 379.691472 180.67968 
L 379.9513 180.67968 
L 380.211127 169.06752 
L 380.470955 169.06752 
L 380.730782 180.67968 
L 381.250438 180.67968 
L 381.770093 196.16256 
L 382.02992 192.29184 
L 382.289748 184.5504 
L 382.549575 188.42112 
L 382.809403 172.93824 
L 384.108541 192.29184 
L 384.368368 188.42112 
L 384.628196 192.29184 
L 384.888024 188.42112 
L 385.147851 172.93824 
L 385.407679 169.06752 
L 385.667506 169.06752 
L 385.927334 172.93824 
L 386.187161 180.67968 
L 386.706817 188.42112 
L 386.966644 180.67968 
L 387.226472 184.5504 
L 387.486299 184.5504 
L 387.746127 169.06752 
L 388.265782 161.32608 
L 388.52561 172.93824 
L 388.785437 172.93824 
L 389.045265 180.67968 
L 389.305092 180.67968 
L 389.56492 176.80896 
L 390.084575 176.80896 
L 390.344402 169.06752 
L 390.60423 172.93824 
L 390.864058 169.06752 
L 391.383713 176.80896 
L 391.64354 176.80896 
L 391.903368 180.67968 
L 392.163195 172.93824 
L 392.423023 180.67968 
L 392.682851 169.06752 
L 392.942678 169.06752 
L 393.462333 176.80896 
L 393.722161 176.80896 
L 393.981988 180.67968 
L 394.241816 180.67968 
L 394.501644 176.80896 
L 394.761471 184.5504 
L 395.281126 169.06752 
L 395.540954 165.1968 
L 395.800781 165.1968 
L 396.060609 169.06752 
L 396.320437 169.06752 
L 396.580264 172.93824 
L 396.840092 172.93824 
L 397.099919 176.80896 
L 397.359747 176.80896 
L 397.619574 180.67968 
L 397.879402 172.93824 
L 398.13923 169.06752 
L 398.399057 169.06752 
L 398.658885 172.93824 
L 398.918712 172.93824 
L 399.17854 176.80896 
L 399.438367 172.93824 
L 399.698195 176.80896 
L 399.958022 176.80896 
L 400.21785 172.93824 
L 400.477678 172.93824 
L 400.737505 161.32608 
L 400.997333 161.32608 
L 401.25716 172.93824 
L 401.516988 172.93824 
L 402.036643 180.67968 
L 402.296471 172.93824 
L 402.556298 172.93824 
L 403.075953 165.1968 
L 403.335781 165.1968 
L 403.595608 169.06752 
L 403.855436 176.80896 
L 404.115264 172.93824 
L 404.375091 176.80896 
L 404.634919 176.80896 
L 404.894746 172.93824 
L 405.154574 172.93824 
L 405.414401 169.06752 
L 405.674229 169.06752 
L 405.934057 161.32608 
L 406.193884 169.06752 
L 406.713539 169.06752 
L 406.973367 172.93824 
L 407.233194 169.06752 
L 407.493022 172.93824 
L 407.75285 169.06752 
L 408.272505 169.06752 
L 408.532332 165.1968 
L 408.79216 172.93824 
L 409.051987 169.06752 
L 410.091298 169.06752 
L 410.351125 176.80896 
L 410.610953 169.06752 
L 410.87078 169.06752 
L 411.130608 165.1968 
L 411.650263 165.1968 
L 411.910091 169.06752 
L 412.169918 165.1968 
L 412.689573 172.93824 
L 412.949401 169.06752 
L 413.209228 169.06752 
L 413.728884 161.32608 
L 414.248539 161.32608 
L 414.508366 169.06752 
L 414.768194 165.1968 
L 415.287849 165.1968 
L 415.547677 169.06752 
L 415.807504 165.1968 
L 416.327159 165.1968 
L 416.586987 161.32608 
L 417.366469 161.32608 
L 417.626297 169.06752 
L 417.886125 165.1968 
L 418.145952 169.06752 
L 418.40578 165.1968 
L 418.665607 165.1968 
L 418.925435 172.93824 
L 419.44509 157.45536 
L 420.224573 169.06752 
L 420.4844 169.06752 
L 420.744228 165.1968 
L 421.004055 169.06752 
L 421.523711 161.32608 
L 422.043366 161.32608 
L 422.303193 157.45536 
L 422.563021 165.1968 
L 423.082676 172.93824 
L 423.342504 172.93824 
L 423.602331 169.06752 
L 423.862159 161.32608 
L 424.121986 157.45536 
L 424.901469 157.45536 
L 425.161297 165.1968 
L 425.421124 169.06752 
L 425.680952 169.06752 
L 425.940779 172.93824 
L 426.200607 169.06752 
L 426.460434 161.32608 
L 426.720262 157.45536 
L 426.980089 149.71392 
L 427.499745 169.06752 
L 427.759572 172.93824 
L 428.279227 165.1968 
L 428.539055 169.06752 
L 429.05871 153.58464 
L 429.838193 153.58464 
L 430.09802 157.45536 
L 430.357848 165.1968 
L 430.617675 169.06752 
L 431.137331 169.06752 
L 431.397158 165.1968 
L 431.656986 153.58464 
L 431.916813 153.58464 
L 432.176641 149.71392 
L 432.436468 153.58464 
L 432.696296 161.32608 
L 432.956124 161.32608 
L 433.215951 169.06752 
L 433.475779 172.93824 
L 433.735606 169.06752 
L 433.995434 169.06752 
L 434.255261 153.58464 
L 435.034744 153.58464 
L 435.294572 157.45536 
L 435.554399 169.06752 
L 435.814227 165.1968 
L 436.074054 172.93824 
L 436.333882 169.06752 
L 436.593709 169.06752 
L 437.113365 153.58464 
L 437.373192 149.71392 
L 437.63302 149.71392 
L 438.152675 165.1968 
L 438.67233 165.1968 
L 438.932158 169.06752 
L 439.191985 161.32608 
L 439.451813 161.32608 
L 439.71164 153.58464 
L 439.971468 149.71392 
L 440.231295 157.45536 
L 440.491123 157.45536 
L 441.010778 165.1968 
L 441.270606 165.1968 
L 441.530433 161.32608 
L 441.790261 165.1968 
L 442.309916 157.45536 
L 442.569744 149.71392 
L 442.829571 153.58464 
L 443.089399 153.58464 
L 443.349226 161.32608 
L 443.609054 161.32608 
L 443.868881 157.45536 
L 444.388537 157.45536 
L 444.648364 161.32608 
L 444.908192 157.45536 
L 445.168019 149.71392 
L 445.427847 157.45536 
L 445.687674 153.58464 
L 445.947502 161.32608 
L 446.207329 161.32608 
L 446.726985 169.06752 
L 446.986812 184.5504 
L 447.24664 238.74048 
L 448.026122 532.9152 
L 448.28595 556.13952 
L 448.545778 567.75168 
L 448.805605 560.01024 
L 449.065433 532.9152 
L 449.32526 478.72512 
L 449.585088 455.5008 
L 449.844915 470.98368 
L 450.364571 540.65664 
L 450.884226 590.976 
L 451.144053 590.976 
L 451.923536 513.5616 
L 452.183364 494.208 
L 452.443191 498.07872 
L 452.962846 532.9152 
L 453.482501 587.10528 
L 453.742329 590.976 
L 454.002156 579.36384 
L 454.521812 544.52736 
L 454.781639 540.65664 
L 455.041467 540.65664 
L 455.301294 556.13952 
L 455.561122 563.88096 
L 456.080777 583.23456 
L 456.340605 583.23456 
L 457.120087 548.39808 
L 457.379915 548.39808 
L 457.639742 556.13952 
L 457.89957 560.01024 
L 458.159398 571.6224 
L 458.93888 583.23456 
L 459.198708 571.6224 
L 459.458535 567.75168 
L 459.718363 560.01024 
L 459.978191 556.13952 
L 460.497846 563.88096 
L 461.277328 563.88096 
L 461.537156 567.75168 
L 461.796984 563.88096 
L 462.056811 556.13952 
L 462.316639 544.52736 
L 462.576466 544.52736 
L 463.096121 536.78592 
L 463.875604 536.78592 
L 464.135432 532.9152 
L 464.395259 536.78592 
L 464.655087 529.04448 
L 464.914914 529.04448 
L 465.174742 525.17376 
L 465.954225 536.78592 
L 466.214052 536.78592 
L 466.47388 540.65664 
L 466.733707 536.78592 
L 466.993535 536.78592 
L 467.253362 532.9152 
L 467.51319 532.9152 
L 467.773018 536.78592 
L 468.032845 536.78592 
L 468.292673 532.9152 
L 468.5525 536.78592 
L 468.812328 532.9152 
L 469.072155 536.78592 
L 469.331983 529.04448 
L 469.591811 525.17376 
L 470.371293 525.17376 
L 471.410604 509.69088 
L 471.670431 513.5616 
L 472.190086 505.82016 
L 472.969569 505.82016 
L 473.229396 501.94944 
L 473.489224 505.82016 
L 473.749052 505.82016 
L 474.008879 501.94944 
L 474.528534 501.94944 
L 474.788362 505.82016 
L 475.048189 505.82016 
L 475.567845 513.5616 
L 475.827672 513.5616 
L 476.0875 509.69088 
L 476.347327 509.69088 
L 476.607155 505.82016 
L 476.866982 509.69088 
L 477.12681 501.94944 
L 477.386638 509.69088 
L 477.646465 501.94944 
L 477.906293 501.94944 
L 478.16612 498.07872 
L 479.205431 498.07872 
L 479.465258 494.208 
L 479.725086 482.59584 
L 479.984913 486.46656 
L 480.244741 482.59584 
L 480.764396 482.59584 
L 481.024224 486.46656 
L 481.284051 482.59584 
L 481.543879 474.8544 
L 481.803706 478.72512 
L 482.063534 478.72512 
L 482.323361 474.8544 
L 482.583189 474.8544 
L 482.843016 478.72512 
L 483.102844 474.8544 
L 483.362672 478.72512 
L 483.622499 474.8544 
L 483.882327 478.72512 
L 484.142154 478.72512 
L 484.401982 474.8544 
L 484.661809 474.8544 
L 484.921637 482.59584 
L 485.441292 490.33728 
L 485.70112 486.46656 
L 486.220775 486.46656 
L 486.480602 478.72512 
L 486.74043 478.72512 
L 487.260085 470.98368 
L 487.519913 474.8544 
L 487.77974 474.8544 
L 488.299395 467.11296 
L 488.559223 470.98368 
L 489.078878 463.24224 
L 489.338706 463.24224 
L 489.598533 455.5008 
L 489.858361 455.5008 
L 490.118188 451.63008 
L 490.378016 455.5008 
L 491.417326 455.5008 
L 491.936981 447.75936 
L 492.196809 455.5008 
L 492.456636 455.5008 
L 492.976292 447.75936 
L 493.236119 455.5008 
L 493.755774 455.5008 
L 494.015602 459.37152 
L 494.535257 459.37152 
L 494.795085 455.5008 
L 495.054912 443.88864 
L 495.834395 443.88864 
L 496.094222 451.63008 
L 496.35405 451.63008 
L 496.613878 447.75936 
L 496.873705 440.01792 
L 497.133533 443.88864 
L 497.39336 436.1472 
L 497.653188 436.1472 
L 498.172843 428.40576 
L 498.692498 428.40576 
L 499.212153 436.1472 
L 499.471981 436.1472 
L 499.991636 428.40576 
L 501.290774 428.40576 
L 501.810429 436.1472 
L 502.330084 436.1472 
L 502.849739 428.40576 
L 503.109567 432.27648 
L 503.369394 424.53504 
L 503.629222 424.53504 
L 504.148877 416.7936 
L 504.408705 420.66432 
L 504.92836 420.66432 
L 505.448015 412.92288 
L 505.707842 412.92288 
L 506.227498 405.18144 
L 506.487325 405.18144 
L 506.747153 412.92288 
L 507.00698 405.18144 
L 507.266808 409.05216 
L 508.565946 409.05216 
L 509.085601 401.31072 
L 509.345428 401.31072 
L 509.865083 409.05216 
L 510.124911 405.18144 
L 510.384739 409.05216 
L 510.644566 405.18144 
L 511.164221 405.18144 
L 511.424049 393.56928 
L 511.943704 401.31072 
L 512.723187 401.31072 
L 512.983014 393.56928 
L 513.242842 409.05216 
L 513.762497 393.56928 
L 514.022325 389.69856 
L 514.282152 389.69856 
L 514.801807 381.95712 
L 515.061635 385.82784 
L 516.100945 385.82784 
L 516.6206 378.0864 
L 516.880428 381.95712 
L 517.140255 381.95712 
L 517.400083 385.82784 
L 517.659911 378.0864 
L 517.919738 385.82784 
L 518.439393 378.0864 
L 518.959048 385.82784 
L 519.218876 381.95712 
L 520.518014 381.95712 
L 521.037669 374.21568 
L 521.297496 381.95712 
L 521.557324 374.21568 
L 521.817152 378.0864 
L 522.076979 374.21568 
L 522.336807 374.21568 
L 522.596634 370.34496 
L 523.116289 370.34496 
L 523.376117 374.21568 
L 523.895772 366.47424 
L 524.1556 370.34496 
L 524.415427 366.47424 
L 524.675255 366.47424 
L 524.935082 370.34496 
L 525.19491 370.34496 
L 525.454738 366.47424 
L 525.714565 366.47424 
L 525.974393 362.60352 
L 526.23422 370.34496 
L 526.494048 362.60352 
L 526.753875 358.7328 
L 527.273531 366.47424 
L 527.533358 362.60352 
L 527.793186 366.47424 
L 528.053013 362.60352 
L 528.312841 362.60352 
L 528.572668 358.7328 
L 528.832496 358.7328 
L 529.092323 362.60352 
L 529.352151 354.86208 
L 529.871806 362.60352 
L 530.131634 358.7328 
L 530.391461 366.47424 
L 530.651289 362.60352 
L 530.911116 354.86208 
L 531.430772 347.12064 
L 531.690599 350.99136 
L 532.210254 350.99136 
L 532.470082 354.86208 
L 532.729909 354.86208 
L 532.989737 350.99136 
L 533.249565 354.86208 
L 533.509392 354.86208 
L 533.76922 350.99136 
L 534.288875 350.99136 
L 534.80853 358.7328 
L 535.068358 358.7328 
L 535.328185 362.60352 
L 535.588013 362.60352 
L 535.84784 354.86208 
L 536.627323 354.86208 
L 536.88715 362.60352 
L 537.146978 354.86208 
L 537.406806 362.60352 
L 537.666633 358.7328 
L 538.186288 358.7328 
L 538.446116 354.86208 
L 538.705943 354.86208 
L 538.965771 350.99136 
L 539.225599 350.99136 
L 539.485426 343.24992 
L 539.745254 347.12064 
L 540.784564 347.12064 
L 541.044392 339.3792 
L 541.564047 331.63776 
L 541.823874 335.50848 
L 542.083702 335.50848 
L 542.343529 339.3792 
L 542.603357 339.3792 
L 542.863185 347.12064 
L 543.123012 347.12064 
L 543.38284 339.3792 
L 543.642667 339.3792 
L 543.902495 331.63776 
L 544.162322 335.50848 
L 544.42215 331.63776 
L 545.201633 343.24992 
L 545.721288 343.24992 
L 545.981115 339.3792 
L 546.240943 343.24992 
L 546.760598 327.76704 
L 547.020426 327.76704 
L 547.280253 331.63776 
L 547.540081 339.3792 
L 547.799908 339.3792 
L 548.059736 335.50848 
L 548.579391 335.50848 
L 548.839219 327.76704 
L 549.099046 331.63776 
L 549.358874 323.89632 
L 549.618701 320.0256 
L 550.398184 331.63776 
L 550.917839 331.63776 
L 551.177667 323.89632 
L 551.437494 327.76704 
L 551.697322 323.89632 
L 551.957149 327.76704 
L 552.216977 316.15488 
L 552.476805 323.89632 
L 552.736632 320.0256 
L 552.99646 323.89632 
L 553.256287 323.89632 
L 553.516115 320.0256 
L 554.03577 327.76704 
L 554.295598 320.0256 
L 554.815253 320.0256 
L 555.07508 312.28416 
L 555.334908 312.28416 
L 555.594735 316.15488 
L 555.854563 312.28416 
L 556.11439 320.0256 
L 556.374218 323.89632 
L 557.673356 304.54272 
L 558.193011 312.28416 
L 558.452839 304.54272 
L 558.712666 308.41344 
L 558.972494 308.41344 
L 559.232321 312.28416 
L 559.492149 312.28416 
L 559.751976 308.41344 
L 560.271632 308.41344 
L 560.531459 304.54272 
L 561.051114 312.28416 
L 561.310942 308.41344 
L 561.570769 312.28416 
L 562.61008 312.28416 
L 562.869907 304.54272 
L 563.129735 304.54272 
L 563.389562 308.41344 
L 563.64939 304.54272 
L 563.909218 308.41344 
L 564.169045 308.41344 
L 564.428873 304.54272 
L 564.6887 308.41344 
L 564.948528 308.41344 
L 565.208355 300.672 
L 565.468183 300.672 
L 565.72801 296.80128 
L 565.987838 296.80128 
L 566.247666 300.672 
L 566.507493 296.80128 
L 566.767321 300.672 
L 567.286976 292.93056 
L 567.546803 300.672 
L 567.806631 289.05984 
L 568.066459 289.05984 
L 568.845941 300.672 
L 569.105769 296.80128 
L 569.365596 304.54272 
L 570.404907 289.05984 
L 570.664734 292.93056 
L 570.924562 292.93056 
L 571.184389 300.672 
L 571.444217 296.80128 
L 571.704045 304.54272 
L 571.963872 304.54272 
L 572.483527 289.05984 
L 573.003182 281.3184 
L 573.26301 285.18912 
L 573.782665 285.18912 
L 574.042493 289.05984 
L 574.30232 289.05984 
L 574.562148 285.18912 
L 574.821975 289.05984 
L 575.081803 281.3184 
L 575.34163 281.3184 
L 575.601458 273.57696 
L 575.861286 273.57696 
L 576.121113 277.44768 
L 576.380941 277.44768 
L 576.640768 289.05984 
L 576.900596 285.18912 
L 577.160423 289.05984 
L 577.420251 285.18912 
L 577.680079 289.05984 
L 577.939906 273.57696 
L 578.199734 277.44768 
L 578.459561 269.70624 
L 578.719389 277.44768 
L 579.239044 285.18912 
L 579.498872 281.3184 
L 579.758699 289.05984 
L 580.538182 277.44768 
L 580.798009 269.70624 
L 581.057837 273.57696 
L 581.317665 273.57696 
L 581.577492 277.44768 
L 581.83732 285.18912 
L 582.356975 285.18912 
L 582.616802 277.44768 
L 583.396285 265.83552 
L 583.656113 269.70624 
L 583.91594 277.44768 
L 584.175768 269.70624 
L 584.435595 273.57696 
L 585.215078 273.57696 
L 585.994561 261.9648 
L 586.254388 261.9648 
L 586.514216 269.70624 
L 586.774043 273.57696 
L 587.033871 273.57696 
L 587.293699 269.70624 
L 587.553526 273.57696 
L 587.813354 273.57696 
L 588.073181 269.70624 
L 588.852664 269.70624 
L 589.112492 273.57696 
L 589.372319 265.83552 
L 589.632147 273.57696 
L 589.891974 273.57696 
L 590.151802 269.70624 
L 590.411629 273.57696 
L 590.671457 269.70624 
L 590.931285 261.9648 
L 591.970595 261.9648 
L 592.230422 265.83552 
L 592.750077 258.09408 
L 593.009905 258.09408 
L 593.269733 265.83552 
L 593.52956 261.9648 
L 593.789388 254.22336 
L 594.049215 250.35264 
L 594.56887 258.09408 
L 595.088526 258.09408 
L 595.348353 261.9648 
L 595.608181 254.22336 
L 595.868008 261.9648 
L 596.387663 261.9648 
L 596.647491 254.22336 
L 596.907319 258.09408 
L 597.426974 258.09408 
L 597.686801 265.83552 
L 597.946629 254.22336 
L 598.466284 261.9648 
L 598.726112 254.22336 
L 598.985939 254.22336 
L 599.245767 250.35264 
L 600.285077 250.35264 
L 600.804732 258.09408 
L 601.06456 254.22336 
L 601.324387 254.22336 
L 601.584215 246.48192 
L 601.844042 246.48192 
L 602.10387 242.6112 
L 602.363697 246.48192 
L 602.623525 246.48192 
L 602.883353 254.22336 
L 603.14318 254.22336 
L 603.403008 261.9648 
L 603.662835 254.22336 
L 604.442318 242.6112 
L 604.961973 242.6112 
L 605.481628 250.35264 
L 605.741456 250.35264 
L 606.001283 254.22336 
L 606.520939 246.48192 
L 606.780766 238.74048 
L 607.040594 238.74048 
L 607.300421 234.86976 
L 607.560249 242.6112 
L 608.859387 242.6112 
L 609.119214 246.48192 
L 609.379042 238.74048 
L 609.638869 238.74048 
L 609.898697 230.99904 
L 610.158525 238.74048 
L 610.418352 238.74048 
L 610.938007 246.48192 
L 611.197835 246.48192 
L 611.457662 250.35264 
L 611.71749 242.6112 
L 611.977317 238.74048 
L 612.237145 238.74048 
L 612.496973 234.86976 
L 613.016628 234.86976 
L 613.276455 242.6112 
L 613.79611 242.6112 
L 614.055938 246.48192 
L 614.315766 242.6112 
L 614.575593 246.48192 
L 614.835421 246.48192 
L 615.095248 254.22336 
L 615.355076 281.3184 
L 615.614903 292.93056 
L 616.134559 300.672 
L 616.654214 292.93056 
L 616.914041 281.3184 
L 617.173869 277.44768 
L 617.433696 277.44768 
L 617.953352 292.93056 
L 618.213179 292.93056 
L 618.473007 289.05984 
L 618.732834 289.05984 
L 618.992662 296.80128 
L 619.252489 285.18912 
L 619.772144 285.18912 
L 620.031972 289.05984 
L 620.2918 289.05984 
L 620.551627 285.18912 
L 620.811455 285.18912 
L 621.071282 281.3184 
L 621.33111 281.3184 
L 621.590937 273.57696 
L 621.850765 277.44768 
L 622.110593 277.44768 
L 622.630248 285.18912 
L 622.890075 285.18912 
L 623.149903 289.05984 
L 623.40973 289.05984 
L 623.669558 281.3184 
L 624.189213 281.3184 
L 624.449041 273.57696 
L 624.968696 281.3184 
L 625.228523 277.44768 
L 625.488351 281.3184 
L 625.748179 273.57696 
L 626.008006 277.44768 
L 626.267834 277.44768 
L 626.527661 273.57696 
L 626.787489 277.44768 
L 627.047316 273.57696 
L 627.307144 273.57696 
L 627.566972 277.44768 
L 627.826799 285.18912 
L 628.086627 281.3184 
L 628.606282 281.3184 
L 628.866109 277.44768 
L 629.125937 277.44768 
L 629.385764 269.70624 
L 629.645592 273.57696 
L 630.165247 273.57696 
L 630.425075 281.3184 
L 630.684902 281.3184 
L 630.94473 273.57696 
L 631.204557 273.57696 
L 631.464385 265.83552 
L 631.724213 269.70624 
L 631.98404 269.70624 
L 632.243868 265.83552 
L 632.503695 269.70624 
L 632.763523 265.83552 
L 633.02335 265.83552 
L 633.283178 277.44768 
L 633.543006 273.57696 
L 633.802833 261.9648 
L 634.062661 265.83552 
L 634.322488 258.09408 
L 635.361799 273.57696 
L 635.621626 265.83552 
L 635.881454 265.83552 
L 636.141281 269.70624 
L 636.401109 261.9648 
L 636.660936 258.09408 
L 636.920764 261.9648 
L 637.440419 261.9648 
L 637.700247 265.83552 
L 638.219902 265.83552 
L 638.479729 258.09408 
L 638.739557 258.09408 
L 638.999384 250.35264 
L 639.259212 258.09408 
L 639.51904 258.09408 
L 639.778867 261.9648 
L 640.038695 261.9648 
L 640.298522 269.70624 
L 640.55835 269.70624 
L 641.078005 261.9648 
L 641.337833 261.9648 
L 641.59766 258.09408 
L 641.857488 258.09408 
L 642.377143 250.35264 
L 642.896798 258.09408 
L 643.416453 258.09408 
L 643.676281 261.9648 
L 643.936108 254.22336 
L 644.195936 254.22336 
L 644.455763 246.48192 
L 644.715591 254.22336 
L 644.975419 254.22336 
L 645.235246 250.35264 
L 645.495074 254.22336 
L 645.754901 254.22336 
L 646.014729 258.09408 
L 646.274556 258.09408 
L 646.534384 250.35264 
L 646.794212 246.48192 
L 647.054039 246.48192 
L 647.313867 242.6112 
L 647.573694 250.35264 
L 647.833522 254.22336 
L 648.353177 254.22336 
L 648.613004 258.09408 
L 648.872832 258.09408 
L 649.13266 261.9648 
L 649.392487 250.35264 
L 649.652315 246.48192 
L 650.17197 246.48192 
L 650.431797 250.35264 
L 650.691625 242.6112 
L 650.951453 246.48192 
L 651.471108 246.48192 
L 651.730935 242.6112 
L 651.990763 246.48192 
L 652.770246 246.48192 
L 653.030073 242.6112 
L 653.289901 246.48192 
L 654.069383 246.48192 
L 654.329211 242.6112 
L 654.589039 242.6112 
L 654.848866 250.35264 
L 655.108694 242.6112 
L 655.628349 242.6112 
L 655.888176 246.48192 
L 656.148004 238.74048 
L 656.407831 242.6112 
L 656.667659 234.86976 
L 656.927487 238.74048 
L 657.187314 238.74048 
L 657.447142 246.48192 
L 658.226624 234.86976 
L 658.486452 238.74048 
L 659.265935 238.74048 
L 659.525762 230.99904 
L 659.78559 238.74048 
L 660.045417 234.86976 
L 660.565073 242.6112 
L 660.8249 238.74048 
L 661.084728 242.6112 
L 661.604383 234.86976 
L 661.86421 234.86976 
L 662.124038 238.74048 
L 662.383866 238.74048 
L 662.643693 234.86976 
L 662.903521 238.74048 
L 663.683003 238.74048 
L 663.942831 234.86976 
L 664.202659 238.74048 
L 664.462486 230.99904 
L 664.722314 234.86976 
L 664.982141 230.99904 
L 665.501796 238.74048 
L 665.761624 234.86976 
L 666.021451 238.74048 
L 666.281279 234.86976 
L 666.541107 227.12832 
L 666.800934 230.99904 
L 667.320589 230.99904 
L 667.580417 238.74048 
L 668.100072 230.99904 
L 668.3599 230.99904 
L 668.619727 238.74048 
L 669.139382 230.99904 
L 669.39921 230.99904 
L 669.659037 234.86976 
L 669.918865 234.86976 
L 670.178693 230.99904 
L 670.43852 230.99904 
L 670.698348 227.12832 
L 670.958175 227.12832 
L 671.218003 223.2576 
L 671.47783 227.12832 
L 671.737658 234.86976 
L 671.997486 230.99904 
L 672.257313 230.99904 
L 672.517141 227.12832 
L 672.776968 219.38688 
L 673.036796 219.38688 
L 673.296623 227.12832 
L 673.556451 223.2576 
L 673.816279 227.12832 
L 674.076106 227.12832 
L 674.335934 223.2576 
L 674.855589 230.99904 
L 675.115416 227.12832 
L 676.154727 227.12832 
L 676.414554 230.99904 
L 676.674382 223.2576 
L 676.934209 227.12832 
L 677.194037 223.2576 
L 677.453864 227.12832 
L 677.713692 227.12832 
L 677.97352 223.2576 
L 678.233347 223.2576 
L 678.493175 227.12832 
L 678.753002 223.2576 
L 679.01283 227.12832 
L 679.272657 223.2576 
L 679.792313 223.2576 
L 680.05214 227.12832 
L 680.571795 227.12832 
L 680.831623 223.2576 
L 681.09145 227.12832 
L 681.351278 223.2576 
L 681.611106 223.2576 
L 681.870933 227.12832 
L 682.130761 223.2576 
L 682.390588 223.2576 
L 682.650416 219.38688 
L 682.910243 219.38688 
L 683.170071 223.2576 
L 683.429899 219.38688 
L 683.689726 219.38688 
L 683.949554 215.51616 
L 684.469209 215.51616 
L 684.729036 219.38688 
L 685.248691 219.38688 
L 685.508519 215.51616 
L 685.768347 215.51616 
L 686.028174 219.38688 
L 686.288002 219.38688 
L 686.547829 223.2576 
L 686.807657 223.2576 
L 687.327312 215.51616 
L 687.58714 219.38688 
L 687.846967 219.38688 
L 688.106795 215.51616 
L 688.62645 215.51616 
L 688.886277 211.64544 
L 689.405933 219.38688 
L 689.66576 215.51616 
L 689.925588 215.51616 
L 690.185415 211.64544 
L 690.445243 211.64544 
L 690.964898 219.38688 
L 691.224726 211.64544 
L 691.484553 207.77472 
L 692.004208 215.51616 
L 692.264036 211.64544 
L 692.523863 215.51616 
L 692.783691 215.51616 
L 693.043518 211.64544 
L 693.303346 215.51616 
L 693.823001 215.51616 
L 694.082829 211.64544 
L 695.122139 211.64544 
L 695.381967 207.77472 
L 695.641794 207.77472 
L 695.901622 215.51616 
L 696.161449 215.51616 
L 696.421277 211.64544 
L 696.681104 211.64544 
L 697.20076 203.904 
L 697.460587 207.77472 
L 697.720415 200.03328 
L 697.980242 200.03328 
L 698.499897 207.77472 
L 698.759725 207.77472 
L 699.019553 215.51616 
L 699.27938 207.77472 
L 699.539208 211.64544 
L 699.799035 203.904 
L 700.31869 203.904 
L 700.578518 207.77472 
L 700.838346 203.904 
L 701.098173 211.64544 
L 701.358001 215.51616 
L 701.617828 211.64544 
L 701.877656 219.38688 
L 702.137483 207.77472 
L 702.397311 203.904 
L 702.657138 196.16256 
L 702.916966 200.03328 
L 703.436621 200.03328 
L 703.696449 207.77472 
L 703.956276 211.64544 
L 704.475931 203.904 
L 704.995587 203.904 
L 705.515242 196.16256 
L 706.034897 203.904 
L 706.294724 215.51616 
L 706.81438 207.77472 
L 707.074207 207.77472 
L 707.334035 211.64544 
L 707.593862 207.77472 
L 707.85369 200.03328 
L 708.373345 200.03328 
L 708.633173 196.16256 
L 708.893 207.77472 
L 709.152828 207.77472 
L 709.412655 211.64544 
L 710.192138 200.03328 
L 710.451966 203.904 
L 710.971621 188.42112 
L 711.231448 200.03328 
L 711.491276 200.03328 
L 712.010931 207.77472 
L 712.530586 207.77472 
L 712.790414 196.16256 
L 713.310069 188.42112 
L 713.569896 192.29184 
L 713.829724 192.29184 
L 714.089551 200.03328 
L 714.349379 203.904 
L 714.609207 200.03328 
L 714.869034 200.03328 
L 715.128862 203.904 
L 715.388689 192.29184 
L 715.908344 192.29184 
L 716.687827 203.904 
L 716.947655 211.64544 
L 717.207482 207.77472 
L 717.46731 211.64544 
L 717.727137 203.904 
L 717.986965 192.29184 
L 718.246793 192.29184 
L 718.50662 196.16256 
L 718.766448 196.16256 
L 719.286103 203.904 
L 719.54593 200.03328 
L 719.805758 207.77472 
L 721.104896 188.42112 
L 721.364723 196.16256 
L 721.884378 196.16256 
L 722.144206 200.03328 
L 722.404034 196.16256 
L 722.663861 203.904 
L 722.923689 196.16256 
L 723.183516 196.16256 
L 723.443344 188.42112 
L 723.703171 188.42112 
L 723.962999 184.5504 
L 724.222827 192.29184 
L 724.482654 188.42112 
L 724.742482 200.03328 
L 725.002309 200.03328 
L 725.262137 196.16256 
L 725.521964 188.42112 
L 725.781792 192.29184 
L 726.04162 188.42112 
L 726.301447 200.03328 
L 726.561275 192.29184 
L 726.821102 192.29184 
L 727.08093 200.03328 
L 727.340757 196.16256 
L 727.600585 200.03328 
L 728.380068 188.42112 
L 728.899723 188.42112 
L 729.15955 200.03328 
L 729.679206 200.03328 
L 729.939033 207.77472 
L 730.198861 196.16256 
L 730.458688 192.29184 
L 730.978343 192.29184 
L 731.238171 188.42112 
L 731.757826 196.16256 
L 732.017654 196.16256 
L 732.277481 200.03328 
L 732.537309 200.03328 
L 732.797136 192.29184 
L 733.056964 196.16256 
L 733.316791 188.42112 
L 733.576619 184.5504 
L 733.836447 188.42112 
L 734.356102 188.42112 
L 734.615929 200.03328 
L 734.875757 200.03328 
L 735.135584 192.29184 
L 735.395412 188.42112 
L 735.65524 188.42112 
L 735.915067 184.5504 
L 736.174895 188.42112 
L 736.434722 184.5504 
L 736.69455 184.5504 
L 736.954377 188.42112 
L 737.214205 188.42112 
L 737.474033 192.29184 
L 738.253515 192.29184 
L 738.513343 184.5504 
L 738.77317 180.67968 
L 739.292825 188.42112 
L 739.812481 188.42112 
L 740.332136 196.16256 
L 740.591963 188.42112 
L 740.851791 188.42112 
L 741.111618 180.67968 
L 741.631274 180.67968 
L 741.891101 188.42112 
L 742.150929 188.42112 
L 742.670584 196.16256 
L 742.930411 192.29184 
L 743.190239 196.16256 
L 743.709894 180.67968 
L 743.969722 180.67968 
L 744.489377 188.42112 
L 744.749204 196.16256 
L 745.528687 196.16256 
L 745.788515 188.42112 
L 746.048342 184.5504 
L 746.30817 184.5504 
L 746.567997 180.67968 
L 746.827825 180.67968 
L 747.087653 184.5504 
L 747.34748 192.29184 
L 747.607308 196.16256 
L 747.867135 192.29184 
L 748.126963 196.16256 
L 748.38679 196.16256 
L 748.646618 188.42112 
L 748.906445 188.42112 
L 749.166273 176.80896 
L 749.426101 180.67968 
L 749.685928 180.67968 
L 749.945756 184.5504 
L 750.205583 192.29184 
L 750.985066 192.29184 
L 751.244894 184.5504 
L 751.504721 180.67968 
L 752.544031 180.67968 
L 752.803859 188.42112 
L 753.063687 188.42112 
L 753.323514 192.29184 
L 753.583342 192.29184 
L 753.843169 188.42112 
L 754.102997 180.67968 
L 754.362824 176.80896 
L 754.622652 180.67968 
L 754.88248 180.67968 
L 755.661962 192.29184 
L 755.92179 188.42112 
L 756.181617 188.42112 
L 756.441445 184.5504 
L 756.701273 176.80896 
L 756.9611 176.80896 
L 757.220928 180.67968 
L 757.480755 176.80896 
L 757.740583 184.5504 
L 758.00041 180.67968 
L 758.260238 188.42112 
L 758.520065 184.5504 
L 758.779893 188.42112 
L 759.559376 176.80896 
L 760.079031 176.80896 
L 760.338858 180.67968 
L 760.598686 188.42112 
L 761.378169 188.42112 
L 761.637996 184.5504 
L 762.157651 184.5504 
L 762.417479 172.93824 
L 762.937134 172.93824 
L 763.196962 180.67968 
L 763.976444 192.29184 
L 764.236272 180.67968 
L 764.4961 180.67968 
L 764.755927 176.80896 
L 765.015755 176.80896 
L 765.275582 172.93824 
L 765.53541 172.93824 
L 765.795237 180.67968 
L 766.055065 180.67968 
L 766.314893 184.5504 
L 766.57472 184.5504 
L 766.834548 180.67968 
L 767.094375 180.67968 
L 767.354203 172.93824 
L 767.61403 172.93824 
L 767.873858 169.06752 
L 768.133685 176.80896 
L 768.393513 180.67968 
L 768.653341 180.67968 
L 769.172996 188.42112 
L 769.432823 180.67968 
L 769.952478 180.67968 
L 770.212306 176.80896 
L 770.472134 180.67968 
L 770.731961 180.67968 
L 770.991789 172.93824 
L 771.251616 176.80896 
L 771.511444 184.5504 
L 771.771271 180.67968 
L 772.031099 180.67968 
L 772.290927 172.93824 
L 772.550754 169.06752 
L 772.810582 172.93824 
L 773.070409 172.93824 
L 773.330237 176.80896 
L 773.590064 176.80896 
L 773.849892 172.93824 
L 774.369547 180.67968 
L 774.629375 180.67968 
L 774.889202 176.80896 
L 775.14903 176.80896 
L 775.408857 172.93824 
L 775.928512 172.93824 
L 776.18834 176.80896 
L 776.448168 184.5504 
L 776.707995 180.67968 
L 776.967823 180.67968 
L 777.487478 172.93824 
L 778.007133 172.93824 
L 778.526788 180.67968 
L 778.786616 172.93824 
L 779.046443 184.5504 
L 779.306271 184.5504 
L 779.825926 176.80896 
L 780.085754 169.06752 
L 780.345581 172.93824 
L 780.605409 169.06752 
L 780.865236 169.06752 
L 781.644719 180.67968 
L 781.904547 176.80896 
L 782.164374 176.80896 
L 782.424202 172.93824 
L 782.684029 165.1968 
L 782.943857 172.93824 
L 783.203684 169.06752 
L 783.72334 169.06752 
L 783.983167 176.80896 
L 784.242995 172.93824 
L 784.502822 180.67968 
L 785.022477 172.93824 
L 785.282305 172.93824 
L 785.542132 169.06752 
L 785.80196 169.06752 
L 786.581443 180.67968 
L 786.84127 176.80896 
L 787.101098 180.67968 
L 787.620753 180.67968 
L 787.880581 184.5504 
L 788.140408 172.93824 
L 788.400236 172.93824 
L 788.660063 169.06752 
L 788.919891 176.80896 
L 789.439546 176.80896 
L 789.699374 180.67968 
L 790.219029 172.93824 
L 790.478856 176.80896 
L 790.998511 169.06752 
L 791.258339 172.93824 
L 791.518167 169.06752 
L 791.777994 169.06752 
L 792.037822 172.93824 
L 792.297649 172.93824 
L 792.557477 176.80896 
L 792.817304 176.80896 
L 793.077132 169.06752 
L 793.33696 172.93824 
L 793.596787 169.06752 
L 793.856615 172.93824 
L 794.116442 172.93824 
L 794.37627 169.06752 
L 794.636097 172.93824 
L 794.895925 172.93824 
L 795.155752 176.80896 
L 795.41558 172.93824 
L 795.675408 172.93824 
L 795.935235 169.06752 
L 796.195063 176.80896 
L 796.714718 169.06752 
L 796.974545 169.06752 
L 796.974545 169.06752 
" clip-path="url(#p715cd69580)" style="fill: none; stroke: #1f77b4; stroke-width: 1.5; stroke-linecap: square"/>
    <defs>
     <path id="m08e14b0a26" d="M 0 1.5 
C 0.397805 1.5 0.77937 1.341951 1.06066 1.06066 
C 1.341951 0.77937 1.5 0.397805 1.5 0 
C 1.5 -0.397805 1.341951 -0.77937 1.06066 -1.06066 
C 0.77937 -1.341951 0.397805 -1.5 0 -1.5 
C -0.397805 -1.5 -0.77937 -1.341951 -1.06066 -1.06066 
C -1.341951 -0.77937 -1.5 -0.397805 -1.5 0 
C -1.5 0.397805 -1.341951 0.77937 -1.06066 1.06066 
C -0.77937 1.341951 -0.397805 1.5 0 1.5 
z
" style="stroke: #1f77b4"/>
    </defs>
    <g clip-path="url(#p715cd69580)">
     <use xlink:href="#m08e14b0a26" x="147.665455" y="130.36032" style="fill: #1f77b4; stroke: #1f77b4"/>
     <use xlink:href="#m08e14b0a26" x="150.26373" y="130.36032" style="fill: #1f77b4; stroke: #1f77b4"/>
     <use xlink:href="#m08e14b0a26" x="152.862006" y="130.36032" style="fill: #1f77b4; stroke: #1f77b4"/>
     <use xlink:href="#m08e14b0a26" x="155.460282" y="134.23104" style="fill: #1f77b4; stroke: #1f77b4"/>
     <use xlink:href="#m08e14b0a26" x="158.058557" y="130.36032" style="fill: #1f77b4; stroke: #1f77b4"/>
     <use xlink:href="#m08e14b0a26" x="160.656833" y="126.4896" style="fill: #1f77b4; stroke: #1f77b4"/>
     <use xlink:href="#m08e14b0a26" x="163.255109" y="122.61888" style="fill: #1f77b4; stroke: #1f77b4"/>
     <use xlink:href="#m08e14b0a26" x="165.853384" y="126.4896" style="fill: #1f77b4; stroke: #1f77b4"/>
     <use xlink:href="#m08e14b0a26" x="168.45166" y="118.74816" style="fill: #1f77b4; stroke: #1f77b4"/>
     <use xlink:href="#m08e14b0a26" x="171.049936" y="118.74816" style="fill: #1f77b4; stroke: #1f77b4"/>
     <use xlink:href="#m08e14b0a26" x="173.648211" y="114.87744" style="fill: #1f77b4; stroke: #1f77b4"/>
     <use xlink:href="#m08e14b0a26" x="176.246487" y="122.61888" style="fill: #1f77b4; stroke: #1f77b4"/>
     <use xlink:href="#m08e14b0a26" x="178.844763" y="122.61888" style="fill: #1f77b4; stroke: #1f77b4"/>
     <use xlink:href="#m08e14b0a26" x="181.443038" y="122.61888" style="fill: #1f77b4; stroke: #1f77b4"/>
     <use xlink:href="#m08e14b0a26" x="184.041314" y="118.74816" style="fill: #1f77b4; stroke: #1f77b4"/>
     <use xlink:href="#m08e14b0a26" x="186.63959" y="122.61888" style="fill: #1f77b4; stroke: #1f77b4"/>
     <use xlink:href="#m08e14b0a26" x="189.237865" y="126.4896" style="fill: #1f77b4; stroke: #1f77b4"/>
     <use xlink:href="#m08e14b0a26" x="191.836141" y="130.36032" style="fill: #1f77b4; stroke: #1f77b4"/>
     <use xlink:href="#m08e14b0a26" x="194.434417" y="126.4896" style="fill: #1f77b4; stroke: #1f77b4"/>
     <use xlink:href="#m08e14b0a26" x="197.032692" y="126.4896" style="fill: #1f77b4; stroke: #1f77b4"/>
     <use xlink:href="#m08e14b0a26" x="199.630968" y="126.4896" style="fill: #1f77b4; stroke: #1f77b4"/>
     <use xlink:href="#m08e14b0a26" x="202.229244" y="130.36032" style="fill: #1f77b4; stroke: #1f77b4"/>
     <use xlink:href="#m08e14b0a26" x="204.827519" y="126.4896" style="fill: #1f77b4; stroke: #1f77b4"/>
     <use xlink:href="#m08e14b0a26" x="207.425795" y="126.4896" style="fill: #1f77b4; stroke: #1f77b4"/>
     <use xlink:href="#m08e14b0a26" x="210.024071" y="118.74816" style="fill: #1f77b4; stroke: #1f77b4"/>
     <use xlink:href="#m08e14b0a26" x="212.622346" y="126.4896" style="fill: #1f77b4; stroke: #1f77b4"/>
     <use xlink:href="#m08e14b0a26" x="215.220622" y="126.4896" style="fill: #1f77b4; stroke: #1f77b4"/>
     <use xlink:href="#m08e14b0a26" x="217.818898" y="122.61888" style="fill: #1f77b4; stroke: #1f77b4"/>
     <use xlink:href="#m08e14b0a26" x="220.417173" y="126.4896" style="fill: #1f77b4; stroke: #1f77b4"/>
     <use xlink:href="#m08e14b0a26" x="223.015449" y="126.4896" style="fill: #1f77b4; stroke: #1f77b4"/>
     <use xlink:href="#m08e14b0a26" x="225.613725" y="122.61888" style="fill: #1f77b4; stroke: #1f77b4"/>
     <use xlink:href="#m08e14b0a26" x="228.212" y="126.4896" style="fill: #1f77b4; stroke: #1f77b4"/>
     <use xlink:href="#m08e14b0a26" x="230.810276" y="122.61888" style="fill: #1f77b4; stroke: #1f77b4"/>
     <use xlink:href="#m08e14b0a26" x="233.408552" y="122.61888" style="fill: #1f77b4; stroke: #1f77b4"/>
     <use xlink:href="#m08e14b0a26" x="236.006827" y="122.61888" style="fill: #1f77b4; stroke: #1f77b4"/>
     <use xlink:href="#m08e14b0a26" x="238.605103" y="122.61888" style="fill: #1f77b4; stroke: #1f77b4"/>
     <use xlink:href="#m08e14b0a26" x="241.203379" y="161.32608" style="fill: #1f77b4; stroke: #1f77b4"/>
     <use xlink:href="#m08e14b0a26" x="243.801654" y="161.32608" style="fill: #1f77b4; stroke: #1f77b4"/>
     <use xlink:href="#m08e14b0a26" x="246.39993" y="161.32608" style="fill: #1f77b4; stroke: #1f77b4"/>
     <use xlink:href="#m08e14b0a26" x="248.998206" y="165.1968" style="fill: #1f77b4; stroke: #1f77b4"/>
     <use xlink:href="#m08e14b0a26" x="251.596482" y="157.45536" style="fill: #1f77b4; stroke: #1f77b4"/>
     <use xlink:href="#m08e14b0a26" x="254.194757" y="157.45536" style="fill: #1f77b4; stroke: #1f77b4"/>
     <use xlink:href="#m08e14b0a26" x="256.793033" y="157.45536" style="fill: #1f77b4; stroke: #1f77b4"/>
     <use xlink:href="#m08e14b0a26" x="259.391309" y="149.71392" style="fill: #1f77b4; stroke: #1f77b4"/>
     <use xlink:href="#m08e14b0a26" x="261.989584" y="157.45536" style="fill: #1f77b4; stroke: #1f77b4"/>
     <use xlink:href="#m08e14b0a26" x="264.58786" y="157.45536" style="fill: #1f77b4; stroke: #1f77b4"/>
     <use xlink:href="#m08e14b0a26" x="267.186136" y="157.45536" style="fill: #1f77b4; stroke: #1f77b4"/>
     <use xlink:href="#m08e14b0a26" x="269.784411" y="165.1968" style="fill: #1f77b4; stroke: #1f77b4"/>
     <use xlink:href="#m08e14b0a26" x="272.382687" y="161.32608" style="fill: #1f77b4; stroke: #1f77b4"/>
     <use xlink:href="#m08e14b0a26" x="274.980963" y="161.32608" style="fill: #1f77b4; stroke: #1f77b4"/>
     <use xlink:href="#m08e14b0a26" x="277.579238" y="161.32608" style="fill: #1f77b4; stroke: #1f77b4"/>
     <use xlink:href="#m08e14b0a26" x="280.177514" y="161.32608" style="fill: #1f77b4; stroke: #1f77b4"/>
     <use xlink:href="#m08e14b0a26" x="282.77579" y="149.71392" style="fill: #1f77b4; stroke: #1f77b4"/>
     <use xlink:href="#m08e14b0a26" x="285.374065" y="153.58464" style="fill: #1f77b4; stroke: #1f77b4"/>
     <use xlink:href="#m08e14b0a26" x="287.972341" y="192.29184" style="fill: #1f77b4; stroke: #1f77b4"/>
     <use xlink:href="#m08e14b0a26" x="290.570617" y="200.03328" style="fill: #1f77b4; stroke: #1f77b4"/>
     <use xlink:href="#m08e14b0a26" x="293.168892" y="192.29184" style="fill: #1f77b4; stroke: #1f77b4"/>
     <use xlink:href="#m08e14b0a26" x="295.767168" y="196.16256" style="fill: #1f77b4; stroke: #1f77b4"/>
     <use xlink:href="#m08e14b0a26" x="298.365444" y="188.42112" style="fill: #1f77b4; stroke: #1f77b4"/>
     <use xlink:href="#m08e14b0a26" x="300.963719" y="192.29184" style="fill: #1f77b4; stroke: #1f77b4"/>
     <use xlink:href="#m08e14b0a26" x="303.561995" y="242.6112" style="fill: #1f77b4; stroke: #1f77b4"/>
     <use xlink:href="#m08e14b0a26" x="306.160271" y="246.48192" style="fill: #1f77b4; stroke: #1f77b4"/>
     <use xlink:href="#m08e14b0a26" x="308.758546" y="238.74048" style="fill: #1f77b4; stroke: #1f77b4"/>
     <use xlink:href="#m08e14b0a26" x="311.356822" y="234.86976" style="fill: #1f77b4; stroke: #1f77b4"/>
     <use xlink:href="#m08e14b0a26" x="313.955098" y="234.86976" style="fill: #1f77b4; stroke: #1f77b4"/>
     <use xlink:href="#m08e14b0a26" x="316.553373" y="230.99904" style="fill: #1f77b4; stroke: #1f77b4"/>
     <use xlink:href="#m08e14b0a26" x="319.151649" y="227.12832" style="fill: #1f77b4; stroke: #1f77b4"/>
     <use xlink:href="#m08e14b0a26" x="321.749925" y="227.12832" style="fill: #1f77b4; stroke: #1f77b4"/>
     <use xlink:href="#m08e14b0a26" x="324.3482" y="219.38688" style="fill: #1f77b4; stroke: #1f77b4"/>
     <use xlink:href="#m08e14b0a26" x="326.946476" y="219.38688" style="fill: #1f77b4; stroke: #1f77b4"/>
     <use xlink:href="#m08e14b0a26" x="329.544752" y="215.51616" style="fill: #1f77b4; stroke: #1f77b4"/>
     <use xlink:href="#m08e14b0a26" x="332.143027" y="215.51616" style="fill: #1f77b4; stroke: #1f77b4"/>
     <use xlink:href="#m08e14b0a26" x="334.741303" y="215.51616" style="fill: #1f77b4; stroke: #1f77b4"/>
     <use xlink:href="#m08e14b0a26" x="337.339579" y="211.64544" style="fill: #1f77b4; stroke: #1f77b4"/>
     <use xlink:href="#m08e14b0a26" x="339.937854" y="215.51616" style="fill: #1f77b4; stroke: #1f77b4"/>
     <use xlink:href="#m08e14b0a26" x="342.53613" y="207.77472" style="fill: #1f77b4; stroke: #1f77b4"/>
     <use xlink:href="#m08e14b0a26" x="345.134406" y="211.64544" style="fill: #1f77b4; stroke: #1f77b4"/>
     <use xlink:href="#m08e14b0a26" x="347.732681" y="207.77472" style="fill: #1f77b4; stroke: #1f77b4"/>
     <use xlink:href="#m08e14b0a26" x="350.330957" y="211.64544" style="fill: #1f77b4; stroke: #1f77b4"/>
     <use xlink:href="#m08e14b0a26" x="352.929233" y="200.03328" style="fill: #1f77b4; stroke: #1f77b4"/>
     <use xlink:href="#m08e14b0a26" x="355.527508" y="196.16256" style="fill: #1f77b4; stroke: #1f77b4"/>
     <use xlink:href="#m08e14b0a26" x="358.125784" y="200.03328" style="fill: #1f77b4; stroke: #1f77b4"/>
     <use xlink:href="#m08e14b0a26" x="360.72406" y="192.29184" style="fill: #1f77b4; stroke: #1f77b4"/>
     <use xlink:href="#m08e14b0a26" x="363.322335" y="188.42112" style="fill: #1f77b4; stroke: #1f77b4"/>
     <use xlink:href="#m08e14b0a26" x="365.920611" y="196.16256" style="fill: #1f77b4; stroke: #1f77b4"/>
     <use xlink:href="#m08e14b0a26" x="368.518887" y="184.5504" style="fill: #1f77b4; stroke: #1f77b4"/>
     <use xlink:href="#m08e14b0a26" x="371.117163" y="188.42112" style="fill: #1f77b4; stroke: #1f77b4"/>
     <use xlink:href="#m08e14b0a26" x="373.715438" y="188.42112" style="fill: #1f77b4; stroke: #1f77b4"/>
     <use xlink:href="#m08e14b0a26" x="376.313714" y="192.29184" style="fill: #1f77b4; stroke: #1f77b4"/>
     <use xlink:href="#m08e14b0a26" x="378.91199" y="188.42112" style="fill: #1f77b4; stroke: #1f77b4"/>
     <use xlink:href="#m08e14b0a26" x="381.510265" y="188.42112" style="fill: #1f77b4; stroke: #1f77b4"/>
     <use xlink:href="#m08e14b0a26" x="384.108541" y="192.29184" style="fill: #1f77b4; stroke: #1f77b4"/>
     <use xlink:href="#m08e14b0a26" x="386.706817" y="188.42112" style="fill: #1f77b4; stroke: #1f77b4"/>
     <use xlink:href="#m08e14b0a26" x="389.305092" y="180.67968" style="fill: #1f77b4; stroke: #1f77b4"/>
     <use xlink:href="#m08e14b0a26" x="391.903368" y="180.67968" style="fill: #1f77b4; stroke: #1f77b4"/>
     <use xlink:href="#m08e14b0a26" x="394.501644" y="176.80896" style="fill: #1f77b4; stroke: #1f77b4"/>
     <use xlink:href="#m08e14b0a26" x="397.099919" y="176.80896" style="fill: #1f77b4; stroke: #1f77b4"/>
     <use xlink:href="#m08e14b0a26" x="399.698195" y="176.80896" style="fill: #1f77b4; stroke: #1f77b4"/>
     <use xlink:href="#m08e14b0a26" x="402.296471" y="172.93824" style="fill: #1f77b4; stroke: #1f77b4"/>
     <use xlink:href="#m08e14b0a26" x="404.894746" y="172.93824" style="fill: #1f77b4; stroke: #1f77b4"/>
     <use xlink:href="#m08e14b0a26" x="407.493022" y="172.93824" style="fill: #1f77b4; stroke: #1f77b4"/>
     <use xlink:href="#m08e14b0a26" x="410.091298" y="169.06752" style="fill: #1f77b4; stroke: #1f77b4"/>
     <use xlink:href="#m08e14b0a26" x="412.689573" y="172.93824" style="fill: #1f77b4; stroke: #1f77b4"/>
     <use xlink:href="#m08e14b0a26" x="415.287849" y="165.1968" style="fill: #1f77b4; stroke: #1f77b4"/>
     <use xlink:href="#m08e14b0a26" x="417.886125" y="165.1968" style="fill: #1f77b4; stroke: #1f77b4"/>
     <use xlink:href="#m08e14b0a26" x="420.4844" y="169.06752" style="fill: #1f77b4; stroke: #1f77b4"/>
     <use xlink:href="#m08e14b0a26" x="423.082676" y="172.93824" style="fill: #1f77b4; stroke: #1f77b4"/>
     <use xlink:href="#m08e14b0a26" x="425.680952" y="169.06752" style="fill: #1f77b4; stroke: #1f77b4"/>
     <use xlink:href="#m08e14b0a26" x="428.279227" y="165.1968" style="fill: #1f77b4; stroke: #1f77b4"/>
     <use xlink:href="#m08e14b0a26" x="430.877503" y="169.06752" style="fill: #1f77b4; stroke: #1f77b4"/>
     <use xlink:href="#m08e14b0a26" x="433.475779" y="172.93824" style="fill: #1f77b4; stroke: #1f77b4"/>
     <use xlink:href="#m08e14b0a26" x="436.074054" y="172.93824" style="fill: #1f77b4; stroke: #1f77b4"/>
     <use xlink:href="#m08e14b0a26" x="438.67233" y="165.1968" style="fill: #1f77b4; stroke: #1f77b4"/>
     <use xlink:href="#m08e14b0a26" x="441.270606" y="165.1968" style="fill: #1f77b4; stroke: #1f77b4"/>
     <use xlink:href="#m08e14b0a26" x="443.868881" y="157.45536" style="fill: #1f77b4; stroke: #1f77b4"/>
     <use xlink:href="#m08e14b0a26" x="446.467157" y="165.1968" style="fill: #1f77b4; stroke: #1f77b4"/>
     <use xlink:href="#m08e14b0a26" x="449.065433" y="532.9152" style="fill: #1f77b4; stroke: #1f77b4"/>
     <use xlink:href="#m08e14b0a26" x="451.663708" y="540.65664" style="fill: #1f77b4; stroke: #1f77b4"/>
     <use xlink:href="#m08e14b0a26" x="454.261984" y="560.01024" style="fill: #1f77b4; stroke: #1f77b4"/>
     <use xlink:href="#m08e14b0a26" x="456.86026" y="563.88096" style="fill: #1f77b4; stroke: #1f77b4"/>
     <use xlink:href="#m08e14b0a26" x="459.458535" y="567.75168" style="fill: #1f77b4; stroke: #1f77b4"/>
     <use xlink:href="#m08e14b0a26" x="462.056811" y="556.13952" style="fill: #1f77b4; stroke: #1f77b4"/>
     <use xlink:href="#m08e14b0a26" x="464.655087" y="529.04448" style="fill: #1f77b4; stroke: #1f77b4"/>
     <use xlink:href="#m08e14b0a26" x="467.253362" y="532.9152" style="fill: #1f77b4; stroke: #1f77b4"/>
     <use xlink:href="#m08e14b0a26" x="469.851638" y="525.17376" style="fill: #1f77b4; stroke: #1f77b4"/>
     <use xlink:href="#m08e14b0a26" x="472.449914" y="505.82016" style="fill: #1f77b4; stroke: #1f77b4"/>
     <use xlink:href="#m08e14b0a26" x="475.048189" y="505.82016" style="fill: #1f77b4; stroke: #1f77b4"/>
     <use xlink:href="#m08e14b0a26" x="477.646465" y="501.94944" style="fill: #1f77b4; stroke: #1f77b4"/>
     <use xlink:href="#m08e14b0a26" x="480.244741" y="482.59584" style="fill: #1f77b4; stroke: #1f77b4"/>
     <use xlink:href="#m08e14b0a26" x="482.843016" y="478.72512" style="fill: #1f77b4; stroke: #1f77b4"/>
     <use xlink:href="#m08e14b0a26" x="485.441292" y="490.33728" style="fill: #1f77b4; stroke: #1f77b4"/>
     <use xlink:href="#m08e14b0a26" x="488.039568" y="470.98368" style="fill: #1f77b4; stroke: #1f77b4"/>
     <use xlink:href="#m08e14b0a26" x="490.637844" y="455.5008" style="fill: #1f77b4; stroke: #1f77b4"/>
     <use xlink:href="#m08e14b0a26" x="493.236119" y="455.5008" style="fill: #1f77b4; stroke: #1f77b4"/>
     <use xlink:href="#m08e14b0a26" x="495.834395" y="443.88864" style="fill: #1f77b4; stroke: #1f77b4"/>
     <use xlink:href="#m08e14b0a26" x="498.432671" y="428.40576" style="fill: #1f77b4; stroke: #1f77b4"/>
     <use xlink:href="#m08e14b0a26" x="501.030946" y="428.40576" style="fill: #1f77b4; stroke: #1f77b4"/>
     <use xlink:href="#m08e14b0a26" x="503.629222" y="424.53504" style="fill: #1f77b4; stroke: #1f77b4"/>
     <use xlink:href="#m08e14b0a26" x="506.227498" y="405.18144" style="fill: #1f77b4; stroke: #1f77b4"/>
     <use xlink:href="#m08e14b0a26" x="508.825773" y="405.18144" style="fill: #1f77b4; stroke: #1f77b4"/>
     <use xlink:href="#m08e14b0a26" x="511.424049" y="393.56928" style="fill: #1f77b4; stroke: #1f77b4"/>
     <use xlink:href="#m08e14b0a26" x="514.022325" y="389.69856" style="fill: #1f77b4; stroke: #1f77b4"/>
     <use xlink:href="#m08e14b0a26" x="516.6206" y="378.0864" style="fill: #1f77b4; stroke: #1f77b4"/>
     <use xlink:href="#m08e14b0a26" x="519.218876" y="381.95712" style="fill: #1f77b4; stroke: #1f77b4"/>
     <use xlink:href="#m08e14b0a26" x="521.817152" y="378.0864" style="fill: #1f77b4; stroke: #1f77b4"/>
     <use xlink:href="#m08e14b0a26" x="524.415427" y="366.47424" style="fill: #1f77b4; stroke: #1f77b4"/>
     <use xlink:href="#m08e14b0a26" x="527.013703" y="362.60352" style="fill: #1f77b4; stroke: #1f77b4"/>
     <use xlink:href="#m08e14b0a26" x="529.611979" y="358.7328" style="fill: #1f77b4; stroke: #1f77b4"/>
     <use xlink:href="#m08e14b0a26" x="532.210254" y="350.99136" style="fill: #1f77b4; stroke: #1f77b4"/>
     <use xlink:href="#m08e14b0a26" x="534.80853" y="358.7328" style="fill: #1f77b4; stroke: #1f77b4"/>
     <use xlink:href="#m08e14b0a26" x="537.406806" y="362.60352" style="fill: #1f77b4; stroke: #1f77b4"/>
     <use xlink:href="#m08e14b0a26" x="540.005081" y="347.12064" style="fill: #1f77b4; stroke: #1f77b4"/>
     <use xlink:href="#m08e14b0a26" x="542.603357" y="339.3792" style="fill: #1f77b4; stroke: #1f77b4"/>
     <use xlink:href="#m08e14b0a26" x="545.201633" y="343.24992" style="fill: #1f77b4; stroke: #1f77b4"/>
     <use xlink:href="#m08e14b0a26" x="547.799908" y="339.3792" style="fill: #1f77b4; stroke: #1f77b4"/>
     <use xlink:href="#m08e14b0a26" x="550.398184" y="331.63776" style="fill: #1f77b4; stroke: #1f77b4"/>
     <use xlink:href="#m08e14b0a26" x="552.99646" y="323.89632" style="fill: #1f77b4; stroke: #1f77b4"/>
     <use xlink:href="#m08e14b0a26" x="555.594735" y="316.15488" style="fill: #1f77b4; stroke: #1f77b4"/>
     <use xlink:href="#m08e14b0a26" x="558.193011" y="312.28416" style="fill: #1f77b4; stroke: #1f77b4"/>
     <use xlink:href="#m08e14b0a26" x="560.791287" y="308.41344" style="fill: #1f77b4; stroke: #1f77b4"/>
     <use xlink:href="#m08e14b0a26" x="563.389562" y="308.41344" style="fill: #1f77b4; stroke: #1f77b4"/>
     <use xlink:href="#m08e14b0a26" x="565.987838" y="296.80128" style="fill: #1f77b4; stroke: #1f77b4"/>
     <use xlink:href="#m08e14b0a26" x="568.586114" y="296.80128" style="fill: #1f77b4; stroke: #1f77b4"/>
     <use xlink:href="#m08e14b0a26" x="571.184389" y="300.672" style="fill: #1f77b4; stroke: #1f77b4"/>
     <use xlink:href="#m08e14b0a26" x="573.782665" y="285.18912" style="fill: #1f77b4; stroke: #1f77b4"/>
     <use xlink:href="#m08e14b0a26" x="576.380941" y="277.44768" style="fill: #1f77b4; stroke: #1f77b4"/>
     <use xlink:href="#m08e14b0a26" x="578.979216" y="281.3184" style="fill: #1f77b4; stroke: #1f77b4"/>
     <use xlink:href="#m08e14b0a26" x="581.577492" y="277.44768" style="fill: #1f77b4; stroke: #1f77b4"/>
     <use xlink:href="#m08e14b0a26" x="584.175768" y="269.70624" style="fill: #1f77b4; stroke: #1f77b4"/>
     <use xlink:href="#m08e14b0a26" x="586.774043" y="273.57696" style="fill: #1f77b4; stroke: #1f77b4"/>
     <use xlink:href="#m08e14b0a26" x="589.372319" y="265.83552" style="fill: #1f77b4; stroke: #1f77b4"/>
     <use xlink:href="#m08e14b0a26" x="591.970595" y="261.9648" style="fill: #1f77b4; stroke: #1f77b4"/>
     <use xlink:href="#m08e14b0a26" x="594.56887" y="258.09408" style="fill: #1f77b4; stroke: #1f77b4"/>
     <use xlink:href="#m08e14b0a26" x="597.167146" y="258.09408" style="fill: #1f77b4; stroke: #1f77b4"/>
     <use xlink:href="#m08e14b0a26" x="599.765422" y="250.35264" style="fill: #1f77b4; stroke: #1f77b4"/>
     <use xlink:href="#m08e14b0a26" x="602.363697" y="246.48192" style="fill: #1f77b4; stroke: #1f77b4"/>
     <use xlink:href="#m08e14b0a26" x="604.961973" y="242.6112" style="fill: #1f77b4; stroke: #1f77b4"/>
     <use xlink:href="#m08e14b0a26" x="607.560249" y="242.6112" style="fill: #1f77b4; stroke: #1f77b4"/>
     <use xlink:href="#m08e14b0a26" x="610.158525" y="238.74048" style="fill: #1f77b4; stroke: #1f77b4"/>
     <use xlink:href="#m08e14b0a26" x="612.7568" y="234.86976" style="fill: #1f77b4; stroke: #1f77b4"/>
     <use xlink:href="#m08e14b0a26" x="615.355076" y="281.3184" style="fill: #1f77b4; stroke: #1f77b4"/>
     <use xlink:href="#m08e14b0a26" x="617.953352" y="292.93056" style="fill: #1f77b4; stroke: #1f77b4"/>
     <use xlink:href="#m08e14b0a26" x="620.551627" y="285.18912" style="fill: #1f77b4; stroke: #1f77b4"/>
     <use xlink:href="#m08e14b0a26" x="623.149903" y="289.05984" style="fill: #1f77b4; stroke: #1f77b4"/>
     <use xlink:href="#m08e14b0a26" x="625.748179" y="273.57696" style="fill: #1f77b4; stroke: #1f77b4"/>
     <use xlink:href="#m08e14b0a26" x="628.346454" y="281.3184" style="fill: #1f77b4; stroke: #1f77b4"/>
     <use xlink:href="#m08e14b0a26" x="630.94473" y="273.57696" style="fill: #1f77b4; stroke: #1f77b4"/>
     <use xlink:href="#m08e14b0a26" x="633.543006" y="273.57696" style="fill: #1f77b4; stroke: #1f77b4"/>
     <use xlink:href="#m08e14b0a26" x="636.141281" y="269.70624" style="fill: #1f77b4; stroke: #1f77b4"/>
     <use xlink:href="#m08e14b0a26" x="638.739557" y="258.09408" style="fill: #1f77b4; stroke: #1f77b4"/>
     <use xlink:href="#m08e14b0a26" x="641.337833" y="261.9648" style="fill: #1f77b4; stroke: #1f77b4"/>
     <use xlink:href="#m08e14b0a26" x="643.936108" y="254.22336" style="fill: #1f77b4; stroke: #1f77b4"/>
     <use xlink:href="#m08e14b0a26" x="646.534384" y="250.35264" style="fill: #1f77b4; stroke: #1f77b4"/>
     <use xlink:href="#m08e14b0a26" x="649.13266" y="261.9648" style="fill: #1f77b4; stroke: #1f77b4"/>
     <use xlink:href="#m08e14b0a26" x="651.730935" y="242.6112" style="fill: #1f77b4; stroke: #1f77b4"/>
     <use xlink:href="#m08e14b0a26" x="654.329211" y="242.6112" style="fill: #1f77b4; stroke: #1f77b4"/>
     <use xlink:href="#m08e14b0a26" x="656.927487" y="238.74048" style="fill: #1f77b4; stroke: #1f77b4"/>
     <use xlink:href="#m08e14b0a26" x="659.525762" y="230.99904" style="fill: #1f77b4; stroke: #1f77b4"/>
     <use xlink:href="#m08e14b0a26" x="662.124038" y="238.74048" style="fill: #1f77b4; stroke: #1f77b4"/>
     <use xlink:href="#m08e14b0a26" x="664.722314" y="234.86976" style="fill: #1f77b4; stroke: #1f77b4"/>
     <use xlink:href="#m08e14b0a26" x="667.320589" y="230.99904" style="fill: #1f77b4; stroke: #1f77b4"/>
     <use xlink:href="#m08e14b0a26" x="669.918865" y="234.86976" style="fill: #1f77b4; stroke: #1f77b4"/>
     <use xlink:href="#m08e14b0a26" x="672.517141" y="227.12832" style="fill: #1f77b4; stroke: #1f77b4"/>
     <use xlink:href="#m08e14b0a26" x="675.115416" y="227.12832" style="fill: #1f77b4; stroke: #1f77b4"/>
     <use xlink:href="#m08e14b0a26" x="677.713692" y="227.12832" style="fill: #1f77b4; stroke: #1f77b4"/>
     <use xlink:href="#m08e14b0a26" x="680.311968" y="227.12832" style="fill: #1f77b4; stroke: #1f77b4"/>
     <use xlink:href="#m08e14b0a26" x="682.910243" y="219.38688" style="fill: #1f77b4; stroke: #1f77b4"/>
     <use xlink:href="#m08e14b0a26" x="685.508519" y="215.51616" style="fill: #1f77b4; stroke: #1f77b4"/>
     <use xlink:href="#m08e14b0a26" x="688.106795" y="215.51616" style="fill: #1f77b4; stroke: #1f77b4"/>
     <use xlink:href="#m08e14b0a26" x="690.70507" y="215.51616" style="fill: #1f77b4; stroke: #1f77b4"/>
     <use xlink:href="#m08e14b0a26" x="693.303346" y="215.51616" style="fill: #1f77b4; stroke: #1f77b4"/>
     <use xlink:href="#m08e14b0a26" x="695.901622" y="215.51616" style="fill: #1f77b4; stroke: #1f77b4"/>
     <use xlink:href="#m08e14b0a26" x="698.499897" y="207.77472" style="fill: #1f77b4; stroke: #1f77b4"/>
     <use xlink:href="#m08e14b0a26" x="701.098173" y="211.64544" style="fill: #1f77b4; stroke: #1f77b4"/>
     <use xlink:href="#m08e14b0a26" x="703.696449" y="207.77472" style="fill: #1f77b4; stroke: #1f77b4"/>
     <use xlink:href="#m08e14b0a26" x="706.294724" y="215.51616" style="fill: #1f77b4; stroke: #1f77b4"/>
     <use xlink:href="#m08e14b0a26" x="708.893" y="207.77472" style="fill: #1f77b4; stroke: #1f77b4"/>
     <use xlink:href="#m08e14b0a26" x="711.491276" y="200.03328" style="fill: #1f77b4; stroke: #1f77b4"/>
     <use xlink:href="#m08e14b0a26" x="714.089551" y="200.03328" style="fill: #1f77b4; stroke: #1f77b4"/>
     <use xlink:href="#m08e14b0a26" x="716.687827" y="203.904" style="fill: #1f77b4; stroke: #1f77b4"/>
     <use xlink:href="#m08e14b0a26" x="719.286103" y="203.904" style="fill: #1f77b4; stroke: #1f77b4"/>
     <use xlink:href="#m08e14b0a26" x="721.884378" y="196.16256" style="fill: #1f77b4; stroke: #1f77b4"/>
     <use xlink:href="#m08e14b0a26" x="724.482654" y="188.42112" style="fill: #1f77b4; stroke: #1f77b4"/>
     <use xlink:href="#m08e14b0a26" x="727.08093" y="200.03328" style="fill: #1f77b4; stroke: #1f77b4"/>
     <use xlink:href="#m08e14b0a26" x="729.679206" y="200.03328" style="fill: #1f77b4; stroke: #1f77b4"/>
     <use xlink:href="#m08e14b0a26" x="732.277481" y="200.03328" style="fill: #1f77b4; stroke: #1f77b4"/>
     <use xlink:href="#m08e14b0a26" x="734.875757" y="200.03328" style="fill: #1f77b4; stroke: #1f77b4"/>
     <use xlink:href="#m08e14b0a26" x="737.474033" y="192.29184" style="fill: #1f77b4; stroke: #1f77b4"/>
     <use xlink:href="#m08e14b0a26" x="740.072308" y="192.29184" style="fill: #1f77b4; stroke: #1f77b4"/>
     <use xlink:href="#m08e14b0a26" x="742.670584" y="196.16256" style="fill: #1f77b4; stroke: #1f77b4"/>
     <use xlink:href="#m08e14b0a26" x="745.26886" y="196.16256" style="fill: #1f77b4; stroke: #1f77b4"/>
     <use xlink:href="#m08e14b0a26" x="747.867135" y="192.29184" style="fill: #1f77b4; stroke: #1f77b4"/>
     <use xlink:href="#m08e14b0a26" x="750.465411" y="192.29184" style="fill: #1f77b4; stroke: #1f77b4"/>
     <use xlink:href="#m08e14b0a26" x="753.063687" y="188.42112" style="fill: #1f77b4; stroke: #1f77b4"/>
     <use xlink:href="#m08e14b0a26" x="755.661962" y="192.29184" style="fill: #1f77b4; stroke: #1f77b4"/>
     <use xlink:href="#m08e14b0a26" x="758.260238" y="188.42112" style="fill: #1f77b4; stroke: #1f77b4"/>
     <use xlink:href="#m08e14b0a26" x="760.858514" y="188.42112" style="fill: #1f77b4; stroke: #1f77b4"/>
     <use xlink:href="#m08e14b0a26" x="763.456789" y="184.5504" style="fill: #1f77b4; stroke: #1f77b4"/>
     <use xlink:href="#m08e14b0a26" x="766.055065" y="180.67968" style="fill: #1f77b4; stroke: #1f77b4"/>
     <use xlink:href="#m08e14b0a26" x="768.653341" y="180.67968" style="fill: #1f77b4; stroke: #1f77b4"/>
     <use xlink:href="#m08e14b0a26" x="771.251616" y="176.80896" style="fill: #1f77b4; stroke: #1f77b4"/>
     <use xlink:href="#m08e14b0a26" x="773.849892" y="172.93824" style="fill: #1f77b4; stroke: #1f77b4"/>
     <use xlink:href="#m08e14b0a26" x="776.448168" y="184.5504" style="fill: #1f77b4; stroke: #1f77b4"/>
     <use xlink:href="#m08e14b0a26" x="779.046443" y="184.5504" style="fill: #1f77b4; stroke: #1f77b4"/>
     <use xlink:href="#m08e14b0a26" x="781.644719" y="180.67968" style="fill: #1f77b4; stroke: #1f77b4"/>
     <use xlink:href="#m08e14b0a26" x="784.242995" y="172.93824" style="fill: #1f77b4; stroke: #1f77b4"/>
     <use xlink:href="#m08e14b0a26" x="786.84127" y="176.80896" style="fill: #1f77b4; stroke: #1f77b4"/>
     <use xlink:href="#m08e14b0a26" x="789.439546" y="176.80896" style="fill: #1f77b4; stroke: #1f77b4"/>
     <use xlink:href="#m08e14b0a26" x="792.037822" y="172.93824" style="fill: #1f77b4; stroke: #1f77b4"/>
     <use xlink:href="#m08e14b0a26" x="794.636097" y="172.93824" style="fill: #1f77b4; stroke: #1f77b4"/>
    </g>
   </g>
   <g id="patch_3">
    <path d="M 115.2 615.168 
L 115.2 82.944 
" style="fill: none; stroke: #000000; stroke-width: 0.8; stroke-linejoin: miter; stroke-linecap: square"/>
   </g>
   <g id="patch_4">
    <path d="M 829.44 615.168 
L 829.44 82.944 
" style="fill: none; stroke: #000000; stroke-width: 0.8; stroke-linejoin: miter; stroke-linecap: square"/>
   </g>
   <g id="patch_5">
    <path d="M 115.2 615.168 
L 829.44 615.168 
" style="fill: none; stroke: #000000; stroke-width: 0.8; stroke-linejoin: miter; stroke-linecap: square"/>
   </g>
   <g id="patch_6">
    <path d="M 115.2 82.944 
L 829.44 82.944 
" style="fill: none; stroke: #000000; stroke-width: 0.8; stroke-linejoin: miter; stroke-linecap: square"/>
   </g>
  </g>
 </g>
 <defs>
  <clipPath id="p715cd69580">
   <rect x="115.2" y="82.944" width="714.24" height="532.224"/>
  </clipPath>
 </defs>
</svg>
