<?xml version="1.0" encoding="utf-8" standalone="no"?>
<!DOCTYPE svg PUBLIC "-//W3C//DTD SVG 1.1//EN"
  "http://www.w3.org/Graphics/SVG/1.1/DTD/svg11.dtd">
<svg xmlns:xlink="http://www.w3.org/1999/xlink" width="921.6pt" height="691.2pt" viewBox="0 0 921.6 691.2" xmlns="http://www.w3.org/2000/svg" version="1.1">
 <metadata>
  <rdf:RDF xmlns:dc="http://purl.org/dc/elements/1.1/" xmlns:cc="http://creativecommons.org/ns#" xmlns:rdf="http://www.w3.org/1999/02/22-rdf-syntax-ns#">
   <cc:Work>
    <dc:type rdf:resource="http://purl.org/dc/dcmitype/StillImage"/>
    <dc:date>2023-03-18T15:52:32.386228</dc:date>
    <dc:format>image/svg+xml</dc:format>
    <dc:creator>
     <cc:Agent>
      <dc:title>Matplotlib v3.5.1, https://matplotlib.org/</dc:title>
     </cc:Agent>
    </dc:creator>
   </cc:Work>
  </rdf:RDF>
 </metadata>
 <defs>
  <style type="text/css">*{stroke-linejoin: round; stroke-linecap: butt}</style>
 </defs>
 <g id="figure_1">
  <g id="patch_1">
   <path d="M 0 691.2 
L 921.6 691.2 
L 921.6 0 
L 0 0 
z
" style="fill: #ffffff"/>
  </g>
  <g id="axes_1">
   <g id="patch_2">
    <path d="M 115.2 615.168 
L 829.44 615.168 
L 829.44 82.944 
L 115.2 82.944 
z
" style="fill: #ffffff"/>
   </g>
   <g id="matplotlib.axis_1">
    <g id="xtick_1">
     <g id="line2d_1">
      <path d="M 202.229244 615.168 
L 202.229244 82.944 
" clip-path="url(#pee6179b33f)" style="fill: none; stroke: #b0b0b0; stroke-width: 0.8; stroke-linecap: square"/>
     </g>
     <g id="line2d_2">
      <defs>
       <path id="mcbf5eeb758" d="M 0 0 
L 0 3.5 
" style="stroke: #000000; stroke-width: 0.8"/>
      </defs>
      <g>
       <use xlink:href="#mcbf5eeb758" x="202.229244" y="615.168" style="stroke: #000000; stroke-width: 0.8"/>
      </g>
     </g>
     <g id="text_1">
      <!-- −200 -->
      <g transform="translate(167.895259 641.164094)scale(0.25 -0.25)">
       <defs>
        <path id="DejaVuSans-2212" d="M 678 2272 
L 4684 2272 
L 4684 1741 
L 678 1741 
L 678 2272 
z
" transform="scale(0.015625)"/>
        <path id="DejaVuSans-32" d="M 1228 531 
L 3431 531 
L 3431 0 
L 469 0 
L 469 531 
Q 828 903 1448 1529 
Q 2069 2156 2228 2338 
Q 2531 2678 2651 2914 
Q 2772 3150 2772 3378 
Q 2772 3750 2511 3984 
Q 2250 4219 1831 4219 
Q 1534 4219 1204 4116 
Q 875 4013 500 3803 
L 500 4441 
Q 881 4594 1212 4672 
Q 1544 4750 1819 4750 
Q 2544 4750 2975 4387 
Q 3406 4025 3406 3419 
Q 3406 3131 3298 2873 
Q 3191 2616 2906 2266 
Q 2828 2175 2409 1742 
Q 1991 1309 1228 531 
z
" transform="scale(0.015625)"/>
        <path id="DejaVuSans-30" d="M 2034 4250 
Q 1547 4250 1301 3770 
Q 1056 3291 1056 2328 
Q 1056 1369 1301 889 
Q 1547 409 2034 409 
Q 2525 409 2770 889 
Q 3016 1369 3016 2328 
Q 3016 3291 2770 3770 
Q 2525 4250 2034 4250 
z
M 2034 4750 
Q 2819 4750 3233 4129 
Q 3647 3509 3647 2328 
Q 3647 1150 3233 529 
Q 2819 -91 2034 -91 
Q 1250 -91 836 529 
Q 422 1150 422 2328 
Q 422 3509 836 4129 
Q 1250 4750 2034 4750 
z
" transform="scale(0.015625)"/>
       </defs>
       <use xlink:href="#DejaVuSans-2212"/>
       <use xlink:href="#DejaVuSans-32" x="83.789062"/>
       <use xlink:href="#DejaVuSans-30" x="147.412109"/>
       <use xlink:href="#DejaVuSans-30" x="211.035156"/>
      </g>
     </g>
    </g>
    <g id="xtick_2">
     <g id="line2d_3">
      <path d="M 332.143027 615.168 
L 332.143027 82.944 
" clip-path="url(#pee6179b33f)" style="fill: none; stroke: #b0b0b0; stroke-width: 0.8; stroke-linecap: square"/>
     </g>
     <g id="line2d_4">
      <g>
       <use xlink:href="#mcbf5eeb758" x="332.143027" y="615.168" style="stroke: #000000; stroke-width: 0.8"/>
      </g>
     </g>
     <g id="text_2">
      <!-- −100 -->
      <g transform="translate(297.809043 641.164094)scale(0.25 -0.25)">
       <defs>
        <path id="DejaVuSans-31" d="M 794 531 
L 1825 531 
L 1825 4091 
L 703 3866 
L 703 4441 
L 1819 4666 
L 2450 4666 
L 2450 531 
L 3481 531 
L 3481 0 
L 794 0 
L 794 531 
z
" transform="scale(0.015625)"/>
       </defs>
       <use xlink:href="#DejaVuSans-2212"/>
       <use xlink:href="#DejaVuSans-31" x="83.789062"/>
       <use xlink:href="#DejaVuSans-30" x="147.412109"/>
       <use xlink:href="#DejaVuSans-30" x="211.035156"/>
      </g>
     </g>
    </g>
    <g id="xtick_3">
     <g id="line2d_5">
      <path d="M 462.056811 615.168 
L 462.056811 82.944 
" clip-path="url(#pee6179b33f)" style="fill: none; stroke: #b0b0b0; stroke-width: 0.8; stroke-linecap: square"/>
     </g>
     <g id="line2d_6">
      <g>
       <use xlink:href="#mcbf5eeb758" x="462.056811" y="615.168" style="stroke: #000000; stroke-width: 0.8"/>
      </g>
     </g>
     <g id="text_3">
      <!-- 0 -->
      <g transform="translate(454.103686 641.164094)scale(0.25 -0.25)">
       <use xlink:href="#DejaVuSans-30"/>
      </g>
     </g>
    </g>
    <g id="xtick_4">
     <g id="line2d_7">
      <path d="M 591.970595 615.168 
L 591.970595 82.944 
" clip-path="url(#pee6179b33f)" style="fill: none; stroke: #b0b0b0; stroke-width: 0.8; stroke-linecap: square"/>
     </g>
     <g id="line2d_8">
      <g>
       <use xlink:href="#mcbf5eeb758" x="591.970595" y="615.168" style="stroke: #000000; stroke-width: 0.8"/>
      </g>
     </g>
     <g id="text_4">
      <!-- 100 -->
      <g transform="translate(568.11122 641.164094)scale(0.25 -0.25)">
       <use xlink:href="#DejaVuSans-31"/>
       <use xlink:href="#DejaVuSans-30" x="63.623047"/>
       <use xlink:href="#DejaVuSans-30" x="127.246094"/>
      </g>
     </g>
    </g>
    <g id="xtick_5">
     <g id="line2d_9">
      <path d="M 721.884378 615.168 
L 721.884378 82.944 
" clip-path="url(#pee6179b33f)" style="fill: none; stroke: #b0b0b0; stroke-width: 0.8; stroke-linecap: square"/>
     </g>
     <g id="line2d_10">
      <g>
       <use xlink:href="#mcbf5eeb758" x="721.884378" y="615.168" style="stroke: #000000; stroke-width: 0.8"/>
      </g>
     </g>
     <g id="text_5">
      <!-- 200 -->
      <g transform="translate(698.025003 641.164094)scale(0.25 -0.25)">
       <use xlink:href="#DejaVuSans-32"/>
       <use xlink:href="#DejaVuSans-30" x="63.623047"/>
       <use xlink:href="#DejaVuSans-30" x="127.246094"/>
      </g>
     </g>
    </g>
    <g id="text_6">
     <!-- Tiempo [ns] -->
     <g transform="translate(383.12625 673.158625)scale(0.3 -0.3)">
      <defs>
       <path id="DejaVuSans-54" d="M -19 4666 
L 3928 4666 
L 3928 4134 
L 2272 4134 
L 2272 0 
L 1638 0 
L 1638 4134 
L -19 4134 
L -19 4666 
z
" transform="scale(0.015625)"/>
       <path id="DejaVuSans-69" d="M 603 3500 
L 1178 3500 
L 1178 0 
L 603 0 
L 603 3500 
z
M 603 4863 
L 1178 4863 
L 1178 4134 
L 603 4134 
L 603 4863 
z
" transform="scale(0.015625)"/>
       <path id="DejaVuSans-65" d="M 3597 1894 
L 3597 1613 
L 953 1613 
Q 991 1019 1311 708 
Q 1631 397 2203 397 
Q 2534 397 2845 478 
Q 3156 559 3463 722 
L 3463 178 
Q 3153 47 2828 -22 
Q 2503 -91 2169 -91 
Q 1331 -91 842 396 
Q 353 884 353 1716 
Q 353 2575 817 3079 
Q 1281 3584 2069 3584 
Q 2775 3584 3186 3129 
Q 3597 2675 3597 1894 
z
M 3022 2063 
Q 3016 2534 2758 2815 
Q 2500 3097 2075 3097 
Q 1594 3097 1305 2825 
Q 1016 2553 972 2059 
L 3022 2063 
z
" transform="scale(0.015625)"/>
       <path id="DejaVuSans-6d" d="M 3328 2828 
Q 3544 3216 3844 3400 
Q 4144 3584 4550 3584 
Q 5097 3584 5394 3201 
Q 5691 2819 5691 2113 
L 5691 0 
L 5113 0 
L 5113 2094 
Q 5113 2597 4934 2840 
Q 4756 3084 4391 3084 
Q 3944 3084 3684 2787 
Q 3425 2491 3425 1978 
L 3425 0 
L 2847 0 
L 2847 2094 
Q 2847 2600 2669 2842 
Q 2491 3084 2119 3084 
Q 1678 3084 1418 2786 
Q 1159 2488 1159 1978 
L 1159 0 
L 581 0 
L 581 3500 
L 1159 3500 
L 1159 2956 
Q 1356 3278 1631 3431 
Q 1906 3584 2284 3584 
Q 2666 3584 2933 3390 
Q 3200 3197 3328 2828 
z
" transform="scale(0.015625)"/>
       <path id="DejaVuSans-70" d="M 1159 525 
L 1159 -1331 
L 581 -1331 
L 581 3500 
L 1159 3500 
L 1159 2969 
Q 1341 3281 1617 3432 
Q 1894 3584 2278 3584 
Q 2916 3584 3314 3078 
Q 3713 2572 3713 1747 
Q 3713 922 3314 415 
Q 2916 -91 2278 -91 
Q 1894 -91 1617 61 
Q 1341 213 1159 525 
z
M 3116 1747 
Q 3116 2381 2855 2742 
Q 2594 3103 2138 3103 
Q 1681 3103 1420 2742 
Q 1159 2381 1159 1747 
Q 1159 1113 1420 752 
Q 1681 391 2138 391 
Q 2594 391 2855 752 
Q 3116 1113 3116 1747 
z
" transform="scale(0.015625)"/>
       <path id="DejaVuSans-6f" d="M 1959 3097 
Q 1497 3097 1228 2736 
Q 959 2375 959 1747 
Q 959 1119 1226 758 
Q 1494 397 1959 397 
Q 2419 397 2687 759 
Q 2956 1122 2956 1747 
Q 2956 2369 2687 2733 
Q 2419 3097 1959 3097 
z
M 1959 3584 
Q 2709 3584 3137 3096 
Q 3566 2609 3566 1747 
Q 3566 888 3137 398 
Q 2709 -91 1959 -91 
Q 1206 -91 779 398 
Q 353 888 353 1747 
Q 353 2609 779 3096 
Q 1206 3584 1959 3584 
z
" transform="scale(0.015625)"/>
       <path id="DejaVuSans-20" transform="scale(0.015625)"/>
       <path id="DejaVuSans-5b" d="M 550 4863 
L 1875 4863 
L 1875 4416 
L 1125 4416 
L 1125 -397 
L 1875 -397 
L 1875 -844 
L 550 -844 
L 550 4863 
z
" transform="scale(0.015625)"/>
       <path id="DejaVuSans-6e" d="M 3513 2113 
L 3513 0 
L 2938 0 
L 2938 2094 
Q 2938 2591 2744 2837 
Q 2550 3084 2163 3084 
Q 1697 3084 1428 2787 
Q 1159 2491 1159 1978 
L 1159 0 
L 581 0 
L 581 3500 
L 1159 3500 
L 1159 2956 
Q 1366 3272 1645 3428 
Q 1925 3584 2291 3584 
Q 2894 3584 3203 3211 
Q 3513 2838 3513 2113 
z
" transform="scale(0.015625)"/>
       <path id="DejaVuSans-73" d="M 2834 3397 
L 2834 2853 
Q 2591 2978 2328 3040 
Q 2066 3103 1784 3103 
Q 1356 3103 1142 2972 
Q 928 2841 928 2578 
Q 928 2378 1081 2264 
Q 1234 2150 1697 2047 
L 1894 2003 
Q 2506 1872 2764 1633 
Q 3022 1394 3022 966 
Q 3022 478 2636 193 
Q 2250 -91 1575 -91 
Q 1294 -91 989 -36 
Q 684 19 347 128 
L 347 722 
Q 666 556 975 473 
Q 1284 391 1588 391 
Q 1994 391 2212 530 
Q 2431 669 2431 922 
Q 2431 1156 2273 1281 
Q 2116 1406 1581 1522 
L 1381 1569 
Q 847 1681 609 1914 
Q 372 2147 372 2553 
Q 372 3047 722 3315 
Q 1072 3584 1716 3584 
Q 2034 3584 2315 3537 
Q 2597 3491 2834 3397 
z
" transform="scale(0.015625)"/>
       <path id="DejaVuSans-5d" d="M 1947 4863 
L 1947 -844 
L 622 -844 
L 622 -397 
L 1369 -397 
L 1369 4416 
L 622 4416 
L 622 4863 
L 1947 4863 
z
" transform="scale(0.015625)"/>
      </defs>
      <use xlink:href="#DejaVuSans-54"/>
      <use xlink:href="#DejaVuSans-69" x="57.958984"/>
      <use xlink:href="#DejaVuSans-65" x="85.742188"/>
      <use xlink:href="#DejaVuSans-6d" x="147.265625"/>
      <use xlink:href="#DejaVuSans-70" x="244.677734"/>
      <use xlink:href="#DejaVuSans-6f" x="308.154297"/>
      <use xlink:href="#DejaVuSans-20" x="369.335938"/>
      <use xlink:href="#DejaVuSans-5b" x="401.123047"/>
      <use xlink:href="#DejaVuSans-6e" x="440.136719"/>
      <use xlink:href="#DejaVuSans-73" x="503.515625"/>
      <use xlink:href="#DejaVuSans-5d" x="555.615234"/>
     </g>
    </g>
   </g>
   <g id="matplotlib.axis_2">
    <g id="ytick_1">
     <g id="line2d_11">
      <path d="M 115.2 599.936 
L 829.44 599.936 
" clip-path="url(#pee6179b33f)" style="fill: none; stroke: #b0b0b0; stroke-width: 0.8; stroke-linecap: square"/>
     </g>
     <g id="line2d_12">
      <defs>
       <path id="mdf4ae5e768" d="M 0 0 
L -3.5 0 
" style="stroke: #000000; stroke-width: 0.8"/>
      </defs>
      <g>
       <use xlink:href="#mdf4ae5e768" x="115.2" y="599.936" style="stroke: #000000; stroke-width: 0.8"/>
      </g>
     </g>
     <g id="text_7">
      <!-- −30 -->
      <g transform="translate(55.438281 609.434047)scale(0.25 -0.25)">
       <defs>
        <path id="DejaVuSans-33" d="M 2597 2516 
Q 3050 2419 3304 2112 
Q 3559 1806 3559 1356 
Q 3559 666 3084 287 
Q 2609 -91 1734 -91 
Q 1441 -91 1130 -33 
Q 819 25 488 141 
L 488 750 
Q 750 597 1062 519 
Q 1375 441 1716 441 
Q 2309 441 2620 675 
Q 2931 909 2931 1356 
Q 2931 1769 2642 2001 
Q 2353 2234 1838 2234 
L 1294 2234 
L 1294 2753 
L 1863 2753 
Q 2328 2753 2575 2939 
Q 2822 3125 2822 3475 
Q 2822 3834 2567 4026 
Q 2313 4219 1838 4219 
Q 1578 4219 1281 4162 
Q 984 4106 628 3988 
L 628 4550 
Q 988 4650 1302 4700 
Q 1616 4750 1894 4750 
Q 2613 4750 3031 4423 
Q 3450 4097 3450 3541 
Q 3450 3153 3228 2886 
Q 3006 2619 2597 2516 
z
" transform="scale(0.015625)"/>
       </defs>
       <use xlink:href="#DejaVuSans-2212"/>
       <use xlink:href="#DejaVuSans-33" x="83.789062"/>
       <use xlink:href="#DejaVuSans-30" x="147.412109"/>
      </g>
     </g>
    </g>
    <g id="ytick_2">
     <g id="line2d_13">
      <path d="M 115.2 525.269333 
L 829.44 525.269333 
" clip-path="url(#pee6179b33f)" style="fill: none; stroke: #b0b0b0; stroke-width: 0.8; stroke-linecap: square"/>
     </g>
     <g id="line2d_14">
      <g>
       <use xlink:href="#mdf4ae5e768" x="115.2" y="525.269333" style="stroke: #000000; stroke-width: 0.8"/>
      </g>
     </g>
     <g id="text_8">
      <!-- −25 -->
      <g transform="translate(55.438281 534.76738)scale(0.25 -0.25)">
       <defs>
        <path id="DejaVuSans-35" d="M 691 4666 
L 3169 4666 
L 3169 4134 
L 1269 4134 
L 1269 2991 
Q 1406 3038 1543 3061 
Q 1681 3084 1819 3084 
Q 2600 3084 3056 2656 
Q 3513 2228 3513 1497 
Q 3513 744 3044 326 
Q 2575 -91 1722 -91 
Q 1428 -91 1123 -41 
Q 819 9 494 109 
L 494 744 
Q 775 591 1075 516 
Q 1375 441 1709 441 
Q 2250 441 2565 725 
Q 2881 1009 2881 1497 
Q 2881 1984 2565 2268 
Q 2250 2553 1709 2553 
Q 1456 2553 1204 2497 
Q 953 2441 691 2322 
L 691 4666 
z
" transform="scale(0.015625)"/>
       </defs>
       <use xlink:href="#DejaVuSans-2212"/>
       <use xlink:href="#DejaVuSans-32" x="83.789062"/>
       <use xlink:href="#DejaVuSans-35" x="147.412109"/>
      </g>
     </g>
    </g>
    <g id="ytick_3">
     <g id="line2d_15">
      <path d="M 115.2 450.602667 
L 829.44 450.602667 
" clip-path="url(#pee6179b33f)" style="fill: none; stroke: #b0b0b0; stroke-width: 0.8; stroke-linecap: square"/>
     </g>
     <g id="line2d_16">
      <g>
       <use xlink:href="#mdf4ae5e768" x="115.2" y="450.602667" style="stroke: #000000; stroke-width: 0.8"/>
      </g>
     </g>
     <g id="text_9">
      <!-- −20 -->
      <g transform="translate(55.438281 460.100714)scale(0.25 -0.25)">
       <use xlink:href="#DejaVuSans-2212"/>
       <use xlink:href="#DejaVuSans-32" x="83.789062"/>
       <use xlink:href="#DejaVuSans-30" x="147.412109"/>
      </g>
     </g>
    </g>
    <g id="ytick_4">
     <g id="line2d_17">
      <path d="M 115.2 375.936 
L 829.44 375.936 
" clip-path="url(#pee6179b33f)" style="fill: none; stroke: #b0b0b0; stroke-width: 0.8; stroke-linecap: square"/>
     </g>
     <g id="line2d_18">
      <g>
       <use xlink:href="#mdf4ae5e768" x="115.2" y="375.936" style="stroke: #000000; stroke-width: 0.8"/>
      </g>
     </g>
     <g id="text_10">
      <!-- −15 -->
      <g transform="translate(55.438281 385.434047)scale(0.25 -0.25)">
       <use xlink:href="#DejaVuSans-2212"/>
       <use xlink:href="#DejaVuSans-31" x="83.789062"/>
       <use xlink:href="#DejaVuSans-35" x="147.412109"/>
      </g>
     </g>
    </g>
    <g id="ytick_5">
     <g id="line2d_19">
      <path d="M 115.2 301.269333 
L 829.44 301.269333 
" clip-path="url(#pee6179b33f)" style="fill: none; stroke: #b0b0b0; stroke-width: 0.8; stroke-linecap: square"/>
     </g>
     <g id="line2d_20">
      <g>
       <use xlink:href="#mdf4ae5e768" x="115.2" y="301.269333" style="stroke: #000000; stroke-width: 0.8"/>
      </g>
     </g>
     <g id="text_11">
      <!-- −10 -->
      <g transform="translate(55.438281 310.76738)scale(0.25 -0.25)">
       <use xlink:href="#DejaVuSans-2212"/>
       <use xlink:href="#DejaVuSans-31" x="83.789062"/>
       <use xlink:href="#DejaVuSans-30" x="147.412109"/>
      </g>
     </g>
    </g>
    <g id="ytick_6">
     <g id="line2d_21">
      <path d="M 115.2 226.602667 
L 829.44 226.602667 
" clip-path="url(#pee6179b33f)" style="fill: none; stroke: #b0b0b0; stroke-width: 0.8; stroke-linecap: square"/>
     </g>
     <g id="line2d_22">
      <g>
       <use xlink:href="#mdf4ae5e768" x="115.2" y="226.602667" style="stroke: #000000; stroke-width: 0.8"/>
      </g>
     </g>
     <g id="text_12">
      <!-- −5 -->
      <g transform="translate(71.344531 236.100714)scale(0.25 -0.25)">
       <use xlink:href="#DejaVuSans-2212"/>
       <use xlink:href="#DejaVuSans-35" x="83.789062"/>
      </g>
     </g>
    </g>
    <g id="ytick_7">
     <g id="line2d_23">
      <path d="M 115.2 151.936 
L 829.44 151.936 
" clip-path="url(#pee6179b33f)" style="fill: none; stroke: #b0b0b0; stroke-width: 0.8; stroke-linecap: square"/>
     </g>
     <g id="line2d_24">
      <g>
       <use xlink:href="#mdf4ae5e768" x="115.2" y="151.936" style="stroke: #000000; stroke-width: 0.8"/>
      </g>
     </g>
     <g id="text_13">
      <!-- 0 -->
      <g transform="translate(92.29375 161.434047)scale(0.25 -0.25)">
       <use xlink:href="#DejaVuSans-30"/>
      </g>
     </g>
    </g>
    <g id="text_14">
     <!-- Voltaje [mV] -->
     <g transform="translate(45.199219 441.313031)rotate(-90)scale(0.3 -0.3)">
      <defs>
       <path id="DejaVuSans-56" d="M 1831 0 
L 50 4666 
L 709 4666 
L 2188 738 
L 3669 4666 
L 4325 4666 
L 2547 0 
L 1831 0 
z
" transform="scale(0.015625)"/>
       <path id="DejaVuSans-6c" d="M 603 4863 
L 1178 4863 
L 1178 0 
L 603 0 
L 603 4863 
z
" transform="scale(0.015625)"/>
       <path id="DejaVuSans-74" d="M 1172 4494 
L 1172 3500 
L 2356 3500 
L 2356 3053 
L 1172 3053 
L 1172 1153 
Q 1172 725 1289 603 
Q 1406 481 1766 481 
L 2356 481 
L 2356 0 
L 1766 0 
Q 1100 0 847 248 
Q 594 497 594 1153 
L 594 3053 
L 172 3053 
L 172 3500 
L 594 3500 
L 594 4494 
L 1172 4494 
z
" transform="scale(0.015625)"/>
       <path id="DejaVuSans-61" d="M 2194 1759 
Q 1497 1759 1228 1600 
Q 959 1441 959 1056 
Q 959 750 1161 570 
Q 1363 391 1709 391 
Q 2188 391 2477 730 
Q 2766 1069 2766 1631 
L 2766 1759 
L 2194 1759 
z
M 3341 1997 
L 3341 0 
L 2766 0 
L 2766 531 
Q 2569 213 2275 61 
Q 1981 -91 1556 -91 
Q 1019 -91 701 211 
Q 384 513 384 1019 
Q 384 1609 779 1909 
Q 1175 2209 1959 2209 
L 2766 2209 
L 2766 2266 
Q 2766 2663 2505 2880 
Q 2244 3097 1772 3097 
Q 1472 3097 1187 3025 
Q 903 2953 641 2809 
L 641 3341 
Q 956 3463 1253 3523 
Q 1550 3584 1831 3584 
Q 2591 3584 2966 3190 
Q 3341 2797 3341 1997 
z
" transform="scale(0.015625)"/>
       <path id="DejaVuSans-6a" d="M 603 3500 
L 1178 3500 
L 1178 -63 
Q 1178 -731 923 -1031 
Q 669 -1331 103 -1331 
L -116 -1331 
L -116 -844 
L 38 -844 
Q 366 -844 484 -692 
Q 603 -541 603 -63 
L 603 3500 
z
M 603 4863 
L 1178 4863 
L 1178 4134 
L 603 4134 
L 603 4863 
z
" transform="scale(0.015625)"/>
      </defs>
      <use xlink:href="#DejaVuSans-56"/>
      <use xlink:href="#DejaVuSans-6f" x="60.658203"/>
      <use xlink:href="#DejaVuSans-6c" x="121.839844"/>
      <use xlink:href="#DejaVuSans-74" x="149.623047"/>
      <use xlink:href="#DejaVuSans-61" x="188.832031"/>
      <use xlink:href="#DejaVuSans-6a" x="250.111328"/>
      <use xlink:href="#DejaVuSans-65" x="277.894531"/>
      <use xlink:href="#DejaVuSans-20" x="339.417969"/>
      <use xlink:href="#DejaVuSans-5b" x="371.205078"/>
      <use xlink:href="#DejaVuSans-6d" x="410.21875"/>
      <use xlink:href="#DejaVuSans-56" x="507.630859"/>
      <use xlink:href="#DejaVuSans-5d" x="576.039062"/>
     </g>
    </g>
   </g>
   <g id="line2d_25">
    <path d="M 147.665455 169.856 
L 148.444937 178.816 
L 148.704765 178.816 
L 148.964592 181.802667 
L 149.22442 181.802667 
L 149.484248 178.816 
L 149.744075 178.816 
L 150.003903 175.829333 
L 150.26373 175.829333 
L 150.523558 172.842667 
L 150.783385 172.842667 
L 151.30304 166.869333 
L 151.562868 166.869333 
L 152.082523 160.896 
L 152.342351 154.922667 
L 153.381661 142.976 
L 153.641489 137.002667 
L 154.161144 131.029333 
L 154.420971 131.029333 
L 154.680799 128.042667 
L 154.940626 128.042667 
L 155.200454 125.056 
L 155.460282 128.042667 
L 155.720109 128.042667 
L 155.979937 131.029333 
L 156.239764 131.029333 
L 156.759419 137.002667 
L 157.019247 142.976 
L 158.058557 154.922667 
L 158.318385 160.896 
L 158.83804 166.869333 
L 159.097868 166.869333 
L 159.617523 172.842667 
L 159.87735 172.842667 
L 160.137178 175.829333 
L 160.397005 175.829333 
L 160.656833 178.816 
L 160.91666 178.816 
L 161.176488 181.802667 
L 161.696143 181.802667 
L 161.955971 184.789333 
L 162.215798 184.789333 
L 162.475626 181.802667 
L 162.735453 181.802667 
L 164.034591 166.869333 
L 164.294419 160.896 
L 164.814074 154.922667 
L 165.073902 148.949333 
L 165.333729 145.962667 
L 165.593557 139.989333 
L 165.853384 137.002667 
L 166.373039 125.056 
L 166.632867 122.069333 
L 166.892695 116.096 
L 167.152522 116.096 
L 167.41235 113.109333 
L 168.45166 113.109333 
L 168.711488 116.096 
L 168.971315 116.096 
L 169.231143 119.082667 
L 169.49097 119.082667 
L 170.010625 125.056 
L 170.270453 131.029333 
L 170.790108 137.002667 
L 171.049936 142.976 
L 171.309763 145.962667 
L 171.569591 151.936 
L 173.128556 169.856 
L 173.388384 169.856 
L 173.648211 172.842667 
L 174.947349 172.842667 
L 175.207177 169.856 
L 175.467004 169.856 
L 175.986659 163.882667 
L 176.246487 163.882667 
L 176.506315 160.896 
L 176.766142 160.896 
L 177.285797 154.922667 
L 177.545625 154.922667 
L 177.805452 151.936 
L 178.06528 151.936 
L 178.844763 142.976 
L 179.10459 142.976 
L 179.884073 134.016 
L 180.403728 134.016 
L 180.663556 137.002667 
L 181.183211 137.002667 
L 181.443038 139.989333 
L 181.962693 139.989333 
L 182.222521 142.976 
L 182.482349 142.976 
L 183.002004 148.949333 
L 183.261831 148.949333 
L 183.781486 154.922667 
L 184.041314 160.896 
L 184.301142 163.882667 
L 184.560969 169.856 
L 185.860107 184.789333 
L 186.379762 184.789333 
L 186.63959 187.776 
L 186.899417 187.776 
L 187.159245 184.789333 
L 187.419072 184.789333 
L 187.6789 181.802667 
L 187.938727 181.802667 
L 188.71821 172.842667 
L 188.978038 166.869333 
L 189.497693 160.896 
L 189.75752 154.922667 
L 190.017348 151.936 
L 190.277176 145.962667 
L 190.796831 139.989333 
L 191.056658 139.989333 
L 191.576313 134.016 
L 192.095969 134.016 
L 192.355796 131.029333 
L 193.135279 131.029333 
L 193.395106 134.016 
L 194.174589 134.016 
L 194.434417 137.002667 
L 194.694244 137.002667 
L 195.213899 142.976 
L 195.473727 142.976 
L 196.772865 157.909333 
L 197.032692 163.882667 
L 197.29252 166.869333 
L 197.552347 172.842667 
L 198.591658 184.789333 
L 198.851485 184.789333 
L 199.111313 187.776 
L 199.37114 184.789333 
L 199.630968 184.789333 
L 200.410451 175.829333 
L 200.670278 169.856 
L 201.189933 163.882667 
L 201.449761 157.909333 
L 201.709589 154.922667 
L 201.969416 148.949333 
L 202.489071 142.976 
L 202.748899 137.002667 
L 203.528382 128.042667 
L 203.788209 128.042667 
L 204.048037 125.056 
L 204.307864 125.056 
L 204.567692 122.069333 
L 205.087347 122.069333 
L 205.347175 125.056 
L 205.86683 125.056 
L 206.126657 128.042667 
L 206.386485 128.042667 
L 206.90614 134.016 
L 207.165967 134.016 
L 207.94545 142.976 
L 208.205278 142.976 
L 208.724933 148.949333 
L 208.98476 154.922667 
L 209.764243 163.882667 
L 210.024071 169.856 
L 210.283898 172.842667 
L 210.543726 178.816 
L 211.583036 190.762667 
L 212.102691 190.762667 
L 212.362519 187.776 
L 212.622346 187.776 
L 212.882174 184.789333 
L 213.142002 178.816 
L 213.401829 175.829333 
L 213.661657 169.856 
L 214.181312 163.882667 
L 214.441139 157.909333 
L 214.700967 154.922667 
L 214.960794 148.949333 
L 216.259932 134.016 
L 216.779587 134.016 
L 217.039415 131.029333 
L 218.858208 131.029333 
L 219.118036 134.016 
L 219.377863 134.016 
L 219.897518 139.989333 
L 220.157346 139.989333 
L 221.196656 151.936 
L 221.456484 151.936 
L 221.976139 157.909333 
L 222.235966 157.909333 
L 222.495794 160.896 
L 222.755622 160.896 
L 223.275277 166.869333 
L 223.535104 166.869333 
L 223.794932 169.856 
L 224.054759 169.856 
L 224.314587 172.842667 
L 225.09407 172.842667 
L 225.353897 169.856 
L 226.13338 169.856 
L 227.17269 157.909333 
L 227.432518 151.936 
L 227.692345 148.949333 
L 227.952173 142.976 
L 228.212 139.989333 
L 228.471828 134.016 
L 229.251311 125.056 
L 230.030793 125.056 
L 230.290621 128.042667 
L 230.550449 128.042667 
L 230.810276 131.029333 
L 231.070104 131.029333 
L 231.589759 137.002667 
L 231.849586 137.002667 
L 234.188034 163.882667 
L 234.447862 163.882667 
L 234.967517 169.856 
L 235.227345 169.856 
L 235.487172 172.842667 
L 235.747 172.842667 
L 236.006827 175.829333 
L 237.305965 175.829333 
L 237.565793 172.842667 
L 237.82562 172.842667 
L 238.345276 166.869333 
L 238.605103 166.869333 
L 238.864931 163.882667 
L 239.124758 163.882667 
L 240.683724 145.962667 
L 240.943551 139.989333 
L 241.203379 139.989333 
L 241.723034 134.016 
L 241.982862 134.016 
L 242.242689 131.029333 
L 242.502517 131.029333 
L 242.762344 128.042667 
L 243.281999 128.042667 
L 243.541827 125.056 
L 243.801654 125.056 
L 244.061482 128.042667 
L 244.32131 128.042667 
L 244.581137 131.029333 
L 244.840965 131.029333 
L 246.39993 148.949333 
L 246.659758 154.922667 
L 247.179413 160.896 
L 247.43924 160.896 
L 247.958896 166.869333 
L 248.738378 166.869333 
L 248.998206 169.856 
L 249.777689 169.856 
L 250.037516 166.869333 
L 250.297344 166.869333 
L 251.336654 154.922667 
L 251.596482 154.922667 
L 252.116137 148.949333 
L 252.375964 148.949333 
L 252.635792 145.962667 
L 253.155447 145.962667 
L 253.415274 142.976 
L 253.675102 142.976 
L 253.93493 139.989333 
L 254.194757 139.989333 
L 254.454585 137.002667 
L 254.97424 137.002667 
L 255.234067 134.016 
L 256.533205 134.016 
L 256.793033 137.002667 
L 257.05286 137.002667 
L 257.572516 142.976 
L 257.832343 142.976 
L 259.131481 157.909333 
L 259.391309 163.882667 
L 260.170791 172.842667 
L 260.430619 172.842667 
L 260.690446 175.829333 
L 262.249412 175.829333 
L 262.509239 172.842667 
L 262.769067 172.842667 
L 263.028894 169.856 
L 263.288722 169.856 
L 263.54855 166.869333 
L 263.808377 166.869333 
L 264.328032 160.896 
L 264.58786 160.896 
L 265.62717 148.949333 
L 265.886998 148.949333 
L 266.146825 145.962667 
L 266.66648 145.962667 
L 266.926308 142.976 
L 269.524584 142.976 
L 269.784411 145.962667 
L 270.304066 145.962667 
L 270.563894 148.949333 
L 270.823721 148.949333 
L 271.343377 154.922667 
L 271.603204 154.922667 
L 271.863032 157.909333 
L 272.122859 157.909333 
L 272.382687 160.896 
L 272.642514 160.896 
L 272.902342 163.882667 
L 273.421997 163.882667 
L 273.681825 166.869333 
L 274.461307 166.869333 
L 274.721135 163.882667 
L 275.24079 163.882667 
L 275.500618 160.896 
L 275.760445 160.896 
L 276.020273 157.909333 
L 276.2801 157.909333 
L 276.539928 154.922667 
L 276.799756 154.922667 
L 277.319411 148.949333 
L 277.579238 148.949333 
L 277.839066 145.962667 
L 278.358721 145.962667 
L 278.618549 142.976 
L 279.398031 142.976 
L 279.657859 139.989333 
L 280.697169 139.989333 
L 280.956997 142.976 
L 281.216824 142.976 
L 281.476652 145.962667 
L 281.736479 151.936 
L 283.295445 169.856 
L 283.8151 169.856 
L 284.074927 172.842667 
L 284.85441 172.842667 
L 285.114238 169.856 
L 285.633893 169.856 
L 285.89372 166.869333 
L 286.153548 166.869333 
L 286.413376 163.882667 
L 286.673203 163.882667 
L 287.192858 157.909333 
L 287.452686 157.909333 
L 287.712513 154.922667 
L 287.972341 154.922667 
L 288.232169 157.909333 
L 290.050961 157.909333 
L 290.310789 154.922667 
L 290.830444 154.922667 
L 291.090272 151.936 
L 291.350099 151.936 
L 291.609927 148.949333 
L 292.38941 148.949333 
L 292.649237 145.962667 
L 294.208203 145.962667 
L 296.286823 169.856 
L 297.326133 169.856 
L 297.585961 166.869333 
L 297.845788 166.869333 
L 298.105616 163.882667 
L 298.625271 163.882667 
L 298.885099 160.896 
L 299.144926 160.896 
L 299.404754 157.909333 
L 299.924409 157.909333 
L 300.184237 154.922667 
L 300.444064 154.922667 
L 300.703892 151.936 
L 301.483374 151.936 
L 301.743202 148.949333 
L 303.821823 148.949333 
L 304.08165 145.962667 
L 304.341478 145.962667 
L 304.601305 142.976 
L 305.900443 142.976 
L 307.199581 157.909333 
L 307.459408 163.882667 
L 308.238891 172.842667 
L 308.498719 172.842667 
L 308.758546 175.829333 
L 309.538029 175.829333 
L 309.797857 172.842667 
L 310.057684 172.842667 
L 312.396132 145.962667 
L 312.65596 145.962667 
L 313.175615 139.989333 
L 313.435443 139.989333 
L 313.69527 137.002667 
L 314.214925 137.002667 
L 314.474753 134.016 
L 314.73458 134.016 
L 314.994408 131.029333 
L 315.254236 131.029333 
L 315.514063 128.042667 
L 316.033718 128.042667 
L 316.293546 125.056 
L 316.553373 125.056 
L 316.813201 128.042667 
L 317.073028 128.042667 
L 317.332856 131.029333 
L 317.592684 131.029333 
L 318.112339 137.002667 
L 318.372166 137.002667 
L 318.891821 142.976 
L 319.151649 148.949333 
L 321.23027 172.842667 
L 321.490097 172.842667 
L 321.749925 175.829333 
L 322.529407 175.829333 
L 322.789235 172.842667 
L 323.568718 172.842667 
L 324.088373 166.869333 
L 324.3482 166.869333 
L 324.867856 160.896 
L 325.127683 154.922667 
L 326.686648 137.002667 
L 326.946476 137.002667 
L 327.206304 134.016 
L 327.725959 134.016 
L 327.985786 131.029333 
L 329.284924 131.029333 
L 329.544752 134.016 
L 329.804579 134.016 
L 330.324234 139.989333 
L 330.584062 139.989333 
L 330.84389 142.976 
L 331.103717 148.949333 
L 331.8832 157.909333 
L 332.143027 163.882667 
L 332.92251 172.842667 
L 333.182338 172.842667 
L 333.442165 175.829333 
L 335.001131 175.829333 
L 335.260958 172.842667 
L 335.520786 172.842667 
L 335.780613 169.856 
L 336.040441 169.856 
L 336.300268 166.869333 
L 336.560096 166.869333 
L 338.638717 142.976 
L 338.898544 142.976 
L 339.678027 134.016 
L 339.937854 134.016 
L 340.197682 131.029333 
L 340.717337 131.029333 
L 340.977165 128.042667 
L 341.756647 128.042667 
L 342.016475 131.029333 
L 342.276303 131.029333 
L 344.095095 151.936 
L 344.354923 157.909333 
L 344.614751 157.909333 
L 345.654061 169.856 
L 346.173716 169.856 
L 346.433544 172.842667 
L 347.213026 172.842667 
L 347.472854 169.856 
L 347.992509 169.856 
L 348.252337 166.869333 
L 348.512164 166.869333 
L 348.771992 163.882667 
L 349.291647 163.882667 
L 349.551474 160.896 
L 349.811302 160.896 
L 350.07113 157.909333 
L 350.330957 157.909333 
L 350.590785 154.922667 
L 350.850612 154.922667 
L 351.370267 148.949333 
L 351.630095 148.949333 
L 352.669405 137.002667 
L 352.929233 137.002667 
L 353.18906 134.016 
L 353.708715 134.016 
L 353.968543 131.029333 
L 354.748026 131.029333 
L 355.007853 134.016 
L 355.267681 134.016 
L 356.826646 151.936 
L 357.086474 157.909333 
L 357.606129 163.882667 
L 357.865957 163.882667 
L 358.385612 169.856 
L 359.165094 169.856 
L 359.424922 172.842667 
L 360.204405 172.842667 
L 360.464232 169.856 
L 360.72406 169.856 
L 361.76337 157.909333 
L 362.283025 157.909333 
L 362.542853 154.922667 
L 362.80268 154.922667 
L 363.062508 151.936 
L 363.322335 151.936 
L 363.582163 148.949333 
L 363.841991 148.949333 
L 364.361646 142.976 
L 364.621473 142.976 
L 364.881301 139.989333 
L 365.400956 139.989333 
L 365.660784 137.002667 
L 365.920611 137.002667 
L 366.180439 139.989333 
L 366.440266 139.989333 
L 366.700094 142.976 
L 366.959921 142.976 
L 367.999232 154.922667 
L 368.259059 154.922667 
L 368.778714 160.896 
L 369.038542 160.896 
L 369.29837 163.882667 
L 369.558197 163.882667 
L 370.597507 175.829333 
L 370.857335 175.829333 
L 371.117163 178.816 
L 372.935955 178.816 
L 373.455611 172.842667 
L 373.715438 172.842667 
L 374.494921 163.882667 
L 374.754748 157.909333 
L 375.534231 148.949333 
L 375.794059 142.976 
L 376.053886 139.989333 
L 376.313714 139.989333 
L 376.573541 137.002667 
L 377.093197 137.002667 
L 377.353024 134.016 
L 378.652162 134.016 
L 378.91199 137.002667 
L 379.171817 137.002667 
L 379.691472 142.976 
L 379.9513 142.976 
L 380.470955 148.949333 
L 380.730782 148.949333 
L 380.99061 151.936 
L 381.250438 151.936 
L 381.510265 154.922667 
L 381.770093 154.922667 
L 382.02992 157.909333 
L 382.549575 157.909333 
L 382.809403 160.896 
L 383.069231 160.896 
L 383.329058 163.882667 
L 383.848713 163.882667 
L 384.108541 166.869333 
L 386.187161 166.869333 
L 386.446989 163.882667 
L 386.706817 163.882667 
L 388.005954 148.949333 
L 388.265782 148.949333 
L 389.045265 139.989333 
L 390.344402 139.989333 
L 390.60423 142.976 
L 390.864058 142.976 
L 391.383713 148.949333 
L 391.64354 148.949333 
L 393.462333 169.856 
L 394.241816 169.856 
L 394.501644 172.842667 
L 395.281126 172.842667 
L 395.540954 169.856 
L 395.800781 169.856 
L 396.060609 166.869333 
L 396.320437 166.869333 
L 396.840092 160.896 
L 397.359747 160.896 
L 397.619574 157.909333 
L 397.879402 157.909333 
L 398.13923 154.922667 
L 398.658885 154.922667 
L 398.918712 151.936 
L 399.17854 151.936 
L 399.438367 148.949333 
L 399.958022 148.949333 
L 400.21785 145.962667 
L 400.477678 145.962667 
L 400.737505 142.976 
L 401.25716 142.976 
L 401.516988 139.989333 
L 402.036643 139.989333 
L 402.296471 142.976 
L 402.816126 142.976 
L 403.075953 145.962667 
L 403.335781 145.962667 
L 404.115264 154.922667 
L 404.375091 154.922667 
L 405.154574 163.882667 
L 405.414401 169.856 
L 405.674229 169.856 
L 406.453712 178.816 
L 408.272505 178.816 
L 408.532332 175.829333 
L 408.79216 175.829333 
L 409.051987 172.842667 
L 409.311815 172.842667 
L 410.091298 163.882667 
L 410.351125 163.882667 
L 410.610953 157.909333 
L 412.429746 137.002667 
L 412.689573 137.002667 
L 412.949401 134.016 
L 413.469056 134.016 
L 413.728884 131.029333 
L 414.248539 131.029333 
L 414.508366 134.016 
L 415.028021 134.016 
L 415.807504 142.976 
L 416.067332 142.976 
L 416.846814 151.936 
L 417.106642 157.909333 
L 417.366469 157.909333 
L 418.145952 166.869333 
L 419.185262 166.869333 
L 419.44509 169.856 
L 419.704918 166.869333 
L 420.4844 166.869333 
L 420.744228 169.856 
L 421.263883 169.856 
L 421.523711 166.869333 
L 421.783538 166.869333 
L 422.043366 163.882667 
L 422.303193 163.882667 
L 422.822848 157.909333 
L 423.082676 157.909333 
L 424.121986 145.962667 
L 424.381814 145.962667 
L 424.641641 142.976 
L 425.161297 142.976 
L 425.421124 139.989333 
L 426.720262 139.989333 
L 427.239917 145.962667 
L 427.499745 145.962667 
L 428.279227 154.922667 
L 428.539055 160.896 
L 429.05871 166.869333 
L 429.318538 166.869333 
L 429.578365 169.856 
L 431.656986 169.856 
L 431.916813 166.869333 
L 434.255261 166.869333 
L 434.515089 163.882667 
L 434.774917 163.882667 
L 435.034744 160.896 
L 435.294572 160.896 
L 435.814227 154.922667 
L 436.074054 154.922667 
L 437.113365 142.976 
L 437.373192 142.976 
L 437.63302 139.989333 
L 437.892847 139.989333 
L 438.152675 137.002667 
L 438.412502 137.002667 
L 438.67233 139.989333 
L 439.191985 139.989333 
L 439.451813 142.976 
L 439.71164 142.976 
L 439.971468 145.962667 
L 440.491123 145.962667 
L 440.750951 148.949333 
L 441.010778 148.949333 
L 442.050088 160.896 
L 442.309916 160.896 
L 442.569744 163.882667 
L 442.829571 163.882667 
L 443.089399 166.869333 
L 443.609054 166.869333 
L 443.868881 169.856 
L 444.648364 169.856 
L 444.908192 166.869333 
L 445.427847 166.869333 
L 445.687674 163.882667 
L 445.947502 163.882667 
L 446.207329 160.896 
L 446.467157 160.896 
L 447.506467 148.949333 
L 447.766295 148.949333 
L 448.026122 145.962667 
L 448.28595 145.962667 
L 448.545778 142.976 
L 449.065433 142.976 
L 449.32526 145.962667 
L 449.585088 145.962667 
L 450.104743 157.909333 
L 450.624398 178.816 
L 451.144053 211.669333 
L 451.663708 259.456 
L 452.443191 349.056 
L 454.002156 522.282667 
L 454.521812 558.122667 
L 455.041467 582.016 
L 455.301294 587.989333 
L 455.561122 590.976 
L 456.080777 590.976 
L 456.340605 587.989333 
L 456.600432 582.016 
L 456.86026 582.016 
L 457.120087 579.029333 
L 457.379915 573.056 
L 457.639742 570.069333 
L 457.89957 564.096 
L 458.159398 561.109333 
L 458.679053 549.162667 
L 459.978191 501.376 
L 460.757673 462.549333 
L 462.056811 393.856 
L 463.096121 361.002667 
L 463.875604 361.002667 
L 464.395259 366.976 
L 466.214052 408.789333 
L 466.47388 411.776 
L 466.733707 417.749333 
L 466.993535 420.736 
L 467.773018 438.656 
L 468.812328 450.602667 
L 469.331983 450.602667 
L 470.111466 441.642667 
L 470.631121 429.696 
L 472.969569 352.042667 
L 473.229396 346.069333 
L 473.749052 331.136 
L 474.008879 325.162667 
L 474.268707 322.176 
L 474.788362 310.229333 
L 475.048189 307.242667 
L 475.308017 301.269333 
L 475.567845 298.282667 
L 475.827672 292.309333 
L 476.0875 289.322667 
L 477.386638 289.322667 
L 477.906293 295.296 
L 478.16612 295.296 
L 478.945603 304.256 
L 479.205431 310.229333 
L 479.725086 316.202667 
L 479.984913 316.202667 
L 480.244741 319.189333 
L 482.063534 319.189333 
L 483.102844 307.242667 
L 484.401982 277.376 
L 485.181465 253.482667 
L 486.480602 223.616 
L 486.74043 220.629333 
L 487.000258 214.656 
L 487.77974 205.696 
L 488.039568 205.696 
L 488.299395 208.682667 
L 488.559223 208.682667 
L 488.819051 211.669333 
L 489.078878 211.669333 
L 489.338706 214.656 
L 489.858361 214.656 
L 490.118188 217.642667 
L 490.378016 217.642667 
L 491.677154 232.576 
L 491.936981 238.549333 
L 492.716464 247.509333 
L 492.976292 247.509333 
L 493.236119 250.496 
L 494.015602 250.496 
L 494.275429 247.509333 
L 494.795085 247.509333 
L 496.613878 226.602667 
L 496.873705 220.629333 
L 497.133533 217.642667 
L 497.39336 211.669333 
L 497.653188 208.682667 
L 498.172843 196.736 
L 498.692498 190.762667 
L 498.952326 184.789333 
L 499.471981 178.816 
L 499.731808 178.816 
L 500.251463 172.842667 
L 500.771119 172.842667 
L 501.030946 175.829333 
L 501.290774 175.829333 
L 502.070256 184.789333 
L 502.330084 190.762667 
L 503.369394 202.709333 
L 503.629222 208.682667 
L 504.408705 217.642667 
L 504.668532 217.642667 
L 504.92836 220.629333 
L 507.00698 220.629333 
L 507.266808 217.642667 
L 507.526635 217.642667 
L 508.306118 208.682667 
L 508.565946 202.709333 
L 508.825773 199.722667 
L 509.085601 193.749333 
L 509.605256 187.776 
L 509.865083 181.802667 
L 510.384739 181.802667 
L 510.644566 178.816 
L 512.203532 178.816 
L 512.463359 175.829333 
L 512.983014 175.829333 
L 513.242842 172.842667 
L 513.762497 172.842667 
L 514.022325 175.829333 
L 514.282152 175.829333 
L 514.801807 181.802667 
L 515.061635 181.802667 
L 515.841118 190.762667 
L 516.100945 190.762667 
L 516.360773 193.749333 
L 516.6206 199.722667 
L 517.400083 208.682667 
L 517.659911 208.682667 
L 517.919738 211.669333 
L 518.699221 211.669333 
L 518.959048 208.682667 
L 519.218876 208.682667 
L 519.998359 199.722667 
L 520.258186 193.749333 
L 520.518014 190.762667 
L 520.777841 184.789333 
L 521.037669 181.802667 
L 521.557324 169.856 
L 522.076979 163.882667 
L 522.336807 157.909333 
L 522.856462 151.936 
L 523.376117 151.936 
L 523.635945 148.949333 
L 524.415427 148.949333 
L 524.675255 151.936 
L 525.454738 151.936 
L 525.714565 154.922667 
L 526.23422 154.922667 
L 526.494048 157.909333 
L 526.753875 157.909333 
L 527.533358 166.869333 
L 527.793186 166.869333 
L 529.092323 181.802667 
L 529.352151 181.802667 
L 530.131634 190.762667 
L 531.170944 190.762667 
L 531.430772 187.776 
L 531.690599 187.776 
L 531.950427 181.802667 
L 532.210254 178.816 
L 533.249565 154.922667 
L 533.509392 151.936 
L 534.029047 139.989333 
L 534.288875 137.002667 
L 534.548702 131.029333 
L 535.068358 125.056 
L 535.328185 125.056 
L 535.588013 122.069333 
L 535.84784 122.069333 
L 536.107668 125.056 
L 536.367495 125.056 
L 537.406806 137.002667 
L 537.666633 142.976 
L 538.446116 151.936 
L 538.705943 157.909333 
L 538.965771 160.896 
L 539.225599 166.869333 
L 540.264909 178.816 
L 540.524736 178.816 
L 540.784564 181.802667 
L 541.044392 181.802667 
L 541.304219 184.789333 
L 541.564047 184.789333 
L 541.823874 187.776 
L 542.343529 187.776 
L 542.603357 190.762667 
L 543.902495 190.762667 
L 545.981115 166.869333 
L 546.240943 160.896 
L 546.50077 157.909333 
L 547.020426 145.962667 
L 547.280253 142.976 
L 547.540081 137.002667 
L 548.059736 131.029333 
L 548.319563 131.029333 
L 548.579391 128.042667 
L 548.839219 128.042667 
L 549.099046 131.029333 
L 549.358874 131.029333 
L 549.618701 134.016 
L 549.878529 134.016 
L 550.138356 137.002667 
L 550.398184 142.976 
L 550.917839 148.949333 
L 551.177667 154.922667 
L 551.437494 157.909333 
L 551.697322 163.882667 
L 551.957149 166.869333 
L 552.216977 172.842667 
L 552.736632 178.816 
L 552.99646 184.789333 
L 553.516115 190.762667 
L 553.775942 196.736 
L 554.03577 196.736 
L 554.295598 199.722667 
L 555.07508 199.722667 
L 555.334908 196.736 
L 555.594735 196.736 
L 556.374218 187.776 
L 556.634046 181.802667 
L 557.153701 175.829333 
L 557.413528 169.856 
L 557.673356 166.869333 
L 557.933183 160.896 
L 558.193011 157.909333 
L 558.452839 151.936 
L 558.972494 145.962667 
L 559.232321 139.989333 
L 560.531459 125.056 
L 561.830597 125.056 
L 563.129735 139.989333 
L 564.169045 163.882667 
L 564.428873 166.869333 
L 564.6887 172.842667 
L 564.948528 175.829333 
L 565.208355 181.802667 
L 565.72801 187.776 
L 565.987838 193.749333 
L 566.247666 193.749333 
L 566.767321 199.722667 
L 567.027148 199.722667 
L 567.286976 202.709333 
L 567.806631 202.709333 
L 568.586114 193.749333 
L 569.885252 163.882667 
L 570.145079 160.896 
L 570.924562 142.976 
L 572.483527 125.056 
L 572.743355 125.056 
L 573.003182 122.069333 
L 573.26301 122.069333 
L 573.522837 119.082667 
L 573.782665 122.069333 
L 574.042493 122.069333 
L 574.30232 125.056 
L 574.562148 125.056 
L 575.34163 134.016 
L 575.601458 139.989333 
L 576.121113 145.962667 
L 576.380941 151.936 
L 576.640768 154.922667 
L 576.900596 160.896 
L 577.420251 166.869333 
L 577.680079 172.842667 
L 578.979216 187.776 
L 579.239044 187.776 
L 579.498872 190.762667 
L 579.758699 190.762667 
L 580.018527 187.776 
L 580.278354 187.776 
L 580.798009 181.802667 
L 581.057837 181.802667 
L 581.317665 175.829333 
L 581.83732 169.856 
L 582.097147 163.882667 
L 582.356975 160.896 
L 582.616802 154.922667 
L 582.87663 151.936 
L 583.136457 145.962667 
L 583.656113 139.989333 
L 583.91594 134.016 
L 584.435595 128.042667 
L 584.695423 128.042667 
L 585.215078 122.069333 
L 585.474906 122.069333 
L 585.734733 119.082667 
L 586.514216 119.082667 
L 587.293699 128.042667 
L 587.553526 134.016 
L 587.813354 137.002667 
L 588.073181 142.976 
L 588.333009 145.962667 
L 588.852664 157.909333 
L 589.112492 160.896 
L 589.891974 178.816 
L 591.191112 193.749333 
L 591.710767 193.749333 
L 591.970595 196.736 
L 592.230422 196.736 
L 592.49025 193.749333 
L 592.750077 193.749333 
L 594.049215 178.816 
L 594.309043 172.842667 
L 595.348353 160.896 
L 595.608181 154.922667 
L 596.387663 145.962667 
L 596.647491 139.989333 
L 597.686801 128.042667 
L 597.946629 128.042667 
L 598.206456 125.056 
L 598.726112 125.056 
L 598.985939 128.042667 
L 599.245767 128.042667 
L 599.765422 134.016 
L 600.025249 139.989333 
L 600.285077 142.976 
L 600.544905 148.949333 
L 600.804732 151.936 
L 601.324387 163.882667 
L 601.584215 166.869333 
L 601.844042 172.842667 
L 602.10387 175.829333 
L 602.363697 181.802667 
L 603.14318 190.762667 
L 603.403008 190.762667 
L 603.662835 193.749333 
L 603.922663 193.749333 
L 604.18249 196.736 
L 604.442318 196.736 
L 604.702146 193.749333 
L 604.961973 193.749333 
L 607.300421 166.869333 
L 607.560249 166.869333 
L 609.638869 142.976 
L 609.898697 137.002667 
L 610.67818 128.042667 
L 610.938007 128.042667 
L 611.197835 125.056 
L 611.457662 125.056 
L 611.71749 128.042667 
L 611.977317 128.042667 
L 612.496973 134.016 
L 612.7568 139.989333 
L 613.276455 145.962667 
L 613.536283 151.936 
L 613.79611 154.922667 
L 614.055938 160.896 
L 614.835421 169.856 
L 615.095248 169.856 
L 616.134559 181.802667 
L 616.394386 181.802667 
L 616.654214 184.789333 
L 617.433696 184.789333 
L 617.693524 181.802667 
L 617.953352 181.802667 
L 618.732834 172.842667 
L 618.992662 166.869333 
L 622.890075 122.069333 
L 623.149903 122.069333 
L 623.40973 119.082667 
L 624.189213 119.082667 
L 625.488351 134.016 
L 625.748179 139.989333 
L 626.008006 142.976 
L 626.267834 148.949333 
L 626.787489 154.922667 
L 627.047316 160.896 
L 627.826799 169.856 
L 628.086627 169.856 
L 628.866109 178.816 
L 629.90542 178.816 
L 632.243868 151.936 
L 632.503695 151.936 
L 633.283178 142.976 
L 634.062661 142.976 
L 634.322488 139.989333 
L 636.141281 139.989333 
L 636.401109 142.976 
L 637.180592 142.976 
L 637.960074 151.936 
L 638.219902 151.936 
L 638.739557 157.909333 
L 638.999384 163.882667 
L 639.51904 169.856 
L 639.778867 169.856 
L 640.038695 172.842667 
L 642.117315 172.842667 
L 642.377143 169.856 
L 642.63697 169.856 
L 642.896798 166.869333 
L 643.156626 166.869333 
L 643.676281 160.896 
L 643.936108 160.896 
L 644.975419 148.949333 
L 645.235246 148.949333 
L 645.754901 142.976 
L 646.014729 142.976 
L 646.274556 139.989333 
L 647.833522 139.989333 
L 648.093349 142.976 
L 648.872832 142.976 
L 649.392487 148.949333 
L 649.652315 148.949333 
L 649.912142 151.936 
L 650.17197 151.936 
L 650.431797 154.922667 
L 650.691625 154.922667 
L 650.951453 157.909333 
L 651.471108 157.909333 
L 651.730935 160.896 
L 652.770246 160.896 
L 653.030073 163.882667 
L 653.809556 163.882667 
L 654.069383 160.896 
L 654.329211 160.896 
L 654.589039 157.909333 
L 654.848866 157.909333 
L 655.368521 151.936 
L 655.628349 151.936 
L 656.148004 145.962667 
L 656.407831 145.962667 
L 656.667659 142.976 
L 657.447142 142.976 
L 657.706969 139.989333 
L 660.8249 139.989333 
L 661.084728 142.976 
L 661.86421 142.976 
L 662.383866 148.949333 
L 662.643693 148.949333 
L 662.903521 151.936 
L 663.163348 151.936 
L 663.423176 154.922667 
L 663.683003 154.922667 
L 663.942831 157.909333 
L 664.462486 157.909333 
L 664.722314 160.896 
L 665.501796 160.896 
L 665.761624 157.909333 
L 666.021451 157.909333 
L 666.281279 154.922667 
L 666.541107 154.922667 
L 667.060762 148.949333 
L 667.580417 148.949333 
L 667.840244 145.962667 
L 668.100072 145.962667 
L 668.3599 142.976 
L 668.619727 142.976 
L 668.879555 139.989333 
L 669.39921 139.989333 
L 669.659037 137.002667 
L 670.958175 137.002667 
L 671.218003 139.989333 
L 671.737658 139.989333 
L 671.997486 142.976 
L 672.257313 142.976 
L 672.517141 145.962667 
L 673.036796 145.962667 
L 673.296623 148.949333 
L 673.556451 148.949333 
L 674.595761 160.896 
L 674.855589 160.896 
L 675.115416 163.882667 
L 676.154727 163.882667 
L 676.414554 166.869333 
L 677.194037 166.869333 
L 677.453864 163.882667 
L 677.713692 163.882667 
L 677.97352 160.896 
L 678.233347 160.896 
L 678.753002 154.922667 
L 679.01283 154.922667 
L 680.05214 142.976 
L 680.311968 142.976 
L 680.831623 137.002667 
L 681.09145 137.002667 
L 681.351278 134.016 
L 681.870933 134.016 
L 682.130761 137.002667 
L 682.650416 137.002667 
L 683.429899 145.962667 
L 683.689726 145.962667 
L 684.988864 160.896 
L 685.248691 160.896 
L 685.768347 166.869333 
L 686.028174 166.869333 
L 686.288002 169.856 
L 686.547829 169.856 
L 686.807657 172.842667 
L 688.106795 172.842667 
L 688.366622 169.856 
L 688.62645 169.856 
L 689.146105 163.882667 
L 689.405933 163.882667 
L 689.66576 160.896 
L 689.925588 160.896 
L 690.445243 154.922667 
L 690.70507 154.922667 
L 693.823001 119.082667 
L 694.082829 119.082667 
L 694.342656 116.096 
L 694.602484 116.096 
L 694.862311 119.082667 
L 695.122139 119.082667 
L 695.641794 125.056 
L 695.901622 131.029333 
L 696.421277 137.002667 
L 696.681104 142.976 
L 696.940932 145.962667 
L 697.20076 151.936 
L 698.24007 163.882667 
L 698.499897 169.856 
L 698.759725 172.842667 
L 699.019553 178.816 
L 699.27938 181.802667 
L 699.539208 181.802667 
L 699.799035 184.789333 
L 700.058863 184.789333 
L 700.31869 181.802667 
L 700.578518 181.802667 
L 700.838346 178.816 
L 701.098173 178.816 
L 703.176794 154.922667 
L 703.436621 148.949333 
L 705.255414 128.042667 
L 705.515242 128.042667 
L 706.034897 122.069333 
L 707.334035 122.069333 
L 707.85369 128.042667 
L 708.113517 128.042667 
L 710.192138 151.936 
L 710.451966 157.909333 
L 710.971621 163.882667 
L 711.231448 163.882667 
L 711.751103 169.856 
L 713.569896 169.856 
L 713.829724 166.869333 
L 714.089551 166.869333 
L 714.869034 157.909333 
L 715.128862 151.936 
L 716.428 137.002667 
L 716.687827 137.002667 
L 716.947655 134.016 
L 717.46731 134.016 
L 717.727137 131.029333 
L 718.50662 131.029333 
L 718.766448 128.042667 
L 719.805758 128.042667 
L 720.065586 131.029333 
L 720.325413 131.029333 
L 720.845068 137.002667 
L 721.104896 142.976 
L 723.443344 169.856 
L 723.703171 175.829333 
L 723.962999 175.829333 
L 725.002309 187.776 
L 726.04162 187.776 
L 727.860413 166.869333 
L 728.12024 160.896 
L 728.380068 157.909333 
L 728.639895 151.936 
L 728.899723 148.949333 
L 729.679206 131.029333 
L 729.939033 128.042667 
L 730.198861 122.069333 
L 730.458688 119.082667 
L 730.718516 113.109333 
L 730.978343 113.109333 
L 731.238171 110.122667 
L 731.497998 110.122667 
L 731.757826 113.109333 
L 732.017654 113.109333 
L 732.277481 116.096 
L 732.537309 122.069333 
L 732.797136 125.056 
L 733.056964 131.029333 
L 733.316791 134.016 
L 734.356102 157.909333 
L 734.615929 160.896 
L 735.135584 172.842667 
L 735.395412 175.829333 
L 735.65524 181.802667 
L 735.915067 184.789333 
L 736.174895 190.762667 
L 736.954377 199.722667 
L 737.73386 199.722667 
L 739.552653 178.816 
L 739.812481 172.842667 
L 740.072308 169.856 
L 740.332136 163.882667 
L 740.591963 160.896 
L 741.111618 148.949333 
L 741.371446 145.962667 
L 741.891101 134.016 
L 742.150929 131.029333 
L 742.410756 125.056 
L 742.670584 122.069333 
L 742.930411 116.096 
L 743.709894 107.136 
L 744.229549 107.136 
L 744.489377 110.122667 
L 744.749204 110.122667 
L 745.009032 113.109333 
L 746.30817 142.976 
L 746.827825 157.909333 
L 747.34748 169.856 
L 747.607308 172.842667 
L 747.867135 178.816 
L 748.646618 187.776 
L 748.906445 187.776 
L 749.166273 190.762667 
L 749.426101 190.762667 
L 749.685928 193.749333 
L 749.945756 193.749333 
L 750.205583 190.762667 
L 750.725238 190.762667 
L 751.504721 181.802667 
L 751.764549 181.802667 
L 752.284204 175.829333 
L 752.544031 169.856 
L 753.843169 154.922667 
L 754.362824 142.976 
L 754.622652 139.989333 
L 755.402135 122.069333 
L 755.92179 116.096 
L 756.181617 116.096 
L 756.441445 113.109333 
L 756.701273 113.109333 
L 756.9611 116.096 
L 757.220928 116.096 
L 758.00041 125.056 
L 758.520065 137.002667 
L 758.779893 139.989333 
L 760.338858 175.829333 
L 760.598686 178.816 
L 760.858514 184.789333 
L 761.637996 193.749333 
L 761.897824 193.749333 
L 762.157651 196.736 
L 762.417479 196.736 
L 762.677307 193.749333 
L 762.937134 193.749333 
L 763.196962 190.762667 
L 763.456789 190.762667 
L 763.716617 187.776 
L 763.976444 181.802667 
L 764.236272 178.816 
L 764.4961 172.842667 
L 764.755927 169.856 
L 765.015755 163.882667 
L 765.53541 148.949333 
L 765.795237 142.976 
L 766.055065 139.989333 
L 766.57472 128.042667 
L 766.834548 125.056 
L 767.094375 119.082667 
L 767.873858 110.122667 
L 768.133685 110.122667 
L 768.393513 107.136 
L 769.172996 107.136 
L 769.432823 110.122667 
L 769.692651 110.122667 
L 770.472134 119.082667 
L 770.731961 125.056 
L 770.991789 128.042667 
L 771.771271 151.936 
L 773.070409 181.802667 
L 773.590064 187.776 
L 773.849892 193.749333 
L 774.10972 196.736 
L 774.369547 196.736 
L 774.629375 199.722667 
L 774.889202 199.722667 
L 775.14903 202.709333 
L 775.408857 199.722667 
L 775.668685 199.722667 
L 776.448168 190.762667 
L 776.707995 184.789333 
L 776.967823 181.802667 
L 777.22765 175.829333 
L 777.747305 160.896 
L 778.266961 148.949333 
L 778.786616 134.016 
L 779.046443 131.029333 
L 779.306271 125.056 
L 780.345581 113.109333 
L 780.605409 113.109333 
L 780.865236 110.122667 
L 781.384891 110.122667 
L 782.684029 125.056 
L 782.943857 131.029333 
L 783.203684 134.016 
L 783.72334 145.962667 
L 783.983167 148.949333 
L 785.022477 172.842667 
L 785.282305 175.829333 
L 785.542132 181.802667 
L 785.80196 184.789333 
L 786.061788 190.762667 
L 786.321615 193.749333 
L 786.581443 193.749333 
L 786.84127 196.736 
L 787.620753 196.736 
L 787.880581 193.749333 
L 788.140408 193.749333 
L 788.400236 190.762667 
L 788.660063 184.789333 
L 788.919891 181.802667 
L 789.179718 175.829333 
L 789.439546 172.842667 
L 790.998511 137.002667 
L 791.258339 134.016 
L 791.777994 122.069333 
L 792.557477 113.109333 
L 792.817304 113.109333 
L 793.077132 110.122667 
L 793.33696 110.122667 
L 793.856615 116.096 
L 794.116442 116.096 
L 795.155752 128.042667 
L 795.41558 134.016 
L 795.675408 137.002667 
L 796.974545 166.869333 
L 796.974545 166.869333 
" clip-path="url(#pee6179b33f)" style="fill: none; stroke: #1f77b4; stroke-width: 1.5; stroke-linecap: square"/>
    <defs>
     <path id="md7c5df243e" d="M 0 1.5 
C 0.397805 1.5 0.77937 1.341951 1.06066 1.06066 
C 1.341951 0.77937 1.5 0.397805 1.5 0 
C 1.5 -0.397805 1.341951 -0.77937 1.06066 -1.06066 
C 0.77937 -1.341951 0.397805 -1.5 0 -1.5 
C -0.397805 -1.5 -0.77937 -1.341951 -1.06066 -1.06066 
C -1.341951 -0.77937 -1.5 -0.397805 -1.5 0 
C -1.5 0.397805 -1.341951 0.77937 -1.06066 1.06066 
C -0.77937 1.341951 -0.397805 1.5 0 1.5 
z
" style="stroke: #1f77b4"/>
    </defs>
    <g clip-path="url(#pee6179b33f)">
     <use xlink:href="#md7c5df243e" x="147.665455" y="169.856" style="fill: #1f77b4; stroke: #1f77b4"/>
     <use xlink:href="#md7c5df243e" x="150.26373" y="175.829333" style="fill: #1f77b4; stroke: #1f77b4"/>
     <use xlink:href="#md7c5df243e" x="152.862006" y="148.949333" style="fill: #1f77b4; stroke: #1f77b4"/>
     <use xlink:href="#md7c5df243e" x="155.460282" y="128.042667" style="fill: #1f77b4; stroke: #1f77b4"/>
     <use xlink:href="#md7c5df243e" x="158.058557" y="154.922667" style="fill: #1f77b4; stroke: #1f77b4"/>
     <use xlink:href="#md7c5df243e" x="160.656833" y="178.816" style="fill: #1f77b4; stroke: #1f77b4"/>
     <use xlink:href="#md7c5df243e" x="163.255109" y="175.829333" style="fill: #1f77b4; stroke: #1f77b4"/>
     <use xlink:href="#md7c5df243e" x="165.853384" y="137.002667" style="fill: #1f77b4; stroke: #1f77b4"/>
     <use xlink:href="#md7c5df243e" x="168.45166" y="113.109333" style="fill: #1f77b4; stroke: #1f77b4"/>
     <use xlink:href="#md7c5df243e" x="171.049936" y="142.976" style="fill: #1f77b4; stroke: #1f77b4"/>
     <use xlink:href="#md7c5df243e" x="173.648211" y="172.842667" style="fill: #1f77b4; stroke: #1f77b4"/>
     <use xlink:href="#md7c5df243e" x="176.246487" y="163.882667" style="fill: #1f77b4; stroke: #1f77b4"/>
     <use xlink:href="#md7c5df243e" x="178.844763" y="142.976" style="fill: #1f77b4; stroke: #1f77b4"/>
     <use xlink:href="#md7c5df243e" x="181.443038" y="139.989333" style="fill: #1f77b4; stroke: #1f77b4"/>
     <use xlink:href="#md7c5df243e" x="184.041314" y="160.896" style="fill: #1f77b4; stroke: #1f77b4"/>
     <use xlink:href="#md7c5df243e" x="186.63959" y="187.776" style="fill: #1f77b4; stroke: #1f77b4"/>
     <use xlink:href="#md7c5df243e" x="189.237865" y="163.882667" style="fill: #1f77b4; stroke: #1f77b4"/>
     <use xlink:href="#md7c5df243e" x="191.836141" y="134.016" style="fill: #1f77b4; stroke: #1f77b4"/>
     <use xlink:href="#md7c5df243e" x="194.434417" y="137.002667" style="fill: #1f77b4; stroke: #1f77b4"/>
     <use xlink:href="#md7c5df243e" x="197.032692" y="163.882667" style="fill: #1f77b4; stroke: #1f77b4"/>
     <use xlink:href="#md7c5df243e" x="199.630968" y="184.789333" style="fill: #1f77b4; stroke: #1f77b4"/>
     <use xlink:href="#md7c5df243e" x="202.229244" y="145.962667" style="fill: #1f77b4; stroke: #1f77b4"/>
     <use xlink:href="#md7c5df243e" x="204.827519" y="122.069333" style="fill: #1f77b4; stroke: #1f77b4"/>
     <use xlink:href="#md7c5df243e" x="207.425795" y="137.002667" style="fill: #1f77b4; stroke: #1f77b4"/>
     <use xlink:href="#md7c5df243e" x="210.024071" y="169.856" style="fill: #1f77b4; stroke: #1f77b4"/>
     <use xlink:href="#md7c5df243e" x="212.622346" y="187.776" style="fill: #1f77b4; stroke: #1f77b4"/>
     <use xlink:href="#md7c5df243e" x="215.220622" y="145.962667" style="fill: #1f77b4; stroke: #1f77b4"/>
     <use xlink:href="#md7c5df243e" x="217.818898" y="131.029333" style="fill: #1f77b4; stroke: #1f77b4"/>
     <use xlink:href="#md7c5df243e" x="220.417173" y="142.976" style="fill: #1f77b4; stroke: #1f77b4"/>
     <use xlink:href="#md7c5df243e" x="223.015449" y="163.882667" style="fill: #1f77b4; stroke: #1f77b4"/>
     <use xlink:href="#md7c5df243e" x="225.613725" y="169.856" style="fill: #1f77b4; stroke: #1f77b4"/>
     <use xlink:href="#md7c5df243e" x="228.212" y="139.989333" style="fill: #1f77b4; stroke: #1f77b4"/>
     <use xlink:href="#md7c5df243e" x="230.810276" y="131.029333" style="fill: #1f77b4; stroke: #1f77b4"/>
     <use xlink:href="#md7c5df243e" x="233.408552" y="154.922667" style="fill: #1f77b4; stroke: #1f77b4"/>
     <use xlink:href="#md7c5df243e" x="236.006827" y="175.829333" style="fill: #1f77b4; stroke: #1f77b4"/>
     <use xlink:href="#md7c5df243e" x="238.605103" y="166.869333" style="fill: #1f77b4; stroke: #1f77b4"/>
     <use xlink:href="#md7c5df243e" x="241.203379" y="139.989333" style="fill: #1f77b4; stroke: #1f77b4"/>
     <use xlink:href="#md7c5df243e" x="243.801654" y="125.056" style="fill: #1f77b4; stroke: #1f77b4"/>
     <use xlink:href="#md7c5df243e" x="246.39993" y="148.949333" style="fill: #1f77b4; stroke: #1f77b4"/>
     <use xlink:href="#md7c5df243e" x="248.998206" y="169.856" style="fill: #1f77b4; stroke: #1f77b4"/>
     <use xlink:href="#md7c5df243e" x="251.596482" y="154.922667" style="fill: #1f77b4; stroke: #1f77b4"/>
     <use xlink:href="#md7c5df243e" x="254.194757" y="139.989333" style="fill: #1f77b4; stroke: #1f77b4"/>
     <use xlink:href="#md7c5df243e" x="256.793033" y="137.002667" style="fill: #1f77b4; stroke: #1f77b4"/>
     <use xlink:href="#md7c5df243e" x="259.391309" y="163.882667" style="fill: #1f77b4; stroke: #1f77b4"/>
     <use xlink:href="#md7c5df243e" x="261.989584" y="175.829333" style="fill: #1f77b4; stroke: #1f77b4"/>
     <use xlink:href="#md7c5df243e" x="264.58786" y="160.896" style="fill: #1f77b4; stroke: #1f77b4"/>
     <use xlink:href="#md7c5df243e" x="267.186136" y="142.976" style="fill: #1f77b4; stroke: #1f77b4"/>
     <use xlink:href="#md7c5df243e" x="269.784411" y="145.962667" style="fill: #1f77b4; stroke: #1f77b4"/>
     <use xlink:href="#md7c5df243e" x="272.382687" y="160.896" style="fill: #1f77b4; stroke: #1f77b4"/>
     <use xlink:href="#md7c5df243e" x="274.980963" y="163.882667" style="fill: #1f77b4; stroke: #1f77b4"/>
     <use xlink:href="#md7c5df243e" x="277.579238" y="148.949333" style="fill: #1f77b4; stroke: #1f77b4"/>
     <use xlink:href="#md7c5df243e" x="280.177514" y="139.989333" style="fill: #1f77b4; stroke: #1f77b4"/>
     <use xlink:href="#md7c5df243e" x="282.77579" y="163.882667" style="fill: #1f77b4; stroke: #1f77b4"/>
     <use xlink:href="#md7c5df243e" x="285.374065" y="169.856" style="fill: #1f77b4; stroke: #1f77b4"/>
     <use xlink:href="#md7c5df243e" x="287.972341" y="154.922667" style="fill: #1f77b4; stroke: #1f77b4"/>
     <use xlink:href="#md7c5df243e" x="290.570617" y="154.922667" style="fill: #1f77b4; stroke: #1f77b4"/>
     <use xlink:href="#md7c5df243e" x="293.168892" y="145.962667" style="fill: #1f77b4; stroke: #1f77b4"/>
     <use xlink:href="#md7c5df243e" x="295.767168" y="163.882667" style="fill: #1f77b4; stroke: #1f77b4"/>
     <use xlink:href="#md7c5df243e" x="298.365444" y="163.882667" style="fill: #1f77b4; stroke: #1f77b4"/>
     <use xlink:href="#md7c5df243e" x="300.963719" y="151.936" style="fill: #1f77b4; stroke: #1f77b4"/>
     <use xlink:href="#md7c5df243e" x="303.561995" y="148.949333" style="fill: #1f77b4; stroke: #1f77b4"/>
     <use xlink:href="#md7c5df243e" x="306.160271" y="145.962667" style="fill: #1f77b4; stroke: #1f77b4"/>
     <use xlink:href="#md7c5df243e" x="308.758546" y="175.829333" style="fill: #1f77b4; stroke: #1f77b4"/>
     <use xlink:href="#md7c5df243e" x="311.356822" y="157.909333" style="fill: #1f77b4; stroke: #1f77b4"/>
     <use xlink:href="#md7c5df243e" x="313.955098" y="137.002667" style="fill: #1f77b4; stroke: #1f77b4"/>
     <use xlink:href="#md7c5df243e" x="316.553373" y="125.056" style="fill: #1f77b4; stroke: #1f77b4"/>
     <use xlink:href="#md7c5df243e" x="319.151649" y="148.949333" style="fill: #1f77b4; stroke: #1f77b4"/>
     <use xlink:href="#md7c5df243e" x="321.749925" y="175.829333" style="fill: #1f77b4; stroke: #1f77b4"/>
     <use xlink:href="#md7c5df243e" x="324.3482" y="166.869333" style="fill: #1f77b4; stroke: #1f77b4"/>
     <use xlink:href="#md7c5df243e" x="326.946476" y="137.002667" style="fill: #1f77b4; stroke: #1f77b4"/>
     <use xlink:href="#md7c5df243e" x="329.544752" y="134.016" style="fill: #1f77b4; stroke: #1f77b4"/>
     <use xlink:href="#md7c5df243e" x="332.143027" y="163.882667" style="fill: #1f77b4; stroke: #1f77b4"/>
     <use xlink:href="#md7c5df243e" x="334.741303" y="175.829333" style="fill: #1f77b4; stroke: #1f77b4"/>
     <use xlink:href="#md7c5df243e" x="337.339579" y="157.909333" style="fill: #1f77b4; stroke: #1f77b4"/>
     <use xlink:href="#md7c5df243e" x="339.937854" y="134.016" style="fill: #1f77b4; stroke: #1f77b4"/>
     <use xlink:href="#md7c5df243e" x="342.53613" y="134.016" style="fill: #1f77b4; stroke: #1f77b4"/>
     <use xlink:href="#md7c5df243e" x="345.134406" y="163.882667" style="fill: #1f77b4; stroke: #1f77b4"/>
     <use xlink:href="#md7c5df243e" x="347.732681" y="169.856" style="fill: #1f77b4; stroke: #1f77b4"/>
     <use xlink:href="#md7c5df243e" x="350.330957" y="157.909333" style="fill: #1f77b4; stroke: #1f77b4"/>
     <use xlink:href="#md7c5df243e" x="352.929233" y="137.002667" style="fill: #1f77b4; stroke: #1f77b4"/>
     <use xlink:href="#md7c5df243e" x="355.527508" y="137.002667" style="fill: #1f77b4; stroke: #1f77b4"/>
     <use xlink:href="#md7c5df243e" x="358.125784" y="166.869333" style="fill: #1f77b4; stroke: #1f77b4"/>
     <use xlink:href="#md7c5df243e" x="360.72406" y="169.856" style="fill: #1f77b4; stroke: #1f77b4"/>
     <use xlink:href="#md7c5df243e" x="363.322335" y="151.936" style="fill: #1f77b4; stroke: #1f77b4"/>
     <use xlink:href="#md7c5df243e" x="365.920611" y="137.002667" style="fill: #1f77b4; stroke: #1f77b4"/>
     <use xlink:href="#md7c5df243e" x="368.518887" y="157.909333" style="fill: #1f77b4; stroke: #1f77b4"/>
     <use xlink:href="#md7c5df243e" x="371.117163" y="178.816" style="fill: #1f77b4; stroke: #1f77b4"/>
     <use xlink:href="#md7c5df243e" x="373.715438" y="172.842667" style="fill: #1f77b4; stroke: #1f77b4"/>
     <use xlink:href="#md7c5df243e" x="376.313714" y="139.989333" style="fill: #1f77b4; stroke: #1f77b4"/>
     <use xlink:href="#md7c5df243e" x="378.91199" y="137.002667" style="fill: #1f77b4; stroke: #1f77b4"/>
     <use xlink:href="#md7c5df243e" x="381.510265" y="154.922667" style="fill: #1f77b4; stroke: #1f77b4"/>
     <use xlink:href="#md7c5df243e" x="384.108541" y="166.869333" style="fill: #1f77b4; stroke: #1f77b4"/>
     <use xlink:href="#md7c5df243e" x="386.706817" y="163.882667" style="fill: #1f77b4; stroke: #1f77b4"/>
     <use xlink:href="#md7c5df243e" x="389.305092" y="139.989333" style="fill: #1f77b4; stroke: #1f77b4"/>
     <use xlink:href="#md7c5df243e" x="391.903368" y="151.936" style="fill: #1f77b4; stroke: #1f77b4"/>
     <use xlink:href="#md7c5df243e" x="394.501644" y="172.842667" style="fill: #1f77b4; stroke: #1f77b4"/>
     <use xlink:href="#md7c5df243e" x="397.099919" y="160.896" style="fill: #1f77b4; stroke: #1f77b4"/>
     <use xlink:href="#md7c5df243e" x="399.698195" y="148.949333" style="fill: #1f77b4; stroke: #1f77b4"/>
     <use xlink:href="#md7c5df243e" x="402.296471" y="142.976" style="fill: #1f77b4; stroke: #1f77b4"/>
     <use xlink:href="#md7c5df243e" x="404.894746" y="160.896" style="fill: #1f77b4; stroke: #1f77b4"/>
     <use xlink:href="#md7c5df243e" x="407.493022" y="178.816" style="fill: #1f77b4; stroke: #1f77b4"/>
     <use xlink:href="#md7c5df243e" x="410.091298" y="163.882667" style="fill: #1f77b4; stroke: #1f77b4"/>
     <use xlink:href="#md7c5df243e" x="412.689573" y="137.002667" style="fill: #1f77b4; stroke: #1f77b4"/>
     <use xlink:href="#md7c5df243e" x="415.287849" y="137.002667" style="fill: #1f77b4; stroke: #1f77b4"/>
     <use xlink:href="#md7c5df243e" x="417.886125" y="163.882667" style="fill: #1f77b4; stroke: #1f77b4"/>
     <use xlink:href="#md7c5df243e" x="420.4844" y="166.869333" style="fill: #1f77b4; stroke: #1f77b4"/>
     <use xlink:href="#md7c5df243e" x="423.082676" y="157.909333" style="fill: #1f77b4; stroke: #1f77b4"/>
     <use xlink:href="#md7c5df243e" x="425.680952" y="139.989333" style="fill: #1f77b4; stroke: #1f77b4"/>
     <use xlink:href="#md7c5df243e" x="428.279227" y="154.922667" style="fill: #1f77b4; stroke: #1f77b4"/>
     <use xlink:href="#md7c5df243e" x="430.877503" y="169.856" style="fill: #1f77b4; stroke: #1f77b4"/>
     <use xlink:href="#md7c5df243e" x="433.475779" y="166.869333" style="fill: #1f77b4; stroke: #1f77b4"/>
     <use xlink:href="#md7c5df243e" x="436.074054" y="154.922667" style="fill: #1f77b4; stroke: #1f77b4"/>
     <use xlink:href="#md7c5df243e" x="438.67233" y="139.989333" style="fill: #1f77b4; stroke: #1f77b4"/>
     <use xlink:href="#md7c5df243e" x="441.270606" y="151.936" style="fill: #1f77b4; stroke: #1f77b4"/>
     <use xlink:href="#md7c5df243e" x="443.868881" y="169.856" style="fill: #1f77b4; stroke: #1f77b4"/>
     <use xlink:href="#md7c5df243e" x="446.467157" y="160.896" style="fill: #1f77b4; stroke: #1f77b4"/>
     <use xlink:href="#md7c5df243e" x="449.065433" y="142.976" style="fill: #1f77b4; stroke: #1f77b4"/>
     <use xlink:href="#md7c5df243e" x="451.663708" y="259.456" style="fill: #1f77b4; stroke: #1f77b4"/>
     <use xlink:href="#md7c5df243e" x="454.261984" y="543.189333" style="fill: #1f77b4; stroke: #1f77b4"/>
     <use xlink:href="#md7c5df243e" x="456.86026" y="582.016" style="fill: #1f77b4; stroke: #1f77b4"/>
     <use xlink:href="#md7c5df243e" x="459.458535" y="522.282667" style="fill: #1f77b4; stroke: #1f77b4"/>
     <use xlink:href="#md7c5df243e" x="462.056811" y="393.856" style="fill: #1f77b4; stroke: #1f77b4"/>
     <use xlink:href="#md7c5df243e" x="464.655087" y="372.949333" style="fill: #1f77b4; stroke: #1f77b4"/>
     <use xlink:href="#md7c5df243e" x="467.253362" y="426.709333" style="fill: #1f77b4; stroke: #1f77b4"/>
     <use xlink:href="#md7c5df243e" x="469.851638" y="444.629333" style="fill: #1f77b4; stroke: #1f77b4"/>
     <use xlink:href="#md7c5df243e" x="472.449914" y="369.962667" style="fill: #1f77b4; stroke: #1f77b4"/>
     <use xlink:href="#md7c5df243e" x="475.048189" y="307.242667" style="fill: #1f77b4; stroke: #1f77b4"/>
     <use xlink:href="#md7c5df243e" x="477.646465" y="292.309333" style="fill: #1f77b4; stroke: #1f77b4"/>
     <use xlink:href="#md7c5df243e" x="480.244741" y="319.189333" style="fill: #1f77b4; stroke: #1f77b4"/>
     <use xlink:href="#md7c5df243e" x="482.843016" y="310.229333" style="fill: #1f77b4; stroke: #1f77b4"/>
     <use xlink:href="#md7c5df243e" x="485.441292" y="247.509333" style="fill: #1f77b4; stroke: #1f77b4"/>
     <use xlink:href="#md7c5df243e" x="488.039568" y="205.696" style="fill: #1f77b4; stroke: #1f77b4"/>
     <use xlink:href="#md7c5df243e" x="490.637844" y="220.629333" style="fill: #1f77b4; stroke: #1f77b4"/>
     <use xlink:href="#md7c5df243e" x="493.236119" y="250.496" style="fill: #1f77b4; stroke: #1f77b4"/>
     <use xlink:href="#md7c5df243e" x="495.834395" y="235.562667" style="fill: #1f77b4; stroke: #1f77b4"/>
     <use xlink:href="#md7c5df243e" x="498.432671" y="193.749333" style="fill: #1f77b4; stroke: #1f77b4"/>
     <use xlink:href="#md7c5df243e" x="501.030946" y="175.829333" style="fill: #1f77b4; stroke: #1f77b4"/>
     <use xlink:href="#md7c5df243e" x="503.629222" y="208.682667" style="fill: #1f77b4; stroke: #1f77b4"/>
     <use xlink:href="#md7c5df243e" x="506.227498" y="220.629333" style="fill: #1f77b4; stroke: #1f77b4"/>
     <use xlink:href="#md7c5df243e" x="508.825773" y="199.722667" style="fill: #1f77b4; stroke: #1f77b4"/>
     <use xlink:href="#md7c5df243e" x="511.424049" y="178.816" style="fill: #1f77b4; stroke: #1f77b4"/>
     <use xlink:href="#md7c5df243e" x="514.022325" y="175.829333" style="fill: #1f77b4; stroke: #1f77b4"/>
     <use xlink:href="#md7c5df243e" x="516.6206" y="199.722667" style="fill: #1f77b4; stroke: #1f77b4"/>
     <use xlink:href="#md7c5df243e" x="519.218876" y="208.682667" style="fill: #1f77b4; stroke: #1f77b4"/>
     <use xlink:href="#md7c5df243e" x="521.817152" y="166.869333" style="fill: #1f77b4; stroke: #1f77b4"/>
     <use xlink:href="#md7c5df243e" x="524.415427" y="148.949333" style="fill: #1f77b4; stroke: #1f77b4"/>
     <use xlink:href="#md7c5df243e" x="527.013703" y="160.896" style="fill: #1f77b4; stroke: #1f77b4"/>
     <use xlink:href="#md7c5df243e" x="529.611979" y="184.789333" style="fill: #1f77b4; stroke: #1f77b4"/>
     <use xlink:href="#md7c5df243e" x="532.210254" y="178.816" style="fill: #1f77b4; stroke: #1f77b4"/>
     <use xlink:href="#md7c5df243e" x="534.80853" y="128.042667" style="fill: #1f77b4; stroke: #1f77b4"/>
     <use xlink:href="#md7c5df243e" x="537.406806" y="137.002667" style="fill: #1f77b4; stroke: #1f77b4"/>
     <use xlink:href="#md7c5df243e" x="540.005081" y="175.829333" style="fill: #1f77b4; stroke: #1f77b4"/>
     <use xlink:href="#md7c5df243e" x="542.603357" y="190.762667" style="fill: #1f77b4; stroke: #1f77b4"/>
     <use xlink:href="#md7c5df243e" x="545.201633" y="175.829333" style="fill: #1f77b4; stroke: #1f77b4"/>
     <use xlink:href="#md7c5df243e" x="547.799908" y="134.016" style="fill: #1f77b4; stroke: #1f77b4"/>
     <use xlink:href="#md7c5df243e" x="550.398184" y="142.976" style="fill: #1f77b4; stroke: #1f77b4"/>
     <use xlink:href="#md7c5df243e" x="552.99646" y="184.789333" style="fill: #1f77b4; stroke: #1f77b4"/>
     <use xlink:href="#md7c5df243e" x="555.594735" y="196.736" style="fill: #1f77b4; stroke: #1f77b4"/>
     <use xlink:href="#md7c5df243e" x="558.193011" y="157.909333" style="fill: #1f77b4; stroke: #1f77b4"/>
     <use xlink:href="#md7c5df243e" x="560.791287" y="125.056" style="fill: #1f77b4; stroke: #1f77b4"/>
     <use xlink:href="#md7c5df243e" x="563.389562" y="145.962667" style="fill: #1f77b4; stroke: #1f77b4"/>
     <use xlink:href="#md7c5df243e" x="565.987838" y="193.749333" style="fill: #1f77b4; stroke: #1f77b4"/>
     <use xlink:href="#md7c5df243e" x="568.586114" y="193.749333" style="fill: #1f77b4; stroke: #1f77b4"/>
     <use xlink:href="#md7c5df243e" x="571.184389" y="139.989333" style="fill: #1f77b4; stroke: #1f77b4"/>
     <use xlink:href="#md7c5df243e" x="573.782665" y="122.069333" style="fill: #1f77b4; stroke: #1f77b4"/>
     <use xlink:href="#md7c5df243e" x="576.380941" y="151.936" style="fill: #1f77b4; stroke: #1f77b4"/>
     <use xlink:href="#md7c5df243e" x="578.979216" y="187.776" style="fill: #1f77b4; stroke: #1f77b4"/>
     <use xlink:href="#md7c5df243e" x="581.577492" y="172.842667" style="fill: #1f77b4; stroke: #1f77b4"/>
     <use xlink:href="#md7c5df243e" x="584.175768" y="131.029333" style="fill: #1f77b4; stroke: #1f77b4"/>
     <use xlink:href="#md7c5df243e" x="586.774043" y="122.069333" style="fill: #1f77b4; stroke: #1f77b4"/>
     <use xlink:href="#md7c5df243e" x="589.372319" y="166.869333" style="fill: #1f77b4; stroke: #1f77b4"/>
     <use xlink:href="#md7c5df243e" x="591.970595" y="196.736" style="fill: #1f77b4; stroke: #1f77b4"/>
     <use xlink:href="#md7c5df243e" x="594.56887" y="169.856" style="fill: #1f77b4; stroke: #1f77b4"/>
     <use xlink:href="#md7c5df243e" x="597.167146" y="134.016" style="fill: #1f77b4; stroke: #1f77b4"/>
     <use xlink:href="#md7c5df243e" x="599.765422" y="134.016" style="fill: #1f77b4; stroke: #1f77b4"/>
     <use xlink:href="#md7c5df243e" x="602.363697" y="181.802667" style="fill: #1f77b4; stroke: #1f77b4"/>
     <use xlink:href="#md7c5df243e" x="604.961973" y="193.749333" style="fill: #1f77b4; stroke: #1f77b4"/>
     <use xlink:href="#md7c5df243e" x="607.560249" y="166.869333" style="fill: #1f77b4; stroke: #1f77b4"/>
     <use xlink:href="#md7c5df243e" x="610.158525" y="134.016" style="fill: #1f77b4; stroke: #1f77b4"/>
     <use xlink:href="#md7c5df243e" x="612.7568" y="139.989333" style="fill: #1f77b4; stroke: #1f77b4"/>
     <use xlink:href="#md7c5df243e" x="615.355076" y="172.842667" style="fill: #1f77b4; stroke: #1f77b4"/>
     <use xlink:href="#md7c5df243e" x="617.953352" y="181.802667" style="fill: #1f77b4; stroke: #1f77b4"/>
     <use xlink:href="#md7c5df243e" x="620.551627" y="148.949333" style="fill: #1f77b4; stroke: #1f77b4"/>
     <use xlink:href="#md7c5df243e" x="623.149903" y="122.069333" style="fill: #1f77b4; stroke: #1f77b4"/>
     <use xlink:href="#md7c5df243e" x="625.748179" y="139.989333" style="fill: #1f77b4; stroke: #1f77b4"/>
     <use xlink:href="#md7c5df243e" x="628.346454" y="172.842667" style="fill: #1f77b4; stroke: #1f77b4"/>
     <use xlink:href="#md7c5df243e" x="630.94473" y="166.869333" style="fill: #1f77b4; stroke: #1f77b4"/>
     <use xlink:href="#md7c5df243e" x="633.543006" y="142.976" style="fill: #1f77b4; stroke: #1f77b4"/>
     <use xlink:href="#md7c5df243e" x="636.141281" y="139.989333" style="fill: #1f77b4; stroke: #1f77b4"/>
     <use xlink:href="#md7c5df243e" x="638.739557" y="157.909333" style="fill: #1f77b4; stroke: #1f77b4"/>
     <use xlink:href="#md7c5df243e" x="641.337833" y="172.842667" style="fill: #1f77b4; stroke: #1f77b4"/>
     <use xlink:href="#md7c5df243e" x="643.936108" y="160.896" style="fill: #1f77b4; stroke: #1f77b4"/>
     <use xlink:href="#md7c5df243e" x="646.534384" y="139.989333" style="fill: #1f77b4; stroke: #1f77b4"/>
     <use xlink:href="#md7c5df243e" x="649.13266" y="145.962667" style="fill: #1f77b4; stroke: #1f77b4"/>
     <use xlink:href="#md7c5df243e" x="651.730935" y="160.896" style="fill: #1f77b4; stroke: #1f77b4"/>
     <use xlink:href="#md7c5df243e" x="654.329211" y="160.896" style="fill: #1f77b4; stroke: #1f77b4"/>
     <use xlink:href="#md7c5df243e" x="656.927487" y="142.976" style="fill: #1f77b4; stroke: #1f77b4"/>
     <use xlink:href="#md7c5df243e" x="659.525762" y="139.989333" style="fill: #1f77b4; stroke: #1f77b4"/>
     <use xlink:href="#md7c5df243e" x="662.124038" y="145.962667" style="fill: #1f77b4; stroke: #1f77b4"/>
     <use xlink:href="#md7c5df243e" x="664.722314" y="160.896" style="fill: #1f77b4; stroke: #1f77b4"/>
     <use xlink:href="#md7c5df243e" x="667.320589" y="148.949333" style="fill: #1f77b4; stroke: #1f77b4"/>
     <use xlink:href="#md7c5df243e" x="669.918865" y="137.002667" style="fill: #1f77b4; stroke: #1f77b4"/>
     <use xlink:href="#md7c5df243e" x="672.517141" y="145.962667" style="fill: #1f77b4; stroke: #1f77b4"/>
     <use xlink:href="#md7c5df243e" x="675.115416" y="163.882667" style="fill: #1f77b4; stroke: #1f77b4"/>
     <use xlink:href="#md7c5df243e" x="677.713692" y="163.882667" style="fill: #1f77b4; stroke: #1f77b4"/>
     <use xlink:href="#md7c5df243e" x="680.311968" y="142.976" style="fill: #1f77b4; stroke: #1f77b4"/>
     <use xlink:href="#md7c5df243e" x="682.910243" y="139.989333" style="fill: #1f77b4; stroke: #1f77b4"/>
     <use xlink:href="#md7c5df243e" x="685.508519" y="163.882667" style="fill: #1f77b4; stroke: #1f77b4"/>
     <use xlink:href="#md7c5df243e" x="688.106795" y="172.842667" style="fill: #1f77b4; stroke: #1f77b4"/>
     <use xlink:href="#md7c5df243e" x="690.70507" y="154.922667" style="fill: #1f77b4; stroke: #1f77b4"/>
     <use xlink:href="#md7c5df243e" x="693.303346" y="125.056" style="fill: #1f77b4; stroke: #1f77b4"/>
     <use xlink:href="#md7c5df243e" x="695.901622" y="131.029333" style="fill: #1f77b4; stroke: #1f77b4"/>
     <use xlink:href="#md7c5df243e" x="698.499897" y="169.856" style="fill: #1f77b4; stroke: #1f77b4"/>
     <use xlink:href="#md7c5df243e" x="701.098173" y="178.816" style="fill: #1f77b4; stroke: #1f77b4"/>
     <use xlink:href="#md7c5df243e" x="703.696449" y="145.962667" style="fill: #1f77b4; stroke: #1f77b4"/>
     <use xlink:href="#md7c5df243e" x="706.294724" y="122.069333" style="fill: #1f77b4; stroke: #1f77b4"/>
     <use xlink:href="#md7c5df243e" x="708.893" y="137.002667" style="fill: #1f77b4; stroke: #1f77b4"/>
     <use xlink:href="#md7c5df243e" x="711.491276" y="166.869333" style="fill: #1f77b4; stroke: #1f77b4"/>
     <use xlink:href="#md7c5df243e" x="714.089551" y="166.869333" style="fill: #1f77b4; stroke: #1f77b4"/>
     <use xlink:href="#md7c5df243e" x="716.687827" y="137.002667" style="fill: #1f77b4; stroke: #1f77b4"/>
     <use xlink:href="#md7c5df243e" x="719.286103" y="128.042667" style="fill: #1f77b4; stroke: #1f77b4"/>
     <use xlink:href="#md7c5df243e" x="721.884378" y="151.936" style="fill: #1f77b4; stroke: #1f77b4"/>
     <use xlink:href="#md7c5df243e" x="724.482654" y="181.802667" style="fill: #1f77b4; stroke: #1f77b4"/>
     <use xlink:href="#md7c5df243e" x="727.08093" y="175.829333" style="fill: #1f77b4; stroke: #1f77b4"/>
     <use xlink:href="#md7c5df243e" x="729.679206" y="131.029333" style="fill: #1f77b4; stroke: #1f77b4"/>
     <use xlink:href="#md7c5df243e" x="732.277481" y="116.096" style="fill: #1f77b4; stroke: #1f77b4"/>
     <use xlink:href="#md7c5df243e" x="734.875757" y="166.869333" style="fill: #1f77b4; stroke: #1f77b4"/>
     <use xlink:href="#md7c5df243e" x="737.474033" y="199.722667" style="fill: #1f77b4; stroke: #1f77b4"/>
     <use xlink:href="#md7c5df243e" x="740.072308" y="169.856" style="fill: #1f77b4; stroke: #1f77b4"/>
     <use xlink:href="#md7c5df243e" x="742.670584" y="122.069333" style="fill: #1f77b4; stroke: #1f77b4"/>
     <use xlink:href="#md7c5df243e" x="745.26886" y="119.082667" style="fill: #1f77b4; stroke: #1f77b4"/>
     <use xlink:href="#md7c5df243e" x="747.867135" y="178.816" style="fill: #1f77b4; stroke: #1f77b4"/>
     <use xlink:href="#md7c5df243e" x="750.465411" y="190.762667" style="fill: #1f77b4; stroke: #1f77b4"/>
     <use xlink:href="#md7c5df243e" x="753.063687" y="163.882667" style="fill: #1f77b4; stroke: #1f77b4"/>
     <use xlink:href="#md7c5df243e" x="755.661962" y="119.082667" style="fill: #1f77b4; stroke: #1f77b4"/>
     <use xlink:href="#md7c5df243e" x="758.260238" y="131.029333" style="fill: #1f77b4; stroke: #1f77b4"/>
     <use xlink:href="#md7c5df243e" x="760.858514" y="184.789333" style="fill: #1f77b4; stroke: #1f77b4"/>
     <use xlink:href="#md7c5df243e" x="763.456789" y="190.762667" style="fill: #1f77b4; stroke: #1f77b4"/>
     <use xlink:href="#md7c5df243e" x="766.055065" y="139.989333" style="fill: #1f77b4; stroke: #1f77b4"/>
     <use xlink:href="#md7c5df243e" x="768.653341" y="107.136" style="fill: #1f77b4; stroke: #1f77b4"/>
     <use xlink:href="#md7c5df243e" x="771.251616" y="137.002667" style="fill: #1f77b4; stroke: #1f77b4"/>
     <use xlink:href="#md7c5df243e" x="773.849892" y="193.749333" style="fill: #1f77b4; stroke: #1f77b4"/>
     <use xlink:href="#md7c5df243e" x="776.448168" y="190.762667" style="fill: #1f77b4; stroke: #1f77b4"/>
     <use xlink:href="#md7c5df243e" x="779.046443" y="131.029333" style="fill: #1f77b4; stroke: #1f77b4"/>
     <use xlink:href="#md7c5df243e" x="781.644719" y="113.109333" style="fill: #1f77b4; stroke: #1f77b4"/>
     <use xlink:href="#md7c5df243e" x="784.242995" y="154.922667" style="fill: #1f77b4; stroke: #1f77b4"/>
     <use xlink:href="#md7c5df243e" x="786.84127" y="196.736" style="fill: #1f77b4; stroke: #1f77b4"/>
     <use xlink:href="#md7c5df243e" x="789.439546" y="172.842667" style="fill: #1f77b4; stroke: #1f77b4"/>
     <use xlink:href="#md7c5df243e" x="792.037822" y="119.082667" style="fill: #1f77b4; stroke: #1f77b4"/>
     <use xlink:href="#md7c5df243e" x="794.636097" y="122.069333" style="fill: #1f77b4; stroke: #1f77b4"/>
    </g>
   </g>
   <g id="patch_3">
    <path d="M 115.2 615.168 
L 115.2 82.944 
" style="fill: none; stroke: #000000; stroke-width: 0.8; stroke-linejoin: miter; stroke-linecap: square"/>
   </g>
   <g id="patch_4">
    <path d="M 829.44 615.168 
L 829.44 82.944 
" style="fill: none; stroke: #000000; stroke-width: 0.8; stroke-linejoin: miter; stroke-linecap: square"/>
   </g>
   <g id="patch_5">
    <path d="M 115.2 615.168 
L 829.44 615.168 
" style="fill: none; stroke: #000000; stroke-width: 0.8; stroke-linejoin: miter; stroke-linecap: square"/>
   </g>
   <g id="patch_6">
    <path d="M 115.2 82.944 
L 829.44 82.944 
" style="fill: none; stroke: #000000; stroke-width: 0.8; stroke-linejoin: miter; stroke-linecap: square"/>
   </g>
  </g>
 </g>
 <defs>
  <clipPath id="pee6179b33f">
   <rect x="115.2" y="82.944" width="714.24" height="532.224"/>
  </clipPath>
 </defs>
</svg>
