<?xml version="1.0" encoding="utf-8" standalone="no"?>
<!DOCTYPE svg PUBLIC "-//W3C//DTD SVG 1.1//EN"
  "http://www.w3.org/Graphics/SVG/1.1/DTD/svg11.dtd">
<svg xmlns:xlink="http://www.w3.org/1999/xlink" width="921.6pt" height="691.2pt" viewBox="0 0 921.6 691.2" xmlns="http://www.w3.org/2000/svg" version="1.1">
 <metadata>
  <rdf:RDF xmlns:dc="http://purl.org/dc/elements/1.1/" xmlns:cc="http://creativecommons.org/ns#" xmlns:rdf="http://www.w3.org/1999/02/22-rdf-syntax-ns#">
   <cc:Work>
    <dc:type rdf:resource="http://purl.org/dc/dcmitype/StillImage"/>
    <dc:date>2023-03-18T15:52:35.884729</dc:date>
    <dc:format>image/svg+xml</dc:format>
    <dc:creator>
     <cc:Agent>
      <dc:title>Matplotlib v3.5.1, https://matplotlib.org/</dc:title>
     </cc:Agent>
    </dc:creator>
   </cc:Work>
  </rdf:RDF>
 </metadata>
 <defs>
  <style type="text/css">*{stroke-linejoin: round; stroke-linecap: butt}</style>
 </defs>
 <g id="figure_1">
  <g id="patch_1">
   <path d="M 0 691.2 
L 921.6 691.2 
L 921.6 0 
L 0 0 
z
" style="fill: #ffffff"/>
  </g>
  <g id="axes_1">
   <g id="patch_2">
    <path d="M 115.2 615.168 
L 829.44 615.168 
L 829.44 82.944 
L 115.2 82.944 
z
" style="fill: #ffffff"/>
   </g>
   <g id="matplotlib.axis_1">
    <g id="xtick_1">
     <g id="line2d_1">
      <path d="M 212.622346 615.168 
L 212.622346 82.944 
" clip-path="url(#p7b4d91170b)" style="fill: none; stroke: #b0b0b0; stroke-width: 0.8; stroke-linecap: square"/>
     </g>
     <g id="line2d_2">
      <defs>
       <path id="m70481acbdf" d="M 0 0 
L 0 3.5 
" style="stroke: #000000; stroke-width: 0.8"/>
      </defs>
      <g>
       <use xlink:href="#m70481acbdf" x="212.622346" y="615.168" style="stroke: #000000; stroke-width: 0.8"/>
      </g>
     </g>
     <g id="text_1">
      <!-- −40 -->
      <g transform="translate(186.241487 641.164094)scale(0.25 -0.25)">
       <defs>
        <path id="DejaVuSans-2212" d="M 678 2272 
L 4684 2272 
L 4684 1741 
L 678 1741 
L 678 2272 
z
" transform="scale(0.015625)"/>
        <path id="DejaVuSans-34" d="M 2419 4116 
L 825 1625 
L 2419 1625 
L 2419 4116 
z
M 2253 4666 
L 3047 4666 
L 3047 1625 
L 3713 1625 
L 3713 1100 
L 3047 1100 
L 3047 0 
L 2419 0 
L 2419 1100 
L 313 1100 
L 313 1709 
L 2253 4666 
z
" transform="scale(0.015625)"/>
        <path id="DejaVuSans-30" d="M 2034 4250 
Q 1547 4250 1301 3770 
Q 1056 3291 1056 2328 
Q 1056 1369 1301 889 
Q 1547 409 2034 409 
Q 2525 409 2770 889 
Q 3016 1369 3016 2328 
Q 3016 3291 2770 3770 
Q 2525 4250 2034 4250 
z
M 2034 4750 
Q 2819 4750 3233 4129 
Q 3647 3509 3647 2328 
Q 3647 1150 3233 529 
Q 2819 -91 2034 -91 
Q 1250 -91 836 529 
Q 422 1150 422 2328 
Q 422 3509 836 4129 
Q 1250 4750 2034 4750 
z
" transform="scale(0.015625)"/>
       </defs>
       <use xlink:href="#DejaVuSans-2212"/>
       <use xlink:href="#DejaVuSans-34" x="83.789062"/>
       <use xlink:href="#DejaVuSans-30" x="147.412109"/>
      </g>
     </g>
    </g>
    <g id="xtick_2">
     <g id="line2d_3">
      <path d="M 342.53613 615.168 
L 342.53613 82.944 
" clip-path="url(#p7b4d91170b)" style="fill: none; stroke: #b0b0b0; stroke-width: 0.8; stroke-linecap: square"/>
     </g>
     <g id="line2d_4">
      <g>
       <use xlink:href="#m70481acbdf" x="342.53613" y="615.168" style="stroke: #000000; stroke-width: 0.8"/>
      </g>
     </g>
     <g id="text_2">
      <!-- −20 -->
      <g transform="translate(316.155271 641.164094)scale(0.25 -0.25)">
       <defs>
        <path id="DejaVuSans-32" d="M 1228 531 
L 3431 531 
L 3431 0 
L 469 0 
L 469 531 
Q 828 903 1448 1529 
Q 2069 2156 2228 2338 
Q 2531 2678 2651 2914 
Q 2772 3150 2772 3378 
Q 2772 3750 2511 3984 
Q 2250 4219 1831 4219 
Q 1534 4219 1204 4116 
Q 875 4013 500 3803 
L 500 4441 
Q 881 4594 1212 4672 
Q 1544 4750 1819 4750 
Q 2544 4750 2975 4387 
Q 3406 4025 3406 3419 
Q 3406 3131 3298 2873 
Q 3191 2616 2906 2266 
Q 2828 2175 2409 1742 
Q 1991 1309 1228 531 
z
" transform="scale(0.015625)"/>
       </defs>
       <use xlink:href="#DejaVuSans-2212"/>
       <use xlink:href="#DejaVuSans-32" x="83.789062"/>
       <use xlink:href="#DejaVuSans-30" x="147.412109"/>
      </g>
     </g>
    </g>
    <g id="xtick_3">
     <g id="line2d_5">
      <path d="M 472.449914 615.168 
L 472.449914 82.944 
" clip-path="url(#p7b4d91170b)" style="fill: none; stroke: #b0b0b0; stroke-width: 0.8; stroke-linecap: square"/>
     </g>
     <g id="line2d_6">
      <g>
       <use xlink:href="#m70481acbdf" x="472.449914" y="615.168" style="stroke: #000000; stroke-width: 0.8"/>
      </g>
     </g>
     <g id="text_3">
      <!-- 0 -->
      <g transform="translate(464.496789 641.164094)scale(0.25 -0.25)">
       <use xlink:href="#DejaVuSans-30"/>
      </g>
     </g>
    </g>
    <g id="xtick_4">
     <g id="line2d_7">
      <path d="M 602.363697 615.168 
L 602.363697 82.944 
" clip-path="url(#p7b4d91170b)" style="fill: none; stroke: #b0b0b0; stroke-width: 0.8; stroke-linecap: square"/>
     </g>
     <g id="line2d_8">
      <g>
       <use xlink:href="#m70481acbdf" x="602.363697" y="615.168" style="stroke: #000000; stroke-width: 0.8"/>
      </g>
     </g>
     <g id="text_4">
      <!-- 20 -->
      <g transform="translate(586.457447 641.164094)scale(0.25 -0.25)">
       <use xlink:href="#DejaVuSans-32"/>
       <use xlink:href="#DejaVuSans-30" x="63.623047"/>
      </g>
     </g>
    </g>
    <g id="xtick_5">
     <g id="line2d_9">
      <path d="M 732.277481 615.168 
L 732.277481 82.944 
" clip-path="url(#p7b4d91170b)" style="fill: none; stroke: #b0b0b0; stroke-width: 0.8; stroke-linecap: square"/>
     </g>
     <g id="line2d_10">
      <g>
       <use xlink:href="#m70481acbdf" x="732.277481" y="615.168" style="stroke: #000000; stroke-width: 0.8"/>
      </g>
     </g>
     <g id="text_5">
      <!-- 40 -->
      <g transform="translate(716.371231 641.164094)scale(0.25 -0.25)">
       <use xlink:href="#DejaVuSans-34"/>
       <use xlink:href="#DejaVuSans-30" x="63.623047"/>
      </g>
     </g>
    </g>
    <g id="text_6">
     <!-- Tiempo [ns] -->
     <g transform="translate(383.12625 673.158625)scale(0.3 -0.3)">
      <defs>
       <path id="DejaVuSans-54" d="M -19 4666 
L 3928 4666 
L 3928 4134 
L 2272 4134 
L 2272 0 
L 1638 0 
L 1638 4134 
L -19 4134 
L -19 4666 
z
" transform="scale(0.015625)"/>
       <path id="DejaVuSans-69" d="M 603 3500 
L 1178 3500 
L 1178 0 
L 603 0 
L 603 3500 
z
M 603 4863 
L 1178 4863 
L 1178 4134 
L 603 4134 
L 603 4863 
z
" transform="scale(0.015625)"/>
       <path id="DejaVuSans-65" d="M 3597 1894 
L 3597 1613 
L 953 1613 
Q 991 1019 1311 708 
Q 1631 397 2203 397 
Q 2534 397 2845 478 
Q 3156 559 3463 722 
L 3463 178 
Q 3153 47 2828 -22 
Q 2503 -91 2169 -91 
Q 1331 -91 842 396 
Q 353 884 353 1716 
Q 353 2575 817 3079 
Q 1281 3584 2069 3584 
Q 2775 3584 3186 3129 
Q 3597 2675 3597 1894 
z
M 3022 2063 
Q 3016 2534 2758 2815 
Q 2500 3097 2075 3097 
Q 1594 3097 1305 2825 
Q 1016 2553 972 2059 
L 3022 2063 
z
" transform="scale(0.015625)"/>
       <path id="DejaVuSans-6d" d="M 3328 2828 
Q 3544 3216 3844 3400 
Q 4144 3584 4550 3584 
Q 5097 3584 5394 3201 
Q 5691 2819 5691 2113 
L 5691 0 
L 5113 0 
L 5113 2094 
Q 5113 2597 4934 2840 
Q 4756 3084 4391 3084 
Q 3944 3084 3684 2787 
Q 3425 2491 3425 1978 
L 3425 0 
L 2847 0 
L 2847 2094 
Q 2847 2600 2669 2842 
Q 2491 3084 2119 3084 
Q 1678 3084 1418 2786 
Q 1159 2488 1159 1978 
L 1159 0 
L 581 0 
L 581 3500 
L 1159 3500 
L 1159 2956 
Q 1356 3278 1631 3431 
Q 1906 3584 2284 3584 
Q 2666 3584 2933 3390 
Q 3200 3197 3328 2828 
z
" transform="scale(0.015625)"/>
       <path id="DejaVuSans-70" d="M 1159 525 
L 1159 -1331 
L 581 -1331 
L 581 3500 
L 1159 3500 
L 1159 2969 
Q 1341 3281 1617 3432 
Q 1894 3584 2278 3584 
Q 2916 3584 3314 3078 
Q 3713 2572 3713 1747 
Q 3713 922 3314 415 
Q 2916 -91 2278 -91 
Q 1894 -91 1617 61 
Q 1341 213 1159 525 
z
M 3116 1747 
Q 3116 2381 2855 2742 
Q 2594 3103 2138 3103 
Q 1681 3103 1420 2742 
Q 1159 2381 1159 1747 
Q 1159 1113 1420 752 
Q 1681 391 2138 391 
Q 2594 391 2855 752 
Q 3116 1113 3116 1747 
z
" transform="scale(0.015625)"/>
       <path id="DejaVuSans-6f" d="M 1959 3097 
Q 1497 3097 1228 2736 
Q 959 2375 959 1747 
Q 959 1119 1226 758 
Q 1494 397 1959 397 
Q 2419 397 2687 759 
Q 2956 1122 2956 1747 
Q 2956 2369 2687 2733 
Q 2419 3097 1959 3097 
z
M 1959 3584 
Q 2709 3584 3137 3096 
Q 3566 2609 3566 1747 
Q 3566 888 3137 398 
Q 2709 -91 1959 -91 
Q 1206 -91 779 398 
Q 353 888 353 1747 
Q 353 2609 779 3096 
Q 1206 3584 1959 3584 
z
" transform="scale(0.015625)"/>
       <path id="DejaVuSans-20" transform="scale(0.015625)"/>
       <path id="DejaVuSans-5b" d="M 550 4863 
L 1875 4863 
L 1875 4416 
L 1125 4416 
L 1125 -397 
L 1875 -397 
L 1875 -844 
L 550 -844 
L 550 4863 
z
" transform="scale(0.015625)"/>
       <path id="DejaVuSans-6e" d="M 3513 2113 
L 3513 0 
L 2938 0 
L 2938 2094 
Q 2938 2591 2744 2837 
Q 2550 3084 2163 3084 
Q 1697 3084 1428 2787 
Q 1159 2491 1159 1978 
L 1159 0 
L 581 0 
L 581 3500 
L 1159 3500 
L 1159 2956 
Q 1366 3272 1645 3428 
Q 1925 3584 2291 3584 
Q 2894 3584 3203 3211 
Q 3513 2838 3513 2113 
z
" transform="scale(0.015625)"/>
       <path id="DejaVuSans-73" d="M 2834 3397 
L 2834 2853 
Q 2591 2978 2328 3040 
Q 2066 3103 1784 3103 
Q 1356 3103 1142 2972 
Q 928 2841 928 2578 
Q 928 2378 1081 2264 
Q 1234 2150 1697 2047 
L 1894 2003 
Q 2506 1872 2764 1633 
Q 3022 1394 3022 966 
Q 3022 478 2636 193 
Q 2250 -91 1575 -91 
Q 1294 -91 989 -36 
Q 684 19 347 128 
L 347 722 
Q 666 556 975 473 
Q 1284 391 1588 391 
Q 1994 391 2212 530 
Q 2431 669 2431 922 
Q 2431 1156 2273 1281 
Q 2116 1406 1581 1522 
L 1381 1569 
Q 847 1681 609 1914 
Q 372 2147 372 2553 
Q 372 3047 722 3315 
Q 1072 3584 1716 3584 
Q 2034 3584 2315 3537 
Q 2597 3491 2834 3397 
z
" transform="scale(0.015625)"/>
       <path id="DejaVuSans-5d" d="M 1947 4863 
L 1947 -844 
L 622 -844 
L 622 -397 
L 1369 -397 
L 1369 4416 
L 622 4416 
L 622 4863 
L 1947 4863 
z
" transform="scale(0.015625)"/>
      </defs>
      <use xlink:href="#DejaVuSans-54"/>
      <use xlink:href="#DejaVuSans-69" x="57.958984"/>
      <use xlink:href="#DejaVuSans-65" x="85.742188"/>
      <use xlink:href="#DejaVuSans-6d" x="147.265625"/>
      <use xlink:href="#DejaVuSans-70" x="244.677734"/>
      <use xlink:href="#DejaVuSans-6f" x="308.154297"/>
      <use xlink:href="#DejaVuSans-20" x="369.335938"/>
      <use xlink:href="#DejaVuSans-5b" x="401.123047"/>
      <use xlink:href="#DejaVuSans-6e" x="440.136719"/>
      <use xlink:href="#DejaVuSans-73" x="503.515625"/>
      <use xlink:href="#DejaVuSans-5d" x="555.615234"/>
     </g>
    </g>
   </g>
   <g id="matplotlib.axis_2">
    <g id="ytick_1">
     <g id="line2d_11">
      <path d="M 115.2 562.845767 
L 829.44 562.845767 
" clip-path="url(#p7b4d91170b)" style="fill: none; stroke: #b0b0b0; stroke-width: 0.8; stroke-linecap: square"/>
     </g>
     <g id="line2d_12">
      <defs>
       <path id="m88c113e9aa" d="M 0 0 
L -3.5 0 
" style="stroke: #000000; stroke-width: 0.8"/>
      </defs>
      <g>
       <use xlink:href="#m88c113e9aa" x="115.2" y="562.845767" style="stroke: #000000; stroke-width: 0.8"/>
      </g>
     </g>
     <g id="text_7">
      <!-- −30 -->
      <g transform="translate(55.438281 572.343814)scale(0.25 -0.25)">
       <defs>
        <path id="DejaVuSans-33" d="M 2597 2516 
Q 3050 2419 3304 2112 
Q 3559 1806 3559 1356 
Q 3559 666 3084 287 
Q 2609 -91 1734 -91 
Q 1441 -91 1130 -33 
Q 819 25 488 141 
L 488 750 
Q 750 597 1062 519 
Q 1375 441 1716 441 
Q 2309 441 2620 675 
Q 2931 909 2931 1356 
Q 2931 1769 2642 2001 
Q 2353 2234 1838 2234 
L 1294 2234 
L 1294 2753 
L 1863 2753 
Q 2328 2753 2575 2939 
Q 2822 3125 2822 3475 
Q 2822 3834 2567 4026 
Q 2313 4219 1838 4219 
Q 1578 4219 1281 4162 
Q 984 4106 628 3988 
L 628 4550 
Q 988 4650 1302 4700 
Q 1616 4750 1894 4750 
Q 2613 4750 3031 4423 
Q 3450 4097 3450 3541 
Q 3450 3153 3228 2886 
Q 3006 2619 2597 2516 
z
" transform="scale(0.015625)"/>
       </defs>
       <use xlink:href="#DejaVuSans-2212"/>
       <use xlink:href="#DejaVuSans-33" x="83.789062"/>
       <use xlink:href="#DejaVuSans-30" x="147.412109"/>
      </g>
     </g>
    </g>
    <g id="ytick_2">
     <g id="line2d_13">
      <path d="M 115.2 492.520186 
L 829.44 492.520186 
" clip-path="url(#p7b4d91170b)" style="fill: none; stroke: #b0b0b0; stroke-width: 0.8; stroke-linecap: square"/>
     </g>
     <g id="line2d_14">
      <g>
       <use xlink:href="#m88c113e9aa" x="115.2" y="492.520186" style="stroke: #000000; stroke-width: 0.8"/>
      </g>
     </g>
     <g id="text_8">
      <!-- −25 -->
      <g transform="translate(55.438281 502.018233)scale(0.25 -0.25)">
       <defs>
        <path id="DejaVuSans-35" d="M 691 4666 
L 3169 4666 
L 3169 4134 
L 1269 4134 
L 1269 2991 
Q 1406 3038 1543 3061 
Q 1681 3084 1819 3084 
Q 2600 3084 3056 2656 
Q 3513 2228 3513 1497 
Q 3513 744 3044 326 
Q 2575 -91 1722 -91 
Q 1428 -91 1123 -41 
Q 819 9 494 109 
L 494 744 
Q 775 591 1075 516 
Q 1375 441 1709 441 
Q 2250 441 2565 725 
Q 2881 1009 2881 1497 
Q 2881 1984 2565 2268 
Q 2250 2553 1709 2553 
Q 1456 2553 1204 2497 
Q 953 2441 691 2322 
L 691 4666 
z
" transform="scale(0.015625)"/>
       </defs>
       <use xlink:href="#DejaVuSans-2212"/>
       <use xlink:href="#DejaVuSans-32" x="83.789062"/>
       <use xlink:href="#DejaVuSans-35" x="147.412109"/>
      </g>
     </g>
    </g>
    <g id="ytick_3">
     <g id="line2d_15">
      <path d="M 115.2 422.194605 
L 829.44 422.194605 
" clip-path="url(#p7b4d91170b)" style="fill: none; stroke: #b0b0b0; stroke-width: 0.8; stroke-linecap: square"/>
     </g>
     <g id="line2d_16">
      <g>
       <use xlink:href="#m88c113e9aa" x="115.2" y="422.194605" style="stroke: #000000; stroke-width: 0.8"/>
      </g>
     </g>
     <g id="text_9">
      <!-- −20 -->
      <g transform="translate(55.438281 431.692652)scale(0.25 -0.25)">
       <use xlink:href="#DejaVuSans-2212"/>
       <use xlink:href="#DejaVuSans-32" x="83.789062"/>
       <use xlink:href="#DejaVuSans-30" x="147.412109"/>
      </g>
     </g>
    </g>
    <g id="ytick_4">
     <g id="line2d_17">
      <path d="M 115.2 351.869023 
L 829.44 351.869023 
" clip-path="url(#p7b4d91170b)" style="fill: none; stroke: #b0b0b0; stroke-width: 0.8; stroke-linecap: square"/>
     </g>
     <g id="line2d_18">
      <g>
       <use xlink:href="#m88c113e9aa" x="115.2" y="351.869023" style="stroke: #000000; stroke-width: 0.8"/>
      </g>
     </g>
     <g id="text_10">
      <!-- −15 -->
      <g transform="translate(55.438281 361.36707)scale(0.25 -0.25)">
       <defs>
        <path id="DejaVuSans-31" d="M 794 531 
L 1825 531 
L 1825 4091 
L 703 3866 
L 703 4441 
L 1819 4666 
L 2450 4666 
L 2450 531 
L 3481 531 
L 3481 0 
L 794 0 
L 794 531 
z
" transform="scale(0.015625)"/>
       </defs>
       <use xlink:href="#DejaVuSans-2212"/>
       <use xlink:href="#DejaVuSans-31" x="83.789062"/>
       <use xlink:href="#DejaVuSans-35" x="147.412109"/>
      </g>
     </g>
    </g>
    <g id="ytick_5">
     <g id="line2d_19">
      <path d="M 115.2 281.543442 
L 829.44 281.543442 
" clip-path="url(#p7b4d91170b)" style="fill: none; stroke: #b0b0b0; stroke-width: 0.8; stroke-linecap: square"/>
     </g>
     <g id="line2d_20">
      <g>
       <use xlink:href="#m88c113e9aa" x="115.2" y="281.543442" style="stroke: #000000; stroke-width: 0.8"/>
      </g>
     </g>
     <g id="text_11">
      <!-- −10 -->
      <g transform="translate(55.438281 291.041489)scale(0.25 -0.25)">
       <use xlink:href="#DejaVuSans-2212"/>
       <use xlink:href="#DejaVuSans-31" x="83.789062"/>
       <use xlink:href="#DejaVuSans-30" x="147.412109"/>
      </g>
     </g>
    </g>
    <g id="ytick_6">
     <g id="line2d_21">
      <path d="M 115.2 211.21786 
L 829.44 211.21786 
" clip-path="url(#p7b4d91170b)" style="fill: none; stroke: #b0b0b0; stroke-width: 0.8; stroke-linecap: square"/>
     </g>
     <g id="line2d_22">
      <g>
       <use xlink:href="#m88c113e9aa" x="115.2" y="211.21786" style="stroke: #000000; stroke-width: 0.8"/>
      </g>
     </g>
     <g id="text_12">
      <!-- −5 -->
      <g transform="translate(71.344531 220.715907)scale(0.25 -0.25)">
       <use xlink:href="#DejaVuSans-2212"/>
       <use xlink:href="#DejaVuSans-35" x="83.789062"/>
      </g>
     </g>
    </g>
    <g id="ytick_7">
     <g id="line2d_23">
      <path d="M 115.2 140.892279 
L 829.44 140.892279 
" clip-path="url(#p7b4d91170b)" style="fill: none; stroke: #b0b0b0; stroke-width: 0.8; stroke-linecap: square"/>
     </g>
     <g id="line2d_24">
      <g>
       <use xlink:href="#m88c113e9aa" x="115.2" y="140.892279" style="stroke: #000000; stroke-width: 0.8"/>
      </g>
     </g>
     <g id="text_13">
      <!-- 0 -->
      <g transform="translate(92.29375 150.390326)scale(0.25 -0.25)">
       <use xlink:href="#DejaVuSans-30"/>
      </g>
     </g>
    </g>
    <g id="text_14">
     <!-- Voltaje [mV] -->
     <g transform="translate(45.199219 441.313031)rotate(-90)scale(0.3 -0.3)">
      <defs>
       <path id="DejaVuSans-56" d="M 1831 0 
L 50 4666 
L 709 4666 
L 2188 738 
L 3669 4666 
L 4325 4666 
L 2547 0 
L 1831 0 
z
" transform="scale(0.015625)"/>
       <path id="DejaVuSans-6c" d="M 603 4863 
L 1178 4863 
L 1178 0 
L 603 0 
L 603 4863 
z
" transform="scale(0.015625)"/>
       <path id="DejaVuSans-74" d="M 1172 4494 
L 1172 3500 
L 2356 3500 
L 2356 3053 
L 1172 3053 
L 1172 1153 
Q 1172 725 1289 603 
Q 1406 481 1766 481 
L 2356 481 
L 2356 0 
L 1766 0 
Q 1100 0 847 248 
Q 594 497 594 1153 
L 594 3053 
L 172 3053 
L 172 3500 
L 594 3500 
L 594 4494 
L 1172 4494 
z
" transform="scale(0.015625)"/>
       <path id="DejaVuSans-61" d="M 2194 1759 
Q 1497 1759 1228 1600 
Q 959 1441 959 1056 
Q 959 750 1161 570 
Q 1363 391 1709 391 
Q 2188 391 2477 730 
Q 2766 1069 2766 1631 
L 2766 1759 
L 2194 1759 
z
M 3341 1997 
L 3341 0 
L 2766 0 
L 2766 531 
Q 2569 213 2275 61 
Q 1981 -91 1556 -91 
Q 1019 -91 701 211 
Q 384 513 384 1019 
Q 384 1609 779 1909 
Q 1175 2209 1959 2209 
L 2766 2209 
L 2766 2266 
Q 2766 2663 2505 2880 
Q 2244 3097 1772 3097 
Q 1472 3097 1187 3025 
Q 903 2953 641 2809 
L 641 3341 
Q 956 3463 1253 3523 
Q 1550 3584 1831 3584 
Q 2591 3584 2966 3190 
Q 3341 2797 3341 1997 
z
" transform="scale(0.015625)"/>
       <path id="DejaVuSans-6a" d="M 603 3500 
L 1178 3500 
L 1178 -63 
Q 1178 -731 923 -1031 
Q 669 -1331 103 -1331 
L -116 -1331 
L -116 -844 
L 38 -844 
Q 366 -844 484 -692 
Q 603 -541 603 -63 
L 603 3500 
z
M 603 4863 
L 1178 4863 
L 1178 4134 
L 603 4134 
L 603 4863 
z
" transform="scale(0.015625)"/>
      </defs>
      <use xlink:href="#DejaVuSans-56"/>
      <use xlink:href="#DejaVuSans-6f" x="60.658203"/>
      <use xlink:href="#DejaVuSans-6c" x="121.839844"/>
      <use xlink:href="#DejaVuSans-74" x="149.623047"/>
      <use xlink:href="#DejaVuSans-61" x="188.832031"/>
      <use xlink:href="#DejaVuSans-6a" x="250.111328"/>
      <use xlink:href="#DejaVuSans-65" x="277.894531"/>
      <use xlink:href="#DejaVuSans-20" x="339.417969"/>
      <use xlink:href="#DejaVuSans-5b" x="371.205078"/>
      <use xlink:href="#DejaVuSans-6d" x="410.21875"/>
      <use xlink:href="#DejaVuSans-56" x="507.630859"/>
      <use xlink:href="#DejaVuSans-5d" x="576.039062"/>
     </g>
    </g>
   </g>
   <g id="line2d_25">
    <path d="M 147.665455 157.770419 
L 147.925282 163.396465 
L 157.538902 163.396465 
L 157.79873 157.770419 
L 159.617523 157.770419 
L 159.87735 152.144372 
L 161.176488 152.144372 
L 161.436316 146.518326 
L 162.735453 146.518326 
L 162.995281 140.892279 
L 164.294419 140.892279 
L 164.554246 135.266233 
L 166.632867 135.266233 
L 166.892695 129.640186 
L 170.270453 129.640186 
L 170.53028 124.01414 
L 175.467004 124.01414 
L 175.726832 118.388093 
L 178.584935 118.388093 
L 178.844763 124.01414 
L 191.056658 124.01414 
L 191.316486 129.640186 
L 194.434417 129.640186 
L 194.694244 135.266233 
L 197.29252 135.266233 
L 197.552347 140.892279 
L 200.410451 140.892279 
L 200.670278 146.518326 
L 204.048037 146.518326 
L 204.307864 152.144372 
L 228.731656 152.144372 
L 228.991483 146.518326 
L 232.369242 146.518326 
L 232.629069 140.892279 
L 235.487172 140.892279 
L 235.747 135.266233 
L 238.085448 135.266233 
L 238.345276 129.640186 
L 241.463206 129.640186 
L 241.723034 124.01414 
L 244.840965 124.01414 
L 245.100792 129.640186 
L 249.258033 129.640186 
L 249.517861 135.266233 
L 252.375964 135.266233 
L 252.635792 140.892279 
L 263.288722 140.892279 
L 263.54855 146.518326 
L 268.745101 146.518326 
L 269.004929 152.144372 
L 271.863032 152.144372 
L 272.122859 157.770419 
L 275.760445 157.770419 
L 276.020273 163.396465 
L 280.437341 163.396465 
L 280.697169 157.770419 
L 284.334755 157.770419 
L 284.594583 152.144372 
L 287.452686 152.144372 
L 287.712513 146.518326 
L 300.184237 146.518326 
L 300.444064 140.892279 
L 306.420098 140.892279 
L 306.679926 135.266233 
L 312.136305 135.266233 
L 312.396132 129.640186 
L 315.773891 129.640186 
L 316.033718 135.266233 
L 320.710614 135.266233 
L 320.970442 140.892279 
L 323.828545 140.892279 
L 324.088373 146.518326 
L 327.466131 146.518326 
L 327.725959 152.144372 
L 333.96182 152.144372 
L 334.221648 157.770419 
L 345.654061 157.770419 
L 345.913888 152.144372 
L 352.14975 152.144372 
L 352.409578 146.518326 
L 355.527508 146.518326 
L 355.787336 140.892279 
L 358.645439 140.892279 
L 358.905267 135.266233 
L 379.691472 135.266233 
L 379.9513 140.892279 
L 392.942678 140.892279 
L 393.202506 146.518326 
L 400.997333 146.518326 
L 401.25716 152.144372 
L 405.154574 152.144372 
L 405.414401 157.770419 
L 406.973367 157.770419 
L 407.233194 163.396465 
L 408.272505 163.396465 
L 408.532332 169.022512 
L 409.311815 169.022512 
L 409.571642 174.648558 
L 410.091298 174.648558 
L 410.351125 180.274605 
L 410.610953 180.274605 
L 410.87078 185.900651 
L 411.390435 185.900651 
L 411.650263 191.526698 
L 411.910091 191.526698 
L 412.169918 197.152744 
L 412.429746 197.152744 
L 412.689573 202.778791 
L 412.949401 202.778791 
L 413.469056 214.030884 
L 413.728884 214.030884 
L 413.988711 219.65693 
L 414.248539 219.65693 
L 415.028021 236.53507 
L 415.287849 236.53507 
L 416.067332 253.413209 
L 416.327159 253.413209 
L 417.626297 281.543442 
L 417.886125 281.543442 
L 421.263883 354.682047 
L 421.523711 365.93414 
L 424.641641 433.446698 
L 424.901469 444.698791 
L 428.279227 517.837395 
L 428.539055 517.837395 
L 429.838193 545.967628 
L 430.09802 545.967628 
L 430.617675 557.219721 
L 430.877503 557.219721 
L 431.137331 562.845767 
L 431.397158 562.845767 
L 431.656986 568.471814 
L 431.916813 568.471814 
L 432.176641 574.09786 
L 432.696296 574.09786 
L 432.956124 579.723907 
L 433.475779 579.723907 
L 433.735606 585.349953 
L 434.515089 585.349953 
L 434.774917 590.976 
L 440.231295 590.976 
L 440.491123 585.349953 
L 442.050088 585.349953 
L 442.309916 579.723907 
L 443.609054 579.723907 
L 443.868881 574.09786 
L 449.844915 574.09786 
L 450.104743 568.471814 
L 453.222674 568.471814 
L 453.482501 562.845767 
L 454.781639 562.845767 
L 455.041467 557.219721 
L 455.820949 557.219721 
L 456.080777 551.593674 
L 456.600432 551.593674 
L 456.86026 545.967628 
L 457.379915 545.967628 
L 457.639742 540.341581 
L 457.89957 540.341581 
L 458.159398 534.715535 
L 458.419225 534.715535 
L 458.679053 529.089488 
L 458.93888 529.089488 
L 459.458535 517.837395 
L 459.718363 517.837395 
L 459.978191 512.211349 
L 460.238018 512.211349 
L 460.757673 500.959256 
L 461.017501 500.959256 
L 461.537156 489.707163 
L 461.796984 489.707163 
L 462.316639 478.45507 
L 462.576466 478.45507 
L 463.355949 461.57693 
L 463.615776 461.57693 
L 464.655087 439.072744 
L 464.914914 439.072744 
L 465.954225 416.568558 
L 466.214052 416.568558 
L 467.253362 394.064372 
L 467.51319 394.064372 
L 468.5525 371.560186 
L 468.812328 371.560186 
L 469.851638 349.056 
L 470.111466 349.056 
L 470.890948 332.17786 
L 471.150776 332.17786 
L 471.670431 320.925767 
L 471.930259 320.925767 
L 472.449914 309.673674 
L 472.709741 309.673674 
L 473.229396 298.421581 
L 473.489224 298.421581 
L 474.008879 287.169488 
L 474.268707 287.169488 
L 474.528534 281.543442 
L 474.788362 281.543442 
L 475.308017 270.291349 
L 475.567845 270.291349 
L 475.827672 264.665302 
L 476.0875 264.665302 
L 476.347327 259.039256 
L 476.607155 259.039256 
L 476.866982 253.413209 
L 477.386638 253.413209 
L 477.646465 247.787163 
L 477.906293 247.787163 
L 478.16612 242.161116 
L 478.685775 242.161116 
L 478.945603 236.53507 
L 479.465258 236.53507 
L 479.725086 230.909023 
L 480.244741 230.909023 
L 480.504568 225.282977 
L 481.284051 225.282977 
L 481.543879 219.65693 
L 482.583189 219.65693 
L 482.843016 214.030884 
L 483.622499 214.030884 
L 483.882327 208.404837 
L 484.921637 208.404837 
L 485.181465 202.778791 
L 486.74043 202.778791 
L 487.000258 197.152744 
L 488.819051 197.152744 
L 489.078878 191.526698 
L 491.936981 191.526698 
L 492.196809 185.900651 
L 496.094222 185.900651 
L 496.35405 191.526698 
L 498.692498 191.526698 
L 498.952326 197.152744 
L 500.511291 197.152744 
L 500.771119 202.778791 
L 502.589912 202.778791 
L 502.849739 208.404837 
L 505.707842 208.404837 
L 505.96767 214.030884 
L 509.085601 214.030884 
L 509.345428 219.65693 
L 511.943704 219.65693 
L 512.203532 225.282977 
L 516.100945 225.282977 
L 516.360773 230.909023 
L 520.777841 230.909023 
L 521.037669 225.282977 
L 525.714565 225.282977 
L 525.974393 219.65693 
L 528.053013 219.65693 
L 528.312841 214.030884 
L 529.611979 214.030884 
L 529.871806 208.404837 
L 530.911116 208.404837 
L 531.170944 202.778791 
L 532.210254 202.778791 
L 532.470082 197.152744 
L 533.249565 197.152744 
L 533.509392 191.526698 
L 534.548702 191.526698 
L 534.80853 185.900651 
L 535.84784 185.900651 
L 536.107668 180.274605 
L 536.88715 180.274605 
L 537.146978 174.648558 
L 538.186288 174.648558 
L 538.446116 169.022512 
L 539.485426 169.022512 
L 539.745254 163.396465 
L 541.044392 163.396465 
L 541.304219 157.770419 
L 542.603357 157.770419 
L 542.863185 152.144372 
L 544.681978 152.144372 
L 544.941805 146.518326 
L 547.280253 146.518326 
L 547.540081 140.892279 
L 552.736632 140.892279 
L 552.99646 135.266233 
L 558.972494 135.266233 
L 559.232321 129.640186 
L 563.64939 129.640186 
L 563.909218 135.266233 
L 567.286976 135.266233 
L 567.546803 140.892279 
L 569.105769 140.892279 
L 569.365596 146.518326 
L 570.664734 146.518326 
L 570.924562 152.144372 
L 572.2237 152.144372 
L 572.483527 157.770419 
L 573.782665 157.770419 
L 574.042493 163.396465 
L 576.121113 163.396465 
L 576.380941 169.022512 
L 584.175768 169.022512 
L 584.435595 163.396465 
L 586.514216 163.396465 
L 586.774043 157.770419 
L 588.333009 157.770419 
L 588.592836 152.144372 
L 589.891974 152.144372 
L 590.151802 146.518326 
L 591.45094 146.518326 
L 591.710767 140.892279 
L 593.009905 140.892279 
L 593.269733 135.266233 
L 594.828698 135.266233 
L 595.088526 129.640186 
L 596.647491 129.640186 
L 596.907319 124.01414 
L 599.245767 124.01414 
L 599.505594 118.388093 
L 604.702146 118.388093 
L 604.961973 112.762047 
L 610.938007 112.762047 
L 611.197835 107.136 
L 614.575593 107.136 
L 614.835421 112.762047 
L 619.772144 112.762047 
L 620.031972 118.388093 
L 623.149903 118.388093 
L 623.40973 124.01414 
L 626.008006 124.01414 
L 626.267834 129.640186 
L 628.086627 129.640186 
L 628.346454 135.266233 
L 630.165247 135.266233 
L 630.425075 140.892279 
L 632.503695 140.892279 
L 632.763523 146.518326 
L 635.621626 146.518326 
L 635.881454 152.144372 
L 638.999384 152.144372 
L 639.259212 157.770419 
L 641.857488 157.770419 
L 642.117315 163.396465 
L 645.754901 163.396465 
L 646.014729 169.022512 
L 650.951453 169.022512 
L 651.21128 163.396465 
L 653.809556 163.396465 
L 654.069383 157.770419 
L 655.888176 157.770419 
L 656.148004 152.144372 
L 657.706969 152.144372 
L 657.966797 146.518326 
L 662.643693 146.518326 
L 662.903521 140.892279 
L 684.729036 140.892279 
L 684.988864 146.518326 
L 687.846967 146.518326 
L 688.106795 152.144372 
L 691.224726 152.144372 
L 691.484553 157.770419 
L 697.460587 157.770419 
L 697.720415 163.396465 
L 700.578518 163.396465 
L 700.838346 169.022512 
L 704.475931 169.022512 
L 704.735759 174.648558 
L 709.152828 174.648558 
L 709.412655 169.022512 
L 713.310069 169.022512 
L 713.569896 163.396465 
L 716.168172 163.396465 
L 716.428 157.770419 
L 719.286103 157.770419 
L 719.54593 152.144372 
L 722.663861 152.144372 
L 722.923689 146.518326 
L 728.639895 146.518326 
L 728.899723 140.892279 
L 734.356102 140.892279 
L 734.615929 135.266233 
L 737.214205 135.266233 
L 737.474033 140.892279 
L 750.465411 140.892279 
L 750.725238 146.518326 
L 755.92179 146.518326 
L 756.181617 152.144372 
L 759.039721 152.144372 
L 759.299548 157.770419 
L 763.196962 157.770419 
L 763.456789 163.396465 
L 767.354203 163.396465 
L 767.61403 157.770419 
L 774.369547 157.770419 
L 774.629375 152.144372 
L 778.007133 152.144372 
L 778.266961 146.518326 
L 781.125064 146.518326 
L 781.384891 140.892279 
L 787.101098 140.892279 
L 787.360925 135.266233 
L 793.596787 135.266233 
L 793.856615 129.640186 
L 796.974545 129.640186 
L 796.974545 129.640186 
" clip-path="url(#p7b4d91170b)" style="fill: none; stroke: #1f77b4; stroke-width: 1.5; stroke-linecap: square"/>
    <defs>
     <path id="mfb7d8d9346" d="M 0 1.5 
C 0.397805 1.5 0.77937 1.341951 1.06066 1.06066 
C 1.341951 0.77937 1.5 0.397805 1.5 0 
C 1.5 -0.397805 1.341951 -0.77937 1.06066 -1.06066 
C 0.77937 -1.341951 0.397805 -1.5 0 -1.5 
C -0.397805 -1.5 -0.77937 -1.341951 -1.06066 -1.06066 
C -1.341951 -0.77937 -1.5 -0.397805 -1.5 0 
C -1.5 0.397805 -1.341951 0.77937 -1.06066 1.06066 
C -0.77937 1.341951 -0.397805 1.5 0 1.5 
z
" style="stroke: #1f77b4"/>
    </defs>
    <g clip-path="url(#p7b4d91170b)">
     <use xlink:href="#mfb7d8d9346" x="147.665455" y="157.770419" style="fill: #1f77b4; stroke: #1f77b4"/>
     <use xlink:href="#mfb7d8d9346" x="150.26373" y="163.396465" style="fill: #1f77b4; stroke: #1f77b4"/>
     <use xlink:href="#mfb7d8d9346" x="152.862006" y="163.396465" style="fill: #1f77b4; stroke: #1f77b4"/>
     <use xlink:href="#mfb7d8d9346" x="155.460282" y="163.396465" style="fill: #1f77b4; stroke: #1f77b4"/>
     <use xlink:href="#mfb7d8d9346" x="158.058557" y="157.770419" style="fill: #1f77b4; stroke: #1f77b4"/>
     <use xlink:href="#mfb7d8d9346" x="160.656833" y="152.144372" style="fill: #1f77b4; stroke: #1f77b4"/>
     <use xlink:href="#mfb7d8d9346" x="163.255109" y="140.892279" style="fill: #1f77b4; stroke: #1f77b4"/>
     <use xlink:href="#mfb7d8d9346" x="165.853384" y="135.266233" style="fill: #1f77b4; stroke: #1f77b4"/>
     <use xlink:href="#mfb7d8d9346" x="168.45166" y="129.640186" style="fill: #1f77b4; stroke: #1f77b4"/>
     <use xlink:href="#mfb7d8d9346" x="171.049936" y="124.01414" style="fill: #1f77b4; stroke: #1f77b4"/>
     <use xlink:href="#mfb7d8d9346" x="173.648211" y="124.01414" style="fill: #1f77b4; stroke: #1f77b4"/>
     <use xlink:href="#mfb7d8d9346" x="176.246487" y="118.388093" style="fill: #1f77b4; stroke: #1f77b4"/>
     <use xlink:href="#mfb7d8d9346" x="178.844763" y="124.01414" style="fill: #1f77b4; stroke: #1f77b4"/>
     <use xlink:href="#mfb7d8d9346" x="181.443038" y="124.01414" style="fill: #1f77b4; stroke: #1f77b4"/>
     <use xlink:href="#mfb7d8d9346" x="184.041314" y="124.01414" style="fill: #1f77b4; stroke: #1f77b4"/>
     <use xlink:href="#mfb7d8d9346" x="186.63959" y="124.01414" style="fill: #1f77b4; stroke: #1f77b4"/>
     <use xlink:href="#mfb7d8d9346" x="189.237865" y="124.01414" style="fill: #1f77b4; stroke: #1f77b4"/>
     <use xlink:href="#mfb7d8d9346" x="191.836141" y="129.640186" style="fill: #1f77b4; stroke: #1f77b4"/>
     <use xlink:href="#mfb7d8d9346" x="194.434417" y="129.640186" style="fill: #1f77b4; stroke: #1f77b4"/>
     <use xlink:href="#mfb7d8d9346" x="197.032692" y="135.266233" style="fill: #1f77b4; stroke: #1f77b4"/>
     <use xlink:href="#mfb7d8d9346" x="199.630968" y="140.892279" style="fill: #1f77b4; stroke: #1f77b4"/>
     <use xlink:href="#mfb7d8d9346" x="202.229244" y="146.518326" style="fill: #1f77b4; stroke: #1f77b4"/>
     <use xlink:href="#mfb7d8d9346" x="204.827519" y="152.144372" style="fill: #1f77b4; stroke: #1f77b4"/>
     <use xlink:href="#mfb7d8d9346" x="207.425795" y="152.144372" style="fill: #1f77b4; stroke: #1f77b4"/>
     <use xlink:href="#mfb7d8d9346" x="210.024071" y="152.144372" style="fill: #1f77b4; stroke: #1f77b4"/>
     <use xlink:href="#mfb7d8d9346" x="212.622346" y="152.144372" style="fill: #1f77b4; stroke: #1f77b4"/>
     <use xlink:href="#mfb7d8d9346" x="215.220622" y="152.144372" style="fill: #1f77b4; stroke: #1f77b4"/>
     <use xlink:href="#mfb7d8d9346" x="217.818898" y="152.144372" style="fill: #1f77b4; stroke: #1f77b4"/>
     <use xlink:href="#mfb7d8d9346" x="220.417173" y="152.144372" style="fill: #1f77b4; stroke: #1f77b4"/>
     <use xlink:href="#mfb7d8d9346" x="223.015449" y="152.144372" style="fill: #1f77b4; stroke: #1f77b4"/>
     <use xlink:href="#mfb7d8d9346" x="225.613725" y="152.144372" style="fill: #1f77b4; stroke: #1f77b4"/>
     <use xlink:href="#mfb7d8d9346" x="228.212" y="152.144372" style="fill: #1f77b4; stroke: #1f77b4"/>
     <use xlink:href="#mfb7d8d9346" x="230.810276" y="146.518326" style="fill: #1f77b4; stroke: #1f77b4"/>
     <use xlink:href="#mfb7d8d9346" x="233.408552" y="140.892279" style="fill: #1f77b4; stroke: #1f77b4"/>
     <use xlink:href="#mfb7d8d9346" x="236.006827" y="135.266233" style="fill: #1f77b4; stroke: #1f77b4"/>
     <use xlink:href="#mfb7d8d9346" x="238.605103" y="129.640186" style="fill: #1f77b4; stroke: #1f77b4"/>
     <use xlink:href="#mfb7d8d9346" x="241.203379" y="129.640186" style="fill: #1f77b4; stroke: #1f77b4"/>
     <use xlink:href="#mfb7d8d9346" x="243.801654" y="124.01414" style="fill: #1f77b4; stroke: #1f77b4"/>
     <use xlink:href="#mfb7d8d9346" x="246.39993" y="129.640186" style="fill: #1f77b4; stroke: #1f77b4"/>
     <use xlink:href="#mfb7d8d9346" x="248.998206" y="129.640186" style="fill: #1f77b4; stroke: #1f77b4"/>
     <use xlink:href="#mfb7d8d9346" x="251.596482" y="135.266233" style="fill: #1f77b4; stroke: #1f77b4"/>
     <use xlink:href="#mfb7d8d9346" x="254.194757" y="140.892279" style="fill: #1f77b4; stroke: #1f77b4"/>
     <use xlink:href="#mfb7d8d9346" x="256.793033" y="140.892279" style="fill: #1f77b4; stroke: #1f77b4"/>
     <use xlink:href="#mfb7d8d9346" x="259.391309" y="140.892279" style="fill: #1f77b4; stroke: #1f77b4"/>
     <use xlink:href="#mfb7d8d9346" x="261.989584" y="140.892279" style="fill: #1f77b4; stroke: #1f77b4"/>
     <use xlink:href="#mfb7d8d9346" x="264.58786" y="146.518326" style="fill: #1f77b4; stroke: #1f77b4"/>
     <use xlink:href="#mfb7d8d9346" x="267.186136" y="146.518326" style="fill: #1f77b4; stroke: #1f77b4"/>
     <use xlink:href="#mfb7d8d9346" x="269.784411" y="152.144372" style="fill: #1f77b4; stroke: #1f77b4"/>
     <use xlink:href="#mfb7d8d9346" x="272.382687" y="157.770419" style="fill: #1f77b4; stroke: #1f77b4"/>
     <use xlink:href="#mfb7d8d9346" x="274.980963" y="157.770419" style="fill: #1f77b4; stroke: #1f77b4"/>
     <use xlink:href="#mfb7d8d9346" x="277.579238" y="163.396465" style="fill: #1f77b4; stroke: #1f77b4"/>
     <use xlink:href="#mfb7d8d9346" x="280.177514" y="163.396465" style="fill: #1f77b4; stroke: #1f77b4"/>
     <use xlink:href="#mfb7d8d9346" x="282.77579" y="157.770419" style="fill: #1f77b4; stroke: #1f77b4"/>
     <use xlink:href="#mfb7d8d9346" x="285.374065" y="152.144372" style="fill: #1f77b4; stroke: #1f77b4"/>
     <use xlink:href="#mfb7d8d9346" x="287.972341" y="146.518326" style="fill: #1f77b4; stroke: #1f77b4"/>
     <use xlink:href="#mfb7d8d9346" x="290.570617" y="146.518326" style="fill: #1f77b4; stroke: #1f77b4"/>
     <use xlink:href="#mfb7d8d9346" x="293.168892" y="146.518326" style="fill: #1f77b4; stroke: #1f77b4"/>
     <use xlink:href="#mfb7d8d9346" x="295.767168" y="146.518326" style="fill: #1f77b4; stroke: #1f77b4"/>
     <use xlink:href="#mfb7d8d9346" x="298.365444" y="146.518326" style="fill: #1f77b4; stroke: #1f77b4"/>
     <use xlink:href="#mfb7d8d9346" x="300.963719" y="140.892279" style="fill: #1f77b4; stroke: #1f77b4"/>
     <use xlink:href="#mfb7d8d9346" x="303.561995" y="140.892279" style="fill: #1f77b4; stroke: #1f77b4"/>
     <use xlink:href="#mfb7d8d9346" x="306.160271" y="140.892279" style="fill: #1f77b4; stroke: #1f77b4"/>
     <use xlink:href="#mfb7d8d9346" x="308.758546" y="135.266233" style="fill: #1f77b4; stroke: #1f77b4"/>
     <use xlink:href="#mfb7d8d9346" x="311.356822" y="135.266233" style="fill: #1f77b4; stroke: #1f77b4"/>
     <use xlink:href="#mfb7d8d9346" x="313.955098" y="129.640186" style="fill: #1f77b4; stroke: #1f77b4"/>
     <use xlink:href="#mfb7d8d9346" x="316.553373" y="135.266233" style="fill: #1f77b4; stroke: #1f77b4"/>
     <use xlink:href="#mfb7d8d9346" x="319.151649" y="135.266233" style="fill: #1f77b4; stroke: #1f77b4"/>
     <use xlink:href="#mfb7d8d9346" x="321.749925" y="140.892279" style="fill: #1f77b4; stroke: #1f77b4"/>
     <use xlink:href="#mfb7d8d9346" x="324.3482" y="146.518326" style="fill: #1f77b4; stroke: #1f77b4"/>
     <use xlink:href="#mfb7d8d9346" x="326.946476" y="146.518326" style="fill: #1f77b4; stroke: #1f77b4"/>
     <use xlink:href="#mfb7d8d9346" x="329.544752" y="152.144372" style="fill: #1f77b4; stroke: #1f77b4"/>
     <use xlink:href="#mfb7d8d9346" x="332.143027" y="152.144372" style="fill: #1f77b4; stroke: #1f77b4"/>
     <use xlink:href="#mfb7d8d9346" x="334.741303" y="157.770419" style="fill: #1f77b4; stroke: #1f77b4"/>
     <use xlink:href="#mfb7d8d9346" x="337.339579" y="157.770419" style="fill: #1f77b4; stroke: #1f77b4"/>
     <use xlink:href="#mfb7d8d9346" x="339.937854" y="157.770419" style="fill: #1f77b4; stroke: #1f77b4"/>
     <use xlink:href="#mfb7d8d9346" x="342.53613" y="157.770419" style="fill: #1f77b4; stroke: #1f77b4"/>
     <use xlink:href="#mfb7d8d9346" x="345.134406" y="157.770419" style="fill: #1f77b4; stroke: #1f77b4"/>
     <use xlink:href="#mfb7d8d9346" x="347.732681" y="152.144372" style="fill: #1f77b4; stroke: #1f77b4"/>
     <use xlink:href="#mfb7d8d9346" x="350.330957" y="152.144372" style="fill: #1f77b4; stroke: #1f77b4"/>
     <use xlink:href="#mfb7d8d9346" x="352.929233" y="146.518326" style="fill: #1f77b4; stroke: #1f77b4"/>
     <use xlink:href="#mfb7d8d9346" x="355.527508" y="146.518326" style="fill: #1f77b4; stroke: #1f77b4"/>
     <use xlink:href="#mfb7d8d9346" x="358.125784" y="140.892279" style="fill: #1f77b4; stroke: #1f77b4"/>
     <use xlink:href="#mfb7d8d9346" x="360.72406" y="135.266233" style="fill: #1f77b4; stroke: #1f77b4"/>
     <use xlink:href="#mfb7d8d9346" x="363.322335" y="135.266233" style="fill: #1f77b4; stroke: #1f77b4"/>
     <use xlink:href="#mfb7d8d9346" x="365.920611" y="135.266233" style="fill: #1f77b4; stroke: #1f77b4"/>
     <use xlink:href="#mfb7d8d9346" x="368.518887" y="135.266233" style="fill: #1f77b4; stroke: #1f77b4"/>
     <use xlink:href="#mfb7d8d9346" x="371.117163" y="135.266233" style="fill: #1f77b4; stroke: #1f77b4"/>
     <use xlink:href="#mfb7d8d9346" x="373.715438" y="135.266233" style="fill: #1f77b4; stroke: #1f77b4"/>
     <use xlink:href="#mfb7d8d9346" x="376.313714" y="135.266233" style="fill: #1f77b4; stroke: #1f77b4"/>
     <use xlink:href="#mfb7d8d9346" x="378.91199" y="135.266233" style="fill: #1f77b4; stroke: #1f77b4"/>
     <use xlink:href="#mfb7d8d9346" x="381.510265" y="140.892279" style="fill: #1f77b4; stroke: #1f77b4"/>
     <use xlink:href="#mfb7d8d9346" x="384.108541" y="140.892279" style="fill: #1f77b4; stroke: #1f77b4"/>
     <use xlink:href="#mfb7d8d9346" x="386.706817" y="140.892279" style="fill: #1f77b4; stroke: #1f77b4"/>
     <use xlink:href="#mfb7d8d9346" x="389.305092" y="140.892279" style="fill: #1f77b4; stroke: #1f77b4"/>
     <use xlink:href="#mfb7d8d9346" x="391.903368" y="140.892279" style="fill: #1f77b4; stroke: #1f77b4"/>
     <use xlink:href="#mfb7d8d9346" x="394.501644" y="146.518326" style="fill: #1f77b4; stroke: #1f77b4"/>
     <use xlink:href="#mfb7d8d9346" x="397.099919" y="146.518326" style="fill: #1f77b4; stroke: #1f77b4"/>
     <use xlink:href="#mfb7d8d9346" x="399.698195" y="146.518326" style="fill: #1f77b4; stroke: #1f77b4"/>
     <use xlink:href="#mfb7d8d9346" x="402.296471" y="152.144372" style="fill: #1f77b4; stroke: #1f77b4"/>
     <use xlink:href="#mfb7d8d9346" x="404.894746" y="152.144372" style="fill: #1f77b4; stroke: #1f77b4"/>
     <use xlink:href="#mfb7d8d9346" x="407.493022" y="163.396465" style="fill: #1f77b4; stroke: #1f77b4"/>
     <use xlink:href="#mfb7d8d9346" x="410.091298" y="174.648558" style="fill: #1f77b4; stroke: #1f77b4"/>
     <use xlink:href="#mfb7d8d9346" x="412.689573" y="202.778791" style="fill: #1f77b4; stroke: #1f77b4"/>
     <use xlink:href="#mfb7d8d9346" x="415.287849" y="236.53507" style="fill: #1f77b4; stroke: #1f77b4"/>
     <use xlink:href="#mfb7d8d9346" x="417.886125" y="281.543442" style="fill: #1f77b4; stroke: #1f77b4"/>
     <use xlink:href="#mfb7d8d9346" x="420.4844" y="337.803907" style="fill: #1f77b4; stroke: #1f77b4"/>
     <use xlink:href="#mfb7d8d9346" x="423.082676" y="399.690419" style="fill: #1f77b4; stroke: #1f77b4"/>
     <use xlink:href="#mfb7d8d9346" x="425.680952" y="461.57693" style="fill: #1f77b4; stroke: #1f77b4"/>
     <use xlink:href="#mfb7d8d9346" x="428.279227" y="517.837395" style="fill: #1f77b4; stroke: #1f77b4"/>
     <use xlink:href="#mfb7d8d9346" x="430.877503" y="557.219721" style="fill: #1f77b4; stroke: #1f77b4"/>
     <use xlink:href="#mfb7d8d9346" x="433.475779" y="579.723907" style="fill: #1f77b4; stroke: #1f77b4"/>
     <use xlink:href="#mfb7d8d9346" x="436.074054" y="590.976" style="fill: #1f77b4; stroke: #1f77b4"/>
     <use xlink:href="#mfb7d8d9346" x="438.67233" y="590.976" style="fill: #1f77b4; stroke: #1f77b4"/>
     <use xlink:href="#mfb7d8d9346" x="441.270606" y="585.349953" style="fill: #1f77b4; stroke: #1f77b4"/>
     <use xlink:href="#mfb7d8d9346" x="443.868881" y="574.09786" style="fill: #1f77b4; stroke: #1f77b4"/>
     <use xlink:href="#mfb7d8d9346" x="446.467157" y="574.09786" style="fill: #1f77b4; stroke: #1f77b4"/>
     <use xlink:href="#mfb7d8d9346" x="449.065433" y="574.09786" style="fill: #1f77b4; stroke: #1f77b4"/>
     <use xlink:href="#mfb7d8d9346" x="451.663708" y="568.471814" style="fill: #1f77b4; stroke: #1f77b4"/>
     <use xlink:href="#mfb7d8d9346" x="454.261984" y="562.845767" style="fill: #1f77b4; stroke: #1f77b4"/>
     <use xlink:href="#mfb7d8d9346" x="456.86026" y="545.967628" style="fill: #1f77b4; stroke: #1f77b4"/>
     <use xlink:href="#mfb7d8d9346" x="459.458535" y="517.837395" style="fill: #1f77b4; stroke: #1f77b4"/>
     <use xlink:href="#mfb7d8d9346" x="462.056811" y="484.081116" style="fill: #1f77b4; stroke: #1f77b4"/>
     <use xlink:href="#mfb7d8d9346" x="464.655087" y="439.072744" style="fill: #1f77b4; stroke: #1f77b4"/>
     <use xlink:href="#mfb7d8d9346" x="467.253362" y="394.064372" style="fill: #1f77b4; stroke: #1f77b4"/>
     <use xlink:href="#mfb7d8d9346" x="469.851638" y="349.056" style="fill: #1f77b4; stroke: #1f77b4"/>
     <use xlink:href="#mfb7d8d9346" x="472.449914" y="309.673674" style="fill: #1f77b4; stroke: #1f77b4"/>
     <use xlink:href="#mfb7d8d9346" x="475.048189" y="275.917395" style="fill: #1f77b4; stroke: #1f77b4"/>
     <use xlink:href="#mfb7d8d9346" x="477.646465" y="247.787163" style="fill: #1f77b4; stroke: #1f77b4"/>
     <use xlink:href="#mfb7d8d9346" x="480.244741" y="230.909023" style="fill: #1f77b4; stroke: #1f77b4"/>
     <use xlink:href="#mfb7d8d9346" x="482.843016" y="214.030884" style="fill: #1f77b4; stroke: #1f77b4"/>
     <use xlink:href="#mfb7d8d9346" x="485.441292" y="202.778791" style="fill: #1f77b4; stroke: #1f77b4"/>
     <use xlink:href="#mfb7d8d9346" x="488.039568" y="197.152744" style="fill: #1f77b4; stroke: #1f77b4"/>
     <use xlink:href="#mfb7d8d9346" x="490.637844" y="191.526698" style="fill: #1f77b4; stroke: #1f77b4"/>
     <use xlink:href="#mfb7d8d9346" x="493.236119" y="185.900651" style="fill: #1f77b4; stroke: #1f77b4"/>
     <use xlink:href="#mfb7d8d9346" x="495.834395" y="185.900651" style="fill: #1f77b4; stroke: #1f77b4"/>
     <use xlink:href="#mfb7d8d9346" x="498.432671" y="191.526698" style="fill: #1f77b4; stroke: #1f77b4"/>
     <use xlink:href="#mfb7d8d9346" x="501.030946" y="202.778791" style="fill: #1f77b4; stroke: #1f77b4"/>
     <use xlink:href="#mfb7d8d9346" x="503.629222" y="208.404837" style="fill: #1f77b4; stroke: #1f77b4"/>
     <use xlink:href="#mfb7d8d9346" x="506.227498" y="214.030884" style="fill: #1f77b4; stroke: #1f77b4"/>
     <use xlink:href="#mfb7d8d9346" x="508.825773" y="214.030884" style="fill: #1f77b4; stroke: #1f77b4"/>
     <use xlink:href="#mfb7d8d9346" x="511.424049" y="219.65693" style="fill: #1f77b4; stroke: #1f77b4"/>
     <use xlink:href="#mfb7d8d9346" x="514.022325" y="225.282977" style="fill: #1f77b4; stroke: #1f77b4"/>
     <use xlink:href="#mfb7d8d9346" x="516.6206" y="230.909023" style="fill: #1f77b4; stroke: #1f77b4"/>
     <use xlink:href="#mfb7d8d9346" x="519.218876" y="230.909023" style="fill: #1f77b4; stroke: #1f77b4"/>
     <use xlink:href="#mfb7d8d9346" x="521.817152" y="225.282977" style="fill: #1f77b4; stroke: #1f77b4"/>
     <use xlink:href="#mfb7d8d9346" x="524.415427" y="225.282977" style="fill: #1f77b4; stroke: #1f77b4"/>
     <use xlink:href="#mfb7d8d9346" x="527.013703" y="219.65693" style="fill: #1f77b4; stroke: #1f77b4"/>
     <use xlink:href="#mfb7d8d9346" x="529.611979" y="214.030884" style="fill: #1f77b4; stroke: #1f77b4"/>
     <use xlink:href="#mfb7d8d9346" x="532.210254" y="202.778791" style="fill: #1f77b4; stroke: #1f77b4"/>
     <use xlink:href="#mfb7d8d9346" x="534.80853" y="185.900651" style="fill: #1f77b4; stroke: #1f77b4"/>
     <use xlink:href="#mfb7d8d9346" x="537.406806" y="174.648558" style="fill: #1f77b4; stroke: #1f77b4"/>
     <use xlink:href="#mfb7d8d9346" x="540.005081" y="163.396465" style="fill: #1f77b4; stroke: #1f77b4"/>
     <use xlink:href="#mfb7d8d9346" x="542.603357" y="157.770419" style="fill: #1f77b4; stroke: #1f77b4"/>
     <use xlink:href="#mfb7d8d9346" x="545.201633" y="146.518326" style="fill: #1f77b4; stroke: #1f77b4"/>
     <use xlink:href="#mfb7d8d9346" x="547.799908" y="140.892279" style="fill: #1f77b4; stroke: #1f77b4"/>
     <use xlink:href="#mfb7d8d9346" x="550.398184" y="140.892279" style="fill: #1f77b4; stroke: #1f77b4"/>
     <use xlink:href="#mfb7d8d9346" x="552.99646" y="135.266233" style="fill: #1f77b4; stroke: #1f77b4"/>
     <use xlink:href="#mfb7d8d9346" x="555.594735" y="135.266233" style="fill: #1f77b4; stroke: #1f77b4"/>
     <use xlink:href="#mfb7d8d9346" x="558.193011" y="135.266233" style="fill: #1f77b4; stroke: #1f77b4"/>
     <use xlink:href="#mfb7d8d9346" x="560.791287" y="129.640186" style="fill: #1f77b4; stroke: #1f77b4"/>
     <use xlink:href="#mfb7d8d9346" x="563.389562" y="129.640186" style="fill: #1f77b4; stroke: #1f77b4"/>
     <use xlink:href="#mfb7d8d9346" x="565.987838" y="135.266233" style="fill: #1f77b4; stroke: #1f77b4"/>
     <use xlink:href="#mfb7d8d9346" x="568.586114" y="140.892279" style="fill: #1f77b4; stroke: #1f77b4"/>
     <use xlink:href="#mfb7d8d9346" x="571.184389" y="152.144372" style="fill: #1f77b4; stroke: #1f77b4"/>
     <use xlink:href="#mfb7d8d9346" x="573.782665" y="157.770419" style="fill: #1f77b4; stroke: #1f77b4"/>
     <use xlink:href="#mfb7d8d9346" x="576.380941" y="169.022512" style="fill: #1f77b4; stroke: #1f77b4"/>
     <use xlink:href="#mfb7d8d9346" x="578.979216" y="169.022512" style="fill: #1f77b4; stroke: #1f77b4"/>
     <use xlink:href="#mfb7d8d9346" x="581.577492" y="169.022512" style="fill: #1f77b4; stroke: #1f77b4"/>
     <use xlink:href="#mfb7d8d9346" x="584.175768" y="169.022512" style="fill: #1f77b4; stroke: #1f77b4"/>
     <use xlink:href="#mfb7d8d9346" x="586.774043" y="157.770419" style="fill: #1f77b4; stroke: #1f77b4"/>
     <use xlink:href="#mfb7d8d9346" x="589.372319" y="152.144372" style="fill: #1f77b4; stroke: #1f77b4"/>
     <use xlink:href="#mfb7d8d9346" x="591.970595" y="140.892279" style="fill: #1f77b4; stroke: #1f77b4"/>
     <use xlink:href="#mfb7d8d9346" x="594.56887" y="135.266233" style="fill: #1f77b4; stroke: #1f77b4"/>
     <use xlink:href="#mfb7d8d9346" x="597.167146" y="124.01414" style="fill: #1f77b4; stroke: #1f77b4"/>
     <use xlink:href="#mfb7d8d9346" x="599.765422" y="118.388093" style="fill: #1f77b4; stroke: #1f77b4"/>
     <use xlink:href="#mfb7d8d9346" x="602.363697" y="118.388093" style="fill: #1f77b4; stroke: #1f77b4"/>
     <use xlink:href="#mfb7d8d9346" x="604.961973" y="112.762047" style="fill: #1f77b4; stroke: #1f77b4"/>
     <use xlink:href="#mfb7d8d9346" x="607.560249" y="112.762047" style="fill: #1f77b4; stroke: #1f77b4"/>
     <use xlink:href="#mfb7d8d9346" x="610.158525" y="112.762047" style="fill: #1f77b4; stroke: #1f77b4"/>
     <use xlink:href="#mfb7d8d9346" x="612.7568" y="107.136" style="fill: #1f77b4; stroke: #1f77b4"/>
     <use xlink:href="#mfb7d8d9346" x="615.355076" y="112.762047" style="fill: #1f77b4; stroke: #1f77b4"/>
     <use xlink:href="#mfb7d8d9346" x="617.953352" y="112.762047" style="fill: #1f77b4; stroke: #1f77b4"/>
     <use xlink:href="#mfb7d8d9346" x="620.551627" y="118.388093" style="fill: #1f77b4; stroke: #1f77b4"/>
     <use xlink:href="#mfb7d8d9346" x="623.149903" y="118.388093" style="fill: #1f77b4; stroke: #1f77b4"/>
     <use xlink:href="#mfb7d8d9346" x="625.748179" y="124.01414" style="fill: #1f77b4; stroke: #1f77b4"/>
     <use xlink:href="#mfb7d8d9346" x="628.346454" y="135.266233" style="fill: #1f77b4; stroke: #1f77b4"/>
     <use xlink:href="#mfb7d8d9346" x="630.94473" y="140.892279" style="fill: #1f77b4; stroke: #1f77b4"/>
     <use xlink:href="#mfb7d8d9346" x="633.543006" y="146.518326" style="fill: #1f77b4; stroke: #1f77b4"/>
     <use xlink:href="#mfb7d8d9346" x="636.141281" y="152.144372" style="fill: #1f77b4; stroke: #1f77b4"/>
     <use xlink:href="#mfb7d8d9346" x="638.739557" y="152.144372" style="fill: #1f77b4; stroke: #1f77b4"/>
     <use xlink:href="#mfb7d8d9346" x="641.337833" y="157.770419" style="fill: #1f77b4; stroke: #1f77b4"/>
     <use xlink:href="#mfb7d8d9346" x="643.936108" y="163.396465" style="fill: #1f77b4; stroke: #1f77b4"/>
     <use xlink:href="#mfb7d8d9346" x="646.534384" y="169.022512" style="fill: #1f77b4; stroke: #1f77b4"/>
     <use xlink:href="#mfb7d8d9346" x="649.13266" y="169.022512" style="fill: #1f77b4; stroke: #1f77b4"/>
     <use xlink:href="#mfb7d8d9346" x="651.730935" y="163.396465" style="fill: #1f77b4; stroke: #1f77b4"/>
     <use xlink:href="#mfb7d8d9346" x="654.329211" y="157.770419" style="fill: #1f77b4; stroke: #1f77b4"/>
     <use xlink:href="#mfb7d8d9346" x="656.927487" y="152.144372" style="fill: #1f77b4; stroke: #1f77b4"/>
     <use xlink:href="#mfb7d8d9346" x="659.525762" y="146.518326" style="fill: #1f77b4; stroke: #1f77b4"/>
     <use xlink:href="#mfb7d8d9346" x="662.124038" y="146.518326" style="fill: #1f77b4; stroke: #1f77b4"/>
     <use xlink:href="#mfb7d8d9346" x="664.722314" y="140.892279" style="fill: #1f77b4; stroke: #1f77b4"/>
     <use xlink:href="#mfb7d8d9346" x="667.320589" y="140.892279" style="fill: #1f77b4; stroke: #1f77b4"/>
     <use xlink:href="#mfb7d8d9346" x="669.918865" y="140.892279" style="fill: #1f77b4; stroke: #1f77b4"/>
     <use xlink:href="#mfb7d8d9346" x="672.517141" y="140.892279" style="fill: #1f77b4; stroke: #1f77b4"/>
     <use xlink:href="#mfb7d8d9346" x="675.115416" y="140.892279" style="fill: #1f77b4; stroke: #1f77b4"/>
     <use xlink:href="#mfb7d8d9346" x="677.713692" y="140.892279" style="fill: #1f77b4; stroke: #1f77b4"/>
     <use xlink:href="#mfb7d8d9346" x="680.311968" y="140.892279" style="fill: #1f77b4; stroke: #1f77b4"/>
     <use xlink:href="#mfb7d8d9346" x="682.910243" y="140.892279" style="fill: #1f77b4; stroke: #1f77b4"/>
     <use xlink:href="#mfb7d8d9346" x="685.508519" y="146.518326" style="fill: #1f77b4; stroke: #1f77b4"/>
     <use xlink:href="#mfb7d8d9346" x="688.106795" y="152.144372" style="fill: #1f77b4; stroke: #1f77b4"/>
     <use xlink:href="#mfb7d8d9346" x="690.70507" y="152.144372" style="fill: #1f77b4; stroke: #1f77b4"/>
     <use xlink:href="#mfb7d8d9346" x="693.303346" y="157.770419" style="fill: #1f77b4; stroke: #1f77b4"/>
     <use xlink:href="#mfb7d8d9346" x="695.901622" y="157.770419" style="fill: #1f77b4; stroke: #1f77b4"/>
     <use xlink:href="#mfb7d8d9346" x="698.499897" y="163.396465" style="fill: #1f77b4; stroke: #1f77b4"/>
     <use xlink:href="#mfb7d8d9346" x="701.098173" y="169.022512" style="fill: #1f77b4; stroke: #1f77b4"/>
     <use xlink:href="#mfb7d8d9346" x="703.696449" y="169.022512" style="fill: #1f77b4; stroke: #1f77b4"/>
     <use xlink:href="#mfb7d8d9346" x="706.294724" y="174.648558" style="fill: #1f77b4; stroke: #1f77b4"/>
     <use xlink:href="#mfb7d8d9346" x="708.893" y="174.648558" style="fill: #1f77b4; stroke: #1f77b4"/>
     <use xlink:href="#mfb7d8d9346" x="711.491276" y="169.022512" style="fill: #1f77b4; stroke: #1f77b4"/>
     <use xlink:href="#mfb7d8d9346" x="714.089551" y="163.396465" style="fill: #1f77b4; stroke: #1f77b4"/>
     <use xlink:href="#mfb7d8d9346" x="716.687827" y="157.770419" style="fill: #1f77b4; stroke: #1f77b4"/>
     <use xlink:href="#mfb7d8d9346" x="719.286103" y="157.770419" style="fill: #1f77b4; stroke: #1f77b4"/>
     <use xlink:href="#mfb7d8d9346" x="721.884378" y="152.144372" style="fill: #1f77b4; stroke: #1f77b4"/>
     <use xlink:href="#mfb7d8d9346" x="724.482654" y="146.518326" style="fill: #1f77b4; stroke: #1f77b4"/>
     <use xlink:href="#mfb7d8d9346" x="727.08093" y="146.518326" style="fill: #1f77b4; stroke: #1f77b4"/>
     <use xlink:href="#mfb7d8d9346" x="729.679206" y="140.892279" style="fill: #1f77b4; stroke: #1f77b4"/>
     <use xlink:href="#mfb7d8d9346" x="732.277481" y="140.892279" style="fill: #1f77b4; stroke: #1f77b4"/>
     <use xlink:href="#mfb7d8d9346" x="734.875757" y="135.266233" style="fill: #1f77b4; stroke: #1f77b4"/>
     <use xlink:href="#mfb7d8d9346" x="737.474033" y="140.892279" style="fill: #1f77b4; stroke: #1f77b4"/>
     <use xlink:href="#mfb7d8d9346" x="740.072308" y="140.892279" style="fill: #1f77b4; stroke: #1f77b4"/>
     <use xlink:href="#mfb7d8d9346" x="742.670584" y="140.892279" style="fill: #1f77b4; stroke: #1f77b4"/>
     <use xlink:href="#mfb7d8d9346" x="745.26886" y="140.892279" style="fill: #1f77b4; stroke: #1f77b4"/>
     <use xlink:href="#mfb7d8d9346" x="747.867135" y="140.892279" style="fill: #1f77b4; stroke: #1f77b4"/>
     <use xlink:href="#mfb7d8d9346" x="750.465411" y="140.892279" style="fill: #1f77b4; stroke: #1f77b4"/>
     <use xlink:href="#mfb7d8d9346" x="753.063687" y="146.518326" style="fill: #1f77b4; stroke: #1f77b4"/>
     <use xlink:href="#mfb7d8d9346" x="755.661962" y="146.518326" style="fill: #1f77b4; stroke: #1f77b4"/>
     <use xlink:href="#mfb7d8d9346" x="758.260238" y="152.144372" style="fill: #1f77b4; stroke: #1f77b4"/>
     <use xlink:href="#mfb7d8d9346" x="760.858514" y="157.770419" style="fill: #1f77b4; stroke: #1f77b4"/>
     <use xlink:href="#mfb7d8d9346" x="763.456789" y="163.396465" style="fill: #1f77b4; stroke: #1f77b4"/>
     <use xlink:href="#mfb7d8d9346" x="766.055065" y="163.396465" style="fill: #1f77b4; stroke: #1f77b4"/>
     <use xlink:href="#mfb7d8d9346" x="768.653341" y="157.770419" style="fill: #1f77b4; stroke: #1f77b4"/>
     <use xlink:href="#mfb7d8d9346" x="771.251616" y="157.770419" style="fill: #1f77b4; stroke: #1f77b4"/>
     <use xlink:href="#mfb7d8d9346" x="773.849892" y="157.770419" style="fill: #1f77b4; stroke: #1f77b4"/>
     <use xlink:href="#mfb7d8d9346" x="776.448168" y="152.144372" style="fill: #1f77b4; stroke: #1f77b4"/>
     <use xlink:href="#mfb7d8d9346" x="779.046443" y="146.518326" style="fill: #1f77b4; stroke: #1f77b4"/>
     <use xlink:href="#mfb7d8d9346" x="781.644719" y="140.892279" style="fill: #1f77b4; stroke: #1f77b4"/>
     <use xlink:href="#mfb7d8d9346" x="784.242995" y="140.892279" style="fill: #1f77b4; stroke: #1f77b4"/>
     <use xlink:href="#mfb7d8d9346" x="786.84127" y="140.892279" style="fill: #1f77b4; stroke: #1f77b4"/>
     <use xlink:href="#mfb7d8d9346" x="789.439546" y="135.266233" style="fill: #1f77b4; stroke: #1f77b4"/>
     <use xlink:href="#mfb7d8d9346" x="792.037822" y="135.266233" style="fill: #1f77b4; stroke: #1f77b4"/>
     <use xlink:href="#mfb7d8d9346" x="794.636097" y="129.640186" style="fill: #1f77b4; stroke: #1f77b4"/>
    </g>
   </g>
   <g id="patch_3">
    <path d="M 115.2 615.168 
L 115.2 82.944 
" style="fill: none; stroke: #000000; stroke-width: 0.8; stroke-linejoin: miter; stroke-linecap: square"/>
   </g>
   <g id="patch_4">
    <path d="M 829.44 615.168 
L 829.44 82.944 
" style="fill: none; stroke: #000000; stroke-width: 0.8; stroke-linejoin: miter; stroke-linecap: square"/>
   </g>
   <g id="patch_5">
    <path d="M 115.2 615.168 
L 829.44 615.168 
" style="fill: none; stroke: #000000; stroke-width: 0.8; stroke-linejoin: miter; stroke-linecap: square"/>
   </g>
   <g id="patch_6">
    <path d="M 115.2 82.944 
L 829.44 82.944 
" style="fill: none; stroke: #000000; stroke-width: 0.8; stroke-linejoin: miter; stroke-linecap: square"/>
   </g>
  </g>
 </g>
 <defs>
  <clipPath id="p7b4d91170b">
   <rect x="115.2" y="82.944" width="714.24" height="532.224"/>
  </clipPath>
 </defs>
</svg>
