<?xml version="1.0" encoding="utf-8" standalone="no"?>
<!DOCTYPE svg PUBLIC "-//W3C//DTD SVG 1.1//EN"
  "http://www.w3.org/Graphics/SVG/1.1/DTD/svg11.dtd">
<svg xmlns:xlink="http://www.w3.org/1999/xlink" width="921.6pt" height="691.2pt" viewBox="0 0 921.6 691.2" xmlns="http://www.w3.org/2000/svg" version="1.1">
 <metadata>
  <rdf:RDF xmlns:dc="http://purl.org/dc/elements/1.1/" xmlns:cc="http://creativecommons.org/ns#" xmlns:rdf="http://www.w3.org/1999/02/22-rdf-syntax-ns#">
   <cc:Work>
    <dc:type rdf:resource="http://purl.org/dc/dcmitype/StillImage"/>
    <dc:date>2023-03-18T15:52:35.158722</dc:date>
    <dc:format>image/svg+xml</dc:format>
    <dc:creator>
     <cc:Agent>
      <dc:title>Matplotlib v3.5.1, https://matplotlib.org/</dc:title>
     </cc:Agent>
    </dc:creator>
   </cc:Work>
  </rdf:RDF>
 </metadata>
 <defs>
  <style type="text/css">*{stroke-linejoin: round; stroke-linecap: butt}</style>
 </defs>
 <g id="figure_1">
  <g id="patch_1">
   <path d="M 0 691.2 
L 921.6 691.2 
L 921.6 0 
L 0 0 
z
" style="fill: #ffffff"/>
  </g>
  <g id="axes_1">
   <g id="patch_2">
    <path d="M 115.2 615.168 
L 829.44 615.168 
L 829.44 82.944 
L 115.2 82.944 
z
" style="fill: #ffffff"/>
   </g>
   <g id="matplotlib.axis_1">
    <g id="xtick_1">
     <g id="line2d_1">
      <path d="M 145.067179 615.168 
L 145.067179 82.944 
" clip-path="url(#pb81fd8e1eb)" style="fill: none; stroke: #b0b0b0; stroke-width: 0.8; stroke-linecap: square"/>
     </g>
     <g id="line2d_2">
      <defs>
       <path id="mc66bafe825" d="M 0 0 
L 0 3.5 
" style="stroke: #000000; stroke-width: 0.8"/>
      </defs>
      <g>
       <use xlink:href="#mc66bafe825" x="145.067179" y="615.168" style="stroke: #000000; stroke-width: 0.8"/>
      </g>
     </g>
     <g id="text_1">
      <!-- −1500 -->
      <g transform="translate(102.780069 641.164094)scale(0.25 -0.25)">
       <defs>
        <path id="DejaVuSans-2212" d="M 678 2272 
L 4684 2272 
L 4684 1741 
L 678 1741 
L 678 2272 
z
" transform="scale(0.015625)"/>
        <path id="DejaVuSans-31" d="M 794 531 
L 1825 531 
L 1825 4091 
L 703 3866 
L 703 4441 
L 1819 4666 
L 2450 4666 
L 2450 531 
L 3481 531 
L 3481 0 
L 794 0 
L 794 531 
z
" transform="scale(0.015625)"/>
        <path id="DejaVuSans-35" d="M 691 4666 
L 3169 4666 
L 3169 4134 
L 1269 4134 
L 1269 2991 
Q 1406 3038 1543 3061 
Q 1681 3084 1819 3084 
Q 2600 3084 3056 2656 
Q 3513 2228 3513 1497 
Q 3513 744 3044 326 
Q 2575 -91 1722 -91 
Q 1428 -91 1123 -41 
Q 819 9 494 109 
L 494 744 
Q 775 591 1075 516 
Q 1375 441 1709 441 
Q 2250 441 2565 725 
Q 2881 1009 2881 1497 
Q 2881 1984 2565 2268 
Q 2250 2553 1709 2553 
Q 1456 2553 1204 2497 
Q 953 2441 691 2322 
L 691 4666 
z
" transform="scale(0.015625)"/>
        <path id="DejaVuSans-30" d="M 2034 4250 
Q 1547 4250 1301 3770 
Q 1056 3291 1056 2328 
Q 1056 1369 1301 889 
Q 1547 409 2034 409 
Q 2525 409 2770 889 
Q 3016 1369 3016 2328 
Q 3016 3291 2770 3770 
Q 2525 4250 2034 4250 
z
M 2034 4750 
Q 2819 4750 3233 4129 
Q 3647 3509 3647 2328 
Q 3647 1150 3233 529 
Q 2819 -91 2034 -91 
Q 1250 -91 836 529 
Q 422 1150 422 2328 
Q 422 3509 836 4129 
Q 1250 4750 2034 4750 
z
" transform="scale(0.015625)"/>
       </defs>
       <use xlink:href="#DejaVuSans-2212"/>
       <use xlink:href="#DejaVuSans-31" x="83.789062"/>
       <use xlink:href="#DejaVuSans-35" x="147.412109"/>
       <use xlink:href="#DejaVuSans-30" x="211.035156"/>
       <use xlink:href="#DejaVuSans-30" x="274.658203"/>
      </g>
     </g>
    </g>
    <g id="xtick_2">
     <g id="line2d_3">
      <path d="M 274.980963 615.168 
L 274.980963 82.944 
" clip-path="url(#pb81fd8e1eb)" style="fill: none; stroke: #b0b0b0; stroke-width: 0.8; stroke-linecap: square"/>
     </g>
     <g id="line2d_4">
      <g>
       <use xlink:href="#mc66bafe825" x="274.980963" y="615.168" style="stroke: #000000; stroke-width: 0.8"/>
      </g>
     </g>
     <g id="text_2">
      <!-- −1000 -->
      <g transform="translate(232.693853 641.164094)scale(0.25 -0.25)">
       <use xlink:href="#DejaVuSans-2212"/>
       <use xlink:href="#DejaVuSans-31" x="83.789062"/>
       <use xlink:href="#DejaVuSans-30" x="147.412109"/>
       <use xlink:href="#DejaVuSans-30" x="211.035156"/>
       <use xlink:href="#DejaVuSans-30" x="274.658203"/>
      </g>
     </g>
    </g>
    <g id="xtick_3">
     <g id="line2d_5">
      <path d="M 404.894746 615.168 
L 404.894746 82.944 
" clip-path="url(#pb81fd8e1eb)" style="fill: none; stroke: #b0b0b0; stroke-width: 0.8; stroke-linecap: square"/>
     </g>
     <g id="line2d_6">
      <g>
       <use xlink:href="#mc66bafe825" x="404.894746" y="615.168" style="stroke: #000000; stroke-width: 0.8"/>
      </g>
     </g>
     <g id="text_3">
      <!-- −500 -->
      <g transform="translate(370.560762 641.164094)scale(0.25 -0.25)">
       <use xlink:href="#DejaVuSans-2212"/>
       <use xlink:href="#DejaVuSans-35" x="83.789062"/>
       <use xlink:href="#DejaVuSans-30" x="147.412109"/>
       <use xlink:href="#DejaVuSans-30" x="211.035156"/>
      </g>
     </g>
    </g>
    <g id="xtick_4">
     <g id="line2d_7">
      <path d="M 534.80853 615.168 
L 534.80853 82.944 
" clip-path="url(#pb81fd8e1eb)" style="fill: none; stroke: #b0b0b0; stroke-width: 0.8; stroke-linecap: square"/>
     </g>
     <g id="line2d_8">
      <g>
       <use xlink:href="#mc66bafe825" x="534.80853" y="615.168" style="stroke: #000000; stroke-width: 0.8"/>
      </g>
     </g>
     <g id="text_4">
      <!-- 0 -->
      <g transform="translate(526.855405 641.164094)scale(0.25 -0.25)">
       <use xlink:href="#DejaVuSans-30"/>
      </g>
     </g>
    </g>
    <g id="xtick_5">
     <g id="line2d_9">
      <path d="M 664.722314 615.168 
L 664.722314 82.944 
" clip-path="url(#pb81fd8e1eb)" style="fill: none; stroke: #b0b0b0; stroke-width: 0.8; stroke-linecap: square"/>
     </g>
     <g id="line2d_10">
      <g>
       <use xlink:href="#mc66bafe825" x="664.722314" y="615.168" style="stroke: #000000; stroke-width: 0.8"/>
      </g>
     </g>
     <g id="text_5">
      <!-- 500 -->
      <g transform="translate(640.862939 641.164094)scale(0.25 -0.25)">
       <use xlink:href="#DejaVuSans-35"/>
       <use xlink:href="#DejaVuSans-30" x="63.623047"/>
       <use xlink:href="#DejaVuSans-30" x="127.246094"/>
      </g>
     </g>
    </g>
    <g id="xtick_6">
     <g id="line2d_11">
      <path d="M 794.636097 615.168 
L 794.636097 82.944 
" clip-path="url(#pb81fd8e1eb)" style="fill: none; stroke: #b0b0b0; stroke-width: 0.8; stroke-linecap: square"/>
     </g>
     <g id="line2d_12">
      <g>
       <use xlink:href="#mc66bafe825" x="794.636097" y="615.168" style="stroke: #000000; stroke-width: 0.8"/>
      </g>
     </g>
     <g id="text_6">
      <!-- 1000 -->
      <g transform="translate(762.823597 641.164094)scale(0.25 -0.25)">
       <use xlink:href="#DejaVuSans-31"/>
       <use xlink:href="#DejaVuSans-30" x="63.623047"/>
       <use xlink:href="#DejaVuSans-30" x="127.246094"/>
       <use xlink:href="#DejaVuSans-30" x="190.869141"/>
      </g>
     </g>
    </g>
    <g id="text_7">
     <!-- Tiempo [ns] -->
     <g transform="translate(383.12625 673.158625)scale(0.3 -0.3)">
      <defs>
       <path id="DejaVuSans-54" d="M -19 4666 
L 3928 4666 
L 3928 4134 
L 2272 4134 
L 2272 0 
L 1638 0 
L 1638 4134 
L -19 4134 
L -19 4666 
z
" transform="scale(0.015625)"/>
       <path id="DejaVuSans-69" d="M 603 3500 
L 1178 3500 
L 1178 0 
L 603 0 
L 603 3500 
z
M 603 4863 
L 1178 4863 
L 1178 4134 
L 603 4134 
L 603 4863 
z
" transform="scale(0.015625)"/>
       <path id="DejaVuSans-65" d="M 3597 1894 
L 3597 1613 
L 953 1613 
Q 991 1019 1311 708 
Q 1631 397 2203 397 
Q 2534 397 2845 478 
Q 3156 559 3463 722 
L 3463 178 
Q 3153 47 2828 -22 
Q 2503 -91 2169 -91 
Q 1331 -91 842 396 
Q 353 884 353 1716 
Q 353 2575 817 3079 
Q 1281 3584 2069 3584 
Q 2775 3584 3186 3129 
Q 3597 2675 3597 1894 
z
M 3022 2063 
Q 3016 2534 2758 2815 
Q 2500 3097 2075 3097 
Q 1594 3097 1305 2825 
Q 1016 2553 972 2059 
L 3022 2063 
z
" transform="scale(0.015625)"/>
       <path id="DejaVuSans-6d" d="M 3328 2828 
Q 3544 3216 3844 3400 
Q 4144 3584 4550 3584 
Q 5097 3584 5394 3201 
Q 5691 2819 5691 2113 
L 5691 0 
L 5113 0 
L 5113 2094 
Q 5113 2597 4934 2840 
Q 4756 3084 4391 3084 
Q 3944 3084 3684 2787 
Q 3425 2491 3425 1978 
L 3425 0 
L 2847 0 
L 2847 2094 
Q 2847 2600 2669 2842 
Q 2491 3084 2119 3084 
Q 1678 3084 1418 2786 
Q 1159 2488 1159 1978 
L 1159 0 
L 581 0 
L 581 3500 
L 1159 3500 
L 1159 2956 
Q 1356 3278 1631 3431 
Q 1906 3584 2284 3584 
Q 2666 3584 2933 3390 
Q 3200 3197 3328 2828 
z
" transform="scale(0.015625)"/>
       <path id="DejaVuSans-70" d="M 1159 525 
L 1159 -1331 
L 581 -1331 
L 581 3500 
L 1159 3500 
L 1159 2969 
Q 1341 3281 1617 3432 
Q 1894 3584 2278 3584 
Q 2916 3584 3314 3078 
Q 3713 2572 3713 1747 
Q 3713 922 3314 415 
Q 2916 -91 2278 -91 
Q 1894 -91 1617 61 
Q 1341 213 1159 525 
z
M 3116 1747 
Q 3116 2381 2855 2742 
Q 2594 3103 2138 3103 
Q 1681 3103 1420 2742 
Q 1159 2381 1159 1747 
Q 1159 1113 1420 752 
Q 1681 391 2138 391 
Q 2594 391 2855 752 
Q 3116 1113 3116 1747 
z
" transform="scale(0.015625)"/>
       <path id="DejaVuSans-6f" d="M 1959 3097 
Q 1497 3097 1228 2736 
Q 959 2375 959 1747 
Q 959 1119 1226 758 
Q 1494 397 1959 397 
Q 2419 397 2687 759 
Q 2956 1122 2956 1747 
Q 2956 2369 2687 2733 
Q 2419 3097 1959 3097 
z
M 1959 3584 
Q 2709 3584 3137 3096 
Q 3566 2609 3566 1747 
Q 3566 888 3137 398 
Q 2709 -91 1959 -91 
Q 1206 -91 779 398 
Q 353 888 353 1747 
Q 353 2609 779 3096 
Q 1206 3584 1959 3584 
z
" transform="scale(0.015625)"/>
       <path id="DejaVuSans-20" transform="scale(0.015625)"/>
       <path id="DejaVuSans-5b" d="M 550 4863 
L 1875 4863 
L 1875 4416 
L 1125 4416 
L 1125 -397 
L 1875 -397 
L 1875 -844 
L 550 -844 
L 550 4863 
z
" transform="scale(0.015625)"/>
       <path id="DejaVuSans-6e" d="M 3513 2113 
L 3513 0 
L 2938 0 
L 2938 2094 
Q 2938 2591 2744 2837 
Q 2550 3084 2163 3084 
Q 1697 3084 1428 2787 
Q 1159 2491 1159 1978 
L 1159 0 
L 581 0 
L 581 3500 
L 1159 3500 
L 1159 2956 
Q 1366 3272 1645 3428 
Q 1925 3584 2291 3584 
Q 2894 3584 3203 3211 
Q 3513 2838 3513 2113 
z
" transform="scale(0.015625)"/>
       <path id="DejaVuSans-73" d="M 2834 3397 
L 2834 2853 
Q 2591 2978 2328 3040 
Q 2066 3103 1784 3103 
Q 1356 3103 1142 2972 
Q 928 2841 928 2578 
Q 928 2378 1081 2264 
Q 1234 2150 1697 2047 
L 1894 2003 
Q 2506 1872 2764 1633 
Q 3022 1394 3022 966 
Q 3022 478 2636 193 
Q 2250 -91 1575 -91 
Q 1294 -91 989 -36 
Q 684 19 347 128 
L 347 722 
Q 666 556 975 473 
Q 1284 391 1588 391 
Q 1994 391 2212 530 
Q 2431 669 2431 922 
Q 2431 1156 2273 1281 
Q 2116 1406 1581 1522 
L 1381 1569 
Q 847 1681 609 1914 
Q 372 2147 372 2553 
Q 372 3047 722 3315 
Q 1072 3584 1716 3584 
Q 2034 3584 2315 3537 
Q 2597 3491 2834 3397 
z
" transform="scale(0.015625)"/>
       <path id="DejaVuSans-5d" d="M 1947 4863 
L 1947 -844 
L 622 -844 
L 622 -397 
L 1369 -397 
L 1369 4416 
L 622 4416 
L 622 4863 
L 1947 4863 
z
" transform="scale(0.015625)"/>
      </defs>
      <use xlink:href="#DejaVuSans-54"/>
      <use xlink:href="#DejaVuSans-69" x="57.958984"/>
      <use xlink:href="#DejaVuSans-65" x="85.742188"/>
      <use xlink:href="#DejaVuSans-6d" x="147.265625"/>
      <use xlink:href="#DejaVuSans-70" x="244.677734"/>
      <use xlink:href="#DejaVuSans-6f" x="308.154297"/>
      <use xlink:href="#DejaVuSans-20" x="369.335938"/>
      <use xlink:href="#DejaVuSans-5b" x="401.123047"/>
      <use xlink:href="#DejaVuSans-6e" x="440.136719"/>
      <use xlink:href="#DejaVuSans-73" x="503.515625"/>
      <use xlink:href="#DejaVuSans-5d" x="555.615234"/>
     </g>
    </g>
   </g>
   <g id="matplotlib.axis_2">
    <g id="ytick_1">
     <g id="line2d_13">
      <path d="M 115.2 599.318069 
L 829.44 599.318069 
" clip-path="url(#pb81fd8e1eb)" style="fill: none; stroke: #b0b0b0; stroke-width: 0.8; stroke-linecap: square"/>
     </g>
     <g id="line2d_14">
      <defs>
       <path id="m45f0e8e28e" d="M 0 0 
L -3.5 0 
" style="stroke: #000000; stroke-width: 0.8"/>
      </defs>
      <g>
       <use xlink:href="#m45f0e8e28e" x="115.2" y="599.318069" style="stroke: #000000; stroke-width: 0.8"/>
      </g>
     </g>
     <g id="text_8">
      <!-- −120 -->
      <g transform="translate(39.532031 608.816116)scale(0.25 -0.25)">
       <defs>
        <path id="DejaVuSans-32" d="M 1228 531 
L 3431 531 
L 3431 0 
L 469 0 
L 469 531 
Q 828 903 1448 1529 
Q 2069 2156 2228 2338 
Q 2531 2678 2651 2914 
Q 2772 3150 2772 3378 
Q 2772 3750 2511 3984 
Q 2250 4219 1831 4219 
Q 1534 4219 1204 4116 
Q 875 4013 500 3803 
L 500 4441 
Q 881 4594 1212 4672 
Q 1544 4750 1819 4750 
Q 2544 4750 2975 4387 
Q 3406 4025 3406 3419 
Q 3406 3131 3298 2873 
Q 3191 2616 2906 2266 
Q 2828 2175 2409 1742 
Q 1991 1309 1228 531 
z
" transform="scale(0.015625)"/>
       </defs>
       <use xlink:href="#DejaVuSans-2212"/>
       <use xlink:href="#DejaVuSans-31" x="83.789062"/>
       <use xlink:href="#DejaVuSans-32" x="147.412109"/>
       <use xlink:href="#DejaVuSans-30" x="211.035156"/>
      </g>
     </g>
    </g>
    <g id="ytick_2">
     <g id="line2d_15">
      <path d="M 115.2 515.897379 
L 829.44 515.897379 
" clip-path="url(#pb81fd8e1eb)" style="fill: none; stroke: #b0b0b0; stroke-width: 0.8; stroke-linecap: square"/>
     </g>
     <g id="line2d_16">
      <g>
       <use xlink:href="#m45f0e8e28e" x="115.2" y="515.897379" style="stroke: #000000; stroke-width: 0.8"/>
      </g>
     </g>
     <g id="text_9">
      <!-- −100 -->
      <g transform="translate(39.532031 525.395426)scale(0.25 -0.25)">
       <use xlink:href="#DejaVuSans-2212"/>
       <use xlink:href="#DejaVuSans-31" x="83.789062"/>
       <use xlink:href="#DejaVuSans-30" x="147.412109"/>
       <use xlink:href="#DejaVuSans-30" x="211.035156"/>
      </g>
     </g>
    </g>
    <g id="ytick_3">
     <g id="line2d_17">
      <path d="M 115.2 432.47669 
L 829.44 432.47669 
" clip-path="url(#pb81fd8e1eb)" style="fill: none; stroke: #b0b0b0; stroke-width: 0.8; stroke-linecap: square"/>
     </g>
     <g id="line2d_18">
      <g>
       <use xlink:href="#m45f0e8e28e" x="115.2" y="432.47669" style="stroke: #000000; stroke-width: 0.8"/>
      </g>
     </g>
     <g id="text_10">
      <!-- −80 -->
      <g transform="translate(55.438281 441.974737)scale(0.25 -0.25)">
       <defs>
        <path id="DejaVuSans-38" d="M 2034 2216 
Q 1584 2216 1326 1975 
Q 1069 1734 1069 1313 
Q 1069 891 1326 650 
Q 1584 409 2034 409 
Q 2484 409 2743 651 
Q 3003 894 3003 1313 
Q 3003 1734 2745 1975 
Q 2488 2216 2034 2216 
z
M 1403 2484 
Q 997 2584 770 2862 
Q 544 3141 544 3541 
Q 544 4100 942 4425 
Q 1341 4750 2034 4750 
Q 2731 4750 3128 4425 
Q 3525 4100 3525 3541 
Q 3525 3141 3298 2862 
Q 3072 2584 2669 2484 
Q 3125 2378 3379 2068 
Q 3634 1759 3634 1313 
Q 3634 634 3220 271 
Q 2806 -91 2034 -91 
Q 1263 -91 848 271 
Q 434 634 434 1313 
Q 434 1759 690 2068 
Q 947 2378 1403 2484 
z
M 1172 3481 
Q 1172 3119 1398 2916 
Q 1625 2713 2034 2713 
Q 2441 2713 2670 2916 
Q 2900 3119 2900 3481 
Q 2900 3844 2670 4047 
Q 2441 4250 2034 4250 
Q 1625 4250 1398 4047 
Q 1172 3844 1172 3481 
z
" transform="scale(0.015625)"/>
       </defs>
       <use xlink:href="#DejaVuSans-2212"/>
       <use xlink:href="#DejaVuSans-38" x="83.789062"/>
       <use xlink:href="#DejaVuSans-30" x="147.412109"/>
      </g>
     </g>
    </g>
    <g id="ytick_4">
     <g id="line2d_19">
      <path d="M 115.2 349.056 
L 829.44 349.056 
" clip-path="url(#pb81fd8e1eb)" style="fill: none; stroke: #b0b0b0; stroke-width: 0.8; stroke-linecap: square"/>
     </g>
     <g id="line2d_20">
      <g>
       <use xlink:href="#m45f0e8e28e" x="115.2" y="349.056" style="stroke: #000000; stroke-width: 0.8"/>
      </g>
     </g>
     <g id="text_11">
      <!-- −60 -->
      <g transform="translate(55.438281 358.554047)scale(0.25 -0.25)">
       <defs>
        <path id="DejaVuSans-36" d="M 2113 2584 
Q 1688 2584 1439 2293 
Q 1191 2003 1191 1497 
Q 1191 994 1439 701 
Q 1688 409 2113 409 
Q 2538 409 2786 701 
Q 3034 994 3034 1497 
Q 3034 2003 2786 2293 
Q 2538 2584 2113 2584 
z
M 3366 4563 
L 3366 3988 
Q 3128 4100 2886 4159 
Q 2644 4219 2406 4219 
Q 1781 4219 1451 3797 
Q 1122 3375 1075 2522 
Q 1259 2794 1537 2939 
Q 1816 3084 2150 3084 
Q 2853 3084 3261 2657 
Q 3669 2231 3669 1497 
Q 3669 778 3244 343 
Q 2819 -91 2113 -91 
Q 1303 -91 875 529 
Q 447 1150 447 2328 
Q 447 3434 972 4092 
Q 1497 4750 2381 4750 
Q 2619 4750 2861 4703 
Q 3103 4656 3366 4563 
z
" transform="scale(0.015625)"/>
       </defs>
       <use xlink:href="#DejaVuSans-2212"/>
       <use xlink:href="#DejaVuSans-36" x="83.789062"/>
       <use xlink:href="#DejaVuSans-30" x="147.412109"/>
      </g>
     </g>
    </g>
    <g id="ytick_5">
     <g id="line2d_21">
      <path d="M 115.2 265.63531 
L 829.44 265.63531 
" clip-path="url(#pb81fd8e1eb)" style="fill: none; stroke: #b0b0b0; stroke-width: 0.8; stroke-linecap: square"/>
     </g>
     <g id="line2d_22">
      <g>
       <use xlink:href="#m45f0e8e28e" x="115.2" y="265.63531" style="stroke: #000000; stroke-width: 0.8"/>
      </g>
     </g>
     <g id="text_12">
      <!-- −40 -->
      <g transform="translate(55.438281 275.133357)scale(0.25 -0.25)">
       <defs>
        <path id="DejaVuSans-34" d="M 2419 4116 
L 825 1625 
L 2419 1625 
L 2419 4116 
z
M 2253 4666 
L 3047 4666 
L 3047 1625 
L 3713 1625 
L 3713 1100 
L 3047 1100 
L 3047 0 
L 2419 0 
L 2419 1100 
L 313 1100 
L 313 1709 
L 2253 4666 
z
" transform="scale(0.015625)"/>
       </defs>
       <use xlink:href="#DejaVuSans-2212"/>
       <use xlink:href="#DejaVuSans-34" x="83.789062"/>
       <use xlink:href="#DejaVuSans-30" x="147.412109"/>
      </g>
     </g>
    </g>
    <g id="ytick_6">
     <g id="line2d_23">
      <path d="M 115.2 182.214621 
L 829.44 182.214621 
" clip-path="url(#pb81fd8e1eb)" style="fill: none; stroke: #b0b0b0; stroke-width: 0.8; stroke-linecap: square"/>
     </g>
     <g id="line2d_24">
      <g>
       <use xlink:href="#m45f0e8e28e" x="115.2" y="182.214621" style="stroke: #000000; stroke-width: 0.8"/>
      </g>
     </g>
     <g id="text_13">
      <!-- −20 -->
      <g transform="translate(55.438281 191.712668)scale(0.25 -0.25)">
       <use xlink:href="#DejaVuSans-2212"/>
       <use xlink:href="#DejaVuSans-32" x="83.789062"/>
       <use xlink:href="#DejaVuSans-30" x="147.412109"/>
      </g>
     </g>
    </g>
    <g id="ytick_7">
     <g id="line2d_25">
      <path d="M 115.2 98.793931 
L 829.44 98.793931 
" clip-path="url(#pb81fd8e1eb)" style="fill: none; stroke: #b0b0b0; stroke-width: 0.8; stroke-linecap: square"/>
     </g>
     <g id="line2d_26">
      <g>
       <use xlink:href="#m45f0e8e28e" x="115.2" y="98.793931" style="stroke: #000000; stroke-width: 0.8"/>
      </g>
     </g>
     <g id="text_14">
      <!-- 0 -->
      <g transform="translate(92.29375 108.291978)scale(0.25 -0.25)">
       <use xlink:href="#DejaVuSans-30"/>
      </g>
     </g>
    </g>
    <g id="text_15">
     <!-- Voltaje [mV] -->
     <g transform="translate(29.292969 441.313031)rotate(-90)scale(0.3 -0.3)">
      <defs>
       <path id="DejaVuSans-56" d="M 1831 0 
L 50 4666 
L 709 4666 
L 2188 738 
L 3669 4666 
L 4325 4666 
L 2547 0 
L 1831 0 
z
" transform="scale(0.015625)"/>
       <path id="DejaVuSans-6c" d="M 603 4863 
L 1178 4863 
L 1178 0 
L 603 0 
L 603 4863 
z
" transform="scale(0.015625)"/>
       <path id="DejaVuSans-74" d="M 1172 4494 
L 1172 3500 
L 2356 3500 
L 2356 3053 
L 1172 3053 
L 1172 1153 
Q 1172 725 1289 603 
Q 1406 481 1766 481 
L 2356 481 
L 2356 0 
L 1766 0 
Q 1100 0 847 248 
Q 594 497 594 1153 
L 594 3053 
L 172 3053 
L 172 3500 
L 594 3500 
L 594 4494 
L 1172 4494 
z
" transform="scale(0.015625)"/>
       <path id="DejaVuSans-61" d="M 2194 1759 
Q 1497 1759 1228 1600 
Q 959 1441 959 1056 
Q 959 750 1161 570 
Q 1363 391 1709 391 
Q 2188 391 2477 730 
Q 2766 1069 2766 1631 
L 2766 1759 
L 2194 1759 
z
M 3341 1997 
L 3341 0 
L 2766 0 
L 2766 531 
Q 2569 213 2275 61 
Q 1981 -91 1556 -91 
Q 1019 -91 701 211 
Q 384 513 384 1019 
Q 384 1609 779 1909 
Q 1175 2209 1959 2209 
L 2766 2209 
L 2766 2266 
Q 2766 2663 2505 2880 
Q 2244 3097 1772 3097 
Q 1472 3097 1187 3025 
Q 903 2953 641 2809 
L 641 3341 
Q 956 3463 1253 3523 
Q 1550 3584 1831 3584 
Q 2591 3584 2966 3190 
Q 3341 2797 3341 1997 
z
" transform="scale(0.015625)"/>
       <path id="DejaVuSans-6a" d="M 603 3500 
L 1178 3500 
L 1178 -63 
Q 1178 -731 923 -1031 
Q 669 -1331 103 -1331 
L -116 -1331 
L -116 -844 
L 38 -844 
Q 366 -844 484 -692 
Q 603 -541 603 -63 
L 603 3500 
z
M 603 4863 
L 1178 4863 
L 1178 4134 
L 603 4134 
L 603 4863 
z
" transform="scale(0.015625)"/>
      </defs>
      <use xlink:href="#DejaVuSans-56"/>
      <use xlink:href="#DejaVuSans-6f" x="60.658203"/>
      <use xlink:href="#DejaVuSans-6c" x="121.839844"/>
      <use xlink:href="#DejaVuSans-74" x="149.623047"/>
      <use xlink:href="#DejaVuSans-61" x="188.832031"/>
      <use xlink:href="#DejaVuSans-6a" x="250.111328"/>
      <use xlink:href="#DejaVuSans-65" x="277.894531"/>
      <use xlink:href="#DejaVuSans-20" x="339.417969"/>
      <use xlink:href="#DejaVuSans-5b" x="371.205078"/>
      <use xlink:href="#DejaVuSans-6d" x="410.21875"/>
      <use xlink:href="#DejaVuSans-56" x="507.630859"/>
      <use xlink:href="#DejaVuSans-5d" x="576.039062"/>
     </g>
    </g>
   </g>
   <g id="line2d_27">
    <path d="M 147.665455 173.872552 
L 147.925282 182.214621 
L 148.18511 173.872552 
L 148.444937 173.872552 
L 148.704765 165.530483 
L 148.964592 165.530483 
L 149.22442 157.188414 
L 149.484248 157.188414 
L 150.26373 182.214621 
L 150.783385 182.214621 
L 151.562868 157.188414 
L 152.082523 157.188414 
L 152.602178 173.872552 
L 152.862006 173.872552 
L 153.121833 182.214621 
L 153.381661 182.214621 
L 153.901316 165.530483 
L 154.161144 165.530483 
L 154.420971 157.188414 
L 154.680799 157.188414 
L 155.200454 173.872552 
L 155.720109 173.872552 
L 155.979937 182.214621 
L 156.239764 173.872552 
L 156.499592 157.188414 
L 156.759419 157.188414 
L 157.019247 148.846345 
L 157.279075 157.188414 
L 157.538902 173.872552 
L 157.79873 173.872552 
L 158.058557 182.214621 
L 158.318385 182.214621 
L 158.83804 165.530483 
L 159.097868 148.846345 
L 159.357695 140.504276 
L 160.397005 173.872552 
L 160.656833 173.872552 
L 160.91666 182.214621 
L 161.176488 165.530483 
L 161.955971 140.504276 
L 162.475626 157.188414 
L 162.735453 173.872552 
L 163.255109 173.872552 
L 163.514936 182.214621 
L 164.034591 140.504276 
L 164.294419 140.504276 
L 164.554246 148.846345 
L 164.814074 148.846345 
L 165.073902 157.188414 
L 165.333729 182.214621 
L 165.853384 182.214621 
L 166.373039 165.530483 
L 166.632867 148.846345 
L 167.152522 148.846345 
L 168.191832 182.214621 
L 169.49097 140.504276 
L 169.750798 157.188414 
L 170.270453 173.872552 
L 171.049936 173.872552 
L 171.309763 148.846345 
L 171.569591 148.846345 
L 171.829418 140.504276 
L 172.089246 148.846345 
L 172.349073 148.846345 
L 172.868729 165.530483 
L 173.388384 165.530483 
L 173.648211 157.188414 
L 173.908039 157.188414 
L 174.167866 148.846345 
L 174.427694 157.188414 
L 174.687522 148.846345 
L 175.726832 182.214621 
L 175.986659 182.214621 
L 176.246487 165.530483 
L 177.02597 140.504276 
L 177.285797 148.846345 
L 177.545625 165.530483 
L 177.805452 165.530483 
L 178.325107 182.214621 
L 179.10459 157.188414 
L 179.364418 140.504276 
L 180.1439 165.530483 
L 180.663556 165.530483 
L 180.923383 173.872552 
L 181.183211 173.872552 
L 181.443038 165.530483 
L 181.702866 148.846345 
L 181.962693 148.846345 
L 182.222521 157.188414 
L 182.482349 140.504276 
L 183.002004 173.872552 
L 183.261831 182.214621 
L 183.521659 165.530483 
L 183.781486 157.188414 
L 184.041314 165.530483 
L 184.301142 157.188414 
L 185.340452 157.188414 
L 185.600279 165.530483 
L 185.860107 157.188414 
L 186.119935 173.872552 
L 186.379762 157.188414 
L 186.63959 148.846345 
L 186.899417 148.846345 
L 187.159245 157.188414 
L 187.6789 157.188414 
L 187.938727 165.530483 
L 188.198555 157.188414 
L 188.458383 165.530483 
L 188.71821 157.188414 
L 189.237865 157.188414 
L 189.497693 140.504276 
L 189.75752 148.846345 
L 190.277176 148.846345 
L 190.537003 140.504276 
L 190.796831 157.188414 
L 191.576313 157.188414 
L 191.836141 140.504276 
L 192.095969 157.188414 
L 192.355796 157.188414 
L 192.615624 165.530483 
L 193.135279 165.530483 
L 193.395106 157.188414 
L 193.654934 157.188414 
L 193.914762 148.846345 
L 194.174589 148.846345 
L 194.434417 157.188414 
L 194.694244 148.846345 
L 194.954072 165.530483 
L 195.473727 165.530483 
L 195.993382 148.846345 
L 196.25321 157.188414 
L 196.513037 148.846345 
L 196.772865 157.188414 
L 197.032692 148.846345 
L 197.29252 157.188414 
L 197.812175 157.188414 
L 198.072003 148.846345 
L 198.33183 148.846345 
L 198.851485 132.162207 
L 199.37114 148.846345 
L 199.630968 148.846345 
L 199.890796 157.188414 
L 200.150623 157.188414 
L 200.410451 148.846345 
L 200.670278 148.846345 
L 200.930106 140.504276 
L 201.189933 140.504276 
L 201.449761 132.162207 
L 201.709589 140.504276 
L 201.969416 157.188414 
L 202.229244 157.188414 
L 202.489071 165.530483 
L 202.748899 165.530483 
L 203.268554 148.846345 
L 203.528382 148.846345 
L 203.788209 132.162207 
L 204.048037 148.846345 
L 204.307864 140.504276 
L 204.567692 148.846345 
L 204.827519 165.530483 
L 205.087347 157.188414 
L 205.347175 165.530483 
L 205.607002 148.846345 
L 206.126657 132.162207 
L 206.90614 157.188414 
L 207.165967 157.188414 
L 207.425795 173.872552 
L 208.465105 140.504276 
L 208.724933 148.846345 
L 209.244588 132.162207 
L 209.504416 140.504276 
L 209.764243 157.188414 
L 210.024071 165.530483 
L 210.283898 165.530483 
L 210.543726 140.504276 
L 211.063381 123.820138 
L 211.323209 132.162207 
L 211.583036 132.162207 
L 212.362519 157.188414 
L 212.622346 157.188414 
L 212.882174 148.846345 
L 213.142002 132.162207 
L 213.401829 123.820138 
L 213.661657 123.820138 
L 214.960794 165.530483 
L 215.220622 148.846345 
L 215.48045 148.846345 
L 215.740277 123.820138 
L 216.000105 115.478069 
L 216.259932 123.820138 
L 216.51976 140.504276 
L 217.299243 165.530483 
L 217.55907 148.846345 
L 217.818898 148.846345 
L 218.338553 132.162207 
L 218.59838 132.162207 
L 218.858208 140.504276 
L 219.118036 140.504276 
L 219.377863 157.188414 
L 219.637691 165.530483 
L 220.157346 148.846345 
L 220.417173 148.846345 
L 220.677001 123.820138 
L 220.936829 132.162207 
L 221.196656 123.820138 
L 221.456484 132.162207 
L 221.716311 157.188414 
L 221.976139 165.530483 
L 222.235966 190.55669 
L 222.495794 198.898759 
L 222.755622 182.214621 
L 223.275277 165.530483 
L 224.054759 165.530483 
L 224.314587 182.214621 
L 224.574414 207.240828 
L 224.834242 198.898759 
L 225.09407 198.898759 
L 226.13338 165.530483 
L 226.653035 182.214621 
L 226.912863 207.240828 
L 227.17269 215.582897 
L 227.692345 198.898759 
L 228.212 165.530483 
L 228.471828 165.530483 
L 228.991483 182.214621 
L 229.251311 182.214621 
L 229.511138 198.898759 
L 229.770966 198.898759 
L 230.290621 182.214621 
L 230.550449 182.214621 
L 230.810276 165.530483 
L 231.070104 165.530483 
L 231.329931 173.872552 
L 231.589759 190.55669 
L 231.849586 190.55669 
L 232.109414 207.240828 
L 232.369242 207.240828 
L 232.629069 182.214621 
L 232.888897 173.872552 
L 233.148724 182.214621 
L 233.408552 173.872552 
L 233.668379 173.872552 
L 234.188034 190.55669 
L 234.447862 207.240828 
L 234.70769 207.240828 
L 234.967517 198.898759 
L 235.487172 165.530483 
L 236.266655 165.530483 
L 236.526483 173.872552 
L 236.78631 190.55669 
L 237.046138 190.55669 
L 237.305965 182.214621 
L 237.565793 182.214621 
L 237.82562 165.530483 
L 238.085448 165.530483 
L 238.345276 157.188414 
L 238.864931 173.872552 
L 239.124758 173.872552 
L 239.384586 190.55669 
L 239.644413 182.214621 
L 239.904241 198.898759 
L 240.164069 165.530483 
L 240.683724 165.530483 
L 240.943551 157.188414 
L 241.203379 173.872552 
L 241.463206 182.214621 
L 241.723034 182.214621 
L 241.982862 190.55669 
L 242.242689 190.55669 
L 243.281999 157.188414 
L 243.541827 165.530483 
L 243.801654 182.214621 
L 244.32131 198.898759 
L 244.840965 198.898759 
L 245.100792 173.872552 
L 245.36062 173.872552 
L 245.620447 157.188414 
L 246.140103 173.872552 
L 246.659758 207.240828 
L 246.919585 207.240828 
L 247.43924 223.924966 
L 247.699068 190.55669 
L 247.958896 173.872552 
L 248.218723 173.872552 
L 248.738378 190.55669 
L 249.258033 223.924966 
L 249.517861 223.924966 
L 250.037516 207.240828 
L 250.297344 182.214621 
L 250.557171 173.872552 
L 250.816999 173.872552 
L 251.336654 207.240828 
L 251.856309 223.924966 
L 252.116137 223.924966 
L 252.375964 215.582897 
L 252.635792 190.55669 
L 253.155447 173.872552 
L 253.675102 190.55669 
L 253.93493 207.240828 
L 254.194757 215.582897 
L 254.714412 215.582897 
L 254.97424 198.898759 
L 255.234067 173.872552 
L 255.493895 182.214621 
L 255.753723 173.872552 
L 256.01355 182.214621 
L 256.273378 207.240828 
L 256.533205 215.582897 
L 256.793033 215.582897 
L 257.05286 223.924966 
L 257.312688 215.582897 
L 257.572516 190.55669 
L 257.832343 182.214621 
L 258.092171 190.55669 
L 258.351998 182.214621 
L 258.611826 190.55669 
L 258.871653 207.240828 
L 259.131481 215.582897 
L 259.651136 215.582897 
L 259.910964 198.898759 
L 260.170791 198.898759 
L 260.430619 173.872552 
L 260.690446 182.214621 
L 260.950274 173.872552 
L 261.210101 198.898759 
L 261.729757 215.582897 
L 261.989584 215.582897 
L 262.249412 198.898759 
L 262.509239 198.898759 
L 262.769067 182.214621 
L 263.028894 173.872552 
L 263.288722 190.55669 
L 263.54855 182.214621 
L 263.808377 198.898759 
L 264.068205 198.898759 
L 264.328032 207.240828 
L 264.58786 198.898759 
L 264.847687 182.214621 
L 265.107515 190.55669 
L 265.367343 173.872552 
L 265.62717 173.872552 
L 265.886998 182.214621 
L 266.146825 182.214621 
L 266.406653 198.898759 
L 266.66648 207.240828 
L 267.445963 182.214621 
L 267.705791 165.530483 
L 268.225446 182.214621 
L 268.485273 182.214621 
L 268.745101 198.898759 
L 269.004929 198.898759 
L 269.264756 207.240828 
L 269.524584 207.240828 
L 270.304066 182.214621 
L 270.563894 182.214621 
L 271.343377 207.240828 
L 272.122859 207.240828 
L 272.382687 198.898759 
L 272.642514 182.214621 
L 272.902342 173.872552 
L 273.16217 182.214621 
L 273.681825 182.214621 
L 273.941652 198.898759 
L 274.20148 190.55669 
L 274.461307 198.898759 
L 274.721135 182.214621 
L 274.980963 182.214621 
L 275.24079 173.872552 
L 275.760445 173.872552 
L 276.539928 198.898759 
L 276.799756 190.55669 
L 277.059583 190.55669 
L 277.579238 173.872552 
L 278.098893 173.872552 
L 278.358721 182.214621 
L 278.618549 182.214621 
L 279.138204 198.898759 
L 279.398031 190.55669 
L 279.657859 190.55669 
L 279.917686 182.214621 
L 280.177514 165.530483 
L 280.437341 182.214621 
L 280.956997 182.214621 
L 281.216824 190.55669 
L 281.476652 190.55669 
L 281.736479 198.898759 
L 282.77579 165.530483 
L 283.035617 165.530483 
L 283.295445 182.214621 
L 283.555272 182.214621 
L 283.8151 190.55669 
L 284.594583 190.55669 
L 284.85441 182.214621 
L 285.114238 165.530483 
L 285.374065 173.872552 
L 285.633893 173.872552 
L 285.89372 190.55669 
L 286.673203 190.55669 
L 286.933031 182.214621 
L 287.192858 190.55669 
L 287.712513 173.872552 
L 287.972341 182.214621 
L 288.232169 173.872552 
L 288.491996 182.214621 
L 288.751824 173.872552 
L 289.011651 182.214621 
L 289.271479 173.872552 
L 289.531306 182.214621 
L 289.791134 165.530483 
L 290.050961 165.530483 
L 290.310789 173.872552 
L 291.350099 173.872552 
L 291.609927 182.214621 
L 291.869754 182.214621 
L 292.38941 165.530483 
L 292.909065 165.530483 
L 293.168892 173.872552 
L 293.948375 173.872552 
L 294.208203 182.214621 
L 294.46803 173.872552 
L 295.247513 173.872552 
L 295.50734 182.214621 
L 296.286823 182.214621 
L 296.546651 173.872552 
L 297.066306 173.872552 
L 297.326133 182.214621 
L 297.585961 173.872552 
L 298.105616 173.872552 
L 298.365444 182.214621 
L 298.625271 173.872552 
L 298.885099 173.872552 
L 299.144926 165.530483 
L 299.664581 165.530483 
L 299.924409 157.188414 
L 300.184237 165.530483 
L 300.444064 165.530483 
L 300.703892 182.214621 
L 300.963719 173.872552 
L 301.483374 173.872552 
L 302.00303 157.188414 
L 302.262857 165.530483 
L 303.04234 165.530483 
L 303.302167 173.872552 
L 303.821823 173.872552 
L 304.341478 157.188414 
L 304.601305 165.530483 
L 304.861133 165.530483 
L 305.12096 157.188414 
L 305.380788 165.530483 
L 305.900443 165.530483 
L 306.160271 182.214621 
L 306.679926 165.530483 
L 306.939753 165.530483 
L 307.199581 157.188414 
L 307.719236 173.872552 
L 307.979064 165.530483 
L 308.238891 165.530483 
L 308.498719 173.872552 
L 308.758546 165.530483 
L 309.018374 173.872552 
L 309.278201 165.530483 
L 310.057684 165.530483 
L 310.577339 182.214621 
L 310.837167 182.214621 
L 311.356822 223.924966 
L 311.61665 232.267034 
L 312.136305 215.582897 
L 312.396132 223.924966 
L 312.65596 223.924966 
L 312.915787 215.582897 
L 313.175615 215.582897 
L 313.435443 223.924966 
L 313.69527 215.582897 
L 313.955098 232.267034 
L 314.214925 223.924966 
L 314.73458 223.924966 
L 314.994408 215.582897 
L 315.514063 215.582897 
L 315.773891 207.240828 
L 316.033718 223.924966 
L 316.293546 215.582897 
L 317.073028 215.582897 
L 317.332856 232.267034 
L 317.592684 215.582897 
L 317.852511 215.582897 
L 318.112339 207.240828 
L 319.151649 207.240828 
L 319.671304 223.924966 
L 319.931132 215.582897 
L 320.450787 215.582897 
L 320.710614 207.240828 
L 320.970442 207.240828 
L 321.23027 215.582897 
L 321.490097 207.240828 
L 321.749925 207.240828 
L 322.009752 215.582897 
L 322.26958 215.582897 
L 322.529407 232.267034 
L 322.789235 223.924966 
L 323.049063 223.924966 
L 323.568718 207.240828 
L 323.828545 215.582897 
L 324.088373 198.898759 
L 324.3482 207.240828 
L 324.608028 207.240828 
L 324.867856 223.924966 
L 325.127683 207.240828 
L 325.387511 215.582897 
L 325.907166 215.582897 
L 326.166993 198.898759 
L 326.426821 215.582897 
L 326.946476 198.898759 
L 327.206304 215.582897 
L 327.725959 198.898759 
L 327.985786 207.240828 
L 328.505441 207.240828 
L 329.025097 190.55669 
L 330.064407 223.924966 
L 330.324234 223.924966 
L 330.84389 207.240828 
L 331.103717 207.240828 
L 331.363545 198.898759 
L 331.623372 198.898759 
L 331.8832 207.240828 
L 332.143027 207.240828 
L 332.402855 198.898759 
L 332.662683 207.240828 
L 332.92251 198.898759 
L 333.442165 215.582897 
L 333.701993 190.55669 
L 333.96182 207.240828 
L 334.221648 198.898759 
L 334.741303 198.898759 
L 335.001131 207.240828 
L 335.260958 207.240828 
L 335.520786 198.898759 
L 335.780613 207.240828 
L 336.300268 190.55669 
L 336.560096 198.898759 
L 336.819924 198.898759 
L 337.079751 207.240828 
L 337.599406 207.240828 
L 337.859234 215.582897 
L 338.119061 207.240828 
L 338.638717 207.240828 
L 339.158372 190.55669 
L 339.418199 190.55669 
L 339.937854 207.240828 
L 340.45751 207.240828 
L 340.717337 198.898759 
L 340.977165 198.898759 
L 341.49682 182.214621 
L 341.756647 198.898759 
L 342.016475 190.55669 
L 342.276303 198.898759 
L 342.53613 198.898759 
L 342.795958 207.240828 
L 343.055785 207.240828 
L 343.315613 198.898759 
L 343.57544 198.898759 
L 343.835268 190.55669 
L 344.354923 190.55669 
L 344.614751 198.898759 
L 344.874578 190.55669 
L 345.134406 207.240828 
L 345.394233 198.898759 
L 345.654061 207.240828 
L 345.913888 190.55669 
L 346.693371 190.55669 
L 346.953199 198.898759 
L 347.213026 190.55669 
L 347.472854 207.240828 
L 347.732681 207.240828 
L 347.992509 215.582897 
L 348.252337 198.898759 
L 348.512164 190.55669 
L 348.771992 190.55669 
L 349.031819 198.898759 
L 349.291647 190.55669 
L 349.551474 198.898759 
L 350.07113 198.898759 
L 350.330957 207.240828 
L 350.590785 198.898759 
L 350.850612 198.898759 
L 351.11044 182.214621 
L 351.370267 173.872552 
L 351.630095 182.214621 
L 351.889923 182.214621 
L 352.14975 190.55669 
L 352.409578 190.55669 
L 352.929233 207.240828 
L 353.18906 198.898759 
L 353.448888 182.214621 
L 353.708715 182.214621 
L 353.968543 173.872552 
L 354.228371 190.55669 
L 354.748026 190.55669 
L 355.007853 198.898759 
L 355.527508 198.898759 
L 355.787336 190.55669 
L 356.047164 190.55669 
L 356.566819 173.872552 
L 357.346301 198.898759 
L 357.865957 198.898759 
L 358.125784 190.55669 
L 358.385612 207.240828 
L 358.645439 190.55669 
L 358.905267 182.214621 
L 359.165094 190.55669 
L 359.424922 182.214621 
L 359.68475 182.214621 
L 359.944577 190.55669 
L 360.204405 182.214621 
L 360.72406 198.898759 
L 360.983887 190.55669 
L 361.243715 173.872552 
L 361.503543 182.214621 
L 362.283025 182.214621 
L 362.542853 190.55669 
L 362.80268 182.214621 
L 363.062508 190.55669 
L 363.322335 190.55669 
L 363.582163 182.214621 
L 363.841991 182.214621 
L 364.101818 173.872552 
L 364.361646 173.872552 
L 364.621473 182.214621 
L 364.881301 173.872552 
L 365.141128 182.214621 
L 365.400956 182.214621 
L 365.660784 190.55669 
L 365.920611 182.214621 
L 366.180439 182.214621 
L 366.440266 173.872552 
L 366.700094 182.214621 
L 366.959921 165.530483 
L 367.479577 182.214621 
L 369.29837 182.214621 
L 369.558197 173.872552 
L 369.818025 173.872552 
L 370.077852 182.214621 
L 370.597507 182.214621 
L 370.857335 190.55669 
L 371.117163 182.214621 
L 371.896645 182.214621 
L 372.156473 173.872552 
L 372.4163 182.214621 
L 372.935955 182.214621 
L 373.195783 190.55669 
L 373.455611 182.214621 
L 373.715438 190.55669 
L 373.975266 190.55669 
L 374.235093 182.214621 
L 374.754748 182.214621 
L 375.014576 190.55669 
L 375.534231 173.872552 
L 375.794059 173.872552 
L 376.053886 182.214621 
L 376.573541 182.214621 
L 376.833369 173.872552 
L 377.093197 173.872552 
L 377.353024 182.214621 
L 377.872679 165.530483 
L 378.132507 173.872552 
L 379.171817 173.872552 
L 379.431645 182.214621 
L 379.9513 182.214621 
L 380.470955 165.530483 
L 380.730782 173.872552 
L 381.510265 173.872552 
L 381.770093 182.214621 
L 382.02992 173.872552 
L 382.289748 173.872552 
L 382.549575 165.530483 
L 382.809403 173.872552 
L 383.069231 165.530483 
L 383.329058 165.530483 
L 383.848713 182.214621 
L 384.108541 173.872552 
L 384.628196 190.55669 
L 385.147851 173.872552 
L 385.407679 173.872552 
L 385.667506 165.530483 
L 385.927334 165.530483 
L 386.446989 182.214621 
L 386.966644 182.214621 
L 387.226472 173.872552 
L 387.486299 190.55669 
L 387.746127 182.214621 
L 388.005954 165.530483 
L 388.265782 157.188414 
L 388.52561 165.530483 
L 388.785437 182.214621 
L 389.045265 182.214621 
L 389.305092 173.872552 
L 389.56492 182.214621 
L 389.824747 173.872552 
L 390.084575 173.872552 
L 390.344402 165.530483 
L 390.60423 165.530483 
L 390.864058 157.188414 
L 391.383713 173.872552 
L 391.64354 165.530483 
L 391.903368 182.214621 
L 392.163195 182.214621 
L 392.682851 165.530483 
L 392.942678 165.530483 
L 393.202506 148.846345 
L 393.462333 148.846345 
L 394.501644 182.214621 
L 394.761471 165.530483 
L 395.021299 165.530483 
L 395.281126 148.846345 
L 396.320437 148.846345 
L 396.580264 165.530483 
L 397.099919 182.214621 
L 397.619574 165.530483 
L 397.879402 165.530483 
L 398.399057 148.846345 
L 398.918712 165.530483 
L 399.17854 182.214621 
L 399.438367 182.214621 
L 399.698195 190.55669 
L 399.958022 173.872552 
L 400.21785 173.872552 
L 400.997333 148.846345 
L 401.516988 165.530483 
L 401.776815 165.530483 
L 402.296471 182.214621 
L 402.556298 165.530483 
L 402.816126 157.188414 
L 403.075953 157.188414 
L 403.335781 140.504276 
L 404.375091 173.872552 
L 404.634919 173.872552 
L 405.154574 157.188414 
L 405.934057 157.188414 
L 406.193884 148.846345 
L 406.453712 157.188414 
L 406.713539 173.872552 
L 406.973367 182.214621 
L 407.233194 165.530483 
L 407.493022 173.872552 
L 407.75285 157.188414 
L 408.272505 140.504276 
L 408.532332 148.846345 
L 408.79216 148.846345 
L 409.051987 165.530483 
L 409.311815 165.530483 
L 409.571642 173.872552 
L 409.83147 173.872552 
L 410.351125 157.188414 
L 410.87078 157.188414 
L 411.130608 165.530483 
L 411.390435 157.188414 
L 411.650263 165.530483 
L 411.910091 182.214621 
L 412.169918 182.214621 
L 412.429746 173.872552 
L 412.689573 157.188414 
L 412.949401 148.846345 
L 413.209228 157.188414 
L 413.728884 157.188414 
L 413.988711 165.530483 
L 414.248539 165.530483 
L 414.508366 182.214621 
L 414.768194 165.530483 
L 415.028021 165.530483 
L 415.287849 157.188414 
L 415.547677 140.504276 
L 416.067332 157.188414 
L 416.327159 157.188414 
L 417.106642 182.214621 
L 417.366469 165.530483 
L 417.886125 148.846345 
L 418.145952 148.846345 
L 418.40578 140.504276 
L 418.665607 157.188414 
L 418.925435 165.530483 
L 419.44509 165.530483 
L 419.704918 157.188414 
L 419.964745 165.530483 
L 420.224573 140.504276 
L 420.4844 140.504276 
L 420.744228 148.846345 
L 421.263883 148.846345 
L 421.783538 165.530483 
L 422.043366 165.530483 
L 422.563021 148.846345 
L 422.822848 148.846345 
L 423.082676 140.504276 
L 423.342504 148.846345 
L 423.602331 165.530483 
L 423.862159 165.530483 
L 424.121986 173.872552 
L 424.381814 173.872552 
L 424.641641 165.530483 
L 424.901469 165.530483 
L 425.161297 148.846345 
L 425.421124 148.846345 
L 425.680952 140.504276 
L 425.940779 148.846345 
L 426.200607 165.530483 
L 426.460434 165.530483 
L 426.720262 173.872552 
L 426.980089 173.872552 
L 427.239917 165.530483 
L 427.499745 148.846345 
L 428.0194 132.162207 
L 428.279227 140.504276 
L 428.539055 157.188414 
L 428.798882 157.188414 
L 429.05871 165.530483 
L 429.578365 165.530483 
L 430.09802 123.820138 
L 430.357848 123.820138 
L 430.617675 132.162207 
L 430.877503 132.162207 
L 431.137331 157.188414 
L 431.656986 173.872552 
L 432.436468 148.846345 
L 432.696296 123.820138 
L 433.475779 148.846345 
L 433.735606 165.530483 
L 433.995434 165.530483 
L 434.255261 173.872552 
L 434.774917 157.188414 
L 435.034744 132.162207 
L 435.554399 132.162207 
L 436.074054 148.846345 
L 436.333882 165.530483 
L 436.593709 173.872552 
L 436.853537 165.530483 
L 437.113365 165.530483 
L 437.373192 140.504276 
L 437.63302 132.162207 
L 437.892847 132.162207 
L 438.67233 157.188414 
L 438.932158 173.872552 
L 439.191985 173.872552 
L 439.451813 157.188414 
L 439.71164 148.846345 
L 439.971468 132.162207 
L 440.231295 140.504276 
L 440.491123 132.162207 
L 440.750951 140.504276 
L 441.010778 157.188414 
L 441.530433 173.872552 
L 441.790261 173.872552 
L 442.050088 148.846345 
L 442.309916 140.504276 
L 442.569744 123.820138 
L 443.089399 123.820138 
L 443.349226 140.504276 
L 443.609054 148.846345 
L 443.868881 165.530483 
L 444.388537 165.530483 
L 444.908192 132.162207 
L 445.168019 123.820138 
L 445.427847 132.162207 
L 445.687674 148.846345 
L 446.467157 173.872552 
L 446.726985 165.530483 
L 446.986812 148.846345 
L 447.24664 148.846345 
L 447.506467 132.162207 
L 447.766295 123.820138 
L 448.026122 132.162207 
L 448.28595 148.846345 
L 448.545778 157.188414 
L 448.805605 157.188414 
L 449.065433 165.530483 
L 449.32526 157.188414 
L 449.585088 157.188414 
L 449.844915 140.504276 
L 450.104743 132.162207 
L 450.364571 148.846345 
L 450.624398 140.504276 
L 450.884226 148.846345 
L 451.144053 165.530483 
L 451.403881 157.188414 
L 451.663708 165.530483 
L 451.923536 165.530483 
L 452.183364 140.504276 
L 452.703019 140.504276 
L 452.962846 132.162207 
L 453.482501 148.846345 
L 453.742329 165.530483 
L 454.002156 165.530483 
L 454.261984 148.846345 
L 454.521812 157.188414 
L 454.781639 132.162207 
L 455.041467 140.504276 
L 455.301294 123.820138 
L 455.561122 132.162207 
L 455.820949 148.846345 
L 456.600432 148.846345 
L 456.86026 157.188414 
L 457.639742 132.162207 
L 457.89957 140.504276 
L 458.159398 140.504276 
L 458.419225 157.188414 
L 458.93888 157.188414 
L 459.198708 148.846345 
L 459.458535 148.846345 
L 459.978191 132.162207 
L 460.238018 132.162207 
L 460.497846 140.504276 
L 460.757673 140.504276 
L 461.017501 148.846345 
L 461.796984 148.846345 
L 462.056811 140.504276 
L 462.316639 123.820138 
L 462.576466 140.504276 
L 462.836294 140.504276 
L 463.096121 148.846345 
L 463.355949 148.846345 
L 463.615776 157.188414 
L 463.875604 157.188414 
L 464.135432 148.846345 
L 464.395259 132.162207 
L 464.655087 140.504276 
L 465.434569 140.504276 
L 466.214052 165.530483 
L 466.47388 148.846345 
L 466.993535 132.162207 
L 467.51319 148.846345 
L 468.032845 148.846345 
L 468.292673 165.530483 
L 468.812328 148.846345 
L 469.072155 148.846345 
L 469.331983 132.162207 
L 469.591811 132.162207 
L 469.851638 123.820138 
L 470.111466 132.162207 
L 470.371293 148.846345 
L 470.631121 157.188414 
L 471.410604 157.188414 
L 471.670431 132.162207 
L 471.930259 123.820138 
L 472.449914 123.820138 
L 472.709741 148.846345 
L 472.969569 157.188414 
L 473.229396 157.188414 
L 473.489224 148.846345 
L 473.749052 148.846345 
L 474.528534 123.820138 
L 474.788362 123.820138 
L 475.048189 140.504276 
L 475.567845 157.188414 
L 475.827672 173.872552 
L 476.0875 165.530483 
L 476.347327 148.846345 
L 476.866982 132.162207 
L 477.12681 115.478069 
L 477.386638 132.162207 
L 477.646465 132.162207 
L 477.906293 157.188414 
L 478.425948 173.872552 
L 479.205431 123.820138 
L 479.465258 115.478069 
L 479.984913 132.162207 
L 480.244741 148.846345 
L 480.504568 148.846345 
L 480.764396 173.872552 
L 481.284051 157.188414 
L 481.803706 115.478069 
L 482.063534 115.478069 
L 482.323361 123.820138 
L 482.583189 140.504276 
L 482.843016 148.846345 
L 483.102844 165.530483 
L 483.362672 165.530483 
L 483.882327 148.846345 
L 484.401982 107.136 
L 484.661809 107.136 
L 484.921637 123.820138 
L 485.181465 132.162207 
L 485.441292 157.188414 
L 485.70112 165.530483 
L 485.960947 165.530483 
L 486.220775 157.188414 
L 486.480602 140.504276 
L 486.74043 115.478069 
L 487.000258 123.820138 
L 487.260085 107.136 
L 487.519913 123.820138 
L 487.77974 157.188414 
L 488.039568 157.188414 
L 488.299395 173.872552 
L 488.559223 165.530483 
L 488.819051 148.846345 
L 489.078878 140.504276 
L 489.338706 123.820138 
L 489.598533 132.162207 
L 489.858361 123.820138 
L 490.118188 132.162207 
L 490.378016 157.188414 
L 490.637844 157.188414 
L 490.897671 165.530483 
L 491.157499 182.214621 
L 491.417326 248.951172 
L 491.936981 499.213241 
L 492.196809 540.923586 
L 492.716464 574.291862 
L 492.976292 574.291862 
L 493.236119 532.581517 
L 493.495947 465.844966 
L 493.755774 432.47669 
L 494.015602 457.502897 
L 494.795085 565.949793 
L 495.054912 582.633931 
L 495.31474 590.976 
L 496.094222 490.871172 
L 496.35405 482.529103 
L 496.613878 490.871172 
L 497.39336 540.923586 
L 497.913015 557.607724 
L 498.432671 490.871172 
L 498.692498 474.187034 
L 498.952326 465.844966 
L 499.212153 465.844966 
L 499.731808 499.213241 
L 499.991636 524.239448 
L 500.251463 532.581517 
L 500.511291 532.581517 
L 500.771119 524.239448 
L 501.290774 474.187034 
L 501.550601 465.844966 
L 501.810429 482.529103 
L 502.330084 499.213241 
L 502.849739 532.581517 
L 503.369394 532.581517 
L 503.629222 499.213241 
L 503.889049 490.871172 
L 504.148877 474.187034 
L 504.408705 482.529103 
L 504.668532 482.529103 
L 505.188187 499.213241 
L 505.448015 515.897379 
L 505.707842 499.213241 
L 505.96767 490.871172 
L 506.227498 474.187034 
L 506.487325 474.187034 
L 506.747153 457.502897 
L 507.00698 457.502897 
L 507.266808 465.844966 
L 507.526635 482.529103 
L 507.786463 482.529103 
L 508.046291 490.871172 
L 508.306118 474.187034 
L 508.565946 474.187034 
L 508.825773 465.844966 
L 509.085601 449.160828 
L 509.345428 457.502897 
L 509.605256 457.502897 
L 509.865083 465.844966 
L 510.124911 482.529103 
L 510.384739 490.871172 
L 511.164221 465.844966 
L 511.424049 465.844966 
L 511.683876 457.502897 
L 511.943704 465.844966 
L 512.203532 465.844966 
L 512.463359 474.187034 
L 512.983014 474.187034 
L 513.242842 465.844966 
L 513.502669 474.187034 
L 514.022325 457.502897 
L 514.801807 457.502897 
L 515.061635 465.844966 
L 515.321462 457.502897 
L 515.58129 465.844966 
L 515.841118 449.160828 
L 516.360773 449.160828 
L 516.6206 432.47669 
L 516.880428 449.160828 
L 517.140255 449.160828 
L 517.400083 465.844966 
L 518.179566 440.818759 
L 518.439393 449.160828 
L 518.699221 440.818759 
L 518.959048 449.160828 
L 519.218876 440.818759 
L 519.478703 440.818759 
L 519.738531 449.160828 
L 519.998359 449.160828 
L 520.258186 457.502897 
L 520.518014 457.502897 
L 520.777841 432.47669 
L 521.037669 440.818759 
L 521.297496 432.47669 
L 522.076979 432.47669 
L 522.336807 440.818759 
L 523.116289 440.818759 
L 523.376117 424.134621 
L 523.635945 432.47669 
L 523.895772 424.134621 
L 524.1556 432.47669 
L 524.935082 432.47669 
L 525.19491 424.134621 
L 525.714565 424.134621 
L 525.974393 415.792552 
L 526.23422 415.792552 
L 526.494048 424.134621 
L 527.013703 424.134621 
L 527.273531 415.792552 
L 527.533358 440.818759 
L 527.793186 424.134621 
L 528.053013 432.47669 
L 528.312841 432.47669 
L 528.572668 415.792552 
L 528.832496 424.134621 
L 529.871806 424.134621 
L 530.131634 415.792552 
L 530.651289 415.792552 
L 530.911116 407.450483 
L 531.430772 407.450483 
L 531.690599 415.792552 
L 532.470082 415.792552 
L 532.729909 407.450483 
L 533.249565 407.450483 
L 533.509392 399.108414 
L 533.76922 407.450483 
L 534.029047 399.108414 
L 534.288875 407.450483 
L 534.548702 407.450483 
L 534.80853 399.108414 
L 535.068358 407.450483 
L 535.328185 399.108414 
L 535.84784 399.108414 
L 536.107668 390.766345 
L 536.367495 399.108414 
L 537.666633 399.108414 
L 537.926461 390.766345 
L 538.186288 390.766345 
L 538.446116 399.108414 
L 538.705943 390.766345 
L 538.965771 390.766345 
L 539.225599 407.450483 
L 539.745254 390.766345 
L 540.005081 390.766345 
L 540.264909 399.108414 
L 540.784564 382.424276 
L 541.044392 390.766345 
L 542.083702 390.766345 
L 542.343529 382.424276 
L 542.603357 390.766345 
L 542.863185 382.424276 
L 543.123012 382.424276 
L 543.38284 374.082207 
L 543.642667 382.424276 
L 544.162322 382.424276 
L 544.42215 390.766345 
L 544.681978 390.766345 
L 544.941805 374.082207 
L 545.721288 374.082207 
L 545.981115 382.424276 
L 546.760598 382.424276 
L 547.020426 374.082207 
L 547.280253 374.082207 
L 547.540081 365.740138 
L 548.059736 365.740138 
L 548.319563 357.398069 
L 548.579391 374.082207 
L 548.839219 382.424276 
L 549.358874 382.424276 
L 549.878529 365.740138 
L 550.138356 365.740138 
L 550.398184 349.056 
L 550.658012 349.056 
L 550.917839 357.398069 
L 551.177667 357.398069 
L 551.437494 374.082207 
L 551.697322 365.740138 
L 551.957149 374.082207 
L 552.216977 365.740138 
L 552.476805 365.740138 
L 552.736632 357.398069 
L 552.99646 357.398069 
L 553.256287 365.740138 
L 554.03577 365.740138 
L 554.295598 357.398069 
L 554.555425 365.740138 
L 554.815253 357.398069 
L 555.07508 357.398069 
L 555.334908 349.056 
L 555.854563 349.056 
L 556.11439 357.398069 
L 556.374218 349.056 
L 556.893873 365.740138 
L 557.153701 340.713931 
L 557.413528 349.056 
L 557.673356 340.713931 
L 557.933183 340.713931 
L 558.193011 349.056 
L 558.452839 340.713931 
L 558.712666 349.056 
L 558.972494 340.713931 
L 559.232321 340.713931 
L 559.492149 349.056 
L 559.751976 349.056 
L 560.011804 357.398069 
L 560.531459 340.713931 
L 561.051114 340.713931 
L 561.310942 349.056 
L 561.570769 340.713931 
L 561.830597 340.713931 
L 562.090425 332.371862 
L 562.869907 332.371862 
L 563.129735 340.713931 
L 563.389562 340.713931 
L 563.64939 332.371862 
L 564.169045 349.056 
L 564.948528 324.029793 
L 565.208355 324.029793 
L 565.468183 340.713931 
L 565.72801 340.713931 
L 565.987838 332.371862 
L 566.247666 332.371862 
L 566.507493 340.713931 
L 566.767321 340.713931 
L 567.027148 324.029793 
L 567.286976 332.371862 
L 567.546803 324.029793 
L 568.326286 324.029793 
L 568.845941 340.713931 
L 569.105769 340.713931 
L 569.365596 332.371862 
L 569.625424 340.713931 
L 570.145079 324.029793 
L 570.664734 324.029793 
L 570.924562 315.687724 
L 571.184389 315.687724 
L 571.444217 332.371862 
L 571.963872 332.371862 
L 572.2237 315.687724 
L 572.483527 315.687724 
L 572.743355 307.345655 
L 573.003182 315.687724 
L 573.26301 307.345655 
L 573.782665 324.029793 
L 574.30232 324.029793 
L 574.562148 315.687724 
L 575.081803 315.687724 
L 575.34163 299.003586 
L 575.601458 307.345655 
L 575.861286 299.003586 
L 576.121113 299.003586 
L 576.900596 324.029793 
L 577.420251 324.029793 
L 578.199734 299.003586 
L 578.459561 299.003586 
L 578.719389 307.345655 
L 578.979216 324.029793 
L 579.239044 307.345655 
L 579.498872 315.687724 
L 579.758699 307.345655 
L 580.018527 307.345655 
L 580.278354 299.003586 
L 580.798009 299.003586 
L 581.057837 315.687724 
L 581.317665 307.345655 
L 581.577492 307.345655 
L 581.83732 315.687724 
L 582.097147 307.345655 
L 582.356975 307.345655 
L 582.616802 290.661517 
L 583.136457 290.661517 
L 583.396285 282.319448 
L 583.91594 299.003586 
L 584.175768 299.003586 
L 584.435595 307.345655 
L 585.215078 282.319448 
L 585.474906 290.661517 
L 585.734733 282.319448 
L 585.994561 290.661517 
L 586.254388 290.661517 
L 586.514216 299.003586 
L 587.033871 299.003586 
L 587.293699 290.661517 
L 587.553526 290.661517 
L 587.813354 282.319448 
L 588.852664 282.319448 
L 589.112492 290.661517 
L 589.372319 307.345655 
L 589.632147 282.319448 
L 589.891974 290.661517 
L 590.151802 282.319448 
L 591.191112 282.319448 
L 591.45094 290.661517 
L 591.710767 290.661517 
L 591.970595 282.319448 
L 592.230422 290.661517 
L 592.49025 290.661517 
L 592.750077 273.977379 
L 593.009905 273.977379 
L 593.269733 282.319448 
L 593.52956 282.319448 
L 593.789388 273.977379 
L 594.309043 290.661517 
L 594.828698 290.661517 
L 595.088526 273.977379 
L 595.608181 273.977379 
L 595.868008 282.319448 
L 596.127836 273.977379 
L 596.387663 282.319448 
L 597.167146 282.319448 
L 597.686801 265.63531 
L 598.726112 265.63531 
L 598.985939 273.977379 
L 599.505594 273.977379 
L 599.765422 265.63531 
L 600.285077 265.63531 
L 600.544905 257.293241 
L 600.804732 265.63531 
L 601.06456 265.63531 
L 601.324387 273.977379 
L 601.584215 265.63531 
L 601.844042 265.63531 
L 602.10387 257.293241 
L 602.623525 257.293241 
L 602.883353 265.63531 
L 603.14318 257.293241 
L 603.662835 273.977379 
L 603.922663 265.63531 
L 604.18249 273.977379 
L 604.442318 265.63531 
L 604.702146 273.977379 
L 604.961973 265.63531 
L 605.481628 265.63531 
L 605.741456 257.293241 
L 606.261111 273.977379 
L 606.780766 273.977379 
L 607.300421 257.293241 
L 607.820076 257.293241 
L 608.079904 248.951172 
L 608.339732 257.293241 
L 608.599559 257.293241 
L 608.859387 282.319448 
L 609.379042 282.319448 
L 609.638869 273.977379 
L 610.158525 273.977379 
L 610.418352 257.293241 
L 610.67818 265.63531 
L 610.938007 265.63531 
L 611.197835 282.319448 
L 611.71749 282.319448 
L 611.977317 273.977379 
L 612.7568 273.977379 
L 613.016628 265.63531 
L 613.276455 265.63531 
L 613.536283 273.977379 
L 614.835421 273.977379 
L 615.095248 265.63531 
L 615.614903 265.63531 
L 615.874731 273.977379 
L 616.134559 273.977379 
L 616.394386 265.63531 
L 616.654214 273.977379 
L 616.914041 265.63531 
L 617.173869 265.63531 
L 617.433696 273.977379 
L 617.693524 265.63531 
L 617.953352 273.977379 
L 618.992662 273.977379 
L 619.512317 257.293241 
L 620.2918 257.293241 
L 620.551627 265.63531 
L 620.811455 265.63531 
L 621.071282 273.977379 
L 621.33111 273.977379 
L 622.110593 248.951172 
L 622.37042 248.951172 
L 622.630248 257.293241 
L 622.890075 257.293241 
L 623.149903 265.63531 
L 623.669558 265.63531 
L 624.449041 240.609103 
L 624.708868 240.609103 
L 624.968696 232.267034 
L 625.228523 248.951172 
L 625.488351 240.609103 
L 625.748179 265.63531 
L 626.267834 265.63531 
L 627.047316 240.609103 
L 627.566972 240.609103 
L 627.826799 248.951172 
L 628.086627 248.951172 
L 628.606282 265.63531 
L 628.866109 257.293241 
L 629.125937 257.293241 
L 629.385764 248.951172 
L 630.165247 248.951172 
L 630.425075 257.293241 
L 630.684902 257.293241 
L 630.94473 265.63531 
L 631.204557 265.63531 
L 631.464385 248.951172 
L 631.724213 248.951172 
L 631.98404 240.609103 
L 632.503695 240.609103 
L 632.763523 248.951172 
L 633.283178 248.951172 
L 633.543006 257.293241 
L 633.802833 248.951172 
L 634.062661 248.951172 
L 634.322488 232.267034 
L 634.582316 240.609103 
L 634.842143 232.267034 
L 635.101971 240.609103 
L 635.881454 240.609103 
L 636.141281 248.951172 
L 636.401109 232.267034 
L 636.660936 240.609103 
L 636.920764 240.609103 
L 637.180592 223.924966 
L 637.440419 232.267034 
L 637.700247 223.924966 
L 637.960074 248.951172 
L 638.739557 248.951172 
L 638.999384 232.267034 
L 639.259212 232.267034 
L 639.51904 215.582897 
L 639.778867 232.267034 
L 640.038695 232.267034 
L 640.55835 248.951172 
L 640.818177 240.609103 
L 641.078005 248.951172 
L 641.337833 248.951172 
L 641.59766 223.924966 
L 641.857488 232.267034 
L 642.63697 232.267034 
L 642.896798 240.609103 
L 643.156626 240.609103 
L 643.416453 248.951172 
L 643.676281 248.951172 
L 643.936108 240.609103 
L 644.195936 223.924966 
L 644.975419 223.924966 
L 645.235246 240.609103 
L 645.495074 248.951172 
L 646.014729 248.951172 
L 646.274556 240.609103 
L 646.534384 223.924966 
L 647.054039 223.924966 
L 647.313867 232.267034 
L 647.573694 232.267034 
L 647.833522 248.951172 
L 648.093349 240.609103 
L 648.353177 240.609103 
L 648.613004 232.267034 
L 648.872832 215.582897 
L 649.13266 215.582897 
L 649.392487 207.240828 
L 649.652315 207.240828 
L 649.912142 215.582897 
L 650.431797 248.951172 
L 650.691625 248.951172 
L 650.951453 240.609103 
L 651.471108 207.240828 
L 651.990763 207.240828 
L 652.510418 223.924966 
L 652.770246 240.609103 
L 653.030073 248.951172 
L 653.289901 248.951172 
L 654.069383 198.898759 
L 654.329211 207.240828 
L 654.589039 198.898759 
L 654.848866 207.240828 
L 655.368521 240.609103 
L 655.628349 248.951172 
L 656.148004 232.267034 
L 656.407831 215.582897 
L 656.667659 207.240828 
L 656.927487 215.582897 
L 657.187314 207.240828 
L 657.447142 223.924966 
L 657.706969 223.924966 
L 657.966797 240.609103 
L 658.226624 248.951172 
L 658.74628 215.582897 
L 659.006107 207.240828 
L 659.265935 207.240828 
L 659.525762 198.898759 
L 659.78559 215.582897 
L 660.045417 215.582897 
L 660.305245 232.267034 
L 660.565073 240.609103 
L 660.8249 232.267034 
L 661.084728 207.240828 
L 661.344555 198.898759 
L 661.604383 207.240828 
L 661.86421 190.55669 
L 662.124038 190.55669 
L 662.903521 240.609103 
L 663.683003 215.582897 
L 663.942831 198.898759 
L 664.202659 190.55669 
L 664.462486 190.55669 
L 664.722314 198.898759 
L 665.241969 232.267034 
L 665.761624 232.267034 
L 666.021451 207.240828 
L 666.281279 207.240828 
L 666.541107 190.55669 
L 666.800934 182.214621 
L 667.060762 198.898759 
L 667.320589 198.898759 
L 667.580417 232.267034 
L 667.840244 240.609103 
L 668.100072 223.924966 
L 668.3599 223.924966 
L 668.619727 215.582897 
L 668.879555 190.55669 
L 669.139382 190.55669 
L 669.39921 198.898759 
L 669.659037 198.898759 
L 669.918865 207.240828 
L 670.178693 232.267034 
L 670.43852 240.609103 
L 670.958175 207.240828 
L 671.47783 190.55669 
L 671.997486 190.55669 
L 672.257313 198.898759 
L 672.517141 232.267034 
L 672.776968 232.267034 
L 673.036796 240.609103 
L 673.556451 207.240828 
L 673.816279 182.214621 
L 674.076106 173.872552 
L 674.335934 173.872552 
L 674.855589 207.240828 
L 675.115416 215.582897 
L 675.375244 232.267034 
L 675.635071 223.924966 
L 675.894899 207.240828 
L 676.154727 198.898759 
L 676.414554 173.872552 
L 676.674382 173.872552 
L 676.934209 182.214621 
L 677.194037 198.898759 
L 677.453864 207.240828 
L 677.713692 223.924966 
L 677.97352 232.267034 
L 678.233347 223.924966 
L 678.493175 207.240828 
L 678.753002 182.214621 
L 679.01283 173.872552 
L 679.272657 157.188414 
L 679.532485 182.214621 
L 679.792313 190.55669 
L 680.05214 215.582897 
L 680.311968 215.582897 
L 680.571795 223.924966 
L 680.831623 215.582897 
L 681.09145 198.898759 
L 681.611106 182.214621 
L 681.870933 190.55669 
L 682.130761 182.214621 
L 682.650416 223.924966 
L 683.170071 223.924966 
L 683.689726 190.55669 
L 684.209381 173.872552 
L 685.508519 215.582897 
L 685.768347 207.240828 
L 686.028174 190.55669 
L 686.288002 182.214621 
L 686.547829 182.214621 
L 686.807657 173.872552 
L 687.067484 182.214621 
L 687.327312 207.240828 
L 687.58714 215.582897 
L 688.106795 215.582897 
L 688.62645 182.214621 
L 688.886277 182.214621 
L 689.146105 165.530483 
L 689.66576 182.214621 
L 689.925588 198.898759 
L 690.445243 215.582897 
L 690.70507 207.240828 
L 690.964898 190.55669 
L 691.224726 182.214621 
L 691.484553 182.214621 
L 691.744381 165.530483 
L 692.523863 215.582897 
L 692.783691 215.582897 
L 693.043518 190.55669 
L 693.303346 198.898759 
L 693.563174 198.898759 
L 693.823001 182.214621 
L 694.082829 173.872552 
L 694.342656 182.214621 
L 694.602484 182.214621 
L 694.862311 215.582897 
L 695.122139 215.582897 
L 695.381967 223.924966 
L 695.901622 190.55669 
L 696.161449 190.55669 
L 696.421277 182.214621 
L 696.681104 182.214621 
L 696.940932 190.55669 
L 697.20076 190.55669 
L 697.460587 198.898759 
L 697.720415 215.582897 
L 698.499897 190.55669 
L 699.019553 190.55669 
L 699.27938 182.214621 
L 699.539208 182.214621 
L 700.058863 198.898759 
L 700.31869 198.898759 
L 700.578518 190.55669 
L 700.838346 173.872552 
L 701.098173 182.214621 
L 702.137483 182.214621 
L 702.397311 198.898759 
L 702.916966 198.898759 
L 703.176794 182.214621 
L 703.436621 173.872552 
L 703.696449 182.214621 
L 704.216104 182.214621 
L 704.735759 198.898759 
L 704.995587 190.55669 
L 705.255414 190.55669 
L 705.515242 182.214621 
L 705.775069 182.214621 
L 706.034897 173.872552 
L 706.554552 190.55669 
L 706.81438 190.55669 
L 707.334035 207.240828 
L 707.593862 207.240828 
L 707.85369 190.55669 
L 708.113517 182.214621 
L 708.373345 182.214621 
L 708.633173 165.530483 
L 708.893 190.55669 
L 709.152828 190.55669 
L 709.672483 207.240828 
L 710.971621 165.530483 
L 711.231448 173.872552 
L 711.491276 165.530483 
L 711.751103 182.214621 
L 712.010931 190.55669 
L 712.270758 207.240828 
L 712.530586 190.55669 
L 712.790414 182.214621 
L 713.050241 182.214621 
L 713.569896 165.530483 
L 713.829724 165.530483 
L 714.089551 182.214621 
L 714.609207 198.898759 
L 714.869034 198.898759 
L 715.128862 190.55669 
L 715.388689 173.872552 
L 715.648517 182.214621 
L 715.908344 173.872552 
L 716.168172 173.872552 
L 716.428 165.530483 
L 716.687827 182.214621 
L 716.947655 190.55669 
L 717.46731 190.55669 
L 717.986965 173.872552 
L 718.246793 173.872552 
L 718.50662 165.530483 
L 719.286103 190.55669 
L 719.54593 190.55669 
L 719.805758 198.898759 
L 720.065586 190.55669 
L 720.325413 173.872552 
L 720.585241 165.530483 
L 721.364723 165.530483 
L 721.624551 182.214621 
L 721.884378 190.55669 
L 722.404034 190.55669 
L 722.663861 182.214621 
L 722.923689 165.530483 
L 723.183516 173.872552 
L 723.703171 173.872552 
L 723.962999 165.530483 
L 724.222827 190.55669 
L 725.002309 190.55669 
L 725.262137 173.872552 
L 725.521964 173.872552 
L 726.04162 157.188414 
L 726.301447 173.872552 
L 726.561275 173.872552 
L 727.08093 190.55669 
L 727.340757 182.214621 
L 727.600585 182.214621 
L 727.860413 173.872552 
L 728.12024 173.872552 
L 728.380068 157.188414 
L 728.639895 173.872552 
L 729.15955 173.872552 
L 729.419378 190.55669 
L 729.679206 182.214621 
L 729.939033 165.530483 
L 730.198861 165.530483 
L 730.458688 173.872552 
L 730.718516 165.530483 
L 730.978343 165.530483 
L 731.238171 173.872552 
L 731.497998 173.872552 
L 731.757826 182.214621 
L 732.277481 165.530483 
L 732.537309 173.872552 
L 732.797136 173.872552 
L 733.056964 165.530483 
L 733.836447 165.530483 
L 734.096274 182.214621 
L 734.875757 182.214621 
L 735.135584 173.872552 
L 735.65524 173.872552 
L 735.915067 165.530483 
L 736.434722 182.214621 
L 736.69455 173.872552 
L 736.954377 182.214621 
L 737.214205 165.530483 
L 737.474033 173.872552 
L 737.73386 165.530483 
L 737.993688 165.530483 
L 738.253515 157.188414 
L 738.77317 173.872552 
L 739.032998 173.872552 
L 739.292825 165.530483 
L 739.552653 165.530483 
L 739.812481 173.872552 
L 740.072308 165.530483 
L 740.332136 173.872552 
L 740.591963 157.188414 
L 740.851791 165.530483 
L 741.111618 165.530483 
L 741.371446 173.872552 
L 741.891101 173.872552 
L 742.150929 165.530483 
L 742.410756 165.530483 
L 742.670584 157.188414 
L 742.930411 165.530483 
L 743.190239 165.530483 
L 743.450067 182.214621 
L 743.969722 165.530483 
L 744.229549 173.872552 
L 744.489377 165.530483 
L 744.749204 165.530483 
L 745.009032 173.872552 
L 745.26886 165.530483 
L 746.048342 165.530483 
L 746.30817 182.214621 
L 746.567997 173.872552 
L 746.827825 173.872552 
L 747.087653 157.188414 
L 747.34748 165.530483 
L 747.607308 157.188414 
L 747.867135 157.188414 
L 748.38679 173.872552 
L 748.646618 165.530483 
L 748.906445 182.214621 
L 749.166273 182.214621 
L 749.426101 165.530483 
L 750.205583 165.530483 
L 750.465411 157.188414 
L 750.725238 173.872552 
L 750.985066 157.188414 
L 751.504721 173.872552 
L 751.764549 165.530483 
L 752.024376 173.872552 
L 752.544031 157.188414 
L 753.063687 157.188414 
L 753.323514 165.530483 
L 753.583342 165.530483 
L 753.843169 173.872552 
L 754.102997 165.530483 
L 754.362824 165.530483 
L 754.622652 157.188414 
L 754.88248 165.530483 
L 755.402135 148.846345 
L 755.661962 148.846345 
L 756.181617 165.530483 
L 756.441445 157.188414 
L 756.701273 173.872552 
L 757.220928 157.188414 
L 757.480755 165.530483 
L 757.740583 148.846345 
L 758.00041 148.846345 
L 758.779893 173.872552 
L 759.039721 173.872552 
L 759.299548 165.530483 
L 759.819203 165.530483 
L 760.079031 157.188414 
L 760.338858 157.188414 
L 760.598686 148.846345 
L 760.858514 157.188414 
L 761.118341 157.188414 
L 761.378169 165.530483 
L 761.637996 165.530483 
L 761.897824 173.872552 
L 762.677307 148.846345 
L 763.456789 148.846345 
L 763.716617 157.188414 
L 763.976444 157.188414 
L 764.236272 165.530483 
L 764.4961 157.188414 
L 765.015755 157.188414 
L 765.275582 140.504276 
L 765.53541 148.846345 
L 765.795237 148.846345 
L 766.055065 165.530483 
L 766.314893 157.188414 
L 766.57472 157.188414 
L 766.834548 165.530483 
L 767.094375 157.188414 
L 767.354203 157.188414 
L 767.873858 140.504276 
L 768.133685 140.504276 
L 768.653341 157.188414 
L 768.913168 148.846345 
L 769.172996 165.530483 
L 769.432823 157.188414 
L 769.952478 157.188414 
L 770.212306 148.846345 
L 770.991789 148.846345 
L 771.251616 157.188414 
L 772.031099 157.188414 
L 772.290927 165.530483 
L 772.550754 157.188414 
L 772.810582 157.188414 
L 773.070409 148.846345 
L 773.330237 148.846345 
L 773.590064 157.188414 
L 773.849892 148.846345 
L 774.10972 148.846345 
L 774.629375 165.530483 
L 774.889202 165.530483 
L 775.14903 157.188414 
L 775.408857 157.188414 
L 775.668685 148.846345 
L 775.928512 148.846345 
L 776.18834 157.188414 
L 776.707995 157.188414 
L 776.967823 148.846345 
L 777.22765 157.188414 
L 777.747305 157.188414 
L 778.007133 148.846345 
L 778.266961 148.846345 
L 778.526788 140.504276 
L 778.786616 148.846345 
L 779.046443 148.846345 
L 779.306271 157.188414 
L 780.085754 157.188414 
L 780.345581 148.846345 
L 780.865236 148.846345 
L 781.125064 140.504276 
L 781.644719 140.504276 
L 781.904547 148.846345 
L 782.164374 132.162207 
L 782.424202 148.846345 
L 782.684029 157.188414 
L 782.943857 148.846345 
L 783.983167 148.846345 
L 784.242995 157.188414 
L 784.502822 148.846345 
L 784.76265 165.530483 
L 785.022477 173.872552 
L 785.282305 157.188414 
L 786.061788 157.188414 
L 786.321615 140.504276 
L 786.581443 140.504276 
L 787.101098 157.188414 
L 787.620753 157.188414 
L 787.880581 148.846345 
L 788.140408 148.846345 
L 788.400236 140.504276 
L 789.179718 140.504276 
L 789.439546 148.846345 
L 789.699374 148.846345 
L 789.959201 157.188414 
L 790.738684 157.188414 
L 790.998511 140.504276 
L 791.258339 148.846345 
L 791.518167 140.504276 
L 792.037822 140.504276 
L 792.557477 157.188414 
L 792.817304 157.188414 
L 793.077132 148.846345 
L 793.33696 148.846345 
L 793.596787 140.504276 
L 793.856615 140.504276 
L 794.116442 148.846345 
L 794.37627 148.846345 
L 794.636097 140.504276 
L 794.895925 157.188414 
L 795.675408 157.188414 
L 795.935235 148.846345 
L 796.45489 148.846345 
L 796.974545 132.162207 
L 796.974545 132.162207 
" clip-path="url(#pb81fd8e1eb)" style="fill: none; stroke: #1f77b4; stroke-width: 1.5; stroke-linecap: square"/>
    <defs>
     <path id="mf044d71995" d="M 0 1.5 
C 0.397805 1.5 0.77937 1.341951 1.06066 1.06066 
C 1.341951 0.77937 1.5 0.397805 1.5 0 
C 1.5 -0.397805 1.341951 -0.77937 1.06066 -1.06066 
C 0.77937 -1.341951 0.397805 -1.5 0 -1.5 
C -0.397805 -1.5 -0.77937 -1.341951 -1.06066 -1.06066 
C -1.341951 -0.77937 -1.5 -0.397805 -1.5 0 
C -1.5 0.397805 -1.341951 0.77937 -1.06066 1.06066 
C -0.77937 1.341951 -0.397805 1.5 0 1.5 
z
" style="stroke: #1f77b4"/>
    </defs>
    <g clip-path="url(#pb81fd8e1eb)">
     <use xlink:href="#mf044d71995" x="147.665455" y="173.872552" style="fill: #1f77b4; stroke: #1f77b4"/>
     <use xlink:href="#mf044d71995" x="150.26373" y="182.214621" style="fill: #1f77b4; stroke: #1f77b4"/>
     <use xlink:href="#mf044d71995" x="152.862006" y="173.872552" style="fill: #1f77b4; stroke: #1f77b4"/>
     <use xlink:href="#mf044d71995" x="155.460282" y="173.872552" style="fill: #1f77b4; stroke: #1f77b4"/>
     <use xlink:href="#mf044d71995" x="158.058557" y="182.214621" style="fill: #1f77b4; stroke: #1f77b4"/>
     <use xlink:href="#mf044d71995" x="160.656833" y="173.872552" style="fill: #1f77b4; stroke: #1f77b4"/>
     <use xlink:href="#mf044d71995" x="163.255109" y="173.872552" style="fill: #1f77b4; stroke: #1f77b4"/>
     <use xlink:href="#mf044d71995" x="165.853384" y="182.214621" style="fill: #1f77b4; stroke: #1f77b4"/>
     <use xlink:href="#mf044d71995" x="168.45166" y="173.872552" style="fill: #1f77b4; stroke: #1f77b4"/>
     <use xlink:href="#mf044d71995" x="171.049936" y="173.872552" style="fill: #1f77b4; stroke: #1f77b4"/>
     <use xlink:href="#mf044d71995" x="173.648211" y="157.188414" style="fill: #1f77b4; stroke: #1f77b4"/>
     <use xlink:href="#mf044d71995" x="176.246487" y="165.530483" style="fill: #1f77b4; stroke: #1f77b4"/>
     <use xlink:href="#mf044d71995" x="178.844763" y="165.530483" style="fill: #1f77b4; stroke: #1f77b4"/>
     <use xlink:href="#mf044d71995" x="181.443038" y="165.530483" style="fill: #1f77b4; stroke: #1f77b4"/>
     <use xlink:href="#mf044d71995" x="184.041314" y="165.530483" style="fill: #1f77b4; stroke: #1f77b4"/>
     <use xlink:href="#mf044d71995" x="186.63959" y="148.846345" style="fill: #1f77b4; stroke: #1f77b4"/>
     <use xlink:href="#mf044d71995" x="189.237865" y="157.188414" style="fill: #1f77b4; stroke: #1f77b4"/>
     <use xlink:href="#mf044d71995" x="191.836141" y="140.504276" style="fill: #1f77b4; stroke: #1f77b4"/>
     <use xlink:href="#mf044d71995" x="194.434417" y="157.188414" style="fill: #1f77b4; stroke: #1f77b4"/>
     <use xlink:href="#mf044d71995" x="197.032692" y="148.846345" style="fill: #1f77b4; stroke: #1f77b4"/>
     <use xlink:href="#mf044d71995" x="199.630968" y="148.846345" style="fill: #1f77b4; stroke: #1f77b4"/>
     <use xlink:href="#mf044d71995" x="202.229244" y="157.188414" style="fill: #1f77b4; stroke: #1f77b4"/>
     <use xlink:href="#mf044d71995" x="204.827519" y="165.530483" style="fill: #1f77b4; stroke: #1f77b4"/>
     <use xlink:href="#mf044d71995" x="207.425795" y="173.872552" style="fill: #1f77b4; stroke: #1f77b4"/>
     <use xlink:href="#mf044d71995" x="210.024071" y="165.530483" style="fill: #1f77b4; stroke: #1f77b4"/>
     <use xlink:href="#mf044d71995" x="212.622346" y="157.188414" style="fill: #1f77b4; stroke: #1f77b4"/>
     <use xlink:href="#mf044d71995" x="215.220622" y="148.846345" style="fill: #1f77b4; stroke: #1f77b4"/>
     <use xlink:href="#mf044d71995" x="217.818898" y="148.846345" style="fill: #1f77b4; stroke: #1f77b4"/>
     <use xlink:href="#mf044d71995" x="220.417173" y="148.846345" style="fill: #1f77b4; stroke: #1f77b4"/>
     <use xlink:href="#mf044d71995" x="223.015449" y="173.872552" style="fill: #1f77b4; stroke: #1f77b4"/>
     <use xlink:href="#mf044d71995" x="225.613725" y="182.214621" style="fill: #1f77b4; stroke: #1f77b4"/>
     <use xlink:href="#mf044d71995" x="228.212" y="165.530483" style="fill: #1f77b4; stroke: #1f77b4"/>
     <use xlink:href="#mf044d71995" x="230.810276" y="165.530483" style="fill: #1f77b4; stroke: #1f77b4"/>
     <use xlink:href="#mf044d71995" x="233.408552" y="173.872552" style="fill: #1f77b4; stroke: #1f77b4"/>
     <use xlink:href="#mf044d71995" x="236.006827" y="165.530483" style="fill: #1f77b4; stroke: #1f77b4"/>
     <use xlink:href="#mf044d71995" x="238.605103" y="165.530483" style="fill: #1f77b4; stroke: #1f77b4"/>
     <use xlink:href="#mf044d71995" x="241.203379" y="173.872552" style="fill: #1f77b4; stroke: #1f77b4"/>
     <use xlink:href="#mf044d71995" x="243.801654" y="182.214621" style="fill: #1f77b4; stroke: #1f77b4"/>
     <use xlink:href="#mf044d71995" x="246.39993" y="190.55669" style="fill: #1f77b4; stroke: #1f77b4"/>
     <use xlink:href="#mf044d71995" x="248.998206" y="207.240828" style="fill: #1f77b4; stroke: #1f77b4"/>
     <use xlink:href="#mf044d71995" x="251.596482" y="215.582897" style="fill: #1f77b4; stroke: #1f77b4"/>
     <use xlink:href="#mf044d71995" x="254.194757" y="215.582897" style="fill: #1f77b4; stroke: #1f77b4"/>
     <use xlink:href="#mf044d71995" x="256.793033" y="215.582897" style="fill: #1f77b4; stroke: #1f77b4"/>
     <use xlink:href="#mf044d71995" x="259.391309" y="215.582897" style="fill: #1f77b4; stroke: #1f77b4"/>
     <use xlink:href="#mf044d71995" x="261.989584" y="215.582897" style="fill: #1f77b4; stroke: #1f77b4"/>
     <use xlink:href="#mf044d71995" x="264.58786" y="198.898759" style="fill: #1f77b4; stroke: #1f77b4"/>
     <use xlink:href="#mf044d71995" x="267.186136" y="190.55669" style="fill: #1f77b4; stroke: #1f77b4"/>
     <use xlink:href="#mf044d71995" x="269.784411" y="198.898759" style="fill: #1f77b4; stroke: #1f77b4"/>
     <use xlink:href="#mf044d71995" x="272.382687" y="198.898759" style="fill: #1f77b4; stroke: #1f77b4"/>
     <use xlink:href="#mf044d71995" x="274.980963" y="182.214621" style="fill: #1f77b4; stroke: #1f77b4"/>
     <use xlink:href="#mf044d71995" x="277.579238" y="173.872552" style="fill: #1f77b4; stroke: #1f77b4"/>
     <use xlink:href="#mf044d71995" x="280.177514" y="165.530483" style="fill: #1f77b4; stroke: #1f77b4"/>
     <use xlink:href="#mf044d71995" x="282.77579" y="165.530483" style="fill: #1f77b4; stroke: #1f77b4"/>
     <use xlink:href="#mf044d71995" x="285.374065" y="173.872552" style="fill: #1f77b4; stroke: #1f77b4"/>
     <use xlink:href="#mf044d71995" x="287.972341" y="182.214621" style="fill: #1f77b4; stroke: #1f77b4"/>
     <use xlink:href="#mf044d71995" x="290.570617" y="173.872552" style="fill: #1f77b4; stroke: #1f77b4"/>
     <use xlink:href="#mf044d71995" x="293.168892" y="173.872552" style="fill: #1f77b4; stroke: #1f77b4"/>
     <use xlink:href="#mf044d71995" x="295.767168" y="182.214621" style="fill: #1f77b4; stroke: #1f77b4"/>
     <use xlink:href="#mf044d71995" x="298.365444" y="182.214621" style="fill: #1f77b4; stroke: #1f77b4"/>
     <use xlink:href="#mf044d71995" x="300.963719" y="173.872552" style="fill: #1f77b4; stroke: #1f77b4"/>
     <use xlink:href="#mf044d71995" x="303.561995" y="173.872552" style="fill: #1f77b4; stroke: #1f77b4"/>
     <use xlink:href="#mf044d71995" x="306.160271" y="182.214621" style="fill: #1f77b4; stroke: #1f77b4"/>
     <use xlink:href="#mf044d71995" x="308.758546" y="165.530483" style="fill: #1f77b4; stroke: #1f77b4"/>
     <use xlink:href="#mf044d71995" x="311.356822" y="223.924966" style="fill: #1f77b4; stroke: #1f77b4"/>
     <use xlink:href="#mf044d71995" x="313.955098" y="232.267034" style="fill: #1f77b4; stroke: #1f77b4"/>
     <use xlink:href="#mf044d71995" x="316.553373" y="215.582897" style="fill: #1f77b4; stroke: #1f77b4"/>
     <use xlink:href="#mf044d71995" x="319.151649" y="207.240828" style="fill: #1f77b4; stroke: #1f77b4"/>
     <use xlink:href="#mf044d71995" x="321.749925" y="207.240828" style="fill: #1f77b4; stroke: #1f77b4"/>
     <use xlink:href="#mf044d71995" x="324.3482" y="207.240828" style="fill: #1f77b4; stroke: #1f77b4"/>
     <use xlink:href="#mf044d71995" x="326.946476" y="198.898759" style="fill: #1f77b4; stroke: #1f77b4"/>
     <use xlink:href="#mf044d71995" x="329.544752" y="207.240828" style="fill: #1f77b4; stroke: #1f77b4"/>
     <use xlink:href="#mf044d71995" x="332.143027" y="207.240828" style="fill: #1f77b4; stroke: #1f77b4"/>
     <use xlink:href="#mf044d71995" x="334.741303" y="198.898759" style="fill: #1f77b4; stroke: #1f77b4"/>
     <use xlink:href="#mf044d71995" x="337.339579" y="207.240828" style="fill: #1f77b4; stroke: #1f77b4"/>
     <use xlink:href="#mf044d71995" x="339.937854" y="207.240828" style="fill: #1f77b4; stroke: #1f77b4"/>
     <use xlink:href="#mf044d71995" x="342.53613" y="198.898759" style="fill: #1f77b4; stroke: #1f77b4"/>
     <use xlink:href="#mf044d71995" x="345.134406" y="207.240828" style="fill: #1f77b4; stroke: #1f77b4"/>
     <use xlink:href="#mf044d71995" x="347.732681" y="207.240828" style="fill: #1f77b4; stroke: #1f77b4"/>
     <use xlink:href="#mf044d71995" x="350.330957" y="207.240828" style="fill: #1f77b4; stroke: #1f77b4"/>
     <use xlink:href="#mf044d71995" x="352.929233" y="207.240828" style="fill: #1f77b4; stroke: #1f77b4"/>
     <use xlink:href="#mf044d71995" x="355.527508" y="198.898759" style="fill: #1f77b4; stroke: #1f77b4"/>
     <use xlink:href="#mf044d71995" x="358.125784" y="190.55669" style="fill: #1f77b4; stroke: #1f77b4"/>
     <use xlink:href="#mf044d71995" x="360.72406" y="198.898759" style="fill: #1f77b4; stroke: #1f77b4"/>
     <use xlink:href="#mf044d71995" x="363.322335" y="190.55669" style="fill: #1f77b4; stroke: #1f77b4"/>
     <use xlink:href="#mf044d71995" x="365.920611" y="182.214621" style="fill: #1f77b4; stroke: #1f77b4"/>
     <use xlink:href="#mf044d71995" x="368.518887" y="182.214621" style="fill: #1f77b4; stroke: #1f77b4"/>
     <use xlink:href="#mf044d71995" x="371.117163" y="182.214621" style="fill: #1f77b4; stroke: #1f77b4"/>
     <use xlink:href="#mf044d71995" x="373.715438" y="190.55669" style="fill: #1f77b4; stroke: #1f77b4"/>
     <use xlink:href="#mf044d71995" x="376.313714" y="182.214621" style="fill: #1f77b4; stroke: #1f77b4"/>
     <use xlink:href="#mf044d71995" x="378.91199" y="173.872552" style="fill: #1f77b4; stroke: #1f77b4"/>
     <use xlink:href="#mf044d71995" x="381.510265" y="173.872552" style="fill: #1f77b4; stroke: #1f77b4"/>
     <use xlink:href="#mf044d71995" x="384.108541" y="173.872552" style="fill: #1f77b4; stroke: #1f77b4"/>
     <use xlink:href="#mf044d71995" x="386.706817" y="182.214621" style="fill: #1f77b4; stroke: #1f77b4"/>
     <use xlink:href="#mf044d71995" x="389.305092" y="173.872552" style="fill: #1f77b4; stroke: #1f77b4"/>
     <use xlink:href="#mf044d71995" x="391.903368" y="182.214621" style="fill: #1f77b4; stroke: #1f77b4"/>
     <use xlink:href="#mf044d71995" x="394.501644" y="182.214621" style="fill: #1f77b4; stroke: #1f77b4"/>
     <use xlink:href="#mf044d71995" x="397.099919" y="182.214621" style="fill: #1f77b4; stroke: #1f77b4"/>
     <use xlink:href="#mf044d71995" x="399.698195" y="190.55669" style="fill: #1f77b4; stroke: #1f77b4"/>
     <use xlink:href="#mf044d71995" x="402.296471" y="182.214621" style="fill: #1f77b4; stroke: #1f77b4"/>
     <use xlink:href="#mf044d71995" x="404.894746" y="165.530483" style="fill: #1f77b4; stroke: #1f77b4"/>
     <use xlink:href="#mf044d71995" x="407.493022" y="173.872552" style="fill: #1f77b4; stroke: #1f77b4"/>
     <use xlink:href="#mf044d71995" x="410.091298" y="165.530483" style="fill: #1f77b4; stroke: #1f77b4"/>
     <use xlink:href="#mf044d71995" x="412.689573" y="157.188414" style="fill: #1f77b4; stroke: #1f77b4"/>
     <use xlink:href="#mf044d71995" x="415.287849" y="157.188414" style="fill: #1f77b4; stroke: #1f77b4"/>
     <use xlink:href="#mf044d71995" x="417.886125" y="148.846345" style="fill: #1f77b4; stroke: #1f77b4"/>
     <use xlink:href="#mf044d71995" x="420.4844" y="140.504276" style="fill: #1f77b4; stroke: #1f77b4"/>
     <use xlink:href="#mf044d71995" x="423.082676" y="140.504276" style="fill: #1f77b4; stroke: #1f77b4"/>
     <use xlink:href="#mf044d71995" x="425.680952" y="140.504276" style="fill: #1f77b4; stroke: #1f77b4"/>
     <use xlink:href="#mf044d71995" x="428.279227" y="140.504276" style="fill: #1f77b4; stroke: #1f77b4"/>
     <use xlink:href="#mf044d71995" x="430.877503" y="132.162207" style="fill: #1f77b4; stroke: #1f77b4"/>
     <use xlink:href="#mf044d71995" x="433.475779" y="148.846345" style="fill: #1f77b4; stroke: #1f77b4"/>
     <use xlink:href="#mf044d71995" x="436.074054" y="148.846345" style="fill: #1f77b4; stroke: #1f77b4"/>
     <use xlink:href="#mf044d71995" x="438.67233" y="157.188414" style="fill: #1f77b4; stroke: #1f77b4"/>
     <use xlink:href="#mf044d71995" x="441.270606" y="165.530483" style="fill: #1f77b4; stroke: #1f77b4"/>
     <use xlink:href="#mf044d71995" x="443.868881" y="165.530483" style="fill: #1f77b4; stroke: #1f77b4"/>
     <use xlink:href="#mf044d71995" x="446.467157" y="173.872552" style="fill: #1f77b4; stroke: #1f77b4"/>
     <use xlink:href="#mf044d71995" x="449.065433" y="165.530483" style="fill: #1f77b4; stroke: #1f77b4"/>
     <use xlink:href="#mf044d71995" x="451.663708" y="165.530483" style="fill: #1f77b4; stroke: #1f77b4"/>
     <use xlink:href="#mf044d71995" x="454.261984" y="148.846345" style="fill: #1f77b4; stroke: #1f77b4"/>
     <use xlink:href="#mf044d71995" x="456.86026" y="157.188414" style="fill: #1f77b4; stroke: #1f77b4"/>
     <use xlink:href="#mf044d71995" x="459.458535" y="148.846345" style="fill: #1f77b4; stroke: #1f77b4"/>
     <use xlink:href="#mf044d71995" x="462.056811" y="140.504276" style="fill: #1f77b4; stroke: #1f77b4"/>
     <use xlink:href="#mf044d71995" x="464.655087" y="140.504276" style="fill: #1f77b4; stroke: #1f77b4"/>
     <use xlink:href="#mf044d71995" x="467.253362" y="140.504276" style="fill: #1f77b4; stroke: #1f77b4"/>
     <use xlink:href="#mf044d71995" x="469.851638" y="123.820138" style="fill: #1f77b4; stroke: #1f77b4"/>
     <use xlink:href="#mf044d71995" x="472.449914" y="123.820138" style="fill: #1f77b4; stroke: #1f77b4"/>
     <use xlink:href="#mf044d71995" x="475.048189" y="140.504276" style="fill: #1f77b4; stroke: #1f77b4"/>
     <use xlink:href="#mf044d71995" x="477.646465" y="132.162207" style="fill: #1f77b4; stroke: #1f77b4"/>
     <use xlink:href="#mf044d71995" x="480.244741" y="148.846345" style="fill: #1f77b4; stroke: #1f77b4"/>
     <use xlink:href="#mf044d71995" x="482.843016" y="148.846345" style="fill: #1f77b4; stroke: #1f77b4"/>
     <use xlink:href="#mf044d71995" x="485.441292" y="157.188414" style="fill: #1f77b4; stroke: #1f77b4"/>
     <use xlink:href="#mf044d71995" x="488.039568" y="157.188414" style="fill: #1f77b4; stroke: #1f77b4"/>
     <use xlink:href="#mf044d71995" x="490.637844" y="157.188414" style="fill: #1f77b4; stroke: #1f77b4"/>
     <use xlink:href="#mf044d71995" x="493.236119" y="532.581517" style="fill: #1f77b4; stroke: #1f77b4"/>
     <use xlink:href="#mf044d71995" x="495.834395" y="532.581517" style="fill: #1f77b4; stroke: #1f77b4"/>
     <use xlink:href="#mf044d71995" x="498.432671" y="490.871172" style="fill: #1f77b4; stroke: #1f77b4"/>
     <use xlink:href="#mf044d71995" x="501.030946" y="499.213241" style="fill: #1f77b4; stroke: #1f77b4"/>
     <use xlink:href="#mf044d71995" x="503.629222" y="499.213241" style="fill: #1f77b4; stroke: #1f77b4"/>
     <use xlink:href="#mf044d71995" x="506.227498" y="474.187034" style="fill: #1f77b4; stroke: #1f77b4"/>
     <use xlink:href="#mf044d71995" x="508.825773" y="465.844966" style="fill: #1f77b4; stroke: #1f77b4"/>
     <use xlink:href="#mf044d71995" x="511.424049" y="465.844966" style="fill: #1f77b4; stroke: #1f77b4"/>
     <use xlink:href="#mf044d71995" x="514.022325" y="457.502897" style="fill: #1f77b4; stroke: #1f77b4"/>
     <use xlink:href="#mf044d71995" x="516.6206" y="432.47669" style="fill: #1f77b4; stroke: #1f77b4"/>
     <use xlink:href="#mf044d71995" x="519.218876" y="440.818759" style="fill: #1f77b4; stroke: #1f77b4"/>
     <use xlink:href="#mf044d71995" x="521.817152" y="432.47669" style="fill: #1f77b4; stroke: #1f77b4"/>
     <use xlink:href="#mf044d71995" x="524.415427" y="432.47669" style="fill: #1f77b4; stroke: #1f77b4"/>
     <use xlink:href="#mf044d71995" x="527.013703" y="424.134621" style="fill: #1f77b4; stroke: #1f77b4"/>
     <use xlink:href="#mf044d71995" x="529.611979" y="424.134621" style="fill: #1f77b4; stroke: #1f77b4"/>
     <use xlink:href="#mf044d71995" x="532.210254" y="415.792552" style="fill: #1f77b4; stroke: #1f77b4"/>
     <use xlink:href="#mf044d71995" x="534.80853" y="399.108414" style="fill: #1f77b4; stroke: #1f77b4"/>
     <use xlink:href="#mf044d71995" x="537.406806" y="399.108414" style="fill: #1f77b4; stroke: #1f77b4"/>
     <use xlink:href="#mf044d71995" x="540.005081" y="390.766345" style="fill: #1f77b4; stroke: #1f77b4"/>
     <use xlink:href="#mf044d71995" x="542.603357" y="390.766345" style="fill: #1f77b4; stroke: #1f77b4"/>
     <use xlink:href="#mf044d71995" x="545.201633" y="374.082207" style="fill: #1f77b4; stroke: #1f77b4"/>
     <use xlink:href="#mf044d71995" x="547.799908" y="365.740138" style="fill: #1f77b4; stroke: #1f77b4"/>
     <use xlink:href="#mf044d71995" x="550.398184" y="349.056" style="fill: #1f77b4; stroke: #1f77b4"/>
     <use xlink:href="#mf044d71995" x="552.99646" y="357.398069" style="fill: #1f77b4; stroke: #1f77b4"/>
     <use xlink:href="#mf044d71995" x="555.594735" y="349.056" style="fill: #1f77b4; stroke: #1f77b4"/>
     <use xlink:href="#mf044d71995" x="558.193011" y="349.056" style="fill: #1f77b4; stroke: #1f77b4"/>
     <use xlink:href="#mf044d71995" x="560.791287" y="340.713931" style="fill: #1f77b4; stroke: #1f77b4"/>
     <use xlink:href="#mf044d71995" x="563.389562" y="340.713931" style="fill: #1f77b4; stroke: #1f77b4"/>
     <use xlink:href="#mf044d71995" x="565.987838" y="332.371862" style="fill: #1f77b4; stroke: #1f77b4"/>
     <use xlink:href="#mf044d71995" x="568.586114" y="332.371862" style="fill: #1f77b4; stroke: #1f77b4"/>
     <use xlink:href="#mf044d71995" x="571.184389" y="315.687724" style="fill: #1f77b4; stroke: #1f77b4"/>
     <use xlink:href="#mf044d71995" x="573.782665" y="324.029793" style="fill: #1f77b4; stroke: #1f77b4"/>
     <use xlink:href="#mf044d71995" x="576.380941" y="307.345655" style="fill: #1f77b4; stroke: #1f77b4"/>
     <use xlink:href="#mf044d71995" x="578.979216" y="324.029793" style="fill: #1f77b4; stroke: #1f77b4"/>
     <use xlink:href="#mf044d71995" x="581.577492" y="307.345655" style="fill: #1f77b4; stroke: #1f77b4"/>
     <use xlink:href="#mf044d71995" x="584.175768" y="299.003586" style="fill: #1f77b4; stroke: #1f77b4"/>
     <use xlink:href="#mf044d71995" x="586.774043" y="299.003586" style="fill: #1f77b4; stroke: #1f77b4"/>
     <use xlink:href="#mf044d71995" x="589.372319" y="307.345655" style="fill: #1f77b4; stroke: #1f77b4"/>
     <use xlink:href="#mf044d71995" x="591.970595" y="282.319448" style="fill: #1f77b4; stroke: #1f77b4"/>
     <use xlink:href="#mf044d71995" x="594.56887" y="290.661517" style="fill: #1f77b4; stroke: #1f77b4"/>
     <use xlink:href="#mf044d71995" x="597.167146" y="282.319448" style="fill: #1f77b4; stroke: #1f77b4"/>
     <use xlink:href="#mf044d71995" x="599.765422" y="265.63531" style="fill: #1f77b4; stroke: #1f77b4"/>
     <use xlink:href="#mf044d71995" x="602.363697" y="257.293241" style="fill: #1f77b4; stroke: #1f77b4"/>
     <use xlink:href="#mf044d71995" x="604.961973" y="265.63531" style="fill: #1f77b4; stroke: #1f77b4"/>
     <use xlink:href="#mf044d71995" x="607.560249" y="257.293241" style="fill: #1f77b4; stroke: #1f77b4"/>
     <use xlink:href="#mf044d71995" x="610.158525" y="273.977379" style="fill: #1f77b4; stroke: #1f77b4"/>
     <use xlink:href="#mf044d71995" x="612.7568" y="273.977379" style="fill: #1f77b4; stroke: #1f77b4"/>
     <use xlink:href="#mf044d71995" x="615.355076" y="265.63531" style="fill: #1f77b4; stroke: #1f77b4"/>
     <use xlink:href="#mf044d71995" x="617.953352" y="273.977379" style="fill: #1f77b4; stroke: #1f77b4"/>
     <use xlink:href="#mf044d71995" x="620.551627" y="265.63531" style="fill: #1f77b4; stroke: #1f77b4"/>
     <use xlink:href="#mf044d71995" x="623.149903" y="265.63531" style="fill: #1f77b4; stroke: #1f77b4"/>
     <use xlink:href="#mf044d71995" x="625.748179" y="265.63531" style="fill: #1f77b4; stroke: #1f77b4"/>
     <use xlink:href="#mf044d71995" x="628.346454" y="257.293241" style="fill: #1f77b4; stroke: #1f77b4"/>
     <use xlink:href="#mf044d71995" x="630.94473" y="265.63531" style="fill: #1f77b4; stroke: #1f77b4"/>
     <use xlink:href="#mf044d71995" x="633.543006" y="257.293241" style="fill: #1f77b4; stroke: #1f77b4"/>
     <use xlink:href="#mf044d71995" x="636.141281" y="248.951172" style="fill: #1f77b4; stroke: #1f77b4"/>
     <use xlink:href="#mf044d71995" x="638.739557" y="248.951172" style="fill: #1f77b4; stroke: #1f77b4"/>
     <use xlink:href="#mf044d71995" x="641.337833" y="248.951172" style="fill: #1f77b4; stroke: #1f77b4"/>
     <use xlink:href="#mf044d71995" x="643.936108" y="240.609103" style="fill: #1f77b4; stroke: #1f77b4"/>
     <use xlink:href="#mf044d71995" x="646.534384" y="223.924966" style="fill: #1f77b4; stroke: #1f77b4"/>
     <use xlink:href="#mf044d71995" x="649.13266" y="215.582897" style="fill: #1f77b4; stroke: #1f77b4"/>
     <use xlink:href="#mf044d71995" x="651.730935" y="207.240828" style="fill: #1f77b4; stroke: #1f77b4"/>
     <use xlink:href="#mf044d71995" x="654.329211" y="207.240828" style="fill: #1f77b4; stroke: #1f77b4"/>
     <use xlink:href="#mf044d71995" x="656.927487" y="215.582897" style="fill: #1f77b4; stroke: #1f77b4"/>
     <use xlink:href="#mf044d71995" x="659.525762" y="198.898759" style="fill: #1f77b4; stroke: #1f77b4"/>
     <use xlink:href="#mf044d71995" x="662.124038" y="190.55669" style="fill: #1f77b4; stroke: #1f77b4"/>
     <use xlink:href="#mf044d71995" x="664.722314" y="198.898759" style="fill: #1f77b4; stroke: #1f77b4"/>
     <use xlink:href="#mf044d71995" x="667.320589" y="198.898759" style="fill: #1f77b4; stroke: #1f77b4"/>
     <use xlink:href="#mf044d71995" x="669.918865" y="207.240828" style="fill: #1f77b4; stroke: #1f77b4"/>
     <use xlink:href="#mf044d71995" x="672.517141" y="232.267034" style="fill: #1f77b4; stroke: #1f77b4"/>
     <use xlink:href="#mf044d71995" x="675.115416" y="215.582897" style="fill: #1f77b4; stroke: #1f77b4"/>
     <use xlink:href="#mf044d71995" x="677.713692" y="223.924966" style="fill: #1f77b4; stroke: #1f77b4"/>
     <use xlink:href="#mf044d71995" x="680.311968" y="215.582897" style="fill: #1f77b4; stroke: #1f77b4"/>
     <use xlink:href="#mf044d71995" x="682.910243" y="223.924966" style="fill: #1f77b4; stroke: #1f77b4"/>
     <use xlink:href="#mf044d71995" x="685.508519" y="215.582897" style="fill: #1f77b4; stroke: #1f77b4"/>
     <use xlink:href="#mf044d71995" x="688.106795" y="215.582897" style="fill: #1f77b4; stroke: #1f77b4"/>
     <use xlink:href="#mf044d71995" x="690.70507" y="207.240828" style="fill: #1f77b4; stroke: #1f77b4"/>
     <use xlink:href="#mf044d71995" x="693.303346" y="198.898759" style="fill: #1f77b4; stroke: #1f77b4"/>
     <use xlink:href="#mf044d71995" x="695.901622" y="190.55669" style="fill: #1f77b4; stroke: #1f77b4"/>
     <use xlink:href="#mf044d71995" x="698.499897" y="190.55669" style="fill: #1f77b4; stroke: #1f77b4"/>
     <use xlink:href="#mf044d71995" x="701.098173" y="182.214621" style="fill: #1f77b4; stroke: #1f77b4"/>
     <use xlink:href="#mf044d71995" x="703.696449" y="182.214621" style="fill: #1f77b4; stroke: #1f77b4"/>
     <use xlink:href="#mf044d71995" x="706.294724" y="182.214621" style="fill: #1f77b4; stroke: #1f77b4"/>
     <use xlink:href="#mf044d71995" x="708.893" y="190.55669" style="fill: #1f77b4; stroke: #1f77b4"/>
     <use xlink:href="#mf044d71995" x="711.491276" y="165.530483" style="fill: #1f77b4; stroke: #1f77b4"/>
     <use xlink:href="#mf044d71995" x="714.089551" y="182.214621" style="fill: #1f77b4; stroke: #1f77b4"/>
     <use xlink:href="#mf044d71995" x="716.687827" y="182.214621" style="fill: #1f77b4; stroke: #1f77b4"/>
     <use xlink:href="#mf044d71995" x="719.286103" y="190.55669" style="fill: #1f77b4; stroke: #1f77b4"/>
     <use xlink:href="#mf044d71995" x="721.884378" y="190.55669" style="fill: #1f77b4; stroke: #1f77b4"/>
     <use xlink:href="#mf044d71995" x="724.482654" y="190.55669" style="fill: #1f77b4; stroke: #1f77b4"/>
     <use xlink:href="#mf044d71995" x="727.08093" y="190.55669" style="fill: #1f77b4; stroke: #1f77b4"/>
     <use xlink:href="#mf044d71995" x="729.679206" y="182.214621" style="fill: #1f77b4; stroke: #1f77b4"/>
     <use xlink:href="#mf044d71995" x="732.277481" y="165.530483" style="fill: #1f77b4; stroke: #1f77b4"/>
     <use xlink:href="#mf044d71995" x="734.875757" y="182.214621" style="fill: #1f77b4; stroke: #1f77b4"/>
     <use xlink:href="#mf044d71995" x="737.474033" y="173.872552" style="fill: #1f77b4; stroke: #1f77b4"/>
     <use xlink:href="#mf044d71995" x="740.072308" y="165.530483" style="fill: #1f77b4; stroke: #1f77b4"/>
     <use xlink:href="#mf044d71995" x="742.670584" y="157.188414" style="fill: #1f77b4; stroke: #1f77b4"/>
     <use xlink:href="#mf044d71995" x="745.26886" y="165.530483" style="fill: #1f77b4; stroke: #1f77b4"/>
     <use xlink:href="#mf044d71995" x="747.867135" y="157.188414" style="fill: #1f77b4; stroke: #1f77b4"/>
     <use xlink:href="#mf044d71995" x="750.465411" y="157.188414" style="fill: #1f77b4; stroke: #1f77b4"/>
     <use xlink:href="#mf044d71995" x="753.063687" y="157.188414" style="fill: #1f77b4; stroke: #1f77b4"/>
     <use xlink:href="#mf044d71995" x="755.661962" y="148.846345" style="fill: #1f77b4; stroke: #1f77b4"/>
     <use xlink:href="#mf044d71995" x="758.260238" y="157.188414" style="fill: #1f77b4; stroke: #1f77b4"/>
     <use xlink:href="#mf044d71995" x="760.858514" y="157.188414" style="fill: #1f77b4; stroke: #1f77b4"/>
     <use xlink:href="#mf044d71995" x="763.456789" y="148.846345" style="fill: #1f77b4; stroke: #1f77b4"/>
     <use xlink:href="#mf044d71995" x="766.055065" y="165.530483" style="fill: #1f77b4; stroke: #1f77b4"/>
     <use xlink:href="#mf044d71995" x="768.653341" y="157.188414" style="fill: #1f77b4; stroke: #1f77b4"/>
     <use xlink:href="#mf044d71995" x="771.251616" y="157.188414" style="fill: #1f77b4; stroke: #1f77b4"/>
     <use xlink:href="#mf044d71995" x="773.849892" y="148.846345" style="fill: #1f77b4; stroke: #1f77b4"/>
     <use xlink:href="#mf044d71995" x="776.448168" y="157.188414" style="fill: #1f77b4; stroke: #1f77b4"/>
     <use xlink:href="#mf044d71995" x="779.046443" y="148.846345" style="fill: #1f77b4; stroke: #1f77b4"/>
     <use xlink:href="#mf044d71995" x="781.644719" y="140.504276" style="fill: #1f77b4; stroke: #1f77b4"/>
     <use xlink:href="#mf044d71995" x="784.242995" y="157.188414" style="fill: #1f77b4; stroke: #1f77b4"/>
     <use xlink:href="#mf044d71995" x="786.84127" y="148.846345" style="fill: #1f77b4; stroke: #1f77b4"/>
     <use xlink:href="#mf044d71995" x="789.439546" y="148.846345" style="fill: #1f77b4; stroke: #1f77b4"/>
     <use xlink:href="#mf044d71995" x="792.037822" y="140.504276" style="fill: #1f77b4; stroke: #1f77b4"/>
     <use xlink:href="#mf044d71995" x="794.636097" y="140.504276" style="fill: #1f77b4; stroke: #1f77b4"/>
    </g>
   </g>
   <g id="patch_3">
    <path d="M 115.2 615.168 
L 115.2 82.944 
" style="fill: none; stroke: #000000; stroke-width: 0.8; stroke-linejoin: miter; stroke-linecap: square"/>
   </g>
   <g id="patch_4">
    <path d="M 829.44 615.168 
L 829.44 82.944 
" style="fill: none; stroke: #000000; stroke-width: 0.8; stroke-linejoin: miter; stroke-linecap: square"/>
   </g>
   <g id="patch_5">
    <path d="M 115.2 615.168 
L 829.44 615.168 
" style="fill: none; stroke: #000000; stroke-width: 0.8; stroke-linejoin: miter; stroke-linecap: square"/>
   </g>
   <g id="patch_6">
    <path d="M 115.2 82.944 
L 829.44 82.944 
" style="fill: none; stroke: #000000; stroke-width: 0.8; stroke-linejoin: miter; stroke-linecap: square"/>
   </g>
  </g>
 </g>
 <defs>
  <clipPath id="pb81fd8e1eb">
   <rect x="115.2" y="82.944" width="714.24" height="532.224"/>
  </clipPath>
 </defs>
</svg>
