<?xml version="1.0" encoding="utf-8" standalone="no"?>
<!DOCTYPE svg PUBLIC "-//W3C//DTD SVG 1.1//EN"
  "http://www.w3.org/Graphics/SVG/1.1/DTD/svg11.dtd">
<svg xmlns:xlink="http://www.w3.org/1999/xlink" width="921.6pt" height="691.2pt" viewBox="0 0 921.6 691.2" xmlns="http://www.w3.org/2000/svg" version="1.1">
 <metadata>
  <rdf:RDF xmlns:dc="http://purl.org/dc/elements/1.1/" xmlns:cc="http://creativecommons.org/ns#" xmlns:rdf="http://www.w3.org/1999/02/22-rdf-syntax-ns#">
   <cc:Work>
    <dc:type rdf:resource="http://purl.org/dc/dcmitype/StillImage"/>
    <dc:date>2023-03-18T15:52:33.853981</dc:date>
    <dc:format>image/svg+xml</dc:format>
    <dc:creator>
     <cc:Agent>
      <dc:title>Matplotlib v3.5.1, https://matplotlib.org/</dc:title>
     </cc:Agent>
    </dc:creator>
   </cc:Work>
  </rdf:RDF>
 </metadata>
 <defs>
  <style type="text/css">*{stroke-linejoin: round; stroke-linecap: butt}</style>
 </defs>
 <g id="figure_1">
  <g id="patch_1">
   <path d="M 0 691.2 
L 921.6 691.2 
L 921.6 0 
L 0 0 
z
" style="fill: #ffffff"/>
  </g>
  <g id="axes_1">
   <g id="patch_2">
    <path d="M 115.2 615.168 
L 829.44 615.168 
L 829.44 82.944 
L 115.2 82.944 
z
" style="fill: #ffffff"/>
   </g>
   <g id="matplotlib.axis_1">
    <g id="xtick_1">
     <g id="line2d_1">
      <path d="M 202.229244 615.168 
L 202.229244 82.944 
" clip-path="url(#peb78eddbb8)" style="fill: none; stroke: #b0b0b0; stroke-width: 0.8; stroke-linecap: square"/>
     </g>
     <g id="line2d_2">
      <defs>
       <path id="m7634fc710f" d="M 0 0 
L 0 3.5 
" style="stroke: #000000; stroke-width: 0.8"/>
      </defs>
      <g>
       <use xlink:href="#m7634fc710f" x="202.229244" y="615.168" style="stroke: #000000; stroke-width: 0.8"/>
      </g>
     </g>
     <g id="text_1">
      <!-- −200 -->
      <g transform="translate(167.895259 641.164094)scale(0.25 -0.25)">
       <defs>
        <path id="DejaVuSans-2212" d="M 678 2272 
L 4684 2272 
L 4684 1741 
L 678 1741 
L 678 2272 
z
" transform="scale(0.015625)"/>
        <path id="DejaVuSans-32" d="M 1228 531 
L 3431 531 
L 3431 0 
L 469 0 
L 469 531 
Q 828 903 1448 1529 
Q 2069 2156 2228 2338 
Q 2531 2678 2651 2914 
Q 2772 3150 2772 3378 
Q 2772 3750 2511 3984 
Q 2250 4219 1831 4219 
Q 1534 4219 1204 4116 
Q 875 4013 500 3803 
L 500 4441 
Q 881 4594 1212 4672 
Q 1544 4750 1819 4750 
Q 2544 4750 2975 4387 
Q 3406 4025 3406 3419 
Q 3406 3131 3298 2873 
Q 3191 2616 2906 2266 
Q 2828 2175 2409 1742 
Q 1991 1309 1228 531 
z
" transform="scale(0.015625)"/>
        <path id="DejaVuSans-30" d="M 2034 4250 
Q 1547 4250 1301 3770 
Q 1056 3291 1056 2328 
Q 1056 1369 1301 889 
Q 1547 409 2034 409 
Q 2525 409 2770 889 
Q 3016 1369 3016 2328 
Q 3016 3291 2770 3770 
Q 2525 4250 2034 4250 
z
M 2034 4750 
Q 2819 4750 3233 4129 
Q 3647 3509 3647 2328 
Q 3647 1150 3233 529 
Q 2819 -91 2034 -91 
Q 1250 -91 836 529 
Q 422 1150 422 2328 
Q 422 3509 836 4129 
Q 1250 4750 2034 4750 
z
" transform="scale(0.015625)"/>
       </defs>
       <use xlink:href="#DejaVuSans-2212"/>
       <use xlink:href="#DejaVuSans-32" x="83.789062"/>
       <use xlink:href="#DejaVuSans-30" x="147.412109"/>
       <use xlink:href="#DejaVuSans-30" x="211.035156"/>
      </g>
     </g>
    </g>
    <g id="xtick_2">
     <g id="line2d_3">
      <path d="M 332.143027 615.168 
L 332.143027 82.944 
" clip-path="url(#peb78eddbb8)" style="fill: none; stroke: #b0b0b0; stroke-width: 0.8; stroke-linecap: square"/>
     </g>
     <g id="line2d_4">
      <g>
       <use xlink:href="#m7634fc710f" x="332.143027" y="615.168" style="stroke: #000000; stroke-width: 0.8"/>
      </g>
     </g>
     <g id="text_2">
      <!-- −100 -->
      <g transform="translate(297.809043 641.164094)scale(0.25 -0.25)">
       <defs>
        <path id="DejaVuSans-31" d="M 794 531 
L 1825 531 
L 1825 4091 
L 703 3866 
L 703 4441 
L 1819 4666 
L 2450 4666 
L 2450 531 
L 3481 531 
L 3481 0 
L 794 0 
L 794 531 
z
" transform="scale(0.015625)"/>
       </defs>
       <use xlink:href="#DejaVuSans-2212"/>
       <use xlink:href="#DejaVuSans-31" x="83.789062"/>
       <use xlink:href="#DejaVuSans-30" x="147.412109"/>
       <use xlink:href="#DejaVuSans-30" x="211.035156"/>
      </g>
     </g>
    </g>
    <g id="xtick_3">
     <g id="line2d_5">
      <path d="M 462.056811 615.168 
L 462.056811 82.944 
" clip-path="url(#peb78eddbb8)" style="fill: none; stroke: #b0b0b0; stroke-width: 0.8; stroke-linecap: square"/>
     </g>
     <g id="line2d_6">
      <g>
       <use xlink:href="#m7634fc710f" x="462.056811" y="615.168" style="stroke: #000000; stroke-width: 0.8"/>
      </g>
     </g>
     <g id="text_3">
      <!-- 0 -->
      <g transform="translate(454.103686 641.164094)scale(0.25 -0.25)">
       <use xlink:href="#DejaVuSans-30"/>
      </g>
     </g>
    </g>
    <g id="xtick_4">
     <g id="line2d_7">
      <path d="M 591.970595 615.168 
L 591.970595 82.944 
" clip-path="url(#peb78eddbb8)" style="fill: none; stroke: #b0b0b0; stroke-width: 0.8; stroke-linecap: square"/>
     </g>
     <g id="line2d_8">
      <g>
       <use xlink:href="#m7634fc710f" x="591.970595" y="615.168" style="stroke: #000000; stroke-width: 0.8"/>
      </g>
     </g>
     <g id="text_4">
      <!-- 100 -->
      <g transform="translate(568.11122 641.164094)scale(0.25 -0.25)">
       <use xlink:href="#DejaVuSans-31"/>
       <use xlink:href="#DejaVuSans-30" x="63.623047"/>
       <use xlink:href="#DejaVuSans-30" x="127.246094"/>
      </g>
     </g>
    </g>
    <g id="xtick_5">
     <g id="line2d_9">
      <path d="M 721.884378 615.168 
L 721.884378 82.944 
" clip-path="url(#peb78eddbb8)" style="fill: none; stroke: #b0b0b0; stroke-width: 0.8; stroke-linecap: square"/>
     </g>
     <g id="line2d_10">
      <g>
       <use xlink:href="#m7634fc710f" x="721.884378" y="615.168" style="stroke: #000000; stroke-width: 0.8"/>
      </g>
     </g>
     <g id="text_5">
      <!-- 200 -->
      <g transform="translate(698.025003 641.164094)scale(0.25 -0.25)">
       <use xlink:href="#DejaVuSans-32"/>
       <use xlink:href="#DejaVuSans-30" x="63.623047"/>
       <use xlink:href="#DejaVuSans-30" x="127.246094"/>
      </g>
     </g>
    </g>
    <g id="text_6">
     <!-- Tiempo [ns] -->
     <g transform="translate(383.12625 673.158625)scale(0.3 -0.3)">
      <defs>
       <path id="DejaVuSans-54" d="M -19 4666 
L 3928 4666 
L 3928 4134 
L 2272 4134 
L 2272 0 
L 1638 0 
L 1638 4134 
L -19 4134 
L -19 4666 
z
" transform="scale(0.015625)"/>
       <path id="DejaVuSans-69" d="M 603 3500 
L 1178 3500 
L 1178 0 
L 603 0 
L 603 3500 
z
M 603 4863 
L 1178 4863 
L 1178 4134 
L 603 4134 
L 603 4863 
z
" transform="scale(0.015625)"/>
       <path id="DejaVuSans-65" d="M 3597 1894 
L 3597 1613 
L 953 1613 
Q 991 1019 1311 708 
Q 1631 397 2203 397 
Q 2534 397 2845 478 
Q 3156 559 3463 722 
L 3463 178 
Q 3153 47 2828 -22 
Q 2503 -91 2169 -91 
Q 1331 -91 842 396 
Q 353 884 353 1716 
Q 353 2575 817 3079 
Q 1281 3584 2069 3584 
Q 2775 3584 3186 3129 
Q 3597 2675 3597 1894 
z
M 3022 2063 
Q 3016 2534 2758 2815 
Q 2500 3097 2075 3097 
Q 1594 3097 1305 2825 
Q 1016 2553 972 2059 
L 3022 2063 
z
" transform="scale(0.015625)"/>
       <path id="DejaVuSans-6d" d="M 3328 2828 
Q 3544 3216 3844 3400 
Q 4144 3584 4550 3584 
Q 5097 3584 5394 3201 
Q 5691 2819 5691 2113 
L 5691 0 
L 5113 0 
L 5113 2094 
Q 5113 2597 4934 2840 
Q 4756 3084 4391 3084 
Q 3944 3084 3684 2787 
Q 3425 2491 3425 1978 
L 3425 0 
L 2847 0 
L 2847 2094 
Q 2847 2600 2669 2842 
Q 2491 3084 2119 3084 
Q 1678 3084 1418 2786 
Q 1159 2488 1159 1978 
L 1159 0 
L 581 0 
L 581 3500 
L 1159 3500 
L 1159 2956 
Q 1356 3278 1631 3431 
Q 1906 3584 2284 3584 
Q 2666 3584 2933 3390 
Q 3200 3197 3328 2828 
z
" transform="scale(0.015625)"/>
       <path id="DejaVuSans-70" d="M 1159 525 
L 1159 -1331 
L 581 -1331 
L 581 3500 
L 1159 3500 
L 1159 2969 
Q 1341 3281 1617 3432 
Q 1894 3584 2278 3584 
Q 2916 3584 3314 3078 
Q 3713 2572 3713 1747 
Q 3713 922 3314 415 
Q 2916 -91 2278 -91 
Q 1894 -91 1617 61 
Q 1341 213 1159 525 
z
M 3116 1747 
Q 3116 2381 2855 2742 
Q 2594 3103 2138 3103 
Q 1681 3103 1420 2742 
Q 1159 2381 1159 1747 
Q 1159 1113 1420 752 
Q 1681 391 2138 391 
Q 2594 391 2855 752 
Q 3116 1113 3116 1747 
z
" transform="scale(0.015625)"/>
       <path id="DejaVuSans-6f" d="M 1959 3097 
Q 1497 3097 1228 2736 
Q 959 2375 959 1747 
Q 959 1119 1226 758 
Q 1494 397 1959 397 
Q 2419 397 2687 759 
Q 2956 1122 2956 1747 
Q 2956 2369 2687 2733 
Q 2419 3097 1959 3097 
z
M 1959 3584 
Q 2709 3584 3137 3096 
Q 3566 2609 3566 1747 
Q 3566 888 3137 398 
Q 2709 -91 1959 -91 
Q 1206 -91 779 398 
Q 353 888 353 1747 
Q 353 2609 779 3096 
Q 1206 3584 1959 3584 
z
" transform="scale(0.015625)"/>
       <path id="DejaVuSans-20" transform="scale(0.015625)"/>
       <path id="DejaVuSans-5b" d="M 550 4863 
L 1875 4863 
L 1875 4416 
L 1125 4416 
L 1125 -397 
L 1875 -397 
L 1875 -844 
L 550 -844 
L 550 4863 
z
" transform="scale(0.015625)"/>
       <path id="DejaVuSans-6e" d="M 3513 2113 
L 3513 0 
L 2938 0 
L 2938 2094 
Q 2938 2591 2744 2837 
Q 2550 3084 2163 3084 
Q 1697 3084 1428 2787 
Q 1159 2491 1159 1978 
L 1159 0 
L 581 0 
L 581 3500 
L 1159 3500 
L 1159 2956 
Q 1366 3272 1645 3428 
Q 1925 3584 2291 3584 
Q 2894 3584 3203 3211 
Q 3513 2838 3513 2113 
z
" transform="scale(0.015625)"/>
       <path id="DejaVuSans-73" d="M 2834 3397 
L 2834 2853 
Q 2591 2978 2328 3040 
Q 2066 3103 1784 3103 
Q 1356 3103 1142 2972 
Q 928 2841 928 2578 
Q 928 2378 1081 2264 
Q 1234 2150 1697 2047 
L 1894 2003 
Q 2506 1872 2764 1633 
Q 3022 1394 3022 966 
Q 3022 478 2636 193 
Q 2250 -91 1575 -91 
Q 1294 -91 989 -36 
Q 684 19 347 128 
L 347 722 
Q 666 556 975 473 
Q 1284 391 1588 391 
Q 1994 391 2212 530 
Q 2431 669 2431 922 
Q 2431 1156 2273 1281 
Q 2116 1406 1581 1522 
L 1381 1569 
Q 847 1681 609 1914 
Q 372 2147 372 2553 
Q 372 3047 722 3315 
Q 1072 3584 1716 3584 
Q 2034 3584 2315 3537 
Q 2597 3491 2834 3397 
z
" transform="scale(0.015625)"/>
       <path id="DejaVuSans-5d" d="M 1947 4863 
L 1947 -844 
L 622 -844 
L 622 -397 
L 1369 -397 
L 1369 4416 
L 622 4416 
L 622 4863 
L 1947 4863 
z
" transform="scale(0.015625)"/>
      </defs>
      <use xlink:href="#DejaVuSans-54"/>
      <use xlink:href="#DejaVuSans-69" x="57.958984"/>
      <use xlink:href="#DejaVuSans-65" x="85.742188"/>
      <use xlink:href="#DejaVuSans-6d" x="147.265625"/>
      <use xlink:href="#DejaVuSans-70" x="244.677734"/>
      <use xlink:href="#DejaVuSans-6f" x="308.154297"/>
      <use xlink:href="#DejaVuSans-20" x="369.335938"/>
      <use xlink:href="#DejaVuSans-5b" x="401.123047"/>
      <use xlink:href="#DejaVuSans-6e" x="440.136719"/>
      <use xlink:href="#DejaVuSans-73" x="503.515625"/>
      <use xlink:href="#DejaVuSans-5d" x="555.615234"/>
     </g>
    </g>
   </g>
   <g id="matplotlib.axis_2">
    <g id="ytick_1">
     <g id="line2d_11">
      <path d="M 115.2 559.421217 
L 829.44 559.421217 
" clip-path="url(#peb78eddbb8)" style="fill: none; stroke: #b0b0b0; stroke-width: 0.8; stroke-linecap: square"/>
     </g>
     <g id="line2d_12">
      <defs>
       <path id="m9e6fd37760" d="M 0 0 
L -3.5 0 
" style="stroke: #000000; stroke-width: 0.8"/>
      </defs>
      <g>
       <use xlink:href="#m9e6fd37760" x="115.2" y="559.421217" style="stroke: #000000; stroke-width: 0.8"/>
      </g>
     </g>
     <g id="text_7">
      <!-- −35 -->
      <g transform="translate(55.438281 568.919264)scale(0.25 -0.25)">
       <defs>
        <path id="DejaVuSans-33" d="M 2597 2516 
Q 3050 2419 3304 2112 
Q 3559 1806 3559 1356 
Q 3559 666 3084 287 
Q 2609 -91 1734 -91 
Q 1441 -91 1130 -33 
Q 819 25 488 141 
L 488 750 
Q 750 597 1062 519 
Q 1375 441 1716 441 
Q 2309 441 2620 675 
Q 2931 909 2931 1356 
Q 2931 1769 2642 2001 
Q 2353 2234 1838 2234 
L 1294 2234 
L 1294 2753 
L 1863 2753 
Q 2328 2753 2575 2939 
Q 2822 3125 2822 3475 
Q 2822 3834 2567 4026 
Q 2313 4219 1838 4219 
Q 1578 4219 1281 4162 
Q 984 4106 628 3988 
L 628 4550 
Q 988 4650 1302 4700 
Q 1616 4750 1894 4750 
Q 2613 4750 3031 4423 
Q 3450 4097 3450 3541 
Q 3450 3153 3228 2886 
Q 3006 2619 2597 2516 
z
" transform="scale(0.015625)"/>
        <path id="DejaVuSans-35" d="M 691 4666 
L 3169 4666 
L 3169 4134 
L 1269 4134 
L 1269 2991 
Q 1406 3038 1543 3061 
Q 1681 3084 1819 3084 
Q 2600 3084 3056 2656 
Q 3513 2228 3513 1497 
Q 3513 744 3044 326 
Q 2575 -91 1722 -91 
Q 1428 -91 1123 -41 
Q 819 9 494 109 
L 494 744 
Q 775 591 1075 516 
Q 1375 441 1709 441 
Q 2250 441 2565 725 
Q 2881 1009 2881 1497 
Q 2881 1984 2565 2268 
Q 2250 2553 1709 2553 
Q 1456 2553 1204 2497 
Q 953 2441 691 2322 
L 691 4666 
z
" transform="scale(0.015625)"/>
       </defs>
       <use xlink:href="#DejaVuSans-2212"/>
       <use xlink:href="#DejaVuSans-33" x="83.789062"/>
       <use xlink:href="#DejaVuSans-35" x="147.412109"/>
      </g>
     </g>
    </g>
    <g id="ytick_2">
     <g id="line2d_13">
      <path d="M 115.2 493.682087 
L 829.44 493.682087 
" clip-path="url(#peb78eddbb8)" style="fill: none; stroke: #b0b0b0; stroke-width: 0.8; stroke-linecap: square"/>
     </g>
     <g id="line2d_14">
      <g>
       <use xlink:href="#m9e6fd37760" x="115.2" y="493.682087" style="stroke: #000000; stroke-width: 0.8"/>
      </g>
     </g>
     <g id="text_8">
      <!-- −30 -->
      <g transform="translate(55.438281 503.180134)scale(0.25 -0.25)">
       <use xlink:href="#DejaVuSans-2212"/>
       <use xlink:href="#DejaVuSans-33" x="83.789062"/>
       <use xlink:href="#DejaVuSans-30" x="147.412109"/>
      </g>
     </g>
    </g>
    <g id="ytick_3">
     <g id="line2d_15">
      <path d="M 115.2 427.942957 
L 829.44 427.942957 
" clip-path="url(#peb78eddbb8)" style="fill: none; stroke: #b0b0b0; stroke-width: 0.8; stroke-linecap: square"/>
     </g>
     <g id="line2d_16">
      <g>
       <use xlink:href="#m9e6fd37760" x="115.2" y="427.942957" style="stroke: #000000; stroke-width: 0.8"/>
      </g>
     </g>
     <g id="text_9">
      <!-- −25 -->
      <g transform="translate(55.438281 437.441003)scale(0.25 -0.25)">
       <use xlink:href="#DejaVuSans-2212"/>
       <use xlink:href="#DejaVuSans-32" x="83.789062"/>
       <use xlink:href="#DejaVuSans-35" x="147.412109"/>
      </g>
     </g>
    </g>
    <g id="ytick_4">
     <g id="line2d_17">
      <path d="M 115.2 362.203826 
L 829.44 362.203826 
" clip-path="url(#peb78eddbb8)" style="fill: none; stroke: #b0b0b0; stroke-width: 0.8; stroke-linecap: square"/>
     </g>
     <g id="line2d_18">
      <g>
       <use xlink:href="#m9e6fd37760" x="115.2" y="362.203826" style="stroke: #000000; stroke-width: 0.8"/>
      </g>
     </g>
     <g id="text_10">
      <!-- −20 -->
      <g transform="translate(55.438281 371.701873)scale(0.25 -0.25)">
       <use xlink:href="#DejaVuSans-2212"/>
       <use xlink:href="#DejaVuSans-32" x="83.789062"/>
       <use xlink:href="#DejaVuSans-30" x="147.412109"/>
      </g>
     </g>
    </g>
    <g id="ytick_5">
     <g id="line2d_19">
      <path d="M 115.2 296.464696 
L 829.44 296.464696 
" clip-path="url(#peb78eddbb8)" style="fill: none; stroke: #b0b0b0; stroke-width: 0.8; stroke-linecap: square"/>
     </g>
     <g id="line2d_20">
      <g>
       <use xlink:href="#m9e6fd37760" x="115.2" y="296.464696" style="stroke: #000000; stroke-width: 0.8"/>
      </g>
     </g>
     <g id="text_11">
      <!-- −15 -->
      <g transform="translate(55.438281 305.962743)scale(0.25 -0.25)">
       <use xlink:href="#DejaVuSans-2212"/>
       <use xlink:href="#DejaVuSans-31" x="83.789062"/>
       <use xlink:href="#DejaVuSans-35" x="147.412109"/>
      </g>
     </g>
    </g>
    <g id="ytick_6">
     <g id="line2d_21">
      <path d="M 115.2 230.725565 
L 829.44 230.725565 
" clip-path="url(#peb78eddbb8)" style="fill: none; stroke: #b0b0b0; stroke-width: 0.8; stroke-linecap: square"/>
     </g>
     <g id="line2d_22">
      <g>
       <use xlink:href="#m9e6fd37760" x="115.2" y="230.725565" style="stroke: #000000; stroke-width: 0.8"/>
      </g>
     </g>
     <g id="text_12">
      <!-- −10 -->
      <g transform="translate(55.438281 240.223612)scale(0.25 -0.25)">
       <use xlink:href="#DejaVuSans-2212"/>
       <use xlink:href="#DejaVuSans-31" x="83.789062"/>
       <use xlink:href="#DejaVuSans-30" x="147.412109"/>
      </g>
     </g>
    </g>
    <g id="ytick_7">
     <g id="line2d_23">
      <path d="M 115.2 164.986435 
L 829.44 164.986435 
" clip-path="url(#peb78eddbb8)" style="fill: none; stroke: #b0b0b0; stroke-width: 0.8; stroke-linecap: square"/>
     </g>
     <g id="line2d_24">
      <g>
       <use xlink:href="#m9e6fd37760" x="115.2" y="164.986435" style="stroke: #000000; stroke-width: 0.8"/>
      </g>
     </g>
     <g id="text_13">
      <!-- −5 -->
      <g transform="translate(71.344531 174.484482)scale(0.25 -0.25)">
       <use xlink:href="#DejaVuSans-2212"/>
       <use xlink:href="#DejaVuSans-35" x="83.789062"/>
      </g>
     </g>
    </g>
    <g id="ytick_8">
     <g id="line2d_25">
      <path d="M 115.2 99.247304 
L 829.44 99.247304 
" clip-path="url(#peb78eddbb8)" style="fill: none; stroke: #b0b0b0; stroke-width: 0.8; stroke-linecap: square"/>
     </g>
     <g id="line2d_26">
      <g>
       <use xlink:href="#m9e6fd37760" x="115.2" y="99.247304" style="stroke: #000000; stroke-width: 0.8"/>
      </g>
     </g>
     <g id="text_14">
      <!-- 0 -->
      <g transform="translate(92.29375 108.745351)scale(0.25 -0.25)">
       <use xlink:href="#DejaVuSans-30"/>
      </g>
     </g>
    </g>
    <g id="text_15">
     <!-- Voltaje [mV] -->
     <g transform="translate(45.199219 441.313031)rotate(-90)scale(0.3 -0.3)">
      <defs>
       <path id="DejaVuSans-56" d="M 1831 0 
L 50 4666 
L 709 4666 
L 2188 738 
L 3669 4666 
L 4325 4666 
L 2547 0 
L 1831 0 
z
" transform="scale(0.015625)"/>
       <path id="DejaVuSans-6c" d="M 603 4863 
L 1178 4863 
L 1178 0 
L 603 0 
L 603 4863 
z
" transform="scale(0.015625)"/>
       <path id="DejaVuSans-74" d="M 1172 4494 
L 1172 3500 
L 2356 3500 
L 2356 3053 
L 1172 3053 
L 1172 1153 
Q 1172 725 1289 603 
Q 1406 481 1766 481 
L 2356 481 
L 2356 0 
L 1766 0 
Q 1100 0 847 248 
Q 594 497 594 1153 
L 594 3053 
L 172 3053 
L 172 3500 
L 594 3500 
L 594 4494 
L 1172 4494 
z
" transform="scale(0.015625)"/>
       <path id="DejaVuSans-61" d="M 2194 1759 
Q 1497 1759 1228 1600 
Q 959 1441 959 1056 
Q 959 750 1161 570 
Q 1363 391 1709 391 
Q 2188 391 2477 730 
Q 2766 1069 2766 1631 
L 2766 1759 
L 2194 1759 
z
M 3341 1997 
L 3341 0 
L 2766 0 
L 2766 531 
Q 2569 213 2275 61 
Q 1981 -91 1556 -91 
Q 1019 -91 701 211 
Q 384 513 384 1019 
Q 384 1609 779 1909 
Q 1175 2209 1959 2209 
L 2766 2209 
L 2766 2266 
Q 2766 2663 2505 2880 
Q 2244 3097 1772 3097 
Q 1472 3097 1187 3025 
Q 903 2953 641 2809 
L 641 3341 
Q 956 3463 1253 3523 
Q 1550 3584 1831 3584 
Q 2591 3584 2966 3190 
Q 3341 2797 3341 1997 
z
" transform="scale(0.015625)"/>
       <path id="DejaVuSans-6a" d="M 603 3500 
L 1178 3500 
L 1178 -63 
Q 1178 -731 923 -1031 
Q 669 -1331 103 -1331 
L -116 -1331 
L -116 -844 
L 38 -844 
Q 366 -844 484 -692 
Q 603 -541 603 -63 
L 603 3500 
z
M 603 4863 
L 1178 4863 
L 1178 4134 
L 603 4134 
L 603 4863 
z
" transform="scale(0.015625)"/>
      </defs>
      <use xlink:href="#DejaVuSans-56"/>
      <use xlink:href="#DejaVuSans-6f" x="60.658203"/>
      <use xlink:href="#DejaVuSans-6c" x="121.839844"/>
      <use xlink:href="#DejaVuSans-74" x="149.623047"/>
      <use xlink:href="#DejaVuSans-61" x="188.832031"/>
      <use xlink:href="#DejaVuSans-6a" x="250.111328"/>
      <use xlink:href="#DejaVuSans-65" x="277.894531"/>
      <use xlink:href="#DejaVuSans-20" x="339.417969"/>
      <use xlink:href="#DejaVuSans-5b" x="371.205078"/>
      <use xlink:href="#DejaVuSans-6d" x="410.21875"/>
      <use xlink:href="#DejaVuSans-56" x="507.630859"/>
      <use xlink:href="#DejaVuSans-5d" x="576.039062"/>
     </g>
    </g>
   </g>
   <g id="line2d_27">
    <path d="M 147.665455 235.984696 
L 147.925282 241.243826 
L 149.22442 254.391652 
L 149.744075 254.391652 
L 150.003903 251.762087 
L 150.26373 251.762087 
L 150.523558 246.502957 
L 150.783385 243.873391 
L 152.342351 212.318609 
L 152.862006 199.170783 
L 153.901316 178.134261 
L 154.680799 170.245565 
L 154.940626 170.245565 
L 155.200454 167.616 
L 155.720109 167.616 
L 155.979937 170.245565 
L 156.239764 170.245565 
L 156.499592 172.87513 
L 156.759419 178.134261 
L 157.019247 180.763826 
L 159.87735 238.614261 
L 161.176488 251.762087 
L 161.436316 251.762087 
L 161.696143 249.132522 
L 161.955971 249.132522 
L 162.475626 243.873391 
L 164.034591 212.318609 
L 164.554246 199.170783 
L 165.593557 178.134261 
L 165.853384 175.504696 
L 166.113212 170.245565 
L 166.373039 167.616 
L 166.632867 162.35687 
L 166.892695 159.727304 
L 167.152522 159.727304 
L 167.41235 157.097739 
L 168.45166 157.097739 
L 168.711488 159.727304 
L 168.971315 159.727304 
L 169.231143 162.35687 
L 169.49097 162.35687 
L 169.750798 167.616 
L 170.010625 170.245565 
L 170.270453 175.504696 
L 170.53028 178.134261 
L 170.790108 183.393391 
L 171.309763 196.541217 
L 171.569591 201.800348 
L 172.349073 222.83687 
L 172.608901 228.096 
L 173.128556 241.243826 
L 173.388384 243.873391 
L 173.648211 249.132522 
L 173.908039 249.132522 
L 174.167866 251.762087 
L 174.427694 251.762087 
L 174.687522 249.132522 
L 174.947349 249.132522 
L 175.467004 243.873391 
L 176.506315 222.83687 
L 177.285797 201.800348 
L 178.584935 175.504696 
L 178.844763 172.87513 
L 179.10459 167.616 
L 179.364418 164.986435 
L 179.624245 159.727304 
L 180.1439 154.468174 
L 180.403728 154.468174 
L 180.663556 151.838609 
L 181.183211 151.838609 
L 181.443038 154.468174 
L 181.702866 154.468174 
L 182.482349 162.35687 
L 182.742176 167.616 
L 183.002004 170.245565 
L 183.781486 186.022957 
L 184.820797 214.948174 
L 185.080624 220.207304 
L 185.600279 233.35513 
L 185.860107 235.984696 
L 186.119935 241.243826 
L 186.379762 241.243826 
L 186.63959 243.873391 
L 186.899417 241.243826 
L 187.159245 241.243826 
L 187.419072 238.614261 
L 187.6789 233.35513 
L 188.198555 228.096 
L 190.017348 191.282087 
L 190.537003 178.134261 
L 190.796831 175.504696 
L 191.056658 170.245565 
L 191.316486 167.616 
L 191.576313 162.35687 
L 192.095969 157.097739 
L 192.355796 157.097739 
L 192.875451 151.838609 
L 193.135279 151.838609 
L 193.654934 146.579478 
L 194.174589 146.579478 
L 194.954072 154.468174 
L 195.213899 159.727304 
L 195.473727 162.35687 
L 195.993382 172.87513 
L 196.513037 186.022957 
L 196.772865 191.282087 
L 197.29252 204.429913 
L 197.812175 214.948174 
L 198.072003 217.577739 
L 198.33183 222.83687 
L 198.851485 228.096 
L 199.630968 228.096 
L 200.410451 220.207304 
L 200.670278 214.948174 
L 200.930106 212.318609 
L 201.709589 196.541217 
L 202.229244 183.393391 
L 202.489071 180.763826 
L 203.268554 164.986435 
L 203.528382 162.35687 
L 203.788209 157.097739 
L 204.307864 151.838609 
L 204.567692 146.579478 
L 205.86683 133.431652 
L 206.646312 133.431652 
L 206.90614 136.061217 
L 207.165967 136.061217 
L 207.425795 138.690783 
L 207.685623 143.949913 
L 207.94545 146.579478 
L 208.205278 151.838609 
L 208.465105 154.468174 
L 209.764243 180.763826 
L 210.283898 193.911652 
L 210.803553 204.429913 
L 211.063381 207.059478 
L 211.323209 212.318609 
L 211.583036 212.318609 
L 211.842864 214.948174 
L 212.882174 214.948174 
L 213.401829 209.689043 
L 213.661657 204.429913 
L 213.921484 201.800348 
L 214.181312 196.541217 
L 214.441139 193.911652 
L 214.960794 183.393391 
L 215.220622 180.763826 
L 215.48045 175.504696 
L 215.740277 172.87513 
L 216.259932 162.35687 
L 216.51976 159.727304 
L 216.779587 154.468174 
L 217.299243 149.209043 
L 217.55907 143.949913 
L 218.338553 136.061217 
L 218.59838 136.061217 
L 218.858208 133.431652 
L 219.637691 133.431652 
L 219.897518 136.061217 
L 220.157346 136.061217 
L 220.417173 141.320348 
L 220.677001 143.949913 
L 220.936829 149.209043 
L 221.196656 151.838609 
L 222.495794 178.134261 
L 222.755622 180.763826 
L 223.015449 186.022957 
L 223.275277 188.652522 
L 223.535104 193.911652 
L 223.794932 196.541217 
L 224.054759 196.541217 
L 224.314587 199.170783 
L 224.574414 199.170783 
L 224.834242 196.541217 
L 225.09407 196.541217 
L 225.353897 193.911652 
L 225.613725 193.911652 
L 226.393207 186.022957 
L 226.653035 180.763826 
L 228.991483 157.097739 
L 229.251311 151.838609 
L 229.511138 149.209043 
L 229.770966 149.209043 
L 230.550449 141.320348 
L 230.810276 141.320348 
L 231.070104 138.690783 
L 231.329931 138.690783 
L 231.589759 136.061217 
L 231.849586 136.061217 
L 233.148724 149.209043 
L 233.408552 154.468174 
L 233.668379 157.097739 
L 234.188034 167.616 
L 234.447862 170.245565 
L 234.70769 175.504696 
L 235.227345 180.763826 
L 235.487172 186.022957 
L 235.747 186.022957 
L 236.006827 188.652522 
L 236.526483 188.652522 
L 236.78631 191.282087 
L 237.046138 188.652522 
L 237.565793 188.652522 
L 237.82562 186.022957 
L 238.085448 186.022957 
L 238.345276 183.393391 
L 238.605103 183.393391 
L 238.864931 180.763826 
L 239.124758 180.763826 
L 239.644413 175.504696 
L 239.904241 175.504696 
L 240.164069 172.87513 
L 240.423896 172.87513 
L 240.943551 167.616 
L 241.203379 167.616 
L 242.762344 151.838609 
L 243.022172 151.838609 
L 243.541827 146.579478 
L 244.32131 146.579478 
L 244.581137 149.209043 
L 244.840965 149.209043 
L 245.36062 154.468174 
L 245.620447 159.727304 
L 246.140103 164.986435 
L 246.39993 170.245565 
L 247.179413 178.134261 
L 247.43924 178.134261 
L 247.699068 180.763826 
L 249.517861 180.763826 
L 251.336654 162.35687 
L 251.596482 162.35687 
L 251.856309 159.727304 
L 252.375964 159.727304 
L 252.635792 157.097739 
L 252.895619 157.097739 
L 253.155447 154.468174 
L 253.415274 154.468174 
L 253.93493 149.209043 
L 254.194757 149.209043 
L 254.714412 143.949913 
L 254.97424 143.949913 
L 255.234067 141.320348 
L 256.533205 141.320348 
L 256.793033 143.949913 
L 257.312688 143.949913 
L 257.572516 146.579478 
L 257.832343 146.579478 
L 260.170791 170.245565 
L 260.430619 170.245565 
L 260.690446 172.87513 
L 261.469929 172.87513 
L 261.729757 170.245565 
L 262.769067 170.245565 
L 263.028894 167.616 
L 263.288722 167.616 
L 263.54855 164.986435 
L 263.808377 164.986435 
L 264.328032 159.727304 
L 264.58786 159.727304 
L 264.847687 157.097739 
L 265.367343 157.097739 
L 265.62717 154.468174 
L 266.406653 154.468174 
L 266.66648 151.838609 
L 269.524584 151.838609 
L 270.044239 157.097739 
L 270.304066 157.097739 
L 271.343377 167.616 
L 271.603204 172.87513 
L 271.863032 172.87513 
L 272.642514 180.763826 
L 274.461307 180.763826 
L 274.721135 178.134261 
L 275.24079 178.134261 
L 275.500618 175.504696 
L 275.760445 175.504696 
L 276.020273 172.87513 
L 276.539928 172.87513 
L 276.799756 170.245565 
L 277.059583 170.245565 
L 277.319411 167.616 
L 277.839066 167.616 
L 278.098893 164.986435 
L 278.358721 164.986435 
L 278.618549 162.35687 
L 278.878376 162.35687 
L 279.398031 157.097739 
L 279.657859 157.097739 
L 279.917686 154.468174 
L 280.437341 154.468174 
L 280.697169 151.838609 
L 281.216824 151.838609 
L 281.476652 154.468174 
L 281.996307 154.468174 
L 282.256134 157.097739 
L 282.515962 157.097739 
L 282.77579 159.727304 
L 284.334755 159.727304 
L 284.594583 157.097739 
L 284.85441 157.097739 
L 285.114238 154.468174 
L 285.633893 154.468174 
L 285.89372 151.838609 
L 286.153548 151.838609 
L 286.413376 149.209043 
L 286.673203 149.209043 
L 286.933031 146.579478 
L 287.452686 146.579478 
L 287.712513 143.949913 
L 289.011651 143.949913 
L 289.271479 146.579478 
L 289.531306 146.579478 
L 289.791134 149.209043 
L 290.310789 149.209043 
L 290.570617 151.838609 
L 294.208203 151.838609 
L 294.46803 154.468174 
L 295.50734 154.468174 
L 295.767168 157.097739 
L 297.066306 157.097739 
L 297.326133 154.468174 
L 297.585961 154.468174 
L 298.105616 149.209043 
L 298.365444 149.209043 
L 298.885099 143.949913 
L 299.144926 143.949913 
L 299.404754 141.320348 
L 300.184237 141.320348 
L 300.444064 138.690783 
L 302.00303 138.690783 
L 302.262857 141.320348 
L 302.522685 141.320348 
L 302.782512 143.949913 
L 303.302167 143.949913 
L 303.561995 146.579478 
L 304.601305 146.579478 
L 304.861133 149.209043 
L 305.900443 149.209043 
L 306.160271 151.838609 
L 306.420098 151.838609 
L 306.679926 154.468174 
L 307.719236 154.468174 
L 307.979064 151.838609 
L 308.238891 151.838609 
L 308.498719 149.209043 
L 309.018374 149.209043 
L 309.278201 146.579478 
L 309.538029 146.579478 
L 309.797857 143.949913 
L 310.057684 143.949913 
L 311.096994 133.431652 
L 311.356822 133.431652 
L 311.61665 130.802087 
L 312.136305 130.802087 
L 312.396132 128.172522 
L 313.69527 128.172522 
L 314.214925 133.431652 
L 314.474753 133.431652 
L 314.994408 138.690783 
L 315.254236 143.949913 
L 317.332856 164.986435 
L 317.592684 164.986435 
L 318.112339 170.245565 
L 319.411477 170.245565 
L 320.190959 162.35687 
L 320.450787 162.35687 
L 320.970442 157.097739 
L 321.23027 151.838609 
L 322.009752 143.949913 
L 322.26958 138.690783 
L 322.789235 133.431652 
L 323.828545 133.431652 
L 324.088373 136.061217 
L 324.867856 151.838609 
L 325.647338 178.134261 
L 326.686648 222.83687 
L 330.064407 388.499478 
L 331.103717 427.942957 
L 331.623372 438.461217 
L 332.143027 443.720348 
L 332.402855 443.720348 
L 332.662683 441.090783 
L 333.442165 425.313391 
L 335.001131 380.610783 
L 335.780613 364.833391 
L 336.560096 356.944696 
L 336.819924 356.944696 
L 337.079751 354.31513 
L 337.339579 354.31513 
L 337.599406 351.685565 
L 337.859234 351.685565 
L 338.119061 349.056 
L 338.378889 349.056 
L 338.638717 351.685565 
L 338.898544 351.685565 
L 339.678027 359.574261 
L 340.977165 385.869913 
L 343.835268 470.016 
L 344.614751 485.793391 
L 344.874578 488.422957 
L 345.394233 501.570783 
L 345.654061 506.829913 
L 346.433544 514.718609 
L 346.953199 514.718609 
L 347.992509 504.200348 
L 348.252337 498.941217 
L 348.512164 496.311652 
L 348.771992 491.052522 
L 349.031819 488.422957 
L 349.811302 488.422957 
L 350.07113 491.052522 
L 350.330957 496.311652 
L 351.370267 530.496 
L 352.14975 564.680348 
L 352.929233 585.71687 
L 353.18906 590.976 
L 359.68475 590.976 
L 360.204405 585.71687 
L 361.243715 564.680348 
L 361.76337 551.532522 
L 362.283025 546.273391 
L 362.542853 546.273391 
L 362.80268 543.643826 
L 363.062508 543.643826 
L 364.361646 556.791652 
L 364.621473 562.050783 
L 364.881301 564.680348 
L 365.400956 575.198609 
L 365.660784 577.828174 
L 365.920611 583.087304 
L 366.180439 585.71687 
L 366.440266 590.976 
L 371.37699 590.976 
L 372.4163 569.939478 
L 373.975266 525.23687 
L 374.494921 514.718609 
L 374.754748 512.089043 
L 376.053886 512.089043 
L 376.313714 514.718609 
L 376.573541 514.718609 
L 377.093197 519.977739 
L 377.353024 519.977739 
L 378.652162 533.125565 
L 378.91199 538.384696 
L 379.171817 541.014261 
L 379.431645 546.273391 
L 379.9513 551.532522 
L 380.211127 556.791652 
L 380.99061 564.680348 
L 381.250438 564.680348 
L 381.510265 567.309913 
L 382.289748 567.309913 
L 383.069231 559.421217 
L 384.368368 533.125565 
L 385.147851 512.089043 
L 385.667506 501.570783 
L 386.187161 488.422957 
L 386.446989 483.163826 
L 387.746127 470.016 
L 388.52561 470.016 
L 388.785437 472.645565 
L 389.045265 472.645565 
L 389.305092 475.27513 
L 389.56492 480.534261 
L 389.824747 483.163826 
L 390.084575 488.422957 
L 390.344402 491.052522 
L 390.60423 496.311652 
L 390.864058 498.941217 
L 391.123885 504.200348 
L 391.64354 509.459478 
L 391.903368 514.718609 
L 392.682851 522.607304 
L 392.942678 522.607304 
L 393.202506 525.23687 
L 395.021299 525.23687 
L 396.060609 514.718609 
L 396.580264 504.200348 
L 397.619574 475.27513 
L 397.879402 470.016 
L 398.399057 456.868174 
L 398.658885 451.609043 
L 398.918712 448.979478 
L 399.17854 443.720348 
L 399.438367 441.090783 
L 399.698195 441.090783 
L 399.958022 438.461217 
L 400.21785 438.461217 
L 400.477678 435.831652 
L 400.997333 435.831652 
L 401.25716 438.461217 
L 401.516988 438.461217 
L 401.776815 441.090783 
L 402.036643 441.090783 
L 403.335781 454.238609 
L 403.595608 459.497739 
L 405.674229 480.534261 
L 405.934057 480.534261 
L 406.713539 488.422957 
L 407.75285 488.422957 
L 409.311815 472.645565 
L 411.130608 435.831652 
L 412.429746 422.683826 
L 413.209228 422.683826 
L 413.469056 425.313391 
L 413.728884 425.313391 
L 414.248539 430.572522 
L 414.508366 430.572522 
L 414.768194 433.202087 
L 415.028021 433.202087 
L 415.287849 435.831652 
L 415.547677 435.831652 
L 415.807504 438.461217 
L 416.327159 438.461217 
L 416.586987 441.090783 
L 417.106642 441.090783 
L 417.366469 443.720348 
L 417.626297 443.720348 
L 418.145952 448.979478 
L 418.40578 448.979478 
L 418.665607 451.609043 
L 418.925435 451.609043 
L 419.185262 454.238609 
L 419.964745 454.238609 
L 420.224573 451.609043 
L 420.4844 451.609043 
L 421.263883 443.720348 
L 422.043366 427.942957 
L 422.822848 406.906435 
L 423.602331 391.129043 
L 423.862159 388.499478 
L 424.121986 383.240348 
L 424.641641 377.981217 
L 424.901469 377.981217 
L 425.161297 375.351652 
L 425.421124 375.351652 
L 425.680952 377.981217 
L 425.940779 377.981217 
L 426.200607 380.610783 
L 426.460434 380.610783 
L 429.05871 406.906435 
L 429.318538 406.906435 
L 429.838193 412.165565 
L 430.09802 412.165565 
L 430.357848 414.79513 
L 430.617675 414.79513 
L 431.137331 420.054261 
L 432.696296 420.054261 
L 434.255261 404.27687 
L 434.515089 399.017739 
L 434.774917 396.388174 
L 435.294572 385.869913 
L 435.554399 383.240348 
L 435.814227 377.981217 
L 437.113365 364.833391 
L 438.412502 364.833391 
L 438.67233 367.462957 
L 438.932158 367.462957 
L 439.451813 372.722087 
L 439.71164 372.722087 
L 441.270606 388.499478 
L 441.530433 388.499478 
L 441.790261 391.129043 
L 442.309916 391.129043 
L 442.569744 393.758609 
L 442.829571 393.758609 
L 443.089399 396.388174 
L 443.609054 396.388174 
L 443.868881 399.017739 
L 445.168019 399.017739 
L 447.24664 377.981217 
L 447.506467 372.722087 
L 448.28595 364.833391 
L 448.545778 359.574261 
L 449.585088 349.056 
L 449.844915 349.056 
L 450.104743 346.426435 
L 450.884226 346.426435 
L 451.144053 349.056 
L 451.403881 349.056 
L 452.183364 356.944696 
L 452.443191 356.944696 
L 453.742329 370.092522 
L 454.002156 370.092522 
L 454.261984 372.722087 
L 455.041467 372.722087 
L 455.301294 370.092522 
L 456.080777 370.092522 
L 456.86026 362.203826 
L 457.120087 362.203826 
L 457.379915 356.944696 
L 457.89957 351.685565 
L 458.159398 351.685565 
L 459.198708 341.167304 
L 459.458535 341.167304 
L 460.497846 330.649043 
L 460.757673 330.649043 
L 461.277328 325.389913 
L 461.537156 325.389913 
L 461.796984 322.760348 
L 462.056811 322.760348 
L 462.316639 320.130783 
L 462.836294 320.130783 
L 463.096121 317.501217 
L 463.355949 317.501217 
L 463.615776 320.130783 
L 463.875604 320.130783 
L 464.135432 322.760348 
L 464.395259 322.760348 
L 465.434569 333.278609 
L 465.694397 333.278609 
L 466.214052 338.537739 
L 466.47388 338.537739 
L 466.733707 341.167304 
L 466.993535 341.167304 
L 468.032845 351.685565 
L 468.292673 351.685565 
L 468.5525 354.31513 
L 468.812328 354.31513 
L 469.072155 351.685565 
L 469.331983 351.685565 
L 469.591811 349.056 
L 469.851638 349.056 
L 470.631121 341.167304 
L 470.890948 335.908174 
L 473.489224 309.612522 
L 473.749052 309.612522 
L 474.008879 306.982957 
L 474.528534 306.982957 
L 474.788362 304.353391 
L 475.308017 304.353391 
L 475.567845 306.982957 
L 476.0875 306.982957 
L 477.12681 317.501217 
L 477.386638 317.501217 
L 477.646465 320.130783 
L 477.906293 320.130783 
L 478.16612 322.760348 
L 478.685775 322.760348 
L 478.945603 325.389913 
L 479.205431 325.389913 
L 479.465258 328.019478 
L 479.984913 328.019478 
L 480.244741 330.649043 
L 481.024224 330.649043 
L 481.284051 328.019478 
L 481.543879 328.019478 
L 482.323361 320.130783 
L 482.583189 314.871652 
L 485.181465 288.576 
L 485.70112 288.576 
L 485.960947 291.205565 
L 486.480602 291.205565 
L 486.74043 293.83513 
L 487.260085 293.83513 
L 487.519913 296.464696 
L 487.77974 296.464696 
L 488.819051 306.982957 
L 489.078878 306.982957 
L 489.338706 309.612522 
L 490.378016 309.612522 
L 490.637844 312.242087 
L 491.677154 312.242087 
L 492.196809 317.501217 
L 493.236119 317.501217 
L 496.873705 280.687304 
L 497.133533 280.687304 
L 497.39336 278.057739 
L 497.653188 278.057739 
L 497.913015 275.428174 
L 498.172843 275.428174 
L 498.432671 278.057739 
L 498.952326 278.057739 
L 499.212153 280.687304 
L 499.471981 280.687304 
L 499.731808 283.31687 
L 499.991636 283.31687 
L 500.251463 285.946435 
L 500.771119 285.946435 
L 501.030946 288.576 
L 501.290774 288.576 
L 501.550601 291.205565 
L 502.070256 291.205565 
L 502.330084 293.83513 
L 502.589912 293.83513 
L 502.849739 296.464696 
L 503.629222 296.464696 
L 503.889049 299.094261 
L 504.148877 296.464696 
L 504.92836 296.464696 
L 505.188187 299.094261 
L 505.707842 299.094261 
L 505.96767 296.464696 
L 506.487325 296.464696 
L 508.306118 278.057739 
L 508.565946 272.798609 
L 509.345428 264.909913 
L 509.605256 264.909913 
L 509.865083 262.280348 
L 510.644566 262.280348 
L 510.904394 264.909913 
L 511.164221 264.909913 
L 512.203532 275.428174 
L 512.463359 275.428174 
L 512.723187 278.057739 
L 515.061635 278.057739 
L 515.321462 280.687304 
L 517.919738 280.687304 
L 518.179566 283.31687 
L 518.699221 283.31687 
L 518.959048 280.687304 
L 519.218876 280.687304 
L 519.478703 278.057739 
L 519.738531 278.057739 
L 520.258186 272.798609 
L 520.518014 272.798609 
L 521.557324 262.280348 
L 522.076979 262.280348 
L 522.336807 259.650783 
L 523.116289 259.650783 
L 523.376117 262.280348 
L 524.1556 262.280348 
L 524.415427 264.909913 
L 525.454738 264.909913 
L 525.714565 267.539478 
L 526.753875 267.539478 
L 527.013703 270.169043 
L 528.053013 270.169043 
L 528.312841 272.798609 
L 529.352151 272.798609 
L 529.611979 275.428174 
L 530.391461 275.428174 
L 530.651289 272.798609 
L 530.911116 272.798609 
L 531.170944 270.169043 
L 531.430772 270.169043 
L 531.950427 264.909913 
L 532.210254 264.909913 
L 533.249565 254.391652 
L 533.509392 254.391652 
L 534.029047 249.132522 
L 534.288875 249.132522 
L 534.548702 246.502957 
L 535.84784 246.502957 
L 536.107668 249.132522 
L 536.367495 249.132522 
L 536.88715 254.391652 
L 537.146978 254.391652 
L 537.926461 262.280348 
L 538.965771 262.280348 
L 539.225599 259.650783 
L 539.485426 259.650783 
L 539.745254 257.021217 
L 540.264909 257.021217 
L 540.524736 254.391652 
L 540.784564 254.391652 
L 541.044392 251.762087 
L 541.304219 251.762087 
L 541.564047 249.132522 
L 541.823874 249.132522 
L 542.343529 243.873391 
L 542.603357 243.873391 
L 542.863185 241.243826 
L 543.123012 241.243826 
L 544.941805 222.83687 
L 545.46146 222.83687 
L 545.721288 220.207304 
L 547.540081 220.207304 
L 547.799908 222.83687 
L 548.059736 222.83687 
L 548.579391 228.096 
L 548.839219 228.096 
L 549.358874 233.35513 
L 549.618701 233.35513 
L 549.878529 235.984696 
L 550.138356 235.984696 
L 550.398184 238.614261 
L 550.658012 238.614261 
L 550.917839 241.243826 
L 551.697322 241.243826 
L 551.957149 243.873391 
L 552.216977 241.243826 
L 552.736632 241.243826 
L 552.99646 243.873391 
L 553.775942 243.873391 
L 554.03577 241.243826 
L 554.295598 241.243826 
L 556.634046 217.577739 
L 557.153701 217.577739 
L 557.413528 214.948174 
L 557.933183 214.948174 
L 558.193011 217.577739 
L 558.712666 217.577739 
L 558.972494 220.207304 
L 559.232321 220.207304 
L 559.492149 222.83687 
L 559.751976 222.83687 
L 560.271632 228.096 
L 560.531459 228.096 
L 561.570769 238.614261 
L 561.830597 238.614261 
L 562.090425 241.243826 
L 562.61008 241.243826 
L 562.869907 238.614261 
L 563.129735 238.614261 
L 563.389562 241.243826 
L 564.428873 241.243826 
L 564.6887 243.873391 
L 565.468183 243.873391 
L 565.72801 241.243826 
L 565.987838 241.243826 
L 567.546803 225.466435 
L 567.806631 220.207304 
L 568.066459 217.577739 
L 568.326286 212.318609 
L 568.845941 207.059478 
L 569.105769 207.059478 
L 569.625424 201.800348 
L 570.145079 201.800348 
L 570.404907 199.170783 
L 570.924562 199.170783 
L 571.184389 201.800348 
L 571.444217 201.800348 
L 571.963872 207.059478 
L 572.2237 207.059478 
L 575.861286 243.873391 
L 576.121113 243.873391 
L 576.380941 246.502957 
L 577.160423 246.502957 
L 577.420251 243.873391 
L 578.199734 243.873391 
L 579.498872 230.725565 
L 580.018527 220.207304 
L 580.278354 217.577739 
L 580.538182 212.318609 
L 580.798009 209.689043 
L 581.317665 199.170783 
L 581.577492 196.541217 
L 581.83732 191.282087 
L 582.356975 186.022957 
L 582.616802 180.763826 
L 583.136457 175.504696 
L 583.396285 175.504696 
L 583.656113 172.87513 
L 583.91594 172.87513 
L 584.175768 175.504696 
L 584.435595 175.504696 
L 585.734733 188.652522 
L 585.994561 193.911652 
L 586.514216 199.170783 
L 586.774043 204.429913 
L 587.033871 207.059478 
L 587.553526 217.577739 
L 587.813354 220.207304 
L 588.852664 241.243826 
L 589.112492 243.873391 
L 589.372319 249.132522 
L 589.632147 249.132522 
L 589.891974 251.762087 
L 590.671457 251.762087 
L 591.45094 243.873391 
L 591.710767 238.614261 
L 591.970595 235.984696 
L 594.049215 193.911652 
L 594.56887 180.763826 
L 595.088526 170.245565 
L 595.348353 167.616 
L 595.608181 162.35687 
L 595.868008 159.727304 
L 596.127836 159.727304 
L 596.387663 157.097739 
L 596.907319 157.097739 
L 597.686801 164.986435 
L 597.946629 170.245565 
L 598.206456 172.87513 
L 598.726112 183.393391 
L 598.985939 186.022957 
L 599.505594 196.541217 
L 600.025249 209.689043 
L 601.584215 241.243826 
L 602.623525 251.762087 
L 603.14318 251.762087 
L 603.403008 249.132522 
L 603.662835 249.132522 
L 603.922663 243.873391 
L 604.18249 241.243826 
L 605.481628 214.948174 
L 607.300421 162.35687 
L 607.820076 151.838609 
L 608.599559 143.949913 
L 608.859387 143.949913 
L 609.119214 146.579478 
L 609.379042 146.579478 
L 610.418352 157.097739 
L 610.67818 162.35687 
L 611.197835 167.616 
L 612.237145 188.652522 
L 612.496973 191.282087 
L 613.016628 201.800348 
L 613.276455 204.429913 
L 613.536283 209.689043 
L 613.79611 212.318609 
L 614.575593 228.096 
L 615.095248 233.35513 
L 615.355076 238.614261 
L 615.614903 241.243826 
L 616.654214 241.243826 
L 616.914041 238.614261 
L 618.732834 201.800348 
L 619.252489 188.652522 
L 619.512317 183.393391 
L 620.031972 170.245565 
L 620.2918 164.986435 
L 620.551627 162.35687 
L 620.811455 157.097739 
L 621.071282 154.468174 
L 621.33111 149.209043 
L 621.590937 146.579478 
L 621.850765 146.579478 
L 622.110593 143.949913 
L 622.890075 143.949913 
L 623.40973 149.209043 
L 623.929386 159.727304 
L 624.189213 162.35687 
L 625.228523 183.393391 
L 625.488351 186.022957 
L 626.008006 196.541217 
L 626.267834 199.170783 
L 626.527661 204.429913 
L 626.787489 207.059478 
L 627.047316 212.318609 
L 627.307144 214.948174 
L 627.566972 220.207304 
L 627.826799 222.83687 
L 628.086627 222.83687 
L 628.346454 225.466435 
L 629.125937 225.466435 
L 630.165247 214.948174 
L 630.94473 199.170783 
L 631.204557 196.541217 
L 631.724213 183.393391 
L 632.243868 172.87513 
L 632.503695 170.245565 
L 633.283178 154.468174 
L 633.543006 151.838609 
L 633.802833 146.579478 
L 634.582316 138.690783 
L 634.842143 138.690783 
L 635.361799 143.949913 
L 635.621626 143.949913 
L 637.180592 159.727304 
L 637.440419 164.986435 
L 637.700247 167.616 
L 638.219902 178.134261 
L 638.479729 180.763826 
L 639.51904 201.800348 
L 639.778867 204.429913 
L 640.298522 214.948174 
L 641.337833 225.466435 
L 642.117315 225.466435 
L 642.896798 217.577739 
L 644.195936 191.282087 
L 644.975419 170.245565 
L 645.495074 159.727304 
L 646.014729 146.579478 
L 646.274556 141.320348 
L 646.534384 138.690783 
L 646.794212 133.431652 
L 647.573694 125.542957 
L 647.833522 125.542957 
L 648.872832 136.061217 
L 650.431797 167.616 
L 650.691625 170.245565 
L 650.951453 175.504696 
L 651.471108 180.763826 
L 651.730935 186.022957 
L 651.990763 188.652522 
L 652.25059 193.911652 
L 652.770246 199.170783 
L 653.030073 204.429913 
L 653.289901 207.059478 
L 653.549728 207.059478 
L 653.809556 209.689043 
L 654.848866 209.689043 
L 656.148004 196.541217 
L 657.706969 164.986435 
L 658.226624 151.838609 
L 658.74628 141.320348 
L 659.006107 138.690783 
L 659.265935 133.431652 
L 659.525762 133.431652 
L 659.78559 130.802087 
L 660.565073 130.802087 
L 661.86421 143.949913 
L 662.903521 164.986435 
L 663.163348 167.616 
L 663.423176 172.87513 
L 663.683003 175.504696 
L 663.942831 180.763826 
L 664.462486 186.022957 
L 664.722314 191.282087 
L 665.501796 199.170783 
L 665.761624 199.170783 
L 666.021451 204.429913 
L 666.281279 207.059478 
L 666.541107 207.059478 
L 666.800934 209.689043 
L 667.580417 209.689043 
L 668.100072 204.429913 
L 668.3599 199.170783 
L 668.619727 196.541217 
L 668.879555 191.282087 
L 669.139382 188.652522 
L 669.659037 178.134261 
L 669.918865 175.504696 
L 670.43852 164.986435 
L 670.698348 162.35687 
L 670.958175 157.097739 
L 671.47783 151.838609 
L 671.737658 146.579478 
L 672.257313 141.320348 
L 672.517141 141.320348 
L 673.036796 136.061217 
L 673.556451 136.061217 
L 673.816279 138.690783 
L 674.076106 138.690783 
L 674.855589 146.579478 
L 675.115416 151.838609 
L 675.635071 157.097739 
L 675.894899 162.35687 
L 676.154727 164.986435 
L 676.414554 170.245565 
L 676.674382 172.87513 
L 676.934209 178.134261 
L 677.453864 183.393391 
L 677.713692 188.652522 
L 677.97352 191.282087 
L 678.233347 196.541217 
L 678.493175 199.170783 
L 678.753002 199.170783 
L 679.01283 201.800348 
L 679.272657 201.800348 
L 679.532485 199.170783 
L 679.792313 199.170783 
L 680.05214 196.541217 
L 680.311968 196.541217 
L 681.09145 188.652522 
L 681.351278 183.393391 
L 681.611106 180.763826 
L 681.870933 180.763826 
L 682.390588 175.504696 
L 682.650416 170.245565 
L 682.910243 167.616 
L 683.429899 157.097739 
L 683.689726 154.468174 
L 683.949554 149.209043 
L 684.209381 146.579478 
L 684.469209 146.579478 
L 684.729036 143.949913 
L 684.988864 143.949913 
L 685.248691 141.320348 
L 685.768347 141.320348 
L 686.028174 143.949913 
L 686.547829 143.949913 
L 687.327312 151.838609 
L 687.58714 151.838609 
L 688.886277 164.986435 
L 689.146105 164.986435 
L 691.224726 186.022957 
L 692.264036 186.022957 
L 694.082829 167.616 
L 694.342656 162.35687 
L 694.862311 157.097739 
L 695.122139 151.838609 
L 695.381967 149.209043 
L 695.641794 143.949913 
L 696.161449 138.690783 
L 696.421277 133.431652 
L 696.940932 128.172522 
L 697.20076 128.172522 
L 697.460587 125.542957 
L 697.720415 125.542957 
L 697.980242 122.913391 
L 698.24007 122.913391 
L 698.499897 125.542957 
L 698.759725 125.542957 
L 699.019553 128.172522 
L 699.27938 128.172522 
L 699.539208 130.802087 
L 699.799035 136.061217 
L 700.058863 138.690783 
L 700.578518 149.209043 
L 700.838346 151.838609 
L 701.358001 162.35687 
L 701.617828 164.986435 
L 701.877656 170.245565 
L 702.137483 172.87513 
L 702.397311 178.134261 
L 702.916966 183.393391 
L 703.176794 188.652522 
L 703.436621 188.652522 
L 703.956276 193.911652 
L 704.475931 193.911652 
L 704.735759 191.282087 
L 704.995587 191.282087 
L 705.775069 183.393391 
L 706.034897 178.134261 
L 706.294724 175.504696 
L 706.554552 170.245565 
L 706.81438 167.616 
L 707.334035 157.097739 
L 707.593862 154.468174 
L 707.85369 149.209043 
L 708.373345 143.949913 
L 708.633173 138.690783 
L 709.412655 130.802087 
L 709.672483 130.802087 
L 709.93231 128.172522 
L 710.711793 128.172522 
L 710.971621 130.802087 
L 711.231448 130.802087 
L 711.751103 136.061217 
L 712.010931 136.061217 
L 712.530586 141.320348 
L 712.790414 146.579478 
L 713.050241 149.209043 
L 713.310069 154.468174 
L 713.829724 159.727304 
L 714.089551 164.986435 
L 714.869034 172.87513 
L 715.128862 172.87513 
L 716.168172 183.393391 
L 716.428 183.393391 
L 716.687827 186.022957 
L 717.46731 186.022957 
L 718.50662 175.504696 
L 719.026275 164.986435 
L 719.286103 162.35687 
L 720.325413 141.320348 
L 720.845068 136.061217 
L 721.104896 130.802087 
L 721.884378 122.913391 
L 722.144206 122.913391 
L 722.404034 120.283826 
L 722.663861 120.283826 
L 722.923689 117.654261 
L 723.443344 117.654261 
L 723.703171 120.283826 
L 723.962999 120.283826 
L 724.222827 122.913391 
L 724.482654 128.172522 
L 724.742482 130.802087 
L 725.262137 141.320348 
L 725.521964 143.949913 
L 725.781792 149.209043 
L 726.821102 159.727304 
L 727.08093 164.986435 
L 728.899723 183.393391 
L 729.679206 183.393391 
L 730.458688 175.504696 
L 730.718516 170.245565 
L 731.757826 159.727304 
L 732.017654 154.468174 
L 732.277481 151.838609 
L 733.316791 130.802087 
L 733.576619 128.172522 
L 733.836447 122.913391 
L 734.615929 115.024696 
L 734.875757 115.024696 
L 735.135584 112.39513 
L 736.174895 112.39513 
L 736.434722 115.024696 
L 736.69455 115.024696 
L 736.954377 117.654261 
L 737.214205 117.654261 
L 737.474033 122.913391 
L 737.73386 125.542957 
L 737.993688 130.802087 
L 738.253515 133.431652 
L 738.77317 143.949913 
L 739.292825 157.097739 
L 739.552653 162.35687 
L 739.812481 164.986435 
L 740.072308 170.245565 
L 740.851791 178.134261 
L 741.631274 178.134261 
L 743.450067 159.727304 
L 743.709894 154.468174 
L 744.749204 143.949913 
L 745.009032 138.690783 
L 746.567997 122.913391 
L 746.827825 122.913391 
L 747.607308 115.024696 
L 747.867135 115.024696 
L 748.126963 112.39513 
L 748.906445 112.39513 
L 750.205583 125.542957 
L 750.465411 130.802087 
L 750.725238 133.431652 
L 751.244894 143.949913 
L 751.504721 146.579478 
L 752.284204 162.35687 
L 753.323514 172.87513 
L 754.622652 172.87513 
L 755.402135 164.986435 
L 755.661962 164.986435 
L 756.9611 151.838609 
L 757.220928 146.579478 
L 757.480755 143.949913 
L 758.00041 133.431652 
L 758.520065 128.172522 
L 758.779893 122.913391 
L 759.559376 115.024696 
L 759.819203 115.024696 
L 760.079031 112.39513 
L 760.338858 112.39513 
L 760.598686 109.765565 
L 760.858514 109.765565 
L 761.118341 112.39513 
L 761.378169 112.39513 
L 761.637996 115.024696 
L 761.897824 115.024696 
L 762.157651 117.654261 
L 762.417479 122.913391 
L 762.677307 125.542957 
L 762.937134 130.802087 
L 763.196962 133.431652 
L 764.236272 154.468174 
L 764.4961 157.097739 
L 764.755927 162.35687 
L 765.53541 170.245565 
L 765.795237 170.245565 
L 766.055065 172.87513 
L 766.314893 172.87513 
L 766.57472 170.245565 
L 766.834548 170.245565 
L 767.094375 167.616 
L 767.354203 167.616 
L 769.692651 143.949913 
L 769.952478 143.949913 
L 770.991789 133.431652 
L 771.251616 133.431652 
L 772.290927 122.913391 
L 772.550754 122.913391 
L 773.070409 117.654261 
L 773.330237 117.654261 
L 773.590064 115.024696 
L 773.849892 115.024696 
L 774.10972 117.654261 
L 774.369547 117.654261 
L 774.629375 120.283826 
L 774.889202 120.283826 
L 775.14903 125.542957 
L 775.668685 130.802087 
L 775.928512 136.061217 
L 776.18834 138.690783 
L 776.448168 143.949913 
L 776.707995 146.579478 
L 776.967823 151.838609 
L 777.487478 157.097739 
L 777.747305 162.35687 
L 778.007133 164.986435 
L 778.266961 164.986435 
L 778.526788 167.616 
L 779.566098 167.616 
L 780.085754 162.35687 
L 780.605409 162.35687 
L 781.904547 149.209043 
L 782.164374 143.949913 
L 782.424202 141.320348 
L 782.684029 136.061217 
L 782.943857 133.431652 
L 783.203684 128.172522 
L 783.72334 122.913391 
L 783.983167 117.654261 
L 784.76265 109.765565 
L 785.022477 109.765565 
L 785.282305 107.136 
L 786.061788 107.136 
L 786.321615 109.765565 
L 786.581443 109.765565 
L 787.880581 122.913391 
L 788.140408 128.172522 
L 788.400236 130.802087 
L 788.660063 136.061217 
L 790.219029 151.838609 
L 790.478856 151.838609 
L 790.738684 154.468174 
L 792.817304 154.468174 
L 793.077132 151.838609 
L 793.33696 151.838609 
L 794.37627 141.320348 
L 794.636097 141.320348 
L 794.895925 138.690783 
L 795.155752 138.690783 
L 796.974545 120.283826 
L 796.974545 120.283826 
" clip-path="url(#peb78eddbb8)" style="fill: none; stroke: #1f77b4; stroke-width: 1.5; stroke-linecap: square"/>
    <defs>
     <path id="mf115d488cf" d="M 0 1.5 
C 0.397805 1.5 0.77937 1.341951 1.06066 1.06066 
C 1.341951 0.77937 1.5 0.397805 1.5 0 
C 1.5 -0.397805 1.341951 -0.77937 1.06066 -1.06066 
C 0.77937 -1.341951 0.397805 -1.5 0 -1.5 
C -0.397805 -1.5 -0.77937 -1.341951 -1.06066 -1.06066 
C -1.341951 -0.77937 -1.5 -0.397805 -1.5 0 
C -1.5 0.397805 -1.341951 0.77937 -1.06066 1.06066 
C -0.77937 1.341951 -0.397805 1.5 0 1.5 
z
" style="stroke: #1f77b4"/>
    </defs>
    <g clip-path="url(#peb78eddbb8)">
     <use xlink:href="#mf115d488cf" x="147.665455" y="235.984696" style="fill: #1f77b4; stroke: #1f77b4"/>
     <use xlink:href="#mf115d488cf" x="150.26373" y="251.762087" style="fill: #1f77b4; stroke: #1f77b4"/>
     <use xlink:href="#mf115d488cf" x="152.862006" y="199.170783" style="fill: #1f77b4; stroke: #1f77b4"/>
     <use xlink:href="#mf115d488cf" x="155.460282" y="167.616" style="fill: #1f77b4; stroke: #1f77b4"/>
     <use xlink:href="#mf115d488cf" x="158.058557" y="201.800348" style="fill: #1f77b4; stroke: #1f77b4"/>
     <use xlink:href="#mf115d488cf" x="160.656833" y="246.502957" style="fill: #1f77b4; stroke: #1f77b4"/>
     <use xlink:href="#mf115d488cf" x="163.255109" y="228.096" style="fill: #1f77b4; stroke: #1f77b4"/>
     <use xlink:href="#mf115d488cf" x="165.853384" y="175.504696" style="fill: #1f77b4; stroke: #1f77b4"/>
     <use xlink:href="#mf115d488cf" x="168.45166" y="157.097739" style="fill: #1f77b4; stroke: #1f77b4"/>
     <use xlink:href="#mf115d488cf" x="171.049936" y="191.282087" style="fill: #1f77b4; stroke: #1f77b4"/>
     <use xlink:href="#mf115d488cf" x="173.648211" y="249.132522" style="fill: #1f77b4; stroke: #1f77b4"/>
     <use xlink:href="#mf115d488cf" x="176.246487" y="228.096" style="fill: #1f77b4; stroke: #1f77b4"/>
     <use xlink:href="#mf115d488cf" x="178.844763" y="172.87513" style="fill: #1f77b4; stroke: #1f77b4"/>
     <use xlink:href="#mf115d488cf" x="181.443038" y="154.468174" style="fill: #1f77b4; stroke: #1f77b4"/>
     <use xlink:href="#mf115d488cf" x="184.041314" y="193.911652" style="fill: #1f77b4; stroke: #1f77b4"/>
     <use xlink:href="#mf115d488cf" x="186.63959" y="243.873391" style="fill: #1f77b4; stroke: #1f77b4"/>
     <use xlink:href="#mf115d488cf" x="189.237865" y="207.059478" style="fill: #1f77b4; stroke: #1f77b4"/>
     <use xlink:href="#mf115d488cf" x="191.836141" y="159.727304" style="fill: #1f77b4; stroke: #1f77b4"/>
     <use xlink:href="#mf115d488cf" x="194.434417" y="149.209043" style="fill: #1f77b4; stroke: #1f77b4"/>
     <use xlink:href="#mf115d488cf" x="197.032692" y="199.170783" style="fill: #1f77b4; stroke: #1f77b4"/>
     <use xlink:href="#mf115d488cf" x="199.630968" y="228.096" style="fill: #1f77b4; stroke: #1f77b4"/>
     <use xlink:href="#mf115d488cf" x="202.229244" y="183.393391" style="fill: #1f77b4; stroke: #1f77b4"/>
     <use xlink:href="#mf115d488cf" x="204.827519" y="143.949913" style="fill: #1f77b4; stroke: #1f77b4"/>
     <use xlink:href="#mf115d488cf" x="207.425795" y="138.690783" style="fill: #1f77b4; stroke: #1f77b4"/>
     <use xlink:href="#mf115d488cf" x="210.024071" y="188.652522" style="fill: #1f77b4; stroke: #1f77b4"/>
     <use xlink:href="#mf115d488cf" x="212.622346" y="214.948174" style="fill: #1f77b4; stroke: #1f77b4"/>
     <use xlink:href="#mf115d488cf" x="215.220622" y="180.763826" style="fill: #1f77b4; stroke: #1f77b4"/>
     <use xlink:href="#mf115d488cf" x="217.818898" y="141.320348" style="fill: #1f77b4; stroke: #1f77b4"/>
     <use xlink:href="#mf115d488cf" x="220.417173" y="141.320348" style="fill: #1f77b4; stroke: #1f77b4"/>
     <use xlink:href="#mf115d488cf" x="223.015449" y="186.022957" style="fill: #1f77b4; stroke: #1f77b4"/>
     <use xlink:href="#mf115d488cf" x="225.613725" y="193.911652" style="fill: #1f77b4; stroke: #1f77b4"/>
     <use xlink:href="#mf115d488cf" x="228.212" y="164.986435" style="fill: #1f77b4; stroke: #1f77b4"/>
     <use xlink:href="#mf115d488cf" x="230.810276" y="141.320348" style="fill: #1f77b4; stroke: #1f77b4"/>
     <use xlink:href="#mf115d488cf" x="233.408552" y="154.468174" style="fill: #1f77b4; stroke: #1f77b4"/>
     <use xlink:href="#mf115d488cf" x="236.006827" y="188.652522" style="fill: #1f77b4; stroke: #1f77b4"/>
     <use xlink:href="#mf115d488cf" x="238.605103" y="183.393391" style="fill: #1f77b4; stroke: #1f77b4"/>
     <use xlink:href="#mf115d488cf" x="241.203379" y="167.616" style="fill: #1f77b4; stroke: #1f77b4"/>
     <use xlink:href="#mf115d488cf" x="243.801654" y="146.579478" style="fill: #1f77b4; stroke: #1f77b4"/>
     <use xlink:href="#mf115d488cf" x="246.39993" y="170.245565" style="fill: #1f77b4; stroke: #1f77b4"/>
     <use xlink:href="#mf115d488cf" x="248.998206" y="180.763826" style="fill: #1f77b4; stroke: #1f77b4"/>
     <use xlink:href="#mf115d488cf" x="251.596482" y="162.35687" style="fill: #1f77b4; stroke: #1f77b4"/>
     <use xlink:href="#mf115d488cf" x="254.194757" y="149.209043" style="fill: #1f77b4; stroke: #1f77b4"/>
     <use xlink:href="#mf115d488cf" x="256.793033" y="143.949913" style="fill: #1f77b4; stroke: #1f77b4"/>
     <use xlink:href="#mf115d488cf" x="259.391309" y="162.35687" style="fill: #1f77b4; stroke: #1f77b4"/>
     <use xlink:href="#mf115d488cf" x="261.989584" y="170.245565" style="fill: #1f77b4; stroke: #1f77b4"/>
     <use xlink:href="#mf115d488cf" x="264.58786" y="159.727304" style="fill: #1f77b4; stroke: #1f77b4"/>
     <use xlink:href="#mf115d488cf" x="267.186136" y="151.838609" style="fill: #1f77b4; stroke: #1f77b4"/>
     <use xlink:href="#mf115d488cf" x="269.784411" y="154.468174" style="fill: #1f77b4; stroke: #1f77b4"/>
     <use xlink:href="#mf115d488cf" x="272.382687" y="178.134261" style="fill: #1f77b4; stroke: #1f77b4"/>
     <use xlink:href="#mf115d488cf" x="274.980963" y="178.134261" style="fill: #1f77b4; stroke: #1f77b4"/>
     <use xlink:href="#mf115d488cf" x="277.579238" y="167.616" style="fill: #1f77b4; stroke: #1f77b4"/>
     <use xlink:href="#mf115d488cf" x="280.177514" y="154.468174" style="fill: #1f77b4; stroke: #1f77b4"/>
     <use xlink:href="#mf115d488cf" x="282.77579" y="159.727304" style="fill: #1f77b4; stroke: #1f77b4"/>
     <use xlink:href="#mf115d488cf" x="285.374065" y="154.468174" style="fill: #1f77b4; stroke: #1f77b4"/>
     <use xlink:href="#mf115d488cf" x="287.972341" y="143.949913" style="fill: #1f77b4; stroke: #1f77b4"/>
     <use xlink:href="#mf115d488cf" x="290.570617" y="151.838609" style="fill: #1f77b4; stroke: #1f77b4"/>
     <use xlink:href="#mf115d488cf" x="293.168892" y="151.838609" style="fill: #1f77b4; stroke: #1f77b4"/>
     <use xlink:href="#mf115d488cf" x="295.767168" y="157.097739" style="fill: #1f77b4; stroke: #1f77b4"/>
     <use xlink:href="#mf115d488cf" x="298.365444" y="149.209043" style="fill: #1f77b4; stroke: #1f77b4"/>
     <use xlink:href="#mf115d488cf" x="300.963719" y="138.690783" style="fill: #1f77b4; stroke: #1f77b4"/>
     <use xlink:href="#mf115d488cf" x="303.561995" y="146.579478" style="fill: #1f77b4; stroke: #1f77b4"/>
     <use xlink:href="#mf115d488cf" x="306.160271" y="151.838609" style="fill: #1f77b4; stroke: #1f77b4"/>
     <use xlink:href="#mf115d488cf" x="308.758546" y="149.209043" style="fill: #1f77b4; stroke: #1f77b4"/>
     <use xlink:href="#mf115d488cf" x="311.356822" y="133.431652" style="fill: #1f77b4; stroke: #1f77b4"/>
     <use xlink:href="#mf115d488cf" x="313.955098" y="130.802087" style="fill: #1f77b4; stroke: #1f77b4"/>
     <use xlink:href="#mf115d488cf" x="316.553373" y="157.097739" style="fill: #1f77b4; stroke: #1f77b4"/>
     <use xlink:href="#mf115d488cf" x="319.151649" y="170.245565" style="fill: #1f77b4; stroke: #1f77b4"/>
     <use xlink:href="#mf115d488cf" x="321.749925" y="146.579478" style="fill: #1f77b4; stroke: #1f77b4"/>
     <use xlink:href="#mf115d488cf" x="324.3482" y="141.320348" style="fill: #1f77b4; stroke: #1f77b4"/>
     <use xlink:href="#mf115d488cf" x="326.946476" y="235.984696" style="fill: #1f77b4; stroke: #1f77b4"/>
     <use xlink:href="#mf115d488cf" x="329.544752" y="362.203826" style="fill: #1f77b4; stroke: #1f77b4"/>
     <use xlink:href="#mf115d488cf" x="332.143027" y="443.720348" style="fill: #1f77b4; stroke: #1f77b4"/>
     <use xlink:href="#mf115d488cf" x="334.741303" y="388.499478" style="fill: #1f77b4; stroke: #1f77b4"/>
     <use xlink:href="#mf115d488cf" x="337.339579" y="354.31513" style="fill: #1f77b4; stroke: #1f77b4"/>
     <use xlink:href="#mf115d488cf" x="339.937854" y="364.833391" style="fill: #1f77b4; stroke: #1f77b4"/>
     <use xlink:href="#mf115d488cf" x="342.53613" y="433.202087" style="fill: #1f77b4; stroke: #1f77b4"/>
     <use xlink:href="#mf115d488cf" x="345.134406" y="496.311652" style="fill: #1f77b4; stroke: #1f77b4"/>
     <use xlink:href="#mf115d488cf" x="347.732681" y="506.829913" style="fill: #1f77b4; stroke: #1f77b4"/>
     <use xlink:href="#mf115d488cf" x="350.330957" y="496.311652" style="fill: #1f77b4; stroke: #1f77b4"/>
     <use xlink:href="#mf115d488cf" x="352.929233" y="585.71687" style="fill: #1f77b4; stroke: #1f77b4"/>
     <use xlink:href="#mf115d488cf" x="355.527508" y="590.976" style="fill: #1f77b4; stroke: #1f77b4"/>
     <use xlink:href="#mf115d488cf" x="358.125784" y="590.976" style="fill: #1f77b4; stroke: #1f77b4"/>
     <use xlink:href="#mf115d488cf" x="360.72406" y="575.198609" style="fill: #1f77b4; stroke: #1f77b4"/>
     <use xlink:href="#mf115d488cf" x="363.322335" y="546.273391" style="fill: #1f77b4; stroke: #1f77b4"/>
     <use xlink:href="#mf115d488cf" x="365.920611" y="583.087304" style="fill: #1f77b4; stroke: #1f77b4"/>
     <use xlink:href="#mf115d488cf" x="368.518887" y="590.976" style="fill: #1f77b4; stroke: #1f77b4"/>
     <use xlink:href="#mf115d488cf" x="371.117163" y="590.976" style="fill: #1f77b4; stroke: #1f77b4"/>
     <use xlink:href="#mf115d488cf" x="373.715438" y="530.496" style="fill: #1f77b4; stroke: #1f77b4"/>
     <use xlink:href="#mf115d488cf" x="376.313714" y="514.718609" style="fill: #1f77b4; stroke: #1f77b4"/>
     <use xlink:href="#mf115d488cf" x="378.91199" y="538.384696" style="fill: #1f77b4; stroke: #1f77b4"/>
     <use xlink:href="#mf115d488cf" x="381.510265" y="567.309913" style="fill: #1f77b4; stroke: #1f77b4"/>
     <use xlink:href="#mf115d488cf" x="384.108541" y="538.384696" style="fill: #1f77b4; stroke: #1f77b4"/>
     <use xlink:href="#mf115d488cf" x="386.706817" y="480.534261" style="fill: #1f77b4; stroke: #1f77b4"/>
     <use xlink:href="#mf115d488cf" x="389.305092" y="475.27513" style="fill: #1f77b4; stroke: #1f77b4"/>
     <use xlink:href="#mf115d488cf" x="391.903368" y="514.718609" style="fill: #1f77b4; stroke: #1f77b4"/>
     <use xlink:href="#mf115d488cf" x="394.501644" y="525.23687" style="fill: #1f77b4; stroke: #1f77b4"/>
     <use xlink:href="#mf115d488cf" x="397.099919" y="491.052522" style="fill: #1f77b4; stroke: #1f77b4"/>
     <use xlink:href="#mf115d488cf" x="399.698195" y="441.090783" style="fill: #1f77b4; stroke: #1f77b4"/>
     <use xlink:href="#mf115d488cf" x="402.296471" y="443.720348" style="fill: #1f77b4; stroke: #1f77b4"/>
     <use xlink:href="#mf115d488cf" x="404.894746" y="472.645565" style="fill: #1f77b4; stroke: #1f77b4"/>
     <use xlink:href="#mf115d488cf" x="407.493022" y="488.422957" style="fill: #1f77b4; stroke: #1f77b4"/>
     <use xlink:href="#mf115d488cf" x="410.091298" y="456.868174" style="fill: #1f77b4; stroke: #1f77b4"/>
     <use xlink:href="#mf115d488cf" x="412.689573" y="422.683826" style="fill: #1f77b4; stroke: #1f77b4"/>
     <use xlink:href="#mf115d488cf" x="415.287849" y="435.831652" style="fill: #1f77b4; stroke: #1f77b4"/>
     <use xlink:href="#mf115d488cf" x="417.886125" y="446.349913" style="fill: #1f77b4; stroke: #1f77b4"/>
     <use xlink:href="#mf115d488cf" x="420.4844" y="451.609043" style="fill: #1f77b4; stroke: #1f77b4"/>
     <use xlink:href="#mf115d488cf" x="423.082676" y="401.647304" style="fill: #1f77b4; stroke: #1f77b4"/>
     <use xlink:href="#mf115d488cf" x="425.680952" y="377.981217" style="fill: #1f77b4; stroke: #1f77b4"/>
     <use xlink:href="#mf115d488cf" x="428.279227" y="399.017739" style="fill: #1f77b4; stroke: #1f77b4"/>
     <use xlink:href="#mf115d488cf" x="430.877503" y="417.424696" style="fill: #1f77b4; stroke: #1f77b4"/>
     <use xlink:href="#mf115d488cf" x="433.475779" y="412.165565" style="fill: #1f77b4; stroke: #1f77b4"/>
     <use xlink:href="#mf115d488cf" x="436.074054" y="375.351652" style="fill: #1f77b4; stroke: #1f77b4"/>
     <use xlink:href="#mf115d488cf" x="438.67233" y="367.462957" style="fill: #1f77b4; stroke: #1f77b4"/>
     <use xlink:href="#mf115d488cf" x="441.270606" y="388.499478" style="fill: #1f77b4; stroke: #1f77b4"/>
     <use xlink:href="#mf115d488cf" x="443.868881" y="399.017739" style="fill: #1f77b4; stroke: #1f77b4"/>
     <use xlink:href="#mf115d488cf" x="446.467157" y="385.869913" style="fill: #1f77b4; stroke: #1f77b4"/>
     <use xlink:href="#mf115d488cf" x="449.065433" y="354.31513" style="fill: #1f77b4; stroke: #1f77b4"/>
     <use xlink:href="#mf115d488cf" x="451.663708" y="351.685565" style="fill: #1f77b4; stroke: #1f77b4"/>
     <use xlink:href="#mf115d488cf" x="454.261984" y="372.722087" style="fill: #1f77b4; stroke: #1f77b4"/>
     <use xlink:href="#mf115d488cf" x="456.86026" y="362.203826" style="fill: #1f77b4; stroke: #1f77b4"/>
     <use xlink:href="#mf115d488cf" x="459.458535" y="341.167304" style="fill: #1f77b4; stroke: #1f77b4"/>
     <use xlink:href="#mf115d488cf" x="462.056811" y="322.760348" style="fill: #1f77b4; stroke: #1f77b4"/>
     <use xlink:href="#mf115d488cf" x="464.655087" y="325.389913" style="fill: #1f77b4; stroke: #1f77b4"/>
     <use xlink:href="#mf115d488cf" x="467.253362" y="343.79687" style="fill: #1f77b4; stroke: #1f77b4"/>
     <use xlink:href="#mf115d488cf" x="469.851638" y="349.056" style="fill: #1f77b4; stroke: #1f77b4"/>
     <use xlink:href="#mf115d488cf" x="472.449914" y="320.130783" style="fill: #1f77b4; stroke: #1f77b4"/>
     <use xlink:href="#mf115d488cf" x="475.048189" y="304.353391" style="fill: #1f77b4; stroke: #1f77b4"/>
     <use xlink:href="#mf115d488cf" x="477.646465" y="320.130783" style="fill: #1f77b4; stroke: #1f77b4"/>
     <use xlink:href="#mf115d488cf" x="480.244741" y="330.649043" style="fill: #1f77b4; stroke: #1f77b4"/>
     <use xlink:href="#mf115d488cf" x="482.843016" y="312.242087" style="fill: #1f77b4; stroke: #1f77b4"/>
     <use xlink:href="#mf115d488cf" x="485.441292" y="288.576" style="fill: #1f77b4; stroke: #1f77b4"/>
     <use xlink:href="#mf115d488cf" x="488.039568" y="299.094261" style="fill: #1f77b4; stroke: #1f77b4"/>
     <use xlink:href="#mf115d488cf" x="490.637844" y="312.242087" style="fill: #1f77b4; stroke: #1f77b4"/>
     <use xlink:href="#mf115d488cf" x="493.236119" y="317.501217" style="fill: #1f77b4; stroke: #1f77b4"/>
     <use xlink:href="#mf115d488cf" x="495.834395" y="291.205565" style="fill: #1f77b4; stroke: #1f77b4"/>
     <use xlink:href="#mf115d488cf" x="498.432671" y="278.057739" style="fill: #1f77b4; stroke: #1f77b4"/>
     <use xlink:href="#mf115d488cf" x="501.030946" y="288.576" style="fill: #1f77b4; stroke: #1f77b4"/>
     <use xlink:href="#mf115d488cf" x="503.629222" y="296.464696" style="fill: #1f77b4; stroke: #1f77b4"/>
     <use xlink:href="#mf115d488cf" x="506.227498" y="296.464696" style="fill: #1f77b4; stroke: #1f77b4"/>
     <use xlink:href="#mf115d488cf" x="508.825773" y="270.169043" style="fill: #1f77b4; stroke: #1f77b4"/>
     <use xlink:href="#mf115d488cf" x="511.424049" y="267.539478" style="fill: #1f77b4; stroke: #1f77b4"/>
     <use xlink:href="#mf115d488cf" x="514.022325" y="278.057739" style="fill: #1f77b4; stroke: #1f77b4"/>
     <use xlink:href="#mf115d488cf" x="516.6206" y="280.687304" style="fill: #1f77b4; stroke: #1f77b4"/>
     <use xlink:href="#mf115d488cf" x="519.218876" y="280.687304" style="fill: #1f77b4; stroke: #1f77b4"/>
     <use xlink:href="#mf115d488cf" x="521.817152" y="262.280348" style="fill: #1f77b4; stroke: #1f77b4"/>
     <use xlink:href="#mf115d488cf" x="524.415427" y="264.909913" style="fill: #1f77b4; stroke: #1f77b4"/>
     <use xlink:href="#mf115d488cf" x="527.013703" y="270.169043" style="fill: #1f77b4; stroke: #1f77b4"/>
     <use xlink:href="#mf115d488cf" x="529.611979" y="275.428174" style="fill: #1f77b4; stroke: #1f77b4"/>
     <use xlink:href="#mf115d488cf" x="532.210254" y="264.909913" style="fill: #1f77b4; stroke: #1f77b4"/>
     <use xlink:href="#mf115d488cf" x="534.80853" y="246.502957" style="fill: #1f77b4; stroke: #1f77b4"/>
     <use xlink:href="#mf115d488cf" x="537.406806" y="257.021217" style="fill: #1f77b4; stroke: #1f77b4"/>
     <use xlink:href="#mf115d488cf" x="540.005081" y="257.021217" style="fill: #1f77b4; stroke: #1f77b4"/>
     <use xlink:href="#mf115d488cf" x="542.603357" y="243.873391" style="fill: #1f77b4; stroke: #1f77b4"/>
     <use xlink:href="#mf115d488cf" x="545.201633" y="222.83687" style="fill: #1f77b4; stroke: #1f77b4"/>
     <use xlink:href="#mf115d488cf" x="547.799908" y="222.83687" style="fill: #1f77b4; stroke: #1f77b4"/>
     <use xlink:href="#mf115d488cf" x="550.398184" y="238.614261" style="fill: #1f77b4; stroke: #1f77b4"/>
     <use xlink:href="#mf115d488cf" x="552.99646" y="243.873391" style="fill: #1f77b4; stroke: #1f77b4"/>
     <use xlink:href="#mf115d488cf" x="555.594735" y="228.096" style="fill: #1f77b4; stroke: #1f77b4"/>
     <use xlink:href="#mf115d488cf" x="558.193011" y="217.577739" style="fill: #1f77b4; stroke: #1f77b4"/>
     <use xlink:href="#mf115d488cf" x="560.791287" y="230.725565" style="fill: #1f77b4; stroke: #1f77b4"/>
     <use xlink:href="#mf115d488cf" x="563.389562" y="241.243826" style="fill: #1f77b4; stroke: #1f77b4"/>
     <use xlink:href="#mf115d488cf" x="565.987838" y="241.243826" style="fill: #1f77b4; stroke: #1f77b4"/>
     <use xlink:href="#mf115d488cf" x="568.586114" y="209.689043" style="fill: #1f77b4; stroke: #1f77b4"/>
     <use xlink:href="#mf115d488cf" x="571.184389" y="201.800348" style="fill: #1f77b4; stroke: #1f77b4"/>
     <use xlink:href="#mf115d488cf" x="573.782665" y="222.83687" style="fill: #1f77b4; stroke: #1f77b4"/>
     <use xlink:href="#mf115d488cf" x="576.380941" y="246.502957" style="fill: #1f77b4; stroke: #1f77b4"/>
     <use xlink:href="#mf115d488cf" x="578.979216" y="235.984696" style="fill: #1f77b4; stroke: #1f77b4"/>
     <use xlink:href="#mf115d488cf" x="581.577492" y="196.541217" style="fill: #1f77b4; stroke: #1f77b4"/>
     <use xlink:href="#mf115d488cf" x="584.175768" y="175.504696" style="fill: #1f77b4; stroke: #1f77b4"/>
     <use xlink:href="#mf115d488cf" x="586.774043" y="204.429913" style="fill: #1f77b4; stroke: #1f77b4"/>
     <use xlink:href="#mf115d488cf" x="589.372319" y="249.132522" style="fill: #1f77b4; stroke: #1f77b4"/>
     <use xlink:href="#mf115d488cf" x="591.970595" y="235.984696" style="fill: #1f77b4; stroke: #1f77b4"/>
     <use xlink:href="#mf115d488cf" x="594.56887" y="180.763826" style="fill: #1f77b4; stroke: #1f77b4"/>
     <use xlink:href="#mf115d488cf" x="597.167146" y="159.727304" style="fill: #1f77b4; stroke: #1f77b4"/>
     <use xlink:href="#mf115d488cf" x="599.765422" y="204.429913" style="fill: #1f77b4; stroke: #1f77b4"/>
     <use xlink:href="#mf115d488cf" x="602.363697" y="249.132522" style="fill: #1f77b4; stroke: #1f77b4"/>
     <use xlink:href="#mf115d488cf" x="604.961973" y="225.466435" style="fill: #1f77b4; stroke: #1f77b4"/>
     <use xlink:href="#mf115d488cf" x="607.560249" y="157.097739" style="fill: #1f77b4; stroke: #1f77b4"/>
     <use xlink:href="#mf115d488cf" x="610.158525" y="154.468174" style="fill: #1f77b4; stroke: #1f77b4"/>
     <use xlink:href="#mf115d488cf" x="612.7568" y="196.541217" style="fill: #1f77b4; stroke: #1f77b4"/>
     <use xlink:href="#mf115d488cf" x="615.355076" y="238.614261" style="fill: #1f77b4; stroke: #1f77b4"/>
     <use xlink:href="#mf115d488cf" x="617.953352" y="217.577739" style="fill: #1f77b4; stroke: #1f77b4"/>
     <use xlink:href="#mf115d488cf" x="620.551627" y="162.35687" style="fill: #1f77b4; stroke: #1f77b4"/>
     <use xlink:href="#mf115d488cf" x="623.149903" y="146.579478" style="fill: #1f77b4; stroke: #1f77b4"/>
     <use xlink:href="#mf115d488cf" x="625.748179" y="191.282087" style="fill: #1f77b4; stroke: #1f77b4"/>
     <use xlink:href="#mf115d488cf" x="628.346454" y="225.466435" style="fill: #1f77b4; stroke: #1f77b4"/>
     <use xlink:href="#mf115d488cf" x="630.94473" y="199.170783" style="fill: #1f77b4; stroke: #1f77b4"/>
     <use xlink:href="#mf115d488cf" x="633.543006" y="151.838609" style="fill: #1f77b4; stroke: #1f77b4"/>
     <use xlink:href="#mf115d488cf" x="636.141281" y="149.209043" style="fill: #1f77b4; stroke: #1f77b4"/>
     <use xlink:href="#mf115d488cf" x="638.739557" y="186.022957" style="fill: #1f77b4; stroke: #1f77b4"/>
     <use xlink:href="#mf115d488cf" x="641.337833" y="225.466435" style="fill: #1f77b4; stroke: #1f77b4"/>
     <use xlink:href="#mf115d488cf" x="643.936108" y="196.541217" style="fill: #1f77b4; stroke: #1f77b4"/>
     <use xlink:href="#mf115d488cf" x="646.534384" y="138.690783" style="fill: #1f77b4; stroke: #1f77b4"/>
     <use xlink:href="#mf115d488cf" x="649.13266" y="141.320348" style="fill: #1f77b4; stroke: #1f77b4"/>
     <use xlink:href="#mf115d488cf" x="651.730935" y="186.022957" style="fill: #1f77b4; stroke: #1f77b4"/>
     <use xlink:href="#mf115d488cf" x="654.329211" y="209.689043" style="fill: #1f77b4; stroke: #1f77b4"/>
     <use xlink:href="#mf115d488cf" x="656.927487" y="180.763826" style="fill: #1f77b4; stroke: #1f77b4"/>
     <use xlink:href="#mf115d488cf" x="659.525762" y="133.431652" style="fill: #1f77b4; stroke: #1f77b4"/>
     <use xlink:href="#mf115d488cf" x="662.124038" y="149.209043" style="fill: #1f77b4; stroke: #1f77b4"/>
     <use xlink:href="#mf115d488cf" x="664.722314" y="191.282087" style="fill: #1f77b4; stroke: #1f77b4"/>
     <use xlink:href="#mf115d488cf" x="667.320589" y="209.689043" style="fill: #1f77b4; stroke: #1f77b4"/>
     <use xlink:href="#mf115d488cf" x="669.918865" y="175.504696" style="fill: #1f77b4; stroke: #1f77b4"/>
     <use xlink:href="#mf115d488cf" x="672.517141" y="141.320348" style="fill: #1f77b4; stroke: #1f77b4"/>
     <use xlink:href="#mf115d488cf" x="675.115416" y="151.838609" style="fill: #1f77b4; stroke: #1f77b4"/>
     <use xlink:href="#mf115d488cf" x="677.713692" y="188.652522" style="fill: #1f77b4; stroke: #1f77b4"/>
     <use xlink:href="#mf115d488cf" x="680.311968" y="196.541217" style="fill: #1f77b4; stroke: #1f77b4"/>
     <use xlink:href="#mf115d488cf" x="682.910243" y="167.616" style="fill: #1f77b4; stroke: #1f77b4"/>
     <use xlink:href="#mf115d488cf" x="685.508519" y="141.320348" style="fill: #1f77b4; stroke: #1f77b4"/>
     <use xlink:href="#mf115d488cf" x="688.106795" y="157.097739" style="fill: #1f77b4; stroke: #1f77b4"/>
     <use xlink:href="#mf115d488cf" x="690.70507" y="180.763826" style="fill: #1f77b4; stroke: #1f77b4"/>
     <use xlink:href="#mf115d488cf" x="693.303346" y="175.504696" style="fill: #1f77b4; stroke: #1f77b4"/>
     <use xlink:href="#mf115d488cf" x="695.901622" y="141.320348" style="fill: #1f77b4; stroke: #1f77b4"/>
     <use xlink:href="#mf115d488cf" x="698.499897" y="125.542957" style="fill: #1f77b4; stroke: #1f77b4"/>
     <use xlink:href="#mf115d488cf" x="701.098173" y="157.097739" style="fill: #1f77b4; stroke: #1f77b4"/>
     <use xlink:href="#mf115d488cf" x="703.696449" y="191.282087" style="fill: #1f77b4; stroke: #1f77b4"/>
     <use xlink:href="#mf115d488cf" x="706.294724" y="175.504696" style="fill: #1f77b4; stroke: #1f77b4"/>
     <use xlink:href="#mf115d488cf" x="708.893" y="136.061217" style="fill: #1f77b4; stroke: #1f77b4"/>
     <use xlink:href="#mf115d488cf" x="711.491276" y="133.431652" style="fill: #1f77b4; stroke: #1f77b4"/>
     <use xlink:href="#mf115d488cf" x="714.089551" y="164.986435" style="fill: #1f77b4; stroke: #1f77b4"/>
     <use xlink:href="#mf115d488cf" x="716.687827" y="186.022957" style="fill: #1f77b4; stroke: #1f77b4"/>
     <use xlink:href="#mf115d488cf" x="719.286103" y="162.35687" style="fill: #1f77b4; stroke: #1f77b4"/>
     <use xlink:href="#mf115d488cf" x="721.884378" y="122.913391" style="fill: #1f77b4; stroke: #1f77b4"/>
     <use xlink:href="#mf115d488cf" x="724.482654" y="128.172522" style="fill: #1f77b4; stroke: #1f77b4"/>
     <use xlink:href="#mf115d488cf" x="727.08093" y="164.986435" style="fill: #1f77b4; stroke: #1f77b4"/>
     <use xlink:href="#mf115d488cf" x="729.679206" y="183.393391" style="fill: #1f77b4; stroke: #1f77b4"/>
     <use xlink:href="#mf115d488cf" x="732.277481" y="151.838609" style="fill: #1f77b4; stroke: #1f77b4"/>
     <use xlink:href="#mf115d488cf" x="734.875757" y="115.024696" style="fill: #1f77b4; stroke: #1f77b4"/>
     <use xlink:href="#mf115d488cf" x="737.474033" y="122.913391" style="fill: #1f77b4; stroke: #1f77b4"/>
     <use xlink:href="#mf115d488cf" x="740.072308" y="170.245565" style="fill: #1f77b4; stroke: #1f77b4"/>
     <use xlink:href="#mf115d488cf" x="742.670584" y="167.616" style="fill: #1f77b4; stroke: #1f77b4"/>
     <use xlink:href="#mf115d488cf" x="745.26886" y="136.061217" style="fill: #1f77b4; stroke: #1f77b4"/>
     <use xlink:href="#mf115d488cf" x="747.867135" y="115.024696" style="fill: #1f77b4; stroke: #1f77b4"/>
     <use xlink:href="#mf115d488cf" x="750.465411" y="130.802087" style="fill: #1f77b4; stroke: #1f77b4"/>
     <use xlink:href="#mf115d488cf" x="753.063687" y="170.245565" style="fill: #1f77b4; stroke: #1f77b4"/>
     <use xlink:href="#mf115d488cf" x="755.661962" y="164.986435" style="fill: #1f77b4; stroke: #1f77b4"/>
     <use xlink:href="#mf115d488cf" x="758.260238" y="130.802087" style="fill: #1f77b4; stroke: #1f77b4"/>
     <use xlink:href="#mf115d488cf" x="760.858514" y="109.765565" style="fill: #1f77b4; stroke: #1f77b4"/>
     <use xlink:href="#mf115d488cf" x="763.456789" y="138.690783" style="fill: #1f77b4; stroke: #1f77b4"/>
     <use xlink:href="#mf115d488cf" x="766.055065" y="172.87513" style="fill: #1f77b4; stroke: #1f77b4"/>
     <use xlink:href="#mf115d488cf" x="768.653341" y="154.468174" style="fill: #1f77b4; stroke: #1f77b4"/>
     <use xlink:href="#mf115d488cf" x="771.251616" y="133.431652" style="fill: #1f77b4; stroke: #1f77b4"/>
     <use xlink:href="#mf115d488cf" x="773.849892" y="115.024696" style="fill: #1f77b4; stroke: #1f77b4"/>
     <use xlink:href="#mf115d488cf" x="776.448168" y="143.949913" style="fill: #1f77b4; stroke: #1f77b4"/>
     <use xlink:href="#mf115d488cf" x="779.046443" y="167.616" style="fill: #1f77b4; stroke: #1f77b4"/>
     <use xlink:href="#mf115d488cf" x="781.644719" y="151.838609" style="fill: #1f77b4; stroke: #1f77b4"/>
     <use xlink:href="#mf115d488cf" x="784.242995" y="115.024696" style="fill: #1f77b4; stroke: #1f77b4"/>
     <use xlink:href="#mf115d488cf" x="786.84127" y="112.39513" style="fill: #1f77b4; stroke: #1f77b4"/>
     <use xlink:href="#mf115d488cf" x="789.439546" y="143.949913" style="fill: #1f77b4; stroke: #1f77b4"/>
     <use xlink:href="#mf115d488cf" x="792.037822" y="154.468174" style="fill: #1f77b4; stroke: #1f77b4"/>
     <use xlink:href="#mf115d488cf" x="794.636097" y="141.320348" style="fill: #1f77b4; stroke: #1f77b4"/>
    </g>
   </g>
   <g id="patch_3">
    <path d="M 115.2 615.168 
L 115.2 82.944 
" style="fill: none; stroke: #000000; stroke-width: 0.8; stroke-linejoin: miter; stroke-linecap: square"/>
   </g>
   <g id="patch_4">
    <path d="M 829.44 615.168 
L 829.44 82.944 
" style="fill: none; stroke: #000000; stroke-width: 0.8; stroke-linejoin: miter; stroke-linecap: square"/>
   </g>
   <g id="patch_5">
    <path d="M 115.2 615.168 
L 829.44 615.168 
" style="fill: none; stroke: #000000; stroke-width: 0.8; stroke-linejoin: miter; stroke-linecap: square"/>
   </g>
   <g id="patch_6">
    <path d="M 115.2 82.944 
L 829.44 82.944 
" style="fill: none; stroke: #000000; stroke-width: 0.8; stroke-linejoin: miter; stroke-linecap: square"/>
   </g>
  </g>
 </g>
 <defs>
  <clipPath id="peb78eddbb8">
   <rect x="115.2" y="82.944" width="714.24" height="532.224"/>
  </clipPath>
 </defs>
</svg>
