<?xml version="1.0" encoding="utf-8" standalone="no"?>
<!DOCTYPE svg PUBLIC "-//W3C//DTD SVG 1.1//EN"
  "http://www.w3.org/Graphics/SVG/1.1/DTD/svg11.dtd">
<svg xmlns:xlink="http://www.w3.org/1999/xlink" width="460.8pt" height="345.6pt" viewBox="0 0 460.8 345.6" xmlns="http://www.w3.org/2000/svg" version="1.1">
 <metadata>
  <rdf:RDF xmlns:dc="http://purl.org/dc/elements/1.1/" xmlns:cc="http://creativecommons.org/ns#" xmlns:rdf="http://www.w3.org/1999/02/22-rdf-syntax-ns#">
   <cc:Work>
    <dc:type rdf:resource="http://purl.org/dc/dcmitype/StillImage"/>
    <dc:date>2023-03-21T18:15:00.969114</dc:date>
    <dc:format>image/svg+xml</dc:format>
    <dc:creator>
     <cc:Agent>
      <dc:title>Matplotlib v3.6.2, https://matplotlib.org/</dc:title>
     </cc:Agent>
    </dc:creator>
   </cc:Work>
  </rdf:RDF>
 </metadata>
 <defs>
  <style type="text/css">*{stroke-linejoin: round; stroke-linecap: butt}</style>
 </defs>
 <g id="figure_1">
  <g id="patch_1">
   <path d="M 0 345.6 
L 460.8 345.6 
L 460.8 0 
L 0 0 
z
" style="fill: #ffffff"/>
  </g>
  <g id="axes_1">
   <g id="patch_2">
    <path d="M 57.6 307.584 
L 414.72 307.584 
L 414.72 41.472 
L 57.6 41.472 
z
" style="fill: #ffffff"/>
   </g>
   <g id="patch_3">
    <path d="M 73.832727 50979.958742 
L 75.930521 50979.958742 
L 75.930521 268.193603 
L 73.832727 268.193603 
z
" clip-path="url(#p2a5bc71905)" style="fill: #ff7f0e"/>
   </g>
   <g id="patch_4">
    <path d="M 107.397426 50979.958742 
L 109.495219 50979.958742 
L 109.495219 277.119243 
L 107.397426 277.119243 
z
" clip-path="url(#p2a5bc71905)" style="fill: #ff7f0e"/>
   </g>
   <g id="patch_5">
    <path d="M 109.262131 50979.958742 
L 111.359925 50979.958742 
L 111.359925 292.377726 
L 109.262131 292.377726 
z
" clip-path="url(#p2a5bc71905)" style="fill: #ff7f0e"/>
   </g>
   <g id="patch_6">
    <path d="M 111.126837 50979.958742 
L 113.22463 50979.958742 
L 113.22463 292.377726 
L 111.126837 292.377726 
z
" clip-path="url(#p2a5bc71905)" style="fill: #ff7f0e"/>
   </g>
   <g id="patch_7">
    <path d="M 112.991542 50979.958742 
L 115.089336 50979.958742 
L 115.089336 277.119243 
L 112.991542 277.119243 
z
" clip-path="url(#p2a5bc71905)" style="fill: #ff7f0e"/>
   </g>
   <g id="patch_8">
    <path d="M 118.585658 50979.958742 
L 120.683452 50979.958742 
L 120.683452 277.119243 
L 118.585658 277.119243 
z
" clip-path="url(#p2a5bc71905)" style="fill: #ff7f0e"/>
   </g>
   <g id="patch_9">
    <path d="M 120.450364 50979.958742 
L 122.548158 50979.958742 
L 122.548158 292.377726 
L 120.450364 292.377726 
z
" clip-path="url(#p2a5bc71905)" style="fill: #ff7f0e"/>
   </g>
   <g id="patch_10">
    <path d="M 122.315069 50979.958742 
L 124.412863 50979.958742 
L 124.412863 292.377726 
L 122.315069 292.377726 
z
" clip-path="url(#p2a5bc71905)" style="fill: #ff7f0e"/>
   </g>
   <g id="patch_11">
    <path d="M 124.179775 50979.958742 
L 126.277569 50979.958742 
L 126.277569 268.193603 
L 124.179775 268.193603 
z
" clip-path="url(#p2a5bc71905)" style="fill: #ff7f0e"/>
   </g>
   <g id="patch_12">
    <path d="M 126.04448 50979.958742 
L 128.142274 50979.958742 
L 128.142274 292.377726 
L 126.04448 292.377726 
z
" clip-path="url(#p2a5bc71905)" style="fill: #ff7f0e"/>
   </g>
   <g id="patch_13">
    <path d="M 127.909186 50979.958742 
L 130.006979 50979.958742 
L 130.006979 277.119243 
L 127.909186 277.119243 
z
" clip-path="url(#p2a5bc71905)" style="fill: #ff7f0e"/>
   </g>
   <g id="patch_14">
    <path d="M 131.638597 50979.958742 
L 133.73639 50979.958742 
L 133.73639 256.948627 
L 131.638597 256.948627 
z
" clip-path="url(#p2a5bc71905)" style="fill: #ff7f0e"/>
   </g>
   <g id="patch_15">
    <path d="M 133.503302 50979.958742 
L 135.601096 50979.958742 
L 135.601096 256.948627 
L 133.503302 256.948627 
z
" clip-path="url(#p2a5bc71905)" style="fill: #ff7f0e"/>
   </g>
   <g id="patch_16">
    <path d="M 135.368008 50979.958742 
L 137.465801 50979.958742 
L 137.465801 256.948627 
L 135.368008 256.948627 
z
" clip-path="url(#p2a5bc71905)" style="fill: #ff7f0e"/>
   </g>
   <g id="patch_17">
    <path d="M 137.232713 50979.958742 
L 139.330507 50979.958742 
L 139.330507 249.54175 
L 137.232713 249.54175 
z
" clip-path="url(#p2a5bc71905)" style="fill: #ff7f0e"/>
   </g>
   <g id="patch_18">
    <path d="M 139.097419 50979.958742 
L 141.195212 50979.958742 
L 141.195212 249.54175 
L 139.097419 249.54175 
z
" clip-path="url(#p2a5bc71905)" style="fill: #ff7f0e"/>
   </g>
   <g id="patch_19">
    <path d="M 140.962124 50979.958742 
L 143.059918 50979.958742 
L 143.059918 268.193603 
L 140.962124 268.193603 
z
" clip-path="url(#p2a5bc71905)" style="fill: #ff7f0e"/>
   </g>
   <g id="patch_20">
    <path d="M 142.82683 50979.958742 
L 144.924623 50979.958742 
L 144.924623 239.59205 
L 142.82683 239.59205 
z
" clip-path="url(#p2a5bc71905)" style="fill: #ff7f0e"/>
   </g>
   <g id="patch_21">
    <path d="M 144.691535 50979.958742 
L 146.789329 50979.958742 
L 146.789329 256.948627 
L 144.691535 256.948627 
z
" clip-path="url(#p2a5bc71905)" style="fill: #ff7f0e"/>
   </g>
   <g id="patch_22">
    <path d="M 146.556241 50979.958742 
L 148.654034 50979.958742 
L 148.654034 246.602279 
L 146.556241 246.602279 
z
" clip-path="url(#p2a5bc71905)" style="fill: #ff7f0e"/>
   </g>
   <g id="patch_23">
    <path d="M 148.420946 50979.958742 
L 150.51874 50979.958742 
L 150.51874 249.54175 
L 148.420946 249.54175 
z
" clip-path="url(#p2a5bc71905)" style="fill: #ff7f0e"/>
   </g>
   <g id="patch_24">
    <path d="M 150.285651 50979.958742 
L 152.383445 50979.958742 
L 152.383445 244.009481 
L 150.285651 244.009481 
z
" clip-path="url(#p2a5bc71905)" style="fill: #ff7f0e"/>
   </g>
   <g id="patch_25">
    <path d="M 152.150357 50979.958742 
L 154.248151 50979.958742 
L 154.248151 239.59205 
L 152.150357 239.59205 
z
" clip-path="url(#p2a5bc71905)" style="fill: #ff7f0e"/>
   </g>
   <g id="patch_26">
    <path d="M 154.015062 50979.958742 
L 156.112856 50979.958742 
L 156.112856 244.009481 
L 154.015062 244.009481 
z
" clip-path="url(#p2a5bc71905)" style="fill: #ff7f0e"/>
   </g>
   <g id="patch_27">
    <path d="M 155.879768 50979.958742 
L 157.977562 50979.958742 
L 157.977562 232.764505 
L 155.879768 232.764505 
z
" clip-path="url(#p2a5bc71905)" style="fill: #ff7f0e"/>
   </g>
   <g id="patch_28">
    <path d="M 157.744473 50979.958742 
L 159.842267 50979.958742 
L 159.842267 256.948627 
L 157.744473 256.948627 
z
" clip-path="url(#p2a5bc71905)" style="fill: #ff7f0e"/>
   </g>
   <g id="patch_29">
    <path d="M 159.609179 50979.958742 
L 161.706972 50979.958742 
L 161.706972 244.009481 
L 159.609179 244.009481 
z
" clip-path="url(#p2a5bc71905)" style="fill: #ff7f0e"/>
   </g>
   <g id="patch_30">
    <path d="M 161.473884 50979.958742 
L 163.571678 50979.958742 
L 163.571678 241.690145 
L 161.473884 241.690145 
z
" clip-path="url(#p2a5bc71905)" style="fill: #ff7f0e"/>
   </g>
   <g id="patch_31">
    <path d="M 163.33859 50979.958742 
L 165.436383 50979.958742 
L 165.436383 246.602279 
L 163.33859 246.602279 
z
" clip-path="url(#p2a5bc71905)" style="fill: #ff7f0e"/>
   </g>
   <g id="patch_32">
    <path d="M 165.203295 50979.958742 
L 167.301089 50979.958742 
L 167.301089 256.948627 
L 165.203295 256.948627 
z
" clip-path="url(#p2a5bc71905)" style="fill: #ff7f0e"/>
   </g>
   <g id="patch_33">
    <path d="M 167.068001 50979.958742 
L 169.165794 50979.958742 
L 169.165794 249.54175 
L 167.068001 249.54175 
z
" clip-path="url(#p2a5bc71905)" style="fill: #ff7f0e"/>
   </g>
   <g id="patch_34">
    <path d="M 168.932706 50979.958742 
L 171.0305 50979.958742 
L 171.0305 252.935121 
L 168.932706 252.935121 
z
" clip-path="url(#p2a5bc71905)" style="fill: #ff7f0e"/>
   </g>
   <g id="patch_35">
    <path d="M 170.797412 50979.958742 
L 172.895205 50979.958742 
L 172.895205 239.59205 
L 170.797412 239.59205 
z
" clip-path="url(#p2a5bc71905)" style="fill: #ff7f0e"/>
   </g>
   <g id="patch_36">
    <path d="M 172.662117 50979.958742 
L 174.759911 50979.958742 
L 174.759911 241.690145 
L 172.662117 241.690145 
z
" clip-path="url(#p2a5bc71905)" style="fill: #ff7f0e"/>
   </g>
   <g id="patch_37">
    <path d="M 174.526823 50979.958742 
L 176.624616 50979.958742 
L 176.624616 239.59205 
L 174.526823 239.59205 
z
" clip-path="url(#p2a5bc71905)" style="fill: #ff7f0e"/>
   </g>
   <g id="patch_38">
    <path d="M 176.391528 50979.958742 
L 178.489322 50979.958742 
L 178.489322 237.676639 
L 176.391528 237.676639 
z
" clip-path="url(#p2a5bc71905)" style="fill: #ff7f0e"/>
   </g>
   <g id="patch_39">
    <path d="M 178.256233 50979.958742 
L 180.354027 50979.958742 
L 180.354027 252.935121 
L 178.256233 252.935121 
z
" clip-path="url(#p2a5bc71905)" style="fill: #ff7f0e"/>
   </g>
   <g id="patch_40">
    <path d="M 180.120939 50979.958742 
L 182.218733 50979.958742 
L 182.218733 256.948627 
L 180.120939 256.948627 
z
" clip-path="url(#p2a5bc71905)" style="fill: #ff7f0e"/>
   </g>
   <g id="patch_41">
    <path d="M 181.985644 50979.958742 
L 184.083438 50979.958742 
L 184.083438 241.690145 
L 181.985644 241.690145 
z
" clip-path="url(#p2a5bc71905)" style="fill: #ff7f0e"/>
   </g>
   <g id="patch_42">
    <path d="M 183.85035 50979.958742 
L 185.948144 50979.958742 
L 185.948144 261.860761 
L 183.85035 261.860761 
z
" clip-path="url(#p2a5bc71905)" style="fill: #ff7f0e"/>
   </g>
   <g id="patch_43">
    <path d="M 185.715055 50979.958742 
L 187.812849 50979.958742 
L 187.812849 241.690145 
L 185.715055 241.690145 
z
" clip-path="url(#p2a5bc71905)" style="fill: #ff7f0e"/>
   </g>
   <g id="patch_44">
    <path d="M 187.579761 50979.958742 
L 189.677554 50979.958742 
L 189.677554 252.935121 
L 187.579761 252.935121 
z
" clip-path="url(#p2a5bc71905)" style="fill: #ff7f0e"/>
   </g>
   <g id="patch_45">
    <path d="M 189.444466 50979.958742 
L 191.54226 50979.958742 
L 191.54226 246.602279 
L 189.444466 246.602279 
z
" clip-path="url(#p2a5bc71905)" style="fill: #ff7f0e"/>
   </g>
   <g id="patch_46">
    <path d="M 191.309172 50979.958742 
L 193.406965 50979.958742 
L 193.406965 256.948627 
L 191.309172 256.948627 
z
" clip-path="url(#p2a5bc71905)" style="fill: #ff7f0e"/>
   </g>
   <g id="patch_47">
    <path d="M 193.173877 50979.958742 
L 195.271671 50979.958742 
L 195.271671 277.119243 
L 193.173877 277.119243 
z
" clip-path="url(#p2a5bc71905)" style="fill: #ff7f0e"/>
   </g>
   <g id="patch_48">
    <path d="M 195.038583 50979.958742 
L 197.136376 50979.958742 
L 197.136376 292.377726 
L 195.038583 292.377726 
z
" clip-path="url(#p2a5bc71905)" style="fill: #ff7f0e"/>
   </g>
   <g id="patch_49">
    <path d="M 196.903288 50979.958742 
L 199.001082 50979.958742 
L 199.001082 256.948627 
L 196.903288 256.948627 
z
" clip-path="url(#p2a5bc71905)" style="fill: #ff7f0e"/>
   </g>
   <g id="patch_50">
    <path d="M 198.767994 50979.958742 
L 200.865787 50979.958742 
L 200.865787 256.948627 
L 198.767994 256.948627 
z
" clip-path="url(#p2a5bc71905)" style="fill: #ff7f0e"/>
   </g>
   <g id="patch_51">
    <path d="M 200.632699 50979.958742 
L 202.730493 50979.958742 
L 202.730493 261.860761 
L 200.632699 261.860761 
z
" clip-path="url(#p2a5bc71905)" style="fill: #ff7f0e"/>
   </g>
   <g id="patch_52">
    <path d="M 202.497405 50979.958742 
L 204.595198 50979.958742 
L 204.595198 292.377726 
L 202.497405 292.377726 
z
" clip-path="url(#p2a5bc71905)" style="fill: #ff7f0e"/>
   </g>
   <g id="patch_53">
    <path d="M 204.36211 50979.958742 
L 206.459904 50979.958742 
L 206.459904 277.119243 
L 204.36211 277.119243 
z
" clip-path="url(#p2a5bc71905)" style="fill: #ff7f0e"/>
   </g>
   <g id="patch_54">
    <path d="M 206.226815 50979.958742 
L 208.324609 50979.958742 
L 208.324609 277.119243 
L 206.226815 277.119243 
z
" clip-path="url(#p2a5bc71905)" style="fill: #ff7f0e"/>
   </g>
   <g id="patch_55">
    <path d="M 208.091521 50979.958742 
L 210.189315 50979.958742 
L 210.189315 292.377726 
L 208.091521 292.377726 
z
" clip-path="url(#p2a5bc71905)" style="fill: #ff7f0e"/>
   </g>
   <g id="patch_56">
    <path d="M 209.956226 50979.958742 
L 212.05402 50979.958742 
L 212.05402 277.119243 
L 209.956226 277.119243 
z
" clip-path="url(#p2a5bc71905)" style="fill: #ff7f0e"/>
   </g>
   <g id="patch_57">
    <path d="M 211.820932 50979.958742 
L 213.918726 50979.958742 
L 213.918726 261.860761 
L 211.820932 261.860761 
z
" clip-path="url(#p2a5bc71905)" style="fill: #ff7f0e"/>
   </g>
   <g id="patch_58">
    <path d="M 213.685637 50979.958742 
L 215.783431 50979.958742 
L 215.783431 268.193603 
L 213.685637 268.193603 
z
" clip-path="url(#p2a5bc71905)" style="fill: #ff7f0e"/>
   </g>
   <g id="patch_59">
    <path d="M 215.550343 50979.958742 
L 217.648136 50979.958742 
L 217.648136 256.948627 
L 215.550343 256.948627 
z
" clip-path="url(#p2a5bc71905)" style="fill: #ff7f0e"/>
   </g>
   <g id="patch_60">
    <path d="M 217.415048 50979.958742 
L 219.512842 50979.958742 
L 219.512842 292.377726 
L 217.415048 292.377726 
z
" clip-path="url(#p2a5bc71905)" style="fill: #ff7f0e"/>
   </g>
   <g id="patch_61">
    <path d="M 219.279754 50979.958742 
L 221.377547 50979.958742 
L 221.377547 268.193603 
L 219.279754 268.193603 
z
" clip-path="url(#p2a5bc71905)" style="fill: #ff7f0e"/>
   </g>
   <g id="patch_62">
    <path d="M 221.144459 50979.958742 
L 223.242253 50979.958742 
L 223.242253 268.193603 
L 221.144459 268.193603 
z
" clip-path="url(#p2a5bc71905)" style="fill: #ff7f0e"/>
   </g>
   <g id="patch_63">
    <path d="M 223.009165 50979.958742 
L 225.106958 50979.958742 
L 225.106958 277.119243 
L 223.009165 277.119243 
z
" clip-path="url(#p2a5bc71905)" style="fill: #ff7f0e"/>
   </g>
   <g id="patch_64">
    <path d="M 224.87387 50979.958742 
L 226.971664 50979.958742 
L 226.971664 256.948627 
L 224.87387 256.948627 
z
" clip-path="url(#p2a5bc71905)" style="fill: #ff7f0e"/>
   </g>
   <g id="patch_65">
    <path d="M 226.738576 50979.958742 
L 228.836369 50979.958742 
L 228.836369 292.377726 
L 226.738576 292.377726 
z
" clip-path="url(#p2a5bc71905)" style="fill: #ff7f0e"/>
   </g>
   <g id="patch_66">
    <path d="M 228.603281 50979.958742 
L 230.701075 50979.958742 
L 230.701075 268.193603 
L 228.603281 268.193603 
z
" clip-path="url(#p2a5bc71905)" style="fill: #ff7f0e"/>
   </g>
   <g id="patch_67">
    <path d="M 232.332692 50979.958742 
L 234.430486 50979.958742 
L 234.430486 252.935121 
L 232.332692 252.935121 
z
" clip-path="url(#p2a5bc71905)" style="fill: #ff7f0e"/>
   </g>
   <g id="patch_68">
    <path d="M 234.197397 50979.958742 
L 236.295191 50979.958742 
L 236.295191 292.377726 
L 234.197397 292.377726 
z
" clip-path="url(#p2a5bc71905)" style="fill: #ff7f0e"/>
   </g>
   <g id="patch_69">
    <path d="M 236.062103 50979.958742 
L 238.159897 50979.958742 
L 238.159897 292.377726 
L 236.062103 292.377726 
z
" clip-path="url(#p2a5bc71905)" style="fill: #ff7f0e"/>
   </g>
   <g id="patch_70">
    <path d="M 237.926808 50979.958742 
L 240.024602 50979.958742 
L 240.024602 268.193603 
L 237.926808 268.193603 
z
" clip-path="url(#p2a5bc71905)" style="fill: #ff7f0e"/>
   </g>
   <g id="patch_71">
    <path d="M 239.791514 50979.958742 
L 241.889308 50979.958742 
L 241.889308 268.193603 
L 239.791514 268.193603 
z
" clip-path="url(#p2a5bc71905)" style="fill: #ff7f0e"/>
   </g>
   <g id="patch_72">
    <path d="M 241.656219 50979.958742 
L 243.754013 50979.958742 
L 243.754013 256.948627 
L 241.656219 256.948627 
z
" clip-path="url(#p2a5bc71905)" style="fill: #ff7f0e"/>
   </g>
   <g id="patch_73">
    <path d="M 243.520925 50979.958742 
L 245.618718 50979.958742 
L 245.618718 268.193603 
L 243.520925 268.193603 
z
" clip-path="url(#p2a5bc71905)" style="fill: #ff7f0e"/>
   </g>
   <g id="patch_74">
    <path d="M 245.38563 50979.958742 
L 247.483424 50979.958742 
L 247.483424 292.377726 
L 245.38563 292.377726 
z
" clip-path="url(#p2a5bc71905)" style="fill: #ff7f0e"/>
   </g>
   <g id="patch_75">
    <path d="M 247.250336 50979.958742 
L 249.348129 50979.958742 
L 249.348129 241.690145 
L 247.250336 241.690145 
z
" clip-path="url(#p2a5bc71905)" style="fill: #ff7f0e"/>
   </g>
   <g id="patch_76">
    <path d="M 249.115041 50979.958742 
L 251.212835 50979.958742 
L 251.212835 268.193603 
L 249.115041 268.193603 
z
" clip-path="url(#p2a5bc71905)" style="fill: #ff7f0e"/>
   </g>
   <g id="patch_77">
    <path d="M 250.979747 50979.958742 
L 253.07754 50979.958742 
L 253.07754 256.948627 
L 250.979747 256.948627 
z
" clip-path="url(#p2a5bc71905)" style="fill: #ff7f0e"/>
   </g>
   <g id="patch_78">
    <path d="M 252.844452 50979.958742 
L 254.942246 50979.958742 
L 254.942246 230.009246 
L 252.844452 230.009246 
z
" clip-path="url(#p2a5bc71905)" style="fill: #ff7f0e"/>
   </g>
   <g id="patch_79">
    <path d="M 254.709158 50979.958742 
L 256.806951 50979.958742 
L 256.806951 256.948627 
L 254.709158 256.948627 
z
" clip-path="url(#p2a5bc71905)" style="fill: #ff7f0e"/>
   </g>
   <g id="patch_80">
    <path d="M 256.573863 50979.958742 
L 258.671657 50979.958742 
L 258.671657 234.283268 
L 256.573863 234.283268 
z
" clip-path="url(#p2a5bc71905)" style="fill: #ff7f0e"/>
   </g>
   <g id="patch_81">
    <path d="M 258.438569 50979.958742 
L 260.536362 50979.958742 
L 260.536362 223.355036 
L 258.438569 223.355036 
z
" clip-path="url(#p2a5bc71905)" style="fill: #ff7f0e"/>
   </g>
   <g id="patch_82">
    <path d="M 260.303274 50979.958742 
L 262.401068 50979.958742 
L 262.401068 227.560799 
L 260.303274 227.560799 
z
" clip-path="url(#p2a5bc71905)" style="fill: #ff7f0e"/>
   </g>
   <g id="patch_83">
    <path d="M 262.16798 50979.958742 
L 264.265773 50979.958742 
L 264.265773 222.418157 
L 262.16798 222.418157 
z
" clip-path="url(#p2a5bc71905)" style="fill: #ff7f0e"/>
   </g>
   <g id="patch_84">
    <path d="M 264.032685 50979.958742 
L 266.130479 50979.958742 
L 266.130479 216.784209 
L 264.032685 216.784209 
z
" clip-path="url(#p2a5bc71905)" style="fill: #ff7f0e"/>
   </g>
   <g id="patch_85">
    <path d="M 265.89739 50979.958742 
L 267.995184 50979.958742 
L 267.995184 224.333567 
L 265.89739 224.333567 
z
" clip-path="url(#p2a5bc71905)" style="fill: #ff7f0e"/>
   </g>
   <g id="patch_86">
    <path d="M 267.762096 50979.958742 
L 269.85989 50979.958742 
L 269.85989 218.252309 
L 267.762096 218.252309 
z
" clip-path="url(#p2a5bc71905)" style="fill: #ff7f0e"/>
   </g>
   <g id="patch_87">
    <path d="M 269.626801 50979.958742 
L 271.724595 50979.958742 
L 271.724595 230.009246 
L 269.626801 230.009246 
z
" clip-path="url(#p2a5bc71905)" style="fill: #ff7f0e"/>
   </g>
   <g id="patch_88">
    <path d="M 271.491507 50979.958742 
L 273.589301 50979.958742 
L 273.589301 216.085314 
L 271.491507 216.085314 
z
" clip-path="url(#p2a5bc71905)" style="fill: #ff7f0e"/>
   </g>
   <g id="patch_89">
    <path d="M 273.356212 50979.958742 
L 275.454006 50979.958742 
L 275.454006 208.580382 
L 273.356212 208.580382 
z
" clip-path="url(#p2a5bc71905)" style="fill: #ff7f0e"/>
   </g>
   <g id="patch_90">
    <path d="M 275.220918 50979.958742 
L 277.318711 50979.958742 
L 277.318711 220.656149 
L 275.220918 220.656149 
z
" clip-path="url(#p2a5bc71905)" style="fill: #ff7f0e"/>
   </g>
   <g id="patch_91">
    <path d="M 277.085623 50979.958742 
L 279.183417 50979.958742 
L 279.183417 216.784209 
L 277.085623 216.784209 
z
" clip-path="url(#p2a5bc71905)" style="fill: #ff7f0e"/>
   </g>
   <g id="patch_92">
    <path d="M 278.950329 50979.958742 
L 281.048122 50979.958742 
L 281.048122 209.075085 
L 278.950329 209.075085 
z
" clip-path="url(#p2a5bc71905)" style="fill: #ff7f0e"/>
   </g>
   <g id="patch_93">
    <path d="M 280.815034 50979.958742 
L 282.912828 50979.958742 
L 282.912828 220.656149 
L 280.815034 220.656149 
z
" clip-path="url(#p2a5bc71905)" style="fill: #ff7f0e"/>
   </g>
   <g id="patch_94">
    <path d="M 282.67974 50979.958742 
L 284.777533 50979.958742 
L 284.777533 221.519528 
L 282.67974 221.519528 
z
" clip-path="url(#p2a5bc71905)" style="fill: #ff7f0e"/>
   </g>
   <g id="patch_95">
    <path d="M 284.544445 50979.958742 
L 286.642239 50979.958742 
L 286.642239 203.766303 
L 284.544445 203.766303 
z
" clip-path="url(#p2a5bc71905)" style="fill: #ff7f0e"/>
   </g>
   <g id="patch_96">
    <path d="M 286.409151 50979.958742 
L 288.506944 50979.958742 
L 288.506944 222.418157 
L 286.409151 222.418157 
z
" clip-path="url(#p2a5bc71905)" style="fill: #ff7f0e"/>
   </g>
   <g id="patch_97">
    <path d="M 288.273856 50979.958742 
L 290.37165 50979.958742 
L 290.37165 210.099146 
L 288.273856 210.099146 
z
" clip-path="url(#p2a5bc71905)" style="fill: #ff7f0e"/>
   </g>
   <g id="patch_98">
    <path d="M 290.138562 50979.958742 
L 292.236355 50979.958742 
L 292.236355 202.993826 
L 290.138562 202.993826 
z
" clip-path="url(#p2a5bc71905)" style="fill: #ff7f0e"/>
   </g>
   <g id="patch_99">
    <path d="M 292.003267 50979.958742 
L 294.101061 50979.958742 
L 294.101061 203.766303 
L 292.003267 203.766303 
z
" clip-path="url(#p2a5bc71905)" style="fill: #ff7f0e"/>
   </g>
   <g id="patch_100">
    <path d="M 293.867972 50979.958742 
L 295.965766 50979.958742 
L 295.965766 199.818411 
L 293.867972 199.818411 
z
" clip-path="url(#p2a5bc71905)" style="fill: #ff7f0e"/>
   </g>
   <g id="patch_101">
    <path d="M 295.732678 50979.958742 
L 297.830472 50979.958742 
L 297.830472 194.580148 
L 295.732678 194.580148 
z
" clip-path="url(#p2a5bc71905)" style="fill: #ff7f0e"/>
   </g>
   <g id="patch_102">
    <path d="M 297.597383 50979.958742 
L 299.695177 50979.958742 
L 299.695177 196.472027 
L 297.597383 196.472027 
z
" clip-path="url(#p2a5bc71905)" style="fill: #ff7f0e"/>
   </g>
   <g id="patch_103">
    <path d="M 299.462089 50979.958742 
L 301.559883 50979.958742 
L 301.559883 193.567862 
L 299.462089 193.567862 
z
" clip-path="url(#p2a5bc71905)" style="fill: #ff7f0e"/>
   </g>
   <g id="patch_104">
    <path d="M 301.326794 50979.958742 
L 303.424588 50979.958742 
L 303.424588 182.671915 
L 301.326794 182.671915 
z
" clip-path="url(#p2a5bc71905)" style="fill: #ff7f0e"/>
   </g>
   <g id="patch_105">
    <path d="M 303.1915 50979.958742 
L 305.289293 50979.958742 
L 305.289293 191.002564 
L 303.1915 191.002564 
z
" clip-path="url(#p2a5bc71905)" style="fill: #ff7f0e"/>
   </g>
   <g id="patch_106">
    <path d="M 305.056205 50979.958742 
L 307.153999 50979.958742 
L 307.153999 188.507821 
L 305.056205 188.507821 
z
" clip-path="url(#p2a5bc71905)" style="fill: #ff7f0e"/>
   </g>
   <g id="patch_107">
    <path d="M 306.920911 50979.958742 
L 309.018704 50979.958742 
L 309.018704 180.933116 
L 306.920911 180.933116 
z
" clip-path="url(#p2a5bc71905)" style="fill: #ff7f0e"/>
   </g>
   <g id="patch_108">
    <path d="M 308.785616 50979.958742 
L 310.88341 50979.958742 
L 310.88341 180.656216 
L 308.785616 180.656216 
z
" clip-path="url(#p2a5bc71905)" style="fill: #ff7f0e"/>
   </g>
   <g id="patch_109">
    <path d="M 310.650322 50979.958742 
L 312.748115 50979.958742 
L 312.748115 183.283436 
L 310.650322 183.283436 
z
" clip-path="url(#p2a5bc71905)" style="fill: #ff7f0e"/>
   </g>
   <g id="patch_110">
    <path d="M 312.515027 50979.958742 
L 314.612821 50979.958742 
L 314.612821 176.989384 
L 312.515027 176.989384 
z
" clip-path="url(#p2a5bc71905)" style="fill: #ff7f0e"/>
   </g>
   <g id="patch_111">
    <path d="M 314.379733 50979.958742 
L 316.477526 50979.958742 
L 316.477526 183.753489 
L 314.379733 183.753489 
z
" clip-path="url(#p2a5bc71905)" style="fill: #ff7f0e"/>
   </g>
   <g id="patch_112">
    <path d="M 316.244438 50979.958742 
L 318.342232 50979.958742 
L 318.342232 178.683553 
L 316.244438 178.683553 
z
" clip-path="url(#p2a5bc71905)" style="fill: #ff7f0e"/>
   </g>
   <g id="patch_113">
    <path d="M 318.109144 50979.958742 
L 320.206937 50979.958742 
L 320.206937 174.56547 
L 318.109144 174.56547 
z
" clip-path="url(#p2a5bc71905)" style="fill: #ff7f0e"/>
   </g>
   <g id="patch_114">
    <path d="M 319.973849 50979.958742 
L 322.071643 50979.958742 
L 322.071643 181.497592 
L 319.973849 181.497592 
z
" clip-path="url(#p2a5bc71905)" style="fill: #ff7f0e"/>
   </g>
   <g id="patch_115">
    <path d="M 321.838554 50979.958742 
L 323.936348 50979.958742 
L 323.936348 174.152062 
L 321.838554 174.152062 
z
" clip-path="url(#p2a5bc71905)" style="fill: #ff7f0e"/>
   </g>
   <g id="patch_116">
    <path d="M 323.70326 50979.958742 
L 325.801054 50979.958742 
L 325.801054 177.22357 
L 323.70326 177.22357 
z
" clip-path="url(#p2a5bc71905)" style="fill: #ff7f0e"/>
   </g>
   <g id="patch_117">
    <path d="M 325.567965 50979.958742 
L 327.665759 50979.958742 
L 327.665759 173.347833 
L 325.567965 173.347833 
z
" clip-path="url(#p2a5bc71905)" style="fill: #ff7f0e"/>
   </g>
   <g id="patch_118">
    <path d="M 327.432671 50979.958742 
L 329.530465 50979.958742 
L 329.530465 165.397733 
L 327.432671 165.397733 
z
" clip-path="url(#p2a5bc71905)" style="fill: #ff7f0e"/>
   </g>
   <g id="patch_119">
    <path d="M 329.297376 50979.958742 
L 331.39517 50979.958742 
L 331.39517 171.36671 
L 329.297376 171.36671 
z
" clip-path="url(#p2a5bc71905)" style="fill: #ff7f0e"/>
   </g>
   <g id="patch_120">
    <path d="M 331.162082 50979.958742 
L 333.259875 50979.958742 
L 333.259875 163.8698 
L 331.162082 163.8698 
z
" clip-path="url(#p2a5bc71905)" style="fill: #ff7f0e"/>
   </g>
   <g id="patch_121">
    <path d="M 333.026787 50979.958742 
L 335.124581 50979.958742 
L 335.124581 153.276153 
L 333.026787 153.276153 
z
" clip-path="url(#p2a5bc71905)" style="fill: #ff7f0e"/>
   </g>
   <g id="patch_122">
    <path d="M 334.891493 50979.958742 
L 336.989286 50979.958742 
L 336.989286 158.188287 
L 334.891493 158.188287 
z
" clip-path="url(#p2a5bc71905)" style="fill: #ff7f0e"/>
   </g>
   <g id="patch_123">
    <path d="M 336.756198 50979.958742 
L 338.853992 50979.958742 
L 338.853992 156.564007 
L 336.756198 156.564007 
z
" clip-path="url(#p2a5bc71905)" style="fill: #ff7f0e"/>
   </g>
   <g id="patch_124">
    <path d="M 338.620904 50979.958742 
L 340.718697 50979.958742 
L 340.718697 147.607687 
L 338.620904 147.607687 
z
" clip-path="url(#p2a5bc71905)" style="fill: #ff7f0e"/>
   </g>
   <g id="patch_125">
    <path d="M 340.485609 50979.958742 
L 342.583403 50979.958742 
L 342.583403 150.277266 
L 340.485609 150.277266 
z
" clip-path="url(#p2a5bc71905)" style="fill: #ff7f0e"/>
   </g>
   <g id="patch_126">
    <path d="M 342.350315 50979.958742 
L 344.448108 50979.958742 
L 344.448108 148.67559 
L 342.350315 148.67559 
z
" clip-path="url(#p2a5bc71905)" style="fill: #ff7f0e"/>
   </g>
   <g id="patch_127">
    <path d="M 344.21502 50979.958742 
L 346.312814 50979.958742 
L 346.312814 139.346024 
L 344.21502 139.346024 
z
" clip-path="url(#p2a5bc71905)" style="fill: #ff7f0e"/>
   </g>
   <g id="patch_128">
    <path d="M 346.079726 50979.958742 
L 348.177519 50979.958742 
L 348.177519 143.304828 
L 346.079726 143.304828 
z
" clip-path="url(#p2a5bc71905)" style="fill: #ff7f0e"/>
   </g>
   <g id="patch_129">
    <path d="M 347.944431 50979.958742 
L 350.042225 50979.958742 
L 350.042225 142.366898 
L 347.944431 142.366898 
z
" clip-path="url(#p2a5bc71905)" style="fill: #ff7f0e"/>
   </g>
   <g id="patch_130">
    <path d="M 349.809136 50979.958742 
L 351.90693 50979.958742 
L 351.90693 130.924664 
L 349.809136 130.924664 
z
" clip-path="url(#p2a5bc71905)" style="fill: #ff7f0e"/>
   </g>
   <g id="patch_131">
    <path d="M 351.673842 50979.958742 
L 353.771636 50979.958742 
L 353.771636 139.282918 
L 351.673842 139.282918 
z
" clip-path="url(#p2a5bc71905)" style="fill: #ff7f0e"/>
   </g>
   <g id="patch_132">
    <path d="M 353.538547 50979.958742 
L 355.636341 50979.958742 
L 355.636341 139.557692 
L 353.538547 139.557692 
z
" clip-path="url(#p2a5bc71905)" style="fill: #ff7f0e"/>
   </g>
   <g id="patch_133">
    <path d="M 355.403253 50979.958742 
L 357.501047 50979.958742 
L 357.501047 127.326973 
L 355.403253 127.326973 
z
" clip-path="url(#p2a5bc71905)" style="fill: #ff7f0e"/>
   </g>
   <g id="patch_134">
    <path d="M 357.267958 50979.958742 
L 359.365752 50979.958742 
L 359.365752 131.849052 
L 357.267958 131.849052 
z
" clip-path="url(#p2a5bc71905)" style="fill: #ff7f0e"/>
   </g>
   <g id="patch_135">
    <path d="M 359.132664 50979.958742 
L 361.230457 50979.958742 
L 361.230457 127.229568 
L 359.132664 127.229568 
z
" clip-path="url(#p2a5bc71905)" style="fill: #ff7f0e"/>
   </g>
   <g id="patch_136">
    <path d="M 360.997369 50979.958742 
L 363.095163 50979.958742 
L 363.095163 117.57898 
L 360.997369 117.57898 
z
" clip-path="url(#p2a5bc71905)" style="fill: #ff7f0e"/>
   </g>
   <g id="patch_137">
    <path d="M 362.862075 50979.958742 
L 364.959868 50979.958742 
L 364.959868 119.070332 
L 362.862075 119.070332 
z
" clip-path="url(#p2a5bc71905)" style="fill: #ff7f0e"/>
   </g>
   <g id="patch_138">
    <path d="M 364.72678 50979.958742 
L 366.824574 50979.958742 
L 366.824574 116.703247 
L 364.72678 116.703247 
z
" clip-path="url(#p2a5bc71905)" style="fill: #ff7f0e"/>
   </g>
   <g id="patch_139">
    <path d="M 366.591486 50979.958742 
L 368.689279 50979.958742 
L 368.689279 105.000652 
L 366.591486 105.000652 
z
" clip-path="url(#p2a5bc71905)" style="fill: #ff7f0e"/>
   </g>
   <g id="patch_140">
    <path d="M 368.456191 50979.958742 
L 370.553985 50979.958742 
L 370.553985 109.046046 
L 368.456191 109.046046 
z
" clip-path="url(#p2a5bc71905)" style="fill: #ff7f0e"/>
   </g>
   <g id="patch_141">
    <path d="M 370.320897 50979.958742 
L 372.41869 50979.958742 
L 372.41869 100.879717 
L 370.320897 100.879717 
z
" clip-path="url(#p2a5bc71905)" style="fill: #ff7f0e"/>
   </g>
   <g id="patch_142">
    <path d="M 372.185602 50979.958742 
L 374.283396 50979.958742 
L 374.283396 103.499598 
L 372.185602 103.499598 
z
" clip-path="url(#p2a5bc71905)" style="fill: #ff7f0e"/>
   </g>
   <g id="patch_143">
    <path d="M 374.050308 50979.958742 
L 376.148101 50979.958742 
L 376.148101 101.071395 
L 374.050308 101.071395 
z
" clip-path="url(#p2a5bc71905)" style="fill: #ff7f0e"/>
   </g>
   <g id="patch_144">
    <path d="M 375.915013 50979.958742 
L 378.012807 50979.958742 
L 378.012807 90.519152 
L 375.915013 90.519152 
z
" clip-path="url(#p2a5bc71905)" style="fill: #ff7f0e"/>
   </g>
   <g id="patch_145">
    <path d="M 377.779719 50979.958742 
L 379.877512 50979.958742 
L 379.877512 92.657629 
L 377.779719 92.657629 
z
" clip-path="url(#p2a5bc71905)" style="fill: #ff7f0e"/>
   </g>
   <g id="patch_146">
    <path d="M 379.644424 50979.958742 
L 381.742218 50979.958742 
L 381.742218 89.526372 
L 379.644424 89.526372 
z
" clip-path="url(#p2a5bc71905)" style="fill: #ff7f0e"/>
   </g>
   <g id="patch_147">
    <path d="M 381.509129 50979.958742 
L 383.606923 50979.958742 
L 383.606923 75.509645 
L 381.509129 75.509645 
z
" clip-path="url(#p2a5bc71905)" style="fill: #ff7f0e"/>
   </g>
   <g id="patch_148">
    <path d="M 383.373835 50979.958742 
L 385.471629 50979.958742 
L 385.471629 80.03683 
L 383.373835 80.03683 
z
" clip-path="url(#p2a5bc71905)" style="fill: #ff7f0e"/>
   </g>
   <g id="patch_149">
    <path d="M 385.23854 50979.958742 
L 387.336334 50979.958742 
L 387.336334 77.58561 
L 385.23854 77.58561 
z
" clip-path="url(#p2a5bc71905)" style="fill: #ff7f0e"/>
   </g>
   <g id="patch_150">
    <path d="M 387.103246 50979.958742 
L 389.201039 50979.958742 
L 389.201039 71.515468 
L 387.103246 71.515468 
z
" clip-path="url(#p2a5bc71905)" style="fill: #ff7f0e"/>
   </g>
   <g id="patch_151">
    <path d="M 388.967951 50979.958742 
L 391.065745 50979.958742 
L 391.065745 75.505009 
L 388.967951 75.505009 
z
" clip-path="url(#p2a5bc71905)" style="fill: #ff7f0e"/>
   </g>
   <g id="patch_152">
    <path d="M 390.832657 50979.958742 
L 392.93045 50979.958742 
L 392.93045 79.800316 
L 390.832657 79.800316 
z
" clip-path="url(#p2a5bc71905)" style="fill: #ff7f0e"/>
   </g>
   <g id="patch_153">
    <path d="M 392.697362 50979.958742 
L 394.795156 50979.958742 
L 394.795156 97.538839 
L 392.697362 97.538839 
z
" clip-path="url(#p2a5bc71905)" style="fill: #ff7f0e"/>
   </g>
   <g id="patch_154">
    <path d="M 394.562068 50979.958742 
L 396.659861 50979.958742 
L 396.659861 154.583451 
L 394.562068 154.583451 
z
" clip-path="url(#p2a5bc71905)" style="fill: #ff7f0e"/>
   </g>
   <g id="patch_155">
    <path d="M 391.615833 50979.958742 
L 393.713627 50979.958742 
L 393.713627 292.377726 
L 391.615833 292.377726 
z
" clip-path="url(#p2a5bc71905)" style="fill: #1f77b4"/>
   </g>
   <g id="patch_156">
    <path d="M 391.914186 50979.958742 
L 394.01198 50979.958742 
L 394.01198 292.377726 
L 391.914186 292.377726 
z
" clip-path="url(#p2a5bc71905)" style="fill: #1f77b4"/>
   </g>
   <g id="patch_157">
    <path d="M 391.95148 50979.958742 
L 394.049274 50979.958742 
L 394.049274 292.377726 
L 391.95148 292.377726 
z
" clip-path="url(#p2a5bc71905)" style="fill: #1f77b4"/>
   </g>
   <g id="patch_158">
    <path d="M 392.361715 50979.958742 
L 394.459509 50979.958742 
L 394.459509 292.377726 
L 392.361715 292.377726 
z
" clip-path="url(#p2a5bc71905)" style="fill: #1f77b4"/>
   </g>
   <g id="patch_159">
    <path d="M 392.548186 50979.958742 
L 394.645979 50979.958742 
L 394.645979 292.377726 
L 392.548186 292.377726 
z
" clip-path="url(#p2a5bc71905)" style="fill: #1f77b4"/>
   </g>
   <g id="patch_160">
    <path d="M 392.58548 50979.958742 
L 394.683274 50979.958742 
L 394.683274 292.377726 
L 392.58548 292.377726 
z
" clip-path="url(#p2a5bc71905)" style="fill: #1f77b4"/>
   </g>
   <g id="patch_161">
    <path d="M 392.660068 50979.958742 
L 394.757862 50979.958742 
L 394.757862 268.193603 
L 392.660068 268.193603 
z
" clip-path="url(#p2a5bc71905)" style="fill: #1f77b4"/>
   </g>
   <g id="patch_162">
    <path d="M 392.77195 50979.958742 
L 394.869744 50979.958742 
L 394.869744 292.377726 
L 392.77195 292.377726 
z
" clip-path="url(#p2a5bc71905)" style="fill: #1f77b4"/>
   </g>
   <g id="patch_163">
    <path d="M 392.921127 50979.958742 
L 395.018921 50979.958742 
L 395.018921 268.193603 
L 392.921127 268.193603 
z
" clip-path="url(#p2a5bc71905)" style="fill: #1f77b4"/>
   </g>
   <g id="patch_164">
    <path d="M 392.958421 50979.958742 
L 395.056215 50979.958742 
L 395.056215 277.119243 
L 392.958421 277.119243 
z
" clip-path="url(#p2a5bc71905)" style="fill: #1f77b4"/>
   </g>
   <g id="patch_165">
    <path d="M 392.995715 50979.958742 
L 395.093509 50979.958742 
L 395.093509 292.377726 
L 392.995715 292.377726 
z
" clip-path="url(#p2a5bc71905)" style="fill: #1f77b4"/>
   </g>
   <g id="patch_166">
    <path d="M 393.033009 50979.958742 
L 395.130803 50979.958742 
L 395.130803 292.377726 
L 393.033009 292.377726 
z
" clip-path="url(#p2a5bc71905)" style="fill: #1f77b4"/>
   </g>
   <g id="patch_167">
    <path d="M 393.070303 50979.958742 
L 395.168097 50979.958742 
L 395.168097 277.119243 
L 393.070303 277.119243 
z
" clip-path="url(#p2a5bc71905)" style="fill: #1f77b4"/>
   </g>
   <g id="patch_168">
    <path d="M 393.107597 50979.958742 
L 395.205391 50979.958742 
L 395.205391 292.377726 
L 393.107597 292.377726 
z
" clip-path="url(#p2a5bc71905)" style="fill: #1f77b4"/>
   </g>
   <g id="patch_169">
    <path d="M 393.144892 50979.958742 
L 395.242685 50979.958742 
L 395.242685 277.119243 
L 393.144892 277.119243 
z
" clip-path="url(#p2a5bc71905)" style="fill: #1f77b4"/>
   </g>
   <g id="patch_170">
    <path d="M 393.182186 50979.958742 
L 395.279979 50979.958742 
L 395.279979 277.119243 
L 393.182186 277.119243 
z
" clip-path="url(#p2a5bc71905)" style="fill: #1f77b4"/>
   </g>
   <g id="patch_171">
    <path d="M 393.21948 50979.958742 
L 395.317273 50979.958742 
L 395.317273 277.119243 
L 393.21948 277.119243 
z
" clip-path="url(#p2a5bc71905)" style="fill: #1f77b4"/>
   </g>
   <g id="patch_172">
    <path d="M 393.256774 50979.958742 
L 395.354568 50979.958742 
L 395.354568 292.377726 
L 393.256774 292.377726 
z
" clip-path="url(#p2a5bc71905)" style="fill: #1f77b4"/>
   </g>
   <g id="patch_173">
    <path d="M 393.294068 50979.958742 
L 395.391862 50979.958742 
L 395.391862 292.377726 
L 393.294068 292.377726 
z
" clip-path="url(#p2a5bc71905)" style="fill: #1f77b4"/>
   </g>
   <g id="patch_174">
    <path d="M 393.40595 50979.958742 
L 395.503744 50979.958742 
L 395.503744 292.377726 
L 393.40595 292.377726 
z
" clip-path="url(#p2a5bc71905)" style="fill: #1f77b4"/>
   </g>
   <g id="patch_175">
    <path d="M 393.480539 50979.958742 
L 395.578332 50979.958742 
L 395.578332 292.377726 
L 393.480539 292.377726 
z
" clip-path="url(#p2a5bc71905)" style="fill: #1f77b4"/>
   </g>
   <g id="patch_176">
    <path d="M 393.517833 50979.958742 
L 395.615626 50979.958742 
L 395.615626 277.119243 
L 393.517833 277.119243 
z
" clip-path="url(#p2a5bc71905)" style="fill: #1f77b4"/>
   </g>
   <g id="patch_177">
    <path d="M 393.555127 50979.958742 
L 395.65292 50979.958742 
L 395.65292 292.377726 
L 393.555127 292.377726 
z
" clip-path="url(#p2a5bc71905)" style="fill: #1f77b4"/>
   </g>
   <g id="patch_178">
    <path d="M 393.592421 50979.958742 
L 395.690215 50979.958742 
L 395.690215 277.119243 
L 393.592421 277.119243 
z
" clip-path="url(#p2a5bc71905)" style="fill: #1f77b4"/>
   </g>
   <g id="patch_179">
    <path d="M 393.629715 50979.958742 
L 395.727509 50979.958742 
L 395.727509 277.119243 
L 393.629715 277.119243 
z
" clip-path="url(#p2a5bc71905)" style="fill: #1f77b4"/>
   </g>
   <g id="patch_180">
    <path d="M 393.704303 50979.958742 
L 395.802097 50979.958742 
L 395.802097 268.193603 
L 393.704303 268.193603 
z
" clip-path="url(#p2a5bc71905)" style="fill: #1f77b4"/>
   </g>
   <g id="patch_181">
    <path d="M 393.741597 50979.958742 
L 395.839391 50979.958742 
L 395.839391 292.377726 
L 393.741597 292.377726 
z
" clip-path="url(#p2a5bc71905)" style="fill: #1f77b4"/>
   </g>
   <g id="patch_182">
    <path d="M 393.778891 50979.958742 
L 395.876685 50979.958742 
L 395.876685 261.860761 
L 393.778891 261.860761 
z
" clip-path="url(#p2a5bc71905)" style="fill: #1f77b4"/>
   </g>
   <g id="patch_183">
    <path d="M 393.816186 50979.958742 
L 395.913979 50979.958742 
L 395.913979 292.377726 
L 393.816186 292.377726 
z
" clip-path="url(#p2a5bc71905)" style="fill: #1f77b4"/>
   </g>
   <g id="patch_184">
    <path d="M 393.890774 50979.958742 
L 395.988567 50979.958742 
L 395.988567 277.119243 
L 393.890774 277.119243 
z
" clip-path="url(#p2a5bc71905)" style="fill: #1f77b4"/>
   </g>
   <g id="patch_185">
    <path d="M 393.928068 50979.958742 
L 396.025862 50979.958742 
L 396.025862 277.119243 
L 393.928068 277.119243 
z
" clip-path="url(#p2a5bc71905)" style="fill: #1f77b4"/>
   </g>
   <g id="patch_186">
    <path d="M 393.965362 50979.958742 
L 396.063156 50979.958742 
L 396.063156 277.119243 
L 393.965362 277.119243 
z
" clip-path="url(#p2a5bc71905)" style="fill: #1f77b4"/>
   </g>
   <g id="patch_187">
    <path d="M 394.002656 50979.958742 
L 396.10045 50979.958742 
L 396.10045 277.119243 
L 394.002656 277.119243 
z
" clip-path="url(#p2a5bc71905)" style="fill: #1f77b4"/>
   </g>
   <g id="patch_188">
    <path d="M 394.03995 50979.958742 
L 396.137744 50979.958742 
L 396.137744 277.119243 
L 394.03995 277.119243 
z
" clip-path="url(#p2a5bc71905)" style="fill: #1f77b4"/>
   </g>
   <g id="patch_189">
    <path d="M 394.077244 50979.958742 
L 396.175038 50979.958742 
L 396.175038 277.119243 
L 394.077244 277.119243 
z
" clip-path="url(#p2a5bc71905)" style="fill: #1f77b4"/>
   </g>
   <g id="patch_190">
    <path d="M 394.114538 50979.958742 
L 396.212332 50979.958742 
L 396.212332 256.948627 
L 394.114538 256.948627 
z
" clip-path="url(#p2a5bc71905)" style="fill: #1f77b4"/>
   </g>
   <g id="patch_191">
    <path d="M 394.151833 50979.958742 
L 396.249626 50979.958742 
L 396.249626 292.377726 
L 394.151833 292.377726 
z
" clip-path="url(#p2a5bc71905)" style="fill: #1f77b4"/>
   </g>
   <g id="patch_192">
    <path d="M 394.189127 50979.958742 
L 396.28692 50979.958742 
L 396.28692 268.193603 
L 394.189127 268.193603 
z
" clip-path="url(#p2a5bc71905)" style="fill: #1f77b4"/>
   </g>
   <g id="patch_193">
    <path d="M 394.226421 50979.958742 
L 396.324214 50979.958742 
L 396.324214 256.948627 
L 394.226421 256.948627 
z
" clip-path="url(#p2a5bc71905)" style="fill: #1f77b4"/>
   </g>
   <g id="patch_194">
    <path d="M 394.263715 50979.958742 
L 396.361508 50979.958742 
L 396.361508 261.860761 
L 394.263715 261.860761 
z
" clip-path="url(#p2a5bc71905)" style="fill: #1f77b4"/>
   </g>
   <g id="patch_195">
    <path d="M 394.301009 50979.958742 
L 396.398803 50979.958742 
L 396.398803 249.54175 
L 394.301009 249.54175 
z
" clip-path="url(#p2a5bc71905)" style="fill: #1f77b4"/>
   </g>
   <g id="patch_196">
    <path d="M 394.338303 50979.958742 
L 396.436097 50979.958742 
L 396.436097 292.377726 
L 394.338303 292.377726 
z
" clip-path="url(#p2a5bc71905)" style="fill: #1f77b4"/>
   </g>
   <g id="patch_197">
    <path d="M 394.375597 50979.958742 
L 396.473391 50979.958742 
L 396.473391 277.119243 
L 394.375597 277.119243 
z
" clip-path="url(#p2a5bc71905)" style="fill: #1f77b4"/>
   </g>
   <g id="patch_198">
    <path d="M 394.412891 50979.958742 
L 396.510685 50979.958742 
L 396.510685 252.935121 
L 394.412891 252.935121 
z
" clip-path="url(#p2a5bc71905)" style="fill: #1f77b4"/>
   </g>
   <g id="patch_199">
    <path d="M 394.450185 50979.958742 
L 396.547979 50979.958742 
L 396.547979 249.54175 
L 394.450185 249.54175 
z
" clip-path="url(#p2a5bc71905)" style="fill: #1f77b4"/>
   </g>
   <g id="patch_200">
    <path d="M 394.487479 50979.958742 
L 396.585273 50979.958742 
L 396.585273 256.948627 
L 394.487479 256.948627 
z
" clip-path="url(#p2a5bc71905)" style="fill: #1f77b4"/>
   </g>
   <g id="patch_201">
    <path d="M 394.524774 50979.958742 
L 396.622567 50979.958742 
L 396.622567 252.935121 
L 394.524774 252.935121 
z
" clip-path="url(#p2a5bc71905)" style="fill: #1f77b4"/>
   </g>
   <g id="patch_202">
    <path d="M 394.562068 50979.958742 
L 396.659861 50979.958742 
L 396.659861 246.602279 
L 394.562068 246.602279 
z
" clip-path="url(#p2a5bc71905)" style="fill: #1f77b4"/>
   </g>
   <g id="patch_203">
    <path d="M 394.599362 50979.958742 
L 396.697155 50979.958742 
L 396.697155 252.935121 
L 394.599362 252.935121 
z
" clip-path="url(#p2a5bc71905)" style="fill: #1f77b4"/>
   </g>
   <g id="patch_204">
    <path d="M 394.636656 50979.958742 
L 396.73445 50979.958742 
L 396.73445 244.009481 
L 394.636656 244.009481 
z
" clip-path="url(#p2a5bc71905)" style="fill: #1f77b4"/>
   </g>
   <g id="patch_205">
    <path d="M 394.67395 50979.958742 
L 396.771744 50979.958742 
L 396.771744 249.54175 
L 394.67395 249.54175 
z
" clip-path="url(#p2a5bc71905)" style="fill: #1f77b4"/>
   </g>
   <g id="patch_206">
    <path d="M 394.711244 50979.958742 
L 396.809038 50979.958742 
L 396.809038 244.009481 
L 394.711244 244.009481 
z
" clip-path="url(#p2a5bc71905)" style="fill: #1f77b4"/>
   </g>
   <g id="patch_207">
    <path d="M 394.748538 50979.958742 
L 396.846332 50979.958742 
L 396.846332 237.676639 
L 394.748538 237.676639 
z
" clip-path="url(#p2a5bc71905)" style="fill: #1f77b4"/>
   </g>
   <g id="patch_208">
    <path d="M 394.785832 50979.958742 
L 396.883626 50979.958742 
L 396.883626 252.935121 
L 394.785832 252.935121 
z
" clip-path="url(#p2a5bc71905)" style="fill: #1f77b4"/>
   </g>
   <g id="patch_209">
    <path d="M 394.823126 50979.958742 
L 396.92092 50979.958742 
L 396.92092 237.676639 
L 394.823126 237.676639 
z
" clip-path="url(#p2a5bc71905)" style="fill: #1f77b4"/>
   </g>
   <g id="patch_210">
    <path d="M 394.860421 50979.958742 
L 396.958214 50979.958742 
L 396.958214 261.860761 
L 394.860421 261.860761 
z
" clip-path="url(#p2a5bc71905)" style="fill: #1f77b4"/>
   </g>
   <g id="patch_211">
    <path d="M 394.897715 50979.958742 
L 396.995508 50979.958742 
L 396.995508 268.193603 
L 394.897715 268.193603 
z
" clip-path="url(#p2a5bc71905)" style="fill: #1f77b4"/>
   </g>
   <g id="patch_212">
    <path d="M 394.935009 50979.958742 
L 397.032802 50979.958742 
L 397.032802 235.914632 
L 394.935009 235.914632 
z
" clip-path="url(#p2a5bc71905)" style="fill: #1f77b4"/>
   </g>
   <g id="patch_213">
    <path d="M 394.972303 50979.958742 
L 397.070097 50979.958742 
L 397.070097 224.333567 
L 394.972303 224.333567 
z
" clip-path="url(#p2a5bc71905)" style="fill: #1f77b4"/>
   </g>
   <g id="patch_214">
    <path d="M 395.009597 50979.958742 
L 397.107391 50979.958742 
L 397.107391 232.764505 
L 395.009597 232.764505 
z
" clip-path="url(#p2a5bc71905)" style="fill: #1f77b4"/>
   </g>
   <g id="patch_215">
    <path d="M 395.046891 50979.958742 
L 397.144685 50979.958742 
L 397.144685 227.560799 
L 395.046891 227.560799 
z
" clip-path="url(#p2a5bc71905)" style="fill: #1f77b4"/>
   </g>
   <g id="patch_216">
    <path d="M 395.084185 50979.958742 
L 397.181979 50979.958742 
L 397.181979 234.283268 
L 395.084185 234.283268 
z
" clip-path="url(#p2a5bc71905)" style="fill: #1f77b4"/>
   </g>
   <g id="patch_217">
    <path d="M 395.121479 50979.958742 
L 397.219273 50979.958742 
L 397.219273 227.560799 
L 395.121479 227.560799 
z
" clip-path="url(#p2a5bc71905)" style="fill: #1f77b4"/>
   </g>
   <g id="patch_218">
    <path d="M 395.158773 50979.958742 
L 397.256567 50979.958742 
L 397.256567 249.54175 
L 395.158773 249.54175 
z
" clip-path="url(#p2a5bc71905)" style="fill: #1f77b4"/>
   </g>
   <g id="patch_219">
    <path d="M 395.196068 50979.958742 
L 397.293861 50979.958742 
L 397.293861 231.343797 
L 395.196068 231.343797 
z
" clip-path="url(#p2a5bc71905)" style="fill: #1f77b4"/>
   </g>
   <g id="patch_220">
    <path d="M 395.233362 50979.958742 
L 397.331155 50979.958742 
L 397.331155 228.750999 
L 395.233362 228.750999 
z
" clip-path="url(#p2a5bc71905)" style="fill: #1f77b4"/>
   </g>
   <g id="patch_221">
    <path d="M 395.270656 50979.958742 
L 397.368449 50979.958742 
L 397.368449 224.333567 
L 395.270656 224.333567 
z
" clip-path="url(#p2a5bc71905)" style="fill: #1f77b4"/>
   </g>
   <g id="patch_222">
    <path d="M 395.30795 50979.958742 
L 397.405744 50979.958742 
L 397.405744 228.750999 
L 395.30795 228.750999 
z
" clip-path="url(#p2a5bc71905)" style="fill: #1f77b4"/>
   </g>
   <g id="patch_223">
    <path d="M 395.345244 50979.958742 
L 397.443038 50979.958742 
L 397.443038 227.560799 
L 395.345244 227.560799 
z
" clip-path="url(#p2a5bc71905)" style="fill: #1f77b4"/>
   </g>
   <g id="patch_224">
    <path d="M 395.382538 50979.958742 
L 397.480332 50979.958742 
L 397.480332 212.302317 
L 395.382538 212.302317 
z
" clip-path="url(#p2a5bc71905)" style="fill: #1f77b4"/>
   </g>
   <g id="patch_225">
    <path d="M 395.419832 50979.958742 
L 397.517626 50979.958742 
L 397.517626 212.889374 
L 395.419832 212.889374 
z
" clip-path="url(#p2a5bc71905)" style="fill: #1f77b4"/>
   </g>
   <g id="patch_226">
    <path d="M 395.457126 50979.958742 
L 397.55492 50979.958742 
L 397.55492 211.17318 
L 395.457126 211.17318 
z
" clip-path="url(#p2a5bc71905)" style="fill: #1f77b4"/>
   </g>
   <g id="patch_227">
    <path d="M 395.49442 50979.958742 
L 397.592214 50979.958742 
L 397.592214 210.629613 
L 395.49442 210.629613 
z
" clip-path="url(#p2a5bc71905)" style="fill: #1f77b4"/>
   </g>
   <g id="patch_228">
    <path d="M 395.531715 50979.958742 
L 397.629508 50979.958742 
L 397.629508 210.629613 
L 395.531715 210.629613 
z
" clip-path="url(#p2a5bc71905)" style="fill: #1f77b4"/>
   </g>
   <g id="patch_229">
    <path d="M 395.569009 50979.958742 
L 397.666802 50979.958742 
L 397.666802 206.705775 
L 395.569009 206.705775 
z
" clip-path="url(#p2a5bc71905)" style="fill: #1f77b4"/>
   </g>
   <g id="patch_230">
    <path d="M 395.606303 50979.958742 
L 397.704096 50979.958742 
L 397.704096 201.173506 
L 395.606303 201.173506 
z
" clip-path="url(#p2a5bc71905)" style="fill: #1f77b4"/>
   </g>
   <g id="patch_231">
    <path d="M 395.643597 50979.958742 
L 397.741391 50979.958742 
L 397.741391 194.580148 
L 395.643597 194.580148 
z
" clip-path="url(#p2a5bc71905)" style="fill: #1f77b4"/>
   </g>
   <g id="patch_232">
    <path d="M 395.680891 50979.958742 
L 397.778685 50979.958742 
L 397.778685 197.335406 
L 395.680891 197.335406 
z
" clip-path="url(#p2a5bc71905)" style="fill: #1f77b4"/>
   </g>
   <g id="patch_233">
    <path d="M 395.718185 50979.958742 
L 397.815979 50979.958742 
L 397.815979 196.756074 
L 395.718185 196.756074 
z
" clip-path="url(#p2a5bc71905)" style="fill: #1f77b4"/>
   </g>
   <g id="patch_234">
    <path d="M 395.755479 50979.958742 
L 397.853273 50979.958742 
L 397.853273 187.925937 
L 395.755479 187.925937 
z
" clip-path="url(#p2a5bc71905)" style="fill: #1f77b4"/>
   </g>
   <g id="patch_235">
    <path d="M 395.792773 50979.958742 
L 397.890567 50979.958742 
L 397.890567 189.719871 
L 395.792773 189.719871 
z
" clip-path="url(#p2a5bc71905)" style="fill: #1f77b4"/>
   </g>
   <g id="patch_236">
    <path d="M 395.830067 50979.958742 
L 397.927861 50979.958742 
L 397.927861 186.445491 
L 395.830067 186.445491 
z
" clip-path="url(#p2a5bc71905)" style="fill: #1f77b4"/>
   </g>
   <g id="patch_237">
    <path d="M 395.867362 50979.958742 
L 397.965155 50979.958742 
L 397.965155 186.267244 
L 395.867362 186.267244 
z
" clip-path="url(#p2a5bc71905)" style="fill: #1f77b4"/>
   </g>
   <g id="patch_238">
    <path d="M 395.904656 50979.958742 
L 398.002449 50979.958742 
L 398.002449 174.357796 
L 395.904656 174.357796 
z
" clip-path="url(#p2a5bc71905)" style="fill: #1f77b4"/>
   </g>
   <g id="patch_239">
    <path d="M 395.94195 50979.958742 
L 398.039743 50979.958742 
L 398.039743 173.546152 
L 395.94195 173.546152 
z
" clip-path="url(#p2a5bc71905)" style="fill: #1f77b4"/>
   </g>
   <g id="patch_240">
    <path d="M 395.979244 50979.958742 
L 398.077038 50979.958742 
L 398.077038 164.854166 
L 395.979244 164.854166 
z
" clip-path="url(#p2a5bc71905)" style="fill: #1f77b4"/>
   </g>
   <g id="patch_241">
    <path d="M 396.016538 50979.958742 
L 398.114332 50979.958742 
L 398.114332 142.954608 
L 396.016538 142.954608 
z
" clip-path="url(#p2a5bc71905)" style="fill: #1f77b4"/>
   </g>
   <g id="patch_242">
    <path d="M 396.053832 50979.958742 
L 398.151626 50979.958742 
L 398.151626 135.793733 
L 396.053832 135.793733 
z
" clip-path="url(#p2a5bc71905)" style="fill: #1f77b4"/>
   </g>
   <g id="patch_243">
    <path d="M 396.091126 50979.958742 
L 398.18892 50979.958742 
L 398.18892 122.571587 
L 396.091126 122.571587 
z
" clip-path="url(#p2a5bc71905)" style="fill: #1f77b4"/>
   </g>
   <g id="patch_244">
    <path d="M 396.12842 50979.958742 
L 398.226214 50979.958742 
L 398.226214 107.347543 
L 396.12842 107.347543 
z
" clip-path="url(#p2a5bc71905)" style="fill: #1f77b4"/>
   </g>
   <g id="patch_245">
    <path d="M 396.165714 50979.958742 
L 398.263508 50979.958742 
L 398.263508 85.511406 
L 396.165714 85.511406 
z
" clip-path="url(#p2a5bc71905)" style="fill: #1f77b4"/>
   </g>
   <g id="patch_246">
    <path d="M 396.203009 50979.958742 
L 398.300802 50979.958742 
L 398.300802 75.733345 
L 396.203009 75.733345 
z
" clip-path="url(#p2a5bc71905)" style="fill: #1f77b4"/>
   </g>
   <g id="patch_247">
    <path d="M 396.240303 50979.958742 
L 398.338096 50979.958742 
L 398.338096 64.393018 
L 396.240303 64.393018 
z
" clip-path="url(#p2a5bc71905)" style="fill: #1f77b4"/>
   </g>
   <g id="patch_248">
    <path d="M 396.277597 50979.958742 
L 398.37539 50979.958742 
L 398.37539 48.453969 
L 396.277597 48.453969 
z
" clip-path="url(#p2a5bc71905)" style="fill: #1f77b4"/>
   </g>
   <g id="patch_249">
    <path d="M 396.314891 50979.958742 
L 398.412685 50979.958742 
L 398.412685 41.472 
L 396.314891 41.472 
z
" clip-path="url(#p2a5bc71905)" style="fill: #1f77b4"/>
   </g>
   <g id="patch_250">
    <path d="M 396.352185 50979.958742 
L 398.449979 50979.958742 
L 398.449979 43.523665 
L 396.352185 43.523665 
z
" clip-path="url(#p2a5bc71905)" style="fill: #1f77b4"/>
   </g>
   <g id="patch_251">
    <path d="M 396.389479 50979.958742 
L 398.487273 50979.958742 
L 398.487273 42.049514 
L 396.389479 42.049514 
z
" clip-path="url(#p2a5bc71905)" style="fill: #1f77b4"/>
   </g>
   <g id="matplotlib.axis_1">
    <g id="xtick_1">
     <g id="line2d_1">
      <path d="M 71.152213 307.584 
L 71.152213 41.472 
" clip-path="url(#p2a5bc71905)" style="fill: none; stroke: #b0b0b0; stroke-opacity: 0.3; stroke-width: 0.8; stroke-linecap: square"/>
     </g>
     <g id="line2d_2">
      <defs>
       <path id="m25f297b625" d="M 0 0 
L 0 3.5 
" style="stroke: #000000; stroke-width: 0.8"/>
      </defs>
      <g>
       <use xlink:href="#m25f297b625" x="71.152213" y="307.584" style="stroke: #000000; stroke-width: 0.8"/>
      </g>
     </g>
     <g id="text_1">
      <!-- 7 -->
      <g transform="translate(63.781119 322.182437) scale(0.1 -0.1)">
       <defs>
        <path id="DejaVuSans-2212" d="M 678 2272 
L 4684 2272 
L 4684 1741 
L 678 1741 
L 678 2272 
z
" transform="scale(0.015625)"/>
        <path id="DejaVuSans-37" d="M 525 4666 
L 3525 4666 
L 3525 4397 
L 1831 0 
L 1172 0 
L 2766 4134 
L 525 4134 
L 525 4666 
z
" transform="scale(0.015625)"/>
       </defs>
       <use xlink:href="#DejaVuSans-2212"/>
       <use xlink:href="#DejaVuSans-37" x="83.789062"/>
      </g>
     </g>
    </g>
    <g id="xtick_2">
     <g id="line2d_3">
      <path d="M 117.76985 307.584 
L 117.76985 41.472 
" clip-path="url(#p2a5bc71905)" style="fill: none; stroke: #b0b0b0; stroke-opacity: 0.3; stroke-width: 0.8; stroke-linecap: square"/>
     </g>
     <g id="line2d_4">
      <g>
       <use xlink:href="#m25f297b625" x="117.76985" y="307.584" style="stroke: #000000; stroke-width: 0.8"/>
      </g>
     </g>
     <g id="text_2">
      <!-- 6 -->
      <g transform="translate(110.398756 322.182437) scale(0.1 -0.1)">
       <defs>
        <path id="DejaVuSans-36" d="M 2113 2584 
Q 1688 2584 1439 2293 
Q 1191 2003 1191 1497 
Q 1191 994 1439 701 
Q 1688 409 2113 409 
Q 2538 409 2786 701 
Q 3034 994 3034 1497 
Q 3034 2003 2786 2293 
Q 2538 2584 2113 2584 
z
M 3366 4563 
L 3366 3988 
Q 3128 4100 2886 4159 
Q 2644 4219 2406 4219 
Q 1781 4219 1451 3797 
Q 1122 3375 1075 2522 
Q 1259 2794 1537 2939 
Q 1816 3084 2150 3084 
Q 2853 3084 3261 2657 
Q 3669 2231 3669 1497 
Q 3669 778 3244 343 
Q 2819 -91 2113 -91 
Q 1303 -91 875 529 
Q 447 1150 447 2328 
Q 447 3434 972 4092 
Q 1497 4750 2381 4750 
Q 2619 4750 2861 4703 
Q 3103 4656 3366 4563 
z
" transform="scale(0.015625)"/>
       </defs>
       <use xlink:href="#DejaVuSans-2212"/>
       <use xlink:href="#DejaVuSans-36" x="83.789062"/>
      </g>
     </g>
    </g>
    <g id="xtick_3">
     <g id="line2d_5">
      <path d="M 164.387487 307.584 
L 164.387487 41.472 
" clip-path="url(#p2a5bc71905)" style="fill: none; stroke: #b0b0b0; stroke-opacity: 0.3; stroke-width: 0.8; stroke-linecap: square"/>
     </g>
     <g id="line2d_6">
      <g>
       <use xlink:href="#m25f297b625" x="164.387487" y="307.584" style="stroke: #000000; stroke-width: 0.8"/>
      </g>
     </g>
     <g id="text_3">
      <!-- 5 -->
      <g transform="translate(157.016393 322.182437) scale(0.1 -0.1)">
       <defs>
        <path id="DejaVuSans-35" d="M 691 4666 
L 3169 4666 
L 3169 4134 
L 1269 4134 
L 1269 2991 
Q 1406 3038 1543 3061 
Q 1681 3084 1819 3084 
Q 2600 3084 3056 2656 
Q 3513 2228 3513 1497 
Q 3513 744 3044 326 
Q 2575 -91 1722 -91 
Q 1428 -91 1123 -41 
Q 819 9 494 109 
L 494 744 
Q 775 591 1075 516 
Q 1375 441 1709 441 
Q 2250 441 2565 725 
Q 2881 1009 2881 1497 
Q 2881 1984 2565 2268 
Q 2250 2553 1709 2553 
Q 1456 2553 1204 2497 
Q 953 2441 691 2322 
L 691 4666 
z
" transform="scale(0.015625)"/>
       </defs>
       <use xlink:href="#DejaVuSans-2212"/>
       <use xlink:href="#DejaVuSans-35" x="83.789062"/>
      </g>
     </g>
    </g>
    <g id="xtick_4">
     <g id="line2d_7">
      <path d="M 211.005123 307.584 
L 211.005123 41.472 
" clip-path="url(#p2a5bc71905)" style="fill: none; stroke: #b0b0b0; stroke-opacity: 0.3; stroke-width: 0.8; stroke-linecap: square"/>
     </g>
     <g id="line2d_8">
      <g>
       <use xlink:href="#m25f297b625" x="211.005123" y="307.584" style="stroke: #000000; stroke-width: 0.8"/>
      </g>
     </g>
     <g id="text_4">
      <!-- 4 -->
      <g transform="translate(203.634029 322.182437) scale(0.1 -0.1)">
       <defs>
        <path id="DejaVuSans-34" d="M 2419 4116 
L 825 1625 
L 2419 1625 
L 2419 4116 
z
M 2253 4666 
L 3047 4666 
L 3047 1625 
L 3713 1625 
L 3713 1100 
L 3047 1100 
L 3047 0 
L 2419 0 
L 2419 1100 
L 313 1100 
L 313 1709 
L 2253 4666 
z
" transform="scale(0.015625)"/>
       </defs>
       <use xlink:href="#DejaVuSans-2212"/>
       <use xlink:href="#DejaVuSans-34" x="83.789062"/>
      </g>
     </g>
    </g>
    <g id="xtick_5">
     <g id="line2d_9">
      <path d="M 257.62276 307.584 
L 257.62276 41.472 
" clip-path="url(#p2a5bc71905)" style="fill: none; stroke: #b0b0b0; stroke-opacity: 0.3; stroke-width: 0.8; stroke-linecap: square"/>
     </g>
     <g id="line2d_10">
      <g>
       <use xlink:href="#m25f297b625" x="257.62276" y="307.584" style="stroke: #000000; stroke-width: 0.8"/>
      </g>
     </g>
     <g id="text_5">
      <!-- 3 -->
      <g transform="translate(250.251666 322.182437) scale(0.1 -0.1)">
       <defs>
        <path id="DejaVuSans-33" d="M 2597 2516 
Q 3050 2419 3304 2112 
Q 3559 1806 3559 1356 
Q 3559 666 3084 287 
Q 2609 -91 1734 -91 
Q 1441 -91 1130 -33 
Q 819 25 488 141 
L 488 750 
Q 750 597 1062 519 
Q 1375 441 1716 441 
Q 2309 441 2620 675 
Q 2931 909 2931 1356 
Q 2931 1769 2642 2001 
Q 2353 2234 1838 2234 
L 1294 2234 
L 1294 2753 
L 1863 2753 
Q 2328 2753 2575 2939 
Q 2822 3125 2822 3475 
Q 2822 3834 2567 4026 
Q 2313 4219 1838 4219 
Q 1578 4219 1281 4162 
Q 984 4106 628 3988 
L 628 4550 
Q 988 4650 1302 4700 
Q 1616 4750 1894 4750 
Q 2613 4750 3031 4423 
Q 3450 4097 3450 3541 
Q 3450 3153 3228 2886 
Q 3006 2619 2597 2516 
z
" transform="scale(0.015625)"/>
       </defs>
       <use xlink:href="#DejaVuSans-2212"/>
       <use xlink:href="#DejaVuSans-33" x="83.789062"/>
      </g>
     </g>
    </g>
    <g id="xtick_6">
     <g id="line2d_11">
      <path d="M 304.240397 307.584 
L 304.240397 41.472 
" clip-path="url(#p2a5bc71905)" style="fill: none; stroke: #b0b0b0; stroke-opacity: 0.3; stroke-width: 0.8; stroke-linecap: square"/>
     </g>
     <g id="line2d_12">
      <g>
       <use xlink:href="#m25f297b625" x="304.240397" y="307.584" style="stroke: #000000; stroke-width: 0.8"/>
      </g>
     </g>
     <g id="text_6">
      <!-- 2 -->
      <g transform="translate(296.869303 322.182437) scale(0.1 -0.1)">
       <defs>
        <path id="DejaVuSans-32" d="M 1228 531 
L 3431 531 
L 3431 0 
L 469 0 
L 469 531 
Q 828 903 1448 1529 
Q 2069 2156 2228 2338 
Q 2531 2678 2651 2914 
Q 2772 3150 2772 3378 
Q 2772 3750 2511 3984 
Q 2250 4219 1831 4219 
Q 1534 4219 1204 4116 
Q 875 4013 500 3803 
L 500 4441 
Q 881 4594 1212 4672 
Q 1544 4750 1819 4750 
Q 2544 4750 2975 4387 
Q 3406 4025 3406 3419 
Q 3406 3131 3298 2873 
Q 3191 2616 2906 2266 
Q 2828 2175 2409 1742 
Q 1991 1309 1228 531 
z
" transform="scale(0.015625)"/>
       </defs>
       <use xlink:href="#DejaVuSans-2212"/>
       <use xlink:href="#DejaVuSans-32" x="83.789062"/>
      </g>
     </g>
    </g>
    <g id="xtick_7">
     <g id="line2d_13">
      <path d="M 350.858033 307.584 
L 350.858033 41.472 
" clip-path="url(#p2a5bc71905)" style="fill: none; stroke: #b0b0b0; stroke-opacity: 0.3; stroke-width: 0.8; stroke-linecap: square"/>
     </g>
     <g id="line2d_14">
      <g>
       <use xlink:href="#m25f297b625" x="350.858033" y="307.584" style="stroke: #000000; stroke-width: 0.8"/>
      </g>
     </g>
     <g id="text_7">
      <!-- 1 -->
      <g transform="translate(343.48694 322.182437) scale(0.1 -0.1)">
       <defs>
        <path id="DejaVuSans-31" d="M 794 531 
L 1825 531 
L 1825 4091 
L 703 3866 
L 703 4441 
L 1819 4666 
L 2450 4666 
L 2450 531 
L 3481 531 
L 3481 0 
L 794 0 
L 794 531 
z
" transform="scale(0.015625)"/>
       </defs>
       <use xlink:href="#DejaVuSans-2212"/>
       <use xlink:href="#DejaVuSans-31" x="83.789062"/>
      </g>
     </g>
    </g>
    <g id="xtick_8">
     <g id="line2d_15">
      <path d="M 397.47567 307.584 
L 397.47567 41.472 
" clip-path="url(#p2a5bc71905)" style="fill: none; stroke: #b0b0b0; stroke-opacity: 0.3; stroke-width: 0.8; stroke-linecap: square"/>
     </g>
     <g id="line2d_16">
      <g>
       <use xlink:href="#m25f297b625" x="397.47567" y="307.584" style="stroke: #000000; stroke-width: 0.8"/>
      </g>
     </g>
     <g id="text_8">
      <!-- 0 -->
      <g transform="translate(394.29442 322.182437) scale(0.1 -0.1)">
       <defs>
        <path id="DejaVuSans-30" d="M 2034 4250 
Q 1547 4250 1301 3770 
Q 1056 3291 1056 2328 
Q 1056 1369 1301 889 
Q 1547 409 2034 409 
Q 2525 409 2770 889 
Q 3016 1369 3016 2328 
Q 3016 3291 2770 3770 
Q 2525 4250 2034 4250 
z
M 2034 4750 
Q 2819 4750 3233 4129 
Q 3647 3509 3647 2328 
Q 3647 1150 3233 529 
Q 2819 -91 2034 -91 
Q 1250 -91 836 529 
Q 422 1150 422 2328 
Q 422 3509 836 4129 
Q 1250 4750 2034 4750 
z
" transform="scale(0.015625)"/>
       </defs>
       <use xlink:href="#DejaVuSans-30"/>
      </g>
     </g>
    </g>
    <g id="text_9">
     <!-- Tensin [V] -->
     <g transform="translate(208.577969 335.860562) scale(0.1 -0.1)">
      <defs>
       <path id="DejaVuSans-54" d="M -19 4666 
L 3928 4666 
L 3928 4134 
L 2272 4134 
L 2272 0 
L 1638 0 
L 1638 4134 
L -19 4134 
L -19 4666 
z
" transform="scale(0.015625)"/>
       <path id="DejaVuSans-65" d="M 3597 1894 
L 3597 1613 
L 953 1613 
Q 991 1019 1311 708 
Q 1631 397 2203 397 
Q 2534 397 2845 478 
Q 3156 559 3463 722 
L 3463 178 
Q 3153 47 2828 -22 
Q 2503 -91 2169 -91 
Q 1331 -91 842 396 
Q 353 884 353 1716 
Q 353 2575 817 3079 
Q 1281 3584 2069 3584 
Q 2775 3584 3186 3129 
Q 3597 2675 3597 1894 
z
M 3022 2063 
Q 3016 2534 2758 2815 
Q 2500 3097 2075 3097 
Q 1594 3097 1305 2825 
Q 1016 2553 972 2059 
L 3022 2063 
z
" transform="scale(0.015625)"/>
       <path id="DejaVuSans-6e" d="M 3513 2113 
L 3513 0 
L 2938 0 
L 2938 2094 
Q 2938 2591 2744 2837 
Q 2550 3084 2163 3084 
Q 1697 3084 1428 2787 
Q 1159 2491 1159 1978 
L 1159 0 
L 581 0 
L 581 3500 
L 1159 3500 
L 1159 2956 
Q 1366 3272 1645 3428 
Q 1925 3584 2291 3584 
Q 2894 3584 3203 3211 
Q 3513 2838 3513 2113 
z
" transform="scale(0.015625)"/>
       <path id="DejaVuSans-73" d="M 2834 3397 
L 2834 2853 
Q 2591 2978 2328 3040 
Q 2066 3103 1784 3103 
Q 1356 3103 1142 2972 
Q 928 2841 928 2578 
Q 928 2378 1081 2264 
Q 1234 2150 1697 2047 
L 1894 2003 
Q 2506 1872 2764 1633 
Q 3022 1394 3022 966 
Q 3022 478 2636 193 
Q 2250 -91 1575 -91 
Q 1294 -91 989 -36 
Q 684 19 347 128 
L 347 722 
Q 666 556 975 473 
Q 1284 391 1588 391 
Q 1994 391 2212 530 
Q 2431 669 2431 922 
Q 2431 1156 2273 1281 
Q 2116 1406 1581 1522 
L 1381 1569 
Q 847 1681 609 1914 
Q 372 2147 372 2553 
Q 372 3047 722 3315 
Q 1072 3584 1716 3584 
Q 2034 3584 2315 3537 
Q 2597 3491 2834 3397 
z
" transform="scale(0.015625)"/>
       <path id="DejaVuSans-69" d="M 603 3500 
L 1178 3500 
L 1178 0 
L 603 0 
L 603 3500 
z
M 603 4863 
L 1178 4863 
L 1178 4134 
L 603 4134 
L 603 4863 
z
" transform="scale(0.015625)"/>
       <path id="DejaVuSans-f3" d="M 1959 3097 
Q 1497 3097 1228 2736 
Q 959 2375 959 1747 
Q 959 1119 1226 758 
Q 1494 397 1959 397 
Q 2419 397 2687 759 
Q 2956 1122 2956 1747 
Q 2956 2369 2687 2733 
Q 2419 3097 1959 3097 
z
M 1959 3584 
Q 2709 3584 3137 3096 
Q 3566 2609 3566 1747 
Q 3566 888 3137 398 
Q 2709 -91 1959 -91 
Q 1206 -91 779 398 
Q 353 888 353 1747 
Q 353 2609 779 3096 
Q 1206 3584 1959 3584 
z
M 2394 5119 
L 3016 5119 
L 1998 3944 
L 1519 3944 
L 2394 5119 
z
" transform="scale(0.015625)"/>
       <path id="DejaVuSans-20" transform="scale(0.015625)"/>
       <path id="DejaVuSans-5b" d="M 550 4863 
L 1875 4863 
L 1875 4416 
L 1125 4416 
L 1125 -397 
L 1875 -397 
L 1875 -844 
L 550 -844 
L 550 4863 
z
" transform="scale(0.015625)"/>
       <path id="DejaVuSans-56" d="M 1831 0 
L 50 4666 
L 709 4666 
L 2188 738 
L 3669 4666 
L 4325 4666 
L 2547 0 
L 1831 0 
z
" transform="scale(0.015625)"/>
       <path id="DejaVuSans-5d" d="M 1947 4863 
L 1947 -844 
L 622 -844 
L 622 -397 
L 1369 -397 
L 1369 4416 
L 622 4416 
L 622 4863 
L 1947 4863 
z
" transform="scale(0.015625)"/>
      </defs>
      <use xlink:href="#DejaVuSans-54"/>
      <use xlink:href="#DejaVuSans-65" x="44.083984"/>
      <use xlink:href="#DejaVuSans-6e" x="105.607422"/>
      <use xlink:href="#DejaVuSans-73" x="168.986328"/>
      <use xlink:href="#DejaVuSans-69" x="221.085938"/>
      <use xlink:href="#DejaVuSans-f3" x="248.869141"/>
      <use xlink:href="#DejaVuSans-6e" x="310.050781"/>
      <use xlink:href="#DejaVuSans-20" x="373.429688"/>
      <use xlink:href="#DejaVuSans-5b" x="405.216797"/>
      <use xlink:href="#DejaVuSans-56" x="444.230469"/>
      <use xlink:href="#DejaVuSans-5d" x="512.638672"/>
     </g>
    </g>
   </g>
   <g id="matplotlib.axis_2">
    <g id="ytick_1">
     <g id="line2d_17">
      <path d="M 57.6 292.377726 
L 414.72 292.377726 
" clip-path="url(#p2a5bc71905)" style="fill: none; stroke: #b0b0b0; stroke-opacity: 0.3; stroke-width: 0.8; stroke-linecap: square"/>
     </g>
     <g id="line2d_18">
      <defs>
       <path id="mf033195e43" d="M 0 0 
L -3.5 0 
" style="stroke: #000000; stroke-width: 0.8"/>
      </defs>
      <g>
       <use xlink:href="#mf033195e43" x="57.6" y="292.377726" style="stroke: #000000; stroke-width: 0.8"/>
      </g>
     </g>
     <g id="text_10">
      <!-- $\mathdefault{10^{0}}$ -->
      <g transform="translate(33 296.176944) scale(0.1 -0.1)">
       <use xlink:href="#DejaVuSans-31" transform="translate(0 0.765625)"/>
       <use xlink:href="#DejaVuSans-30" transform="translate(63.623047 0.765625)"/>
       <use xlink:href="#DejaVuSans-30" transform="translate(128.203125 39.046875) scale(0.7)"/>
      </g>
     </g>
    </g>
    <g id="ytick_2">
     <g id="line2d_19">
      <path d="M 57.6 241.690145 
L 414.72 241.690145 
" clip-path="url(#p2a5bc71905)" style="fill: none; stroke: #b0b0b0; stroke-opacity: 0.3; stroke-width: 0.8; stroke-linecap: square"/>
     </g>
     <g id="line2d_20">
      <g>
       <use xlink:href="#mf033195e43" x="57.6" y="241.690145" style="stroke: #000000; stroke-width: 0.8"/>
      </g>
     </g>
     <g id="text_11">
      <!-- $\mathdefault{10^{1}}$ -->
      <g transform="translate(33 245.489363) scale(0.1 -0.1)">
       <use xlink:href="#DejaVuSans-31" transform="translate(0 0.684375)"/>
       <use xlink:href="#DejaVuSans-30" transform="translate(63.623047 0.684375)"/>
       <use xlink:href="#DejaVuSans-31" transform="translate(128.203125 38.965625) scale(0.7)"/>
      </g>
     </g>
    </g>
    <g id="ytick_3">
     <g id="line2d_21">
      <path d="M 57.6 191.002564 
L 414.72 191.002564 
" clip-path="url(#p2a5bc71905)" style="fill: none; stroke: #b0b0b0; stroke-opacity: 0.3; stroke-width: 0.8; stroke-linecap: square"/>
     </g>
     <g id="line2d_22">
      <g>
       <use xlink:href="#mf033195e43" x="57.6" y="191.002564" style="stroke: #000000; stroke-width: 0.8"/>
      </g>
     </g>
     <g id="text_12">
      <!-- $\mathdefault{10^{2}}$ -->
      <g transform="translate(33 194.801782) scale(0.1 -0.1)">
       <use xlink:href="#DejaVuSans-31" transform="translate(0 0.765625)"/>
       <use xlink:href="#DejaVuSans-30" transform="translate(63.623047 0.765625)"/>
       <use xlink:href="#DejaVuSans-32" transform="translate(128.203125 39.046875) scale(0.7)"/>
      </g>
     </g>
    </g>
    <g id="ytick_4">
     <g id="line2d_23">
      <path d="M 57.6 140.314983 
L 414.72 140.314983 
" clip-path="url(#p2a5bc71905)" style="fill: none; stroke: #b0b0b0; stroke-opacity: 0.3; stroke-width: 0.8; stroke-linecap: square"/>
     </g>
     <g id="line2d_24">
      <g>
       <use xlink:href="#mf033195e43" x="57.6" y="140.314983" style="stroke: #000000; stroke-width: 0.8"/>
      </g>
     </g>
     <g id="text_13">
      <!-- $\mathdefault{10^{3}}$ -->
      <g transform="translate(33 144.114201) scale(0.1 -0.1)">
       <use xlink:href="#DejaVuSans-31" transform="translate(0 0.765625)"/>
       <use xlink:href="#DejaVuSans-30" transform="translate(63.623047 0.765625)"/>
       <use xlink:href="#DejaVuSans-33" transform="translate(128.203125 39.046875) scale(0.7)"/>
      </g>
     </g>
    </g>
    <g id="ytick_5">
     <g id="line2d_25">
      <path d="M 57.6 89.627402 
L 414.72 89.627402 
" clip-path="url(#p2a5bc71905)" style="fill: none; stroke: #b0b0b0; stroke-opacity: 0.3; stroke-width: 0.8; stroke-linecap: square"/>
     </g>
     <g id="line2d_26">
      <g>
       <use xlink:href="#mf033195e43" x="57.6" y="89.627402" style="stroke: #000000; stroke-width: 0.8"/>
      </g>
     </g>
     <g id="text_14">
      <!-- $\mathdefault{10^{4}}$ -->
      <g transform="translate(33 93.42662) scale(0.1 -0.1)">
       <use xlink:href="#DejaVuSans-31" transform="translate(0 0.684375)"/>
       <use xlink:href="#DejaVuSans-30" transform="translate(63.623047 0.684375)"/>
       <use xlink:href="#DejaVuSans-34" transform="translate(128.203125 38.965625) scale(0.7)"/>
      </g>
     </g>
    </g>
    <g id="ytick_6">
     <g id="line2d_27">
      <defs>
       <path id="m2fcca29b58" d="M 0 0 
L -2 0 
" style="stroke: #000000; stroke-width: 0.6"/>
      </defs>
      <g>
       <use xlink:href="#m2fcca29b58" x="57.6" y="303.622702" style="stroke: #000000; stroke-width: 0.6"/>
      </g>
     </g>
    </g>
    <g id="ytick_7">
     <g id="line2d_28">
      <g>
       <use xlink:href="#m2fcca29b58" x="57.6" y="300.229331" style="stroke: #000000; stroke-width: 0.6"/>
      </g>
     </g>
    </g>
    <g id="ytick_8">
     <g id="line2d_29">
      <g>
       <use xlink:href="#m2fcca29b58" x="57.6" y="297.28986" style="stroke: #000000; stroke-width: 0.6"/>
      </g>
     </g>
    </g>
    <g id="ytick_9">
     <g id="line2d_30">
      <g>
       <use xlink:href="#m2fcca29b58" x="57.6" y="294.697062" style="stroke: #000000; stroke-width: 0.6"/>
      </g>
     </g>
    </g>
    <g id="ytick_10">
     <g id="line2d_31">
      <g>
       <use xlink:href="#m2fcca29b58" x="57.6" y="277.119243" style="stroke: #000000; stroke-width: 0.6"/>
      </g>
     </g>
    </g>
    <g id="ytick_11">
     <g id="line2d_32">
      <g>
       <use xlink:href="#m2fcca29b58" x="57.6" y="268.193603" style="stroke: #000000; stroke-width: 0.6"/>
      </g>
     </g>
    </g>
    <g id="ytick_12">
     <g id="line2d_33">
      <g>
       <use xlink:href="#m2fcca29b58" x="57.6" y="261.860761" style="stroke: #000000; stroke-width: 0.6"/>
      </g>
     </g>
    </g>
    <g id="ytick_13">
     <g id="line2d_34">
      <g>
       <use xlink:href="#m2fcca29b58" x="57.6" y="256.948627" style="stroke: #000000; stroke-width: 0.6"/>
      </g>
     </g>
    </g>
    <g id="ytick_14">
     <g id="line2d_35">
      <g>
       <use xlink:href="#m2fcca29b58" x="57.6" y="252.935121" style="stroke: #000000; stroke-width: 0.6"/>
      </g>
     </g>
    </g>
    <g id="ytick_15">
     <g id="line2d_36">
      <g>
       <use xlink:href="#m2fcca29b58" x="57.6" y="249.54175" style="stroke: #000000; stroke-width: 0.6"/>
      </g>
     </g>
    </g>
    <g id="ytick_16">
     <g id="line2d_37">
      <g>
       <use xlink:href="#m2fcca29b58" x="57.6" y="246.602279" style="stroke: #000000; stroke-width: 0.6"/>
      </g>
     </g>
    </g>
    <g id="ytick_17">
     <g id="line2d_38">
      <g>
       <use xlink:href="#m2fcca29b58" x="57.6" y="244.009481" style="stroke: #000000; stroke-width: 0.6"/>
      </g>
     </g>
    </g>
    <g id="ytick_18">
     <g id="line2d_39">
      <g>
       <use xlink:href="#m2fcca29b58" x="57.6" y="226.431662" style="stroke: #000000; stroke-width: 0.6"/>
      </g>
     </g>
    </g>
    <g id="ytick_19">
     <g id="line2d_40">
      <g>
       <use xlink:href="#m2fcca29b58" x="57.6" y="217.506022" style="stroke: #000000; stroke-width: 0.6"/>
      </g>
     </g>
    </g>
    <g id="ytick_20">
     <g id="line2d_41">
      <g>
       <use xlink:href="#m2fcca29b58" x="57.6" y="211.17318" style="stroke: #000000; stroke-width: 0.6"/>
      </g>
     </g>
    </g>
    <g id="ytick_21">
     <g id="line2d_42">
      <g>
       <use xlink:href="#m2fcca29b58" x="57.6" y="206.261046" style="stroke: #000000; stroke-width: 0.6"/>
      </g>
     </g>
    </g>
    <g id="ytick_22">
     <g id="line2d_43">
      <g>
       <use xlink:href="#m2fcca29b58" x="57.6" y="202.24754" style="stroke: #000000; stroke-width: 0.6"/>
      </g>
     </g>
    </g>
    <g id="ytick_23">
     <g id="line2d_44">
      <g>
       <use xlink:href="#m2fcca29b58" x="57.6" y="198.854169" style="stroke: #000000; stroke-width: 0.6"/>
      </g>
     </g>
    </g>
    <g id="ytick_24">
     <g id="line2d_45">
      <g>
       <use xlink:href="#m2fcca29b58" x="57.6" y="195.914698" style="stroke: #000000; stroke-width: 0.6"/>
      </g>
     </g>
    </g>
    <g id="ytick_25">
     <g id="line2d_46">
      <g>
       <use xlink:href="#m2fcca29b58" x="57.6" y="193.3219" style="stroke: #000000; stroke-width: 0.6"/>
      </g>
     </g>
    </g>
    <g id="ytick_26">
     <g id="line2d_47">
      <g>
       <use xlink:href="#m2fcca29b58" x="57.6" y="175.744081" style="stroke: #000000; stroke-width: 0.6"/>
      </g>
     </g>
    </g>
    <g id="ytick_27">
     <g id="line2d_48">
      <g>
       <use xlink:href="#m2fcca29b58" x="57.6" y="166.818441" style="stroke: #000000; stroke-width: 0.6"/>
      </g>
     </g>
    </g>
    <g id="ytick_28">
     <g id="line2d_49">
      <g>
       <use xlink:href="#m2fcca29b58" x="57.6" y="160.485599" style="stroke: #000000; stroke-width: 0.6"/>
      </g>
     </g>
    </g>
    <g id="ytick_29">
     <g id="line2d_50">
      <g>
       <use xlink:href="#m2fcca29b58" x="57.6" y="155.573465" style="stroke: #000000; stroke-width: 0.6"/>
      </g>
     </g>
    </g>
    <g id="ytick_30">
     <g id="line2d_51">
      <g>
       <use xlink:href="#m2fcca29b58" x="57.6" y="151.559959" style="stroke: #000000; stroke-width: 0.6"/>
      </g>
     </g>
    </g>
    <g id="ytick_31">
     <g id="line2d_52">
      <g>
       <use xlink:href="#m2fcca29b58" x="57.6" y="148.166588" style="stroke: #000000; stroke-width: 0.6"/>
      </g>
     </g>
    </g>
    <g id="ytick_32">
     <g id="line2d_53">
      <g>
       <use xlink:href="#m2fcca29b58" x="57.6" y="145.227117" style="stroke: #000000; stroke-width: 0.6"/>
      </g>
     </g>
    </g>
    <g id="ytick_33">
     <g id="line2d_54">
      <g>
       <use xlink:href="#m2fcca29b58" x="57.6" y="142.634319" style="stroke: #000000; stroke-width: 0.6"/>
      </g>
     </g>
    </g>
    <g id="ytick_34">
     <g id="line2d_55">
      <g>
       <use xlink:href="#m2fcca29b58" x="57.6" y="125.0565" style="stroke: #000000; stroke-width: 0.6"/>
      </g>
     </g>
    </g>
    <g id="ytick_35">
     <g id="line2d_56">
      <g>
       <use xlink:href="#m2fcca29b58" x="57.6" y="116.13086" style="stroke: #000000; stroke-width: 0.6"/>
      </g>
     </g>
    </g>
    <g id="ytick_36">
     <g id="line2d_57">
      <g>
       <use xlink:href="#m2fcca29b58" x="57.6" y="109.798018" style="stroke: #000000; stroke-width: 0.6"/>
      </g>
     </g>
    </g>
    <g id="ytick_37">
     <g id="line2d_58">
      <g>
       <use xlink:href="#m2fcca29b58" x="57.6" y="104.885884" style="stroke: #000000; stroke-width: 0.6"/>
      </g>
     </g>
    </g>
    <g id="ytick_38">
     <g id="line2d_59">
      <g>
       <use xlink:href="#m2fcca29b58" x="57.6" y="100.872378" style="stroke: #000000; stroke-width: 0.6"/>
      </g>
     </g>
    </g>
    <g id="ytick_39">
     <g id="line2d_60">
      <g>
       <use xlink:href="#m2fcca29b58" x="57.6" y="97.479007" style="stroke: #000000; stroke-width: 0.6"/>
      </g>
     </g>
    </g>
    <g id="ytick_40">
     <g id="line2d_61">
      <g>
       <use xlink:href="#m2fcca29b58" x="57.6" y="94.539536" style="stroke: #000000; stroke-width: 0.6"/>
      </g>
     </g>
    </g>
    <g id="ytick_41">
     <g id="line2d_62">
      <g>
       <use xlink:href="#m2fcca29b58" x="57.6" y="91.946738" style="stroke: #000000; stroke-width: 0.6"/>
      </g>
     </g>
    </g>
    <g id="ytick_42">
     <g id="line2d_63">
      <g>
       <use xlink:href="#m2fcca29b58" x="57.6" y="74.368919" style="stroke: #000000; stroke-width: 0.6"/>
      </g>
     </g>
    </g>
    <g id="ytick_43">
     <g id="line2d_64">
      <g>
       <use xlink:href="#m2fcca29b58" x="57.6" y="65.443279" style="stroke: #000000; stroke-width: 0.6"/>
      </g>
     </g>
    </g>
    <g id="ytick_44">
     <g id="line2d_65">
      <g>
       <use xlink:href="#m2fcca29b58" x="57.6" y="59.110437" style="stroke: #000000; stroke-width: 0.6"/>
      </g>
     </g>
    </g>
    <g id="ytick_45">
     <g id="line2d_66">
      <g>
       <use xlink:href="#m2fcca29b58" x="57.6" y="54.198303" style="stroke: #000000; stroke-width: 0.6"/>
      </g>
     </g>
    </g>
    <g id="ytick_46">
     <g id="line2d_67">
      <g>
       <use xlink:href="#m2fcca29b58" x="57.6" y="50.184797" style="stroke: #000000; stroke-width: 0.6"/>
      </g>
     </g>
    </g>
    <g id="ytick_47">
     <g id="line2d_68">
      <g>
       <use xlink:href="#m2fcca29b58" x="57.6" y="46.791426" style="stroke: #000000; stroke-width: 0.6"/>
      </g>
     </g>
    </g>
    <g id="ytick_48">
     <g id="line2d_69">
      <g>
       <use xlink:href="#m2fcca29b58" x="57.6" y="43.851955" style="stroke: #000000; stroke-width: 0.6"/>
      </g>
     </g>
    </g>
    <g id="text_15">
     <!-- Nmero de eventos -->
     <g transform="translate(26.920312 223.720969) rotate(-90) scale(0.1 -0.1)">
      <defs>
       <path id="DejaVuSans-4e" d="M 628 4666 
L 1478 4666 
L 3547 763 
L 3547 4666 
L 4159 4666 
L 4159 0 
L 3309 0 
L 1241 3903 
L 1241 0 
L 628 0 
L 628 4666 
z
" transform="scale(0.015625)"/>
       <path id="DejaVuSans-fa" d="M 544 1381 
L 544 3500 
L 1119 3500 
L 1119 1403 
Q 1119 906 1312 657 
Q 1506 409 1894 409 
Q 2359 409 2629 706 
Q 2900 1003 2900 1516 
L 2900 3500 
L 3475 3500 
L 3475 0 
L 2900 0 
L 2900 538 
Q 2691 219 2414 64 
Q 2138 -91 1772 -91 
Q 1169 -91 856 284 
Q 544 659 544 1381 
z
M 1991 3584 
L 1991 3584 
z
M 2418 5119 
L 3040 5119 
L 2022 3944 
L 1543 3944 
L 2418 5119 
z
" transform="scale(0.015625)"/>
       <path id="DejaVuSans-6d" d="M 3328 2828 
Q 3544 3216 3844 3400 
Q 4144 3584 4550 3584 
Q 5097 3584 5394 3201 
Q 5691 2819 5691 2113 
L 5691 0 
L 5113 0 
L 5113 2094 
Q 5113 2597 4934 2840 
Q 4756 3084 4391 3084 
Q 3944 3084 3684 2787 
Q 3425 2491 3425 1978 
L 3425 0 
L 2847 0 
L 2847 2094 
Q 2847 2600 2669 2842 
Q 2491 3084 2119 3084 
Q 1678 3084 1418 2786 
Q 1159 2488 1159 1978 
L 1159 0 
L 581 0 
L 581 3500 
L 1159 3500 
L 1159 2956 
Q 1356 3278 1631 3431 
Q 1906 3584 2284 3584 
Q 2666 3584 2933 3390 
Q 3200 3197 3328 2828 
z
" transform="scale(0.015625)"/>
       <path id="DejaVuSans-72" d="M 2631 2963 
Q 2534 3019 2420 3045 
Q 2306 3072 2169 3072 
Q 1681 3072 1420 2755 
Q 1159 2438 1159 1844 
L 1159 0 
L 581 0 
L 581 3500 
L 1159 3500 
L 1159 2956 
Q 1341 3275 1631 3429 
Q 1922 3584 2338 3584 
Q 2397 3584 2469 3576 
Q 2541 3569 2628 3553 
L 2631 2963 
z
" transform="scale(0.015625)"/>
       <path id="DejaVuSans-6f" d="M 1959 3097 
Q 1497 3097 1228 2736 
Q 959 2375 959 1747 
Q 959 1119 1226 758 
Q 1494 397 1959 397 
Q 2419 397 2687 759 
Q 2956 1122 2956 1747 
Q 2956 2369 2687 2733 
Q 2419 3097 1959 3097 
z
M 1959 3584 
Q 2709 3584 3137 3096 
Q 3566 2609 3566 1747 
Q 3566 888 3137 398 
Q 2709 -91 1959 -91 
Q 1206 -91 779 398 
Q 353 888 353 1747 
Q 353 2609 779 3096 
Q 1206 3584 1959 3584 
z
" transform="scale(0.015625)"/>
       <path id="DejaVuSans-64" d="M 2906 2969 
L 2906 4863 
L 3481 4863 
L 3481 0 
L 2906 0 
L 2906 525 
Q 2725 213 2448 61 
Q 2172 -91 1784 -91 
Q 1150 -91 751 415 
Q 353 922 353 1747 
Q 353 2572 751 3078 
Q 1150 3584 1784 3584 
Q 2172 3584 2448 3432 
Q 2725 3281 2906 2969 
z
M 947 1747 
Q 947 1113 1208 752 
Q 1469 391 1925 391 
Q 2381 391 2643 752 
Q 2906 1113 2906 1747 
Q 2906 2381 2643 2742 
Q 2381 3103 1925 3103 
Q 1469 3103 1208 2742 
Q 947 2381 947 1747 
z
" transform="scale(0.015625)"/>
       <path id="DejaVuSans-76" d="M 191 3500 
L 800 3500 
L 1894 563 
L 2988 3500 
L 3597 3500 
L 2284 0 
L 1503 0 
L 191 3500 
z
" transform="scale(0.015625)"/>
       <path id="DejaVuSans-74" d="M 1172 4494 
L 1172 3500 
L 2356 3500 
L 2356 3053 
L 1172 3053 
L 1172 1153 
Q 1172 725 1289 603 
Q 1406 481 1766 481 
L 2356 481 
L 2356 0 
L 1766 0 
Q 1100 0 847 248 
Q 594 497 594 1153 
L 594 3053 
L 172 3053 
L 172 3500 
L 594 3500 
L 594 4494 
L 1172 4494 
z
" transform="scale(0.015625)"/>
      </defs>
      <use xlink:href="#DejaVuSans-4e"/>
      <use xlink:href="#DejaVuSans-fa" x="74.804688"/>
      <use xlink:href="#DejaVuSans-6d" x="138.183594"/>
      <use xlink:href="#DejaVuSans-65" x="235.595703"/>
      <use xlink:href="#DejaVuSans-72" x="297.119141"/>
      <use xlink:href="#DejaVuSans-6f" x="335.982422"/>
      <use xlink:href="#DejaVuSans-20" x="397.164062"/>
      <use xlink:href="#DejaVuSans-64" x="428.951172"/>
      <use xlink:href="#DejaVuSans-65" x="492.427734"/>
      <use xlink:href="#DejaVuSans-20" x="553.951172"/>
      <use xlink:href="#DejaVuSans-65" x="585.738281"/>
      <use xlink:href="#DejaVuSans-76" x="647.261719"/>
      <use xlink:href="#DejaVuSans-65" x="706.441406"/>
      <use xlink:href="#DejaVuSans-6e" x="767.964844"/>
      <use xlink:href="#DejaVuSans-74" x="831.34375"/>
      <use xlink:href="#DejaVuSans-6f" x="870.552734"/>
      <use xlink:href="#DejaVuSans-73" x="931.734375"/>
     </g>
    </g>
   </g>
   <g id="LineCollection_1">
    <path d="M 252.960996 346.6 
L 252.960996 -1 
" clip-path="url(#p2a5bc71905)" style="fill: none; stroke-dasharray: 5.55,2.4; stroke-dashoffset: 0; stroke: #2ca02c; stroke-width: 1.5"/>
   </g>
   <g id="patch_252">
    <path d="M 57.6 307.584 
L 57.6 41.472 
" style="fill: none; stroke: #000000; stroke-width: 0.8; stroke-linejoin: miter; stroke-linecap: square"/>
   </g>
   <g id="patch_253">
    <path d="M 414.72 307.584 
L 414.72 41.472 
" style="fill: none; stroke: #000000; stroke-width: 0.8; stroke-linejoin: miter; stroke-linecap: square"/>
   </g>
   <g id="patch_254">
    <path d="M 57.6 307.584 
L 414.72 307.584 
" style="fill: none; stroke: #000000; stroke-width: 0.8; stroke-linejoin: miter; stroke-linecap: square"/>
   </g>
   <g id="patch_255">
    <path d="M 57.6 41.472 
L 414.72 41.472 
" style="fill: none; stroke: #000000; stroke-width: 0.8; stroke-linejoin: miter; stroke-linecap: square"/>
   </g>
   <g id="legend_1">
    <g id="patch_256">
     <path d="M 64.6 93.506375 
L 226.879687 93.506375 
Q 228.879687 93.506375 228.879687 91.506375 
L 228.879687 48.472 
Q 228.879687 46.472 226.879687 46.472 
L 64.6 46.472 
Q 62.6 46.472 62.6 48.472 
L 62.6 91.506375 
Q 62.6 93.506375 64.6 93.506375 
z
" style="fill: #ffffff; opacity: 0.8; stroke: #cccccc; stroke-linejoin: miter"/>
    </g>
    <g id="line2d_70">
     <path d="M 66.6 54.570438 
L 86.6 54.570438 
" style="fill: none; stroke-dasharray: 5.55,2.4; stroke-dashoffset: 0; stroke: #2ca02c; stroke-width: 1.5"/>
    </g>
    <g id="text_16">
     <!-- Umbral: -3,1 V -->
     <g transform="translate(94.6 58.070438) scale(0.1 -0.1)">
      <defs>
       <path id="DejaVuSans-55" d="M 556 4666 
L 1191 4666 
L 1191 1831 
Q 1191 1081 1462 751 
Q 1734 422 2344 422 
Q 2950 422 3222 751 
Q 3494 1081 3494 1831 
L 3494 4666 
L 4128 4666 
L 4128 1753 
Q 4128 841 3676 375 
Q 3225 -91 2344 -91 
Q 1459 -91 1007 375 
Q 556 841 556 1753 
L 556 4666 
z
" transform="scale(0.015625)"/>
       <path id="DejaVuSans-62" d="M 3116 1747 
Q 3116 2381 2855 2742 
Q 2594 3103 2138 3103 
Q 1681 3103 1420 2742 
Q 1159 2381 1159 1747 
Q 1159 1113 1420 752 
Q 1681 391 2138 391 
Q 2594 391 2855 752 
Q 3116 1113 3116 1747 
z
M 1159 2969 
Q 1341 3281 1617 3432 
Q 1894 3584 2278 3584 
Q 2916 3584 3314 3078 
Q 3713 2572 3713 1747 
Q 3713 922 3314 415 
Q 2916 -91 2278 -91 
Q 1894 -91 1617 61 
Q 1341 213 1159 525 
L 1159 0 
L 581 0 
L 581 4863 
L 1159 4863 
L 1159 2969 
z
" transform="scale(0.015625)"/>
       <path id="DejaVuSans-61" d="M 2194 1759 
Q 1497 1759 1228 1600 
Q 959 1441 959 1056 
Q 959 750 1161 570 
Q 1363 391 1709 391 
Q 2188 391 2477 730 
Q 2766 1069 2766 1631 
L 2766 1759 
L 2194 1759 
z
M 3341 1997 
L 3341 0 
L 2766 0 
L 2766 531 
Q 2569 213 2275 61 
Q 1981 -91 1556 -91 
Q 1019 -91 701 211 
Q 384 513 384 1019 
Q 384 1609 779 1909 
Q 1175 2209 1959 2209 
L 2766 2209 
L 2766 2266 
Q 2766 2663 2505 2880 
Q 2244 3097 1772 3097 
Q 1472 3097 1187 3025 
Q 903 2953 641 2809 
L 641 3341 
Q 956 3463 1253 3523 
Q 1550 3584 1831 3584 
Q 2591 3584 2966 3190 
Q 3341 2797 3341 1997 
z
" transform="scale(0.015625)"/>
       <path id="DejaVuSans-6c" d="M 603 4863 
L 1178 4863 
L 1178 0 
L 603 0 
L 603 4863 
z
" transform="scale(0.015625)"/>
       <path id="DejaVuSans-3a" d="M 750 794 
L 1409 794 
L 1409 0 
L 750 0 
L 750 794 
z
M 750 3309 
L 1409 3309 
L 1409 2516 
L 750 2516 
L 750 3309 
z
" transform="scale(0.015625)"/>
       <path id="DejaVuSans-2d" d="M 313 2009 
L 1997 2009 
L 1997 1497 
L 313 1497 
L 313 2009 
z
" transform="scale(0.015625)"/>
       <path id="DejaVuSans-2c" d="M 750 794 
L 1409 794 
L 1409 256 
L 897 -744 
L 494 -744 
L 750 256 
L 750 794 
z
" transform="scale(0.015625)"/>
      </defs>
      <use xlink:href="#DejaVuSans-55"/>
      <use xlink:href="#DejaVuSans-6d" x="73.193359"/>
      <use xlink:href="#DejaVuSans-62" x="170.605469"/>
      <use xlink:href="#DejaVuSans-72" x="234.082031"/>
      <use xlink:href="#DejaVuSans-61" x="275.195312"/>
      <use xlink:href="#DejaVuSans-6c" x="336.474609"/>
      <use xlink:href="#DejaVuSans-3a" x="364.257812"/>
      <use xlink:href="#DejaVuSans-20" x="397.949219"/>
      <use xlink:href="#DejaVuSans-2d" x="429.736328"/>
      <use xlink:href="#DejaVuSans-33" x="465.820312"/>
      <use xlink:href="#DejaVuSans-2c" x="529.443359"/>
      <use xlink:href="#DejaVuSans-31" x="561.230469"/>
      <use xlink:href="#DejaVuSans-20" x="624.853516"/>
      <use xlink:href="#DejaVuSans-56" x="656.640625"/>
     </g>
    </g>
    <g id="patch_257">
     <path d="M 66.6 72.748563 
L 86.6 72.748563 
L 86.6 65.748563 
L 66.6 65.748563 
z
" style="fill: #ff7f0e"/>
    </g>
    <g id="text_17">
     <!-- Laser incidiendo sobre FM -->
     <g transform="translate(94.6 72.748563) scale(0.1 -0.1)">
      <defs>
       <path id="DejaVuSans-4c" d="M 628 4666 
L 1259 4666 
L 1259 531 
L 3531 531 
L 3531 0 
L 628 0 
L 628 4666 
z
" transform="scale(0.015625)"/>
       <path id="DejaVuSans-63" d="M 3122 3366 
L 3122 2828 
Q 2878 2963 2633 3030 
Q 2388 3097 2138 3097 
Q 1578 3097 1268 2742 
Q 959 2388 959 1747 
Q 959 1106 1268 751 
Q 1578 397 2138 397 
Q 2388 397 2633 464 
Q 2878 531 3122 666 
L 3122 134 
Q 2881 22 2623 -34 
Q 2366 -91 2075 -91 
Q 1284 -91 818 406 
Q 353 903 353 1747 
Q 353 2603 823 3093 
Q 1294 3584 2113 3584 
Q 2378 3584 2631 3529 
Q 2884 3475 3122 3366 
z
" transform="scale(0.015625)"/>
       <path id="DejaVuSans-46" d="M 628 4666 
L 3309 4666 
L 3309 4134 
L 1259 4134 
L 1259 2759 
L 3109 2759 
L 3109 2228 
L 1259 2228 
L 1259 0 
L 628 0 
L 628 4666 
z
" transform="scale(0.015625)"/>
       <path id="DejaVuSans-4d" d="M 628 4666 
L 1569 4666 
L 2759 1491 
L 3956 4666 
L 4897 4666 
L 4897 0 
L 4281 0 
L 4281 4097 
L 3078 897 
L 2444 897 
L 1241 4097 
L 1241 0 
L 628 0 
L 628 4666 
z
" transform="scale(0.015625)"/>
      </defs>
      <use xlink:href="#DejaVuSans-4c"/>
      <use xlink:href="#DejaVuSans-61" x="55.712891"/>
      <use xlink:href="#DejaVuSans-73" x="116.992188"/>
      <use xlink:href="#DejaVuSans-65" x="169.091797"/>
      <use xlink:href="#DejaVuSans-72" x="230.615234"/>
      <use xlink:href="#DejaVuSans-20" x="271.728516"/>
      <use xlink:href="#DejaVuSans-69" x="303.515625"/>
      <use xlink:href="#DejaVuSans-6e" x="331.298828"/>
      <use xlink:href="#DejaVuSans-63" x="394.677734"/>
      <use xlink:href="#DejaVuSans-69" x="449.658203"/>
      <use xlink:href="#DejaVuSans-64" x="477.441406"/>
      <use xlink:href="#DejaVuSans-69" x="540.917969"/>
      <use xlink:href="#DejaVuSans-65" x="568.701172"/>
      <use xlink:href="#DejaVuSans-6e" x="630.224609"/>
      <use xlink:href="#DejaVuSans-64" x="693.603516"/>
      <use xlink:href="#DejaVuSans-6f" x="757.080078"/>
      <use xlink:href="#DejaVuSans-20" x="818.261719"/>
      <use xlink:href="#DejaVuSans-73" x="850.048828"/>
      <use xlink:href="#DejaVuSans-6f" x="902.148438"/>
      <use xlink:href="#DejaVuSans-62" x="963.330078"/>
      <use xlink:href="#DejaVuSans-72" x="1026.806641"/>
      <use xlink:href="#DejaVuSans-65" x="1065.669922"/>
      <use xlink:href="#DejaVuSans-20" x="1127.193359"/>
      <use xlink:href="#DejaVuSans-46" x="1158.980469"/>
      <use xlink:href="#DejaVuSans-4d" x="1216.5"/>
     </g>
    </g>
    <g id="patch_258">
     <path d="M 66.6 87.426688 
L 86.6 87.426688 
L 86.6 80.426688 
L 66.6 80.426688 
z
" style="fill: #1f77b4"/>
    </g>
    <g id="text_18">
     <!-- Ruido -->
     <g transform="translate(94.6 87.426688) scale(0.1 -0.1)">
      <defs>
       <path id="DejaVuSans-52" d="M 2841 2188 
Q 3044 2119 3236 1894 
Q 3428 1669 3622 1275 
L 4263 0 
L 3584 0 
L 2988 1197 
Q 2756 1666 2539 1819 
Q 2322 1972 1947 1972 
L 1259 1972 
L 1259 0 
L 628 0 
L 628 4666 
L 2053 4666 
Q 2853 4666 3247 4331 
Q 3641 3997 3641 3322 
Q 3641 2881 3436 2590 
Q 3231 2300 2841 2188 
z
M 1259 4147 
L 1259 2491 
L 2053 2491 
Q 2509 2491 2742 2702 
Q 2975 2913 2975 3322 
Q 2975 3731 2742 3939 
Q 2509 4147 2053 4147 
L 1259 4147 
z
" transform="scale(0.015625)"/>
       <path id="DejaVuSans-75" d="M 544 1381 
L 544 3500 
L 1119 3500 
L 1119 1403 
Q 1119 906 1312 657 
Q 1506 409 1894 409 
Q 2359 409 2629 706 
Q 2900 1003 2900 1516 
L 2900 3500 
L 3475 3500 
L 3475 0 
L 2900 0 
L 2900 538 
Q 2691 219 2414 64 
Q 2138 -91 1772 -91 
Q 1169 -91 856 284 
Q 544 659 544 1381 
z
M 1991 3584 
L 1991 3584 
z
" transform="scale(0.015625)"/>
      </defs>
      <use xlink:href="#DejaVuSans-52"/>
      <use xlink:href="#DejaVuSans-75" x="64.982422"/>
      <use xlink:href="#DejaVuSans-69" x="128.361328"/>
      <use xlink:href="#DejaVuSans-64" x="156.144531"/>
      <use xlink:href="#DejaVuSans-6f" x="219.621094"/>
     </g>
    </g>
   </g>
  </g>
 </g>
 <defs>
  <clipPath id="p2a5bc71905">
   <rect x="57.6" y="41.472" width="357.12" height="266.112"/>
  </clipPath>
 </defs>
</svg>
