<?xml version="1.0" encoding="utf-8" standalone="no"?>
<!DOCTYPE svg PUBLIC "-//W3C//DTD SVG 1.1//EN"
  "http://www.w3.org/Graphics/SVG/1.1/DTD/svg11.dtd">
<svg xmlns:xlink="http://www.w3.org/1999/xlink" width="460.8pt" height="345.6pt" viewBox="0 0 460.8 345.6" xmlns="http://www.w3.org/2000/svg" version="1.1">
 <metadata>
  <rdf:RDF xmlns:dc="http://purl.org/dc/elements/1.1/" xmlns:cc="http://creativecommons.org/ns#" xmlns:rdf="http://www.w3.org/1999/02/22-rdf-syntax-ns#">
   <cc:Work>
    <dc:type rdf:resource="http://purl.org/dc/dcmitype/StillImage"/>
    <dc:date>2023-03-21T16:39:25.669670</dc:date>
    <dc:format>image/svg+xml</dc:format>
    <dc:creator>
     <cc:Agent>
      <dc:title>Matplotlib v3.6.2, https://matplotlib.org/</dc:title>
     </cc:Agent>
    </dc:creator>
   </cc:Work>
  </rdf:RDF>
 </metadata>
 <defs>
  <style type="text/css">*{stroke-linejoin: round; stroke-linecap: butt}</style>
 </defs>
 <g id="figure_1">
  <g id="patch_1">
   <path d="M 0 345.6 
L 460.8 345.6 
L 460.8 0 
L 0 0 
z
" style="fill: #ffffff"/>
  </g>
  <g id="axes_1">
   <g id="patch_2">
    <path d="M 57.6 162.432 
L 414.72 162.432 
L 414.72 41.472 
L 57.6 41.472 
z
" style="fill: #ffffff"/>
   </g>
   <g id="matplotlib.axis_1">
    <g id="xtick_1">
     <g id="line2d_1">
      <path d="M 78.069026 162.432 
L 78.069026 41.472 
" clip-path="url(#p4df814a0ad)" style="fill: none; stroke: #b0b0b0; stroke-opacity: 0.3; stroke-width: 0.8; stroke-linecap: square"/>
     </g>
     <g id="line2d_2">
      <defs>
       <path id="mb4270ab6f1" d="M 0 0 
L 0 3.5 
" style="stroke: #000000; stroke-width: 0.8"/>
      </defs>
      <g>
       <use xlink:href="#mb4270ab6f1" x="78.069026" y="162.432" style="stroke: #000000; stroke-width: 0.8"/>
      </g>
     </g>
    </g>
    <g id="xtick_2">
     <g id="line2d_3">
      <path d="M 155.092643 162.432 
L 155.092643 41.472 
" clip-path="url(#p4df814a0ad)" style="fill: none; stroke: #b0b0b0; stroke-opacity: 0.3; stroke-width: 0.8; stroke-linecap: square"/>
     </g>
     <g id="line2d_4">
      <g>
       <use xlink:href="#mb4270ab6f1" x="155.092643" y="162.432" style="stroke: #000000; stroke-width: 0.8"/>
      </g>
     </g>
    </g>
    <g id="xtick_3">
     <g id="line2d_5">
      <path d="M 232.11626 162.432 
L 232.11626 41.472 
" clip-path="url(#p4df814a0ad)" style="fill: none; stroke: #b0b0b0; stroke-opacity: 0.3; stroke-width: 0.8; stroke-linecap: square"/>
     </g>
     <g id="line2d_6">
      <g>
       <use xlink:href="#mb4270ab6f1" x="232.11626" y="162.432" style="stroke: #000000; stroke-width: 0.8"/>
      </g>
     </g>
    </g>
    <g id="xtick_4">
     <g id="line2d_7">
      <path d="M 309.139877 162.432 
L 309.139877 41.472 
" clip-path="url(#p4df814a0ad)" style="fill: none; stroke: #b0b0b0; stroke-opacity: 0.3; stroke-width: 0.8; stroke-linecap: square"/>
     </g>
     <g id="line2d_8">
      <g>
       <use xlink:href="#mb4270ab6f1" x="309.139877" y="162.432" style="stroke: #000000; stroke-width: 0.8"/>
      </g>
     </g>
    </g>
    <g id="xtick_5">
     <g id="line2d_9">
      <path d="M 386.163494 162.432 
L 386.163494 41.472 
" clip-path="url(#p4df814a0ad)" style="fill: none; stroke: #b0b0b0; stroke-opacity: 0.3; stroke-width: 0.8; stroke-linecap: square"/>
     </g>
     <g id="line2d_10">
      <g>
       <use xlink:href="#mb4270ab6f1" x="386.163494" y="162.432" style="stroke: #000000; stroke-width: 0.8"/>
      </g>
     </g>
    </g>
   </g>
   <g id="matplotlib.axis_2">
    <g id="ytick_1">
     <g id="line2d_11">
      <path d="M 57.6 150.33116 
L 414.72 150.33116 
" clip-path="url(#p4df814a0ad)" style="fill: none; stroke: #b0b0b0; stroke-opacity: 0.3; stroke-width: 0.8; stroke-linecap: square"/>
     </g>
     <g id="line2d_12">
      <defs>
       <path id="mfcbcdc4409" d="M 0 0 
L -3.5 0 
" style="stroke: #000000; stroke-width: 0.8"/>
      </defs>
      <g>
       <use xlink:href="#mfcbcdc4409" x="57.6" y="150.33116" style="stroke: #000000; stroke-width: 0.8"/>
      </g>
     </g>
     <g id="text_1">
      <!-- −0.2 -->
      <g transform="translate(26.317187 154.130378) scale(0.1 -0.1)">
       <defs>
        <path id="DejaVuSans-2212" d="M 678 2272 
L 4684 2272 
L 4684 1741 
L 678 1741 
L 678 2272 
z
" transform="scale(0.015625)"/>
        <path id="DejaVuSans-30" d="M 2034 4250 
Q 1547 4250 1301 3770 
Q 1056 3291 1056 2328 
Q 1056 1369 1301 889 
Q 1547 409 2034 409 
Q 2525 409 2770 889 
Q 3016 1369 3016 2328 
Q 3016 3291 2770 3770 
Q 2525 4250 2034 4250 
z
M 2034 4750 
Q 2819 4750 3233 4129 
Q 3647 3509 3647 2328 
Q 3647 1150 3233 529 
Q 2819 -91 2034 -91 
Q 1250 -91 836 529 
Q 422 1150 422 2328 
Q 422 3509 836 4129 
Q 1250 4750 2034 4750 
z
" transform="scale(0.015625)"/>
        <path id="DejaVuSans-2e" d="M 684 794 
L 1344 794 
L 1344 0 
L 684 0 
L 684 794 
z
" transform="scale(0.015625)"/>
        <path id="DejaVuSans-32" d="M 1228 531 
L 3431 531 
L 3431 0 
L 469 0 
L 469 531 
Q 828 903 1448 1529 
Q 2069 2156 2228 2338 
Q 2531 2678 2651 2914 
Q 2772 3150 2772 3378 
Q 2772 3750 2511 3984 
Q 2250 4219 1831 4219 
Q 1534 4219 1204 4116 
Q 875 4013 500 3803 
L 500 4441 
Q 881 4594 1212 4672 
Q 1544 4750 1819 4750 
Q 2544 4750 2975 4387 
Q 3406 4025 3406 3419 
Q 3406 3131 3298 2873 
Q 3191 2616 2906 2266 
Q 2828 2175 2409 1742 
Q 1991 1309 1228 531 
z
" transform="scale(0.015625)"/>
       </defs>
       <use xlink:href="#DejaVuSans-2212"/>
       <use xlink:href="#DejaVuSans-30" x="83.789062"/>
       <use xlink:href="#DejaVuSans-2e" x="147.412109"/>
       <use xlink:href="#DejaVuSans-32" x="179.199219"/>
      </g>
     </g>
    </g>
    <g id="ytick_2">
     <g id="line2d_13">
      <path d="M 57.6 126.129479 
L 414.72 126.129479 
" clip-path="url(#p4df814a0ad)" style="fill: none; stroke: #b0b0b0; stroke-opacity: 0.3; stroke-width: 0.8; stroke-linecap: square"/>
     </g>
     <g id="line2d_14">
      <g>
       <use xlink:href="#mfcbcdc4409" x="57.6" y="126.129479" style="stroke: #000000; stroke-width: 0.8"/>
      </g>
     </g>
     <g id="text_2">
      <!-- −0.1 -->
      <g transform="translate(26.317187 129.928698) scale(0.1 -0.1)">
       <defs>
        <path id="DejaVuSans-31" d="M 794 531 
L 1825 531 
L 1825 4091 
L 703 3866 
L 703 4441 
L 1819 4666 
L 2450 4666 
L 2450 531 
L 3481 531 
L 3481 0 
L 794 0 
L 794 531 
z
" transform="scale(0.015625)"/>
       </defs>
       <use xlink:href="#DejaVuSans-2212"/>
       <use xlink:href="#DejaVuSans-30" x="83.789062"/>
       <use xlink:href="#DejaVuSans-2e" x="147.412109"/>
       <use xlink:href="#DejaVuSans-31" x="179.199219"/>
      </g>
     </g>
    </g>
    <g id="ytick_3">
     <g id="line2d_15">
      <path d="M 57.6 101.927798 
L 414.72 101.927798 
" clip-path="url(#p4df814a0ad)" style="fill: none; stroke: #b0b0b0; stroke-opacity: 0.3; stroke-width: 0.8; stroke-linecap: square"/>
     </g>
     <g id="line2d_16">
      <g>
       <use xlink:href="#mfcbcdc4409" x="57.6" y="101.927798" style="stroke: #000000; stroke-width: 0.8"/>
      </g>
     </g>
     <g id="text_3">
      <!-- 0.0 -->
      <g transform="translate(34.696875 105.727017) scale(0.1 -0.1)">
       <use xlink:href="#DejaVuSans-30"/>
       <use xlink:href="#DejaVuSans-2e" x="63.623047"/>
       <use xlink:href="#DejaVuSans-30" x="95.410156"/>
      </g>
     </g>
    </g>
    <g id="ytick_4">
     <g id="line2d_17">
      <path d="M 57.6 77.726118 
L 414.72 77.726118 
" clip-path="url(#p4df814a0ad)" style="fill: none; stroke: #b0b0b0; stroke-opacity: 0.3; stroke-width: 0.8; stroke-linecap: square"/>
     </g>
     <g id="line2d_18">
      <g>
       <use xlink:href="#mfcbcdc4409" x="57.6" y="77.726118" style="stroke: #000000; stroke-width: 0.8"/>
      </g>
     </g>
     <g id="text_4">
      <!-- 0.1 -->
      <g transform="translate(34.696875 81.525336) scale(0.1 -0.1)">
       <use xlink:href="#DejaVuSans-30"/>
       <use xlink:href="#DejaVuSans-2e" x="63.623047"/>
       <use xlink:href="#DejaVuSans-31" x="95.410156"/>
      </g>
     </g>
    </g>
    <g id="ytick_5">
     <g id="line2d_19">
      <path d="M 57.6 53.524437 
L 414.72 53.524437 
" clip-path="url(#p4df814a0ad)" style="fill: none; stroke: #b0b0b0; stroke-opacity: 0.3; stroke-width: 0.8; stroke-linecap: square"/>
     </g>
     <g id="line2d_20">
      <g>
       <use xlink:href="#mfcbcdc4409" x="57.6" y="53.524437" style="stroke: #000000; stroke-width: 0.8"/>
      </g>
     </g>
     <g id="text_5">
      <!-- 0.2 -->
      <g transform="translate(34.696875 57.323656) scale(0.1 -0.1)">
       <use xlink:href="#DejaVuSans-30"/>
       <use xlink:href="#DejaVuSans-2e" x="63.623047"/>
       <use xlink:href="#DejaVuSans-32" x="95.410156"/>
      </g>
     </g>
    </g>
    <g id="text_6">
     <!-- Tiempo [$\mu$s] -->
     <g transform="translate(20.217187 131.852) rotate(-90) scale(0.1 -0.1)">
      <defs>
       <path id="DejaVuSans-54" d="M -19 4666 
L 3928 4666 
L 3928 4134 
L 2272 4134 
L 2272 0 
L 1638 0 
L 1638 4134 
L -19 4134 
L -19 4666 
z
" transform="scale(0.015625)"/>
       <path id="DejaVuSans-69" d="M 603 3500 
L 1178 3500 
L 1178 0 
L 603 0 
L 603 3500 
z
M 603 4863 
L 1178 4863 
L 1178 4134 
L 603 4134 
L 603 4863 
z
" transform="scale(0.015625)"/>
       <path id="DejaVuSans-65" d="M 3597 1894 
L 3597 1613 
L 953 1613 
Q 991 1019 1311 708 
Q 1631 397 2203 397 
Q 2534 397 2845 478 
Q 3156 559 3463 722 
L 3463 178 
Q 3153 47 2828 -22 
Q 2503 -91 2169 -91 
Q 1331 -91 842 396 
Q 353 884 353 1716 
Q 353 2575 817 3079 
Q 1281 3584 2069 3584 
Q 2775 3584 3186 3129 
Q 3597 2675 3597 1894 
z
M 3022 2063 
Q 3016 2534 2758 2815 
Q 2500 3097 2075 3097 
Q 1594 3097 1305 2825 
Q 1016 2553 972 2059 
L 3022 2063 
z
" transform="scale(0.015625)"/>
       <path id="DejaVuSans-6d" d="M 3328 2828 
Q 3544 3216 3844 3400 
Q 4144 3584 4550 3584 
Q 5097 3584 5394 3201 
Q 5691 2819 5691 2113 
L 5691 0 
L 5113 0 
L 5113 2094 
Q 5113 2597 4934 2840 
Q 4756 3084 4391 3084 
Q 3944 3084 3684 2787 
Q 3425 2491 3425 1978 
L 3425 0 
L 2847 0 
L 2847 2094 
Q 2847 2600 2669 2842 
Q 2491 3084 2119 3084 
Q 1678 3084 1418 2786 
Q 1159 2488 1159 1978 
L 1159 0 
L 581 0 
L 581 3500 
L 1159 3500 
L 1159 2956 
Q 1356 3278 1631 3431 
Q 1906 3584 2284 3584 
Q 2666 3584 2933 3390 
Q 3200 3197 3328 2828 
z
" transform="scale(0.015625)"/>
       <path id="DejaVuSans-70" d="M 1159 525 
L 1159 -1331 
L 581 -1331 
L 581 3500 
L 1159 3500 
L 1159 2969 
Q 1341 3281 1617 3432 
Q 1894 3584 2278 3584 
Q 2916 3584 3314 3078 
Q 3713 2572 3713 1747 
Q 3713 922 3314 415 
Q 2916 -91 2278 -91 
Q 1894 -91 1617 61 
Q 1341 213 1159 525 
z
M 3116 1747 
Q 3116 2381 2855 2742 
Q 2594 3103 2138 3103 
Q 1681 3103 1420 2742 
Q 1159 2381 1159 1747 
Q 1159 1113 1420 752 
Q 1681 391 2138 391 
Q 2594 391 2855 752 
Q 3116 1113 3116 1747 
z
" transform="scale(0.015625)"/>
       <path id="DejaVuSans-6f" d="M 1959 3097 
Q 1497 3097 1228 2736 
Q 959 2375 959 1747 
Q 959 1119 1226 758 
Q 1494 397 1959 397 
Q 2419 397 2687 759 
Q 2956 1122 2956 1747 
Q 2956 2369 2687 2733 
Q 2419 3097 1959 3097 
z
M 1959 3584 
Q 2709 3584 3137 3096 
Q 3566 2609 3566 1747 
Q 3566 888 3137 398 
Q 2709 -91 1959 -91 
Q 1206 -91 779 398 
Q 353 888 353 1747 
Q 353 2609 779 3096 
Q 1206 3584 1959 3584 
z
" transform="scale(0.015625)"/>
       <path id="DejaVuSans-20" transform="scale(0.015625)"/>
       <path id="DejaVuSans-5b" d="M 550 4863 
L 1875 4863 
L 1875 4416 
L 1125 4416 
L 1125 -397 
L 1875 -397 
L 1875 -844 
L 550 -844 
L 550 4863 
z
" transform="scale(0.015625)"/>
       <path id="DejaVuSans-Oblique-3bc" d="M -84 -1331 
L 856 3500 
L 1434 3500 
L 1009 1322 
Q 997 1256 987 1175 
Q 978 1094 978 1013 
Q 978 722 1161 565 
Q 1344 409 1684 409 
Q 2147 409 2431 671 
Q 2716 934 2816 1459 
L 3213 3500 
L 3788 3500 
L 3266 809 
Q 3253 750 3248 706 
Q 3244 663 3244 628 
Q 3244 531 3283 486 
Q 3322 441 3406 441 
Q 3438 441 3492 456 
Q 3547 472 3647 513 
L 3559 50 
Q 3422 -19 3297 -55 
Q 3172 -91 3053 -91 
Q 2847 -91 2730 40 
Q 2613 172 2613 403 
Q 2438 153 2195 31 
Q 1953 -91 1625 -91 
Q 1334 -91 1117 43 
Q 900 178 831 397 
L 494 -1331 
L -84 -1331 
z
" transform="scale(0.015625)"/>
       <path id="DejaVuSans-73" d="M 2834 3397 
L 2834 2853 
Q 2591 2978 2328 3040 
Q 2066 3103 1784 3103 
Q 1356 3103 1142 2972 
Q 928 2841 928 2578 
Q 928 2378 1081 2264 
Q 1234 2150 1697 2047 
L 1894 2003 
Q 2506 1872 2764 1633 
Q 3022 1394 3022 966 
Q 3022 478 2636 193 
Q 2250 -91 1575 -91 
Q 1294 -91 989 -36 
Q 684 19 347 128 
L 347 722 
Q 666 556 975 473 
Q 1284 391 1588 391 
Q 1994 391 2212 530 
Q 2431 669 2431 922 
Q 2431 1156 2273 1281 
Q 2116 1406 1581 1522 
L 1381 1569 
Q 847 1681 609 1914 
Q 372 2147 372 2553 
Q 372 3047 722 3315 
Q 1072 3584 1716 3584 
Q 2034 3584 2315 3537 
Q 2597 3491 2834 3397 
z
" transform="scale(0.015625)"/>
       <path id="DejaVuSans-5d" d="M 1947 4863 
L 1947 -844 
L 622 -844 
L 622 -397 
L 1369 -397 
L 1369 4416 
L 622 4416 
L 622 4863 
L 1947 4863 
z
" transform="scale(0.015625)"/>
      </defs>
      <use xlink:href="#DejaVuSans-54" transform="translate(0 0.015625)"/>
      <use xlink:href="#DejaVuSans-69" transform="translate(61.083984 0.015625)"/>
      <use xlink:href="#DejaVuSans-65" transform="translate(88.867188 0.015625)"/>
      <use xlink:href="#DejaVuSans-6d" transform="translate(150.390625 0.015625)"/>
      <use xlink:href="#DejaVuSans-70" transform="translate(247.802734 0.015625)"/>
      <use xlink:href="#DejaVuSans-6f" transform="translate(311.279297 0.015625)"/>
      <use xlink:href="#DejaVuSans-20" transform="translate(372.460938 0.015625)"/>
      <use xlink:href="#DejaVuSans-5b" transform="translate(404.248047 0.015625)"/>
      <use xlink:href="#DejaVuSans-Oblique-3bc" transform="translate(443.261719 0.015625)"/>
      <use xlink:href="#DejaVuSans-73" transform="translate(506.884766 0.015625)"/>
      <use xlink:href="#DejaVuSans-5d" transform="translate(558.984375 0.015625)"/>
     </g>
    </g>
   </g>
   <g id="line2d_21">
    <path d="M 370.758771 162.432 
L 376.92066 162.238387 
L 376.92066 162.189983 
L 383.082549 161.99637 
L 383.082549 161.947966 
L 386.163494 161.802756 
L 386.163494 161.657546 
L 383.082549 161.512336 
L 383.082549 161.367126 
L 380.001605 161.270319 
L 383.082549 161.125109 
L 383.082549 161.028303 
L 386.163494 160.931496 
L 380.001605 160.737882 
L 380.001605 160.689479 
L 373.839715 160.495866 
L 373.839715 160.447462 
L 370.758771 160.302252 
L 370.758771 160.253849 
L 383.082549 159.963429 
L 383.082549 159.915025 
L 389.244439 159.721412 
L 389.244439 159.479395 
L 386.163494 159.334185 
L 386.163494 159.237378 
L 383.082549 159.092168 
L 383.082549 158.511328 
L 376.92066 158.317714 
L 376.92066 158.269311 
L 364.596881 157.978891 
L 364.596881 157.833681 
L 376.92066 157.543261 
L 376.92066 157.301244 
L 370.758771 157.10763 
L 370.758771 157.059227 
L 367.677826 156.914017 
L 367.677826 156.720403 
L 373.839715 156.52679 
L 373.839715 156.429983 
L 376.92066 156.284773 
L 376.92066 156.09116 
L 370.758771 155.897546 
L 370.758771 155.849143 
L 367.677826 155.703933 
L 367.677826 155.558723 
L 392.325383 155.074689 
L 392.325383 155.026286 
L 383.082549 154.784269 
L 383.082549 154.735866 
L 376.92066 154.542252 
L 376.92066 154.445445 
L 380.001605 154.300235 
L 380.001605 154.203429 
L 383.082549 154.058218 
L 355.354047 153.525782 
L 355.354047 153.332168 
L 389.244439 152.702924 
L 389.244439 152.460908 
L 386.163494 152.315697 
L 386.163494 152.218891 
L 383.082549 152.073681 
L 383.082549 151.880067 
L 389.244439 151.686454 
L 389.244439 151.63805 
L 361.515937 151.299227 
L 296.816098 150.718387 
L 296.816098 150.669983 
L 293.735154 150.573176 
L 306.058932 150.282756 
L 306.058932 150.234353 
L 302.977988 150.089143 
L 302.977988 150.040739 
L 299.897043 149.895529 
L 299.897043 149.701916 
L 349.192158 148.830655 
L 349.192158 148.491832 
L 367.677826 148.104605 
L 367.677826 148.007798 
L 370.758771 147.862588 
L 364.596881 147.668975 
L 364.596881 147.620571 
L 361.515937 147.475361 
L 361.515937 147.233345 
L 364.596881 147.136538 
L 358.434992 146.942924 
L 358.434992 146.894521 
L 352.273103 146.700908 
L 352.273103 146.555697 
L 361.515937 146.313681 
L 361.515937 146.265277 
L 376.92066 145.926454 
L 376.92066 145.87805 
L 383.082549 145.684437 
L 383.082549 145.539227 
L 386.163494 145.44242 
L 383.082549 145.29721 
L 383.082549 145.00679 
L 386.163494 144.86158 
L 386.163494 144.71637 
L 373.839715 144.42595 
L 373.839715 144.377546 
L 367.677826 144.183933 
L 367.677826 144.038723 
L 370.758771 143.893513 
L 370.758771 143.796706 
L 373.839715 143.651496 
L 373.839715 143.554689 
L 376.92066 143.409479 
L 376.92066 143.215866 
L 373.839715 143.070655 
L 373.839715 143.022252 
L 367.677826 142.828639 
L 367.677826 142.538218 
L 361.515937 142.344605 
L 361.515937 142.296202 
L 358.434992 142.150992 
L 358.434992 142.102588 
L 361.515937 141.957378 
L 361.515937 141.860571 
L 367.677826 141.666958 
L 367.677826 141.618555 
L 370.758771 141.473345 
L 370.758771 141.376538 
L 376.92066 141.182924 
L 376.92066 141.134521 
L 380.001605 140.989311 
L 380.001605 140.844101 
L 373.839715 140.650487 
L 373.839715 140.602084 
L 367.677826 140.408471 
L 367.677826 140.360067 
L 361.515937 140.166454 
L 361.515937 140.11805 
L 355.354047 139.924437 
L 355.354047 139.68242 
L 370.758771 139.343597 
L 370.758771 139.295193 
L 373.839715 139.149983 
L 370.758771 139.004773 
L 370.758771 138.714353 
L 376.92066 138.520739 
L 376.92066 138.472336 
L 383.082549 138.278723 
L 383.082549 138.181916 
L 361.515937 137.746286 
L 361.515937 137.697882 
L 358.434992 137.552672 
L 358.434992 137.407462 
L 370.758771 137.117042 
L 370.758771 137.068639 
L 380.001605 136.826622 
L 380.001605 136.778218 
L 383.082549 136.681412 
L 380.001605 136.536202 
L 380.001605 136.487798 
L 376.92066 136.342588 
L 376.92066 136.294185 
L 383.082549 136.100571 
L 383.082549 136.052168 
L 389.244439 135.858555 
L 389.244439 135.761748 
L 376.92066 135.471328 
L 376.92066 135.422924 
L 373.839715 135.277714 
L 373.839715 135.084101 
L 395.406328 134.648471 
L 395.406328 134.600067 
L 398.487273 134.551664 
L 395.406328 134.503261 
L 395.406328 134.454857 
L 373.839715 134.019227 
L 373.839715 133.874017 
L 376.92066 133.728807 
L 376.92066 133.680403 
L 380.001605 133.583597 
L 373.839715 133.389983 
L 373.839715 133.34158 
L 352.273103 132.90595 
L 352.273103 132.760739 
L 383.082549 132.179899 
L 383.082549 132.131496 
L 376.92066 131.937882 
L 376.92066 131.889479 
L 370.758771 131.695866 
L 370.758771 131.647462 
L 367.677826 131.502252 
L 367.677826 131.308639 
L 373.839715 131.115025 
L 355.354047 130.727798 
L 355.354047 130.679395 
L 352.273103 130.534185 
L 352.273103 130.485782 
L 398.487273 129.662924 
L 380.001605 129.275697 
L 380.001605 129.227294 
L 376.92066 129.082084 
L 376.92066 128.985277 
L 370.758771 128.791664 
L 370.758771 128.743261 
L 367.677826 128.59805 
L 367.677826 128.501244 
L 361.515937 128.30763 
L 361.515937 128.259227 
L 358.434992 128.114017 
L 358.434992 128.065613 
L 380.001605 127.629983 
L 380.001605 127.58158 
L 383.082549 127.484773 
L 364.596881 127.097546 
L 364.596881 127.049143 
L 358.434992 126.855529 
L 358.434992 126.613513 
L 361.515937 126.468303 
L 361.515937 126.323092 
L 349.192158 126.032672 
L 349.192158 125.742252 
L 358.434992 125.500235 
L 358.434992 125.451832 
L 376.92066 125.064605 
L 376.92066 124.870992 
L 364.596881 124.580571 
L 364.596881 123.467294 
L 386.163494 123.031664 
L 386.163494 122.983261 
L 392.325383 122.789647 
L 392.325383 122.69284 
L 386.163494 122.499227 
L 386.163494 122.450824 
L 370.758771 122.112 
L 370.758771 122.063597 
L 373.839715 121.96679 
L 370.758771 121.82158 
L 370.758771 121.67637 
L 367.677826 121.579563 
L 370.758771 121.434353 
L 370.758771 121.289143 
L 373.839715 121.143933 
L 373.839715 121.047126 
L 380.001605 120.853513 
L 380.001605 120.805109 
L 383.082549 120.659899 
L 383.082549 120.611496 
L 386.163494 120.466286 
L 386.163494 119.740235 
L 383.082549 119.595025 
L 383.082549 119.546622 
L 376.92066 119.353008 
L 376.92066 119.256202 
L 373.839715 119.207798 
L 376.92066 119.159395 
L 376.92066 118.142924 
L 380.001605 117.997714 
L 380.001605 117.658891 
L 383.082549 117.513681 
L 383.082549 117.126454 
L 376.92066 116.93284 
L 376.92066 116.884437 
L 370.758771 116.690824 
L 370.758771 116.64242 
L 367.677826 116.49721 
L 367.677826 116.448807 
L 370.758771 116.303597 
L 370.758771 116.255193 
L 373.839715 116.158387 
L 361.515937 115.867966 
L 361.515937 115.819563 
L 355.354047 115.62595 
L 355.354047 115.480739 
L 361.515937 115.287126 
L 361.515937 115.238723 
L 364.596881 115.093513 
L 364.596881 115.045109 
L 367.677826 114.948303 
L 364.596881 114.803092 
L 364.596881 114.706286 
L 361.515937 114.561076 
L 361.515937 114.512672 
L 367.677826 114.319059 
L 367.677826 114.270655 
L 383.082549 113.931832 
L 383.082549 113.883429 
L 386.163494 113.738218 
L 380.001605 113.544605 
L 380.001605 113.496202 
L 373.839715 113.302588 
L 373.839715 113.254185 
L 370.758771 113.108975 
L 370.758771 113.060571 
L 376.92066 112.866958 
L 376.92066 112.818555 
L 380.001605 112.673345 
L 380.001605 112.237714 
L 376.92066 112.140908 
L 380.001605 111.995697 
L 380.001605 111.947294 
L 392.325383 111.656874 
L 392.325383 111.608471 
L 395.406328 111.463261 
L 395.406328 111.414857 
L 367.677826 110.88242 
L 367.677826 110.640403 
L 380.001605 110.349983 
L 380.001605 110.204773 
L 383.082549 110.107966 
L 380.001605 109.962756 
L 380.001605 109.86595 
L 376.92066 109.720739 
L 376.92066 109.672336 
L 383.082549 109.478723 
L 383.082549 109.430319 
L 386.163494 109.285109 
L 386.163494 109.139899 
L 358.434992 108.607462 
L 358.434992 108.559059 
L 376.92066 108.171832 
L 376.92066 108.123429 
L 383.082549 107.929815 
L 383.082549 107.687798 
L 376.92066 107.494185 
L 376.92066 107.348975 
L 383.082549 107.155361 
L 383.082549 106.961748 
L 376.92066 106.768134 
L 376.92066 106.719731 
L 361.515937 106.380908 
L 361.515937 106.138891 
L 370.758771 105.896874 
L 370.758771 105.848471 
L 383.082549 105.55805 
L 383.082549 105.509647 
L 373.839715 105.26763 
L 373.839715 105.074017 
L 380.001605 104.880403 
L 380.001605 104.832 
L 383.082549 104.68679 
L 383.082549 104.54158 
L 376.92066 104.347966 
L 376.92066 104.299563 
L 358.434992 103.912336 
L 358.434992 103.718723 
L 364.596881 103.525109 
L 364.596881 103.476706 
L 370.758771 103.283092 
L 370.758771 103.234689 
L 383.082549 102.944269 
L 383.082549 102.895866 
L 386.163494 102.750655 
L 386.163494 102.363429 
L 380.001605 102.169815 
L 380.001605 102.121412 
L 364.596881 101.782588 
L 364.596881 101.734185 
L 358.434992 101.540571 
L 358.434992 101.201748 
L 364.596881 101.008134 
L 364.596881 100.959731 
L 376.92066 100.669311 
L 376.92066 100.620908 
L 395.406328 100.233681 
L 395.406328 100.136874 
L 376.92066 99.749647 
L 376.92066 99.701244 
L 367.677826 99.459227 
L 367.677826 99.410824 
L 364.596881 99.36242 
L 367.677826 99.314017 
L 367.677826 99.21721 
L 364.596881 99.072 
L 364.596881 98.975193 
L 361.515937 98.829983 
L 361.515937 98.78158 
L 367.677826 98.587966 
L 367.677826 98.539563 
L 380.001605 98.249143 
L 380.001605 98.200739 
L 386.163494 98.007126 
L 386.163494 97.910319 
L 389.244439 97.765109 
L 383.082549 97.571496 
L 383.082549 97.523092 
L 376.92066 97.329479 
L 376.92066 97.087462 
L 380.001605 96.942252 
L 380.001605 96.797042 
L 367.677826 96.506622 
L 367.677826 96.119395 
L 395.406328 95.586958 
L 395.406328 95.490151 
L 380.001605 95.151328 
L 380.001605 95.102924 
L 376.92066 94.957714 
L 376.92066 94.667294 
L 380.001605 94.522084 
L 380.001605 94.376874 
L 367.677826 94.086454 
L 367.677826 94.03805 
L 364.596881 93.89284 
L 364.596881 93.699227 
L 386.163494 93.263597 
L 386.163494 93.16679 
L 358.434992 92.634353 
L 364.596881 92.440739 
L 364.596881 92.392336 
L 373.839715 92.150319 
L 373.839715 92.101916 
L 376.92066 91.956706 
L 370.758771 91.763092 
L 370.758771 91.714689 
L 367.677826 91.569479 
L 367.677826 91.375866 
L 380.001605 91.085445 
L 380.001605 91.037042 
L 383.082549 90.891832 
L 367.677826 90.553008 
L 367.677826 90.504605 
L 361.515937 90.310992 
L 361.515937 90.165782 
L 370.758771 89.923765 
L 370.758771 89.826958 
L 373.839715 89.681748 
L 373.839715 89.536538 
L 367.677826 89.342924 
L 367.677826 89.294521 
L 364.596881 89.149311 
L 364.596881 89.100908 
L 376.92066 88.810487 
L 376.92066 88.762084 
L 383.082549 88.568471 
L 383.082549 88.471664 
L 367.677826 88.13284 
L 367.677826 88.084437 
L 361.515937 87.890824 
L 361.515937 87.745613 
L 373.839715 87.455193 
L 373.839715 87.40679 
L 376.92066 87.309983 
L 373.839715 87.164773 
L 373.839715 87.11637 
L 370.758771 86.97116 
L 370.758771 86.680739 
L 386.163494 86.341916 
L 386.163494 86.293513 
L 389.244439 86.148303 
L 389.244439 86.099899 
L 386.163494 85.954689 
L 386.163494 85.906286 
L 380.001605 85.712672 
L 380.001605 85.664269 
L 373.839715 85.470655 
L 373.839715 85.422252 
L 370.758771 85.277042 
L 370.758771 85.180235 
L 367.677826 85.035025 
L 367.677826 84.938218 
L 364.596881 84.793008 
L 364.596881 84.502588 
L 376.92066 84.212168 
L 376.92066 84.115361 
L 380.001605 83.970151 
L 373.839715 83.776538 
L 373.839715 83.728134 
L 358.434992 83.389311 
L 358.434992 83.340908 
L 352.273103 83.147294 
L 352.273103 83.098891 
L 324.5446 82.711664 
L 278.33043 82.37284 
L 262.925707 82.179227 
L 262.925707 82.08242 
L 281.411375 81.695193 
L 281.411375 81.64679 
L 284.49232 81.549983 
L 278.33043 81.35637 
L 278.33043 81.162756 
L 302.977988 80.872336 
L 346.111213 80.436706 
L 355.354047 80.194689 
L 355.354047 80.146286 
L 367.677826 79.855866 
L 367.677826 79.710655 
L 370.758771 79.565445 
L 367.677826 79.420235 
L 367.677826 79.371832 
L 361.515937 79.178218 
L 361.515937 79.129815 
L 355.354047 78.936202 
L 355.354047 78.887798 
L 352.273103 78.742588 
L 352.273103 78.694185 
L 355.354047 78.548975 
L 355.354047 78.452168 
L 358.434992 78.306958 
L 358.434992 78.210151 
L 361.515937 78.064941 
L 361.515937 77.968134 
L 373.839715 77.677714 
L 373.839715 77.532504 
L 376.92066 77.387294 
L 373.839715 77.242084 
L 373.839715 77.193681 
L 352.273103 76.75805 
L 352.273103 76.709647 
L 349.192158 76.564437 
L 349.192158 76.419227 
L 346.111213 76.274017 
L 346.111213 76.225613 
L 333.787434 75.935193 
L 333.787434 75.547966 
L 355.354047 75.112336 
L 355.354047 75.063933 
L 358.434992 74.967126 
L 355.354047 74.821916 
L 355.354047 74.579899 
L 367.677826 74.289479 
L 367.677826 74.144269 
L 370.758771 73.999059 
L 367.677826 73.853849 
L 367.677826 73.805445 
L 361.515937 73.611832 
L 361.515937 73.563429 
L 355.354047 73.369815 
L 355.354047 73.321412 
L 352.273103 73.176202 
L 352.273103 73.127798 
L 364.596881 72.837378 
L 364.596881 72.740571 
L 367.677826 72.595361 
L 361.515937 72.401748 
L 361.515937 72.353345 
L 358.434992 72.208134 
L 358.434992 72.159731 
L 364.596881 71.966118 
L 364.596881 71.917714 
L 367.677826 71.772504 
L 367.677826 71.724101 
L 370.758771 71.578891 
L 370.758771 71.385277 
L 367.677826 71.240067 
L 367.677826 71.143261 
L 364.596881 70.99805 
L 364.596881 70.368807 
L 361.515937 70.223597 
L 361.515937 70.175193 
L 355.354047 69.98158 
L 355.354047 69.933176 
L 352.273103 69.787966 
L 352.273103 69.497546 
L 364.596881 69.207126 
L 364.596881 69.061916 
L 367.677826 68.916706 
L 367.677826 68.287462 
L 380.001605 67.997042 
L 380.001605 67.755025 
L 367.677826 67.464605 
L 367.677826 67.222588 
L 383.082549 66.883765 
L 383.082549 66.835361 
L 386.163494 66.690151 
L 376.92066 66.448134 
L 376.92066 66.399731 
L 367.677826 66.157714 
L 367.677826 66.060908 
L 364.596881 65.915697 
L 364.596881 65.867294 
L 367.677826 65.722084 
L 367.677826 65.625277 
L 370.758771 65.480067 
L 370.758771 65.334857 
L 364.596881 65.141244 
L 364.596881 65.09284 
L 361.515937 64.94763 
L 361.515937 64.80242 
L 370.758771 64.560403 
L 370.758771 64.463597 
L 373.839715 64.318387 
L 373.839715 64.124773 
L 367.677826 63.93116 
L 367.677826 63.689143 
L 373.839715 63.495529 
L 373.839715 63.447126 
L 376.92066 63.350319 
L 373.839715 63.205109 
L 373.839715 63.156706 
L 370.758771 63.011496 
L 370.758771 62.914689 
L 367.677826 62.769479 
L 367.677826 62.672672 
L 361.515937 62.479059 
L 361.515937 62.430655 
L 358.434992 62.285445 
L 358.434992 62.237042 
L 364.596881 62.043429 
L 364.596881 61.995025 
L 376.92066 61.704605 
L 376.92066 61.607798 
L 386.163494 61.365782 
L 386.163494 61.268975 
L 389.244439 61.123765 
L 389.244439 60.978555 
L 373.839715 60.639731 
L 373.839715 60.591328 
L 367.677826 60.397714 
L 367.677826 60.349311 
L 370.758771 60.204101 
L 370.758771 60.010487 
L 367.677826 59.865277 
L 367.677826 59.574857 
L 370.758771 59.429647 
L 370.758771 59.33284 
L 376.92066 59.139227 
L 376.92066 59.090824 
L 389.244439 58.800403 
L 389.244439 58.703597 
L 392.325383 58.558387 
L 386.163494 58.364773 
L 386.163494 58.31637 
L 380.001605 58.122756 
L 380.001605 58.074353 
L 376.92066 57.929143 
L 376.92066 57.832336 
L 373.839715 57.687126 
L 373.839715 57.590319 
L 367.677826 57.396706 
L 367.677826 57.348303 
L 361.515937 57.154689 
L 361.515937 57.009479 
L 373.839715 56.719059 
L 373.839715 56.670655 
L 376.92066 56.525445 
L 376.92066 56.477042 
L 380.001605 56.331832 
L 380.001605 56.138218 
L 376.92066 55.993008 
L 376.92066 55.702588 
L 380.001605 55.557378 
L 364.596881 55.218555 
L 364.596881 55.170151 
L 361.515937 55.024941 
L 361.515937 54.734521 
L 380.001605 54.347294 
L 380.001605 54.250487 
L 383.082549 54.153681 
L 380.001605 54.008471 
L 380.001605 53.960067 
L 376.92066 53.814857 
L 376.92066 53.621244 
L 386.163494 53.379227 
L 386.163494 53.28242 
L 389.244439 53.13721 
L 373.839715 52.798387 
L 373.839715 52.749983 
L 370.758771 52.604773 
L 370.758771 52.41116 
L 383.082549 52.120739 
L 383.082549 52.072336 
L 386.163494 51.927126 
L 386.163494 51.781916 
L 373.839715 51.491496 
L 373.839715 51.249479 
L 386.163494 50.959059 
L 386.163494 50.862252 
L 389.244439 50.813849 
L 386.163494 50.765445 
L 386.163494 50.668639 
L 373.839715 50.378218 
L 373.839715 50.329815 
L 370.758771 50.184605 
L 370.758771 50.136202 
L 373.839715 49.990992 
L 373.839715 49.894185 
L 386.163494 49.603765 
L 386.163494 49.506958 
L 376.92066 49.264941 
L 376.92066 49.216538 
L 370.758771 49.022924 
L 370.758771 48.926118 
L 376.92066 48.732504 
L 376.92066 48.684101 
L 380.001605 48.538891 
L 380.001605 48.393681 
L 367.677826 48.103261 
L 367.677826 48.054857 
L 364.596881 47.909647 
L 364.596881 47.716034 
L 376.92066 47.425613 
L 376.92066 47.37721 
L 383.082549 47.183597 
L 383.082549 47.135193 
L 380.001605 46.989983 
L 380.001605 46.94158 
L 376.92066 46.79637 
L 376.92066 46.602756 
L 383.082549 46.409143 
L 383.082549 46.360739 
L 386.163494 46.215529 
L 380.001605 46.021916 
L 380.001605 45.973513 
L 367.677826 45.683092 
L 367.677826 45.634689 
L 364.596881 45.489479 
L 364.596881 45.295866 
L 376.92066 45.005445 
L 376.92066 44.860235 
L 380.001605 44.715025 
L 380.001605 44.134185 
L 383.082549 44.037378 
L 376.92066 43.843765 
L 376.92066 43.795361 
L 358.434992 43.408134 
L 358.434992 43.117714 
L 364.596881 42.924101 
L 364.596881 42.875697 
L 367.677826 42.778891 
L 364.596881 42.633681 
L 364.596881 42.536874 
L 361.515937 42.440067 
L 364.596881 42.294857 
L 364.596881 42.149647 
L 367.677826 42.004437 
L 367.677826 41.90763 
L 370.758771 41.76242 
L 370.758771 41.665613 
L 373.839715 41.520403 
L 373.839715 41.472 
L 373.839715 41.472 
" clip-path="url(#p4df814a0ad)" style="fill: none; stroke: #1f77b4; stroke-width: 0.7; stroke-linecap: square"/>
   </g>
   <g id="LineCollection_1">
    <path d="M 339.949324 343.944605 
L 339.949324 -1 
" clip-path="url(#p4df814a0ad)" style="fill: none; stroke-dasharray: 5.55,2.4; stroke-dashoffset: 0; stroke: #2ca02c; stroke-width: 1.5"/>
   </g>
   <g id="patch_3">
    <path d="M 57.6 162.432 
L 57.6 41.472 
" style="fill: none; stroke: #000000; stroke-width: 0.8; stroke-linejoin: miter; stroke-linecap: square"/>
   </g>
   <g id="patch_4">
    <path d="M 414.72 162.432 
L 414.72 41.472 
" style="fill: none; stroke: #000000; stroke-width: 0.8; stroke-linejoin: miter; stroke-linecap: square"/>
   </g>
   <g id="patch_5">
    <path d="M 57.6 162.432 
L 414.72 162.432 
" style="fill: none; stroke: #000000; stroke-width: 0.8; stroke-linejoin: miter; stroke-linecap: square"/>
   </g>
   <g id="patch_6">
    <path d="M 57.6 41.472 
L 414.72 41.472 
" style="fill: none; stroke: #000000; stroke-width: 0.8; stroke-linejoin: miter; stroke-linecap: square"/>
   </g>
   <g id="legend_1">
    <g id="patch_7">
     <path d="M 64.6 78.998562 
L 188.096875 78.998562 
Q 190.096875 78.998562 190.096875 76.998562 
L 190.096875 48.472 
Q 190.096875 46.472 188.096875 46.472 
L 64.6 46.472 
Q 62.6 46.472 62.6 48.472 
L 62.6 76.998562 
Q 62.6 78.998562 64.6 78.998562 
z
" style="fill: #ffffff; opacity: 0.8; stroke: #cccccc; stroke-linejoin: miter"/>
    </g>
    <g id="line2d_22">
     <path d="M 66.6 54.74075 
L 76.6 54.74075 
L 86.6 54.74075 
" style="fill: none; stroke: #1f77b4; stroke-width: 0.7; stroke-linecap: square"/>
    </g>
    <g id="text_7">
     <!-- Señal osciloscopio -->
     <g transform="translate(94.6 58.24075) scale(0.1 -0.1)">
      <defs>
       <path id="DejaVuSans-53" d="M 3425 4513 
L 3425 3897 
Q 3066 4069 2747 4153 
Q 2428 4238 2131 4238 
Q 1616 4238 1336 4038 
Q 1056 3838 1056 3469 
Q 1056 3159 1242 3001 
Q 1428 2844 1947 2747 
L 2328 2669 
Q 3034 2534 3370 2195 
Q 3706 1856 3706 1288 
Q 3706 609 3251 259 
Q 2797 -91 1919 -91 
Q 1588 -91 1214 -16 
Q 841 59 441 206 
L 441 856 
Q 825 641 1194 531 
Q 1563 422 1919 422 
Q 2459 422 2753 634 
Q 3047 847 3047 1241 
Q 3047 1584 2836 1778 
Q 2625 1972 2144 2069 
L 1759 2144 
Q 1053 2284 737 2584 
Q 422 2884 422 3419 
Q 422 4038 858 4394 
Q 1294 4750 2059 4750 
Q 2388 4750 2728 4690 
Q 3069 4631 3425 4513 
z
" transform="scale(0.015625)"/>
       <path id="DejaVuSans-f1" d="M 3513 2113 
L 3513 0 
L 2938 0 
L 2938 2094 
Q 2938 2591 2744 2837 
Q 2550 3084 2163 3084 
Q 1697 3084 1428 2787 
Q 1159 2491 1159 1978 
L 1159 0 
L 581 0 
L 581 3500 
L 1159 3500 
L 1159 2956 
Q 1366 3272 1645 3428 
Q 1925 3584 2291 3584 
Q 2894 3584 3203 3211 
Q 3513 2838 3513 2113 
z
M 2060 4281 
L 1881 4453 
Q 1813 4516 1761 4545 
Q 1710 4575 1669 4575 
Q 1550 4575 1494 4461 
Q 1438 4347 1431 4091 
L 1041 4091 
Q 1047 4513 1206 4742 
Q 1366 4972 1650 4972 
Q 1769 4972 1869 4928 
Q 1969 4884 2085 4781 
L 2263 4609 
Q 2331 4547 2383 4517 
Q 2435 4488 2475 4488 
Q 2594 4488 2650 4602 
Q 2706 4716 2713 4972 
L 3103 4972 
Q 3097 4550 2937 4320 
Q 2778 4091 2494 4091 
Q 2375 4091 2275 4134 
Q 2175 4178 2060 4281 
z
" transform="scale(0.015625)"/>
       <path id="DejaVuSans-61" d="M 2194 1759 
Q 1497 1759 1228 1600 
Q 959 1441 959 1056 
Q 959 750 1161 570 
Q 1363 391 1709 391 
Q 2188 391 2477 730 
Q 2766 1069 2766 1631 
L 2766 1759 
L 2194 1759 
z
M 3341 1997 
L 3341 0 
L 2766 0 
L 2766 531 
Q 2569 213 2275 61 
Q 1981 -91 1556 -91 
Q 1019 -91 701 211 
Q 384 513 384 1019 
Q 384 1609 779 1909 
Q 1175 2209 1959 2209 
L 2766 2209 
L 2766 2266 
Q 2766 2663 2505 2880 
Q 2244 3097 1772 3097 
Q 1472 3097 1187 3025 
Q 903 2953 641 2809 
L 641 3341 
Q 956 3463 1253 3523 
Q 1550 3584 1831 3584 
Q 2591 3584 2966 3190 
Q 3341 2797 3341 1997 
z
" transform="scale(0.015625)"/>
       <path id="DejaVuSans-6c" d="M 603 4863 
L 1178 4863 
L 1178 0 
L 603 0 
L 603 4863 
z
" transform="scale(0.015625)"/>
       <path id="DejaVuSans-63" d="M 3122 3366 
L 3122 2828 
Q 2878 2963 2633 3030 
Q 2388 3097 2138 3097 
Q 1578 3097 1268 2742 
Q 959 2388 959 1747 
Q 959 1106 1268 751 
Q 1578 397 2138 397 
Q 2388 397 2633 464 
Q 2878 531 3122 666 
L 3122 134 
Q 2881 22 2623 -34 
Q 2366 -91 2075 -91 
Q 1284 -91 818 406 
Q 353 903 353 1747 
Q 353 2603 823 3093 
Q 1294 3584 2113 3584 
Q 2378 3584 2631 3529 
Q 2884 3475 3122 3366 
z
" transform="scale(0.015625)"/>
      </defs>
      <use xlink:href="#DejaVuSans-53"/>
      <use xlink:href="#DejaVuSans-65" x="63.476562"/>
      <use xlink:href="#DejaVuSans-f1" x="125"/>
      <use xlink:href="#DejaVuSans-61" x="188.378906"/>
      <use xlink:href="#DejaVuSans-6c" x="249.658203"/>
      <use xlink:href="#DejaVuSans-20" x="277.441406"/>
      <use xlink:href="#DejaVuSans-6f" x="309.228516"/>
      <use xlink:href="#DejaVuSans-73" x="370.410156"/>
      <use xlink:href="#DejaVuSans-63" x="422.509766"/>
      <use xlink:href="#DejaVuSans-69" x="477.490234"/>
      <use xlink:href="#DejaVuSans-6c" x="505.273438"/>
      <use xlink:href="#DejaVuSans-6f" x="533.056641"/>
      <use xlink:href="#DejaVuSans-73" x="594.238281"/>
      <use xlink:href="#DejaVuSans-63" x="646.337891"/>
      <use xlink:href="#DejaVuSans-6f" x="701.318359"/>
      <use xlink:href="#DejaVuSans-70" x="762.5"/>
      <use xlink:href="#DejaVuSans-69" x="825.976562"/>
      <use xlink:href="#DejaVuSans-6f" x="853.759766"/>
     </g>
    </g>
    <g id="line2d_23">
     <path d="M 66.6 69.418875 
L 86.6 69.418875 
" style="fill: none; stroke-dasharray: 5.55,2.4; stroke-dashoffset: 0; stroke: #2ca02c; stroke-width: 1.5"/>
    </g>
    <g id="text_8">
     <!-- Umbral: -3 mV -->
     <g transform="translate(94.6 72.918875) scale(0.1 -0.1)">
      <defs>
       <path id="DejaVuSans-55" d="M 556 4666 
L 1191 4666 
L 1191 1831 
Q 1191 1081 1462 751 
Q 1734 422 2344 422 
Q 2950 422 3222 751 
Q 3494 1081 3494 1831 
L 3494 4666 
L 4128 4666 
L 4128 1753 
Q 4128 841 3676 375 
Q 3225 -91 2344 -91 
Q 1459 -91 1007 375 
Q 556 841 556 1753 
L 556 4666 
z
" transform="scale(0.015625)"/>
       <path id="DejaVuSans-62" d="M 3116 1747 
Q 3116 2381 2855 2742 
Q 2594 3103 2138 3103 
Q 1681 3103 1420 2742 
Q 1159 2381 1159 1747 
Q 1159 1113 1420 752 
Q 1681 391 2138 391 
Q 2594 391 2855 752 
Q 3116 1113 3116 1747 
z
M 1159 2969 
Q 1341 3281 1617 3432 
Q 1894 3584 2278 3584 
Q 2916 3584 3314 3078 
Q 3713 2572 3713 1747 
Q 3713 922 3314 415 
Q 2916 -91 2278 -91 
Q 1894 -91 1617 61 
Q 1341 213 1159 525 
L 1159 0 
L 581 0 
L 581 4863 
L 1159 4863 
L 1159 2969 
z
" transform="scale(0.015625)"/>
       <path id="DejaVuSans-72" d="M 2631 2963 
Q 2534 3019 2420 3045 
Q 2306 3072 2169 3072 
Q 1681 3072 1420 2755 
Q 1159 2438 1159 1844 
L 1159 0 
L 581 0 
L 581 3500 
L 1159 3500 
L 1159 2956 
Q 1341 3275 1631 3429 
Q 1922 3584 2338 3584 
Q 2397 3584 2469 3576 
Q 2541 3569 2628 3553 
L 2631 2963 
z
" transform="scale(0.015625)"/>
       <path id="DejaVuSans-3a" d="M 750 794 
L 1409 794 
L 1409 0 
L 750 0 
L 750 794 
z
M 750 3309 
L 1409 3309 
L 1409 2516 
L 750 2516 
L 750 3309 
z
" transform="scale(0.015625)"/>
       <path id="DejaVuSans-2d" d="M 313 2009 
L 1997 2009 
L 1997 1497 
L 313 1497 
L 313 2009 
z
" transform="scale(0.015625)"/>
       <path id="DejaVuSans-33" d="M 2597 2516 
Q 3050 2419 3304 2112 
Q 3559 1806 3559 1356 
Q 3559 666 3084 287 
Q 2609 -91 1734 -91 
Q 1441 -91 1130 -33 
Q 819 25 488 141 
L 488 750 
Q 750 597 1062 519 
Q 1375 441 1716 441 
Q 2309 441 2620 675 
Q 2931 909 2931 1356 
Q 2931 1769 2642 2001 
Q 2353 2234 1838 2234 
L 1294 2234 
L 1294 2753 
L 1863 2753 
Q 2328 2753 2575 2939 
Q 2822 3125 2822 3475 
Q 2822 3834 2567 4026 
Q 2313 4219 1838 4219 
Q 1578 4219 1281 4162 
Q 984 4106 628 3988 
L 628 4550 
Q 988 4650 1302 4700 
Q 1616 4750 1894 4750 
Q 2613 4750 3031 4423 
Q 3450 4097 3450 3541 
Q 3450 3153 3228 2886 
Q 3006 2619 2597 2516 
z
" transform="scale(0.015625)"/>
       <path id="DejaVuSans-56" d="M 1831 0 
L 50 4666 
L 709 4666 
L 2188 738 
L 3669 4666 
L 4325 4666 
L 2547 0 
L 1831 0 
z
" transform="scale(0.015625)"/>
      </defs>
      <use xlink:href="#DejaVuSans-55"/>
      <use xlink:href="#DejaVuSans-6d" x="73.193359"/>
      <use xlink:href="#DejaVuSans-62" x="170.605469"/>
      <use xlink:href="#DejaVuSans-72" x="234.082031"/>
      <use xlink:href="#DejaVuSans-61" x="275.195312"/>
      <use xlink:href="#DejaVuSans-6c" x="336.474609"/>
      <use xlink:href="#DejaVuSans-3a" x="364.257812"/>
      <use xlink:href="#DejaVuSans-20" x="397.949219"/>
      <use xlink:href="#DejaVuSans-2d" x="429.736328"/>
      <use xlink:href="#DejaVuSans-33" x="465.820312"/>
      <use xlink:href="#DejaVuSans-20" x="529.443359"/>
      <use xlink:href="#DejaVuSans-6d" x="561.230469"/>
      <use xlink:href="#DejaVuSans-56" x="658.642578"/>
     </g>
    </g>
   </g>
  </g>
  <g id="axes_2">
   <g id="patch_8">
    <path d="M 57.6 307.584 
L 414.72 307.584 
L 414.72 186.624 
L 57.6 186.624 
z
" style="fill: #ffffff"/>
   </g>
   <g id="patch_9">
    <path d="M 73.832727 28127.804941 
L 76.143436 28127.804941 
L 76.143436 299.235429 
L 73.832727 299.235429 
z
" clip-path="url(#pd0b2694aab)" style="fill: #ff7f0e; opacity: 0.75"/>
   </g>
   <g id="patch_10">
    <path d="M 79.994617 28127.804941 
L 82.305325 28127.804941 
L 82.305325 290.858195 
L 79.994617 290.858195 
z
" clip-path="url(#pd0b2694aab)" style="fill: #ff7f0e; opacity: 0.75"/>
   </g>
   <g id="patch_11">
    <path d="M 92.318395 28127.804941 
L 94.629104 28127.804941 
L 94.629104 299.235429 
L 92.318395 299.235429 
z
" clip-path="url(#pd0b2694aab)" style="fill: #ff7f0e; opacity: 0.75"/>
   </g>
   <g id="patch_12">
    <path d="M 107.723119 28127.804941 
L 110.033827 28127.804941 
L 110.033827 299.235429 
L 107.723119 299.235429 
z
" clip-path="url(#pd0b2694aab)" style="fill: #ff7f0e; opacity: 0.75"/>
   </g>
   <g id="patch_13">
    <path d="M 120.046897 28127.804941 
L 122.357606 28127.804941 
L 122.357606 299.235429 
L 120.046897 299.235429 
z
" clip-path="url(#pd0b2694aab)" style="fill: #ff7f0e; opacity: 0.75"/>
   </g>
   <g id="patch_14">
    <path d="M 123.127842 28127.804941 
L 125.438551 28127.804941 
L 125.438551 299.235429 
L 123.127842 299.235429 
z
" clip-path="url(#pd0b2694aab)" style="fill: #ff7f0e; opacity: 0.75"/>
   </g>
   <g id="patch_15">
    <path d="M 126.208787 28127.804941 
L 128.519495 28127.804941 
L 128.519495 299.235429 
L 126.208787 299.235429 
z
" clip-path="url(#pd0b2694aab)" style="fill: #ff7f0e; opacity: 0.75"/>
   </g>
   <g id="patch_16">
    <path d="M 129.289731 28127.804941 
L 131.60044 28127.804941 
L 131.60044 299.235429 
L 129.289731 299.235429 
z
" clip-path="url(#pd0b2694aab)" style="fill: #ff7f0e; opacity: 0.75"/>
   </g>
   <g id="patch_17">
    <path d="M 132.370676 28127.804941 
L 134.681385 28127.804941 
L 134.681385 299.235429 
L 132.370676 299.235429 
z
" clip-path="url(#pd0b2694aab)" style="fill: #ff7f0e; opacity: 0.75"/>
   </g>
   <g id="patch_18">
    <path d="M 135.451621 28127.804941 
L 137.762329 28127.804941 
L 137.762329 290.858195 
L 135.451621 290.858195 
z
" clip-path="url(#pd0b2694aab)" style="fill: #ff7f0e; opacity: 0.75"/>
   </g>
   <g id="patch_19">
    <path d="M 138.532566 28127.804941 
L 140.843274 28127.804941 
L 140.843274 299.235429 
L 138.532566 299.235429 
z
" clip-path="url(#pd0b2694aab)" style="fill: #ff7f0e; opacity: 0.75"/>
   </g>
   <g id="patch_20">
    <path d="M 141.61351 28127.804941 
L 143.924219 28127.804941 
L 143.924219 299.235429 
L 141.61351 299.235429 
z
" clip-path="url(#pd0b2694aab)" style="fill: #ff7f0e; opacity: 0.75"/>
   </g>
   <g id="patch_21">
    <path d="M 144.694455 28127.804941 
L 147.005163 28127.804941 
L 147.005163 299.235429 
L 144.694455 299.235429 
z
" clip-path="url(#pd0b2694aab)" style="fill: #ff7f0e; opacity: 0.75"/>
   </g>
   <g id="patch_22">
    <path d="M 147.7754 28127.804941 
L 150.086108 28127.804941 
L 150.086108 299.235429 
L 147.7754 299.235429 
z
" clip-path="url(#pd0b2694aab)" style="fill: #ff7f0e; opacity: 0.75"/>
   </g>
   <g id="patch_23">
    <path d="M 150.856344 28127.804941 
L 153.167053 28127.804941 
L 153.167053 299.235429 
L 150.856344 299.235429 
z
" clip-path="url(#pd0b2694aab)" style="fill: #ff7f0e; opacity: 0.75"/>
   </g>
   <g id="patch_24">
    <path d="M 153.937289 28127.804941 
L 156.247997 28127.804941 
L 156.247997 299.235429 
L 153.937289 299.235429 
z
" clip-path="url(#pd0b2694aab)" style="fill: #ff7f0e; opacity: 0.75"/>
   </g>
   <g id="patch_25">
    <path d="M 157.018234 28127.804941 
L 159.328942 28127.804941 
L 159.328942 290.858195 
L 157.018234 290.858195 
z
" clip-path="url(#pd0b2694aab)" style="fill: #ff7f0e; opacity: 0.75"/>
   </g>
   <g id="patch_26">
    <path d="M 160.099178 28127.804941 
L 162.409887 28127.804941 
L 162.409887 285.957827 
L 160.099178 285.957827 
z
" clip-path="url(#pd0b2694aab)" style="fill: #ff7f0e; opacity: 0.75"/>
   </g>
   <g id="patch_27">
    <path d="M 163.180123 28127.804941 
L 165.490831 28127.804941 
L 165.490831 285.957827 
L 163.180123 285.957827 
z
" clip-path="url(#pd0b2694aab)" style="fill: #ff7f0e; opacity: 0.75"/>
   </g>
   <g id="patch_28">
    <path d="M 166.261068 28127.804941 
L 168.571776 28127.804941 
L 168.571776 290.858195 
L 166.261068 290.858195 
z
" clip-path="url(#pd0b2694aab)" style="fill: #ff7f0e; opacity: 0.75"/>
   </g>
   <g id="patch_29">
    <path d="M 169.342012 28127.804941 
L 171.652721 28127.804941 
L 171.652721 282.480961 
L 169.342012 282.480961 
z
" clip-path="url(#pd0b2694aab)" style="fill: #ff7f0e; opacity: 0.75"/>
   </g>
   <g id="patch_30">
    <path d="M 172.422957 28127.804941 
L 174.733665 28127.804941 
L 174.733665 279.784094 
L 172.422957 279.784094 
z
" clip-path="url(#pd0b2694aab)" style="fill: #ff7f0e; opacity: 0.75"/>
   </g>
   <g id="patch_31">
    <path d="M 175.503902 28127.804941 
L 177.81461 28127.804941 
L 177.81461 279.784094 
L 175.503902 279.784094 
z
" clip-path="url(#pd0b2694aab)" style="fill: #ff7f0e; opacity: 0.75"/>
   </g>
   <g id="patch_32">
    <path d="M 178.584846 28127.804941 
L 180.895555 28127.804941 
L 180.895555 285.957827 
L 178.584846 285.957827 
z
" clip-path="url(#pd0b2694aab)" style="fill: #ff7f0e; opacity: 0.75"/>
   </g>
   <g id="patch_33">
    <path d="M 181.665791 28127.804941 
L 183.9765 28127.804941 
L 183.9765 277.580593 
L 181.665791 277.580593 
z
" clip-path="url(#pd0b2694aab)" style="fill: #ff7f0e; opacity: 0.75"/>
   </g>
   <g id="patch_34">
    <path d="M 184.746736 28127.804941 
L 187.057444 28127.804941 
L 187.057444 277.580593 
L 184.746736 277.580593 
z
" clip-path="url(#pd0b2694aab)" style="fill: #ff7f0e; opacity: 0.75"/>
   </g>
   <g id="patch_35">
    <path d="M 187.82768 28127.804941 
L 190.138389 28127.804941 
L 190.138389 282.480961 
L 187.82768 282.480961 
z
" clip-path="url(#pd0b2694aab)" style="fill: #ff7f0e; opacity: 0.75"/>
   </g>
   <g id="patch_36">
    <path d="M 190.908625 28127.804941 
L 193.219334 28127.804941 
L 193.219334 279.784094 
L 190.908625 279.784094 
z
" clip-path="url(#pd0b2694aab)" style="fill: #ff7f0e; opacity: 0.75"/>
   </g>
   <g id="patch_37">
    <path d="M 193.98957 28127.804941 
L 196.300278 28127.804941 
L 196.300278 285.957827 
L 193.98957 285.957827 
z
" clip-path="url(#pd0b2694aab)" style="fill: #ff7f0e; opacity: 0.75"/>
   </g>
   <g id="patch_38">
    <path d="M 197.070514 28127.804941 
L 199.381223 28127.804941 
L 199.381223 271.40686 
L 197.070514 271.40686 
z
" clip-path="url(#pd0b2694aab)" style="fill: #ff7f0e; opacity: 0.75"/>
   </g>
   <g id="patch_39">
    <path d="M 200.151459 28127.804941 
L 202.462168 28127.804941 
L 202.462168 285.957827 
L 200.151459 285.957827 
z
" clip-path="url(#pd0b2694aab)" style="fill: #ff7f0e; opacity: 0.75"/>
   </g>
   <g id="patch_40">
    <path d="M 203.232404 28127.804941 
L 205.543112 28127.804941 
L 205.543112 272.680225 
L 203.232404 272.680225 
z
" clip-path="url(#pd0b2694aab)" style="fill: #ff7f0e; opacity: 0.75"/>
   </g>
   <g id="patch_41">
    <path d="M 206.313348 28127.804941 
L 208.624057 28127.804941 
L 208.624057 268.235979 
L 206.313348 268.235979 
z
" clip-path="url(#pd0b2694aab)" style="fill: #ff7f0e; opacity: 0.75"/>
   </g>
   <g id="patch_42">
    <path d="M 209.394293 28127.804941 
L 211.705002 28127.804941 
L 211.705002 269.203359 
L 209.394293 269.203359 
z
" clip-path="url(#pd0b2694aab)" style="fill: #ff7f0e; opacity: 0.75"/>
   </g>
   <g id="patch_43">
    <path d="M 212.475238 28127.804941 
L 214.785946 28127.804941 
L 214.785946 269.203359 
L 212.475238 269.203359 
z
" clip-path="url(#pd0b2694aab)" style="fill: #ff7f0e; opacity: 0.75"/>
   </g>
   <g id="patch_44">
    <path d="M 215.556182 28127.804941 
L 217.866891 28127.804941 
L 217.866891 266.506492 
L 215.556182 266.506492 
z
" clip-path="url(#pd0b2694aab)" style="fill: #ff7f0e; opacity: 0.75"/>
   </g>
   <g id="patch_45">
    <path d="M 218.637127 28127.804941 
L 220.947836 28127.804941 
L 220.947836 259.402623 
L 218.637127 259.402623 
z
" clip-path="url(#pd0b2694aab)" style="fill: #ff7f0e; opacity: 0.75"/>
   </g>
   <g id="patch_46">
    <path d="M 221.718072 28127.804941 
L 224.02878 28127.804941 
L 224.02878 264.302991 
L 221.718072 264.302991 
z
" clip-path="url(#pd0b2694aab)" style="fill: #ff7f0e; opacity: 0.75"/>
   </g>
   <g id="patch_47">
    <path d="M 224.799016 28127.804941 
L 227.109725 28127.804941 
L 227.109725 264.302991 
L 224.799016 264.302991 
z
" clip-path="url(#pd0b2694aab)" style="fill: #ff7f0e; opacity: 0.75"/>
   </g>
   <g id="patch_48">
    <path d="M 227.879961 28127.804941 
L 230.19067 28127.804941 
L 230.19067 258.538985 
L 227.879961 258.538985 
z
" clip-path="url(#pd0b2694aab)" style="fill: #ff7f0e; opacity: 0.75"/>
   </g>
   <g id="patch_49">
    <path d="M 230.960906 28127.804941 
L 233.271614 28127.804941 
L 233.271614 260.332758 
L 230.960906 260.332758 
z
" clip-path="url(#pd0b2694aab)" style="fill: #ff7f0e; opacity: 0.75"/>
   </g>
   <g id="patch_50">
    <path d="M 234.041851 28127.804941 
L 236.352559 28127.804941 
L 236.352559 258.963091 
L 234.041851 258.963091 
z
" clip-path="url(#pd0b2694aab)" style="fill: #ff7f0e; opacity: 0.75"/>
   </g>
   <g id="patch_51">
    <path d="M 237.122795 28127.804941 
L 239.433504 28127.804941 
L 239.433504 254.958377 
L 237.122795 254.958377 
z
" clip-path="url(#pd0b2694aab)" style="fill: #ff7f0e; opacity: 0.75"/>
   </g>
   <g id="patch_52">
    <path d="M 240.20374 28127.804941 
L 242.514448 28127.804941 
L 242.514448 254.353961 
L 240.20374 254.353961 
z
" clip-path="url(#pd0b2694aab)" style="fill: #ff7f0e; opacity: 0.75"/>
   </g>
   <g id="patch_53">
    <path d="M 243.284685 28127.804941 
L 245.595393 28127.804941 
L 245.595393 253.778339 
L 243.284685 253.778339 
z
" clip-path="url(#pd0b2694aab)" style="fill: #ff7f0e; opacity: 0.75"/>
   </g>
   <g id="patch_54">
    <path d="M 246.365629 28127.804941 
L 248.676338 28127.804941 
L 248.676338 258.129258 
L 246.365629 258.129258 
z
" clip-path="url(#pd0b2694aab)" style="fill: #ff7f0e; opacity: 0.75"/>
   </g>
   <g id="patch_55">
    <path d="M 249.446574 28127.804941 
L 251.757282 28127.804941 
L 251.757282 250.585857 
L 249.446574 250.585857 
z
" clip-path="url(#pd0b2694aab)" style="fill: #ff7f0e; opacity: 0.75"/>
   </g>
   <g id="patch_56">
    <path d="M 252.527519 28127.804941 
L 254.838227 28127.804941 
L 254.838227 249.355732 
L 252.527519 249.355732 
z
" clip-path="url(#pd0b2694aab)" style="fill: #ff7f0e; opacity: 0.75"/>
   </g>
   <g id="patch_57">
    <path d="M 255.608463 28127.804941 
L 257.919172 28127.804941 
L 257.919172 251.251298 
L 255.608463 251.251298 
z
" clip-path="url(#pd0b2694aab)" style="fill: #ff7f0e; opacity: 0.75"/>
   </g>
   <g id="patch_58">
    <path d="M 258.689408 28127.804941 
L 261.000116 28127.804941 
L 261.000116 248.41838 
L 258.689408 248.41838 
z
" clip-path="url(#pd0b2694aab)" style="fill: #ff7f0e; opacity: 0.75"/>
   </g>
   <g id="patch_59">
    <path d="M 261.770353 28127.804941 
L 264.081061 28127.804941 
L 264.081061 245.976727 
L 261.770353 245.976727 
z
" clip-path="url(#pd0b2694aab)" style="fill: #ff7f0e; opacity: 0.75"/>
   </g>
   <g id="patch_60">
    <path d="M 264.851297 28127.804941 
L 267.162006 28127.804941 
L 267.162006 248.600124 
L 264.851297 248.600124 
z
" clip-path="url(#pd0b2694aab)" style="fill: #ff7f0e; opacity: 0.75"/>
   </g>
   <g id="patch_61">
    <path d="M 267.932242 28127.804941 
L 270.242951 28127.804941 
L 270.242951 243.946414 
L 267.932242 243.946414 
z
" clip-path="url(#pd0b2694aab)" style="fill: #ff7f0e; opacity: 0.75"/>
   </g>
   <g id="patch_62">
    <path d="M 271.013187 28127.804941 
L 273.323895 28127.804941 
L 273.323895 245.830231 
L 271.013187 245.830231 
z
" clip-path="url(#pd0b2694aab)" style="fill: #ff7f0e; opacity: 0.75"/>
   </g>
   <g id="patch_63">
    <path d="M 274.094131 28127.804941 
L 276.40484 28127.804941 
L 276.40484 243.458032 
L 274.094131 243.458032 
z
" clip-path="url(#pd0b2694aab)" style="fill: #ff7f0e; opacity: 0.75"/>
   </g>
   <g id="patch_64">
    <path d="M 277.175076 28127.804941 
L 279.485785 28127.804941 
L 279.485785 244.071656 
L 277.175076 244.071656 
z
" clip-path="url(#pd0b2694aab)" style="fill: #ff7f0e; opacity: 0.75"/>
   </g>
   <g id="patch_65">
    <path d="M 280.256021 28127.804941 
L 282.566729 28127.804941 
L 282.566729 244.19821 
L 280.256021 244.19821 
z
" clip-path="url(#pd0b2694aab)" style="fill: #ff7f0e; opacity: 0.75"/>
   </g>
   <g id="patch_66">
    <path d="M 283.336965 28127.804941 
L 285.647674 28127.804941 
L 285.647674 243.822456 
L 283.336965 243.822456 
z
" clip-path="url(#pd0b2694aab)" style="fill: #ff7f0e; opacity: 0.75"/>
   </g>
   <g id="patch_67">
    <path d="M 286.41791 28127.804941 
L 288.728619 28127.804941 
L 288.728619 243.33896 
L 286.41791 243.33896 
z
" clip-path="url(#pd0b2694aab)" style="fill: #ff7f0e; opacity: 0.75"/>
   </g>
   <g id="patch_68">
    <path d="M 289.498855 28127.804941 
L 291.809563 28127.804941 
L 291.809563 241.577917 
L 289.498855 241.577917 
z
" clip-path="url(#pd0b2694aab)" style="fill: #ff7f0e; opacity: 0.75"/>
   </g>
   <g id="patch_69">
    <path d="M 292.579799 28127.804941 
L 294.890508 28127.804941 
L 294.890508 240.689581 
L 292.579799 240.689581 
z
" clip-path="url(#pd0b2694aab)" style="fill: #ff7f0e; opacity: 0.75"/>
   </g>
   <g id="patch_70">
    <path d="M 295.660744 28127.804941 
L 297.971453 28127.804941 
L 297.971453 241.889156 
L 295.660744 241.889156 
z
" clip-path="url(#pd0b2694aab)" style="fill: #ff7f0e; opacity: 0.75"/>
   </g>
   <g id="patch_71">
    <path d="M 298.741689 28127.804941 
L 301.052397 28127.804941 
L 301.052397 240.22289 
L 298.741689 240.22289 
z
" clip-path="url(#pd0b2694aab)" style="fill: #ff7f0e; opacity: 0.75"/>
   </g>
   <g id="patch_72">
    <path d="M 301.822633 28127.804941 
L 304.133342 28127.804941 
L 304.133342 241.076359 
L 301.822633 241.076359 
z
" clip-path="url(#pd0b2694aab)" style="fill: #ff7f0e; opacity: 0.75"/>
   </g>
   <g id="patch_73">
    <path d="M 304.903578 28127.804941 
L 307.214287 28127.804941 
L 307.214287 240.314798 
L 304.903578 240.314798 
z
" clip-path="url(#pd0b2694aab)" style="fill: #ff7f0e; opacity: 0.75"/>
   </g>
   <g id="patch_74">
    <path d="M 307.984523 28127.804941 
L 310.295231 28127.804941 
L 310.295231 239.25551 
L 307.984523 239.25551 
z
" clip-path="url(#pd0b2694aab)" style="fill: #ff7f0e; opacity: 0.75"/>
   </g>
   <g id="patch_75">
    <path d="M 311.065467 28127.804941 
L 313.376176 28127.804941 
L 313.376176 238.359857 
L 311.065467 238.359857 
z
" clip-path="url(#pd0b2694aab)" style="fill: #ff7f0e; opacity: 0.75"/>
   </g>
   <g id="patch_76">
    <path d="M 314.146412 28127.804941 
L 316.457121 28127.804941 
L 316.457121 242.208623 
L 314.146412 242.208623 
z
" clip-path="url(#pd0b2694aab)" style="fill: #ff7f0e; opacity: 0.75"/>
   </g>
   <g id="patch_77">
    <path d="M 317.227357 28127.804941 
L 319.538065 28127.804941 
L 319.538065 240.785121 
L 317.227357 240.785121 
z
" clip-path="url(#pd0b2694aab)" style="fill: #ff7f0e; opacity: 0.75"/>
   </g>
   <g id="patch_78">
    <path d="M 320.308302 28127.804941 
L 322.61901 28127.804941 
L 322.61901 241.475926 
L 320.308302 241.475926 
z
" clip-path="url(#pd0b2694aab)" style="fill: #ff7f0e; opacity: 0.75"/>
   </g>
   <g id="patch_79">
    <path d="M 323.389246 28127.804941 
L 325.699955 28127.804941 
L 325.699955 240.40741 
L 323.389246 240.40741 
z
" clip-path="url(#pd0b2694aab)" style="fill: #ff7f0e; opacity: 0.75"/>
   </g>
   <g id="patch_80">
    <path d="M 326.470191 28127.804941 
L 328.780899 28127.804941 
L 328.780899 241.17502 
L 326.470191 241.17502 
z
" clip-path="url(#pd0b2694aab)" style="fill: #ff7f0e; opacity: 0.75"/>
   </g>
   <g id="patch_81">
    <path d="M 329.551136 28127.804941 
L 331.861844 28127.804941 
L 331.861844 238.049948 
L 329.551136 238.049948 
z
" clip-path="url(#pd0b2694aab)" style="fill: #ff7f0e; opacity: 0.75"/>
   </g>
   <g id="patch_82">
    <path d="M 332.63208 28127.804941 
L 334.942789 28127.804941 
L 334.942789 238.758764 
L 332.63208 238.758764 
z
" clip-path="url(#pd0b2694aab)" style="fill: #ff7f0e; opacity: 0.75"/>
   </g>
   <g id="patch_83">
    <path d="M 335.713025 28127.804941 
L 338.023733 28127.804941 
L 338.023733 235.261637 
L 335.713025 235.261637 
z
" clip-path="url(#pd0b2694aab)" style="fill: #ff7f0e; opacity: 0.75"/>
   </g>
   <g id="patch_84">
    <path d="M 338.79397 28127.804941 
L 341.104678 28127.804941 
L 341.104678 234.215097 
L 338.79397 234.215097 
z
" clip-path="url(#pd0b2694aab)" style="fill: #ff7f0e; opacity: 0.75"/>
   </g>
   <g id="patch_85">
    <path d="M 341.874914 28127.804941 
L 344.185623 28127.804941 
L 344.185623 227.129808 
L 341.874914 227.129808 
z
" clip-path="url(#pd0b2694aab)" style="fill: #ff7f0e; opacity: 0.75"/>
   </g>
   <g id="patch_86">
    <path d="M 344.955859 28127.804941 
L 347.266567 28127.804941 
L 347.266567 223.377208 
L 344.955859 223.377208 
z
" clip-path="url(#pd0b2694aab)" style="fill: #ff7f0e; opacity: 0.75"/>
   </g>
   <g id="patch_87">
    <path d="M 348.036804 28127.804941 
L 350.347512 28127.804941 
L 350.347512 216.757454 
L 348.036804 216.757454 
z
" clip-path="url(#pd0b2694aab)" style="fill: #ff7f0e; opacity: 0.75"/>
   </g>
   <g id="patch_88">
    <path d="M 351.117748 28127.804941 
L 353.428457 28127.804941 
L 353.428457 209.66819 
L 351.117748 209.66819 
z
" clip-path="url(#pd0b2694aab)" style="fill: #ff7f0e; opacity: 0.75"/>
   </g>
   <g id="patch_89">
    <path d="M 354.198693 28127.804941 
L 356.509401 28127.804941 
L 356.509401 203.907712 
L 354.198693 203.907712 
z
" clip-path="url(#pd0b2694aab)" style="fill: #ff7f0e; opacity: 0.75"/>
   </g>
   <g id="patch_90">
    <path d="M 357.279638 28127.804941 
L 359.590346 28127.804941 
L 359.590346 197.67966 
L 357.279638 197.67966 
z
" clip-path="url(#pd0b2694aab)" style="fill: #ff7f0e; opacity: 0.75"/>
   </g>
   <g id="patch_91">
    <path d="M 360.360582 28127.804941 
L 362.671291 28127.804941 
L 362.671291 193.27153 
L 360.360582 193.27153 
z
" clip-path="url(#pd0b2694aab)" style="fill: #ff7f0e; opacity: 0.75"/>
   </g>
   <g id="patch_92">
    <path d="M 363.441527 28127.804941 
L 365.752236 28127.804941 
L 365.752236 189.401742 
L 363.441527 189.401742 
z
" clip-path="url(#pd0b2694aab)" style="fill: #ff7f0e; opacity: 0.75"/>
   </g>
   <g id="patch_93">
    <path d="M 366.522472 28127.804941 
L 368.83318 28127.804941 
L 368.83318 187.862075 
L 366.522472 187.862075 
z
" clip-path="url(#pd0b2694aab)" style="fill: #ff7f0e; opacity: 0.75"/>
   </g>
   <g id="patch_94">
    <path d="M 369.603416 28127.804941 
L 371.914125 28127.804941 
L 371.914125 187.367218 
L 369.603416 187.367218 
z
" clip-path="url(#pd0b2694aab)" style="fill: #ff7f0e; opacity: 0.75"/>
   </g>
   <g id="patch_95">
    <path d="M 372.684361 28127.804941 
L 374.99507 28127.804941 
L 374.99507 188.532169 
L 372.684361 188.532169 
z
" clip-path="url(#pd0b2694aab)" style="fill: #ff7f0e; opacity: 0.75"/>
   </g>
   <g id="patch_96">
    <path d="M 375.765306 28127.804941 
L 378.076014 28127.804941 
L 378.076014 192.308059 
L 375.765306 192.308059 
z
" clip-path="url(#pd0b2694aab)" style="fill: #ff7f0e; opacity: 0.75"/>
   </g>
   <g id="patch_97">
    <path d="M 378.84625 28127.804941 
L 381.156959 28127.804941 
L 381.156959 197.744872 
L 378.84625 197.744872 
z
" clip-path="url(#pd0b2694aab)" style="fill: #ff7f0e; opacity: 0.75"/>
   </g>
   <g id="patch_98">
    <path d="M 381.927195 28127.804941 
L 384.237904 28127.804941 
L 384.237904 205.03876 
L 381.927195 205.03876 
z
" clip-path="url(#pd0b2694aab)" style="fill: #ff7f0e; opacity: 0.75"/>
   </g>
   <g id="patch_99">
    <path d="M 323.389246 28127.804941 
L 325.699955 28127.804941 
L 325.699955 299.235429 
L 323.389246 299.235429 
z
" clip-path="url(#pd0b2694aab)" style="fill: #1f77b4"/>
   </g>
   <g id="patch_100">
    <path d="M 332.63208 28127.804941 
L 334.942789 28127.804941 
L 334.942789 299.235429 
L 332.63208 299.235429 
z
" clip-path="url(#pd0b2694aab)" style="fill: #1f77b4"/>
   </g>
   <g id="patch_101">
    <path d="M 335.713025 28127.804941 
L 338.023733 28127.804941 
L 338.023733 282.480961 
L 335.713025 282.480961 
z
" clip-path="url(#pd0b2694aab)" style="fill: #1f77b4"/>
   </g>
   <g id="patch_102">
    <path d="M 338.79397 28127.804941 
L 341.104678 28127.804941 
L 341.104678 271.40686 
L 338.79397 271.40686 
z
" clip-path="url(#pd0b2694aab)" style="fill: #1f77b4"/>
   </g>
   <g id="patch_103">
    <path d="M 341.874914 28127.804941 
L 344.185623 28127.804941 
L 344.185623 257.732967 
L 341.874914 257.732967 
z
" clip-path="url(#pd0b2694aab)" style="fill: #1f77b4"/>
   </g>
   <g id="patch_104">
    <path d="M 344.955859 28127.804941 
L 347.266567 28127.804941 
L 347.266567 247.548523 
L 344.955859 247.548523 
z
" clip-path="url(#pd0b2694aab)" style="fill: #1f77b4"/>
   </g>
   <g id="patch_105">
    <path d="M 348.036804 28127.804941 
L 350.347512 28127.804941 
L 350.347512 235.631639 
L 348.036804 235.631639 
z
" clip-path="url(#pd0b2694aab)" style="fill: #1f77b4"/>
   </g>
   <g id="patch_106">
    <path d="M 351.117748 28127.804941 
L 353.428457 28127.804941 
L 353.428457 223.911345 
L 351.117748 223.911345 
z
" clip-path="url(#pd0b2694aab)" style="fill: #1f77b4"/>
   </g>
   <g id="patch_107">
    <path d="M 354.198693 28127.804941 
L 356.509401 28127.804941 
L 356.509401 212.449381 
L 354.198693 212.449381 
z
" clip-path="url(#pd0b2694aab)" style="fill: #1f77b4"/>
   </g>
   <g id="patch_108">
    <path d="M 357.279638 28127.804941 
L 359.590346 28127.804941 
L 359.590346 203.857911 
L 357.279638 203.857911 
z
" clip-path="url(#pd0b2694aab)" style="fill: #1f77b4"/>
   </g>
   <g id="patch_109">
    <path d="M 360.360582 28127.804941 
L 362.671291 28127.804941 
L 362.671291 197.038487 
L 360.360582 197.038487 
z
" clip-path="url(#pd0b2694aab)" style="fill: #1f77b4"/>
   </g>
   <g id="patch_110">
    <path d="M 363.441527 28127.804941 
L 365.752236 28127.804941 
L 365.752236 191.472372 
L 363.441527 191.472372 
z
" clip-path="url(#pd0b2694aab)" style="fill: #1f77b4"/>
   </g>
   <g id="patch_111">
    <path d="M 366.522472 28127.804941 
L 368.83318 28127.804941 
L 368.83318 187.916318 
L 366.522472 187.916318 
z
" clip-path="url(#pd0b2694aab)" style="fill: #1f77b4"/>
   </g>
   <g id="patch_112">
    <path d="M 369.603416 28127.804941 
L 371.914125 28127.804941 
L 371.914125 186.624 
L 369.603416 186.624 
z
" clip-path="url(#pd0b2694aab)" style="fill: #1f77b4"/>
   </g>
   <g id="patch_113">
    <path d="M 372.684361 28127.804941 
L 374.99507 28127.804941 
L 374.99507 187.248892 
L 372.684361 187.248892 
z
" clip-path="url(#pd0b2694aab)" style="fill: #1f77b4"/>
   </g>
   <g id="patch_114">
    <path d="M 375.765306 28127.804941 
L 378.076014 28127.804941 
L 378.076014 189.728517 
L 375.765306 189.728517 
z
" clip-path="url(#pd0b2694aab)" style="fill: #1f77b4"/>
   </g>
   <g id="patch_115">
    <path d="M 378.84625 28127.804941 
L 381.156959 28127.804941 
L 381.156959 194.336995 
L 378.84625 194.336995 
z
" clip-path="url(#pd0b2694aab)" style="fill: #1f77b4"/>
   </g>
   <g id="patch_116">
    <path d="M 381.927195 28127.804941 
L 384.237904 28127.804941 
L 384.237904 201.624327 
L 381.927195 201.624327 
z
" clip-path="url(#pd0b2694aab)" style="fill: #1f77b4"/>
   </g>
   <g id="matplotlib.axis_3">
    <g id="xtick_6">
     <g id="line2d_24">
      <path d="M 78.069026 307.584 
L 78.069026 186.624 
" clip-path="url(#pd0b2694aab)" style="fill: none; stroke: #b0b0b0; stroke-opacity: 0.3; stroke-width: 0.8; stroke-linecap: square"/>
     </g>
     <g id="line2d_25">
      <g>
       <use xlink:href="#mb4270ab6f1" x="78.069026" y="307.584" style="stroke: #000000; stroke-width: 0.8"/>
      </g>
     </g>
     <g id="text_9">
      <!-- −20 -->
      <g transform="translate(67.516682 322.182437) scale(0.1 -0.1)">
       <use xlink:href="#DejaVuSans-2212"/>
       <use xlink:href="#DejaVuSans-32" x="83.789062"/>
       <use xlink:href="#DejaVuSans-30" x="147.412109"/>
      </g>
     </g>
    </g>
    <g id="xtick_7">
     <g id="line2d_26">
      <path d="M 155.092643 307.584 
L 155.092643 186.624 
" clip-path="url(#pd0b2694aab)" style="fill: none; stroke: #b0b0b0; stroke-opacity: 0.3; stroke-width: 0.8; stroke-linecap: square"/>
     </g>
     <g id="line2d_27">
      <g>
       <use xlink:href="#mb4270ab6f1" x="155.092643" y="307.584" style="stroke: #000000; stroke-width: 0.8"/>
      </g>
     </g>
     <g id="text_10">
      <!-- −15 -->
      <g transform="translate(144.540299 322.182437) scale(0.1 -0.1)">
       <defs>
        <path id="DejaVuSans-35" d="M 691 4666 
L 3169 4666 
L 3169 4134 
L 1269 4134 
L 1269 2991 
Q 1406 3038 1543 3061 
Q 1681 3084 1819 3084 
Q 2600 3084 3056 2656 
Q 3513 2228 3513 1497 
Q 3513 744 3044 326 
Q 2575 -91 1722 -91 
Q 1428 -91 1123 -41 
Q 819 9 494 109 
L 494 744 
Q 775 591 1075 516 
Q 1375 441 1709 441 
Q 2250 441 2565 725 
Q 2881 1009 2881 1497 
Q 2881 1984 2565 2268 
Q 2250 2553 1709 2553 
Q 1456 2553 1204 2497 
Q 953 2441 691 2322 
L 691 4666 
z
" transform="scale(0.015625)"/>
       </defs>
       <use xlink:href="#DejaVuSans-2212"/>
       <use xlink:href="#DejaVuSans-31" x="83.789062"/>
       <use xlink:href="#DejaVuSans-35" x="147.412109"/>
      </g>
     </g>
    </g>
    <g id="xtick_8">
     <g id="line2d_28">
      <path d="M 232.11626 307.584 
L 232.11626 186.624 
" clip-path="url(#pd0b2694aab)" style="fill: none; stroke: #b0b0b0; stroke-opacity: 0.3; stroke-width: 0.8; stroke-linecap: square"/>
     </g>
     <g id="line2d_29">
      <g>
       <use xlink:href="#mb4270ab6f1" x="232.11626" y="307.584" style="stroke: #000000; stroke-width: 0.8"/>
      </g>
     </g>
     <g id="text_11">
      <!-- −10 -->
      <g transform="translate(221.563916 322.182437) scale(0.1 -0.1)">
       <use xlink:href="#DejaVuSans-2212"/>
       <use xlink:href="#DejaVuSans-31" x="83.789062"/>
       <use xlink:href="#DejaVuSans-30" x="147.412109"/>
      </g>
     </g>
    </g>
    <g id="xtick_9">
     <g id="line2d_30">
      <path d="M 309.139877 307.584 
L 309.139877 186.624 
" clip-path="url(#pd0b2694aab)" style="fill: none; stroke: #b0b0b0; stroke-opacity: 0.3; stroke-width: 0.8; stroke-linecap: square"/>
     </g>
     <g id="line2d_31">
      <g>
       <use xlink:href="#mb4270ab6f1" x="309.139877" y="307.584" style="stroke: #000000; stroke-width: 0.8"/>
      </g>
     </g>
     <g id="text_12">
      <!-- −5 -->
      <g transform="translate(301.768783 322.182437) scale(0.1 -0.1)">
       <use xlink:href="#DejaVuSans-2212"/>
       <use xlink:href="#DejaVuSans-35" x="83.789062"/>
      </g>
     </g>
    </g>
    <g id="xtick_10">
     <g id="line2d_32">
      <path d="M 386.163494 307.584 
L 386.163494 186.624 
" clip-path="url(#pd0b2694aab)" style="fill: none; stroke: #b0b0b0; stroke-opacity: 0.3; stroke-width: 0.8; stroke-linecap: square"/>
     </g>
     <g id="line2d_33">
      <g>
       <use xlink:href="#mb4270ab6f1" x="386.163494" y="307.584" style="stroke: #000000; stroke-width: 0.8"/>
      </g>
     </g>
     <g id="text_13">
      <!-- 0 -->
      <g transform="translate(382.982244 322.182437) scale(0.1 -0.1)">
       <use xlink:href="#DejaVuSans-30"/>
      </g>
     </g>
    </g>
    <g id="text_14">
     <!-- Tensión [mV] -->
     <g transform="translate(203.707656 335.860562) scale(0.1 -0.1)">
      <defs>
       <path id="DejaVuSans-6e" d="M 3513 2113 
L 3513 0 
L 2938 0 
L 2938 2094 
Q 2938 2591 2744 2837 
Q 2550 3084 2163 3084 
Q 1697 3084 1428 2787 
Q 1159 2491 1159 1978 
L 1159 0 
L 581 0 
L 581 3500 
L 1159 3500 
L 1159 2956 
Q 1366 3272 1645 3428 
Q 1925 3584 2291 3584 
Q 2894 3584 3203 3211 
Q 3513 2838 3513 2113 
z
" transform="scale(0.015625)"/>
       <path id="DejaVuSans-f3" d="M 1959 3097 
Q 1497 3097 1228 2736 
Q 959 2375 959 1747 
Q 959 1119 1226 758 
Q 1494 397 1959 397 
Q 2419 397 2687 759 
Q 2956 1122 2956 1747 
Q 2956 2369 2687 2733 
Q 2419 3097 1959 3097 
z
M 1959 3584 
Q 2709 3584 3137 3096 
Q 3566 2609 3566 1747 
Q 3566 888 3137 398 
Q 2709 -91 1959 -91 
Q 1206 -91 779 398 
Q 353 888 353 1747 
Q 353 2609 779 3096 
Q 1206 3584 1959 3584 
z
M 2394 5119 
L 3016 5119 
L 1998 3944 
L 1519 3944 
L 2394 5119 
z
" transform="scale(0.015625)"/>
      </defs>
      <use xlink:href="#DejaVuSans-54"/>
      <use xlink:href="#DejaVuSans-65" x="44.083984"/>
      <use xlink:href="#DejaVuSans-6e" x="105.607422"/>
      <use xlink:href="#DejaVuSans-73" x="168.986328"/>
      <use xlink:href="#DejaVuSans-69" x="221.085938"/>
      <use xlink:href="#DejaVuSans-f3" x="248.869141"/>
      <use xlink:href="#DejaVuSans-6e" x="310.050781"/>
      <use xlink:href="#DejaVuSans-20" x="373.429688"/>
      <use xlink:href="#DejaVuSans-5b" x="405.216797"/>
      <use xlink:href="#DejaVuSans-6d" x="444.230469"/>
      <use xlink:href="#DejaVuSans-56" x="541.642578"/>
      <use xlink:href="#DejaVuSans-5d" x="610.050781"/>
     </g>
    </g>
   </g>
   <g id="matplotlib.axis_4">
    <g id="ytick_6">
     <g id="line2d_34">
      <path d="M 57.6 299.235429 
L 414.72 299.235429 
" clip-path="url(#pd0b2694aab)" style="fill: none; stroke: #b0b0b0; stroke-opacity: 0.3; stroke-width: 0.8; stroke-linecap: square"/>
     </g>
     <g id="line2d_35">
      <g>
       <use xlink:href="#mfcbcdc4409" x="57.6" y="299.235429" style="stroke: #000000; stroke-width: 0.8"/>
      </g>
     </g>
     <g id="text_15">
      <!-- $\mathdefault{10^{0}}$ -->
      <g transform="translate(33 303.034648) scale(0.1 -0.1)">
       <use xlink:href="#DejaVuSans-31" transform="translate(0 0.765625)"/>
       <use xlink:href="#DejaVuSans-30" transform="translate(63.623047 0.765625)"/>
       <use xlink:href="#DejaVuSans-30" transform="translate(128.203125 39.046875) scale(0.7)"/>
      </g>
     </g>
    </g>
    <g id="ytick_7">
     <g id="line2d_36">
      <path d="M 57.6 271.40686 
L 414.72 271.40686 
" clip-path="url(#pd0b2694aab)" style="fill: none; stroke: #b0b0b0; stroke-opacity: 0.3; stroke-width: 0.8; stroke-linecap: square"/>
     </g>
     <g id="line2d_37">
      <g>
       <use xlink:href="#mfcbcdc4409" x="57.6" y="271.40686" style="stroke: #000000; stroke-width: 0.8"/>
      </g>
     </g>
     <g id="text_16">
      <!-- $\mathdefault{10^{1}}$ -->
      <g transform="translate(33 275.206078) scale(0.1 -0.1)">
       <use xlink:href="#DejaVuSans-31" transform="translate(0 0.684375)"/>
       <use xlink:href="#DejaVuSans-30" transform="translate(63.623047 0.684375)"/>
       <use xlink:href="#DejaVuSans-31" transform="translate(128.203125 38.965625) scale(0.7)"/>
      </g>
     </g>
    </g>
    <g id="ytick_8">
     <g id="line2d_38">
      <path d="M 57.6 243.57829 
L 414.72 243.57829 
" clip-path="url(#pd0b2694aab)" style="fill: none; stroke: #b0b0b0; stroke-opacity: 0.3; stroke-width: 0.8; stroke-linecap: square"/>
     </g>
     <g id="line2d_39">
      <g>
       <use xlink:href="#mfcbcdc4409" x="57.6" y="243.57829" style="stroke: #000000; stroke-width: 0.8"/>
      </g>
     </g>
     <g id="text_17">
      <!-- $\mathdefault{10^{2}}$ -->
      <g transform="translate(33 247.377509) scale(0.1 -0.1)">
       <use xlink:href="#DejaVuSans-31" transform="translate(0 0.765625)"/>
       <use xlink:href="#DejaVuSans-30" transform="translate(63.623047 0.765625)"/>
       <use xlink:href="#DejaVuSans-32" transform="translate(128.203125 39.046875) scale(0.7)"/>
      </g>
     </g>
    </g>
    <g id="ytick_9">
     <g id="line2d_40">
      <path d="M 57.6 215.749721 
L 414.72 215.749721 
" clip-path="url(#pd0b2694aab)" style="fill: none; stroke: #b0b0b0; stroke-opacity: 0.3; stroke-width: 0.8; stroke-linecap: square"/>
     </g>
     <g id="line2d_41">
      <g>
       <use xlink:href="#mfcbcdc4409" x="57.6" y="215.749721" style="stroke: #000000; stroke-width: 0.8"/>
      </g>
     </g>
     <g id="text_18">
      <!-- $\mathdefault{10^{3}}$ -->
      <g transform="translate(33 219.548939) scale(0.1 -0.1)">
       <use xlink:href="#DejaVuSans-31" transform="translate(0 0.765625)"/>
       <use xlink:href="#DejaVuSans-30" transform="translate(63.623047 0.765625)"/>
       <use xlink:href="#DejaVuSans-33" transform="translate(128.203125 39.046875) scale(0.7)"/>
      </g>
     </g>
    </g>
    <g id="ytick_10">
     <g id="line2d_42">
      <path d="M 57.6 187.921151 
L 414.72 187.921151 
" clip-path="url(#pd0b2694aab)" style="fill: none; stroke: #b0b0b0; stroke-opacity: 0.3; stroke-width: 0.8; stroke-linecap: square"/>
     </g>
     <g id="line2d_43">
      <g>
       <use xlink:href="#mfcbcdc4409" x="57.6" y="187.921151" style="stroke: #000000; stroke-width: 0.8"/>
      </g>
     </g>
     <g id="text_19">
      <!-- $\mathdefault{10^{4}}$ -->
      <g transform="translate(33 191.72037) scale(0.1 -0.1)">
       <defs>
        <path id="DejaVuSans-34" d="M 2419 4116 
L 825 1625 
L 2419 1625 
L 2419 4116 
z
M 2253 4666 
L 3047 4666 
L 3047 1625 
L 3713 1625 
L 3713 1100 
L 3047 1100 
L 3047 0 
L 2419 0 
L 2419 1100 
L 313 1100 
L 313 1709 
L 2253 4666 
z
" transform="scale(0.015625)"/>
       </defs>
       <use xlink:href="#DejaVuSans-31" transform="translate(0 0.684375)"/>
       <use xlink:href="#DejaVuSans-30" transform="translate(63.623047 0.684375)"/>
       <use xlink:href="#DejaVuSans-34" transform="translate(128.203125 38.965625) scale(0.7)"/>
      </g>
     </g>
    </g>
    <g id="ytick_11">
     <g id="line2d_44">
      <defs>
       <path id="m131d44e398" d="M 0 0 
L -2 0 
" style="stroke: #000000; stroke-width: 0.6"/>
      </defs>
      <g>
       <use xlink:href="#m131d44e398" x="57.6" y="305.409162" style="stroke: #000000; stroke-width: 0.6"/>
      </g>
     </g>
    </g>
    <g id="ytick_12">
     <g id="line2d_45">
      <g>
       <use xlink:href="#m131d44e398" x="57.6" y="303.546129" style="stroke: #000000; stroke-width: 0.6"/>
      </g>
     </g>
    </g>
    <g id="ytick_13">
     <g id="line2d_46">
      <g>
       <use xlink:href="#m131d44e398" x="57.6" y="301.932296" style="stroke: #000000; stroke-width: 0.6"/>
      </g>
     </g>
    </g>
    <g id="ytick_14">
     <g id="line2d_47">
      <g>
       <use xlink:href="#m131d44e398" x="57.6" y="300.508795" style="stroke: #000000; stroke-width: 0.6"/>
      </g>
     </g>
    </g>
    <g id="ytick_15">
     <g id="line2d_48">
      <g>
       <use xlink:href="#m131d44e398" x="57.6" y="290.858195" style="stroke: #000000; stroke-width: 0.6"/>
      </g>
     </g>
    </g>
    <g id="ytick_16">
     <g id="line2d_49">
      <g>
       <use xlink:href="#m131d44e398" x="57.6" y="285.957827" style="stroke: #000000; stroke-width: 0.6"/>
      </g>
     </g>
    </g>
    <g id="ytick_17">
     <g id="line2d_50">
      <g>
       <use xlink:href="#m131d44e398" x="57.6" y="282.480961" style="stroke: #000000; stroke-width: 0.6"/>
      </g>
     </g>
    </g>
    <g id="ytick_18">
     <g id="line2d_51">
      <g>
       <use xlink:href="#m131d44e398" x="57.6" y="279.784094" style="stroke: #000000; stroke-width: 0.6"/>
      </g>
     </g>
    </g>
    <g id="ytick_19">
     <g id="line2d_52">
      <g>
       <use xlink:href="#m131d44e398" x="57.6" y="277.580593" style="stroke: #000000; stroke-width: 0.6"/>
      </g>
     </g>
    </g>
    <g id="ytick_20">
     <g id="line2d_53">
      <g>
       <use xlink:href="#m131d44e398" x="57.6" y="275.71756" style="stroke: #000000; stroke-width: 0.6"/>
      </g>
     </g>
    </g>
    <g id="ytick_21">
     <g id="line2d_54">
      <g>
       <use xlink:href="#m131d44e398" x="57.6" y="274.103727" style="stroke: #000000; stroke-width: 0.6"/>
      </g>
     </g>
    </g>
    <g id="ytick_22">
     <g id="line2d_55">
      <g>
       <use xlink:href="#m131d44e398" x="57.6" y="272.680225" style="stroke: #000000; stroke-width: 0.6"/>
      </g>
     </g>
    </g>
    <g id="ytick_23">
     <g id="line2d_56">
      <g>
       <use xlink:href="#m131d44e398" x="57.6" y="263.029625" style="stroke: #000000; stroke-width: 0.6"/>
      </g>
     </g>
    </g>
    <g id="ytick_24">
     <g id="line2d_57">
      <g>
       <use xlink:href="#m131d44e398" x="57.6" y="258.129258" style="stroke: #000000; stroke-width: 0.6"/>
      </g>
     </g>
    </g>
    <g id="ytick_25">
     <g id="line2d_58">
      <g>
       <use xlink:href="#m131d44e398" x="57.6" y="254.652391" style="stroke: #000000; stroke-width: 0.6"/>
      </g>
     </g>
    </g>
    <g id="ytick_26">
     <g id="line2d_59">
      <g>
       <use xlink:href="#m131d44e398" x="57.6" y="251.955524" style="stroke: #000000; stroke-width: 0.6"/>
      </g>
     </g>
    </g>
    <g id="ytick_27">
     <g id="line2d_60">
      <g>
       <use xlink:href="#m131d44e398" x="57.6" y="249.752023" style="stroke: #000000; stroke-width: 0.6"/>
      </g>
     </g>
    </g>
    <g id="ytick_28">
     <g id="line2d_61">
      <g>
       <use xlink:href="#m131d44e398" x="57.6" y="247.88899" style="stroke: #000000; stroke-width: 0.6"/>
      </g>
     </g>
    </g>
    <g id="ytick_29">
     <g id="line2d_62">
      <g>
       <use xlink:href="#m131d44e398" x="57.6" y="246.275157" style="stroke: #000000; stroke-width: 0.6"/>
      </g>
     </g>
    </g>
    <g id="ytick_30">
     <g id="line2d_63">
      <g>
       <use xlink:href="#m131d44e398" x="57.6" y="244.851656" style="stroke: #000000; stroke-width: 0.6"/>
      </g>
     </g>
    </g>
    <g id="ytick_31">
     <g id="line2d_64">
      <g>
       <use xlink:href="#m131d44e398" x="57.6" y="235.201056" style="stroke: #000000; stroke-width: 0.6"/>
      </g>
     </g>
    </g>
    <g id="ytick_32">
     <g id="line2d_65">
      <g>
       <use xlink:href="#m131d44e398" x="57.6" y="230.300688" style="stroke: #000000; stroke-width: 0.6"/>
      </g>
     </g>
    </g>
    <g id="ytick_33">
     <g id="line2d_66">
      <g>
       <use xlink:href="#m131d44e398" x="57.6" y="226.823822" style="stroke: #000000; stroke-width: 0.6"/>
      </g>
     </g>
    </g>
    <g id="ytick_34">
     <g id="line2d_67">
      <g>
       <use xlink:href="#m131d44e398" x="57.6" y="224.126955" style="stroke: #000000; stroke-width: 0.6"/>
      </g>
     </g>
    </g>
    <g id="ytick_35">
     <g id="line2d_68">
      <g>
       <use xlink:href="#m131d44e398" x="57.6" y="221.923454" style="stroke: #000000; stroke-width: 0.6"/>
      </g>
     </g>
    </g>
    <g id="ytick_36">
     <g id="line2d_69">
      <g>
       <use xlink:href="#m131d44e398" x="57.6" y="220.060421" style="stroke: #000000; stroke-width: 0.6"/>
      </g>
     </g>
    </g>
    <g id="ytick_37">
     <g id="line2d_70">
      <g>
       <use xlink:href="#m131d44e398" x="57.6" y="218.446588" style="stroke: #000000; stroke-width: 0.6"/>
      </g>
     </g>
    </g>
    <g id="ytick_38">
     <g id="line2d_71">
      <g>
       <use xlink:href="#m131d44e398" x="57.6" y="217.023086" style="stroke: #000000; stroke-width: 0.6"/>
      </g>
     </g>
    </g>
    <g id="ytick_39">
     <g id="line2d_72">
      <g>
       <use xlink:href="#m131d44e398" x="57.6" y="207.372486" style="stroke: #000000; stroke-width: 0.6"/>
      </g>
     </g>
    </g>
    <g id="ytick_40">
     <g id="line2d_73">
      <g>
       <use xlink:href="#m131d44e398" x="57.6" y="202.472119" style="stroke: #000000; stroke-width: 0.6"/>
      </g>
     </g>
    </g>
    <g id="ytick_41">
     <g id="line2d_74">
      <g>
       <use xlink:href="#m131d44e398" x="57.6" y="198.995252" style="stroke: #000000; stroke-width: 0.6"/>
      </g>
     </g>
    </g>
    <g id="ytick_42">
     <g id="line2d_75">
      <g>
       <use xlink:href="#m131d44e398" x="57.6" y="196.298385" style="stroke: #000000; stroke-width: 0.6"/>
      </g>
     </g>
    </g>
    <g id="ytick_43">
     <g id="line2d_76">
      <g>
       <use xlink:href="#m131d44e398" x="57.6" y="194.094884" style="stroke: #000000; stroke-width: 0.6"/>
      </g>
     </g>
    </g>
    <g id="ytick_44">
     <g id="line2d_77">
      <g>
       <use xlink:href="#m131d44e398" x="57.6" y="192.231851" style="stroke: #000000; stroke-width: 0.6"/>
      </g>
     </g>
    </g>
    <g id="ytick_45">
     <g id="line2d_78">
      <g>
       <use xlink:href="#m131d44e398" x="57.6" y="190.618018" style="stroke: #000000; stroke-width: 0.6"/>
      </g>
     </g>
    </g>
    <g id="ytick_46">
     <g id="line2d_79">
      <g>
       <use xlink:href="#m131d44e398" x="57.6" y="189.194517" style="stroke: #000000; stroke-width: 0.6"/>
      </g>
     </g>
    </g>
    <g id="text_20">
     <!-- Número de eventos -->
     <g transform="translate(26.920312 296.296969) rotate(-90) scale(0.1 -0.1)">
      <defs>
       <path id="DejaVuSans-4e" d="M 628 4666 
L 1478 4666 
L 3547 763 
L 3547 4666 
L 4159 4666 
L 4159 0 
L 3309 0 
L 1241 3903 
L 1241 0 
L 628 0 
L 628 4666 
z
" transform="scale(0.015625)"/>
       <path id="DejaVuSans-fa" d="M 544 1381 
L 544 3500 
L 1119 3500 
L 1119 1403 
Q 1119 906 1312 657 
Q 1506 409 1894 409 
Q 2359 409 2629 706 
Q 2900 1003 2900 1516 
L 2900 3500 
L 3475 3500 
L 3475 0 
L 2900 0 
L 2900 538 
Q 2691 219 2414 64 
Q 2138 -91 1772 -91 
Q 1169 -91 856 284 
Q 544 659 544 1381 
z
M 1991 3584 
L 1991 3584 
z
M 2418 5119 
L 3040 5119 
L 2022 3944 
L 1543 3944 
L 2418 5119 
z
" transform="scale(0.015625)"/>
       <path id="DejaVuSans-64" d="M 2906 2969 
L 2906 4863 
L 3481 4863 
L 3481 0 
L 2906 0 
L 2906 525 
Q 2725 213 2448 61 
Q 2172 -91 1784 -91 
Q 1150 -91 751 415 
Q 353 922 353 1747 
Q 353 2572 751 3078 
Q 1150 3584 1784 3584 
Q 2172 3584 2448 3432 
Q 2725 3281 2906 2969 
z
M 947 1747 
Q 947 1113 1208 752 
Q 1469 391 1925 391 
Q 2381 391 2643 752 
Q 2906 1113 2906 1747 
Q 2906 2381 2643 2742 
Q 2381 3103 1925 3103 
Q 1469 3103 1208 2742 
Q 947 2381 947 1747 
z
" transform="scale(0.015625)"/>
       <path id="DejaVuSans-76" d="M 191 3500 
L 800 3500 
L 1894 563 
L 2988 3500 
L 3597 3500 
L 2284 0 
L 1503 0 
L 191 3500 
z
" transform="scale(0.015625)"/>
       <path id="DejaVuSans-74" d="M 1172 4494 
L 1172 3500 
L 2356 3500 
L 2356 3053 
L 1172 3053 
L 1172 1153 
Q 1172 725 1289 603 
Q 1406 481 1766 481 
L 2356 481 
L 2356 0 
L 1766 0 
Q 1100 0 847 248 
Q 594 497 594 1153 
L 594 3053 
L 172 3053 
L 172 3500 
L 594 3500 
L 594 4494 
L 1172 4494 
z
" transform="scale(0.015625)"/>
      </defs>
      <use xlink:href="#DejaVuSans-4e"/>
      <use xlink:href="#DejaVuSans-fa" x="74.804688"/>
      <use xlink:href="#DejaVuSans-6d" x="138.183594"/>
      <use xlink:href="#DejaVuSans-65" x="235.595703"/>
      <use xlink:href="#DejaVuSans-72" x="297.119141"/>
      <use xlink:href="#DejaVuSans-6f" x="335.982422"/>
      <use xlink:href="#DejaVuSans-20" x="397.164062"/>
      <use xlink:href="#DejaVuSans-64" x="428.951172"/>
      <use xlink:href="#DejaVuSans-65" x="492.427734"/>
      <use xlink:href="#DejaVuSans-20" x="553.951172"/>
      <use xlink:href="#DejaVuSans-65" x="585.738281"/>
      <use xlink:href="#DejaVuSans-76" x="647.261719"/>
      <use xlink:href="#DejaVuSans-65" x="706.441406"/>
      <use xlink:href="#DejaVuSans-6e" x="767.964844"/>
      <use xlink:href="#DejaVuSans-74" x="831.34375"/>
      <use xlink:href="#DejaVuSans-6f" x="870.552734"/>
      <use xlink:href="#DejaVuSans-73" x="931.734375"/>
     </g>
    </g>
   </g>
   <g id="LineCollection_2">
    <path d="M 339.949324 346.6 
L 339.949324 132.264012 
" clip-path="url(#pd0b2694aab)" style="fill: none; stroke-dasharray: 5.55,2.4; stroke-dashoffset: 0; stroke: #2ca02c; stroke-width: 1.5"/>
   </g>
   <g id="patch_117">
    <path d="M 57.6 307.584 
L 57.6 186.624 
" style="fill: none; stroke: #000000; stroke-width: 0.8; stroke-linejoin: miter; stroke-linecap: square"/>
   </g>
   <g id="patch_118">
    <path d="M 414.72 307.584 
L 414.72 186.624 
" style="fill: none; stroke: #000000; stroke-width: 0.8; stroke-linejoin: miter; stroke-linecap: square"/>
   </g>
   <g id="patch_119">
    <path d="M 57.6 307.584 
L 414.72 307.584 
" style="fill: none; stroke: #000000; stroke-width: 0.8; stroke-linejoin: miter; stroke-linecap: square"/>
   </g>
   <g id="patch_120">
    <path d="M 57.6 186.624 
L 414.72 186.624 
" style="fill: none; stroke: #000000; stroke-width: 0.8; stroke-linejoin: miter; stroke-linecap: square"/>
   </g>
   <g id="legend_2">
    <g id="patch_121">
     <path d="M 64.6 223.98025 
L 226.879687 223.98025 
Q 228.879687 223.98025 228.879687 221.98025 
L 228.879687 193.624 
Q 228.879687 191.624 226.879687 191.624 
L 64.6 191.624 
Q 62.6 191.624 62.6 193.624 
L 62.6 221.98025 
Q 62.6 223.98025 64.6 223.98025 
z
" style="fill: #ffffff; opacity: 0.8; stroke: #cccccc; stroke-linejoin: miter"/>
    </g>
    <g id="patch_122">
     <path d="M 66.6 203.222437 
L 86.6 203.222437 
L 86.6 196.222437 
L 66.6 196.222437 
z
" style="fill: #ff7f0e; opacity: 0.75"/>
    </g>
    <g id="text_21">
     <!-- Laser incidiendo sobre FM -->
     <g transform="translate(94.6 203.222437) scale(0.1 -0.1)">
      <defs>
       <path id="DejaVuSans-4c" d="M 628 4666 
L 1259 4666 
L 1259 531 
L 3531 531 
L 3531 0 
L 628 0 
L 628 4666 
z
" transform="scale(0.015625)"/>
       <path id="DejaVuSans-46" d="M 628 4666 
L 3309 4666 
L 3309 4134 
L 1259 4134 
L 1259 2759 
L 3109 2759 
L 3109 2228 
L 1259 2228 
L 1259 0 
L 628 0 
L 628 4666 
z
" transform="scale(0.015625)"/>
       <path id="DejaVuSans-4d" d="M 628 4666 
L 1569 4666 
L 2759 1491 
L 3956 4666 
L 4897 4666 
L 4897 0 
L 4281 0 
L 4281 4097 
L 3078 897 
L 2444 897 
L 1241 4097 
L 1241 0 
L 628 0 
L 628 4666 
z
" transform="scale(0.015625)"/>
      </defs>
      <use xlink:href="#DejaVuSans-4c"/>
      <use xlink:href="#DejaVuSans-61" x="55.712891"/>
      <use xlink:href="#DejaVuSans-73" x="116.992188"/>
      <use xlink:href="#DejaVuSans-65" x="169.091797"/>
      <use xlink:href="#DejaVuSans-72" x="230.615234"/>
      <use xlink:href="#DejaVuSans-20" x="271.728516"/>
      <use xlink:href="#DejaVuSans-69" x="303.515625"/>
      <use xlink:href="#DejaVuSans-6e" x="331.298828"/>
      <use xlink:href="#DejaVuSans-63" x="394.677734"/>
      <use xlink:href="#DejaVuSans-69" x="449.658203"/>
      <use xlink:href="#DejaVuSans-64" x="477.441406"/>
      <use xlink:href="#DejaVuSans-69" x="540.917969"/>
      <use xlink:href="#DejaVuSans-65" x="568.701172"/>
      <use xlink:href="#DejaVuSans-6e" x="630.224609"/>
      <use xlink:href="#DejaVuSans-64" x="693.603516"/>
      <use xlink:href="#DejaVuSans-6f" x="757.080078"/>
      <use xlink:href="#DejaVuSans-20" x="818.261719"/>
      <use xlink:href="#DejaVuSans-73" x="850.048828"/>
      <use xlink:href="#DejaVuSans-6f" x="902.148438"/>
      <use xlink:href="#DejaVuSans-62" x="963.330078"/>
      <use xlink:href="#DejaVuSans-72" x="1026.806641"/>
      <use xlink:href="#DejaVuSans-65" x="1065.669922"/>
      <use xlink:href="#DejaVuSans-20" x="1127.193359"/>
      <use xlink:href="#DejaVuSans-46" x="1158.980469"/>
      <use xlink:href="#DejaVuSans-4d" x="1216.5"/>
     </g>
    </g>
    <g id="patch_123">
     <path d="M 66.6 217.900562 
L 86.6 217.900562 
L 86.6 210.900562 
L 66.6 210.900562 
z
" style="fill: #1f77b4"/>
    </g>
    <g id="text_22">
     <!-- Ruido -->
     <g transform="translate(94.6 217.900562) scale(0.1 -0.1)">
      <defs>
       <path id="DejaVuSans-52" d="M 2841 2188 
Q 3044 2119 3236 1894 
Q 3428 1669 3622 1275 
L 4263 0 
L 3584 0 
L 2988 1197 
Q 2756 1666 2539 1819 
Q 2322 1972 1947 1972 
L 1259 1972 
L 1259 0 
L 628 0 
L 628 4666 
L 2053 4666 
Q 2853 4666 3247 4331 
Q 3641 3997 3641 3322 
Q 3641 2881 3436 2590 
Q 3231 2300 2841 2188 
z
M 1259 4147 
L 1259 2491 
L 2053 2491 
Q 2509 2491 2742 2702 
Q 2975 2913 2975 3322 
Q 2975 3731 2742 3939 
Q 2509 4147 2053 4147 
L 1259 4147 
z
" transform="scale(0.015625)"/>
       <path id="DejaVuSans-75" d="M 544 1381 
L 544 3500 
L 1119 3500 
L 1119 1403 
Q 1119 906 1312 657 
Q 1506 409 1894 409 
Q 2359 409 2629 706 
Q 2900 1003 2900 1516 
L 2900 3500 
L 3475 3500 
L 3475 0 
L 2900 0 
L 2900 538 
Q 2691 219 2414 64 
Q 2138 -91 1772 -91 
Q 1169 -91 856 284 
Q 544 659 544 1381 
z
M 1991 3584 
L 1991 3584 
z
" transform="scale(0.015625)"/>
      </defs>
      <use xlink:href="#DejaVuSans-52"/>
      <use xlink:href="#DejaVuSans-75" x="64.982422"/>
      <use xlink:href="#DejaVuSans-69" x="128.361328"/>
      <use xlink:href="#DejaVuSans-64" x="156.144531"/>
      <use xlink:href="#DejaVuSans-6f" x="219.621094"/>
     </g>
    </g>
   </g>
  </g>
 </g>
 <defs>
  <clipPath id="p4df814a0ad">
   <rect x="57.6" y="41.472" width="357.12" height="120.96"/>
  </clipPath>
  <clipPath id="pd0b2694aab">
   <rect x="57.6" y="186.624" width="357.12" height="120.96"/>
  </clipPath>
 </defs>
</svg>
