<?xml version="1.0" encoding="utf-8" standalone="no"?>
<!DOCTYPE svg PUBLIC "-//W3C//DTD SVG 1.1//EN"
  "http://www.w3.org/Graphics/SVG/1.1/DTD/svg11.dtd">
<svg xmlns:xlink="http://www.w3.org/1999/xlink" width="460.8pt" height="345.6pt" viewBox="0 0 460.8 345.6" xmlns="http://www.w3.org/2000/svg" version="1.1">
 <metadata>
  <rdf:RDF xmlns:dc="http://purl.org/dc/elements/1.1/" xmlns:cc="http://creativecommons.org/ns#" xmlns:rdf="http://www.w3.org/1999/02/22-rdf-syntax-ns#">
   <cc:Work>
    <dc:type rdf:resource="http://purl.org/dc/dcmitype/StillImage"/>
    <dc:date>2023-02-27T15:05:54.982144</dc:date>
    <dc:format>image/svg+xml</dc:format>
    <dc:creator>
     <cc:Agent>
      <dc:title>Matplotlib v3.6.2, https://matplotlib.org/</dc:title>
     </cc:Agent>
    </dc:creator>
   </cc:Work>
  </rdf:RDF>
 </metadata>
 <defs>
  <style type="text/css">*{stroke-linejoin: round; stroke-linecap: butt}</style>
 </defs>
 <g id="figure_1">
  <g id="patch_1">
   <path d="M 0 345.6 
L 460.8 345.6 
L 460.8 0 
L 0 0 
z
" style="fill: #ffffff"/>
  </g>
  <g id="axes_1">
   <g id="patch_2">
    <path d="M 54.11 303.64 
L 450 303.64 
L 450 10.8 
L 54.11 10.8 
z
" style="fill: #ffffff"/>
   </g>
   <g id="PathCollection_1">
    <defs>
     <path id="m1eab4b443a" d="M 0 1.118034 
C 0.296506 1.118034 0.580908 1.000231 0.790569 0.790569 
C 1.000231 0.580908 1.118034 0.296506 1.118034 0 
C 1.118034 -0.296506 1.000231 -0.580908 0.790569 -0.790569 
C 0.580908 -1.000231 0.296506 -1.118034 0 -1.118034 
C -0.296506 -1.118034 -0.580908 -1.000231 -0.790569 -0.790569 
C -1.000231 -0.580908 -1.118034 -0.296506 -1.118034 0 
C -1.118034 0.296506 -1.000231 0.580908 -0.790569 0.790569 
C -0.580908 1.000231 -0.296506 1.118034 0 1.118034 
z
" style="stroke: #000000"/>
    </defs>
    <g clip-path="url(#pbbe52610e2)">
     <use xlink:href="#m1eab4b443a" x="345.474786" y="224.767366" style="stroke: #000000"/>
     <use xlink:href="#m1eab4b443a" x="276.945226" y="171.971629" style="stroke: #000000"/>
     <use xlink:href="#m1eab4b443a" x="193.957473" y="119.175893" style="stroke: #000000"/>
     <use xlink:href="#m1eab4b443a" x="158.635214" y="88.528611" style="stroke: #000000"/>
    </g>
   </g>
   <g id="PolyCollection_1">
    <path d="M 72.105 24.110909 
L 72.105 33.257092 
L 72.46526 33.505911 
L 72.825521 33.754733 
L 73.185781 34.003557 
L 73.546041 34.252383 
L 73.906301 34.501213 
L 74.266562 34.750046 
L 74.626822 34.998881 
L 74.987082 35.247718 
L 75.347342 35.496559 
L 75.707603 35.745402 
L 76.067863 35.994247 
L 76.428123 36.243096 
L 76.788383 36.491947 
L 77.148644 36.740802 
L 77.508904 36.989659 
L 77.869164 37.238517 
L 78.229424 37.487381 
L 78.589685 37.736247 
L 78.949945 37.985115 
L 79.310205 38.233985 
L 79.670465 38.482859 
L 80.030726 38.731737 
L 80.390986 38.980617 
L 80.751246 39.2295 
L 81.111507 39.478386 
L 81.471767 39.727274 
L 81.832027 39.976165 
L 82.192287 40.225061 
L 82.552548 40.473959 
L 82.912808 40.722859 
L 83.273068 40.971764 
L 83.633328 41.22067 
L 83.993589 41.469579 
L 84.353849 41.718493 
L 84.714109 41.967409 
L 85.074369 42.216327 
L 85.43463 42.465252 
L 85.79489 42.714177 
L 86.15515 42.963105 
L 86.51541 43.212038 
L 86.875671 43.460973 
L 87.235931 43.709912 
L 87.596191 43.958853 
L 87.956451 44.2078 
L 88.316712 44.456748 
L 88.676972 44.705699 
L 89.037232 44.954656 
L 89.397492 45.203613 
L 89.757753 45.452576 
L 90.118013 45.701542 
L 90.478273 45.95051 
L 90.838534 46.199483 
L 91.198794 46.448459 
L 91.559054 46.697438 
L 91.919314 46.946422 
L 92.279575 47.195408 
L 92.639835 47.444398 
L 93.000095 47.69339 
L 93.360355 47.942388 
L 93.720616 48.191389 
L 94.080876 48.440393 
L 94.441136 48.6894 
L 94.801396 48.938412 
L 95.161657 49.187427 
L 95.521917 49.436446 
L 95.882177 49.685469 
L 96.242437 49.934494 
L 96.602698 50.183525 
L 96.962958 50.432559 
L 97.323218 50.681597 
L 97.683478 50.930639 
L 98.043739 51.179684 
L 98.403999 51.428735 
L 98.764259 51.677788 
L 99.12452 51.926844 
L 99.48478 52.175906 
L 99.84504 52.424971 
L 100.2053 52.674041 
L 100.565561 52.923115 
L 100.925821 53.172192 
L 101.286081 53.421273 
L 101.646341 53.67036 
L 102.006602 53.919449 
L 102.366862 54.168542 
L 102.727122 54.417643 
L 103.087382 54.666744 
L 103.447643 54.91585 
L 103.807903 55.164962 
L 104.168163 55.414076 
L 104.528423 55.663197 
L 104.888684 55.91232 
L 105.248944 56.161448 
L 105.609204 56.410582 
L 105.969464 56.659717 
L 106.329725 56.908859 
L 106.689985 57.158006 
L 107.050245 57.407157 
L 107.410506 57.656311 
L 107.770766 57.90547 
L 108.131026 58.154635 
L 108.491286 58.403803 
L 108.851547 58.652977 
L 109.211807 58.902155 
L 109.572067 59.151336 
L 109.932327 59.400524 
L 110.292588 59.649717 
L 110.652848 59.898914 
L 111.013108 60.148115 
L 111.373368 60.397323 
L 111.733629 60.646535 
L 112.093889 60.895752 
L 112.454149 61.144971 
L 112.814409 61.394198 
L 113.17467 61.643429 
L 113.53493 61.892666 
L 113.89519 62.141907 
L 114.25545 62.391155 
L 114.615711 62.640407 
L 114.975971 62.889664 
L 115.336231 63.138928 
L 115.696491 63.388194 
L 116.056752 63.637466 
L 116.417012 63.886746 
L 116.777272 64.136027 
L 117.137533 64.385319 
L 117.497793 64.634611 
L 117.858053 64.883912 
L 118.218313 65.133215 
L 118.578574 65.382526 
L 118.938834 65.631843 
L 119.299094 65.881165 
L 119.659354 66.130492 
L 120.019615 66.379825 
L 120.379875 66.629164 
L 120.740135 66.878508 
L 121.100395 67.127858 
L 121.460656 67.377214 
L 121.820916 67.626577 
L 122.181176 67.875943 
L 122.541436 68.125316 
L 122.901697 68.374696 
L 123.261957 68.624082 
L 123.622217 68.873473 
L 123.982477 69.122873 
L 124.342738 69.372276 
L 124.702998 69.621685 
L 125.063258 69.871101 
L 125.423519 70.120523 
L 125.783779 70.369952 
L 126.144039 70.619386 
L 126.504299 70.868829 
L 126.86456 71.118275 
L 127.22482 71.36773 
L 127.58508 71.61719 
L 127.94534 71.86666 
L 128.305601 72.116133 
L 128.665861 72.365611 
L 129.026121 72.6151 
L 129.386381 72.864593 
L 129.746642 73.114096 
L 130.106902 73.363603 
L 130.467162 73.613115 
L 130.827422 73.862639 
L 131.187683 74.112166 
L 131.547943 74.361701 
L 131.908203 74.611243 
L 132.268463 74.860791 
L 132.628724 75.110349 
L 132.988984 75.359913 
L 133.349244 75.609484 
L 133.709505 75.859061 
L 134.069765 76.108648 
L 134.430025 76.358241 
L 134.790285 76.60784 
L 135.150546 76.857447 
L 135.510806 77.107064 
L 135.871066 77.356686 
L 136.231326 77.606316 
L 136.591587 77.855955 
L 136.951847 78.105599 
L 137.312107 78.355255 
L 137.672367 78.604916 
L 138.032628 78.854584 
L 138.392888 79.104263 
L 138.753148 79.353948 
L 139.113408 79.603642 
L 139.473669 79.853343 
L 139.833929 80.103054 
L 140.194189 80.35277 
L 140.554449 80.602497 
L 140.91471 80.852233 
L 141.27497 81.101975 
L 141.63523 81.351726 
L 141.99549 81.601487 
L 142.355751 81.851255 
L 142.716011 82.101032 
L 143.076271 82.350819 
L 143.436532 82.600615 
L 143.796792 82.850417 
L 144.157052 83.100229 
L 144.517312 83.350055 
L 144.877573 83.599883 
L 145.237833 83.849725 
L 145.598093 84.099574 
L 145.958353 84.349432 
L 146.318614 84.599298 
L 146.678874 84.849175 
L 147.039134 85.099064 
L 147.399394 85.348958 
L 147.759655 85.598864 
L 148.119915 85.84878 
L 148.480175 86.098703 
L 148.840435 86.348639 
L 149.200696 86.598582 
L 149.560956 86.848537 
L 149.921216 87.0985 
L 150.281476 87.348475 
L 150.641737 87.59846 
L 151.001997 87.848456 
L 151.362257 88.098459 
L 151.722518 88.348473 
L 152.082778 88.5985 
L 152.443038 88.848536 
L 152.803298 89.098583 
L 153.163559 89.34864 
L 153.523819 89.598708 
L 153.884079 89.848786 
L 154.244339 90.098878 
L 154.6046 90.348978 
L 154.96486 90.599089 
L 155.32512 90.849211 
L 155.68538 91.099347 
L 156.045641 91.349493 
L 156.405901 91.59965 
L 156.766161 91.849816 
L 157.126421 92.099997 
L 157.486682 92.35019 
L 157.846942 92.600395 
L 158.207202 92.850606 
L 158.567462 93.100835 
L 158.927723 93.351074 
L 159.287983 93.601324 
L 159.648243 93.851589 
L 160.008504 94.101863 
L 160.368764 94.35215 
L 160.729024 94.602452 
L 161.089284 94.852764 
L 161.449545 95.10309 
L 161.809805 95.353429 
L 162.170065 95.603778 
L 162.530325 95.854142 
L 162.890586 96.104519 
L 163.250846 96.354908 
L 163.611106 96.605311 
L 163.971366 96.855727 
L 164.331627 97.106158 
L 164.691887 97.3566 
L 165.052147 97.607057 
L 165.412407 97.857527 
L 165.772668 98.10801 
L 166.132928 98.358507 
L 166.493188 98.609019 
L 166.853448 98.859547 
L 167.213709 99.110086 
L 167.573969 99.36064 
L 167.934229 99.611208 
L 168.294489 99.861793 
L 168.65475 100.112392 
L 169.01501 100.363004 
L 169.37527 100.613632 
L 169.735531 100.864274 
L 170.095791 101.114931 
L 170.456051 101.365605 
L 170.816311 101.61629 
L 171.176572 101.866995 
L 171.536832 102.117716 
L 171.897092 102.368448 
L 172.257352 102.619202 
L 172.617613 102.869967 
L 172.977873 103.120746 
L 173.338133 103.371548 
L 173.698393 103.622361 
L 174.058654 103.873192 
L 174.418914 104.124039 
L 174.779174 104.374903 
L 175.139434 104.625784 
L 175.499695 104.876683 
L 175.859955 105.127595 
L 176.220215 105.378528 
L 176.580475 105.629476 
L 176.940736 105.880442 
L 177.300996 106.131424 
L 177.661256 106.382426 
L 178.021517 106.633445 
L 178.381777 106.884482 
L 178.742037 107.135534 
L 179.102297 107.38661 
L 179.462558 107.637699 
L 179.822818 107.888809 
L 180.183078 108.139938 
L 180.543338 108.391082 
L 180.903599 108.642248 
L 181.263859 108.893433 
L 181.624119 109.144637 
L 181.984379 109.395858 
L 182.34464 109.647102 
L 182.7049 109.898363 
L 183.06516 110.149643 
L 183.42542 110.400944 
L 183.785681 110.652266 
L 184.145941 110.903607 
L 184.506201 111.154969 
L 184.866461 111.406349 
L 185.226722 111.657752 
L 185.586982 111.909175 
L 185.947242 112.160621 
L 186.307503 112.412086 
L 186.667763 112.663567 
L 187.028023 112.915078 
L 187.388283 113.166604 
L 187.748544 113.418156 
L 188.108804 113.669728 
L 188.469064 113.921321 
L 188.829324 114.172939 
L 189.189585 114.424574 
L 189.549845 114.676237 
L 189.910105 114.92792 
L 190.270365 115.179623 
L 190.630626 115.431354 
L 190.990886 115.683106 
L 191.351146 115.934879 
L 191.711406 116.18668 
L 192.071667 116.4385 
L 192.431927 116.690344 
L 192.792187 116.942216 
L 193.152447 117.194108 
L 193.512708 117.446024 
L 193.872968 117.697966 
L 194.233228 117.949932 
L 194.593488 118.201923 
L 194.953749 118.453939 
L 195.314009 118.705979 
L 195.674269 118.958046 
L 196.03453 119.210136 
L 196.39479 119.462255 
L 196.75505 119.714399 
L 197.11531 119.966566 
L 197.475571 120.218762 
L 197.835831 120.470983 
L 198.196091 120.72323 
L 198.556351 120.975508 
L 198.916612 121.227807 
L 199.276872 121.480132 
L 199.637132 121.732491 
L 199.997392 121.984869 
L 200.357653 122.237283 
L 200.717913 122.489721 
L 201.078173 122.742184 
L 201.438433 122.994681 
L 201.798694 123.247202 
L 202.158954 123.499755 
L 202.519214 123.752329 
L 202.879474 124.004939 
L 203.239735 124.257576 
L 203.599995 124.510242 
L 203.960255 124.762934 
L 204.320516 125.015659 
L 204.680776 125.268416 
L 205.041036 125.521197 
L 205.401296 125.774016 
L 205.761557 126.026859 
L 206.121817 126.279735 
L 206.482077 126.532639 
L 206.842337 126.785576 
L 207.202598 127.038544 
L 207.562858 127.291542 
L 207.923118 127.544573 
L 208.283378 127.797633 
L 208.643639 128.050729 
L 209.003899 128.303851 
L 209.364159 128.557011 
L 209.724419 128.810198 
L 210.08468 129.063421 
L 210.44494 129.316678 
L 210.8052 129.569967 
L 211.16546 129.823286 
L 211.525721 130.076641 
L 211.885981 130.330025 
L 212.246241 130.583453 
L 212.606502 130.836905 
L 212.966762 131.090394 
L 213.327022 131.34392 
L 213.687282 131.597474 
L 214.047543 131.851069 
L 214.407803 132.104696 
L 214.768063 132.358358 
L 215.128323 132.612053 
L 215.488584 132.865786 
L 215.848844 133.119552 
L 216.209104 133.373357 
L 216.569364 133.627193 
L 216.929625 133.88107 
L 217.289885 134.134981 
L 217.650145 134.388927 
L 218.010405 134.642909 
L 218.370666 134.89693 
L 218.730926 135.150987 
L 219.091186 135.405082 
L 219.451446 135.659213 
L 219.811707 135.913381 
L 220.171967 136.167587 
L 220.532227 136.421829 
L 220.892487 136.676113 
L 221.252748 136.930429 
L 221.613008 137.184785 
L 221.973268 137.439182 
L 222.333529 137.693617 
L 222.693789 137.948092 
L 223.054049 138.202604 
L 223.414309 138.457153 
L 223.77457 138.711742 
L 224.13483 138.966371 
L 224.49509 139.221038 
L 224.85535 139.47575 
L 225.215611 139.730492 
L 225.575871 139.985282 
L 225.936131 140.240109 
L 226.296391 140.494975 
L 226.656652 140.749885 
L 227.016912 141.004831 
L 227.377172 141.259818 
L 227.737432 141.514852 
L 228.097693 141.769918 
L 228.457953 142.025031 
L 228.818213 142.280181 
L 229.178473 142.535372 
L 229.538734 142.790609 
L 229.898994 143.045882 
L 230.259254 143.301202 
L 230.619515 143.556556 
L 230.979775 143.811959 
L 231.340035 144.067399 
L 231.700295 144.322883 
L 232.060556 144.578408 
L 232.420816 144.833976 
L 232.781076 145.089585 
L 233.141336 145.345239 
L 233.501597 145.600934 
L 233.861857 145.85667 
L 234.222117 146.112448 
L 234.582377 146.368273 
L 234.942638 146.624137 
L 235.302898 146.880045 
L 235.663158 147.135997 
L 236.023418 147.391987 
L 236.383679 147.648024 
L 236.743939 147.904106 
L 237.104199 148.160226 
L 237.464459 148.416396 
L 237.82472 148.672604 
L 238.18498 148.928858 
L 238.54524 149.185152 
L 238.9055 149.441492 
L 239.265761 149.697872 
L 239.626021 149.954301 
L 239.986281 150.210771 
L 240.346542 150.46729 
L 240.706802 150.723839 
L 241.067062 150.980441 
L 241.427322 151.237088 
L 241.787583 151.493775 
L 242.147843 151.750509 
L 242.508103 152.007283 
L 242.868363 152.264103 
L 243.228624 152.520967 
L 243.588884 152.777874 
L 243.949144 153.034825 
L 244.309404 153.291814 
L 244.669665 153.548859 
L 245.029925 153.805939 
L 245.390185 154.063063 
L 245.750445 154.320231 
L 246.110706 154.577447 
L 246.470966 154.834698 
L 246.831226 155.092001 
L 247.191486 155.349348 
L 247.551747 155.606738 
L 247.912007 155.864164 
L 248.272267 156.121641 
L 248.632528 156.379162 
L 248.992788 156.636714 
L 249.353048 156.894326 
L 249.713308 157.151977 
L 250.073569 157.409671 
L 250.433829 157.667401 
L 250.794089 157.925182 
L 251.154349 158.183006 
L 251.51461 158.440865 
L 251.87487 158.698775 
L 252.23513 158.956728 
L 252.59539 159.214716 
L 252.955651 159.472755 
L 253.315911 159.730837 
L 253.676171 159.988953 
L 254.036431 160.24712 
L 254.396692 160.505329 
L 254.756952 160.763573 
L 255.117212 161.021867 
L 255.477472 161.280203 
L 255.837733 161.538573 
L 256.197993 161.796993 
L 256.558253 162.055456 
L 256.918514 162.313952 
L 257.278774 162.572494 
L 257.639034 162.831085 
L 257.999294 163.089702 
L 258.359555 163.348372 
L 258.719815 163.607083 
L 259.080075 163.865832 
L 259.440335 164.124621 
L 259.800596 164.383456 
L 260.160856 164.642331 
L 260.521116 164.901239 
L 260.881376 165.160199 
L 261.241637 165.419196 
L 261.601897 165.678221 
L 261.962157 165.937302 
L 262.322417 166.196419 
L 262.682678 166.455564 
L 263.042938 166.71476 
L 263.403198 166.974 
L 263.763458 167.233272 
L 264.123719 167.492578 
L 264.483979 167.751936 
L 264.844239 168.011325 
L 265.204499 168.270748 
L 265.56476 168.530222 
L 265.92502 168.789731 
L 266.28528 169.049266 
L 266.645541 169.308855 
L 267.005801 169.568477 
L 267.366061 169.828127 
L 267.726321 170.087825 
L 268.086582 170.347561 
L 268.446842 170.607331 
L 268.807102 170.867137 
L 269.167362 171.126985 
L 269.527623 171.386865 
L 269.887883 171.646782 
L 270.248143 171.906739 
L 270.608403 172.166726 
L 270.968664 172.426755 
L 271.328924 172.686821 
L 271.689184 172.946915 
L 272.049444 173.207053 
L 272.409705 173.467225 
L 272.769965 173.727426 
L 273.130225 173.987665 
L 273.490485 174.247946 
L 273.850746 174.508259 
L 274.211006 174.768599 
L 274.571266 175.02898 
L 274.931527 175.289396 
L 275.291787 175.549838 
L 275.652047 175.810321 
L 276.012307 176.070839 
L 276.372568 176.331385 
L 276.732828 176.591965 
L 277.093088 176.852579 
L 277.453348 177.113232 
L 277.813609 177.373907 
L 278.173869 177.634622 
L 278.534129 177.895366 
L 278.894389 178.156142 
L 279.25465 178.416953 
L 279.61491 178.677793 
L 279.97517 178.938664 
L 280.33543 179.199566 
L 280.695691 179.460507 
L 281.055951 179.721468 
L 281.416211 179.982468 
L 281.776471 180.243498 
L 282.136732 180.504551 
L 282.496992 180.765638 
L 282.857252 181.026759 
L 283.217513 181.287906 
L 283.577773 181.549086 
L 283.938033 181.810296 
L 284.298293 182.071525 
L 284.658554 182.332794 
L 285.018814 182.594091 
L 285.379074 182.855414 
L 285.739334 183.116765 
L 286.099595 183.378152 
L 286.459855 183.639564 
L 286.820115 183.900993 
L 287.180375 184.162461 
L 287.540636 184.423956 
L 287.900896 184.685472 
L 288.261156 184.947025 
L 288.621416 185.208599 
L 288.981677 185.4702 
L 289.341937 185.731831 
L 289.702197 185.993486 
L 290.062457 186.25517 
L 290.422718 186.516874 
L 290.782978 186.77861 
L 291.143238 187.040373 
L 291.503498 187.302155 
L 291.863759 187.563969 
L 292.224019 187.825808 
L 292.584279 188.087666 
L 292.94454 188.349555 
L 293.3048 188.61147 
L 293.66506 188.873402 
L 294.02532 189.135366 
L 294.385581 189.397354 
L 294.745841 189.65936 
L 295.106101 189.921393 
L 295.466361 190.183457 
L 295.826622 190.445534 
L 296.186882 190.707638 
L 296.547142 190.969772 
L 296.907402 191.23192 
L 297.267663 191.494094 
L 297.627923 191.756297 
L 297.988183 192.01852 
L 298.348443 192.280758 
L 298.708704 192.543026 
L 299.068964 192.805316 
L 299.429224 193.067618 
L 299.789484 193.329955 
L 300.149745 193.592308 
L 300.510005 193.854682 
L 300.870265 194.117081 
L 301.230526 194.379501 
L 301.590786 194.641936 
L 301.951046 194.904398 
L 302.311306 195.166878 
L 302.671567 195.429378 
L 303.031827 195.6919 
L 303.392087 195.954447 
L 303.752347 196.217012 
L 304.112608 196.479588 
L 304.472868 196.742196 
L 304.833128 197.004818 
L 305.193388 197.267459 
L 305.553649 197.53012 
L 305.913909 197.792806 
L 306.274169 198.055503 
L 306.634429 198.318222 
L 306.99469 198.580962 
L 307.35495 198.843722 
L 307.71521 199.106494 
L 308.07547 199.36929 
L 308.435731 199.632105 
L 308.795991 199.894933 
L 309.156251 200.157784 
L 309.516512 200.420654 
L 309.876772 200.683535 
L 310.237032 200.94644 
L 310.597292 201.209363 
L 310.957553 201.472294 
L 311.317813 201.735255 
L 311.678073 201.998229 
L 312.038333 202.261216 
L 312.398594 202.524224 
L 312.758854 202.78725 
L 313.119114 203.050287 
L 313.479374 203.313346 
L 313.839635 203.576421 
L 314.199895 203.839507 
L 314.560155 204.102615 
L 314.920415 204.365736 
L 315.280676 204.628874 
L 315.640936 204.892027 
L 316.001196 205.155198 
L 316.361456 205.418389 
L 316.721717 205.681583 
L 317.081977 205.944801 
L 317.442237 206.208038 
L 317.802497 206.471278 
L 318.162758 206.734542 
L 318.523018 206.997824 
L 318.883278 207.261109 
L 319.243539 207.524417 
L 319.603799 207.787743 
L 319.964059 208.051078 
L 320.324319 208.314424 
L 320.68458 208.577793 
L 321.04484 208.841171 
L 321.4051 209.10456 
L 321.76536 209.367971 
L 322.125621 209.631391 
L 322.485881 209.894822 
L 322.846141 210.158272 
L 323.206401 210.421735 
L 323.566662 210.685209 
L 323.926922 210.948697 
L 324.287182 211.212198 
L 324.647442 211.475712 
L 325.007703 211.739242 
L 325.367963 212.002785 
L 325.728223 212.266335 
L 326.088483 212.529904 
L 326.448744 212.793485 
L 326.809004 213.057074 
L 327.169264 213.320677 
L 327.529525 213.584296 
L 327.889785 213.847925 
L 328.250045 214.111568 
L 328.610305 214.375221 
L 328.970566 214.638886 
L 329.330826 214.902566 
L 329.691086 215.166258 
L 330.051346 215.429961 
L 330.411607 215.693668 
L 330.771867 215.957395 
L 331.132127 216.221133 
L 331.492387 216.484878 
L 331.852648 216.748639 
L 332.212908 217.012414 
L 332.573168 217.276195 
L 332.933428 217.539984 
L 333.293689 217.80379 
L 333.653949 218.067607 
L 334.014209 218.33143 
L 334.374469 218.595271 
L 334.73473 218.859117 
L 335.09499 219.122972 
L 335.45525 219.386843 
L 335.815511 219.650724 
L 336.175771 219.91461 
L 336.536031 220.178512 
L 336.896291 220.442424 
L 337.256552 220.706341 
L 337.616812 220.970271 
L 337.977072 221.234216 
L 338.337332 221.498164 
L 338.697593 221.762126 
L 339.057853 222.026098 
L 339.418113 222.290075 
L 339.778373 222.554065 
L 340.138634 222.818068 
L 340.498894 223.082075 
L 340.859154 223.346093 
L 341.219414 223.610125 
L 341.579675 223.874157 
L 341.939935 224.138208 
L 342.300195 224.402265 
L 342.660455 224.666332 
L 343.020716 224.930401 
L 343.380976 225.194486 
L 343.741236 225.458583 
L 344.101496 225.722679 
L 344.461757 225.986793 
L 344.822017 226.250911 
L 345.182277 226.515036 
L 345.542538 226.779174 
L 345.902798 227.04332 
L 346.263058 227.307475 
L 346.623318 227.571634 
L 346.983579 227.835806 
L 347.343839 228.099987 
L 347.704099 228.364171 
L 348.064359 228.628368 
L 348.42462 228.892573 
L 348.78488 229.156782 
L 349.14514 229.421003 
L 349.5054 229.685232 
L 349.865661 229.949465 
L 350.225921 230.213708 
L 350.586181 230.477964 
L 350.946441 230.74222 
L 351.306702 231.006487 
L 351.666962 231.270765 
L 352.027222 231.535045 
L 352.387482 231.799336 
L 352.747743 232.063635 
L 353.108003 232.327938 
L 353.468263 232.592252 
L 353.828524 232.856573 
L 354.188784 233.120895 
L 354.549044 233.385234 
L 354.909304 233.649575 
L 355.269565 233.913923 
L 355.629825 234.178281 
L 355.990085 234.442643 
L 356.350345 234.707017 
L 356.710606 234.97139 
L 357.070866 235.235777 
L 357.431126 235.500168 
L 357.791386 235.764563 
L 358.151647 236.028969 
L 358.511907 236.293382 
L 358.872167 236.557804 
L 359.232427 236.822224 
L 359.592688 237.086657 
L 359.952948 237.351097 
L 360.313208 237.615539 
L 360.673468 237.879992 
L 361.033729 238.144451 
L 361.393989 238.408912 
L 361.754249 238.673382 
L 362.11451 238.937862 
L 362.47477 239.202343 
L 362.83503 239.466833 
L 363.19529 239.73133 
L 363.555551 239.995829 
L 363.915811 240.260339 
L 364.276071 240.524852 
L 364.636331 240.789371 
L 364.996592 241.053899 
L 365.356852 241.318432 
L 365.717112 241.582967 
L 366.077372 241.847512 
L 366.437633 242.112061 
L 366.797893 242.376616 
L 367.158153 242.641176 
L 367.518413 242.905747 
L 367.878674 243.170319 
L 368.238934 243.434894 
L 368.599194 243.699481 
L 368.959454 243.96407 
L 369.319715 244.228663 
L 369.679975 244.493265 
L 370.040235 244.757872 
L 370.400495 245.022481 
L 370.760756 245.287099 
L 371.121016 245.551723 
L 371.481276 245.816348 
L 371.841537 246.080982 
L 372.201797 246.345619 
L 372.562057 246.610266 
L 372.922317 246.874912 
L 373.282578 247.139565 
L 373.642838 247.404227 
L 374.003098 247.668889 
L 374.363358 247.933559 
L 374.723619 248.198235 
L 375.083879 248.462911 
L 375.444139 248.727595 
L 375.804399 248.992287 
L 376.16466 249.256979 
L 376.52492 249.521679 
L 376.88518 249.786382 
L 377.24544 250.051092 
L 377.605701 250.315803 
L 377.965961 250.580523 
L 378.326221 250.845247 
L 378.686481 251.109972 
L 379.046742 251.374705 
L 379.407002 251.639444 
L 379.767262 251.904183 
L 380.127523 252.16893 
L 380.487783 252.433682 
L 380.848043 252.698435 
L 381.208303 252.963196 
L 381.568564 253.227962 
L 381.928824 253.492728 
L 382.289084 253.757504 
L 382.649344 254.022281 
L 383.009605 254.28706 
L 383.369865 254.551848 
L 383.730125 254.81664 
L 384.090385 255.081432 
L 384.450646 255.346233 
L 384.810906 255.611035 
L 385.171166 255.875846 
L 385.531426 256.140655 
L 385.891687 256.405471 
L 386.251947 256.670294 
L 386.612207 256.935116 
L 386.972467 257.199945 
L 387.332728 257.464779 
L 387.692988 257.729611 
L 388.053248 257.994455 
L 388.413509 258.2593 
L 388.773769 258.524148 
L 389.134029 258.788998 
L 389.494289 259.053855 
L 389.85455 259.318717 
L 390.21481 259.583579 
L 390.57507 259.848448 
L 390.93533 260.113321 
L 391.295591 260.378194 
L 391.655851 260.643074 
L 392.016111 260.907957 
L 392.376371 261.172843 
L 392.736632 261.437735 
L 393.096892 261.70263 
L 393.457152 261.967524 
L 393.817412 262.232429 
L 394.177673 262.497333 
L 394.537933 262.762242 
L 394.898193 263.027155 
L 395.258453 263.292071 
L 395.618714 263.55699 
L 395.978974 263.821914 
L 396.339234 264.08684 
L 396.699494 264.351768 
L 397.059755 264.616702 
L 397.420015 264.881641 
L 397.780275 265.14658 
L 398.140536 265.411524 
L 398.500796 265.676472 
L 398.861056 265.941424 
L 399.221316 266.206376 
L 399.581577 266.471334 
L 399.941837 266.736297 
L 400.302097 267.001257 
L 400.662357 267.266226 
L 401.022618 267.531197 
L 401.382878 267.796172 
L 401.743138 268.061147 
L 402.103398 268.326128 
L 402.463659 268.591112 
L 402.823919 268.856097 
L 403.184179 269.121087 
L 403.544439 269.386081 
L 403.9047 269.651075 
L 404.26496 269.916075 
L 404.62522 270.181076 
L 404.98548 270.446081 
L 405.345741 270.71109 
L 405.706001 270.976101 
L 406.066261 271.241114 
L 406.426522 271.506133 
L 406.786782 271.771154 
L 407.147042 272.036173 
L 407.507302 272.3012 
L 407.867563 272.56623 
L 408.227823 272.83126 
L 408.588083 273.096296 
L 408.948343 273.361335 
L 409.308604 273.626373 
L 409.668864 273.891418 
L 410.029124 274.156465 
L 410.389384 274.421512 
L 410.749645 274.686565 
L 411.109905 274.951621 
L 411.470165 275.216679 
L 411.830425 275.481736 
L 412.190686 275.746801 
L 412.550946 276.011868 
L 412.911206 276.276934 
L 413.271466 276.542005 
L 413.631727 276.807081 
L 413.991987 277.072154 
L 414.352247 277.337236 
L 414.712508 277.602317 
L 415.072768 277.867402 
L 415.433028 278.132489 
L 415.793288 278.397578 
L 416.153549 278.662671 
L 416.513809 278.927764 
L 416.874069 279.192863 
L 417.234329 279.457963 
L 417.59459 279.723065 
L 417.95485 279.988167 
L 418.31511 280.253277 
L 418.67537 280.518385 
L 419.035631 280.783499 
L 419.395891 281.048613 
L 419.756151 281.31373 
L 420.116411 281.578849 
L 420.476672 281.843972 
L 420.836932 282.109096 
L 421.197192 282.374224 
L 421.557452 282.639354 
L 421.917713 282.904484 
L 422.277973 283.169618 
L 422.638233 283.434757 
L 422.998493 283.699894 
L 423.358754 283.965034 
L 423.719014 284.23018 
L 424.079274 284.495322 
L 424.439535 284.760471 
L 424.799795 285.025623 
L 425.160055 285.290776 
L 425.520315 285.555929 
L 425.880576 285.821089 
L 426.240836 286.086249 
L 426.601096 286.351407 
L 426.961356 286.616572 
L 427.321617 286.881739 
L 427.681877 287.146908 
L 428.042137 287.412076 
L 428.402397 287.67725 
L 428.762658 287.942425 
L 429.122918 288.2076 
L 429.483178 288.472779 
L 429.843438 288.737961 
L 430.203699 289.003142 
L 430.563959 289.268328 
L 430.924219 289.533516 
L 431.284479 289.798705 
L 431.64474 290.063896 
L 432.005 290.329091 
L 432.005 280.431285 
L 432.005 280.431285 
L 431.64474 280.182573 
L 431.284479 279.933858 
L 430.924219 279.68514 
L 430.563959 279.436422 
L 430.203699 279.187702 
L 429.843438 278.938977 
L 429.483178 278.690253 
L 429.122918 278.441525 
L 428.762658 278.192794 
L 428.402397 277.944063 
L 428.042137 277.69533 
L 427.681877 277.446592 
L 427.321617 277.197855 
L 426.961356 276.949116 
L 426.601096 276.700374 
L 426.240836 276.451626 
L 425.880576 276.20288 
L 425.520315 275.954133 
L 425.160055 275.70538 
L 424.799795 275.456627 
L 424.439535 275.207872 
L 424.079274 274.959115 
L 423.719014 274.710351 
L 423.358754 274.461591 
L 422.998493 274.212825 
L 422.638233 273.964055 
L 422.277973 273.715288 
L 421.917713 273.466515 
L 421.557452 273.217739 
L 421.197192 272.968963 
L 420.836932 272.720185 
L 420.476672 272.471402 
L 420.116411 272.222619 
L 419.756151 271.973832 
L 419.395891 271.725043 
L 419.035631 271.476251 
L 418.67537 271.227458 
L 418.31511 270.978659 
L 417.95485 270.729863 
L 417.59459 270.48106 
L 417.234329 270.232255 
L 416.874069 269.983448 
L 416.513809 269.734642 
L 416.153549 269.485828 
L 415.793288 269.237015 
L 415.433028 268.988198 
L 415.072768 268.739378 
L 414.712508 268.490557 
L 414.352247 268.241732 
L 413.991987 267.992908 
L 413.631727 267.744074 
L 413.271466 267.495244 
L 412.911206 267.246408 
L 412.550946 266.997568 
L 412.190686 266.748729 
L 411.830425 266.499888 
L 411.470165 266.251038 
L 411.109905 266.002191 
L 410.749645 265.75334 
L 410.389384 265.504487 
L 410.029124 265.255627 
L 409.668864 265.006768 
L 409.308604 264.757907 
L 408.948343 264.509039 
L 408.588083 264.260171 
L 408.227823 264.011301 
L 407.867563 263.762424 
L 407.507302 263.513548 
L 407.147042 263.264669 
L 406.786782 263.015782 
L 406.426522 262.766897 
L 406.066261 262.518009 
L 405.706001 262.269116 
L 405.345741 262.020221 
L 404.98548 261.771324 
L 404.62522 261.522422 
L 404.26496 261.273517 
L 403.9047 261.024611 
L 403.544439 260.775698 
L 403.184179 260.526786 
L 402.823919 260.27787 
L 402.463659 260.028948 
L 402.103398 259.780026 
L 401.743138 259.531101 
L 401.382878 259.28217 
L 401.022618 259.033238 
L 400.662357 258.784303 
L 400.302097 258.535365 
L 399.941837 258.286419 
L 399.581577 258.037476 
L 399.221316 257.788528 
L 398.861056 257.539574 
L 398.500796 257.290619 
L 398.140536 257.041661 
L 397.780275 256.792698 
L 397.420015 256.543732 
L 397.059755 256.294764 
L 396.699494 256.045792 
L 396.339234 255.796814 
L 395.978974 255.547834 
L 395.618714 255.298852 
L 395.258453 255.049864 
L 394.898193 254.800873 
L 394.537933 254.551881 
L 394.177673 254.302883 
L 393.817412 254.053881 
L 393.457152 253.804879 
L 393.096892 253.555867 
L 392.736632 253.306856 
L 392.376371 253.057842 
L 392.016111 252.808822 
L 391.655851 252.559798 
L 391.295591 252.310772 
L 390.93533 252.061739 
L 390.57507 251.812706 
L 390.21481 251.563668 
L 389.85455 251.314624 
L 389.494289 251.065579 
L 389.134029 250.81653 
L 388.773769 250.567474 
L 388.413509 250.318415 
L 388.053248 250.069355 
L 387.692988 249.820292 
L 387.332728 249.571218 
L 386.972467 249.322145 
L 386.612207 249.073068 
L 386.251947 248.823984 
L 385.891687 248.574901 
L 385.531426 248.32581 
L 385.171166 248.076713 
L 384.810906 247.827617 
L 384.450646 247.578514 
L 384.090385 247.329408 
L 383.730125 247.080294 
L 383.369865 246.83118 
L 383.009605 246.582061 
L 382.649344 246.332934 
L 382.289084 246.083805 
L 381.928824 245.834675 
L 381.568564 245.585535 
L 381.208303 245.336394 
L 380.848043 245.087249 
L 380.487783 244.838095 
L 380.127523 244.588941 
L 379.767262 244.339782 
L 379.407002 244.090615 
L 379.046742 243.841447 
L 378.686481 243.592274 
L 378.326221 243.343093 
L 377.965961 243.093911 
L 377.605701 242.844724 
L 377.24544 242.595529 
L 376.88518 242.346332 
L 376.52492 242.097129 
L 376.16466 241.847923 
L 375.804399 241.598708 
L 375.444139 241.349494 
L 375.083879 241.100272 
L 374.723619 240.851042 
L 374.363358 240.601811 
L 374.003098 240.352575 
L 373.642838 240.103331 
L 373.282578 239.854086 
L 372.922317 239.604833 
L 372.562057 239.355573 
L 372.201797 239.106314 
L 371.841537 238.857045 
L 371.481276 238.607773 
L 371.121016 238.358491 
L 370.760756 238.109209 
L 370.400495 237.859921 
L 370.040235 237.610623 
L 369.679975 237.361324 
L 369.319715 237.11202 
L 368.959454 236.862706 
L 368.599194 236.613389 
L 368.238934 236.36407 
L 367.878674 236.114739 
L 367.518413 235.865405 
L 367.158153 235.616069 
L 366.797893 235.366723 
L 366.437633 235.117371 
L 366.077372 234.868014 
L 365.717112 234.618653 
L 365.356852 234.369282 
L 364.996592 234.119909 
L 364.636331 233.87053 
L 364.276071 233.621143 
L 363.915811 233.37175 
L 363.555551 233.122353 
L 363.19529 232.872945 
L 362.83503 232.623536 
L 362.47477 232.374121 
L 362.11451 232.124695 
L 361.754249 231.875269 
L 361.393989 231.625832 
L 361.033729 231.376387 
L 360.673468 231.12694 
L 360.313208 230.877487 
L 359.952948 230.628022 
L 359.592688 230.378556 
L 359.232427 230.129082 
L 358.872167 229.879596 
L 358.511907 229.630112 
L 358.151647 229.380619 
L 357.791386 229.131119 
L 357.431126 228.881607 
L 357.070866 228.632092 
L 356.710606 228.382573 
L 356.350345 228.133039 
L 355.990085 227.883507 
L 355.629825 227.633963 
L 355.269565 227.384415 
L 354.909304 227.134857 
L 354.549044 226.885291 
L 354.188784 226.635723 
L 353.828524 226.386139 
L 353.468263 226.136555 
L 353.108003 225.886962 
L 352.747743 225.637358 
L 352.387482 225.387751 
L 352.027222 225.138137 
L 351.666962 224.88851 
L 351.306702 224.638882 
L 350.946441 224.389242 
L 350.586181 224.139592 
L 350.225921 223.889942 
L 349.865661 223.640278 
L 349.5054 223.390605 
L 349.14514 223.140928 
L 348.78488 222.891243 
L 348.42462 222.641545 
L 348.064359 222.391844 
L 347.704099 222.142135 
L 347.343839 221.892413 
L 346.983579 221.642687 
L 346.623318 221.392953 
L 346.263058 221.143205 
L 345.902798 220.893454 
L 345.542538 220.643695 
L 345.182277 220.393926 
L 344.822017 220.144145 
L 344.461757 219.894357 
L 344.101496 219.644564 
L 343.741236 219.394754 
L 343.380976 219.144944 
L 343.020716 218.895123 
L 342.660455 218.645286 
L 342.300195 218.395446 
L 341.939935 218.145598 
L 341.579675 217.895742 
L 341.219414 217.645868 
L 340.859154 217.395994 
L 340.498894 217.146106 
L 340.138634 216.896205 
L 339.778373 216.646303 
L 339.418113 216.396386 
L 339.057853 216.146457 
L 338.697593 215.896523 
L 338.337332 215.646579 
L 337.977072 215.39662 
L 337.616812 215.146659 
L 337.256552 214.896682 
L 336.896291 214.646693 
L 336.536031 214.396699 
L 336.175771 214.146695 
L 335.815511 213.896675 
L 335.45525 213.64665 
L 335.09499 213.396614 
L 334.73473 213.146562 
L 334.374469 212.896503 
L 334.014209 212.646437 
L 333.653949 212.396354 
L 333.293689 212.146264 
L 332.933428 211.896164 
L 332.573168 211.646047 
L 332.212908 211.395922 
L 331.852648 211.145791 
L 331.492387 210.895645 
L 331.132127 210.645484 
L 330.771867 210.395316 
L 330.411607 210.145136 
L 330.051346 209.894937 
L 329.691086 209.644734 
L 329.330826 209.394519 
L 328.970566 209.144293 
L 328.610305 208.894052 
L 328.250045 208.643798 
L 327.889785 208.393535 
L 327.529525 208.143258 
L 327.169264 207.89297 
L 326.809004 207.642668 
L 326.448744 207.39235 
L 326.088483 207.142025 
L 325.728223 206.891687 
L 325.367963 206.641332 
L 325.007703 206.390968 
L 324.647442 206.140592 
L 324.287182 205.8902 
L 323.926922 205.639794 
L 323.566662 205.389376 
L 323.206401 205.138944 
L 322.846141 204.888501 
L 322.485881 204.638044 
L 322.125621 204.387569 
L 321.76536 204.137082 
L 321.4051 203.886587 
L 321.04484 203.63607 
L 320.68458 203.385541 
L 320.324319 203.135004 
L 319.964059 202.884444 
L 319.603799 202.633873 
L 319.243539 202.383292 
L 318.883278 202.132694 
L 318.523018 201.882073 
L 318.162758 201.631449 
L 317.802497 201.380806 
L 317.442237 201.13014 
L 317.081977 200.879471 
L 316.721717 200.628783 
L 316.361456 200.378071 
L 316.001196 200.127355 
L 315.640936 199.87662 
L 315.280676 199.625867 
L 314.920415 199.375098 
L 314.560155 199.124313 
L 314.199895 198.873515 
L 313.839635 198.622694 
L 313.479374 198.371864 
L 313.119114 198.121016 
L 312.758854 197.870147 
L 312.398594 197.619266 
L 312.038333 197.368368 
L 311.678073 197.117448 
L 311.317813 196.866517 
L 310.957553 196.615571 
L 310.597292 196.364596 
L 310.237032 196.113612 
L 309.876772 195.862611 
L 309.516512 195.611586 
L 309.156251 195.36055 
L 308.795991 195.109495 
L 308.435731 194.858416 
L 308.07547 194.607325 
L 307.71521 194.356215 
L 307.35495 194.105081 
L 306.99469 193.853934 
L 306.634429 193.602768 
L 306.274169 193.351581 
L 305.913909 193.100371 
L 305.553649 192.849151 
L 305.193388 192.597906 
L 304.833128 192.346641 
L 304.472868 192.095356 
L 304.112608 191.844058 
L 303.752347 191.592727 
L 303.392087 191.341386 
L 303.031827 191.090027 
L 302.671567 190.838642 
L 302.311306 190.587237 
L 301.951046 190.33581 
L 301.590786 190.084366 
L 301.230526 189.832895 
L 300.870265 189.581408 
L 300.510005 189.329901 
L 300.149745 189.078369 
L 299.789484 188.826815 
L 299.429224 188.575246 
L 299.068964 188.323642 
L 298.708704 188.072026 
L 298.348443 187.820387 
L 297.988183 187.568719 
L 297.627923 187.317036 
L 297.267663 187.065333 
L 296.907402 186.8136 
L 296.547142 186.561842 
L 296.186882 186.310069 
L 295.826622 186.058267 
L 295.466361 185.806439 
L 295.106101 185.554596 
L 294.745841 185.302723 
L 294.385581 185.050822 
L 294.02532 184.798904 
L 293.66506 184.546961 
L 293.3048 184.294988 
L 292.94454 184.042996 
L 292.584279 183.790979 
L 292.224019 183.538931 
L 291.863759 183.286864 
L 291.503498 183.034771 
L 291.143238 182.782647 
L 290.782978 182.530503 
L 290.422718 182.278333 
L 290.062457 182.026131 
L 289.702197 181.773909 
L 289.341937 181.521657 
L 288.981677 181.269382 
L 288.621416 181.017076 
L 288.261156 180.764744 
L 287.900896 180.512391 
L 287.540636 180.260001 
L 287.180375 180.00759 
L 286.820115 179.755151 
L 286.459855 179.502674 
L 286.099595 179.25018 
L 285.739334 178.99766 
L 285.379074 178.745105 
L 285.018814 178.492522 
L 284.658554 178.239913 
L 284.298293 177.987275 
L 283.938033 177.734598 
L 283.577773 177.481902 
L 283.217513 177.229176 
L 282.857252 176.976417 
L 282.496992 176.723631 
L 282.136732 176.470812 
L 281.776471 176.217959 
L 281.416211 175.965082 
L 281.055951 175.712175 
L 280.695691 175.45923 
L 280.33543 175.206265 
L 279.97517 174.953261 
L 279.61491 174.700226 
L 279.25465 174.447159 
L 278.894389 174.194065 
L 278.534129 173.940934 
L 278.173869 173.687771 
L 277.813609 173.43458 
L 277.453348 173.181349 
L 277.093088 172.928096 
L 276.732828 172.674803 
L 276.372568 172.421477 
L 276.012307 172.168117 
L 275.652047 171.914728 
L 275.291787 171.661305 
L 274.931527 171.407841 
L 274.571266 171.154351 
L 274.211006 170.900826 
L 273.850746 170.647259 
L 273.490485 170.393666 
L 273.130225 170.140041 
L 272.769965 169.886374 
L 272.409705 169.632668 
L 272.049444 169.378934 
L 271.689184 169.125165 
L 271.328924 168.871353 
L 270.968664 168.617513 
L 270.608403 168.363636 
L 270.248143 168.109716 
L 269.887883 167.855767 
L 269.527623 167.601778 
L 269.167362 167.347752 
L 268.807102 167.093693 
L 268.446842 166.839593 
L 268.086582 166.585457 
L 267.726321 166.331286 
L 267.366061 166.077078 
L 267.005801 165.822821 
L 266.645541 165.568538 
L 266.28528 165.31422 
L 265.92502 165.059849 
L 265.56476 164.805452 
L 265.204499 164.551019 
L 264.844239 164.296537 
L 264.483979 164.042019 
L 264.123719 163.78747 
L 263.763458 163.532871 
L 263.403198 163.278236 
L 263.042938 163.023569 
L 262.682678 162.76886 
L 262.322417 162.514098 
L 261.962157 162.259309 
L 261.601897 162.004484 
L 261.241637 161.749603 
L 260.881376 161.494693 
L 260.521116 161.239747 
L 260.160856 160.984749 
L 259.800596 160.729717 
L 259.440335 160.474645 
L 259.080075 160.219529 
L 258.719815 159.964371 
L 258.359555 159.709176 
L 257.999294 159.45394 
L 257.639034 159.198651 
L 257.278774 158.943336 
L 256.918514 158.687971 
L 256.558253 158.432561 
L 256.197993 158.177117 
L 255.837733 157.921631 
L 255.477472 157.666095 
L 255.117212 157.410525 
L 254.756952 157.154913 
L 254.396692 156.89925 
L 254.036431 156.643553 
L 253.676171 156.387814 
L 253.315911 156.132024 
L 252.955651 155.876199 
L 252.59539 155.620331 
L 252.23513 155.364413 
L 251.87487 155.10846 
L 251.51461 154.852464 
L 251.154349 154.596417 
L 250.794089 154.340334 
L 250.433829 154.084209 
L 250.073569 153.828033 
L 249.713308 153.571821 
L 249.353048 153.315565 
L 248.992788 153.059271 
L 248.632528 152.802917 
L 248.272267 152.546531 
L 247.912007 152.290102 
L 247.551747 152.033622 
L 247.191486 151.777106 
L 246.831226 151.520546 
L 246.470966 151.263943 
L 246.110706 151.007288 
L 245.750445 150.750597 
L 245.390185 150.493859 
L 245.029925 150.237077 
L 244.669665 149.980251 
L 244.309404 149.723389 
L 243.949144 149.466472 
L 243.588884 149.209517 
L 243.228624 148.952518 
L 242.868363 148.695475 
L 242.508103 148.438389 
L 242.147843 148.181257 
L 241.787583 147.924085 
L 241.427322 147.666865 
L 241.067062 147.409606 
L 240.706802 147.152301 
L 240.346542 146.894945 
L 239.986281 146.637556 
L 239.626021 146.380121 
L 239.265761 146.122643 
L 238.9055 145.865117 
L 238.54524 145.60755 
L 238.18498 145.349939 
L 237.82472 145.092286 
L 237.464459 144.834587 
L 237.104199 144.576852 
L 236.743939 144.319065 
L 236.383679 144.061241 
L 236.023418 143.803372 
L 235.663158 143.545456 
L 235.302898 143.287501 
L 234.942638 143.029503 
L 234.582377 142.77146 
L 234.222117 142.513379 
L 233.861857 142.255251 
L 233.501597 141.99708 
L 233.141336 141.738869 
L 232.781076 141.480618 
L 232.420816 141.22232 
L 232.060556 140.963982 
L 231.700295 140.7056 
L 231.340035 140.447178 
L 230.979775 140.188712 
L 230.619515 139.930208 
L 230.259254 139.671657 
L 229.898994 139.41307 
L 229.538734 139.154437 
L 229.178473 138.895767 
L 228.818213 138.637052 
L 228.457953 138.378296 
L 228.097693 138.119503 
L 227.737432 137.860663 
L 227.377172 137.60179 
L 227.016912 137.34287 
L 226.656652 137.08391 
L 226.296391 136.824914 
L 225.936131 136.565874 
L 225.575871 136.306795 
L 225.215611 136.047678 
L 224.85535 135.788514 
L 224.49509 135.52932 
L 224.13483 135.270081 
L 223.77457 135.010804 
L 223.414309 134.751486 
L 223.054049 134.492129 
L 222.693789 134.232734 
L 222.333529 133.973303 
L 221.973268 133.713832 
L 221.613008 133.454322 
L 221.252748 133.194772 
L 220.892487 132.935182 
L 220.532227 132.675559 
L 220.171967 132.415895 
L 219.811707 132.156196 
L 219.451446 131.896456 
L 219.091186 131.636682 
L 218.730926 131.37687 
L 218.370666 131.117021 
L 218.010405 130.857136 
L 217.650145 130.597212 
L 217.289885 130.337251 
L 216.929625 130.077256 
L 216.569364 129.817227 
L 216.209104 129.557156 
L 215.848844 129.297055 
L 215.488584 129.036915 
L 215.128323 128.776741 
L 214.768063 128.51653 
L 214.407803 128.256286 
L 214.047543 127.996007 
L 213.687282 127.735695 
L 213.327022 127.475343 
L 212.966762 127.214963 
L 212.606502 126.954546 
L 212.246241 126.694091 
L 211.885981 126.433612 
L 211.525721 126.173091 
L 211.16546 125.912539 
L 210.8052 125.651953 
L 210.44494 125.391335 
L 210.08468 125.130686 
L 209.724419 124.870002 
L 209.364159 124.609283 
L 209.003899 124.348537 
L 208.643639 124.087753 
L 208.283378 123.826942 
L 207.923118 123.566096 
L 207.562858 123.305221 
L 207.202598 123.044312 
L 206.842337 122.783374 
L 206.482077 122.522404 
L 206.121817 122.261403 
L 205.761557 122.000372 
L 205.401296 121.739309 
L 205.041036 121.478221 
L 204.680776 121.217096 
L 204.320516 120.955947 
L 203.960255 120.694765 
L 203.599995 120.433551 
L 203.239735 120.172311 
L 202.879474 119.911042 
L 202.519214 119.649746 
L 202.158954 119.388414 
L 201.798694 119.12706 
L 201.438433 118.865674 
L 201.078173 118.604266 
L 200.717913 118.342822 
L 200.357653 118.081354 
L 199.997392 117.819861 
L 199.637132 117.558333 
L 199.276872 117.296786 
L 198.916612 117.035204 
L 198.556351 116.773598 
L 198.196091 116.51197 
L 197.835831 116.25031 
L 197.475571 115.988625 
L 197.11531 115.726914 
L 196.75505 115.465175 
L 196.39479 115.203412 
L 196.03453 114.941625 
L 195.674269 114.679809 
L 195.314009 114.41797 
L 194.953749 114.156103 
L 194.593488 113.894213 
L 194.233228 113.632299 
L 193.872968 113.370357 
L 193.512708 113.108393 
L 193.152447 112.846403 
L 192.792187 112.584389 
L 192.431927 112.322354 
L 192.071667 112.060292 
L 191.711406 111.798206 
L 191.351146 111.5361 
L 190.990886 111.273968 
L 190.630626 111.011814 
L 190.270365 110.749638 
L 189.910105 110.487435 
L 189.549845 110.225212 
L 189.189585 109.962968 
L 188.829324 109.700697 
L 188.469064 109.438409 
L 188.108804 109.176095 
L 187.748544 108.913761 
L 187.388283 108.651407 
L 187.028023 108.389027 
L 186.667763 108.126631 
L 186.307503 107.864206 
L 185.947242 107.601765 
L 185.586982 107.339304 
L 185.226722 107.076821 
L 184.866461 106.814318 
L 184.506201 106.551792 
L 184.145941 106.289247 
L 183.785681 106.026682 
L 183.42542 105.764097 
L 183.06516 105.501493 
L 182.7049 105.238866 
L 182.34464 104.976221 
L 181.984379 104.713558 
L 181.624119 104.450874 
L 181.263859 104.188171 
L 180.903599 103.92545 
L 180.543338 103.662709 
L 180.183078 103.399947 
L 179.822818 103.13717 
L 179.462558 102.874374 
L 179.102297 102.611556 
L 178.742037 102.348726 
L 178.381777 102.085872 
L 178.021517 101.823002 
L 177.661256 101.560115 
L 177.300996 101.29721 
L 176.940736 101.034287 
L 176.580475 100.771347 
L 176.220215 100.508388 
L 175.859955 100.245415 
L 175.499695 99.98242 
L 175.139434 99.719413 
L 174.779174 99.456388 
L 174.418914 99.193346 
L 174.058654 98.930286 
L 173.698393 98.667211 
L 173.338133 98.404118 
L 172.977873 98.141013 
L 172.617613 97.877887 
L 172.257352 97.614745 
L 171.897092 97.351593 
L 171.536832 97.088418 
L 171.176572 96.825233 
L 170.816311 96.562032 
L 170.456051 96.298811 
L 170.095791 96.035578 
L 169.735531 95.77233 
L 169.37527 95.509065 
L 169.01501 95.245786 
L 168.65475 94.982492 
L 168.294489 94.719185 
L 167.934229 94.455864 
L 167.573969 94.192526 
L 167.213709 93.929173 
L 166.853448 93.665806 
L 166.493188 93.402427 
L 166.132928 93.139033 
L 165.772668 92.875624 
L 165.412407 92.6122 
L 165.052147 92.348765 
L 164.691887 92.085315 
L 164.331627 91.821851 
L 163.971366 91.558376 
L 163.611106 91.294885 
L 163.250846 91.031382 
L 162.890586 90.767864 
L 162.530325 90.504335 
L 162.170065 90.240793 
L 161.809805 89.977236 
L 161.449545 89.713668 
L 161.089284 89.450089 
L 160.729024 89.186494 
L 160.368764 88.92289 
L 160.008504 88.65927 
L 159.648243 88.395638 
L 159.287983 88.131997 
L 158.927723 87.86834 
L 158.567462 87.604673 
L 158.207202 87.340996 
L 157.846942 87.077301 
L 157.486682 86.8136 
L 157.126421 86.549886 
L 156.766161 86.28616 
L 156.405901 86.02242 
L 156.045641 85.758671 
L 155.68538 85.494911 
L 155.32512 85.23114 
L 154.96486 84.967356 
L 154.6046 84.703561 
L 154.244339 84.439755 
L 153.884079 84.175941 
L 153.523819 83.912113 
L 153.163559 83.648274 
L 152.803298 83.384425 
L 152.443038 83.120566 
L 152.082778 82.856695 
L 151.722518 82.592816 
L 151.362257 82.328924 
L 151.001997 82.065021 
L 150.641737 81.80111 
L 150.281476 81.537189 
L 149.921216 81.273257 
L 149.560956 81.009314 
L 149.200696 80.745363 
L 148.840435 80.4814 
L 148.480175 80.21743 
L 148.119915 79.953446 
L 147.759655 79.689456 
L 147.399394 79.425456 
L 147.039134 79.161443 
L 146.678874 78.897426 
L 146.318614 78.633397 
L 145.958353 78.369356 
L 145.598093 78.105308 
L 145.237833 77.841251 
L 144.877573 77.577186 
L 144.517312 77.313109 
L 144.157052 77.049028 
L 143.796792 76.784934 
L 143.436532 76.520829 
L 143.076271 76.256719 
L 142.716011 75.9926 
L 142.355751 75.728471 
L 141.99549 75.464333 
L 141.63523 75.200187 
L 141.27497 74.936032 
L 140.91471 74.671868 
L 140.554449 74.407698 
L 140.194189 74.143518 
L 139.833929 73.879328 
L 139.473669 73.615133 
L 139.113408 73.350927 
L 138.753148 73.086715 
L 138.392888 72.822493 
L 138.032628 72.558266 
L 137.672367 72.294028 
L 137.312107 72.029783 
L 136.951847 71.765533 
L 136.591587 71.50127 
L 136.231326 71.237002 
L 135.871066 70.972727 
L 135.510806 70.708443 
L 135.150546 70.444153 
L 134.790285 70.179854 
L 134.430025 69.915547 
L 134.069765 69.651234 
L 133.709505 69.386914 
L 133.349244 69.122585 
L 132.988984 68.85825 
L 132.628724 68.593907 
L 132.268463 68.329559 
L 131.908203 68.065201 
L 131.547943 67.800836 
L 131.187683 67.536465 
L 130.827422 67.272086 
L 130.467162 67.007703 
L 130.106902 66.74331 
L 129.746642 66.47891 
L 129.386381 66.214507 
L 129.026121 65.950093 
L 128.665861 65.685676 
L 128.305601 65.421248 
L 127.94534 65.156815 
L 127.58508 64.892378 
L 127.22482 64.627932 
L 126.86456 64.363481 
L 126.504299 64.099021 
L 126.144039 63.834557 
L 125.783779 63.570085 
L 125.423519 63.305608 
L 125.063258 63.041123 
L 124.702998 62.776633 
L 124.342738 62.512136 
L 123.982477 62.247633 
L 123.622217 61.983126 
L 123.261957 61.718611 
L 122.901697 61.454091 
L 122.541436 61.189564 
L 122.181176 60.925031 
L 121.820916 60.66049 
L 121.460656 60.395947 
L 121.100395 60.131397 
L 120.740135 59.866841 
L 120.379875 59.602279 
L 120.019615 59.337711 
L 119.659354 59.073138 
L 119.299094 58.808558 
L 118.938834 58.543974 
L 118.578574 58.279385 
L 118.218313 58.01479 
L 117.858053 57.750187 
L 117.497793 57.485581 
L 117.137533 57.220967 
L 116.777272 56.956353 
L 116.417012 56.691727 
L 116.056752 56.427101 
L 115.696491 56.162467 
L 115.336231 55.897827 
L 114.975971 55.633185 
L 114.615711 55.368535 
L 114.25545 55.10388 
L 113.89519 54.839222 
L 113.53493 54.574558 
L 113.17467 54.309888 
L 112.814409 54.045213 
L 112.454149 53.780533 
L 112.093889 53.515847 
L 111.733629 53.251157 
L 111.373368 52.986463 
L 111.013108 52.721764 
L 110.652848 52.457059 
L 110.292588 52.192349 
L 109.932327 51.927636 
L 109.572067 51.662918 
L 109.211807 51.398193 
L 108.851547 51.133465 
L 108.491286 50.868732 
L 108.131026 50.603994 
L 107.770766 50.339253 
L 107.410506 50.074505 
L 107.050245 49.809753 
L 106.689985 49.544998 
L 106.329725 49.280239 
L 105.969464 49.015474 
L 105.609204 48.750703 
L 105.248944 48.485931 
L 104.888684 48.221153 
L 104.528423 47.956369 
L 104.168163 47.691584 
L 103.807903 47.426791 
L 103.447643 47.161997 
L 103.087382 46.897197 
L 102.727122 46.632392 
L 102.366862 46.367587 
L 102.006602 46.102773 
L 101.646341 45.837956 
L 101.286081 45.573136 
L 100.925821 45.308312 
L 100.565561 45.043482 
L 100.2053 44.77865 
L 99.84504 44.513814 
L 99.48478 44.248972 
L 99.12452 43.984128 
L 98.764259 43.719278 
L 98.403999 43.454425 
L 98.043739 43.189569 
L 97.683478 42.924708 
L 97.323218 42.659843 
L 96.962958 42.394975 
L 96.602698 42.130103 
L 96.242437 41.865227 
L 95.882177 41.600347 
L 95.521917 41.335463 
L 95.161657 41.070576 
L 94.801396 40.805685 
L 94.441136 40.54079 
L 94.080876 40.275891 
L 93.720616 40.010988 
L 93.360355 39.746084 
L 93.000095 39.481176 
L 92.639835 39.216261 
L 92.279575 38.951345 
L 91.919314 38.686424 
L 91.559054 38.421502 
L 91.198794 38.156575 
L 90.838534 37.891645 
L 90.478273 37.626711 
L 90.118013 37.361773 
L 89.757753 37.096832 
L 89.397492 36.831889 
L 89.037232 36.56694 
L 88.676972 36.301991 
L 88.316712 36.037036 
L 87.956451 35.772077 
L 87.596191 35.507118 
L 87.235931 35.242153 
L 86.875671 34.977185 
L 86.51541 34.712214 
L 86.15515 34.447241 
L 85.79489 34.182263 
L 85.43463 33.917282 
L 85.074369 33.6523 
L 84.714109 33.387312 
L 84.353849 33.122322 
L 83.993589 32.857329 
L 83.633328 32.592332 
L 83.273068 32.327332 
L 82.912808 32.062331 
L 82.552548 31.797325 
L 82.192287 31.532316 
L 81.832027 31.267306 
L 81.471767 31.002291 
L 81.111507 30.737272 
L 80.751246 30.472252 
L 80.390986 30.207229 
L 80.030726 29.942202 
L 79.670465 29.677173 
L 79.310205 29.412141 
L 78.949945 29.147106 
L 78.589685 28.882067 
L 78.229424 28.617027 
L 77.869164 28.351984 
L 77.508904 28.086936 
L 77.148644 27.821887 
L 76.788383 27.556835 
L 76.428123 27.29178 
L 76.067863 27.026723 
L 75.707603 26.761662 
L 75.347342 26.496599 
L 74.987082 26.231533 
L 74.626822 25.966463 
L 74.266562 25.701393 
L 73.906301 25.436319 
L 73.546041 25.171243 
L 73.185781 24.906163 
L 72.825521 24.641081 
L 72.46526 24.375996 
L 72.105 24.110909 
z
" clip-path="url(#pbbe52610e2)" style="fill: #808080; fill-opacity: 0.3"/>
   </g>
   <g id="matplotlib.axis_1">
    <g id="xtick_1">
     <g id="line2d_1">
      <path d="M 82.130929 303.64 
L 82.130929 10.8 
" clip-path="url(#pbbe52610e2)" style="fill: none; stroke: #b0b0b0; stroke-width: 0.8; stroke-linecap: square"/>
     </g>
     <g id="line2d_2">
      <defs>
       <path id="m9d1dc464ae" d="M 0 0 
L 0 3.5 
" style="stroke: #000000; stroke-width: 0.8"/>
      </defs>
      <g>
       <use xlink:href="#m9d1dc464ae" x="82.130929" y="303.64" style="stroke: #000000; stroke-width: 0.8"/>
      </g>
     </g>
     <g id="text_1">
      <!-- 2 -->
      <g transform="translate(78.949679 318.238437) scale(0.1 -0.1)">
       <defs>
        <path id="DejaVuSans-32" d="M 1228 531 
L 3431 531 
L 3431 0 
L 469 0 
L 469 531 
Q 828 903 1448 1529 
Q 2069 2156 2228 2338 
Q 2531 2678 2651 2914 
Q 2772 3150 2772 3378 
Q 2772 3750 2511 3984 
Q 2250 4219 1831 4219 
Q 1534 4219 1204 4116 
Q 875 4013 500 3803 
L 500 4441 
Q 881 4594 1212 4672 
Q 1544 4750 1819 4750 
Q 2544 4750 2975 4387 
Q 3406 4025 3406 3419 
Q 3406 3131 3298 2873 
Q 3191 2616 2906 2266 
Q 2828 2175 2409 1742 
Q 1991 1309 1228 531 
z
" transform="scale(0.015625)"/>
       </defs>
       <use xlink:href="#DejaVuSans-32"/>
      </g>
     </g>
    </g>
    <g id="xtick_2">
     <g id="line2d_3">
      <path d="M 136.804886 303.64 
L 136.804886 10.8 
" clip-path="url(#pbbe52610e2)" style="fill: none; stroke: #b0b0b0; stroke-width: 0.8; stroke-linecap: square"/>
     </g>
     <g id="line2d_4">
      <g>
       <use xlink:href="#m9d1dc464ae" x="136.804886" y="303.64" style="stroke: #000000; stroke-width: 0.8"/>
      </g>
     </g>
     <g id="text_2">
      <!-- 4 -->
      <g transform="translate(133.623636 318.238437) scale(0.1 -0.1)">
       <defs>
        <path id="DejaVuSans-34" d="M 2419 4116 
L 825 1625 
L 2419 1625 
L 2419 4116 
z
M 2253 4666 
L 3047 4666 
L 3047 1625 
L 3713 1625 
L 3713 1100 
L 3047 1100 
L 3047 0 
L 2419 0 
L 2419 1100 
L 313 1100 
L 313 1709 
L 2253 4666 
z
" transform="scale(0.015625)"/>
       </defs>
       <use xlink:href="#DejaVuSans-34"/>
      </g>
     </g>
    </g>
    <g id="xtick_3">
     <g id="line2d_5">
      <path d="M 191.478843 303.64 
L 191.478843 10.8 
" clip-path="url(#pbbe52610e2)" style="fill: none; stroke: #b0b0b0; stroke-width: 0.8; stroke-linecap: square"/>
     </g>
     <g id="line2d_6">
      <g>
       <use xlink:href="#m9d1dc464ae" x="191.478843" y="303.64" style="stroke: #000000; stroke-width: 0.8"/>
      </g>
     </g>
     <g id="text_3">
      <!-- 6 -->
      <g transform="translate(188.297593 318.238437) scale(0.1 -0.1)">
       <defs>
        <path id="DejaVuSans-36" d="M 2113 2584 
Q 1688 2584 1439 2293 
Q 1191 2003 1191 1497 
Q 1191 994 1439 701 
Q 1688 409 2113 409 
Q 2538 409 2786 701 
Q 3034 994 3034 1497 
Q 3034 2003 2786 2293 
Q 2538 2584 2113 2584 
z
M 3366 4563 
L 3366 3988 
Q 3128 4100 2886 4159 
Q 2644 4219 2406 4219 
Q 1781 4219 1451 3797 
Q 1122 3375 1075 2522 
Q 1259 2794 1537 2939 
Q 1816 3084 2150 3084 
Q 2853 3084 3261 2657 
Q 3669 2231 3669 1497 
Q 3669 778 3244 343 
Q 2819 -91 2113 -91 
Q 1303 -91 875 529 
Q 447 1150 447 2328 
Q 447 3434 972 4092 
Q 1497 4750 2381 4750 
Q 2619 4750 2861 4703 
Q 3103 4656 3366 4563 
z
" transform="scale(0.015625)"/>
       </defs>
       <use xlink:href="#DejaVuSans-36"/>
      </g>
     </g>
    </g>
    <g id="xtick_4">
     <g id="line2d_7">
      <path d="M 246.152801 303.64 
L 246.152801 10.8 
" clip-path="url(#pbbe52610e2)" style="fill: none; stroke: #b0b0b0; stroke-width: 0.8; stroke-linecap: square"/>
     </g>
     <g id="line2d_8">
      <g>
       <use xlink:href="#m9d1dc464ae" x="246.152801" y="303.64" style="stroke: #000000; stroke-width: 0.8"/>
      </g>
     </g>
     <g id="text_4">
      <!-- 8 -->
      <g transform="translate(242.971551 318.238437) scale(0.1 -0.1)">
       <defs>
        <path id="DejaVuSans-38" d="M 2034 2216 
Q 1584 2216 1326 1975 
Q 1069 1734 1069 1313 
Q 1069 891 1326 650 
Q 1584 409 2034 409 
Q 2484 409 2743 651 
Q 3003 894 3003 1313 
Q 3003 1734 2745 1975 
Q 2488 2216 2034 2216 
z
M 1403 2484 
Q 997 2584 770 2862 
Q 544 3141 544 3541 
Q 544 4100 942 4425 
Q 1341 4750 2034 4750 
Q 2731 4750 3128 4425 
Q 3525 4100 3525 3541 
Q 3525 3141 3298 2862 
Q 3072 2584 2669 2484 
Q 3125 2378 3379 2068 
Q 3634 1759 3634 1313 
Q 3634 634 3220 271 
Q 2806 -91 2034 -91 
Q 1263 -91 848 271 
Q 434 634 434 1313 
Q 434 1759 690 2068 
Q 947 2378 1403 2484 
z
M 1172 3481 
Q 1172 3119 1398 2916 
Q 1625 2713 2034 2713 
Q 2441 2713 2670 2916 
Q 2900 3119 2900 3481 
Q 2900 3844 2670 4047 
Q 2441 4250 2034 4250 
Q 1625 4250 1398 4047 
Q 1172 3844 1172 3481 
z
" transform="scale(0.015625)"/>
       </defs>
       <use xlink:href="#DejaVuSans-38"/>
      </g>
     </g>
    </g>
    <g id="xtick_5">
     <g id="line2d_9">
      <path d="M 300.826758 303.64 
L 300.826758 10.8 
" clip-path="url(#pbbe52610e2)" style="fill: none; stroke: #b0b0b0; stroke-width: 0.8; stroke-linecap: square"/>
     </g>
     <g id="line2d_10">
      <g>
       <use xlink:href="#m9d1dc464ae" x="300.826758" y="303.64" style="stroke: #000000; stroke-width: 0.8"/>
      </g>
     </g>
     <g id="text_5">
      <!-- 10 -->
      <g transform="translate(294.464258 318.238437) scale(0.1 -0.1)">
       <defs>
        <path id="DejaVuSans-31" d="M 794 531 
L 1825 531 
L 1825 4091 
L 703 3866 
L 703 4441 
L 1819 4666 
L 2450 4666 
L 2450 531 
L 3481 531 
L 3481 0 
L 794 0 
L 794 531 
z
" transform="scale(0.015625)"/>
        <path id="DejaVuSans-30" d="M 2034 4250 
Q 1547 4250 1301 3770 
Q 1056 3291 1056 2328 
Q 1056 1369 1301 889 
Q 1547 409 2034 409 
Q 2525 409 2770 889 
Q 3016 1369 3016 2328 
Q 3016 3291 2770 3770 
Q 2525 4250 2034 4250 
z
M 2034 4750 
Q 2819 4750 3233 4129 
Q 3647 3509 3647 2328 
Q 3647 1150 3233 529 
Q 2819 -91 2034 -91 
Q 1250 -91 836 529 
Q 422 1150 422 2328 
Q 422 3509 836 4129 
Q 1250 4750 2034 4750 
z
" transform="scale(0.015625)"/>
       </defs>
       <use xlink:href="#DejaVuSans-31"/>
       <use xlink:href="#DejaVuSans-30" x="63.623047"/>
      </g>
     </g>
    </g>
    <g id="xtick_6">
     <g id="line2d_11">
      <path d="M 355.500715 303.64 
L 355.500715 10.8 
" clip-path="url(#pbbe52610e2)" style="fill: none; stroke: #b0b0b0; stroke-width: 0.8; stroke-linecap: square"/>
     </g>
     <g id="line2d_12">
      <g>
       <use xlink:href="#m9d1dc464ae" x="355.500715" y="303.64" style="stroke: #000000; stroke-width: 0.8"/>
      </g>
     </g>
     <g id="text_6">
      <!-- 12 -->
      <g transform="translate(349.138215 318.238437) scale(0.1 -0.1)">
       <use xlink:href="#DejaVuSans-31"/>
       <use xlink:href="#DejaVuSans-32" x="63.623047"/>
      </g>
     </g>
    </g>
    <g id="xtick_7">
     <g id="line2d_13">
      <path d="M 410.174672 303.64 
L 410.174672 10.8 
" clip-path="url(#pbbe52610e2)" style="fill: none; stroke: #b0b0b0; stroke-width: 0.8; stroke-linecap: square"/>
     </g>
     <g id="line2d_14">
      <g>
       <use xlink:href="#m9d1dc464ae" x="410.174672" y="303.64" style="stroke: #000000; stroke-width: 0.8"/>
      </g>
     </g>
     <g id="text_7">
      <!-- 14 -->
      <g transform="translate(403.812172 318.238437) scale(0.1 -0.1)">
       <use xlink:href="#DejaVuSans-31"/>
       <use xlink:href="#DejaVuSans-34" x="63.623047"/>
      </g>
     </g>
    </g>
    <g id="text_8">
     <!-- Frecuencia [GHz] -->
     <g transform="translate(209.407344 331.916562) scale(0.1 -0.1)">
      <defs>
       <path id="DejaVuSans-46" d="M 628 4666 
L 3309 4666 
L 3309 4134 
L 1259 4134 
L 1259 2759 
L 3109 2759 
L 3109 2228 
L 1259 2228 
L 1259 0 
L 628 0 
L 628 4666 
z
" transform="scale(0.015625)"/>
       <path id="DejaVuSans-72" d="M 2631 2963 
Q 2534 3019 2420 3045 
Q 2306 3072 2169 3072 
Q 1681 3072 1420 2755 
Q 1159 2438 1159 1844 
L 1159 0 
L 581 0 
L 581 3500 
L 1159 3500 
L 1159 2956 
Q 1341 3275 1631 3429 
Q 1922 3584 2338 3584 
Q 2397 3584 2469 3576 
Q 2541 3569 2628 3553 
L 2631 2963 
z
" transform="scale(0.015625)"/>
       <path id="DejaVuSans-65" d="M 3597 1894 
L 3597 1613 
L 953 1613 
Q 991 1019 1311 708 
Q 1631 397 2203 397 
Q 2534 397 2845 478 
Q 3156 559 3463 722 
L 3463 178 
Q 3153 47 2828 -22 
Q 2503 -91 2169 -91 
Q 1331 -91 842 396 
Q 353 884 353 1716 
Q 353 2575 817 3079 
Q 1281 3584 2069 3584 
Q 2775 3584 3186 3129 
Q 3597 2675 3597 1894 
z
M 3022 2063 
Q 3016 2534 2758 2815 
Q 2500 3097 2075 3097 
Q 1594 3097 1305 2825 
Q 1016 2553 972 2059 
L 3022 2063 
z
" transform="scale(0.015625)"/>
       <path id="DejaVuSans-63" d="M 3122 3366 
L 3122 2828 
Q 2878 2963 2633 3030 
Q 2388 3097 2138 3097 
Q 1578 3097 1268 2742 
Q 959 2388 959 1747 
Q 959 1106 1268 751 
Q 1578 397 2138 397 
Q 2388 397 2633 464 
Q 2878 531 3122 666 
L 3122 134 
Q 2881 22 2623 -34 
Q 2366 -91 2075 -91 
Q 1284 -91 818 406 
Q 353 903 353 1747 
Q 353 2603 823 3093 
Q 1294 3584 2113 3584 
Q 2378 3584 2631 3529 
Q 2884 3475 3122 3366 
z
" transform="scale(0.015625)"/>
       <path id="DejaVuSans-75" d="M 544 1381 
L 544 3500 
L 1119 3500 
L 1119 1403 
Q 1119 906 1312 657 
Q 1506 409 1894 409 
Q 2359 409 2629 706 
Q 2900 1003 2900 1516 
L 2900 3500 
L 3475 3500 
L 3475 0 
L 2900 0 
L 2900 538 
Q 2691 219 2414 64 
Q 2138 -91 1772 -91 
Q 1169 -91 856 284 
Q 544 659 544 1381 
z
M 1991 3584 
L 1991 3584 
z
" transform="scale(0.015625)"/>
       <path id="DejaVuSans-6e" d="M 3513 2113 
L 3513 0 
L 2938 0 
L 2938 2094 
Q 2938 2591 2744 2837 
Q 2550 3084 2163 3084 
Q 1697 3084 1428 2787 
Q 1159 2491 1159 1978 
L 1159 0 
L 581 0 
L 581 3500 
L 1159 3500 
L 1159 2956 
Q 1366 3272 1645 3428 
Q 1925 3584 2291 3584 
Q 2894 3584 3203 3211 
Q 3513 2838 3513 2113 
z
" transform="scale(0.015625)"/>
       <path id="DejaVuSans-69" d="M 603 3500 
L 1178 3500 
L 1178 0 
L 603 0 
L 603 3500 
z
M 603 4863 
L 1178 4863 
L 1178 4134 
L 603 4134 
L 603 4863 
z
" transform="scale(0.015625)"/>
       <path id="DejaVuSans-61" d="M 2194 1759 
Q 1497 1759 1228 1600 
Q 959 1441 959 1056 
Q 959 750 1161 570 
Q 1363 391 1709 391 
Q 2188 391 2477 730 
Q 2766 1069 2766 1631 
L 2766 1759 
L 2194 1759 
z
M 3341 1997 
L 3341 0 
L 2766 0 
L 2766 531 
Q 2569 213 2275 61 
Q 1981 -91 1556 -91 
Q 1019 -91 701 211 
Q 384 513 384 1019 
Q 384 1609 779 1909 
Q 1175 2209 1959 2209 
L 2766 2209 
L 2766 2266 
Q 2766 2663 2505 2880 
Q 2244 3097 1772 3097 
Q 1472 3097 1187 3025 
Q 903 2953 641 2809 
L 641 3341 
Q 956 3463 1253 3523 
Q 1550 3584 1831 3584 
Q 2591 3584 2966 3190 
Q 3341 2797 3341 1997 
z
" transform="scale(0.015625)"/>
       <path id="DejaVuSans-20" transform="scale(0.015625)"/>
       <path id="DejaVuSans-5b" d="M 550 4863 
L 1875 4863 
L 1875 4416 
L 1125 4416 
L 1125 -397 
L 1875 -397 
L 1875 -844 
L 550 -844 
L 550 4863 
z
" transform="scale(0.015625)"/>
       <path id="DejaVuSans-47" d="M 3809 666 
L 3809 1919 
L 2778 1919 
L 2778 2438 
L 4434 2438 
L 4434 434 
Q 4069 175 3628 42 
Q 3188 -91 2688 -91 
Q 1594 -91 976 548 
Q 359 1188 359 2328 
Q 359 3472 976 4111 
Q 1594 4750 2688 4750 
Q 3144 4750 3555 4637 
Q 3966 4525 4313 4306 
L 4313 3634 
Q 3963 3931 3569 4081 
Q 3175 4231 2741 4231 
Q 1884 4231 1454 3753 
Q 1025 3275 1025 2328 
Q 1025 1384 1454 906 
Q 1884 428 2741 428 
Q 3075 428 3337 486 
Q 3600 544 3809 666 
z
" transform="scale(0.015625)"/>
       <path id="DejaVuSans-48" d="M 628 4666 
L 1259 4666 
L 1259 2753 
L 3553 2753 
L 3553 4666 
L 4184 4666 
L 4184 0 
L 3553 0 
L 3553 2222 
L 1259 2222 
L 1259 0 
L 628 0 
L 628 4666 
z
" transform="scale(0.015625)"/>
       <path id="DejaVuSans-7a" d="M 353 3500 
L 3084 3500 
L 3084 2975 
L 922 459 
L 3084 459 
L 3084 0 
L 275 0 
L 275 525 
L 2438 3041 
L 353 3041 
L 353 3500 
z
" transform="scale(0.015625)"/>
       <path id="DejaVuSans-5d" d="M 1947 4863 
L 1947 -844 
L 622 -844 
L 622 -397 
L 1369 -397 
L 1369 4416 
L 622 4416 
L 622 4863 
L 1947 4863 
z
" transform="scale(0.015625)"/>
      </defs>
      <use xlink:href="#DejaVuSans-46"/>
      <use xlink:href="#DejaVuSans-72" x="50.269531"/>
      <use xlink:href="#DejaVuSans-65" x="89.132812"/>
      <use xlink:href="#DejaVuSans-63" x="150.65625"/>
      <use xlink:href="#DejaVuSans-75" x="205.636719"/>
      <use xlink:href="#DejaVuSans-65" x="269.015625"/>
      <use xlink:href="#DejaVuSans-6e" x="330.539062"/>
      <use xlink:href="#DejaVuSans-63" x="393.917969"/>
      <use xlink:href="#DejaVuSans-69" x="448.898438"/>
      <use xlink:href="#DejaVuSans-61" x="476.681641"/>
      <use xlink:href="#DejaVuSans-20" x="537.960938"/>
      <use xlink:href="#DejaVuSans-5b" x="569.748047"/>
      <use xlink:href="#DejaVuSans-47" x="608.761719"/>
      <use xlink:href="#DejaVuSans-48" x="686.251953"/>
      <use xlink:href="#DejaVuSans-7a" x="761.447266"/>
      <use xlink:href="#DejaVuSans-5d" x="813.9375"/>
     </g>
    </g>
    <g id="text_9">
     <!-- +3.771e5 -->
     <g transform="translate(400.476562 330.916562) scale(0.1 -0.1)">
      <defs>
       <path id="DejaVuSans-2b" d="M 2944 4013 
L 2944 2272 
L 4684 2272 
L 4684 1741 
L 2944 1741 
L 2944 0 
L 2419 0 
L 2419 1741 
L 678 1741 
L 678 2272 
L 2419 2272 
L 2419 4013 
L 2944 4013 
z
" transform="scale(0.015625)"/>
       <path id="DejaVuSans-33" d="M 2597 2516 
Q 3050 2419 3304 2112 
Q 3559 1806 3559 1356 
Q 3559 666 3084 287 
Q 2609 -91 1734 -91 
Q 1441 -91 1130 -33 
Q 819 25 488 141 
L 488 750 
Q 750 597 1062 519 
Q 1375 441 1716 441 
Q 2309 441 2620 675 
Q 2931 909 2931 1356 
Q 2931 1769 2642 2001 
Q 2353 2234 1838 2234 
L 1294 2234 
L 1294 2753 
L 1863 2753 
Q 2328 2753 2575 2939 
Q 2822 3125 2822 3475 
Q 2822 3834 2567 4026 
Q 2313 4219 1838 4219 
Q 1578 4219 1281 4162 
Q 984 4106 628 3988 
L 628 4550 
Q 988 4650 1302 4700 
Q 1616 4750 1894 4750 
Q 2613 4750 3031 4423 
Q 3450 4097 3450 3541 
Q 3450 3153 3228 2886 
Q 3006 2619 2597 2516 
z
" transform="scale(0.015625)"/>
       <path id="DejaVuSans-2e" d="M 684 794 
L 1344 794 
L 1344 0 
L 684 0 
L 684 794 
z
" transform="scale(0.015625)"/>
       <path id="DejaVuSans-37" d="M 525 4666 
L 3525 4666 
L 3525 4397 
L 1831 0 
L 1172 0 
L 2766 4134 
L 525 4134 
L 525 4666 
z
" transform="scale(0.015625)"/>
       <path id="DejaVuSans-35" d="M 691 4666 
L 3169 4666 
L 3169 4134 
L 1269 4134 
L 1269 2991 
Q 1406 3038 1543 3061 
Q 1681 3084 1819 3084 
Q 2600 3084 3056 2656 
Q 3513 2228 3513 1497 
Q 3513 744 3044 326 
Q 2575 -91 1722 -91 
Q 1428 -91 1123 -41 
Q 819 9 494 109 
L 494 744 
Q 775 591 1075 516 
Q 1375 441 1709 441 
Q 2250 441 2565 725 
Q 2881 1009 2881 1497 
Q 2881 1984 2565 2268 
Q 2250 2553 1709 2553 
Q 1456 2553 1204 2497 
Q 953 2441 691 2322 
L 691 4666 
z
" transform="scale(0.015625)"/>
      </defs>
      <use xlink:href="#DejaVuSans-2b"/>
      <use xlink:href="#DejaVuSans-33" x="83.789062"/>
      <use xlink:href="#DejaVuSans-2e" x="147.412109"/>
      <use xlink:href="#DejaVuSans-37" x="179.199219"/>
      <use xlink:href="#DejaVuSans-37" x="242.822266"/>
      <use xlink:href="#DejaVuSans-31" x="306.445312"/>
      <use xlink:href="#DejaVuSans-65" x="370.068359"/>
      <use xlink:href="#DejaVuSans-35" x="431.591797"/>
     </g>
    </g>
   </g>
   <g id="matplotlib.axis_2">
    <g id="ytick_1">
     <g id="line2d_15">
      <path d="M 54.11 289.994372 
L 450 289.994372 
" clip-path="url(#pbbe52610e2)" style="fill: none; stroke: #b0b0b0; stroke-width: 0.8; stroke-linecap: square"/>
     </g>
     <g id="line2d_16">
      <defs>
       <path id="mba3b71bbac" d="M 0 0 
L -3.5 0 
" style="stroke: #000000; stroke-width: 0.8"/>
      </defs>
      <g>
       <use xlink:href="#mba3b71bbac" x="54.11" y="289.994372" style="stroke: #000000; stroke-width: 0.8"/>
      </g>
     </g>
     <g id="text_10">
      <!-- 0.96 -->
      <g transform="translate(24.844375 293.793591) scale(0.1 -0.1)">
       <defs>
        <path id="DejaVuSans-39" d="M 703 97 
L 703 672 
Q 941 559 1184 500 
Q 1428 441 1663 441 
Q 2288 441 2617 861 
Q 2947 1281 2994 2138 
Q 2813 1869 2534 1725 
Q 2256 1581 1919 1581 
Q 1219 1581 811 2004 
Q 403 2428 403 3163 
Q 403 3881 828 4315 
Q 1253 4750 1959 4750 
Q 2769 4750 3195 4129 
Q 3622 3509 3622 2328 
Q 3622 1225 3098 567 
Q 2575 -91 1691 -91 
Q 1453 -91 1209 -44 
Q 966 3 703 97 
z
M 1959 2075 
Q 2384 2075 2632 2365 
Q 2881 2656 2881 3163 
Q 2881 3666 2632 3958 
Q 2384 4250 1959 4250 
Q 1534 4250 1286 3958 
Q 1038 3666 1038 3163 
Q 1038 2656 1286 2365 
Q 1534 2075 1959 2075 
z
" transform="scale(0.015625)"/>
       </defs>
       <use xlink:href="#DejaVuSans-30"/>
       <use xlink:href="#DejaVuSans-2e" x="63.623047"/>
       <use xlink:href="#DejaVuSans-39" x="95.410156"/>
       <use xlink:href="#DejaVuSans-36" x="159.033203"/>
      </g>
     </g>
    </g>
    <g id="ytick_2">
     <g id="line2d_17">
      <path d="M 54.11 256.330265 
L 450 256.330265 
" clip-path="url(#pbbe52610e2)" style="fill: none; stroke: #b0b0b0; stroke-width: 0.8; stroke-linecap: square"/>
     </g>
     <g id="line2d_18">
      <g>
       <use xlink:href="#mba3b71bbac" x="54.11" y="256.330265" style="stroke: #000000; stroke-width: 0.8"/>
      </g>
     </g>
     <g id="text_11">
      <!-- 0.98 -->
      <g transform="translate(24.844375 260.129483) scale(0.1 -0.1)">
       <use xlink:href="#DejaVuSans-30"/>
       <use xlink:href="#DejaVuSans-2e" x="63.623047"/>
       <use xlink:href="#DejaVuSans-39" x="95.410156"/>
       <use xlink:href="#DejaVuSans-38" x="159.033203"/>
      </g>
     </g>
    </g>
    <g id="ytick_3">
     <g id="line2d_19">
      <path d="M 54.11 222.666157 
L 450 222.666157 
" clip-path="url(#pbbe52610e2)" style="fill: none; stroke: #b0b0b0; stroke-width: 0.8; stroke-linecap: square"/>
     </g>
     <g id="line2d_20">
      <g>
       <use xlink:href="#mba3b71bbac" x="54.11" y="222.666157" style="stroke: #000000; stroke-width: 0.8"/>
      </g>
     </g>
     <g id="text_12">
      <!-- 1.00 -->
      <g transform="translate(24.844375 226.465376) scale(0.1 -0.1)">
       <use xlink:href="#DejaVuSans-31"/>
       <use xlink:href="#DejaVuSans-2e" x="63.623047"/>
       <use xlink:href="#DejaVuSans-30" x="95.410156"/>
       <use xlink:href="#DejaVuSans-30" x="159.033203"/>
      </g>
     </g>
    </g>
    <g id="ytick_4">
     <g id="line2d_21">
      <path d="M 54.11 189.002049 
L 450 189.002049 
" clip-path="url(#pbbe52610e2)" style="fill: none; stroke: #b0b0b0; stroke-width: 0.8; stroke-linecap: square"/>
     </g>
     <g id="line2d_22">
      <g>
       <use xlink:href="#mba3b71bbac" x="54.11" y="189.002049" style="stroke: #000000; stroke-width: 0.8"/>
      </g>
     </g>
     <g id="text_13">
      <!-- 1.02 -->
      <g transform="translate(24.844375 192.801268) scale(0.1 -0.1)">
       <use xlink:href="#DejaVuSans-31"/>
       <use xlink:href="#DejaVuSans-2e" x="63.623047"/>
       <use xlink:href="#DejaVuSans-30" x="95.410156"/>
       <use xlink:href="#DejaVuSans-32" x="159.033203"/>
      </g>
     </g>
    </g>
    <g id="ytick_5">
     <g id="line2d_23">
      <path d="M 54.11 155.337942 
L 450 155.337942 
" clip-path="url(#pbbe52610e2)" style="fill: none; stroke: #b0b0b0; stroke-width: 0.8; stroke-linecap: square"/>
     </g>
     <g id="line2d_24">
      <g>
       <use xlink:href="#mba3b71bbac" x="54.11" y="155.337942" style="stroke: #000000; stroke-width: 0.8"/>
      </g>
     </g>
     <g id="text_14">
      <!-- 1.04 -->
      <g transform="translate(24.844375 159.13716) scale(0.1 -0.1)">
       <use xlink:href="#DejaVuSans-31"/>
       <use xlink:href="#DejaVuSans-2e" x="63.623047"/>
       <use xlink:href="#DejaVuSans-30" x="95.410156"/>
       <use xlink:href="#DejaVuSans-34" x="159.033203"/>
      </g>
     </g>
    </g>
    <g id="ytick_6">
     <g id="line2d_25">
      <path d="M 54.11 121.673834 
L 450 121.673834 
" clip-path="url(#pbbe52610e2)" style="fill: none; stroke: #b0b0b0; stroke-width: 0.8; stroke-linecap: square"/>
     </g>
     <g id="line2d_26">
      <g>
       <use xlink:href="#mba3b71bbac" x="54.11" y="121.673834" style="stroke: #000000; stroke-width: 0.8"/>
      </g>
     </g>
     <g id="text_15">
      <!-- 1.06 -->
      <g transform="translate(24.844375 125.473053) scale(0.1 -0.1)">
       <use xlink:href="#DejaVuSans-31"/>
       <use xlink:href="#DejaVuSans-2e" x="63.623047"/>
       <use xlink:href="#DejaVuSans-30" x="95.410156"/>
       <use xlink:href="#DejaVuSans-36" x="159.033203"/>
      </g>
     </g>
    </g>
    <g id="ytick_7">
     <g id="line2d_27">
      <path d="M 54.11 88.009726 
L 450 88.009726 
" clip-path="url(#pbbe52610e2)" style="fill: none; stroke: #b0b0b0; stroke-width: 0.8; stroke-linecap: square"/>
     </g>
     <g id="line2d_28">
      <g>
       <use xlink:href="#mba3b71bbac" x="54.11" y="88.009726" style="stroke: #000000; stroke-width: 0.8"/>
      </g>
     </g>
     <g id="text_16">
      <!-- 1.08 -->
      <g transform="translate(24.844375 91.808945) scale(0.1 -0.1)">
       <use xlink:href="#DejaVuSans-31"/>
       <use xlink:href="#DejaVuSans-2e" x="63.623047"/>
       <use xlink:href="#DejaVuSans-30" x="95.410156"/>
       <use xlink:href="#DejaVuSans-38" x="159.033203"/>
      </g>
     </g>
    </g>
    <g id="ytick_8">
     <g id="line2d_29">
      <path d="M 54.11 54.345618 
L 450 54.345618 
" clip-path="url(#pbbe52610e2)" style="fill: none; stroke: #b0b0b0; stroke-width: 0.8; stroke-linecap: square"/>
     </g>
     <g id="line2d_30">
      <g>
       <use xlink:href="#mba3b71bbac" x="54.11" y="54.345618" style="stroke: #000000; stroke-width: 0.8"/>
      </g>
     </g>
     <g id="text_17">
      <!-- 1.10 -->
      <g transform="translate(24.844375 58.144837) scale(0.1 -0.1)">
       <use xlink:href="#DejaVuSans-31"/>
       <use xlink:href="#DejaVuSans-2e" x="63.623047"/>
       <use xlink:href="#DejaVuSans-31" x="95.410156"/>
       <use xlink:href="#DejaVuSans-30" x="159.033203"/>
      </g>
     </g>
    </g>
    <g id="ytick_9">
     <g id="line2d_31">
      <path d="M 54.11 20.681511 
L 450 20.681511 
" clip-path="url(#pbbe52610e2)" style="fill: none; stroke: #b0b0b0; stroke-width: 0.8; stroke-linecap: square"/>
     </g>
     <g id="line2d_32">
      <g>
       <use xlink:href="#mba3b71bbac" x="54.11" y="20.681511" style="stroke: #000000; stroke-width: 0.8"/>
      </g>
     </g>
     <g id="text_18">
      <!-- 1.12 -->
      <g transform="translate(24.844375 24.48073) scale(0.1 -0.1)">
       <use xlink:href="#DejaVuSans-31"/>
       <use xlink:href="#DejaVuSans-2e" x="63.623047"/>
       <use xlink:href="#DejaVuSans-31" x="95.410156"/>
       <use xlink:href="#DejaVuSans-32" x="159.033203"/>
      </g>
     </g>
    </g>
    <g id="text_19">
     <!-- Intensidad de corriente [mA] -->
     <g transform="translate(18.764688 229.18875) rotate(-90) scale(0.1 -0.1)">
      <defs>
       <path id="DejaVuSans-49" d="M 628 4666 
L 1259 4666 
L 1259 0 
L 628 0 
L 628 4666 
z
" transform="scale(0.015625)"/>
       <path id="DejaVuSans-74" d="M 1172 4494 
L 1172 3500 
L 2356 3500 
L 2356 3053 
L 1172 3053 
L 1172 1153 
Q 1172 725 1289 603 
Q 1406 481 1766 481 
L 2356 481 
L 2356 0 
L 1766 0 
Q 1100 0 847 248 
Q 594 497 594 1153 
L 594 3053 
L 172 3053 
L 172 3500 
L 594 3500 
L 594 4494 
L 1172 4494 
z
" transform="scale(0.015625)"/>
       <path id="DejaVuSans-73" d="M 2834 3397 
L 2834 2853 
Q 2591 2978 2328 3040 
Q 2066 3103 1784 3103 
Q 1356 3103 1142 2972 
Q 928 2841 928 2578 
Q 928 2378 1081 2264 
Q 1234 2150 1697 2047 
L 1894 2003 
Q 2506 1872 2764 1633 
Q 3022 1394 3022 966 
Q 3022 478 2636 193 
Q 2250 -91 1575 -91 
Q 1294 -91 989 -36 
Q 684 19 347 128 
L 347 722 
Q 666 556 975 473 
Q 1284 391 1588 391 
Q 1994 391 2212 530 
Q 2431 669 2431 922 
Q 2431 1156 2273 1281 
Q 2116 1406 1581 1522 
L 1381 1569 
Q 847 1681 609 1914 
Q 372 2147 372 2553 
Q 372 3047 722 3315 
Q 1072 3584 1716 3584 
Q 2034 3584 2315 3537 
Q 2597 3491 2834 3397 
z
" transform="scale(0.015625)"/>
       <path id="DejaVuSans-64" d="M 2906 2969 
L 2906 4863 
L 3481 4863 
L 3481 0 
L 2906 0 
L 2906 525 
Q 2725 213 2448 61 
Q 2172 -91 1784 -91 
Q 1150 -91 751 415 
Q 353 922 353 1747 
Q 353 2572 751 3078 
Q 1150 3584 1784 3584 
Q 2172 3584 2448 3432 
Q 2725 3281 2906 2969 
z
M 947 1747 
Q 947 1113 1208 752 
Q 1469 391 1925 391 
Q 2381 391 2643 752 
Q 2906 1113 2906 1747 
Q 2906 2381 2643 2742 
Q 2381 3103 1925 3103 
Q 1469 3103 1208 2742 
Q 947 2381 947 1747 
z
" transform="scale(0.015625)"/>
       <path id="DejaVuSans-6f" d="M 1959 3097 
Q 1497 3097 1228 2736 
Q 959 2375 959 1747 
Q 959 1119 1226 758 
Q 1494 397 1959 397 
Q 2419 397 2687 759 
Q 2956 1122 2956 1747 
Q 2956 2369 2687 2733 
Q 2419 3097 1959 3097 
z
M 1959 3584 
Q 2709 3584 3137 3096 
Q 3566 2609 3566 1747 
Q 3566 888 3137 398 
Q 2709 -91 1959 -91 
Q 1206 -91 779 398 
Q 353 888 353 1747 
Q 353 2609 779 3096 
Q 1206 3584 1959 3584 
z
" transform="scale(0.015625)"/>
       <path id="DejaVuSans-6d" d="M 3328 2828 
Q 3544 3216 3844 3400 
Q 4144 3584 4550 3584 
Q 5097 3584 5394 3201 
Q 5691 2819 5691 2113 
L 5691 0 
L 5113 0 
L 5113 2094 
Q 5113 2597 4934 2840 
Q 4756 3084 4391 3084 
Q 3944 3084 3684 2787 
Q 3425 2491 3425 1978 
L 3425 0 
L 2847 0 
L 2847 2094 
Q 2847 2600 2669 2842 
Q 2491 3084 2119 3084 
Q 1678 3084 1418 2786 
Q 1159 2488 1159 1978 
L 1159 0 
L 581 0 
L 581 3500 
L 1159 3500 
L 1159 2956 
Q 1356 3278 1631 3431 
Q 1906 3584 2284 3584 
Q 2666 3584 2933 3390 
Q 3200 3197 3328 2828 
z
" transform="scale(0.015625)"/>
       <path id="DejaVuSans-41" d="M 2188 4044 
L 1331 1722 
L 3047 1722 
L 2188 4044 
z
M 1831 4666 
L 2547 4666 
L 4325 0 
L 3669 0 
L 3244 1197 
L 1141 1197 
L 716 0 
L 50 0 
L 1831 4666 
z
" transform="scale(0.015625)"/>
      </defs>
      <use xlink:href="#DejaVuSans-49"/>
      <use xlink:href="#DejaVuSans-6e" x="29.492188"/>
      <use xlink:href="#DejaVuSans-74" x="92.871094"/>
      <use xlink:href="#DejaVuSans-65" x="132.080078"/>
      <use xlink:href="#DejaVuSans-6e" x="193.603516"/>
      <use xlink:href="#DejaVuSans-73" x="256.982422"/>
      <use xlink:href="#DejaVuSans-69" x="309.082031"/>
      <use xlink:href="#DejaVuSans-64" x="336.865234"/>
      <use xlink:href="#DejaVuSans-61" x="400.341797"/>
      <use xlink:href="#DejaVuSans-64" x="461.621094"/>
      <use xlink:href="#DejaVuSans-20" x="525.097656"/>
      <use xlink:href="#DejaVuSans-64" x="556.884766"/>
      <use xlink:href="#DejaVuSans-65" x="620.361328"/>
      <use xlink:href="#DejaVuSans-20" x="681.884766"/>
      <use xlink:href="#DejaVuSans-63" x="713.671875"/>
      <use xlink:href="#DejaVuSans-6f" x="768.652344"/>
      <use xlink:href="#DejaVuSans-72" x="829.833984"/>
      <use xlink:href="#DejaVuSans-72" x="869.197266"/>
      <use xlink:href="#DejaVuSans-69" x="910.310547"/>
      <use xlink:href="#DejaVuSans-65" x="938.09375"/>
      <use xlink:href="#DejaVuSans-6e" x="999.617188"/>
      <use xlink:href="#DejaVuSans-74" x="1062.996094"/>
      <use xlink:href="#DejaVuSans-65" x="1102.205078"/>
      <use xlink:href="#DejaVuSans-20" x="1163.728516"/>
      <use xlink:href="#DejaVuSans-5b" x="1195.515625"/>
      <use xlink:href="#DejaVuSans-6d" x="1234.529297"/>
      <use xlink:href="#DejaVuSans-41" x="1331.941406"/>
      <use xlink:href="#DejaVuSans-5d" x="1400.349609"/>
     </g>
    </g>
   </g>
   <g id="LineCollection_1">
    <path d="M 345.474786 235.287399 
L 345.474786 214.247332 
" clip-path="url(#pbbe52610e2)" style="fill: none; stroke: #000000; stroke-width: 1.5"/>
    <path d="M 276.945226 182.491663 
L 276.945226 161.451595 
" clip-path="url(#pbbe52610e2)" style="fill: none; stroke: #000000; stroke-width: 1.5"/>
    <path d="M 193.957473 129.695926 
L 193.957473 108.655859 
" clip-path="url(#pbbe52610e2)" style="fill: none; stroke: #000000; stroke-width: 1.5"/>
    <path d="M 158.635214 99.048645 
L 158.635214 78.008578 
" clip-path="url(#pbbe52610e2)" style="fill: none; stroke: #000000; stroke-width: 1.5"/>
   </g>
   <g id="line2d_33">
    <defs>
     <path id="mb9155ff4a5" d="M 1.5 0 
L -1.5 -0 
" style="stroke: #000000"/>
    </defs>
    <g clip-path="url(#pbbe52610e2)">
     <use xlink:href="#mb9155ff4a5" x="345.474786" y="235.287399" style="stroke: #000000"/>
     <use xlink:href="#mb9155ff4a5" x="276.945226" y="182.491663" style="stroke: #000000"/>
     <use xlink:href="#mb9155ff4a5" x="193.957473" y="129.695926" style="stroke: #000000"/>
     <use xlink:href="#mb9155ff4a5" x="158.635214" y="99.048645" style="stroke: #000000"/>
    </g>
   </g>
   <g id="line2d_34">
    <g clip-path="url(#pbbe52610e2)">
     <use xlink:href="#mb9155ff4a5" x="345.474786" y="214.247332" style="stroke: #000000"/>
     <use xlink:href="#mb9155ff4a5" x="276.945226" y="161.451595" style="stroke: #000000"/>
     <use xlink:href="#mb9155ff4a5" x="193.957473" y="108.655859" style="stroke: #000000"/>
     <use xlink:href="#mb9155ff4a5" x="158.635214" y="78.008578" style="stroke: #000000"/>
    </g>
   </g>
   <g id="line2d_35">
    <path d="M 72.105 28.684 
L 432.005 285.380188 
L 432.005 285.380188 
" clip-path="url(#pbbe52610e2)" style="fill: none; stroke: #ff0000; stroke-opacity: 0.5; stroke-width: 1.5; stroke-linecap: square"/>
   </g>
   <g id="line2d_36">
    <path d="M 72.105 24.110909 
L 161.089284 89.450089 
L 206.121817 122.261403 
L 237.464459 144.834587 
L 266.28528 165.31422 
L 299.068964 188.323642 
L 345.182277 220.393926 
L 424.439535 275.207872 
L 432.005 280.431285 
L 432.005 280.431285 
" clip-path="url(#pbbe52610e2)" style="fill: none; stroke-dasharray: 5.55,2.4; stroke-dashoffset: 0; stroke: #008000; stroke-width: 1.5"/>
   </g>
   <g id="line2d_37">
    <path d="M 72.105 33.257092 
L 160.368764 94.35215 
L 205.401296 125.774016 
L 236.743939 147.904106 
L 265.204499 168.270748 
L 297.988183 192.01852 
L 343.741236 225.458583 
L 421.917713 282.904484 
L 432.005 290.329091 
L 432.005 290.329091 
" clip-path="url(#pbbe52610e2)" style="fill: none; stroke-dasharray: 5.55,2.4; stroke-dashoffset: 0; stroke: #008000; stroke-width: 1.5"/>
   </g>
   <g id="patch_3">
    <path d="M 54.11 303.64 
L 54.11 10.8 
" style="fill: none; stroke: #000000; stroke-width: 0.8; stroke-linejoin: miter; stroke-linecap: square"/>
   </g>
   <g id="patch_4">
    <path d="M 450 303.64 
L 450 10.8 
" style="fill: none; stroke: #000000; stroke-width: 0.8; stroke-linejoin: miter; stroke-linecap: square"/>
   </g>
   <g id="patch_5">
    <path d="M 54.11 303.64 
L 450 303.64 
" style="fill: none; stroke: #000000; stroke-width: 0.8; stroke-linejoin: miter; stroke-linecap: square"/>
   </g>
   <g id="patch_6">
    <path d="M 54.11 10.8 
L 450 10.8 
" style="fill: none; stroke: #000000; stroke-width: 0.8; stroke-linejoin: miter; stroke-linecap: square"/>
   </g>
   <g id="legend_1">
    <g id="patch_7">
     <path d="M 322.7625 77.5125 
L 443 77.5125 
Q 445 77.5125 445 75.5125 
L 445 17.8 
Q 445 15.8 443 15.8 
L 322.7625 15.8 
Q 320.7625 15.8 320.7625 17.8 
L 320.7625 75.5125 
Q 320.7625 77.5125 322.7625 77.5125 
z
" style="fill: #ffffff; opacity: 0.8; stroke: #cccccc; stroke-linejoin: miter"/>
    </g>
    <g id="PathCollection_2">
     <g>
      <use xlink:href="#m1eab4b443a" x="334.7625" y="24.773438" style="stroke: #000000"/>
     </g>
    </g>
    <g id="text_20">
     <!-- Datos -->
     <g transform="translate(352.7625 27.398438) scale(0.1 -0.1)">
      <defs>
       <path id="DejaVuSans-44" d="M 1259 4147 
L 1259 519 
L 2022 519 
Q 2988 519 3436 956 
Q 3884 1394 3884 2338 
Q 3884 3275 3436 3711 
Q 2988 4147 2022 4147 
L 1259 4147 
z
M 628 4666 
L 1925 4666 
Q 3281 4666 3915 4102 
Q 4550 3538 4550 2338 
Q 4550 1131 3912 565 
Q 3275 0 1925 0 
L 628 0 
L 628 4666 
z
" transform="scale(0.015625)"/>
      </defs>
      <use xlink:href="#DejaVuSans-44"/>
      <use xlink:href="#DejaVuSans-61" x="77.001953"/>
      <use xlink:href="#DejaVuSans-74" x="138.28125"/>
      <use xlink:href="#DejaVuSans-6f" x="177.490234"/>
      <use xlink:href="#DejaVuSans-73" x="238.671875"/>
     </g>
    </g>
    <g id="line2d_38">
     <path d="M 324.7625 38.576563 
L 334.7625 38.576563 
L 344.7625 38.576563 
" style="fill: none; stroke: #ff0000; stroke-opacity: 0.5; stroke-width: 1.5; stroke-linecap: square"/>
    </g>
    <g id="text_21">
     <!-- Ajuste -->
     <g transform="translate(352.7625 42.076563) scale(0.1 -0.1)">
      <defs>
       <path id="DejaVuSans-6a" d="M 603 3500 
L 1178 3500 
L 1178 -63 
Q 1178 -731 923 -1031 
Q 669 -1331 103 -1331 
L -116 -1331 
L -116 -844 
L 38 -844 
Q 366 -844 484 -692 
Q 603 -541 603 -63 
L 603 3500 
z
M 603 4863 
L 1178 4863 
L 1178 4134 
L 603 4134 
L 603 4863 
z
" transform="scale(0.015625)"/>
      </defs>
      <use xlink:href="#DejaVuSans-41"/>
      <use xlink:href="#DejaVuSans-6a" x="68.408203"/>
      <use xlink:href="#DejaVuSans-75" x="96.191406"/>
      <use xlink:href="#DejaVuSans-73" x="159.570312"/>
      <use xlink:href="#DejaVuSans-74" x="211.669922"/>
      <use xlink:href="#DejaVuSans-65" x="250.878906"/>
     </g>
    </g>
    <g id="line2d_39">
     <path d="M 324.7625 53.254688 
L 334.7625 53.254688 
L 344.7625 53.254688 
" style="fill: none; stroke-dasharray: 5.55,2.4; stroke-dashoffset: 0; stroke: #008000; stroke-width: 1.5"/>
    </g>
    <g id="text_22">
     <!-- Error del ajuste -->
     <g transform="translate(352.7625 56.754688) scale(0.1 -0.1)">
      <defs>
       <path id="DejaVuSans-45" d="M 628 4666 
L 3578 4666 
L 3578 4134 
L 1259 4134 
L 1259 2753 
L 3481 2753 
L 3481 2222 
L 1259 2222 
L 1259 531 
L 3634 531 
L 3634 0 
L 628 0 
L 628 4666 
z
" transform="scale(0.015625)"/>
       <path id="DejaVuSans-6c" d="M 603 4863 
L 1178 4863 
L 1178 0 
L 603 0 
L 603 4863 
z
" transform="scale(0.015625)"/>
      </defs>
      <use xlink:href="#DejaVuSans-45"/>
      <use xlink:href="#DejaVuSans-72" x="63.183594"/>
      <use xlink:href="#DejaVuSans-72" x="102.546875"/>
      <use xlink:href="#DejaVuSans-6f" x="141.410156"/>
      <use xlink:href="#DejaVuSans-72" x="202.591797"/>
      <use xlink:href="#DejaVuSans-20" x="243.705078"/>
      <use xlink:href="#DejaVuSans-64" x="275.492188"/>
      <use xlink:href="#DejaVuSans-65" x="338.96875"/>
      <use xlink:href="#DejaVuSans-6c" x="400.492188"/>
      <use xlink:href="#DejaVuSans-20" x="428.275391"/>
      <use xlink:href="#DejaVuSans-61" x="460.0625"/>
      <use xlink:href="#DejaVuSans-6a" x="521.341797"/>
      <use xlink:href="#DejaVuSans-75" x="549.125"/>
      <use xlink:href="#DejaVuSans-73" x="612.503906"/>
      <use xlink:href="#DejaVuSans-74" x="664.603516"/>
      <use xlink:href="#DejaVuSans-65" x="703.8125"/>
     </g>
    </g>
    <g id="LineCollection_2">
     <path d="M 334.7625 72.932813 
L 334.7625 62.932813 
" style="fill: none; stroke: #000000; stroke-width: 1.5"/>
    </g>
    <g id="line2d_40">
     <g>
      <use xlink:href="#mb9155ff4a5" x="334.7625" y="72.932813" style="stroke: #000000"/>
     </g>
    </g>
    <g id="line2d_41">
     <g>
      <use xlink:href="#mb9155ff4a5" x="334.7625" y="62.932813" style="stroke: #000000"/>
     </g>
    </g>
    <g id="text_23">
     <!-- Error de los datos -->
     <g transform="translate(352.7625 71.432813) scale(0.1 -0.1)">
      <use xlink:href="#DejaVuSans-45"/>
      <use xlink:href="#DejaVuSans-72" x="63.183594"/>
      <use xlink:href="#DejaVuSans-72" x="102.546875"/>
      <use xlink:href="#DejaVuSans-6f" x="141.410156"/>
      <use xlink:href="#DejaVuSans-72" x="202.591797"/>
      <use xlink:href="#DejaVuSans-20" x="243.705078"/>
      <use xlink:href="#DejaVuSans-64" x="275.492188"/>
      <use xlink:href="#DejaVuSans-65" x="338.96875"/>
      <use xlink:href="#DejaVuSans-20" x="400.492188"/>
      <use xlink:href="#DejaVuSans-6c" x="432.279297"/>
      <use xlink:href="#DejaVuSans-6f" x="460.0625"/>
      <use xlink:href="#DejaVuSans-73" x="521.244141"/>
      <use xlink:href="#DejaVuSans-20" x="573.34375"/>
      <use xlink:href="#DejaVuSans-64" x="605.130859"/>
      <use xlink:href="#DejaVuSans-61" x="668.607422"/>
      <use xlink:href="#DejaVuSans-74" x="729.886719"/>
      <use xlink:href="#DejaVuSans-6f" x="769.095703"/>
      <use xlink:href="#DejaVuSans-73" x="830.277344"/>
     </g>
    </g>
   </g>
  </g>
 </g>
 <defs>
  <clipPath id="pbbe52610e2">
   <rect x="54.11" y="10.8" width="395.89" height="292.84"/>
  </clipPath>
 </defs>
</svg>
