<?xml version="1.0" encoding="utf-8" standalone="no"?>
<!DOCTYPE svg PUBLIC "-//W3C//DTD SVG 1.1//EN"
  "http://www.w3.org/Graphics/SVG/1.1/DTD/svg11.dtd">
<svg xmlns:xlink="http://www.w3.org/1999/xlink" width="460.8pt" height="345.6pt" viewBox="0 0 460.8 345.6" xmlns="http://www.w3.org/2000/svg" version="1.1">
 <metadata>
  <rdf:RDF xmlns:dc="http://purl.org/dc/elements/1.1/" xmlns:cc="http://creativecommons.org/ns#" xmlns:rdf="http://www.w3.org/1999/02/22-rdf-syntax-ns#">
   <cc:Work>
    <dc:type rdf:resource="http://purl.org/dc/dcmitype/StillImage"/>
    <dc:date>2023-02-27T14:46:33.806272</dc:date>
    <dc:format>image/svg+xml</dc:format>
    <dc:creator>
     <cc:Agent>
      <dc:title>Matplotlib v3.6.2, https://matplotlib.org/</dc:title>
     </cc:Agent>
    </dc:creator>
   </cc:Work>
  </rdf:RDF>
 </metadata>
 <defs>
  <style type="text/css">*{stroke-linejoin: round; stroke-linecap: butt}</style>
 </defs>
 <g id="figure_1">
  <g id="patch_1">
   <path d="M 0 345.6 
L 460.8 345.6 
L 460.8 0 
L 0 0 
z
" style="fill: #ffffff"/>
  </g>
  <g id="axes_1">
   <g id="patch_2">
    <path d="M 54.11 303.64 
L 450 303.64 
L 450 10.8 
L 54.11 10.8 
z
" style="fill: #ffffff"/>
   </g>
   <g id="PathCollection_1">
    <defs>
     <path id="m5516b72cb9" d="M 0 1.118034 
C 0.296506 1.118034 0.580908 1.000231 0.790569 0.790569 
C 1.000231 0.580908 1.118034 0.296506 1.118034 0 
C 1.118034 -0.296506 1.000231 -0.580908 0.790569 -0.790569 
C 0.580908 -1.000231 0.296506 -1.118034 0 -1.118034 
C -0.296506 -1.118034 -0.580908 -1.000231 -0.790569 -0.790569 
C -1.000231 -0.580908 -1.118034 -0.296506 -1.118034 0 
C -1.118034 0.296506 -1.000231 0.580908 -0.790569 0.790569 
C -0.580908 1.000231 -0.296506 1.118034 0 1.118034 
z
" style="stroke: #000000"/>
    </defs>
    <g clip-path="url(#p7694ae7726)">
     <use xlink:href="#m5516b72cb9" x="345.474786" y="226.146884" style="stroke: #000000"/>
     <use xlink:href="#m5516b72cb9" x="276.945226" y="169.330098" style="stroke: #000000"/>
     <use xlink:href="#m5516b72cb9" x="193.957473" y="116.858126" style="stroke: #000000"/>
     <use xlink:href="#m5516b72cb9" x="158.635214" y="92.126113" style="stroke: #000000"/>
    </g>
   </g>
   <g id="PolyCollection_1">
    <path d="M 72.105 24.110909 
L 72.105 35.509006 
L 72.46526 35.753462 
L 72.825521 35.997923 
L 73.185781 36.242389 
L 73.546041 36.486855 
L 73.906301 36.731325 
L 74.266562 36.9758 
L 74.626822 37.220275 
L 74.987082 37.464756 
L 75.347342 37.709241 
L 75.707603 37.953728 
L 76.067863 38.19822 
L 76.428123 38.442713 
L 76.788383 38.68721 
L 77.148644 38.931713 
L 77.508904 39.176217 
L 77.869164 39.420725 
L 78.229424 39.665238 
L 78.589685 39.909753 
L 78.949945 40.154271 
L 79.310205 40.398793 
L 79.670465 40.643319 
L 80.030726 40.88785 
L 80.390986 41.132383 
L 80.751246 41.37692 
L 81.111507 41.621461 
L 81.471767 41.866006 
L 81.832027 42.110553 
L 82.192287 42.355108 
L 82.552548 42.599662 
L 82.912808 42.844223 
L 83.273068 43.088786 
L 83.633328 43.333353 
L 83.993589 43.577924 
L 84.353849 43.822499 
L 84.714109 44.067077 
L 85.074369 44.311661 
L 85.43463 44.556249 
L 85.79489 44.800838 
L 86.15515 45.045433 
L 86.51541 45.290033 
L 86.875671 45.534634 
L 87.235931 45.77924 
L 87.596191 46.023852 
L 87.956451 46.268467 
L 88.316712 46.513089 
L 88.676972 46.75771 
L 89.037232 47.002339 
L 89.397492 47.24697 
L 89.757753 47.491607 
L 90.118013 47.736246 
L 90.478273 47.980892 
L 90.838534 48.225539 
L 91.198794 48.470193 
L 91.559054 48.714851 
L 91.919314 48.959513 
L 92.279575 49.204181 
L 92.639835 49.448851 
L 93.000095 49.693523 
L 93.360355 49.938206 
L 93.720616 50.18289 
L 94.080876 50.427578 
L 94.441136 50.672272 
L 94.801396 50.916969 
L 95.161657 51.161673 
L 95.521917 51.40638 
L 95.882177 51.651092 
L 96.242437 51.895808 
L 96.602698 52.140529 
L 96.962958 52.385254 
L 97.323218 52.629988 
L 97.683478 52.874723 
L 98.043739 53.119462 
L 98.403999 53.364209 
L 98.764259 53.608959 
L 99.12452 53.853713 
L 99.48478 54.098474 
L 99.84504 54.343238 
L 100.2053 54.588009 
L 100.565561 54.832785 
L 100.925821 55.077564 
L 101.286081 55.322352 
L 101.646341 55.567141 
L 102.006602 55.811937 
L 102.366862 56.056737 
L 102.727122 56.301545 
L 103.087382 56.546356 
L 103.447643 56.791171 
L 103.807903 57.035995 
L 104.168163 57.280821 
L 104.528423 57.525654 
L 104.888684 57.770491 
L 105.248944 58.015334 
L 105.609204 58.260186 
L 105.969464 58.505039 
L 106.329725 58.749898 
L 106.689985 58.994767 
L 107.050245 59.239637 
L 107.410506 59.484515 
L 107.770766 59.729396 
L 108.131026 59.974287 
L 108.491286 60.219181 
L 108.851547 60.464081 
L 109.211807 60.708986 
L 109.572067 60.953899 
L 109.932327 61.198815 
L 110.292588 61.44374 
L 110.652848 61.68867 
L 111.013108 61.933605 
L 111.373368 62.178547 
L 111.733629 62.423497 
L 112.093889 62.66845 
L 112.454149 62.913408 
L 112.814409 63.158375 
L 113.17467 63.403347 
L 113.53493 63.648328 
L 113.89519 63.893312 
L 114.25545 64.138307 
L 114.615711 64.383304 
L 114.975971 64.628308 
L 115.336231 64.873321 
L 115.696491 65.118339 
L 116.056752 65.36336 
L 116.417012 65.608394 
L 116.777272 65.85343 
L 117.137533 66.098475 
L 117.497793 66.343525 
L 117.858053 66.588584 
L 118.218313 66.833646 
L 118.578574 67.078721 
L 118.938834 67.323798 
L 119.299094 67.568882 
L 119.659354 67.813976 
L 120.019615 68.059075 
L 120.379875 68.304185 
L 120.740135 68.549297 
L 121.100395 68.794417 
L 121.460656 69.039547 
L 121.820916 69.284683 
L 122.181176 69.529823 
L 122.541436 69.774975 
L 122.901697 70.020132 
L 123.261957 70.265296 
L 123.622217 70.51047 
L 123.982477 70.755652 
L 124.342738 71.000839 
L 124.702998 71.246036 
L 125.063258 71.491238 
L 125.423519 71.736448 
L 125.783779 71.981669 
L 126.144039 72.226895 
L 126.504299 72.472132 
L 126.86456 72.717373 
L 127.22482 72.962625 
L 127.58508 73.207884 
L 127.94534 73.453153 
L 128.305601 73.698427 
L 128.665861 73.943711 
L 129.026121 74.189004 
L 129.386381 74.434303 
L 129.746642 74.679613 
L 130.106902 74.924932 
L 130.467162 75.170256 
L 130.827422 75.415592 
L 131.187683 75.660936 
L 131.547943 75.906288 
L 131.908203 76.151648 
L 132.268463 76.397018 
L 132.628724 76.642397 
L 132.988984 76.887784 
L 133.349244 77.13318 
L 133.709505 77.378587 
L 134.069765 77.624002 
L 134.430025 77.869427 
L 134.790285 78.114861 
L 135.150546 78.360301 
L 135.510806 78.605755 
L 135.871066 78.851218 
L 136.231326 79.096689 
L 136.591587 79.342169 
L 136.951847 79.587659 
L 137.312107 79.833162 
L 137.672367 80.078672 
L 138.032628 80.324191 
L 138.392888 80.569722 
L 138.753148 80.815262 
L 139.113408 81.060812 
L 139.473669 81.306371 
L 139.833929 81.551945 
L 140.194189 81.797523 
L 140.554449 82.043114 
L 140.91471 82.288718 
L 141.27497 82.534329 
L 141.63523 82.77995 
L 141.99549 83.025585 
L 142.355751 83.271228 
L 142.716011 83.516883 
L 143.076271 83.76255 
L 143.436532 84.008225 
L 143.796792 84.253916 
L 144.157052 84.499614 
L 144.517312 84.745327 
L 144.877573 84.991047 
L 145.237833 85.236779 
L 145.598093 85.482526 
L 145.958353 85.72828 
L 146.318614 85.974046 
L 146.678874 86.219829 
L 147.039134 86.46562 
L 147.399394 86.711421 
L 147.759655 86.957234 
L 148.119915 87.203066 
L 148.480175 87.4489 
L 148.840435 87.694753 
L 149.200696 87.940618 
L 149.560956 88.186493 
L 149.921216 88.432383 
L 150.281476 88.678284 
L 150.641737 88.9242 
L 151.001997 89.170127 
L 151.362257 89.416063 
L 151.722518 89.662017 
L 152.082778 89.907982 
L 152.443038 90.153959 
L 152.803298 90.399952 
L 153.163559 90.645957 
L 153.523819 90.891973 
L 153.884079 91.138007 
L 154.244339 91.384054 
L 154.6046 91.630111 
L 154.96486 91.876184 
L 155.32512 92.122271 
L 155.68538 92.368372 
L 156.045641 92.614487 
L 156.405901 92.860618 
L 156.766161 93.106762 
L 157.126421 93.35292 
L 157.486682 93.599094 
L 157.846942 93.845281 
L 158.207202 94.091481 
L 158.567462 94.337698 
L 158.927723 94.58393 
L 159.287983 94.830178 
L 159.648243 95.076437 
L 160.008504 95.322717 
L 160.368764 95.56901 
L 160.729024 95.815315 
L 161.089284 96.061641 
L 161.449545 96.307982 
L 161.809805 96.554336 
L 162.170065 96.800709 
L 162.530325 97.047097 
L 162.890586 97.293502 
L 163.250846 97.539921 
L 163.611106 97.786357 
L 163.971366 98.032812 
L 164.331627 98.279282 
L 164.691887 98.525769 
L 165.052147 98.772273 
L 165.412407 99.018794 
L 165.772668 99.26533 
L 166.132928 99.511887 
L 166.493188 99.75846 
L 166.853448 100.005051 
L 167.213709 100.251661 
L 167.573969 100.498285 
L 167.934229 100.744928 
L 168.294489 100.991592 
L 168.65475 101.238274 
L 169.01501 101.484975 
L 169.37527 101.731691 
L 169.735531 101.978425 
L 170.095791 102.225184 
L 170.456051 102.471958 
L 170.816311 102.718747 
L 171.176572 102.965563 
L 171.536832 103.212393 
L 171.897092 103.459244 
L 172.257352 103.706117 
L 172.617613 103.953006 
L 172.977873 104.199917 
L 173.338133 104.44685 
L 173.698393 104.693799 
L 174.058654 104.940769 
L 174.418914 105.187763 
L 174.779174 105.434776 
L 175.139434 105.681813 
L 175.499695 105.928868 
L 175.859955 106.175944 
L 176.220215 106.423043 
L 176.580475 106.670159 
L 176.940736 106.917303 
L 177.300996 107.164463 
L 177.661256 107.411648 
L 178.021517 107.658853 
L 178.381777 107.906085 
L 178.742037 108.153333 
L 179.102297 108.400609 
L 179.462558 108.647906 
L 179.822818 108.895224 
L 180.183078 109.142572 
L 180.543338 109.389935 
L 180.903599 109.637323 
L 181.263859 109.88474 
L 181.624119 110.132178 
L 181.984379 110.379641 
L 182.34464 110.627127 
L 182.7049 110.874635 
L 183.06516 111.122171 
L 183.42542 111.369731 
L 183.785681 111.617313 
L 184.145941 111.864922 
L 184.506201 112.112559 
L 184.866461 112.360217 
L 185.226722 112.607903 
L 185.586982 112.855617 
L 185.947242 113.103352 
L 186.307503 113.351118 
L 186.667763 113.598907 
L 187.028023 113.846724 
L 187.388283 114.094571 
L 187.748544 114.342438 
L 188.108804 114.59034 
L 188.469064 114.838264 
L 188.829324 115.086216 
L 189.189585 115.334197 
L 189.549845 115.582208 
L 189.910105 115.830245 
L 190.270365 116.078308 
L 190.630626 116.326404 
L 190.990886 116.574524 
L 191.351146 116.822678 
L 191.711406 117.070859 
L 192.071667 117.319069 
L 192.431927 117.567311 
L 192.792187 117.815581 
L 193.152447 118.063882 
L 193.512708 118.312208 
L 193.872968 118.560568 
L 194.233228 118.808962 
L 194.593488 119.057383 
L 194.953749 119.305834 
L 195.314009 119.554321 
L 195.674269 119.802834 
L 196.03453 120.05138 
L 196.39479 120.299965 
L 196.75505 120.548575 
L 197.11531 120.797217 
L 197.475571 121.045898 
L 197.835831 121.294605 
L 198.196091 121.543345 
L 198.556351 121.792123 
L 198.916612 122.040935 
L 199.276872 122.289778 
L 199.637132 122.538654 
L 199.997392 122.787561 
L 200.357653 123.036511 
L 200.717913 123.285491 
L 201.078173 123.534506 
L 201.438433 123.783558 
L 201.798694 124.032641 
L 202.158954 124.281762 
L 202.519214 124.530918 
L 202.879474 124.780111 
L 203.239735 125.029339 
L 203.599995 125.278607 
L 203.960255 125.527904 
L 204.320516 125.777243 
L 204.680776 126.026623 
L 205.041036 126.276032 
L 205.401296 126.525489 
L 205.761557 126.774976 
L 206.121817 127.024507 
L 206.482077 127.274067 
L 206.842337 127.523673 
L 207.202598 127.773313 
L 207.562858 128.022996 
L 207.923118 128.272715 
L 208.283378 128.522472 
L 208.643639 128.772278 
L 209.003899 129.022111 
L 209.364159 129.271993 
L 209.724419 129.521913 
L 210.08468 129.771871 
L 210.44494 130.021875 
L 210.8052 130.271922 
L 211.16546 130.522003 
L 211.525721 130.772133 
L 211.885981 131.022293 
L 212.246241 131.272509 
L 212.606502 131.52276 
L 212.966762 131.773052 
L 213.327022 132.023388 
L 213.687282 132.273767 
L 214.047543 132.524187 
L 214.407803 132.774658 
L 214.768063 133.025165 
L 215.128323 133.275715 
L 215.488584 133.526317 
L 215.848844 133.776956 
L 216.209104 134.027642 
L 216.569364 134.27837 
L 216.929625 134.529148 
L 217.289885 134.779968 
L 217.650145 135.030836 
L 218.010405 135.281745 
L 218.370666 135.532705 
L 218.730926 135.783705 
L 219.091186 136.034755 
L 219.451446 136.285855 
L 219.811707 136.536995 
L 220.171967 136.788182 
L 220.532227 137.039422 
L 220.892487 137.290706 
L 221.252748 137.542029 
L 221.613008 137.79341 
L 221.973268 138.044836 
L 222.333529 138.296311 
L 222.693789 138.547838 
L 223.054049 138.799408 
L 223.414309 139.051025 
L 223.77457 139.302694 
L 224.13483 139.554411 
L 224.49509 139.806177 
L 224.85535 140.057993 
L 225.215611 140.309855 
L 225.575871 140.561778 
L 225.936131 140.813737 
L 226.296391 141.065752 
L 226.656652 141.317817 
L 227.016912 141.569932 
L 227.377172 141.822098 
L 227.737432 142.07432 
L 228.097693 142.326585 
L 228.457953 142.578901 
L 228.818213 142.831273 
L 229.178473 143.083696 
L 229.538734 143.336164 
L 229.898994 143.58869 
L 230.259254 143.841268 
L 230.619515 144.093893 
L 230.979775 144.346575 
L 231.340035 144.599305 
L 231.700295 144.852091 
L 232.060556 145.104926 
L 232.420816 145.357815 
L 232.781076 145.610759 
L 233.141336 145.863753 
L 233.501597 146.116801 
L 233.861857 146.369904 
L 234.222117 146.623052 
L 234.582377 146.876262 
L 234.942638 147.129522 
L 235.302898 147.382835 
L 235.663158 147.6362 
L 236.023418 147.889623 
L 236.383679 148.143094 
L 236.743939 148.39663 
L 237.104199 148.650207 
L 237.464459 148.903845 
L 237.82472 149.157535 
L 238.18498 149.411278 
L 238.54524 149.665074 
L 238.9055 149.91893 
L 239.265761 150.172832 
L 239.626021 150.426792 
L 239.986281 150.680812 
L 240.346542 150.934879 
L 240.706802 151.188997 
L 241.067062 151.44318 
L 241.427322 151.69741 
L 241.787583 151.951702 
L 242.147843 152.206041 
L 242.508103 152.460434 
L 242.868363 152.714887 
L 243.228624 152.96939 
L 243.588884 153.223957 
L 243.949144 153.478571 
L 244.309404 153.733239 
L 244.669665 153.987958 
L 245.029925 154.242731 
L 245.390185 154.497573 
L 245.750445 154.75246 
L 246.110706 155.007401 
L 246.470966 155.262397 
L 246.831226 155.517442 
L 247.191486 155.772547 
L 247.551747 156.027706 
L 247.912007 156.282919 
L 248.272267 156.538192 
L 248.632528 156.793514 
L 248.992788 157.04889 
L 249.353048 157.304325 
L 249.713308 157.559799 
L 250.073569 157.815342 
L 250.433829 158.07093 
L 250.794089 158.326581 
L 251.154349 158.582281 
L 251.51461 158.838039 
L 251.87487 159.093836 
L 252.23513 159.349697 
L 252.59539 159.605616 
L 252.955651 159.861584 
L 253.315911 160.117605 
L 253.676171 160.373683 
L 254.036431 160.629801 
L 254.396692 160.885995 
L 254.756952 161.142218 
L 255.117212 161.398504 
L 255.477472 161.654842 
L 255.837733 161.911232 
L 256.197993 162.16768 
L 256.558253 162.42418 
L 256.918514 162.680717 
L 257.278774 162.937312 
L 257.639034 163.193968 
L 257.999294 163.45067 
L 258.359555 163.707429 
L 258.719815 163.964235 
L 259.080075 164.221082 
L 259.440335 164.477995 
L 259.800596 164.734954 
L 260.160856 164.991963 
L 260.521116 165.249024 
L 260.881376 165.506139 
L 261.241637 165.763305 
L 261.601897 166.020516 
L 261.962157 166.277767 
L 262.322417 166.535078 
L 262.682678 166.792438 
L 263.042938 167.049853 
L 263.403198 167.307317 
L 263.763458 167.564825 
L 264.123719 167.822372 
L 264.483979 168.079983 
L 264.844239 168.337637 
L 265.204499 168.595339 
L 265.56476 168.853094 
L 265.92502 169.110893 
L 266.28528 169.368729 
L 266.645541 169.626628 
L 267.005801 169.884569 
L 267.366061 170.142557 
L 267.726321 170.400592 
L 268.086582 170.658678 
L 268.446842 170.916806 
L 268.807102 171.174981 
L 269.167362 171.433196 
L 269.527623 171.691463 
L 269.887883 171.949775 
L 270.248143 172.208132 
L 270.608403 172.46654 
L 270.968664 172.724987 
L 271.328924 172.983475 
L 271.689184 173.242012 
L 272.049444 173.500593 
L 272.409705 173.759223 
L 272.769965 174.017893 
L 273.130225 174.276606 
L 273.490485 174.535367 
L 273.850746 174.794157 
L 274.211006 175.053 
L 274.571266 175.31189 
L 274.931527 175.570818 
L 275.291787 175.829788 
L 275.652047 176.0888 
L 276.012307 176.34785 
L 276.372568 176.606946 
L 276.732828 176.866088 
L 277.093088 177.125262 
L 277.453348 177.384486 
L 277.813609 177.643746 
L 278.173869 177.903051 
L 278.534129 178.162383 
L 278.894389 178.421763 
L 279.25465 178.681188 
L 279.61491 178.940649 
L 279.97517 179.200148 
L 280.33543 179.459687 
L 280.695691 179.719268 
L 281.055951 179.978876 
L 281.416211 180.23853 
L 281.776471 180.498227 
L 282.136732 180.757958 
L 282.496992 181.017726 
L 282.857252 181.277536 
L 283.217513 181.537374 
L 283.577773 181.797254 
L 283.938033 182.057171 
L 284.298293 182.317124 
L 284.658554 182.577114 
L 285.018814 182.837144 
L 285.379074 183.097196 
L 285.739334 183.357302 
L 286.099595 183.61743 
L 286.459855 183.877602 
L 286.820115 184.137801 
L 287.180375 184.398042 
L 287.540636 184.65831 
L 287.900896 184.91862 
L 288.261156 185.178956 
L 288.621416 185.43933 
L 288.981677 185.699741 
L 289.341937 185.960182 
L 289.702197 186.220652 
L 290.062457 186.481163 
L 290.422718 186.741699 
L 290.782978 187.002271 
L 291.143238 187.262879 
L 291.503498 187.523516 
L 291.863759 187.784184 
L 292.224019 188.044884 
L 292.584279 188.305619 
L 292.94454 188.566378 
L 293.3048 188.827167 
L 293.66506 189.087995 
L 294.02532 189.348846 
L 294.385581 189.609735 
L 294.745841 189.870654 
L 295.106101 190.131595 
L 295.466361 190.392566 
L 295.826622 190.653574 
L 296.186882 190.914604 
L 296.547142 191.17567 
L 296.907402 191.436766 
L 297.267663 191.697882 
L 297.627923 191.959027 
L 297.988183 192.220212 
L 298.348443 192.481409 
L 298.708704 192.742646 
L 299.068964 193.003906 
L 299.429224 193.265194 
L 299.789484 193.526514 
L 300.149745 193.787856 
L 300.510005 194.049221 
L 300.870265 194.310617 
L 301.230526 194.57204 
L 301.590786 194.833492 
L 301.951046 195.094967 
L 302.311306 195.356468 
L 302.671567 195.617987 
L 303.031827 195.879543 
L 303.392087 196.141121 
L 303.752347 196.402727 
L 304.112608 196.664355 
L 304.472868 196.926008 
L 304.833128 197.187685 
L 305.193388 197.449383 
L 305.553649 197.711109 
L 305.913909 197.972863 
L 306.274169 198.234637 
L 306.634429 198.496434 
L 306.99469 198.758256 
L 307.35495 199.0201 
L 307.71521 199.281965 
L 308.07547 199.543856 
L 308.435731 199.80577 
L 308.795991 200.067707 
L 309.156251 200.32967 
L 309.516512 200.591651 
L 309.876772 200.853659 
L 310.237032 201.115678 
L 310.597292 201.377726 
L 310.957553 201.639795 
L 311.317813 201.90189 
L 311.678073 202.164003 
L 312.038333 202.42614 
L 312.398594 202.688288 
L 312.758854 202.950464 
L 313.119114 203.212661 
L 313.479374 203.474882 
L 313.839635 203.73712 
L 314.199895 203.999378 
L 314.560155 204.261653 
L 314.920415 204.523952 
L 315.280676 204.786274 
L 315.640936 205.048612 
L 316.001196 205.31097 
L 316.361456 205.573351 
L 316.721717 205.835744 
L 317.081977 206.098163 
L 317.442237 206.360591 
L 317.802497 206.623044 
L 318.162758 206.88552 
L 318.523018 207.148015 
L 318.883278 207.410521 
L 319.243539 207.673052 
L 319.603799 207.935591 
L 319.964059 208.198158 
L 320.324319 208.460737 
L 320.68458 208.723344 
L 321.04484 208.985958 
L 321.4051 209.248593 
L 321.76536 209.511245 
L 322.125621 209.773918 
L 322.485881 210.036602 
L 322.846141 210.299305 
L 323.206401 210.562026 
L 323.566662 210.824767 
L 323.926922 211.087521 
L 324.287182 211.350292 
L 324.647442 211.613076 
L 325.007703 211.875879 
L 325.367963 212.138699 
L 325.728223 212.401534 
L 326.088483 212.664389 
L 326.448744 212.927257 
L 326.809004 213.190136 
L 327.169264 213.453032 
L 327.529525 213.715949 
L 327.889785 213.978879 
L 328.250045 214.241826 
L 328.610305 214.504786 
L 328.970566 214.767761 
L 329.330826 215.030754 
L 329.691086 215.293752 
L 330.051346 215.556775 
L 330.411607 215.819805 
L 330.771867 216.082857 
L 331.132127 216.345919 
L 331.492387 216.608996 
L 331.852648 216.872081 
L 332.212908 217.135193 
L 332.573168 217.398308 
L 332.933428 217.661445 
L 333.293689 217.924591 
L 333.653949 218.187752 
L 334.014209 218.450923 
L 334.374469 218.714113 
L 334.73473 218.977311 
L 335.09499 219.240525 
L 335.45525 219.503755 
L 335.815511 219.766995 
L 336.175771 220.030249 
L 336.536031 220.293512 
L 336.896291 220.556791 
L 337.256552 220.820085 
L 337.616812 221.083387 
L 337.977072 221.346706 
L 338.337332 221.610036 
L 338.697593 221.873377 
L 339.057853 222.136728 
L 339.418113 222.400097 
L 339.778373 222.663472 
L 340.138634 222.926865 
L 340.498894 223.190267 
L 340.859154 223.453681 
L 341.219414 223.717109 
L 341.579675 223.980541 
L 341.939935 224.243992 
L 342.300195 224.507453 
L 342.660455 224.770924 
L 343.020716 225.034407 
L 343.380976 225.297902 
L 343.741236 225.561404 
L 344.101496 225.824921 
L 344.461757 226.088451 
L 344.822017 226.351989 
L 345.182277 226.615539 
L 345.542538 226.879099 
L 345.902798 227.142667 
L 346.263058 227.406248 
L 346.623318 227.66984 
L 346.983579 227.933446 
L 347.343839 228.197059 
L 347.704099 228.460685 
L 348.064359 228.724318 
L 348.42462 228.987962 
L 348.78488 229.251613 
L 349.14514 229.515277 
L 349.5054 229.778951 
L 349.865661 230.042635 
L 350.225921 230.306328 
L 350.586181 230.570034 
L 350.946441 230.833742 
L 351.306702 231.097465 
L 351.666962 231.3612 
L 352.027222 231.624945 
L 352.387482 231.888696 
L 352.747743 232.152457 
L 353.108003 232.416221 
L 353.468263 232.680009 
L 353.828524 232.943792 
L 354.188784 233.207589 
L 354.549044 233.471396 
L 354.909304 233.735212 
L 355.269565 233.999039 
L 355.629825 234.262873 
L 355.990085 234.52671 
L 356.350345 234.790563 
L 356.710606 235.054423 
L 357.070866 235.318294 
L 357.431126 235.582169 
L 357.791386 235.846057 
L 358.151647 236.109946 
L 358.511907 236.373856 
L 358.872167 236.637762 
L 359.232427 236.901681 
L 359.592688 237.165608 
L 359.952948 237.429546 
L 360.313208 237.69349 
L 360.673468 237.957442 
L 361.033729 238.221399 
L 361.393989 238.485367 
L 361.754249 238.749343 
L 362.11451 239.013326 
L 362.47477 239.277323 
L 362.83503 239.54132 
L 363.19529 239.805324 
L 363.555551 240.069341 
L 363.915811 240.333361 
L 364.276071 240.597391 
L 364.636331 240.861431 
L 364.996592 241.125475 
L 365.356852 241.38953 
L 365.717112 241.653585 
L 366.077372 241.917651 
L 366.437633 242.181726 
L 366.797893 242.44581 
L 367.158153 242.709898 
L 367.518413 242.973996 
L 367.878674 243.238097 
L 368.238934 243.502204 
L 368.599194 243.766323 
L 368.959454 244.030445 
L 369.319715 244.294578 
L 369.679975 244.558715 
L 370.040235 244.82286 
L 370.400495 245.087008 
L 370.760756 245.351166 
L 371.121016 245.615331 
L 371.481276 245.879505 
L 371.841537 246.143682 
L 372.201797 246.407867 
L 372.562057 246.67206 
L 372.922317 246.936253 
L 373.282578 247.200456 
L 373.642838 247.464669 
L 374.003098 247.728886 
L 374.363358 247.993109 
L 374.723619 248.257338 
L 375.083879 248.521571 
L 375.444139 248.785812 
L 375.804399 249.05006 
L 376.16466 249.314317 
L 376.52492 249.578576 
L 376.88518 249.842843 
L 377.24544 250.107115 
L 377.605701 250.371395 
L 377.965961 250.635674 
L 378.326221 250.899964 
L 378.686481 251.16426 
L 379.046742 251.428563 
L 379.407002 251.692871 
L 379.767262 251.957186 
L 380.127523 252.2215 
L 380.487783 252.485825 
L 380.848043 252.750157 
L 381.208303 253.014493 
L 381.568564 253.278834 
L 381.928824 253.543181 
L 382.289084 253.807533 
L 382.649344 254.071889 
L 383.009605 254.336254 
L 383.369865 254.600623 
L 383.730125 254.864997 
L 384.090385 255.129376 
L 384.450646 255.393763 
L 384.810906 255.658151 
L 385.171166 255.922544 
L 385.531426 256.186947 
L 385.891687 256.45135 
L 386.251947 256.715763 
L 386.612207 256.980181 
L 386.972467 257.244602 
L 387.332728 257.509026 
L 387.692988 257.773455 
L 388.053248 258.037893 
L 388.413509 258.302336 
L 388.773769 258.56678 
L 389.134029 258.831233 
L 389.494289 259.095685 
L 389.85455 259.36015 
L 390.21481 259.624613 
L 390.57507 259.889083 
L 390.93533 260.153558 
L 391.295591 260.41804 
L 391.655851 260.682525 
L 392.016111 260.947014 
L 392.376371 261.211503 
L 392.736632 261.476004 
L 393.096892 261.740507 
L 393.457152 262.005014 
L 393.817412 262.269529 
L 394.177673 262.534043 
L 394.537933 262.798562 
L 394.898193 263.06309 
L 395.258453 263.327618 
L 395.618714 263.592155 
L 395.978974 263.856696 
L 396.339234 264.121237 
L 396.699494 264.385787 
L 397.059755 264.650339 
L 397.420015 264.914891 
L 397.780275 265.179453 
L 398.140536 265.444018 
L 398.500796 265.708587 
L 398.861056 265.973162 
L 399.221316 266.23774 
L 399.581577 266.502319 
L 399.941837 266.766905 
L 400.302097 267.031494 
L 400.662357 267.29609 
L 401.022618 267.560688 
L 401.382878 267.82529 
L 401.743138 268.089892 
L 402.103398 268.354502 
L 402.463659 268.619118 
L 402.823919 268.883735 
L 403.184179 269.148357 
L 403.544439 269.412985 
L 403.9047 269.677614 
L 404.26496 269.942245 
L 404.62522 270.206881 
L 404.98548 270.471524 
L 405.345741 270.73617 
L 405.706001 271.000817 
L 406.066261 271.265471 
L 406.426522 271.530125 
L 406.786782 271.794785 
L 407.147042 272.059446 
L 407.507302 272.324115 
L 407.867563 272.588786 
L 408.227823 272.85346 
L 408.588083 273.118138 
L 408.948343 273.382822 
L 409.308604 273.647505 
L 409.668864 273.912194 
L 410.029124 274.176886 
L 410.389384 274.441584 
L 410.749645 274.706283 
L 411.109905 274.970985 
L 411.470165 275.235688 
L 411.830425 275.500397 
L 412.190686 275.765112 
L 412.550946 276.02983 
L 412.911206 276.294548 
L 413.271466 276.559271 
L 413.631727 276.823996 
L 413.991987 277.088729 
L 414.352247 277.353461 
L 414.712508 277.618197 
L 415.072768 277.882936 
L 415.433028 278.147681 
L 415.793288 278.412427 
L 416.153549 278.677177 
L 416.513809 278.941927 
L 416.874069 279.206683 
L 417.234329 279.471442 
L 417.59459 279.736206 
L 417.95485 280.000969 
L 418.31511 280.265739 
L 418.67537 280.530507 
L 419.035631 280.795281 
L 419.395891 281.060059 
L 419.756151 281.324843 
L 420.116411 281.589625 
L 420.476672 281.854412 
L 420.836932 282.119203 
L 421.197192 282.383996 
L 421.557452 282.64879 
L 421.917713 282.913588 
L 422.277973 283.17839 
L 422.638233 283.443196 
L 422.998493 283.708004 
L 423.358754 283.972812 
L 423.719014 284.237625 
L 424.079274 284.502439 
L 424.439535 284.76726 
L 424.799795 285.032082 
L 425.160055 285.296906 
L 425.520315 285.561736 
L 425.880576 285.826564 
L 426.240836 286.091397 
L 426.601096 286.356231 
L 426.961356 286.621071 
L 427.321617 286.885912 
L 427.681877 287.150756 
L 428.042137 287.415605 
L 428.402397 287.680454 
L 428.762658 287.945304 
L 429.122918 288.210159 
L 429.483178 288.475014 
L 429.843438 288.739876 
L 430.203699 289.004739 
L 430.563959 289.269604 
L 430.924219 289.53447 
L 431.284479 289.799342 
L 431.64474 290.064215 
L 432.005 290.329091 
L 432.005 277.980129 
L 432.005 277.980129 
L 431.64474 277.735806 
L 431.284479 277.491481 
L 430.924219 277.247154 
L 430.563959 277.002822 
L 430.203699 276.758489 
L 429.843438 276.514153 
L 429.483178 276.269816 
L 429.122918 276.025473 
L 428.762658 275.781129 
L 428.402397 275.536781 
L 428.042137 275.292432 
L 427.681877 275.048082 
L 427.321617 274.803727 
L 426.961356 274.55937 
L 426.601096 274.315012 
L 426.240836 274.070647 
L 425.880576 273.826282 
L 425.520315 273.581911 
L 425.160055 273.337542 
L 424.799795 273.093168 
L 424.439535 272.848791 
L 424.079274 272.604414 
L 423.719014 272.360029 
L 423.358754 272.115644 
L 422.998493 271.871254 
L 422.638233 271.626863 
L 422.277973 271.38247 
L 421.917713 271.138074 
L 421.557452 270.893674 
L 421.197192 270.649269 
L 420.836932 270.404863 
L 420.476672 270.160456 
L 420.116411 269.916044 
L 419.756151 269.671627 
L 419.395891 269.427213 
L 419.035631 269.182792 
L 418.67537 268.938368 
L 418.31511 268.693938 
L 417.95485 268.449509 
L 417.59459 268.205074 
L 417.234329 267.960639 
L 416.874069 267.7162 
L 416.513809 267.471757 
L 416.153549 267.227309 
L 415.793288 266.98286 
L 415.433028 266.738408 
L 415.072768 266.493954 
L 414.712508 266.249495 
L 414.352247 266.005033 
L 413.991987 265.760565 
L 413.631727 265.516101 
L 413.271466 265.271627 
L 412.911206 265.027151 
L 412.550946 264.78267 
L 412.190686 264.53819 
L 411.830425 264.293707 
L 411.470165 264.049218 
L 411.109905 263.804721 
L 410.749645 263.560226 
L 410.389384 263.315726 
L 410.029124 263.071225 
L 409.668864 262.826719 
L 409.308604 262.582209 
L 408.948343 262.337694 
L 408.588083 262.093179 
L 408.227823 261.848658 
L 407.867563 261.604134 
L 407.507302 261.359606 
L 407.147042 261.115077 
L 406.786782 260.87054 
L 406.426522 260.626001 
L 406.066261 260.381457 
L 405.706001 260.136912 
L 405.345741 259.89236 
L 404.98548 259.647809 
L 404.62522 259.403253 
L 404.26496 259.15869 
L 403.9047 258.914123 
L 403.544439 258.669554 
L 403.184179 258.424983 
L 402.823919 258.180406 
L 402.463659 257.935825 
L 402.103398 257.691243 
L 401.743138 257.446654 
L 401.382878 257.202057 
L 401.022618 256.957461 
L 400.662357 256.71286 
L 400.302097 256.468257 
L 399.941837 256.223649 
L 399.581577 255.979036 
L 399.221316 255.734417 
L 398.861056 255.489795 
L 398.500796 255.245172 
L 398.140536 255.000543 
L 397.780275 254.755909 
L 397.420015 254.511273 
L 397.059755 254.266627 
L 396.699494 254.02198 
L 396.339234 253.777331 
L 395.978974 253.532674 
L 395.618714 253.288016 
L 395.258453 253.043355 
L 394.898193 252.798684 
L 394.537933 252.554013 
L 394.177673 252.309334 
L 393.817412 252.06465 
L 393.457152 251.819966 
L 393.096892 251.575275 
L 392.736632 251.330579 
L 392.376371 251.085882 
L 392.016111 250.841172 
L 391.655851 250.596463 
L 391.295591 250.351749 
L 390.93533 250.107033 
L 390.57507 249.862309 
L 390.21481 249.617581 
L 389.85455 249.372846 
L 389.494289 249.128112 
L 389.134029 248.883365 
L 388.773769 248.63862 
L 388.413509 248.393865 
L 388.053248 248.14911 
L 387.692988 247.904349 
L 387.332728 247.65958 
L 386.972467 247.414805 
L 386.612207 247.170027 
L 386.251947 246.925247 
L 385.891687 246.680462 
L 385.531426 246.435666 
L 385.171166 246.190871 
L 384.810906 245.946065 
L 384.450646 245.701254 
L 384.090385 245.456443 
L 383.730125 245.211624 
L 383.369865 244.966799 
L 383.009605 244.721969 
L 382.649344 244.477136 
L 382.289084 244.232293 
L 381.928824 243.987447 
L 381.568564 243.742595 
L 381.208303 243.497738 
L 380.848043 243.252875 
L 380.487783 243.008009 
L 380.127523 242.763135 
L 379.767262 242.518251 
L 379.407002 242.273368 
L 379.046742 242.028477 
L 378.686481 241.783582 
L 378.326221 241.538679 
L 377.965961 241.29377 
L 377.605701 241.048851 
L 377.24544 240.803933 
L 376.88518 240.559006 
L 376.52492 240.314074 
L 376.16466 240.069135 
L 375.804399 239.824193 
L 375.444139 239.579243 
L 375.083879 239.334286 
L 374.723619 239.08932 
L 374.363358 238.844351 
L 374.003098 238.599375 
L 373.642838 238.354393 
L 373.282578 238.109407 
L 372.922317 237.864413 
L 372.562057 237.619407 
L 372.201797 237.374402 
L 371.841537 237.129388 
L 371.481276 236.884367 
L 371.121016 236.639342 
L 370.760756 236.394308 
L 370.400495 236.149268 
L 370.040235 235.904218 
L 369.679975 235.659164 
L 369.319715 235.414103 
L 368.959454 235.169037 
L 368.599194 234.92396 
L 368.238934 234.678881 
L 367.878674 234.43379 
L 367.518413 234.188692 
L 367.158153 233.943591 
L 366.797893 233.698481 
L 366.437633 233.453367 
L 366.077372 233.208242 
L 365.717112 232.963111 
L 365.356852 232.717967 
L 364.996592 232.472823 
L 364.636331 232.227669 
L 364.276071 231.982511 
L 363.915811 231.737342 
L 363.555551 231.492163 
L 363.19529 231.246982 
L 362.83503 231.001788 
L 362.47477 230.756586 
L 362.11451 230.511384 
L 361.754249 230.266169 
L 361.393989 230.020946 
L 361.033729 229.775716 
L 360.673468 229.530474 
L 360.313208 229.285228 
L 359.952948 229.039973 
L 359.592688 228.794713 
L 359.232427 228.549442 
L 358.872167 228.304162 
L 358.511907 228.058869 
L 358.151647 227.813581 
L 357.791386 227.568271 
L 357.431126 227.322961 
L 357.070866 227.077637 
L 356.710606 226.83231 
L 356.350345 226.586971 
L 355.990085 226.341626 
L 355.629825 226.096265 
L 355.269565 225.8509 
L 354.909304 225.605529 
L 354.549044 225.360146 
L 354.188784 225.114754 
L 353.828524 224.869353 
L 353.468263 224.623938 
L 353.108003 224.378527 
L 352.747743 224.133093 
L 352.387482 223.887655 
L 352.027222 223.642208 
L 351.666962 223.396754 
L 351.306702 223.15129 
L 350.946441 222.905815 
L 350.586181 222.660324 
L 350.225921 222.414832 
L 349.865661 222.169327 
L 349.5054 221.923812 
L 349.14514 221.678287 
L 348.78488 221.432753 
L 348.42462 221.187205 
L 348.064359 220.94165 
L 347.704099 220.696085 
L 347.343839 220.450513 
L 346.983579 220.204927 
L 346.623318 219.959334 
L 346.263058 219.713728 
L 345.902798 219.468111 
L 345.542538 219.22248 
L 345.182277 218.976842 
L 344.822017 218.731193 
L 344.461757 218.485533 
L 344.101496 218.239865 
L 343.741236 217.994183 
L 343.380976 217.748487 
L 343.020716 217.502782 
L 342.660455 217.257067 
L 342.300195 217.01134 
L 341.939935 216.765602 
L 341.579675 216.519855 
L 341.219414 216.274088 
L 340.859154 216.028318 
L 340.498894 215.782533 
L 340.138634 215.536737 
L 339.778373 215.290931 
L 339.418113 215.045108 
L 339.057853 214.799278 
L 338.697593 214.55343 
L 338.337332 214.307573 
L 337.977072 214.061704 
L 337.616812 213.815826 
L 337.256552 213.569928 
L 336.896291 213.324024 
L 336.536031 213.078105 
L 336.175771 212.832169 
L 335.815511 212.586224 
L 335.45525 212.340266 
L 335.09499 212.094298 
L 334.73473 211.848313 
L 334.374469 211.602313 
L 334.014209 211.356305 
L 333.653949 211.110277 
L 333.293689 210.864239 
L 332.933428 210.618187 
L 332.573168 210.372125 
L 332.212908 210.126042 
L 331.852648 209.879955 
L 331.492387 209.633841 
L 331.132127 209.38772 
L 330.771867 209.141584 
L 330.411607 208.895437 
L 330.051346 208.649269 
L 329.691086 208.403093 
L 329.330826 208.156893 
L 328.970566 207.910687 
L 328.610305 207.664463 
L 328.250045 207.418225 
L 327.889785 207.171974 
L 327.529525 206.925705 
L 327.169264 206.679424 
L 326.809004 206.433121 
L 326.448744 206.186802 
L 326.088483 205.940471 
L 325.728223 205.694127 
L 325.367963 205.447764 
L 325.007703 205.201385 
L 324.647442 204.95499 
L 324.287182 204.708575 
L 323.926922 204.462148 
L 323.566662 204.215703 
L 323.206401 203.969246 
L 322.846141 203.722768 
L 322.485881 203.476273 
L 322.125621 203.229758 
L 321.76536 202.983233 
L 321.4051 202.736687 
L 321.04484 202.490123 
L 320.68458 202.243539 
L 320.324319 201.996947 
L 319.964059 201.750327 
L 319.603799 201.503696 
L 319.243539 201.257037 
L 318.883278 201.010369 
L 318.523018 200.763677 
L 318.162758 200.516973 
L 317.802497 200.27025 
L 317.442237 200.023505 
L 317.081977 199.776735 
L 316.721717 199.529955 
L 316.361456 199.28315 
L 316.001196 199.036332 
L 315.640936 198.789491 
L 315.280676 198.542631 
L 314.920415 198.295755 
L 314.560155 198.048855 
L 314.199895 197.801931 
L 313.839635 197.554991 
L 313.479374 197.30803 
L 313.119114 197.061053 
L 312.758854 196.814051 
L 312.398594 196.567029 
L 312.038333 196.319978 
L 311.678073 196.072917 
L 311.317813 195.825831 
L 310.957553 195.578728 
L 310.597292 195.331599 
L 310.237032 195.084448 
L 309.876772 194.837268 
L 309.516512 194.590078 
L 309.156251 194.342861 
L 308.795991 194.095625 
L 308.435731 193.848363 
L 308.07547 193.601079 
L 307.71521 193.353772 
L 307.35495 193.106437 
L 306.99469 192.859084 
L 306.634429 192.611706 
L 306.274169 192.364306 
L 305.913909 192.116881 
L 305.553649 191.869437 
L 305.193388 191.621964 
L 304.833128 191.374464 
L 304.472868 191.126942 
L 304.112608 190.879396 
L 303.752347 190.631826 
L 303.392087 190.384234 
L 303.031827 190.136613 
L 302.671567 189.88897 
L 302.311306 189.641291 
L 301.951046 189.393593 
L 301.590786 189.145869 
L 301.230526 188.898123 
L 300.870265 188.650347 
L 300.510005 188.402545 
L 300.149745 188.154712 
L 299.789484 187.906856 
L 299.429224 187.658976 
L 299.068964 187.411066 
L 298.708704 187.163128 
L 298.348443 186.915166 
L 297.988183 186.667165 
L 297.627923 186.419151 
L 297.267663 186.171098 
L 296.907402 185.923015 
L 296.547142 185.674912 
L 296.186882 185.42678 
L 295.826622 185.178611 
L 295.466361 184.930421 
L 295.106101 184.682193 
L 294.745841 184.433936 
L 294.385581 184.185657 
L 294.02532 183.937347 
L 293.66506 183.688999 
L 293.3048 183.440629 
L 292.94454 183.19222 
L 292.584279 182.94378 
L 292.224019 182.695317 
L 291.863759 182.446818 
L 291.503498 182.198288 
L 291.143238 181.949726 
L 290.782978 181.701136 
L 290.422718 181.452509 
L 290.062457 181.203846 
L 289.702197 180.955159 
L 289.341937 180.70643 
L 288.981677 180.457673 
L 288.621416 180.208886 
L 288.261156 179.960061 
L 287.900896 179.711199 
L 287.540636 179.46231 
L 287.180375 179.213379 
L 286.820115 178.964423 
L 286.459855 178.715422 
L 286.099595 178.466396 
L 285.739334 178.217325 
L 285.379074 177.968233 
L 285.018814 177.719087 
L 284.658554 177.469918 
L 284.298293 177.220709 
L 283.938033 176.971464 
L 283.577773 176.722182 
L 283.217513 176.472864 
L 282.857252 176.223504 
L 282.496992 175.974115 
L 282.136732 175.724685 
L 281.776471 175.475217 
L 281.416211 175.225715 
L 281.055951 174.976171 
L 280.695691 174.72658 
L 280.33543 174.476963 
L 279.97517 174.227303 
L 279.61491 173.977604 
L 279.25465 173.727866 
L 278.894389 173.478093 
L 278.534129 173.228275 
L 278.173869 172.978408 
L 277.813609 172.728515 
L 277.453348 172.478576 
L 277.093088 172.228602 
L 276.732828 171.978577 
L 276.372568 171.72852 
L 276.012307 171.478418 
L 275.652047 171.228269 
L 275.291787 170.978083 
L 274.931527 170.727855 
L 274.571266 170.477584 
L 274.211006 170.227276 
L 273.850746 169.97692 
L 273.490485 169.726512 
L 273.130225 169.476074 
L 272.769965 169.225589 
L 272.409705 168.97506 
L 272.049444 168.724491 
L 271.689184 168.473874 
L 271.328924 168.223213 
L 270.968664 167.972502 
L 270.608403 167.721751 
L 270.248143 167.47096 
L 269.887883 167.220119 
L 269.527623 166.969232 
L 269.167362 166.7183 
L 268.807102 166.467317 
L 268.446842 166.216293 
L 268.086582 165.965223 
L 267.726321 165.714111 
L 267.366061 165.462947 
L 267.005801 165.211737 
L 266.645541 164.960479 
L 266.28528 164.709179 
L 265.92502 164.457817 
L 265.56476 164.206417 
L 265.204499 163.954974 
L 264.844239 163.703478 
L 264.483979 163.451933 
L 264.123719 163.200345 
L 263.763458 162.948694 
L 263.403198 162.697004 
L 263.042938 162.445269 
L 262.682678 162.193485 
L 262.322417 161.941647 
L 261.962157 161.689759 
L 261.601897 161.437812 
L 261.241637 161.185825 
L 260.881376 160.933792 
L 260.521116 160.681709 
L 260.160856 160.429571 
L 259.800596 160.177382 
L 259.440335 159.925142 
L 259.080075 159.672856 
L 258.719815 159.420505 
L 258.359555 159.168112 
L 257.999294 158.915673 
L 257.639034 158.663177 
L 257.278774 158.410634 
L 256.918514 158.15803 
L 256.558253 157.905369 
L 256.197993 157.65267 
L 255.837733 157.39992 
L 255.477472 157.147112 
L 255.117212 156.894251 
L 254.756952 156.641338 
L 254.396692 156.388363 
L 254.036431 156.135359 
L 253.676171 155.882277 
L 253.315911 155.629158 
L 252.955651 155.37598 
L 252.59539 155.122749 
L 252.23513 154.86947 
L 251.87487 154.616132 
L 251.51461 154.362731 
L 251.154349 154.109291 
L 250.794089 153.855792 
L 250.433829 153.602245 
L 250.073569 153.348633 
L 249.713308 153.094978 
L 249.353048 152.841254 
L 248.992788 152.587491 
L 248.632528 152.333668 
L 248.272267 152.079791 
L 247.912007 151.825866 
L 247.551747 151.57188 
L 247.191486 151.317841 
L 246.831226 151.063747 
L 246.470966 150.809594 
L 246.110706 150.555391 
L 245.750445 150.301134 
L 245.390185 150.046822 
L 245.029925 149.792466 
L 244.669665 149.53804 
L 244.309404 149.28356 
L 243.949144 149.02903 
L 243.588884 148.774446 
L 243.228624 148.519815 
L 242.868363 148.265119 
L 242.508103 148.010373 
L 242.147843 147.755568 
L 241.787583 147.500708 
L 241.427322 147.245802 
L 241.067062 146.990833 
L 240.706802 146.735818 
L 240.346542 146.480738 
L 239.986281 146.225606 
L 239.626021 145.970427 
L 239.265761 145.715189 
L 238.9055 145.459892 
L 238.54524 145.20455 
L 238.18498 144.949147 
L 237.82472 144.693692 
L 237.464459 144.438183 
L 237.104199 144.182623 
L 236.743939 143.927001 
L 236.383679 143.671338 
L 236.023418 143.415611 
L 235.663158 143.159836 
L 235.302898 142.904002 
L 234.942638 142.648117 
L 234.582377 142.392178 
L 234.222117 142.136189 
L 233.861857 141.880139 
L 233.501597 141.624044 
L 233.141336 141.367893 
L 232.781076 141.111689 
L 232.420816 140.855434 
L 232.060556 140.599125 
L 231.700295 140.342761 
L 231.340035 140.086349 
L 230.979775 139.82988 
L 230.619515 139.573363 
L 230.259254 139.31679 
L 229.898994 139.06017 
L 229.538734 138.803498 
L 229.178473 138.546767 
L 228.818213 138.289991 
L 228.457953 138.033165 
L 228.097693 137.776282 
L 227.737432 137.519349 
L 227.377172 137.262372 
L 227.016912 137.005339 
L 226.656652 136.748256 
L 226.296391 136.491122 
L 225.936131 136.233939 
L 225.575871 135.9767 
L 225.215611 135.719424 
L 224.85535 135.462088 
L 224.49509 135.204705 
L 224.13483 134.947273 
L 223.77457 134.689791 
L 223.414309 134.432261 
L 223.054049 134.174679 
L 222.693789 133.917052 
L 222.333529 133.65938 
L 221.973268 133.401656 
L 221.613008 133.143884 
L 221.252748 132.886066 
L 220.892487 132.628191 
L 220.532227 132.370276 
L 220.171967 132.112318 
L 219.811707 131.854307 
L 219.451446 131.596248 
L 219.091186 131.33815 
L 218.730926 131.080001 
L 218.370666 130.821803 
L 218.010405 130.563564 
L 217.650145 130.305274 
L 217.289885 130.046944 
L 216.929625 129.788566 
L 216.569364 129.530145 
L 216.209104 129.271675 
L 215.848844 129.013162 
L 215.488584 128.754602 
L 215.128323 128.496006 
L 214.768063 128.237358 
L 214.407803 127.978666 
L 214.047543 127.719938 
L 213.687282 127.46116 
L 213.327022 127.20234 
L 212.966762 126.943478 
L 212.606502 126.684571 
L 212.246241 126.425624 
L 211.885981 126.166641 
L 211.525721 125.907603 
L 211.16546 125.648534 
L 210.8052 125.389417 
L 210.44494 125.130266 
L 210.08468 124.871071 
L 209.724419 124.61183 
L 209.364159 124.352552 
L 209.003899 124.093235 
L 208.643639 123.833869 
L 208.283378 123.574477 
L 207.923118 123.315036 
L 207.562858 123.055556 
L 207.202598 122.796041 
L 206.842337 122.536482 
L 206.482077 122.27689 
L 206.121817 122.017252 
L 205.761557 121.757584 
L 205.401296 121.497872 
L 205.041036 121.238131 
L 204.680776 120.978341 
L 204.320516 120.718523 
L 203.960255 120.458663 
L 203.599995 120.198762 
L 203.239735 119.938831 
L 202.879474 119.678861 
L 202.519214 119.418855 
L 202.158954 119.158813 
L 201.798694 118.898735 
L 201.438433 118.63862 
L 201.078173 118.378473 
L 200.717913 118.11829 
L 200.357653 117.858071 
L 199.997392 117.597823 
L 199.637132 117.337531 
L 199.276872 117.077209 
L 198.916612 116.816854 
L 198.556351 116.556467 
L 198.196091 116.296046 
L 197.835831 116.035588 
L 197.475571 115.775097 
L 197.11531 115.514579 
L 196.75505 115.254022 
L 196.39479 114.993433 
L 196.03453 114.73282 
L 195.674269 114.472167 
L 195.314009 114.211483 
L 194.953749 113.95077 
L 194.593488 113.690023 
L 194.233228 113.429246 
L 193.872968 113.168441 
L 193.512708 112.907603 
L 193.152447 112.64673 
L 192.792187 112.385833 
L 192.431927 112.124904 
L 192.071667 111.863948 
L 191.711406 111.602959 
L 191.351146 111.341942 
L 190.990886 111.080897 
L 190.630626 110.819819 
L 190.270365 110.558716 
L 189.910105 110.297581 
L 189.549845 110.036419 
L 189.189585 109.775231 
L 188.829324 109.514014 
L 188.469064 109.252768 
L 188.108804 108.991493 
L 187.748544 108.730196 
L 187.388283 108.468865 
L 187.028023 108.207514 
L 186.667763 107.946132 
L 186.307503 107.684722 
L 185.947242 107.42329 
L 185.586982 107.161827 
L 185.226722 106.900342 
L 184.866461 106.638829 
L 184.506201 106.377289 
L 184.145941 106.115727 
L 183.785681 105.854138 
L 183.42542 105.592522 
L 183.06516 105.330883 
L 182.7049 105.069221 
L 182.34464 104.80753 
L 181.984379 104.545818 
L 181.624119 104.284082 
L 181.263859 104.022321 
L 180.903599 103.76054 
L 180.543338 103.49873 
L 180.183078 103.236894 
L 179.822818 102.975044 
L 179.462558 102.713163 
L 179.102297 102.451262 
L 178.742037 102.189339 
L 178.381777 101.927388 
L 178.021517 101.665423 
L 177.661256 101.403429 
L 177.300996 101.141415 
L 176.940736 100.879377 
L 176.580475 100.617322 
L 176.220215 100.355239 
L 175.859955 100.09314 
L 175.499695 99.831017 
L 175.139434 99.568874 
L 174.779174 99.306713 
L 174.418914 99.044527 
L 174.058654 98.782323 
L 173.698393 98.520094 
L 173.338133 98.257845 
L 172.977873 97.995579 
L 172.617613 97.733291 
L 172.257352 97.470982 
L 171.897092 97.208656 
L 171.536832 96.946309 
L 171.176572 96.68394 
L 170.816311 96.421558 
L 170.456051 96.159149 
L 170.095791 95.896724 
L 169.735531 95.634284 
L 169.37527 95.37182 
L 169.01501 95.109338 
L 168.65475 94.84684 
L 168.294489 94.584324 
L 167.934229 94.321789 
L 167.573969 94.059233 
L 167.213709 93.796659 
L 166.853448 93.53407 
L 166.493188 93.271463 
L 166.132928 93.008837 
L 165.772668 92.746196 
L 165.412407 92.483534 
L 165.052147 92.220856 
L 164.691887 91.958161 
L 164.331627 91.69545 
L 163.971366 91.432721 
L 163.611106 91.169978 
L 163.250846 90.907216 
L 162.890586 90.644436 
L 162.530325 90.381643 
L 162.170065 90.118832 
L 161.809805 89.856007 
L 161.449545 89.593162 
L 161.089284 89.330305 
L 160.729024 89.067432 
L 160.368764 88.804538 
L 160.008504 88.541632 
L 159.648243 88.278715 
L 159.287983 88.015775 
L 158.927723 87.752825 
L 158.567462 87.489858 
L 158.207202 87.226876 
L 157.846942 86.963878 
L 157.486682 86.700867 
L 157.126421 86.437842 
L 156.766161 86.174802 
L 156.405901 85.911747 
L 156.045641 85.648679 
L 155.68538 85.385596 
L 155.32512 85.122498 
L 154.96486 84.859386 
L 154.6046 84.596261 
L 154.244339 84.33312 
L 153.884079 84.069968 
L 153.523819 83.806803 
L 153.163559 83.543622 
L 152.803298 83.280428 
L 152.443038 83.017223 
L 152.082778 82.754001 
L 151.722518 82.490768 
L 151.362257 82.227523 
L 151.001997 81.964261 
L 150.641737 81.700988 
L 150.281476 81.437707 
L 149.921216 81.174409 
L 149.560956 80.911101 
L 149.200696 80.647777 
L 148.840435 80.384443 
L 148.480175 80.121097 
L 148.119915 79.857733 
L 147.759655 79.594366 
L 147.399394 79.330981 
L 147.039134 79.067584 
L 146.678874 78.804177 
L 146.318614 78.54076 
L 145.958353 78.277328 
L 145.598093 78.013884 
L 145.237833 77.750433 
L 144.877573 77.486966 
L 144.517312 77.223487 
L 144.157052 76.960002 
L 143.796792 76.696501 
L 143.436532 76.432993 
L 143.076271 76.16947 
L 142.716011 75.905939 
L 142.355751 75.642395 
L 141.99549 75.37884 
L 141.63523 75.115276 
L 141.27497 74.851699 
L 140.91471 74.588111 
L 140.554449 74.324517 
L 140.194189 74.06091 
L 139.833929 73.797289 
L 139.473669 73.533664 
L 139.113408 73.270024 
L 138.753148 73.006376 
L 138.392888 72.742717 
L 138.032628 72.47905 
L 137.672367 72.21537 
L 137.312107 71.951682 
L 136.951847 71.687986 
L 136.591587 71.424278 
L 136.231326 71.160559 
L 135.871066 70.896832 
L 135.510806 70.633097 
L 135.150546 70.369352 
L 134.790285 70.105593 
L 134.430025 69.84183 
L 134.069765 69.578055 
L 133.709505 69.314272 
L 133.349244 69.05048 
L 132.988984 68.786678 
L 132.628724 68.522866 
L 132.268463 68.259048 
L 131.908203 67.995219 
L 131.547943 67.73138 
L 131.187683 67.467533 
L 130.827422 67.203679 
L 130.467162 66.939817 
L 130.106902 66.675942 
L 129.746642 66.412062 
L 129.386381 66.148174 
L 129.026121 65.884274 
L 128.665861 65.620369 
L 128.305601 65.356455 
L 127.94534 65.09253 
L 127.58508 64.8286 
L 127.22482 64.564661 
L 126.86456 64.300715 
L 126.504299 64.036757 
L 126.144039 63.772796 
L 125.783779 63.508823 
L 125.423519 63.244846 
L 125.063258 62.980857 
L 124.702998 62.716861 
L 124.342738 62.452859 
L 123.982477 62.188848 
L 123.622217 61.924831 
L 123.261957 61.660806 
L 122.901697 61.396772 
L 122.541436 61.132731 
L 122.181176 60.868684 
L 121.820916 60.604626 
L 121.460656 60.340563 
L 121.100395 60.076495 
L 120.740135 59.812416 
L 120.379875 59.54833 
L 120.019615 59.28424 
L 119.659354 59.020141 
L 119.299094 58.756037 
L 118.938834 58.491922 
L 118.578574 58.227801 
L 118.218313 57.963677 
L 117.858053 57.699541 
L 117.497793 57.435402 
L 117.137533 57.171253 
L 116.777272 56.9071 
L 116.417012 56.642937 
L 116.056752 56.378772 
L 115.696491 56.114595 
L 115.336231 55.850414 
L 114.975971 55.586229 
L 114.615711 55.322034 
L 114.25545 55.057832 
L 113.89519 54.793629 
L 113.53493 54.529415 
L 113.17467 54.265198 
L 112.814409 54.000971 
L 112.454149 53.73674 
L 112.093889 53.472499 
L 111.733629 53.208253 
L 111.373368 52.944005 
L 111.013108 52.679748 
L 110.652848 52.415485 
L 110.292588 52.151216 
L 109.932327 51.886943 
L 109.572067 51.622661 
L 109.211807 51.358375 
L 108.851547 51.094081 
L 108.491286 50.829783 
L 108.131026 50.565479 
L 107.770766 50.301171 
L 107.410506 50.036853 
L 107.050245 49.772533 
L 106.689985 49.508204 
L 106.329725 49.243875 
L 105.969464 48.979536 
L 105.609204 48.715189 
L 105.248944 48.450843 
L 104.888684 48.186487 
L 104.528423 47.922126 
L 104.168163 47.657761 
L 103.807903 47.393389 
L 103.447643 47.129013 
L 103.087382 46.86463 
L 102.727122 46.600243 
L 102.366862 46.335852 
L 102.006602 46.071454 
L 101.646341 45.807051 
L 101.286081 45.542642 
L 100.925821 45.278231 
L 100.565561 45.013812 
L 100.2053 44.749389 
L 99.84504 44.484962 
L 99.48478 44.220528 
L 99.12452 43.95609 
L 98.764259 43.691646 
L 98.403999 43.427196 
L 98.043739 43.162745 
L 97.683478 42.898286 
L 97.323218 42.633822 
L 96.962958 42.369358 
L 96.602698 42.104884 
L 96.242437 41.840407 
L 95.882177 41.575925 
L 95.521917 41.311438 
L 95.161657 41.046947 
L 94.801396 40.782452 
L 94.441136 40.51795 
L 94.080876 40.253446 
L 93.720616 39.988935 
L 93.360355 39.724421 
L 93.000095 39.459905 
L 92.639835 39.195378 
L 92.279575 38.930851 
L 91.919314 38.666319 
L 91.559054 38.401783 
L 91.198794 38.137243 
L 90.838534 37.872699 
L 90.478273 37.608147 
L 90.118013 37.343594 
L 89.757753 37.079034 
L 89.397492 36.814473 
L 89.037232 36.549905 
L 88.676972 36.285336 
L 88.316712 36.020759 
L 87.956451 35.756182 
L 87.596191 35.491598 
L 87.235931 35.227012 
L 86.875671 34.96242 
L 86.51541 34.697822 
L 86.15515 34.433224 
L 85.79489 34.16862 
L 85.43463 33.904011 
L 85.074369 33.6394 
L 84.714109 33.374785 
L 84.353849 33.110165 
L 83.993589 32.845541 
L 83.633328 32.580914 
L 83.273068 32.316282 
L 82.912808 32.051647 
L 82.552548 31.787009 
L 82.192287 31.522365 
L 81.832027 31.257722 
L 81.471767 30.99307 
L 81.111507 30.728416 
L 80.751246 30.463759 
L 80.390986 30.199097 
L 80.030726 29.934432 
L 79.670465 29.669764 
L 79.310205 29.405092 
L 78.949945 29.140416 
L 78.589685 28.875735 
L 78.229424 28.611052 
L 77.869164 28.346366 
L 77.508904 28.081675 
L 77.148644 27.816982 
L 76.788383 27.552285 
L 76.428123 27.287584 
L 76.067863 27.022879 
L 75.707603 26.758172 
L 75.347342 26.493461 
L 74.987082 26.228747 
L 74.626822 25.964029 
L 74.266562 25.699306 
L 73.906301 25.434582 
L 73.546041 25.169854 
L 73.185781 24.905122 
L 72.825521 24.640389 
L 72.46526 24.375651 
L 72.105 24.110909 
z
" clip-path="url(#p7694ae7726)" style="fill: #808080; fill-opacity: 0.3"/>
   </g>
   <g id="matplotlib.axis_1">
    <g id="xtick_1">
     <g id="line2d_1">
      <path d="M 82.130929 303.64 
L 82.130929 10.8 
" clip-path="url(#p7694ae7726)" style="fill: none; stroke: #b0b0b0; stroke-width: 0.8; stroke-linecap: square"/>
     </g>
     <g id="line2d_2">
      <defs>
       <path id="m1b91b731ae" d="M 0 0 
L 0 3.5 
" style="stroke: #000000; stroke-width: 0.8"/>
      </defs>
      <g>
       <use xlink:href="#m1b91b731ae" x="82.130929" y="303.64" style="stroke: #000000; stroke-width: 0.8"/>
      </g>
     </g>
     <g id="text_1">
      <!-- 2 -->
      <g transform="translate(78.949679 318.238437) scale(0.1 -0.1)">
       <defs>
        <path id="DejaVuSans-32" d="M 1228 531 
L 3431 531 
L 3431 0 
L 469 0 
L 469 531 
Q 828 903 1448 1529 
Q 2069 2156 2228 2338 
Q 2531 2678 2651 2914 
Q 2772 3150 2772 3378 
Q 2772 3750 2511 3984 
Q 2250 4219 1831 4219 
Q 1534 4219 1204 4116 
Q 875 4013 500 3803 
L 500 4441 
Q 881 4594 1212 4672 
Q 1544 4750 1819 4750 
Q 2544 4750 2975 4387 
Q 3406 4025 3406 3419 
Q 3406 3131 3298 2873 
Q 3191 2616 2906 2266 
Q 2828 2175 2409 1742 
Q 1991 1309 1228 531 
z
" transform="scale(0.015625)"/>
       </defs>
       <use xlink:href="#DejaVuSans-32"/>
      </g>
     </g>
    </g>
    <g id="xtick_2">
     <g id="line2d_3">
      <path d="M 136.804886 303.64 
L 136.804886 10.8 
" clip-path="url(#p7694ae7726)" style="fill: none; stroke: #b0b0b0; stroke-width: 0.8; stroke-linecap: square"/>
     </g>
     <g id="line2d_4">
      <g>
       <use xlink:href="#m1b91b731ae" x="136.804886" y="303.64" style="stroke: #000000; stroke-width: 0.8"/>
      </g>
     </g>
     <g id="text_2">
      <!-- 4 -->
      <g transform="translate(133.623636 318.238437) scale(0.1 -0.1)">
       <defs>
        <path id="DejaVuSans-34" d="M 2419 4116 
L 825 1625 
L 2419 1625 
L 2419 4116 
z
M 2253 4666 
L 3047 4666 
L 3047 1625 
L 3713 1625 
L 3713 1100 
L 3047 1100 
L 3047 0 
L 2419 0 
L 2419 1100 
L 313 1100 
L 313 1709 
L 2253 4666 
z
" transform="scale(0.015625)"/>
       </defs>
       <use xlink:href="#DejaVuSans-34"/>
      </g>
     </g>
    </g>
    <g id="xtick_3">
     <g id="line2d_5">
      <path d="M 191.478843 303.64 
L 191.478843 10.8 
" clip-path="url(#p7694ae7726)" style="fill: none; stroke: #b0b0b0; stroke-width: 0.8; stroke-linecap: square"/>
     </g>
     <g id="line2d_6">
      <g>
       <use xlink:href="#m1b91b731ae" x="191.478843" y="303.64" style="stroke: #000000; stroke-width: 0.8"/>
      </g>
     </g>
     <g id="text_3">
      <!-- 6 -->
      <g transform="translate(188.297593 318.238437) scale(0.1 -0.1)">
       <defs>
        <path id="DejaVuSans-36" d="M 2113 2584 
Q 1688 2584 1439 2293 
Q 1191 2003 1191 1497 
Q 1191 994 1439 701 
Q 1688 409 2113 409 
Q 2538 409 2786 701 
Q 3034 994 3034 1497 
Q 3034 2003 2786 2293 
Q 2538 2584 2113 2584 
z
M 3366 4563 
L 3366 3988 
Q 3128 4100 2886 4159 
Q 2644 4219 2406 4219 
Q 1781 4219 1451 3797 
Q 1122 3375 1075 2522 
Q 1259 2794 1537 2939 
Q 1816 3084 2150 3084 
Q 2853 3084 3261 2657 
Q 3669 2231 3669 1497 
Q 3669 778 3244 343 
Q 2819 -91 2113 -91 
Q 1303 -91 875 529 
Q 447 1150 447 2328 
Q 447 3434 972 4092 
Q 1497 4750 2381 4750 
Q 2619 4750 2861 4703 
Q 3103 4656 3366 4563 
z
" transform="scale(0.015625)"/>
       </defs>
       <use xlink:href="#DejaVuSans-36"/>
      </g>
     </g>
    </g>
    <g id="xtick_4">
     <g id="line2d_7">
      <path d="M 246.152801 303.64 
L 246.152801 10.8 
" clip-path="url(#p7694ae7726)" style="fill: none; stroke: #b0b0b0; stroke-width: 0.8; stroke-linecap: square"/>
     </g>
     <g id="line2d_8">
      <g>
       <use xlink:href="#m1b91b731ae" x="246.152801" y="303.64" style="stroke: #000000; stroke-width: 0.8"/>
      </g>
     </g>
     <g id="text_4">
      <!-- 8 -->
      <g transform="translate(242.971551 318.238437) scale(0.1 -0.1)">
       <defs>
        <path id="DejaVuSans-38" d="M 2034 2216 
Q 1584 2216 1326 1975 
Q 1069 1734 1069 1313 
Q 1069 891 1326 650 
Q 1584 409 2034 409 
Q 2484 409 2743 651 
Q 3003 894 3003 1313 
Q 3003 1734 2745 1975 
Q 2488 2216 2034 2216 
z
M 1403 2484 
Q 997 2584 770 2862 
Q 544 3141 544 3541 
Q 544 4100 942 4425 
Q 1341 4750 2034 4750 
Q 2731 4750 3128 4425 
Q 3525 4100 3525 3541 
Q 3525 3141 3298 2862 
Q 3072 2584 2669 2484 
Q 3125 2378 3379 2068 
Q 3634 1759 3634 1313 
Q 3634 634 3220 271 
Q 2806 -91 2034 -91 
Q 1263 -91 848 271 
Q 434 634 434 1313 
Q 434 1759 690 2068 
Q 947 2378 1403 2484 
z
M 1172 3481 
Q 1172 3119 1398 2916 
Q 1625 2713 2034 2713 
Q 2441 2713 2670 2916 
Q 2900 3119 2900 3481 
Q 2900 3844 2670 4047 
Q 2441 4250 2034 4250 
Q 1625 4250 1398 4047 
Q 1172 3844 1172 3481 
z
" transform="scale(0.015625)"/>
       </defs>
       <use xlink:href="#DejaVuSans-38"/>
      </g>
     </g>
    </g>
    <g id="xtick_5">
     <g id="line2d_9">
      <path d="M 300.826758 303.64 
L 300.826758 10.8 
" clip-path="url(#p7694ae7726)" style="fill: none; stroke: #b0b0b0; stroke-width: 0.8; stroke-linecap: square"/>
     </g>
     <g id="line2d_10">
      <g>
       <use xlink:href="#m1b91b731ae" x="300.826758" y="303.64" style="stroke: #000000; stroke-width: 0.8"/>
      </g>
     </g>
     <g id="text_5">
      <!-- 10 -->
      <g transform="translate(294.464258 318.238437) scale(0.1 -0.1)">
       <defs>
        <path id="DejaVuSans-31" d="M 794 531 
L 1825 531 
L 1825 4091 
L 703 3866 
L 703 4441 
L 1819 4666 
L 2450 4666 
L 2450 531 
L 3481 531 
L 3481 0 
L 794 0 
L 794 531 
z
" transform="scale(0.015625)"/>
        <path id="DejaVuSans-30" d="M 2034 4250 
Q 1547 4250 1301 3770 
Q 1056 3291 1056 2328 
Q 1056 1369 1301 889 
Q 1547 409 2034 409 
Q 2525 409 2770 889 
Q 3016 1369 3016 2328 
Q 3016 3291 2770 3770 
Q 2525 4250 2034 4250 
z
M 2034 4750 
Q 2819 4750 3233 4129 
Q 3647 3509 3647 2328 
Q 3647 1150 3233 529 
Q 2819 -91 2034 -91 
Q 1250 -91 836 529 
Q 422 1150 422 2328 
Q 422 3509 836 4129 
Q 1250 4750 2034 4750 
z
" transform="scale(0.015625)"/>
       </defs>
       <use xlink:href="#DejaVuSans-31"/>
       <use xlink:href="#DejaVuSans-30" x="63.623047"/>
      </g>
     </g>
    </g>
    <g id="xtick_6">
     <g id="line2d_11">
      <path d="M 355.500715 303.64 
L 355.500715 10.8 
" clip-path="url(#p7694ae7726)" style="fill: none; stroke: #b0b0b0; stroke-width: 0.8; stroke-linecap: square"/>
     </g>
     <g id="line2d_12">
      <g>
       <use xlink:href="#m1b91b731ae" x="355.500715" y="303.64" style="stroke: #000000; stroke-width: 0.8"/>
      </g>
     </g>
     <g id="text_6">
      <!-- 12 -->
      <g transform="translate(349.138215 318.238437) scale(0.1 -0.1)">
       <use xlink:href="#DejaVuSans-31"/>
       <use xlink:href="#DejaVuSans-32" x="63.623047"/>
      </g>
     </g>
    </g>
    <g id="xtick_7">
     <g id="line2d_13">
      <path d="M 410.174672 303.64 
L 410.174672 10.8 
" clip-path="url(#p7694ae7726)" style="fill: none; stroke: #b0b0b0; stroke-width: 0.8; stroke-linecap: square"/>
     </g>
     <g id="line2d_14">
      <g>
       <use xlink:href="#m1b91b731ae" x="410.174672" y="303.64" style="stroke: #000000; stroke-width: 0.8"/>
      </g>
     </g>
     <g id="text_7">
      <!-- 14 -->
      <g transform="translate(403.812172 318.238437) scale(0.1 -0.1)">
       <use xlink:href="#DejaVuSans-31"/>
       <use xlink:href="#DejaVuSans-34" x="63.623047"/>
      </g>
     </g>
    </g>
    <g id="text_8">
     <!-- Frecuencia [GHz] -->
     <g transform="translate(209.407344 331.916562) scale(0.1 -0.1)">
      <defs>
       <path id="DejaVuSans-46" d="M 628 4666 
L 3309 4666 
L 3309 4134 
L 1259 4134 
L 1259 2759 
L 3109 2759 
L 3109 2228 
L 1259 2228 
L 1259 0 
L 628 0 
L 628 4666 
z
" transform="scale(0.015625)"/>
       <path id="DejaVuSans-72" d="M 2631 2963 
Q 2534 3019 2420 3045 
Q 2306 3072 2169 3072 
Q 1681 3072 1420 2755 
Q 1159 2438 1159 1844 
L 1159 0 
L 581 0 
L 581 3500 
L 1159 3500 
L 1159 2956 
Q 1341 3275 1631 3429 
Q 1922 3584 2338 3584 
Q 2397 3584 2469 3576 
Q 2541 3569 2628 3553 
L 2631 2963 
z
" transform="scale(0.015625)"/>
       <path id="DejaVuSans-65" d="M 3597 1894 
L 3597 1613 
L 953 1613 
Q 991 1019 1311 708 
Q 1631 397 2203 397 
Q 2534 397 2845 478 
Q 3156 559 3463 722 
L 3463 178 
Q 3153 47 2828 -22 
Q 2503 -91 2169 -91 
Q 1331 -91 842 396 
Q 353 884 353 1716 
Q 353 2575 817 3079 
Q 1281 3584 2069 3584 
Q 2775 3584 3186 3129 
Q 3597 2675 3597 1894 
z
M 3022 2063 
Q 3016 2534 2758 2815 
Q 2500 3097 2075 3097 
Q 1594 3097 1305 2825 
Q 1016 2553 972 2059 
L 3022 2063 
z
" transform="scale(0.015625)"/>
       <path id="DejaVuSans-63" d="M 3122 3366 
L 3122 2828 
Q 2878 2963 2633 3030 
Q 2388 3097 2138 3097 
Q 1578 3097 1268 2742 
Q 959 2388 959 1747 
Q 959 1106 1268 751 
Q 1578 397 2138 397 
Q 2388 397 2633 464 
Q 2878 531 3122 666 
L 3122 134 
Q 2881 22 2623 -34 
Q 2366 -91 2075 -91 
Q 1284 -91 818 406 
Q 353 903 353 1747 
Q 353 2603 823 3093 
Q 1294 3584 2113 3584 
Q 2378 3584 2631 3529 
Q 2884 3475 3122 3366 
z
" transform="scale(0.015625)"/>
       <path id="DejaVuSans-75" d="M 544 1381 
L 544 3500 
L 1119 3500 
L 1119 1403 
Q 1119 906 1312 657 
Q 1506 409 1894 409 
Q 2359 409 2629 706 
Q 2900 1003 2900 1516 
L 2900 3500 
L 3475 3500 
L 3475 0 
L 2900 0 
L 2900 538 
Q 2691 219 2414 64 
Q 2138 -91 1772 -91 
Q 1169 -91 856 284 
Q 544 659 544 1381 
z
M 1991 3584 
L 1991 3584 
z
" transform="scale(0.015625)"/>
       <path id="DejaVuSans-6e" d="M 3513 2113 
L 3513 0 
L 2938 0 
L 2938 2094 
Q 2938 2591 2744 2837 
Q 2550 3084 2163 3084 
Q 1697 3084 1428 2787 
Q 1159 2491 1159 1978 
L 1159 0 
L 581 0 
L 581 3500 
L 1159 3500 
L 1159 2956 
Q 1366 3272 1645 3428 
Q 1925 3584 2291 3584 
Q 2894 3584 3203 3211 
Q 3513 2838 3513 2113 
z
" transform="scale(0.015625)"/>
       <path id="DejaVuSans-69" d="M 603 3500 
L 1178 3500 
L 1178 0 
L 603 0 
L 603 3500 
z
M 603 4863 
L 1178 4863 
L 1178 4134 
L 603 4134 
L 603 4863 
z
" transform="scale(0.015625)"/>
       <path id="DejaVuSans-61" d="M 2194 1759 
Q 1497 1759 1228 1600 
Q 959 1441 959 1056 
Q 959 750 1161 570 
Q 1363 391 1709 391 
Q 2188 391 2477 730 
Q 2766 1069 2766 1631 
L 2766 1759 
L 2194 1759 
z
M 3341 1997 
L 3341 0 
L 2766 0 
L 2766 531 
Q 2569 213 2275 61 
Q 1981 -91 1556 -91 
Q 1019 -91 701 211 
Q 384 513 384 1019 
Q 384 1609 779 1909 
Q 1175 2209 1959 2209 
L 2766 2209 
L 2766 2266 
Q 2766 2663 2505 2880 
Q 2244 3097 1772 3097 
Q 1472 3097 1187 3025 
Q 903 2953 641 2809 
L 641 3341 
Q 956 3463 1253 3523 
Q 1550 3584 1831 3584 
Q 2591 3584 2966 3190 
Q 3341 2797 3341 1997 
z
" transform="scale(0.015625)"/>
       <path id="DejaVuSans-20" transform="scale(0.015625)"/>
       <path id="DejaVuSans-5b" d="M 550 4863 
L 1875 4863 
L 1875 4416 
L 1125 4416 
L 1125 -397 
L 1875 -397 
L 1875 -844 
L 550 -844 
L 550 4863 
z
" transform="scale(0.015625)"/>
       <path id="DejaVuSans-47" d="M 3809 666 
L 3809 1919 
L 2778 1919 
L 2778 2438 
L 4434 2438 
L 4434 434 
Q 4069 175 3628 42 
Q 3188 -91 2688 -91 
Q 1594 -91 976 548 
Q 359 1188 359 2328 
Q 359 3472 976 4111 
Q 1594 4750 2688 4750 
Q 3144 4750 3555 4637 
Q 3966 4525 4313 4306 
L 4313 3634 
Q 3963 3931 3569 4081 
Q 3175 4231 2741 4231 
Q 1884 4231 1454 3753 
Q 1025 3275 1025 2328 
Q 1025 1384 1454 906 
Q 1884 428 2741 428 
Q 3075 428 3337 486 
Q 3600 544 3809 666 
z
" transform="scale(0.015625)"/>
       <path id="DejaVuSans-48" d="M 628 4666 
L 1259 4666 
L 1259 2753 
L 3553 2753 
L 3553 4666 
L 4184 4666 
L 4184 0 
L 3553 0 
L 3553 2222 
L 1259 2222 
L 1259 0 
L 628 0 
L 628 4666 
z
" transform="scale(0.015625)"/>
       <path id="DejaVuSans-7a" d="M 353 3500 
L 3084 3500 
L 3084 2975 
L 922 459 
L 3084 459 
L 3084 0 
L 275 0 
L 275 525 
L 2438 3041 
L 353 3041 
L 353 3500 
z
" transform="scale(0.015625)"/>
       <path id="DejaVuSans-5d" d="M 1947 4863 
L 1947 -844 
L 622 -844 
L 622 -397 
L 1369 -397 
L 1369 4416 
L 622 4416 
L 622 4863 
L 1947 4863 
z
" transform="scale(0.015625)"/>
      </defs>
      <use xlink:href="#DejaVuSans-46"/>
      <use xlink:href="#DejaVuSans-72" x="50.269531"/>
      <use xlink:href="#DejaVuSans-65" x="89.132812"/>
      <use xlink:href="#DejaVuSans-63" x="150.65625"/>
      <use xlink:href="#DejaVuSans-75" x="205.636719"/>
      <use xlink:href="#DejaVuSans-65" x="269.015625"/>
      <use xlink:href="#DejaVuSans-6e" x="330.539062"/>
      <use xlink:href="#DejaVuSans-63" x="393.917969"/>
      <use xlink:href="#DejaVuSans-69" x="448.898438"/>
      <use xlink:href="#DejaVuSans-61" x="476.681641"/>
      <use xlink:href="#DejaVuSans-20" x="537.960938"/>
      <use xlink:href="#DejaVuSans-5b" x="569.748047"/>
      <use xlink:href="#DejaVuSans-47" x="608.761719"/>
      <use xlink:href="#DejaVuSans-48" x="686.251953"/>
      <use xlink:href="#DejaVuSans-7a" x="761.447266"/>
      <use xlink:href="#DejaVuSans-5d" x="813.9375"/>
     </g>
    </g>
    <g id="text_9">
     <!-- +3.771e5 -->
     <g transform="translate(400.476562 330.916562) scale(0.1 -0.1)">
      <defs>
       <path id="DejaVuSans-2b" d="M 2944 4013 
L 2944 2272 
L 4684 2272 
L 4684 1741 
L 2944 1741 
L 2944 0 
L 2419 0 
L 2419 1741 
L 678 1741 
L 678 2272 
L 2419 2272 
L 2419 4013 
L 2944 4013 
z
" transform="scale(0.015625)"/>
       <path id="DejaVuSans-33" d="M 2597 2516 
Q 3050 2419 3304 2112 
Q 3559 1806 3559 1356 
Q 3559 666 3084 287 
Q 2609 -91 1734 -91 
Q 1441 -91 1130 -33 
Q 819 25 488 141 
L 488 750 
Q 750 597 1062 519 
Q 1375 441 1716 441 
Q 2309 441 2620 675 
Q 2931 909 2931 1356 
Q 2931 1769 2642 2001 
Q 2353 2234 1838 2234 
L 1294 2234 
L 1294 2753 
L 1863 2753 
Q 2328 2753 2575 2939 
Q 2822 3125 2822 3475 
Q 2822 3834 2567 4026 
Q 2313 4219 1838 4219 
Q 1578 4219 1281 4162 
Q 984 4106 628 3988 
L 628 4550 
Q 988 4650 1302 4700 
Q 1616 4750 1894 4750 
Q 2613 4750 3031 4423 
Q 3450 4097 3450 3541 
Q 3450 3153 3228 2886 
Q 3006 2619 2597 2516 
z
" transform="scale(0.015625)"/>
       <path id="DejaVuSans-2e" d="M 684 794 
L 1344 794 
L 1344 0 
L 684 0 
L 684 794 
z
" transform="scale(0.015625)"/>
       <path id="DejaVuSans-37" d="M 525 4666 
L 3525 4666 
L 3525 4397 
L 1831 0 
L 1172 0 
L 2766 4134 
L 525 4134 
L 525 4666 
z
" transform="scale(0.015625)"/>
       <path id="DejaVuSans-35" d="M 691 4666 
L 3169 4666 
L 3169 4134 
L 1269 4134 
L 1269 2991 
Q 1406 3038 1543 3061 
Q 1681 3084 1819 3084 
Q 2600 3084 3056 2656 
Q 3513 2228 3513 1497 
Q 3513 744 3044 326 
Q 2575 -91 1722 -91 
Q 1428 -91 1123 -41 
Q 819 9 494 109 
L 494 744 
Q 775 591 1075 516 
Q 1375 441 1709 441 
Q 2250 441 2565 725 
Q 2881 1009 2881 1497 
Q 2881 1984 2565 2268 
Q 2250 2553 1709 2553 
Q 1456 2553 1204 2497 
Q 953 2441 691 2322 
L 691 4666 
z
" transform="scale(0.015625)"/>
      </defs>
      <use xlink:href="#DejaVuSans-2b"/>
      <use xlink:href="#DejaVuSans-33" x="83.789062"/>
      <use xlink:href="#DejaVuSans-2e" x="147.412109"/>
      <use xlink:href="#DejaVuSans-37" x="179.199219"/>
      <use xlink:href="#DejaVuSans-37" x="242.822266"/>
      <use xlink:href="#DejaVuSans-31" x="306.445312"/>
      <use xlink:href="#DejaVuSans-65" x="370.068359"/>
      <use xlink:href="#DejaVuSans-35" x="431.591797"/>
     </g>
    </g>
   </g>
   <g id="matplotlib.axis_2">
    <g id="ytick_1">
     <g id="line2d_15">
      <path d="M 54.11 279.761745 
L 450 279.761745 
" clip-path="url(#p7694ae7726)" style="fill: none; stroke: #b0b0b0; stroke-width: 0.8; stroke-linecap: square"/>
     </g>
     <g id="line2d_16">
      <defs>
       <path id="m20c0750303" d="M 0 0 
L -3.5 0 
" style="stroke: #000000; stroke-width: 0.8"/>
      </defs>
      <g>
       <use xlink:href="#m20c0750303" x="54.11" y="279.761745" style="stroke: #000000; stroke-width: 0.8"/>
      </g>
     </g>
     <g id="text_10">
      <!-- 0.98 -->
      <g transform="translate(24.844375 283.560964) scale(0.1 -0.1)">
       <defs>
        <path id="DejaVuSans-39" d="M 703 97 
L 703 672 
Q 941 559 1184 500 
Q 1428 441 1663 441 
Q 2288 441 2617 861 
Q 2947 1281 2994 2138 
Q 2813 1869 2534 1725 
Q 2256 1581 1919 1581 
Q 1219 1581 811 2004 
Q 403 2428 403 3163 
Q 403 3881 828 4315 
Q 1253 4750 1959 4750 
Q 2769 4750 3195 4129 
Q 3622 3509 3622 2328 
Q 3622 1225 3098 567 
Q 2575 -91 1691 -91 
Q 1453 -91 1209 -44 
Q 966 3 703 97 
z
M 1959 2075 
Q 2384 2075 2632 2365 
Q 2881 2656 2881 3163 
Q 2881 3666 2632 3958 
Q 2384 4250 1959 4250 
Q 1534 4250 1286 3958 
Q 1038 3666 1038 3163 
Q 1038 2656 1286 2365 
Q 1534 2075 1959 2075 
z
" transform="scale(0.015625)"/>
       </defs>
       <use xlink:href="#DejaVuSans-30"/>
       <use xlink:href="#DejaVuSans-2e" x="63.623047"/>
       <use xlink:href="#DejaVuSans-39" x="95.410156"/>
       <use xlink:href="#DejaVuSans-38" x="159.033203"/>
      </g>
     </g>
    </g>
    <g id="ytick_2">
     <g id="line2d_17">
      <path d="M 54.11 247.003325 
L 450 247.003325 
" clip-path="url(#p7694ae7726)" style="fill: none; stroke: #b0b0b0; stroke-width: 0.8; stroke-linecap: square"/>
     </g>
     <g id="line2d_18">
      <g>
       <use xlink:href="#m20c0750303" x="54.11" y="247.003325" style="stroke: #000000; stroke-width: 0.8"/>
      </g>
     </g>
     <g id="text_11">
      <!-- 1.00 -->
      <g transform="translate(24.844375 250.802544) scale(0.1 -0.1)">
       <use xlink:href="#DejaVuSans-31"/>
       <use xlink:href="#DejaVuSans-2e" x="63.623047"/>
       <use xlink:href="#DejaVuSans-30" x="95.410156"/>
       <use xlink:href="#DejaVuSans-30" x="159.033203"/>
      </g>
     </g>
    </g>
    <g id="ytick_3">
     <g id="line2d_19">
      <path d="M 54.11 214.244905 
L 450 214.244905 
" clip-path="url(#p7694ae7726)" style="fill: none; stroke: #b0b0b0; stroke-width: 0.8; stroke-linecap: square"/>
     </g>
     <g id="line2d_20">
      <g>
       <use xlink:href="#m20c0750303" x="54.11" y="214.244905" style="stroke: #000000; stroke-width: 0.8"/>
      </g>
     </g>
     <g id="text_12">
      <!-- 1.02 -->
      <g transform="translate(24.844375 218.044123) scale(0.1 -0.1)">
       <use xlink:href="#DejaVuSans-31"/>
       <use xlink:href="#DejaVuSans-2e" x="63.623047"/>
       <use xlink:href="#DejaVuSans-30" x="95.410156"/>
       <use xlink:href="#DejaVuSans-32" x="159.033203"/>
      </g>
     </g>
    </g>
    <g id="ytick_4">
     <g id="line2d_21">
      <path d="M 54.11 181.486484 
L 450 181.486484 
" clip-path="url(#p7694ae7726)" style="fill: none; stroke: #b0b0b0; stroke-width: 0.8; stroke-linecap: square"/>
     </g>
     <g id="line2d_22">
      <g>
       <use xlink:href="#m20c0750303" x="54.11" y="181.486484" style="stroke: #000000; stroke-width: 0.8"/>
      </g>
     </g>
     <g id="text_13">
      <!-- 1.04 -->
      <g transform="translate(24.844375 185.285703) scale(0.1 -0.1)">
       <use xlink:href="#DejaVuSans-31"/>
       <use xlink:href="#DejaVuSans-2e" x="63.623047"/>
       <use xlink:href="#DejaVuSans-30" x="95.410156"/>
       <use xlink:href="#DejaVuSans-34" x="159.033203"/>
      </g>
     </g>
    </g>
    <g id="ytick_5">
     <g id="line2d_23">
      <path d="M 54.11 148.728064 
L 450 148.728064 
" clip-path="url(#p7694ae7726)" style="fill: none; stroke: #b0b0b0; stroke-width: 0.8; stroke-linecap: square"/>
     </g>
     <g id="line2d_24">
      <g>
       <use xlink:href="#m20c0750303" x="54.11" y="148.728064" style="stroke: #000000; stroke-width: 0.8"/>
      </g>
     </g>
     <g id="text_14">
      <!-- 1.06 -->
      <g transform="translate(24.844375 152.527283) scale(0.1 -0.1)">
       <use xlink:href="#DejaVuSans-31"/>
       <use xlink:href="#DejaVuSans-2e" x="63.623047"/>
       <use xlink:href="#DejaVuSans-30" x="95.410156"/>
       <use xlink:href="#DejaVuSans-36" x="159.033203"/>
      </g>
     </g>
    </g>
    <g id="ytick_6">
     <g id="line2d_25">
      <path d="M 54.11 115.969643 
L 450 115.969643 
" clip-path="url(#p7694ae7726)" style="fill: none; stroke: #b0b0b0; stroke-width: 0.8; stroke-linecap: square"/>
     </g>
     <g id="line2d_26">
      <g>
       <use xlink:href="#m20c0750303" x="54.11" y="115.969643" style="stroke: #000000; stroke-width: 0.8"/>
      </g>
     </g>
     <g id="text_15">
      <!-- 1.08 -->
      <g transform="translate(24.844375 119.768862) scale(0.1 -0.1)">
       <use xlink:href="#DejaVuSans-31"/>
       <use xlink:href="#DejaVuSans-2e" x="63.623047"/>
       <use xlink:href="#DejaVuSans-30" x="95.410156"/>
       <use xlink:href="#DejaVuSans-38" x="159.033203"/>
      </g>
     </g>
    </g>
    <g id="ytick_7">
     <g id="line2d_27">
      <path d="M 54.11 83.211223 
L 450 83.211223 
" clip-path="url(#p7694ae7726)" style="fill: none; stroke: #b0b0b0; stroke-width: 0.8; stroke-linecap: square"/>
     </g>
     <g id="line2d_28">
      <g>
       <use xlink:href="#m20c0750303" x="54.11" y="83.211223" style="stroke: #000000; stroke-width: 0.8"/>
      </g>
     </g>
     <g id="text_16">
      <!-- 1.10 -->
      <g transform="translate(24.844375 87.010442) scale(0.1 -0.1)">
       <use xlink:href="#DejaVuSans-31"/>
       <use xlink:href="#DejaVuSans-2e" x="63.623047"/>
       <use xlink:href="#DejaVuSans-31" x="95.410156"/>
       <use xlink:href="#DejaVuSans-30" x="159.033203"/>
      </g>
     </g>
    </g>
    <g id="ytick_8">
     <g id="line2d_29">
      <path d="M 54.11 50.452803 
L 450 50.452803 
" clip-path="url(#p7694ae7726)" style="fill: none; stroke: #b0b0b0; stroke-width: 0.8; stroke-linecap: square"/>
     </g>
     <g id="line2d_30">
      <g>
       <use xlink:href="#m20c0750303" x="54.11" y="50.452803" style="stroke: #000000; stroke-width: 0.8"/>
      </g>
     </g>
     <g id="text_17">
      <!-- 1.12 -->
      <g transform="translate(24.844375 54.252021) scale(0.1 -0.1)">
       <use xlink:href="#DejaVuSans-31"/>
       <use xlink:href="#DejaVuSans-2e" x="63.623047"/>
       <use xlink:href="#DejaVuSans-31" x="95.410156"/>
       <use xlink:href="#DejaVuSans-32" x="159.033203"/>
      </g>
     </g>
    </g>
    <g id="ytick_9">
     <g id="line2d_31">
      <path d="M 54.11 17.694382 
L 450 17.694382 
" clip-path="url(#p7694ae7726)" style="fill: none; stroke: #b0b0b0; stroke-width: 0.8; stroke-linecap: square"/>
     </g>
     <g id="line2d_32">
      <g>
       <use xlink:href="#m20c0750303" x="54.11" y="17.694382" style="stroke: #000000; stroke-width: 0.8"/>
      </g>
     </g>
     <g id="text_18">
      <!-- 1.14 -->
      <g transform="translate(24.844375 21.493601) scale(0.1 -0.1)">
       <use xlink:href="#DejaVuSans-31"/>
       <use xlink:href="#DejaVuSans-2e" x="63.623047"/>
       <use xlink:href="#DejaVuSans-31" x="95.410156"/>
       <use xlink:href="#DejaVuSans-34" x="159.033203"/>
      </g>
     </g>
    </g>
    <g id="text_19">
     <!-- Intensidad de corriente [mA] -->
     <g transform="translate(18.764688 229.18875) rotate(-90) scale(0.1 -0.1)">
      <defs>
       <path id="DejaVuSans-49" d="M 628 4666 
L 1259 4666 
L 1259 0 
L 628 0 
L 628 4666 
z
" transform="scale(0.015625)"/>
       <path id="DejaVuSans-74" d="M 1172 4494 
L 1172 3500 
L 2356 3500 
L 2356 3053 
L 1172 3053 
L 1172 1153 
Q 1172 725 1289 603 
Q 1406 481 1766 481 
L 2356 481 
L 2356 0 
L 1766 0 
Q 1100 0 847 248 
Q 594 497 594 1153 
L 594 3053 
L 172 3053 
L 172 3500 
L 594 3500 
L 594 4494 
L 1172 4494 
z
" transform="scale(0.015625)"/>
       <path id="DejaVuSans-73" d="M 2834 3397 
L 2834 2853 
Q 2591 2978 2328 3040 
Q 2066 3103 1784 3103 
Q 1356 3103 1142 2972 
Q 928 2841 928 2578 
Q 928 2378 1081 2264 
Q 1234 2150 1697 2047 
L 1894 2003 
Q 2506 1872 2764 1633 
Q 3022 1394 3022 966 
Q 3022 478 2636 193 
Q 2250 -91 1575 -91 
Q 1294 -91 989 -36 
Q 684 19 347 128 
L 347 722 
Q 666 556 975 473 
Q 1284 391 1588 391 
Q 1994 391 2212 530 
Q 2431 669 2431 922 
Q 2431 1156 2273 1281 
Q 2116 1406 1581 1522 
L 1381 1569 
Q 847 1681 609 1914 
Q 372 2147 372 2553 
Q 372 3047 722 3315 
Q 1072 3584 1716 3584 
Q 2034 3584 2315 3537 
Q 2597 3491 2834 3397 
z
" transform="scale(0.015625)"/>
       <path id="DejaVuSans-64" d="M 2906 2969 
L 2906 4863 
L 3481 4863 
L 3481 0 
L 2906 0 
L 2906 525 
Q 2725 213 2448 61 
Q 2172 -91 1784 -91 
Q 1150 -91 751 415 
Q 353 922 353 1747 
Q 353 2572 751 3078 
Q 1150 3584 1784 3584 
Q 2172 3584 2448 3432 
Q 2725 3281 2906 2969 
z
M 947 1747 
Q 947 1113 1208 752 
Q 1469 391 1925 391 
Q 2381 391 2643 752 
Q 2906 1113 2906 1747 
Q 2906 2381 2643 2742 
Q 2381 3103 1925 3103 
Q 1469 3103 1208 2742 
Q 947 2381 947 1747 
z
" transform="scale(0.015625)"/>
       <path id="DejaVuSans-6f" d="M 1959 3097 
Q 1497 3097 1228 2736 
Q 959 2375 959 1747 
Q 959 1119 1226 758 
Q 1494 397 1959 397 
Q 2419 397 2687 759 
Q 2956 1122 2956 1747 
Q 2956 2369 2687 2733 
Q 2419 3097 1959 3097 
z
M 1959 3584 
Q 2709 3584 3137 3096 
Q 3566 2609 3566 1747 
Q 3566 888 3137 398 
Q 2709 -91 1959 -91 
Q 1206 -91 779 398 
Q 353 888 353 1747 
Q 353 2609 779 3096 
Q 1206 3584 1959 3584 
z
" transform="scale(0.015625)"/>
       <path id="DejaVuSans-6d" d="M 3328 2828 
Q 3544 3216 3844 3400 
Q 4144 3584 4550 3584 
Q 5097 3584 5394 3201 
Q 5691 2819 5691 2113 
L 5691 0 
L 5113 0 
L 5113 2094 
Q 5113 2597 4934 2840 
Q 4756 3084 4391 3084 
Q 3944 3084 3684 2787 
Q 3425 2491 3425 1978 
L 3425 0 
L 2847 0 
L 2847 2094 
Q 2847 2600 2669 2842 
Q 2491 3084 2119 3084 
Q 1678 3084 1418 2786 
Q 1159 2488 1159 1978 
L 1159 0 
L 581 0 
L 581 3500 
L 1159 3500 
L 1159 2956 
Q 1356 3278 1631 3431 
Q 1906 3584 2284 3584 
Q 2666 3584 2933 3390 
Q 3200 3197 3328 2828 
z
" transform="scale(0.015625)"/>
       <path id="DejaVuSans-41" d="M 2188 4044 
L 1331 1722 
L 3047 1722 
L 2188 4044 
z
M 1831 4666 
L 2547 4666 
L 4325 0 
L 3669 0 
L 3244 1197 
L 1141 1197 
L 716 0 
L 50 0 
L 1831 4666 
z
" transform="scale(0.015625)"/>
      </defs>
      <use xlink:href="#DejaVuSans-49"/>
      <use xlink:href="#DejaVuSans-6e" x="29.492188"/>
      <use xlink:href="#DejaVuSans-74" x="92.871094"/>
      <use xlink:href="#DejaVuSans-65" x="132.080078"/>
      <use xlink:href="#DejaVuSans-6e" x="193.603516"/>
      <use xlink:href="#DejaVuSans-73" x="256.982422"/>
      <use xlink:href="#DejaVuSans-69" x="309.082031"/>
      <use xlink:href="#DejaVuSans-64" x="336.865234"/>
      <use xlink:href="#DejaVuSans-61" x="400.341797"/>
      <use xlink:href="#DejaVuSans-64" x="461.621094"/>
      <use xlink:href="#DejaVuSans-20" x="525.097656"/>
      <use xlink:href="#DejaVuSans-64" x="556.884766"/>
      <use xlink:href="#DejaVuSans-65" x="620.361328"/>
      <use xlink:href="#DejaVuSans-20" x="681.884766"/>
      <use xlink:href="#DejaVuSans-63" x="713.671875"/>
      <use xlink:href="#DejaVuSans-6f" x="768.652344"/>
      <use xlink:href="#DejaVuSans-72" x="829.833984"/>
      <use xlink:href="#DejaVuSans-72" x="869.197266"/>
      <use xlink:href="#DejaVuSans-69" x="910.310547"/>
      <use xlink:href="#DejaVuSans-65" x="938.09375"/>
      <use xlink:href="#DejaVuSans-6e" x="999.617188"/>
      <use xlink:href="#DejaVuSans-74" x="1062.996094"/>
      <use xlink:href="#DejaVuSans-65" x="1102.205078"/>
      <use xlink:href="#DejaVuSans-20" x="1163.728516"/>
      <use xlink:href="#DejaVuSans-5b" x="1195.515625"/>
      <use xlink:href="#DejaVuSans-6d" x="1234.529297"/>
      <use xlink:href="#DejaVuSans-41" x="1331.941406"/>
      <use xlink:href="#DejaVuSans-5d" x="1400.349609"/>
     </g>
    </g>
   </g>
   <g id="LineCollection_1">
    <path d="M 345.474786 236.383891 
L 345.474786 215.909878 
" clip-path="url(#p7694ae7726)" style="fill: none; stroke: #000000; stroke-width: 1.5"/>
    <path d="M 276.945226 179.567105 
L 276.945226 159.093092 
" clip-path="url(#p7694ae7726)" style="fill: none; stroke: #000000; stroke-width: 1.5"/>
    <path d="M 193.957473 127.095132 
L 193.957473 106.621119 
" clip-path="url(#p7694ae7726)" style="fill: none; stroke: #000000; stroke-width: 1.5"/>
    <path d="M 158.635214 102.363119 
L 158.635214 81.889106 
" clip-path="url(#p7694ae7726)" style="fill: none; stroke: #000000; stroke-width: 1.5"/>
   </g>
   <g id="line2d_33">
    <defs>
     <path id="m993415f349" d="M 1.5 0 
L -1.5 -0 
" style="stroke: #000000"/>
    </defs>
    <g clip-path="url(#p7694ae7726)">
     <use xlink:href="#m993415f349" x="345.474786" y="236.383891" style="stroke: #000000"/>
     <use xlink:href="#m993415f349" x="276.945226" y="179.567105" style="stroke: #000000"/>
     <use xlink:href="#m993415f349" x="193.957473" y="127.095132" style="stroke: #000000"/>
     <use xlink:href="#m993415f349" x="158.635214" y="102.363119" style="stroke: #000000"/>
    </g>
   </g>
   <g id="line2d_34">
    <g clip-path="url(#p7694ae7726)">
     <use xlink:href="#m993415f349" x="345.474786" y="215.909878" style="stroke: #000000"/>
     <use xlink:href="#m993415f349" x="276.945226" y="159.093092" style="stroke: #000000"/>
     <use xlink:href="#m993415f349" x="193.957473" y="106.621119" style="stroke: #000000"/>
     <use xlink:href="#m993415f349" x="158.635214" y="81.889106" style="stroke: #000000"/>
    </g>
   </g>
   <g id="line2d_35">
    <path d="M 72.105 29.809957 
L 432.005 284.15461 
L 432.005 284.15461 
" clip-path="url(#p7694ae7726)" style="fill: none; stroke: #ff0000; stroke-opacity: 0.5; stroke-width: 1.5; stroke-linecap: square"/>
   </g>
   <g id="line2d_36">
    <path d="M 72.105 24.110909 
L 153.884079 84.069968 
L 197.475571 115.775097 
L 227.737432 137.519349 
L 253.676171 155.882277 
L 280.33543 174.476963 
L 313.479374 197.30803 
L 361.754249 230.266169 
L 432.005 277.980129 
L 432.005 277.980129 
" clip-path="url(#p7694ae7726)" style="fill: none; stroke-dasharray: 5.55,2.4; stroke-dashoffset: 0; stroke: #008000; stroke-width: 1.5"/>
   </g>
   <g id="line2d_37">
    <path d="M 72.105 35.509006 
L 152.803298 90.399952 
L 196.39479 120.299965 
L 226.656652 141.317817 
L 252.59539 159.605616 
L 279.25465 178.681188 
L 312.398594 202.688288 
L 360.313208 237.69349 
L 432.005 290.329091 
L 432.005 290.329091 
" clip-path="url(#p7694ae7726)" style="fill: none; stroke-dasharray: 5.55,2.4; stroke-dashoffset: 0; stroke: #008000; stroke-width: 1.5"/>
   </g>
   <g id="patch_3">
    <path d="M 54.11 303.64 
L 54.11 10.8 
" style="fill: none; stroke: #000000; stroke-width: 0.8; stroke-linejoin: miter; stroke-linecap: square"/>
   </g>
   <g id="patch_4">
    <path d="M 450 303.64 
L 450 10.8 
" style="fill: none; stroke: #000000; stroke-width: 0.8; stroke-linejoin: miter; stroke-linecap: square"/>
   </g>
   <g id="patch_5">
    <path d="M 54.11 303.64 
L 450 303.64 
" style="fill: none; stroke: #000000; stroke-width: 0.8; stroke-linejoin: miter; stroke-linecap: square"/>
   </g>
   <g id="patch_6">
    <path d="M 54.11 10.8 
L 450 10.8 
" style="fill: none; stroke: #000000; stroke-width: 0.8; stroke-linejoin: miter; stroke-linecap: square"/>
   </g>
   <g id="legend_1">
    <g id="patch_7">
     <path d="M 322.7625 77.5125 
L 443 77.5125 
Q 445 77.5125 445 75.5125 
L 445 17.8 
Q 445 15.8 443 15.8 
L 322.7625 15.8 
Q 320.7625 15.8 320.7625 17.8 
L 320.7625 75.5125 
Q 320.7625 77.5125 322.7625 77.5125 
z
" style="fill: #ffffff; opacity: 0.8; stroke: #cccccc; stroke-linejoin: miter"/>
    </g>
    <g id="PathCollection_2">
     <g>
      <use xlink:href="#m5516b72cb9" x="334.7625" y="24.773438" style="stroke: #000000"/>
     </g>
    </g>
    <g id="text_20">
     <!-- Datos -->
     <g transform="translate(352.7625 27.398438) scale(0.1 -0.1)">
      <defs>
       <path id="DejaVuSans-44" d="M 1259 4147 
L 1259 519 
L 2022 519 
Q 2988 519 3436 956 
Q 3884 1394 3884 2338 
Q 3884 3275 3436 3711 
Q 2988 4147 2022 4147 
L 1259 4147 
z
M 628 4666 
L 1925 4666 
Q 3281 4666 3915 4102 
Q 4550 3538 4550 2338 
Q 4550 1131 3912 565 
Q 3275 0 1925 0 
L 628 0 
L 628 4666 
z
" transform="scale(0.015625)"/>
      </defs>
      <use xlink:href="#DejaVuSans-44"/>
      <use xlink:href="#DejaVuSans-61" x="77.001953"/>
      <use xlink:href="#DejaVuSans-74" x="138.28125"/>
      <use xlink:href="#DejaVuSans-6f" x="177.490234"/>
      <use xlink:href="#DejaVuSans-73" x="238.671875"/>
     </g>
    </g>
    <g id="line2d_38">
     <path d="M 324.7625 38.576563 
L 334.7625 38.576563 
L 344.7625 38.576563 
" style="fill: none; stroke: #ff0000; stroke-opacity: 0.5; stroke-width: 1.5; stroke-linecap: square"/>
    </g>
    <g id="text_21">
     <!-- Ajuste -->
     <g transform="translate(352.7625 42.076563) scale(0.1 -0.1)">
      <defs>
       <path id="DejaVuSans-6a" d="M 603 3500 
L 1178 3500 
L 1178 -63 
Q 1178 -731 923 -1031 
Q 669 -1331 103 -1331 
L -116 -1331 
L -116 -844 
L 38 -844 
Q 366 -844 484 -692 
Q 603 -541 603 -63 
L 603 3500 
z
M 603 4863 
L 1178 4863 
L 1178 4134 
L 603 4134 
L 603 4863 
z
" transform="scale(0.015625)"/>
      </defs>
      <use xlink:href="#DejaVuSans-41"/>
      <use xlink:href="#DejaVuSans-6a" x="68.408203"/>
      <use xlink:href="#DejaVuSans-75" x="96.191406"/>
      <use xlink:href="#DejaVuSans-73" x="159.570312"/>
      <use xlink:href="#DejaVuSans-74" x="211.669922"/>
      <use xlink:href="#DejaVuSans-65" x="250.878906"/>
     </g>
    </g>
    <g id="line2d_39">
     <path d="M 324.7625 53.254688 
L 334.7625 53.254688 
L 344.7625 53.254688 
" style="fill: none; stroke-dasharray: 5.55,2.4; stroke-dashoffset: 0; stroke: #008000; stroke-width: 1.5"/>
    </g>
    <g id="text_22">
     <!-- Error del ajuste -->
     <g transform="translate(352.7625 56.754688) scale(0.1 -0.1)">
      <defs>
       <path id="DejaVuSans-45" d="M 628 4666 
L 3578 4666 
L 3578 4134 
L 1259 4134 
L 1259 2753 
L 3481 2753 
L 3481 2222 
L 1259 2222 
L 1259 531 
L 3634 531 
L 3634 0 
L 628 0 
L 628 4666 
z
" transform="scale(0.015625)"/>
       <path id="DejaVuSans-6c" d="M 603 4863 
L 1178 4863 
L 1178 0 
L 603 0 
L 603 4863 
z
" transform="scale(0.015625)"/>
      </defs>
      <use xlink:href="#DejaVuSans-45"/>
      <use xlink:href="#DejaVuSans-72" x="63.183594"/>
      <use xlink:href="#DejaVuSans-72" x="102.546875"/>
      <use xlink:href="#DejaVuSans-6f" x="141.410156"/>
      <use xlink:href="#DejaVuSans-72" x="202.591797"/>
      <use xlink:href="#DejaVuSans-20" x="243.705078"/>
      <use xlink:href="#DejaVuSans-64" x="275.492188"/>
      <use xlink:href="#DejaVuSans-65" x="338.96875"/>
      <use xlink:href="#DejaVuSans-6c" x="400.492188"/>
      <use xlink:href="#DejaVuSans-20" x="428.275391"/>
      <use xlink:href="#DejaVuSans-61" x="460.0625"/>
      <use xlink:href="#DejaVuSans-6a" x="521.341797"/>
      <use xlink:href="#DejaVuSans-75" x="549.125"/>
      <use xlink:href="#DejaVuSans-73" x="612.503906"/>
      <use xlink:href="#DejaVuSans-74" x="664.603516"/>
      <use xlink:href="#DejaVuSans-65" x="703.8125"/>
     </g>
    </g>
    <g id="LineCollection_2">
     <path d="M 334.7625 72.932813 
L 334.7625 62.932813 
" style="fill: none; stroke: #000000; stroke-width: 1.5"/>
    </g>
    <g id="line2d_40">
     <g>
      <use xlink:href="#m993415f349" x="334.7625" y="72.932813" style="stroke: #000000"/>
     </g>
    </g>
    <g id="line2d_41">
     <g>
      <use xlink:href="#m993415f349" x="334.7625" y="62.932813" style="stroke: #000000"/>
     </g>
    </g>
    <g id="text_23">
     <!-- Error de los datos -->
     <g transform="translate(352.7625 71.432813) scale(0.1 -0.1)">
      <use xlink:href="#DejaVuSans-45"/>
      <use xlink:href="#DejaVuSans-72" x="63.183594"/>
      <use xlink:href="#DejaVuSans-72" x="102.546875"/>
      <use xlink:href="#DejaVuSans-6f" x="141.410156"/>
      <use xlink:href="#DejaVuSans-72" x="202.591797"/>
      <use xlink:href="#DejaVuSans-20" x="243.705078"/>
      <use xlink:href="#DejaVuSans-64" x="275.492188"/>
      <use xlink:href="#DejaVuSans-65" x="338.96875"/>
      <use xlink:href="#DejaVuSans-20" x="400.492188"/>
      <use xlink:href="#DejaVuSans-6c" x="432.279297"/>
      <use xlink:href="#DejaVuSans-6f" x="460.0625"/>
      <use xlink:href="#DejaVuSans-73" x="521.244141"/>
      <use xlink:href="#DejaVuSans-20" x="573.34375"/>
      <use xlink:href="#DejaVuSans-64" x="605.130859"/>
      <use xlink:href="#DejaVuSans-61" x="668.607422"/>
      <use xlink:href="#DejaVuSans-74" x="729.886719"/>
      <use xlink:href="#DejaVuSans-6f" x="769.095703"/>
      <use xlink:href="#DejaVuSans-73" x="830.277344"/>
     </g>
    </g>
   </g>
  </g>
 </g>
 <defs>
  <clipPath id="p7694ae7726">
   <rect x="54.11" y="10.8" width="395.89" height="292.84"/>
  </clipPath>
 </defs>
</svg>
